<?xml version="1.0" encoding="UTF-8" standalone="no"?>
<svg width="71px" height="20px" viewBox="0 0 71 20" version="1.1" xmlns="http://www.w3.org/2000/svg" xmlns:xlink="http://www.w3.org/1999/xlink" xmlns:sketch="http://www.bohemiancoding.com/sketch/ns">
    <!-- Generator: Sketch 3.5.1 (25234) - http://www.bohemiancoding.com/sketch -->
    <title>58</title>
    <desc>Created with Sketch.</desc>
    <defs>
        <rect id="path-1" x="0" y="0" width="71" height="20" rx="3"></rect>
    </defs>
    <g id="Page-1" stroke="none" stroke-width="1" fill="none" fill-rule="evenodd" sketch:type="MSPage">
        <g id="icon" sketch:type="MSLayerGroup" transform="translate(-320.000000, -90.000000)">
            <g id="58" transform="translate(320.000000, 90.000000)">
                <mask id="mask-2" sketch:name="Mask" fill="white">
                    <use xlink:href="#path-1"></use>
                </mask>
                <use id="Mask" fill="#FF9A3E" sketch:type="MSShapeGroup" xlink:href="#path-1"></use>
                <rect id="颜色" fill="#ED7612" sketch:type="MSShapeGroup" mask="url(#mask-2)" x="0" y="0" width="22" height="20"></rect>
                <text id="Cancel" fill="#FFFFFF" sketch:type="MSTextLayer" mask="url(#mask-2)" font-family="PingFang SC" font-size="12" font-weight="526" sketch:alignment="middle">
                    <tspan x="26.8298507" y="14">58同城</tspan>
                </text>
                <path d="M8.71907292,5.67956217 C7.98982021,5.67956217 7.39863894,5.07972628 7.39863894,4.33975593 C7.39863894,3.59983589 7.98982021,3 8.71907292,3 C9.44832562,3 10.0395069,3.59983589 10.0395069,4.33975593 C10.0395069,5.07972628 9.44832562,5.67956217 8.71907292,5.67956217 L8.71907292,5.67956217 Z M12.8786261,5.67956217 C12.1400647,5.67956217 11.5413861,5.07972628 11.5413861,4.33975593 C11.5413861,3.59983589 12.1400647,3 12.8786261,3 C13.6171373,3 14.2158662,3.59983589 14.2158662,4.33975593 C14.2158662,5.07972628 13.6171373,5.67956217 12.8786261,5.67956217 L12.8786261,5.67956217 Z M4.56047575,6.53808075 C4.93227236,6.63559622 5.30955359,7.88593781 6.59270224,8.88771054 C7.87585088,9.88948327 8.15692489,9.90966062 9.17842212,10.1167678 C10.2910948,10.3423415 11.6061951,10.1683936 12.5588076,9.86120479 C13.51142,9.55401595 14.0989784,9.15555102 14.6530756,8.74828052 C15.2071728,8.34101001 16.217248,7.39202042 16.2312866,7.28217714 C16.2453252,7.17233386 15.9557475,7.32751329 15.6583203,7.42392177 C15.3608427,7.52027994 15.3111793,7.52752567 14.9057705,7.64758342 C14.5497736,7.75299876 14.3165013,7.70826643 14.2158662,7.3312871 C14.115231,6.95425747 14.2555164,6.79223485 14.585952,6.68651761 C14.9164378,6.58075006 16.9388524,5.95157902 17.3093408,5.93230738 C17.6542175,5.91439432 17.956123,6.03178524 17.9782627,6.36408255 C18.0018113,6.71867055 18.0269198,9.35521119 17.9328259,9.53846782 C17.838732,9.72172445 17.7255175,9.75080801 17.5137811,9.74466927 C17.3019944,9.73853052 17.0180523,9.55034277 17.016895,9.33598987 C17.0156874,9.12163697 17.0590108,7.96337656 16.991384,7.94360175 C16.9237571,7.92382694 16.7230906,8.25748283 16.0608609,8.88313164 C15.3985809,9.50873013 15.2881338,9.56594122 14.5004121,10.0212147 C13.7126903,10.4764882 13.0655559,10.6106348 13.0388876,10.7226418 C13.0122193,10.8346487 13.3043632,11.4932052 13.3324404,11.8822105 C13.3604673,12.2711654 13.3909094,13.4002919 13.3909094,13.4002919 C13.3909094,13.4002919 14.2928017,13.2363572 14.7574846,13.3575723 C15.2222178,13.4787873 15.6193241,13.6787494 15.7778748,14.0403818 C15.9434197,14.4180656 16.0514012,15.0030075 15.7290668,15.3982018 C15.4067324,15.7933961 14.9984052,16.2086671 14.1375217,16.2086671 C13.2765879,16.2086671 12.8611659,16.2049436 12.4734689,15.9153156 C12.085772,15.6256876 12.1123397,15.3702755 12.1192835,15.1728293 C12.1262273,14.9753328 12.1236108,14.8284558 12.2702362,14.0658425 C12.689583,11.8853805 12.0477319,11.0032126 12.0186483,10.9964701 C11.9895648,10.9897275 11.5308194,11.0788903 10.9277128,11.1299123 C10.3246566,11.1809343 9.68376159,11.146668 9.68376159,11.146668 C9.68376159,11.146668 9.30255559,11.8200179 9.41944333,13.0183814 C9.53633107,14.2167953 9.71324769,14.9714081 9.61638635,15.3908051 C9.51957532,15.8101518 9.32378961,15.9047489 8.91012877,16.056708 C8.49641762,16.2086671 7.35571804,16.3123213 6.76876345,16.019322 C6.18180886,15.7263227 5.87859512,15.3193038 5.84573774,14.8099893 C5.81283004,14.3006244 5.97676472,13.8097764 6.55083801,13.5291049 C7.1249113,13.2484334 8.28110869,13.3340236 8.42496665,13.4029587 C8.51322369,13.4452255 8.34707503,13.0415275 8.41258853,12.3047272 C8.47966186,11.5499635 8.8026001,11.0262078 8.69768794,10.9629082 C8.5928261,10.8996087 7.39863894,10.7783937 6.02401293,9.63407122 C4.89438322,8.69373626 3.87328854,7.14858397 4.01281919,6.85855343 C4.15234985,6.56852289 4.56047575,6.53808075 4.56047575,6.53808075 L4.56047575,6.53808075 Z" id="Shape" fill="#FFFFFF" sketch:type="MSShapeGroup" mask="url(#mask-2)"></path>
            </g>
        </g>
    </g>
</svg>