<?xml version="1.0" encoding="UTF-8" standalone="no"?>
<svg width="63px" height="20px" viewBox="0 0 63 20" version="1.1" xmlns="http://www.w3.org/2000/svg" xmlns:xlink="http://www.w3.org/1999/xlink" xmlns:sketch="http://www.bohemiancoding.com/sketch/ns">
    <!-- Generator: Sketch 3.5.1 (25234) - http://www.bohemiancoding.com/sketch -->
    <title>baidu</title>
    <desc>Created with Sketch.</desc>
    <defs>
        <rect id="path-1" x="0" y="0" width="63" height="20" rx="3"></rect>
    </defs>
    <g id="Page-1" stroke="none" stroke-width="1" fill="none" fill-rule="evenodd" sketch:type="MSPage">
        <g id="icon" sketch:type="MSLayerGroup" transform="translate(-161.000000, 0.000000)">
            <g id="baidu" transform="translate(161.000000, 0.000000)">
                <mask id="mask-2" sketch:name="Mask" fill="white">
                    <use xlink:href="#path-1"></use>
                </mask>
                <use id="Mask" fill="#4F46FB" sketch:type="MSShapeGroup" xlink:href="#path-1"></use>
                <rect id="颜色" fill="#170CE1" sketch:type="MSShapeGroup" mask="url(#mask-2)" x="0" y="0" width="21" height="20"></rect>
                <text id="Cancel" fill="#FFFFFF" sketch:type="MSTextLayer" mask="url(#mask-2)" font-family="PingFang SC" font-size="12" font-weight="526" sketch:alignment="middle">
                    <tspan x="25.674" y="14">Baidu</tspan>
                </text>
                <path d="M9.08035542,3.10691246 C8.92362645,3.16390902 8.68142579,3.3348987 8.53182718,3.49871173 C8.16854934,3.90472541 8.01186667,4.39625709 8.01895073,5.10855206 C8.01895073,5.59295338 8.05460252,5.74963605 8.24693697,6.15569604 C8.65295066,7.03898069 9.45784768,7.31678683 10.098978,6.79678002 C10.9181357,6.13430496 11.0677343,4.56720048 10.4123896,3.62691926 C10.2413999,3.3847186 9.63596772,2.99296563 9.44363326,3.00009599 C9.40089741,3.00722635 9.23703809,3.04996219 9.08035542,3.10691246 L9.08035542,3.10691246 Z M12.9126449,3.40610968 C12.6419692,3.46310624 12.0079692,4.09705987 11.8085507,4.51020391 C11.4666176,5.20828447 11.4808784,6.09869947 11.8441562,6.64718141 C12.1646982,7.12445238 12.8841235,7.32387089 13.4468662,7.08880059 C14.2019433,6.77538895 14.7789003,5.62142851 14.6008266,4.80940114 C14.3942777,3.90472541 13.6107255,3.25651107 12.9126449,3.40610968 L12.9126449,3.40610968 Z M6.0885684,6.09869947 C5.71102984,6.22690701 5.2978858,6.70417798 5.15541755,7.16005787 C4.87048104,8.09320872 4.97734381,8.85536989 5.47595954,9.4252429 C5.83928368,9.83125659 6.08143804,9.93811935 6.61570557,9.89538351 C7.18553228,9.85264766 7.54885642,9.60331664 7.81240186,9.06196506 C7.98334524,8.72003199 8.00473631,8.5846941 8.00473631,8.02195144 C8.00473631,7.50907499 7.97621488,7.32387089 7.84800734,7.08880059 C7.61293704,6.6329207 7.36365232,6.37650562 6.96472269,6.17704081 C6.54444829,5.96336158 6.48036767,5.96336158 6.0885684,6.09869947 L6.0885684,6.09869947 Z M14.6862983,7.1030613 C14.1520771,7.3737371 13.8885316,7.9792156 13.8885316,8.94084158 C13.8885316,9.65318285 13.9811337,9.98798556 14.2518095,10.3013972 C14.5509604,10.6433303 14.9926259,10.7928826 15.5553685,10.7501467 C16.075329,10.7074109 16.3531352,10.5649426 16.5811214,10.2372703 C16.8161454,9.89538351 16.8802724,9.59618629 16.8802724,8.8696306 C16.8802724,8.29262723 16.8589276,8.17155005 16.6808075,7.83674734 C16.388787,7.28113505 16.0112484,7.03185033 15.3986396,7.0033289 C15.0567065,6.98911448 14.857288,7.01758961 14.6862983,7.1030613 L14.6862983,7.1030613 Z M10.1131924,8.49209205 C9.64305177,8.70581758 9.36524563,8.94084158 9.05183399,9.39676777 C8.63155959,10.0093303 8.23980662,10.4296047 7.3849971,11.1704211 C6.0885684,12.2887761 5.81789261,12.7090505 5.81076225,13.5780744 C5.79650154,14.6252184 6.40198004,15.5512389 7.2496592,15.7933933 C7.74114458,15.9358615 9.0162285,15.900256 9.97072413,15.7079216 C10.7115405,15.5654533 11.4523569,15.6011051 12.3570326,15.829045 C13.2687924,16.056985 14.2802846,16.056985 14.8002914,15.829045 C15.7833085,15.3873796 16.2890546,14.0410847 15.8759105,12.9298601 C15.7619174,12.6235788 15.6194492,12.4312443 15.2917768,12.1249631 C14.2660702,11.1775515 13.1049794,9.9808552 12.7345712,9.48223946 C12.3214272,8.92662717 11.8940224,8.56334933 11.473748,8.42801143 C11.0962094,8.29975759 10.4764702,8.32827902 10.1131924,8.49209205 L10.1131924,8.49209205 Z M10.3269179,10.4794709 C10.41952,10.5364675 10.4337344,10.8784006 10.4551254,12.6877057 L10.4764702,14.8246369 L9.62883736,14.8246369 C8.58882374,14.8246369 8.18281005,14.7178204 7.81953221,14.3474122 C7.4847295,14.0054792 7.40638817,13.7846696 7.40638817,13.2219269 C7.40638817,12.673445 7.4847295,12.4383747 7.78392673,12.1320934 C8.16141898,11.7331638 8.4606162,11.619217 9.11596091,11.619217 L9.68578762,11.619217 L9.68578762,10.40826 L9.95650971,10.40826 C10.098978,10.40826 10.2699213,10.4438654 10.3269179,10.4794709 L10.3269179,10.4794709 Z M11.7515541,12.7375256 C11.7515541,14.0339543 11.7586845,14.0410847 12.5137153,14.0410847 L13.0337221,14.0410847 L13.0337221,11.7616852 L13.9027461,11.7616852 L13.8742709,13.1221945 C13.8457958,14.846028 13.9170068,14.7534259 12.5921029,14.7534259 C11.5948252,14.7534259 11.3882763,14.6964294 11.1176005,14.3545426 C10.9822163,14.1764226 10.9680019,14.0767365 10.9680019,12.9725959 C10.9680019,12.3172975 10.9893467,11.7616852 11.0178681,11.7402941 C11.0392129,11.711819 11.2172866,11.6904279 11.4096211,11.6904279 L11.7515541,11.6904279 L11.7515541,12.7375256 L11.7515541,12.7375256 Z M8.63155959,12.4027692 C8.23267626,12.6449236 8.090208,13.1720607 8.28967282,13.6493317 C8.43214107,13.977004 8.73842235,14.1265564 9.24416845,14.0980812 L9.65018213,14.0767365 L9.65018213,12.2959064 L9.25842916,12.2745154 C8.9663623,12.260301 8.80963333,12.2959064 8.63155959,12.4027692 L8.63155959,12.4027692 Z" id="Shape" fill="#FFFFFF" sketch:type="MSShapeGroup" mask="url(#mask-2)"></path>
            </g>
        </g>
    </g>
</svg>