<?xml version="1.0" encoding="UTF-8" standalone="no"?>
<svg width="138px" height="20px" viewBox="0 0 138 20" version="1.1" xmlns="http://www.w3.org/2000/svg" xmlns:xlink="http://www.w3.org/1999/xlink" xmlns:sketch="http://www.bohemiancoding.com/sketch/ns">
    <!-- Generator: Sketch 3.5.1 (25234) - http://www.bohemiancoding.com/sketch -->
    <title>bower</title>
    <desc>Created with Sketch.</desc>
    <defs>
        <rect id="path-1" x="0" y="0" width="138" height="20" rx="3"></rect>
        <filter x="-50%" y="-50%" width="200%" height="200%" filterUnits="objectBoundingBox" id="filter-3">
            <feOffset dx="0" dy="0" in="SourceAlpha" result="shadowOffsetInner1"></feOffset>
            <feGaussianBlur stdDeviation="0" in="shadowOffsetInner1" result="shadowBlurInner1"></feGaussianBlur>
            <feComposite in="shadowBlurInner1" in2="SourceAlpha" operator="arithmetic" k2="-1" k3="1" result="shadowInnerInner1"></feComposite>
            <feColorMatrix values="0 0 0 0 0   0 0 0 0 0   0 0 0 0 0  0 0 0 0.35 0" in="shadowInnerInner1" type="matrix" result="shadowMatrixInner1"></feColorMatrix>
            <feMerge>
                <feMergeNode in="SourceGraphic"></feMergeNode>
                <feMergeNode in="shadowMatrixInner1"></feMergeNode>
            </feMerge>
        </filter>
        <filter x="-50%" y="-50%" width="200%" height="200%" filterUnits="objectBoundingBox" id="filter-4">
            <feOffset dx="0" dy="1" in="SourceAlpha" result="shadowOffsetOuter1"></feOffset>
            <feGaussianBlur stdDeviation="0" in="shadowOffsetOuter1" result="shadowBlurOuter1"></feGaussianBlur>
            <feColorMatrix values="0 0 0 0 0.347417092   0 0 0 0 0.347417092   0 0 0 0 0.347417092  0 0 0 0.348713235 0" in="shadowBlurOuter1" type="matrix" result="shadowMatrixOuter1"></feColorMatrix>
            <feMerge>
                <feMergeNode in="shadowMatrixOuter1"></feMergeNode>
                <feMergeNode in="SourceGraphic"></feMergeNode>
            </feMerge>
        </filter>
    </defs>
    <g id="Page-1" stroke="none" stroke-width="1" fill="none" fill-rule="evenodd" sketch:type="MSPage">
        <g id="GET" sketch:type="MSLayerGroup" transform="translate(0.000000, -61.000000)">
            <g id="bower" transform="translate(0.000000, 61.000000)">
                <mask id="mask-2" sketch:name="Mask" fill="white">
                    <use xlink:href="#path-1"></use>
                </mask>
                <use id="Mask" fill="#EF5734" sketch:type="MSShapeGroup" xlink:href="#path-1"></use>
                <rect id="颜色" fill="#FFCC2F" filter="url(#filter-3)" sketch:type="MSShapeGroup" mask="url(#mask-2)" x="0" y="0" width="24.2000008" height="20"></rect>
                <text id="Cancel" fill="#FFFFFF" filter="url(#filter-4)" sketch:type="MSTextLayer" mask="url(#mask-2)" font-family="Avenir Next" font-size="12" font-weight="420">
                    <tspan x="28" y="13">get this with bower</tspan>
                </text>
                <g id="Group" mask="url(#mask-2)" sketch:type="MSShapeGroup">
                    <g transform="translate(3.000000, 3.000000)">
                        <path d="M17.6387974,7.34182987 C16.7159095,6.50103908 12.1011207,5.97616552 10.6449827,5.82337471 C10.7155086,5.66543448 10.7755604,5.50208735 10.8251379,5.33388506 C11.0236423,5.25145747 11.2379354,5.17476781 11.4594827,5.11073103 C11.4864827,5.18624368 11.6136465,5.47556781 11.6861121,5.61287356 C14.6141767,5.68945287 14.7645,3.54975632 14.8835948,2.96356781 C15.0000517,2.3904 14.9941164,1.83657931 15.9984698,0.824128733 C14.502181,0.410703448 12.3504052,1.46490115 11.6296681,3.03396781 C11.3588146,2.93774713 11.0873793,2.86668506 10.8188923,2.82273103 C10.6264785,2.08687816 9.62460773,0.0367816092 6.99552155,0.0367816092 C3.66680173,0.0367816092 0.0387931035,2.64051494 0.0387931035,7.04812873 C0.0387931035,10.7531402 2.70667242,14.0001103 4.21401724,14.0001103 C4.87229742,14.0001103 5.43856035,13.5327265 5.57150431,13.1137471 C5.6829569,13.4010115 6.0249181,14.2940689 6.13722414,14.5214161 C6.30321983,14.8576 7.07089655,15.1485057 7.40684482,14.7996322 C7.83880601,15.0271632 8.63138791,15.1642115 9.06338791,14.5574253 C9.89530601,14.7242667 10.6307845,14.2539035 10.6468448,13.6926529 C11.0550646,13.6719816 11.2553146,13.1285333 11.1661681,12.6957241 C11.1004526,12.3770851 10.3984914,11.2337287 10.1246896,10.8390621 C10.6667069,11.2570851 12.0396336,11.3754115 12.2063664,10.8393195 C13.0802586,11.4896919 14.4421293,11.1483219 14.5501293,10.6194023 C15.6119742,10.8809931 16.8298836,10.3064644 16.6299052,9.61062987 C18.3357543,9.498777 18.1174267,7.77791267 17.6387974,7.34182987 L17.6387974,7.34182987 L17.6387974,7.34182987 Z" id="Shape" fill="#543729"></path>
                        <path d="M12.8890862,3.67172414 C13.2564957,2.98056092 13.7181724,2.22587586 14.3013104,1.75897011 C13.6594785,2.00422989 13.0257931,2.7373977 12.6511293,3.52102989 C12.4601508,3.40594023 12.2662629,3.30328276 12.0707457,3.21349885 C12.5934052,2.15573333 13.8078621,1.27234943 15.1462629,1.20334713 C14.2497931,1.97421609 14.5680129,3.57642299 13.830944,4.42460689 C13.6200258,4.22374253 13.1357327,3.83610115 12.8890862,3.67172414 L12.8890862,3.67172414 L12.8890862,3.67172414 Z M12.3095948,4.7972046 C12.3099827,4.77075862 12.3204181,4.56673103 12.3400086,4.4736 C12.2886077,4.46212414 11.9691077,4.40286897 11.8025302,4.40658391 C11.7903879,4.60494713 11.8904354,4.94241839 11.989319,5.14556322 C12.6703319,5.13202759 13.1622285,4.93866667 13.4517414,4.76090115 C13.20525,4.65195402 12.7846552,4.55510805 12.4648448,4.49717701 C12.4291552,4.56717241 12.3413276,4.74552644 12.3095948,4.7972046 L12.3095948,4.7972046 L12.3095948,4.7972046 Z" id="Shape" fill="#00ACEE"></path>
                        <path d="M9.77908191,10.2653793 L9.77978018,10.2684689 C9.69346554,10.0923586 9.60179745,9.8784368 9.49232327,9.598823 C9.91858191,10.1871081 11.2545388,9.88369653 11.1844785,9.35654253 C11.838375,9.82304367 13.1843793,9.278823 12.8783793,8.62469887 C13.5334008,8.91409653 14.2810215,8.33180687 14.1133577,8.07808733 C15.2300948,8.28229887 16.3002802,8.48584827 16.6362285,8.56735633 C16.4130517,8.9123678 15.9047845,9.1560092 15.1386207,8.98670347 C15.5526207,9.52143447 14.7488276,10.1629425 13.6292586,9.8096184 C13.8757112,10.3345655 12.8788836,10.8071724 11.745931,10.2600092 C11.7603233,10.785177 10.3404181,10.845646 9.77908191,10.2653793 L9.77908191,10.2653793 L9.77908191,10.2653793 Z M11.9943621,7.61096093 C13.2904785,7.70530573 15.433875,7.88855173 16.7608319,8.06462527 C16.677,7.6551724 16.4480043,7.53820687 15.7276552,7.3547402 C14.9529181,7.43308507 12.9873879,7.61614713 11.9943621,7.61096093 L11.9943621,7.61096093 L11.9943621,7.61096093 Z" id="Shape" fill="#2BAF2B"></path>
                        <path d="M11.1844785,9.35654253 C11.838375,9.82304367 13.1843793,9.278823 12.8783793,8.62469887 C13.5334008,8.91409653 14.2810215,8.33180687 14.1133577,8.07808733 C12.7930733,7.83672647 11.4076552,7.59448273 11.0933923,7.55214713 C11.2840215,7.56174713 11.5999914,7.58227127 11.9943621,7.61099773 C12.9874267,7.61618393 14.9529569,7.43312187 15.7276552,7.354777 C14.4732414,7.0532046 11.9121207,6.61311265 10.1433879,6.50468046 C10.0614181,6.61826207 9.91074572,6.81088733 9.64831036,7.015577 C8.87446554,8.5680184 7.47236637,9.59992647 5.92103017,9.59992647 C5.46893535,9.59992647 4.96311207,9.5276138 4.39615086,9.35577013 C4.04259052,9.71490573 2.53512931,9.98705287 1.31198276,9.41782067 C2.28219827,11.5718253 4.53219827,13.0096919 7.02275431,13.0096919 C9.12029745,13.0096919 10.0504008,10.9788322 9.84685345,10.4414897 C9.79746982,10.3110253 9.60175863,9.8784368 9.49224572,9.5988598 C9.91858191,10.1871081 11.2545,9.88369653 11.1844785,9.35654253 L11.1844785,9.35654253 L11.1844785,9.35654253 Z" id="Shape" fill="#FFCC2F"></path>
                        <path d="M9.91330601,5.26925977 C10.0985043,5.17373793 10.7385129,4.80592184 11.3483793,4.66769655 C11.3387586,4.60365977 11.3315043,4.53907127 11.3270043,4.47411494 C10.9268923,4.56496552 10.1725604,4.87150345 9.74028881,4.44906667 C10.6522758,4.7099954 11.1076293,4.21657011 11.7779354,4.21657011 C12.1773492,4.21657011 12.7472974,4.32235402 13.1965604,4.4896 C12.8352026,4.17309425 11.6502285,3.21787586 10.1830733,3.21456552 C9.85550428,3.59109885 9.50143964,4.40673103 9.91330601,5.26925977 L9.91330601,5.26925977 L9.91330601,5.26925977 Z" id="Shape" fill="#CECECE"></path>
                        <path d="M4.39615086,9.35577013 C4.96311207,9.5276138 5.46893535,9.59992647 5.92103017,9.59992647 C7.47236637,9.59992647 8.87442673,8.5679816 9.64831036,7.015577 C9.07595691,7.46857933 8.08122417,7.85618393 6.52775431,7.85618393 C7.91146554,7.55869427 9.10264655,6.90490113 9.70859482,5.94924138 C9.28264655,5.30644598 8.82065946,3.8843954 9.99058191,2.7602023 C9.81062072,2.21200919 8.93467245,0.76487356 6.99552155,0.76487356 C3.61136638,0.76487356 0.806741381,3.44982069 0.806741381,7.04809193 C0.806741381,7.89988047 0.988099137,8.6987402 1.31202155,9.41778393 C2.53512931,9.98705287 4.04259052,9.71490573 4.39615086,9.35577013 L4.39615086,9.35577013 L4.39615086,9.35577013 Z" id="Shape" fill="#EF5734"></path>
                        <path d="M5.41148276,3.87703908 C5.41148276,4.69550345 6.11127155,5.35908046 6.97453448,5.35908046 C7.83779745,5.35908046 8.53766381,4.69550345 8.53766381,3.87703908 C8.53766381,3.05853793 7.83779745,2.3949977 6.97453448,2.3949977 C6.11127155,2.3949977 5.41148276,3.05853793 5.41148276,3.87703908 L5.41148276,3.87703908 L5.41148276,3.87703908 Z" id="Shape" fill="#FFCC2F"></path>
                        <path d="M6.03868965,3.87703908 C6.03868965,4.36704368 6.45773276,4.76432184 6.97449569,4.76432184 C7.491375,4.76432184 7.91034054,4.36704368 7.91034054,3.87703908 C7.91034054,3.3869977 7.49141381,2.98971954 6.97449569,2.98971954 C6.45773276,2.98971954 6.03868965,3.3869977 6.03868965,3.87703908 L6.03868965,3.87703908 L6.03868965,3.87703908 Z" id="Shape" fill="#543729"></path>
                        <ellipse id="Oval" fill="#FFFFFF" cx="6.97449569" cy="3.48332873" rx="0.545314655" ry="0.321471265"></ellipse>
                    </g>
                </g>
            </g>
        </g>
    </g>
</svg>