<svg xmlns="http://www.w3.org/2000/svg" xmlns:xlink="http://www.w3.org/1999/xlink" width="49" height="20" viewBox="0 0 49 20">
  <defs>
    <rect id="cctv-a" width="49" height="20" x="0" y="0" rx="3"/>
  </defs>
  <g fill="none" fill-rule="evenodd">
    <mask id="cctv-b" fill="#fff">
      <use xlink:href="#cctv-a"/>
    </mask>
    <use fill="#CE121A" xlink:href="#cctv-a"/>
    <path fill="#FFF" d="M11.3453427,5.06734631 L13.1159147,5.06734631 C13.4893622,5.06734631 13.7935829,5.38040903 13.7935829,5.73408332 L13.7935829,5.90482263 C13.7935829,6.24837452 13.4893622,6.54302179 13.1159147,6.54302179 L11.5698895,6.54302179 C9.25808924,6.54302179 6.98606292,7.80332182 7.0637229,10.1855011 C7.12250282,12.4153565 9.33776309,13.7324883 11.5698895,13.7324883 L13.1159147,13.7324883 C13.4893622,13.7324883 13.7935829,14.0170132 13.7935829,14.3605651 L13.7935829,14.5414268 C13.7935829,14.8666852 13.4305823,15.1898703 13.0760148,15.2102371 L11.4230027,15.2102371 C9.00207564,15.238653 6.40506057,14.0840894 5.39183073,11.9113097 C4.58628154,10.1855011 5.03726322,8.14480044 6.61274122,6.75449462 C7.93019174,5.5816375 9.61253088,5.06734631 11.3453427,5.06734631" mask="url(#cctv-b)"/>
    <path fill="#FFF" d="M11.6306833,7.2015877 L13.1159147,7.2015877 C13.4893622,7.2015877 13.7935829,7.49635693 13.7935829,7.86832471 L13.7935829,8.04918643 C13.7935829,8.42115421 13.4893622,8.7362902 13.1159147,8.7362902 L11.5614565,8.7362902 C11.0495551,8.7647061 10.5566597,8.85007576 10.1538851,9.17533415 C9.50566975,9.70791884 9.44475009,10.6327161 10.0657782,11.2140835 C10.4496727,11.5677578 11.0601279,11.766913 11.5698895,11.766913 L13.1159147,11.766913 C13.4893622,11.766913 13.7935829,12.0921714 13.7935829,12.4641392 L13.7935829,12.6450009 C13.7935829,13.027213 13.4893622,13.3321046 13.1159147,13.3321046 L11.5698895,13.3321046 C10.4579799,13.3321046 9.18886235,12.9397701 8.44196721,12.1308316 C7.46863723,11.0616377 7.28197638,9.47010337 8.67910076,8.15492285 C9.79088451,7.10609564 11.6306833,7.2015877 11.6306833,7.2015877" mask="url(#cctv-b)"/>
    <path fill="#FFF" d="M20.2883232 5.0572239L22.0588952 5.0572239C22.4323428 5.0572239 22.7365634 5.37016467 22.7365634 5.72396092L22.7365634 5.89470023C22.7365634 6.24837452 22.4323428 6.52472829 22.0588952 6.52472829L20.514884 6.52472829C18.2010698 6.52472829 15.9291693 7.79307746 16.0088432 10.1753787 16.0676231 12.4153565 18.2807436 13.7223659 20.514884 13.7223659L22.0588952 13.7223659C22.4323428 13.7223659 22.7365634 14.0089641 22.7365634 14.3605651L22.7365634 14.5231333C22.7365634 14.8666852 22.3735628 15.1797479 22.0191212 15.2001147L20.3659832 15.2001147C17.9471959 15.2285306 15.3480411 14.073967 14.3348113 11.8930162 13.5292621 10.1672076 13.9823835 8.13662935 15.5557218 6.73412786 16.8731723 5.5715151 18.5472042 5.0572239 20.2883232 5.0572239L20.2883232 5.0572239zM20.5736639 7.05938625L22.0588952 7.05938625C22.4323428 7.05938625 22.7365634 7.36427788 22.7365634 7.73624566L22.7365634 7.91710738C22.7365634 8.28907516 22.4323428 8.59396679 22.0588952 8.59396679 21.5365469 8.59396679 21.0246456 8.60213789 20.504437 8.59396679 19.9925357 8.63055378 19.5016541 8.7078743 19.1073126 9.04118183 18.4486503 9.57571783 18.3898704 10.5006371 19.0087587 11.0818825 19.3926532 11.4336055 20.0031085 11.6348339 20.514884 11.6348339L22.0588952 11.6348339C22.4323428 11.6348339 22.7365634 11.949848 22.7365634 12.3299868L22.7365634 12.5108486C22.7365634 12.8930607 22.4323428 13.1979523 22.0588952 13.1979523L20.514884 13.1979523C19.4031002 13.1979523 18.1338568 12.807691 17.3849478 11.986435 16.4116178 10.9193143 16.2249569 9.32777996 17.6220813 8.02077053 18.733865 6.97194333 20.5736639 7.05938625 20.5736639 7.05938625L20.5736639 7.05938625zM33.1962421 7.80332182L35.2331487 12.5495088C35.2331491 12.5495091 35.7534831 13.817858 36.4436122 13.7791977 37.1400347 13.7324883 37.515622 12.8259845 37.515622 12.8259845L40.6140914 5.99019229C40.8007523 5.57139315 40.9895529 5.0938109 41.5791142 5.0572239L42.7601248 5.03685714 38.7260855 13.3991808C38.6462858 13.5699201 38.0757304 14.9236389 36.806487 15.1045007 35.6569431 15.27524 34.6814734 14.6553343 34.228352 13.7223659L31.9375715 9.01276593C31.9668986 9.0228881 31.7004379 8.59396679 31.1780896 8.61226029L30.4313203 8.61226029C30.1753067 8.64067619 30.0474258 8.77495046 30.0285458 9.02288833L30.0285458 14.5130109C30.0285458 14.9032722 29.6446512 15.2184082 29.2313038 15.2184082L28.9942961 15.2184082C28.5810746 15.2184082 28.236954 14.9032722 28.236954 14.5130109L28.236954 7.77283266C28.236954 7.32561762 28.5138615 7.04914189 28.9942961 7.04914189L31.9668985 7.04914189C32.6151139 7.04914189 32.9696814 7.34391111 33.1962421 7.80332182zM23.879814 7.09597324C23.5147995 7.09597324 23.2105788 7.41098727 23.2105788 7.76466156L23.2105788 7.98418353C23.2105788 8.33578456 23.5147995 8.62238269 23.879814 8.62238269L25.4238252 8.62238269C25.6797129 8.64067619 25.8077197 8.77495046 25.8265998 9.03105943L25.8265998 14.5130109C25.8265998 14.9032722 26.2000474 15.2184082 26.6237159 15.2184082L26.8502766 15.2184082C27.274071 15.2184082 27.6076187 14.9032722 27.6076187 14.5130109L27.6076187 7.82161532C27.6076187 7.37232701 27.3328509 7.09597324 26.8502766 7.09597324L23.879814 7.09597324 23.879814 7.09597324zM32.2711192 5.0572239L23.879814 5.0572239C23.5147995 5.0572239 23.2105788 5.37016467 23.2105788 5.72396092L23.2105788 5.89470023C23.2105788 6.24837452 23.5147995 6.52472829 23.879814 6.52472829L32.2522391 6.52472829C33.0094554 6.54302179 33.43111 6.81949751 33.7772444 7.62038684L35.8142769 12.3482803C35.9317109 12.6735387 36.1289446 13.1308762 36.4142852 13.1796588 36.7079331 13.2263682 36.9051668 12.7019546 37.0729475 12.5210929 37.2302814 12.3401092 37.9771765 10.5961291 37.9771765 10.5961291L40.4084247 5.03685714 39.3554208 5.0572239C38.6462858 5.1039333 38.449178 5.76249922 38.449178 5.76249922L36.71838 9.98427261C36.7079331 10.0798866 36.5904991 10.2811151 36.4520453 10.2607483 36.3051585 10.2525772 36.2359316 9.98427261 36.2359316 9.98427261L34.977261 6.41911383C34.4360326 4.91282723 32.468227 5.06734631 32.2711192 5.0572239L32.2711192 5.0572239z" mask="url(#cctv-b)"/>
  </g>
</svg>
