<?xml version="1.0" encoding="UTF-8" standalone="no"?>
<svg width="49px" height="20px" viewBox="0 0 49 20" version="1.1" xmlns="http://www.w3.org/2000/svg" xmlns:xlink="http://www.w3.org/1999/xlink" xmlns:sketch="http://www.bohemiancoding.com/sketch/ns">
    <!-- Generator: Sketch 3.5.1 (25234) - http://www.bohemiancoding.com/sketch -->
    <title>cctv</title>
    <desc>Created with Sketch.</desc>
    <defs>
        <rect id="path-1" x="0" y="0" width="49" height="20" rx="3"></rect>
    </defs>
    <g id="Page-1" stroke="none" stroke-width="1" fill="none" fill-rule="evenodd" sketch:type="MSPage">
        <g id="icon" sketch:type="MSLayerGroup" transform="translate(-495.000000, -30.000000)">
            <g id="cctv" transform="translate(495.000000, 30.000000)">
                <mask id="mask-2" sketch:name="Mask" fill="white">
                    <use xlink:href="#path-1"></use>
                </mask>
                <use id="Mask" fill="#CE121A" sketch:type="MSShapeGroup" xlink:href="#path-1"></use>
                <path d="M11.3453427,5.06734631 L13.1159147,5.06734631 C13.4893622,5.06734631 13.7935829,5.38040903 13.7935829,5.73408332 L13.7935829,5.90482263 C13.7935829,6.24837452 13.4893622,6.54302179 13.1159147,6.54302179 L11.5698895,6.54302179 C9.25808924,6.54302179 6.98606292,7.80332182 7.0637229,10.1855011 C7.12250282,12.4153565 9.33776309,13.7324883 11.5698895,13.7324883 L13.1159147,13.7324883 C13.4893622,13.7324883 13.7935829,14.0170132 13.7935829,14.3605651 L13.7935829,14.5414268 C13.7935829,14.8666852 13.4305823,15.1898703 13.0760148,15.2102371 L11.4230027,15.2102371 C9.00207564,15.238653 6.40506057,14.0840894 5.39183073,11.9113097 C4.58628154,10.1855011 5.03726322,8.14480044 6.61274122,6.75449462 C7.93019174,5.5816375 9.61253088,5.06734631 11.3453427,5.06734631" id="Shape" fill="#FFFFFF" sketch:type="MSShapeGroup" mask="url(#mask-2)"></path>
                <path d="M11.6306833,7.2015877 L13.1159147,7.2015877 C13.4893622,7.2015877 13.7935829,7.49635693 13.7935829,7.86832471 L13.7935829,8.04918643 C13.7935829,8.42115421 13.4893622,8.7362902 13.1159147,8.7362902 L11.5614565,8.7362902 C11.0495551,8.7647061 10.5566597,8.85007576 10.1538851,9.17533415 C9.50566975,9.70791884 9.44475009,10.6327161 10.0657782,11.2140835 C10.4496727,11.5677578 11.0601279,11.766913 11.5698895,11.766913 L13.1159147,11.766913 C13.4893622,11.766913 13.7935829,12.0921714 13.7935829,12.4641392 L13.7935829,12.6450009 C13.7935829,13.027213 13.4893622,13.3321046 13.1159147,13.3321046 L11.5698895,13.3321046 C10.4579799,13.3321046 9.18886235,12.9397701 8.44196721,12.1308316 C7.46863723,11.0616377 7.28197638,9.47010337 8.67910076,8.15492285 C9.79088451,7.10609564 11.6306833,7.2015877 11.6306833,7.2015877" id="Shape" fill="#FFFFFF" sketch:type="MSShapeGroup" mask="url(#mask-2)"></path>
                <path d="M20.2883232,5.0572239 L22.0588952,5.0572239 C22.4323428,5.0572239 22.7365634,5.37016467 22.7365634,5.72396092 L22.7365634,5.89470023 C22.7365634,6.24837452 22.4323428,6.52472829 22.0588952,6.52472829 L20.514884,6.52472829 C18.2010698,6.52472829 15.9291693,7.79307746 16.0088432,10.1753787 C16.0676231,12.4153565 18.2807436,13.7223659 20.514884,13.7223659 L22.0588952,13.7223659 C22.4323428,13.7223659 22.7365634,14.0089641 22.7365634,14.3605651 L22.7365634,14.5231333 C22.7365634,14.8666852 22.3735628,15.1797479 22.0191212,15.2001147 L20.3659832,15.2001147 C17.9471959,15.2285306 15.3480411,14.073967 14.3348113,11.8930162 C13.5292621,10.1672076 13.9823835,8.13662935 15.5557218,6.73412786 C16.8731723,5.5715151 18.5472042,5.0572239 20.2883232,5.0572239 L20.2883232,5.0572239 Z M20.5736639,7.05938625 L22.0588952,7.05938625 C22.4323428,7.05938625 22.7365634,7.36427788 22.7365634,7.73624566 L22.7365634,7.91710738 C22.7365634,8.28907516 22.4323428,8.59396679 22.0588952,8.59396679 C21.5365469,8.59396679 21.0246456,8.60213789 20.504437,8.59396679 C19.9925357,8.63055378 19.5016541,8.7078743 19.1073126,9.04118183 C18.4486503,9.57571783 18.3898704,10.5006371 19.0087587,11.0818825 C19.3926532,11.4336055 20.0031085,11.6348339 20.514884,11.6348339 L22.0588952,11.6348339 C22.4323428,11.6348339 22.7365634,11.949848 22.7365634,12.3299868 L22.7365634,12.5108486 C22.7365634,12.8930607 22.4323428,13.1979523 22.0588952,13.1979523 L20.514884,13.1979523 C19.4031002,13.1979523 18.1338568,12.807691 17.3849478,11.986435 C16.4116178,10.9193143 16.2249569,9.32777996 17.6220813,8.02077053 C18.733865,6.97194333 20.5736639,7.05938625 20.5736639,7.05938625 L20.5736639,7.05938625 Z" id="Shape" fill="#FFFFFF" sketch:type="MSShapeGroup" mask="url(#mask-2)"></path>
                <path d="M33.1962421,7.80332182 L35.2331487,12.5495088 C35.2331491,12.5495091 35.7534831,13.817858 36.4436122,13.7791977 C37.1400347,13.7324883 37.515622,12.8259845 37.515622,12.8259845 L40.6140914,5.99019229 C40.8007523,5.57139315 40.9895529,5.0938109 41.5791142,5.0572239 L42.7601248,5.03685714 L38.7260855,13.3991808 C38.6462858,13.5699201 38.0757304,14.9236389 36.806487,15.1045007 C35.6569431,15.27524 34.6814734,14.6553343 34.228352,13.7223659 L31.9375715,9.01276593 C31.9668986,9.0228881 31.7004379,8.59396679 31.1780896,8.61226029 L30.4313203,8.61226029 C30.1753067,8.64067619 30.0474258,8.77495046 30.0285458,9.02288833 L30.0285458,14.5130109 C30.0285458,14.9032722 29.6446512,15.2184082 29.2313038,15.2184082 L28.9942961,15.2184082 C28.5810746,15.2184082 28.236954,14.9032722 28.236954,14.5130109 L28.236954,7.77283266 C28.236954,7.32561762 28.5138615,7.04914189 28.9942961,7.04914189 L31.9668985,7.04914189 C32.6151139,7.04914189 32.9696814,7.34391111 33.1962421,7.80332182 Z M23.879814,7.09597324 C23.5147995,7.09597324 23.2105788,7.41098727 23.2105788,7.76466156 L23.2105788,7.98418353 C23.2105788,8.33578456 23.5147995,8.62238269 23.879814,8.62238269 L25.4238252,8.62238269 C25.6797129,8.64067619 25.8077197,8.77495046 25.8265998,9.03105943 L25.8265998,14.5130109 C25.8265998,14.9032722 26.2000474,15.2184082 26.6237159,15.2184082 L26.8502766,15.2184082 C27.274071,15.2184082 27.6076187,14.9032722 27.6076187,14.5130109 L27.6076187,7.82161532 C27.6076187,7.37232701 27.3328509,7.09597324 26.8502766,7.09597324 L23.879814,7.09597324 L23.879814,7.09597324 Z M32.2711192,5.0572239 L23.879814,5.0572239 C23.5147995,5.0572239 23.2105788,5.37016467 23.2105788,5.72396092 L23.2105788,5.89470023 C23.2105788,6.24837452 23.5147995,6.52472829 23.879814,6.52472829 L32.2522391,6.52472829 C33.0094554,6.54302179 33.43111,6.81949751 33.7772444,7.62038684 L35.8142769,12.3482803 C35.9317109,12.6735387 36.1289446,13.1308762 36.4142852,13.1796588 C36.7079331,13.2263682 36.9051668,12.7019546 37.0729475,12.5210929 C37.2302814,12.3401092 37.9771765,10.5961291 37.9771765,10.5961291 L40.4084247,5.03685714 L39.3554208,5.0572239 C38.6462858,5.1039333 38.449178,5.76249922 38.449178,5.76249922 L36.71838,9.98427261 C36.7079331,10.0798866 36.5904991,10.2811151 36.4520453,10.2607483 C36.3051585,10.2525772 36.2359316,9.98427261 36.2359316,9.98427261 L34.977261,6.41911383 C34.4360326,4.91282723 32.468227,5.06734631 32.2711192,5.0572239 L32.2711192,5.0572239 Z" id="Shape" fill="#FFFFFF" sketch:type="MSShapeGroup" mask="url(#mask-2)"></path>
            </g>
        </g>
    </g>
</svg>