<svg xmlns="http://www.w3.org/2000/svg" xmlns:xlink="http://www.w3.org/1999/xlink" width="68" height="20" viewBox="0 0 68 20"><defs><rect id="a" width="68" height="20" x="0" y="0" rx="3"/></defs><g fill="none" fill-rule="evenodd"><mask id="b" fill="#fff"><use xlink:href="#a"/></mask><use xlink:href="#a" fill="#DCDCDC"/><rect width="22" height="20" fill="#BA2A24" mask="url(#b)"/><path fill="#000" fill-rule="nonzero" d="M46.2562261,5.727985 C44.6482413,5.39647283 42.9831672,5.24220589 41.3392068,5.20891756 C39.1319774,5.16416752 39.100444,5.24297364 38.8555801,7.37671654 C38.5536271,10.0079196 38.3076665,12.645539 38.0173945,15.4768011 C39.681646,15.5114604 41.2665977,15.5946538 42.8493558,15.563943 C44.5890133,15.530216 46.276243,15.2203659 47.6963983,14.0942116 C49.2957732,12.8259102 49.8180762,11.1212412 49.5249526,9.17636976 C49.2434003,7.30778169 48.0596633,6.09980511 46.2562261,5.727985 Z M45.4845623,12.51606 C44.2037572,13.4847117 42.7349581,13.6235685 41.0531576,13.4063992 C41.2556844,11.367805 41.4533852,9.37807383 41.6695125,7.20215844 C42.6430999,7.27054483 43.5159448,7.27153194 44.3674019,7.40682404 C45.4483673,7.57858518 46.2978501,8.12951509 46.552695,9.28177355 C46.8350151,10.5581366 46.5683795,11.6964106 45.4845623,12.51606 Z M37.2191878,5.4886601 C37.1227778,6.18683734 37.0330584,6.83653541 36.940213,7.50921174 C35.593599,7.39289459 34.3122455,7.23325321 33.0269983,7.19119036 C32.3482347,7.16897987 31.6412829,7.27970328 30.9898848,7.47394915 C30.6913867,7.56295564 30.496099,7.99806192 30.2539771,8.27621407 C30.5118382,8.49815447 30.7351497,8.82516971 31.0336477,8.92311525 C32.1210296,9.27990899 33.2510227,9.50958192 34.3317688,9.88310211 C35.4655459,10.2749939 36.5889034,10.8005326 36.6428666,12.2305045 C36.697817,13.6855934 35.7264781,14.4906552 34.5251372,14.9818636 C31.8471002,16.076978 29.0989767,15.9626899 26.3496467,15.2645126 C26.1943378,15.2250822 25.9951014,14.9337134 26,14.7650233 C26.0168732,14.1985187 26.1169026,13.6344818 26.1739919,13.1611515 C27.8140037,13.2895337 29.3896325,13.448133 30.9692099,13.5154774 C31.458115,13.5363169 31.9934701,13.3832016 32.4389961,13.1678421 C32.7150095,13.0344146 33.0279306,12.6268932 33.0167431,12.3551026 C33.0068718,12.1152841 32.6077959,11.7856913 32.3151658,11.6841263 C31.5773387,11.4279104 30.7891678,11.3186677 30.0464051,11.0738588 C29.3050682,10.8295434 28.5480468,10.5712436 27.8795932,10.1795711 C26.2937092,9.25029502 26.201522,7.64220052 27.6201418,6.46477019 C28.7109786,5.55940469 30.0313787,5.2728619 31.3947739,5.09671352 C33.0942331,4.87718598 35.9112914,5.04126947 37.2191878,5.4886601 Z M61.6463429,9.52422441 C61.5070474,11.4426626 61.2711774,13.354136 61.0747928,15.3032302 C60.0392903,15.3032302 59.0843488,15.3032302 58.015174,15.3032302 C58.2117781,13.474292 58.3758067,11.6870329 58.6030117,9.90789015 C58.8301072,8.12957002 58.2081585,7.34819937 56.4242446,7.28392604 C54.2401031,7.20522962 54.2332481,7.20446181 53.9983652,9.36370562 C53.7866252,11.3104965 53.5921052,13.2591519 53.3816813,15.2872167 C52.3400914,15.2872167 51.3895372,15.2872167 50.416553,15.2872167 C50.7220159,12.167986 51.0118491,9.10929948 51.3424838,6.05500024 C51.364475,5.85197986 51.6720766,5.5592401 51.8880393,5.51662886 C53.9663382,5.10625574 56.0573053,4.84252667 58.1782703,5.19422025 C60.670836,5.60755474 61.8291818,7.00549966 61.6463429,9.52422441 Z" mask="url(#b)"/><path fill="#FFF" fill-rule="nonzero" d="M15.0660176,5.06162457 C15.6896115,5.11015861 16.3075019,5.23146627 16.9920238,5.328315 C16.9029076,6.14456431 16.8225112,6.88052686 16.7597733,7.45525765 C15.1215164,7.45525765 13.6454235,7.36740278 12.1841375,7.47730361 C10.3188949,7.61753135 9.13587076,8.5699502 8.78807088,9.97952131 C8.35740666,11.7248822 9.06474235,13.0707283 10.8323137,13.3627552 C12.1784889,13.5851344 13.5847696,13.4485809 14.9643429,13.4593297 C15.2245073,13.4613588 15.4851652,13.4052019 15.7110541,13.3798107 C15.7696789,13.4537908 15.8052705,13.4777562 15.8047769,13.5009538 C15.7594785,15.7489848 15.7589301,15.8480819 13.5090346,15.8389784 C11.8381474,15.8322329 10.1266781,15.6984765 8.50947998,15.3066943 C6.72276921,14.8737816 5.3533415,13.7163133 5.06158885,11.7543864 C4.75206782,9.67329065 5.62683219,8.02395588 7.28850612,6.82404088 C9.61737234,5.14245978 12.2939836,4.84588114 15.0660176,5.06162457 Z" mask="url(#b)"/></g></svg>