<svg xmlns="http://www.w3.org/2000/svg" xmlns:xlink="http://www.w3.org/1999/xlink" width="68" height="20" viewBox="0 0 68 20">
  <defs>
    <rect id="csdn-a" width="68" height="20" rx="3"/>
  </defs>
  <g fill="none" fill-rule="evenodd">
    <mask id="csdn-b" fill="#fff">
      <use xlink:href="#csdn-a"/>
    </mask>
    <use fill="#DCDCDC" xlink:href="#csdn-a"/>
    <rect width="22" height="20" fill="#BA2A24" mask="url(#csdn-b)"/>
    <path fill="#000" fill-rule="nonzero" d="M46.5911867,5.87655771 C44.9832019,5.54504554 43.3181278,5.3907786 41.6741674,5.35749028 C39.466938,5.31274024 39.4354046,5.39154636 39.1905407,7.52528925 C38.8885877,10.1564923 38.6426271,12.7941118 38.3523551,15.6253738 C40.0166066,15.6600332 41.6015583,15.7432265 43.1843164,15.7125157 C44.9239739,15.6787887 46.6112036,15.3689386 48.0313589,14.2427843 C49.6307338,12.9744829 50.1530368,11.2698139 49.8599132,9.32494247 C49.5783609,7.4563544 48.3946239,6.24837782 46.5911867,5.87655771 Z M45.8195229,12.6646328 C44.5387178,13.6332844 43.0699187,13.7721412 41.3881182,13.5549719 C41.590645,11.5163777 41.7883458,9.52664654 42.0044731,7.35073115 C42.9780605,7.41911754 43.8509054,7.42010465 44.7023625,7.55539675 C45.7833279,7.72715789 46.6328107,8.2780878 46.8876556,9.43034626 C47.1699757,10.7067093 46.9033401,11.8449833 45.8195229,12.6646328 Z M37.5541484,5.63723281 C37.4577384,6.33541005 37.368019,6.98510813 37.2751736,7.65778445 C35.9285596,7.5414673 34.6472061,7.38182592 33.3619589,7.33976308 C32.6831953,7.31755258 31.9762435,7.42827599 31.3248454,7.62252186 C31.0263473,7.71152835 30.8310596,8.14663463 30.5889377,8.42478678 C30.8467988,8.64672718 31.0701103,8.97374242 31.3686083,9.07168796 C32.4559902,9.4284817 33.5859833,9.65815463 34.6667294,10.0316748 C35.8005065,10.4235666 36.923864,10.9491053 36.9778272,12.3790772 C37.0327776,13.8341661 36.0614387,14.6392279 34.8600978,15.1304363 C32.1820608,16.2255507 29.4339373,16.1112626 26.6846073,15.4130854 C26.5292984,15.3736549 26.330062,15.0822861 26.3350525,14.913596 C26.3518338,14.3470914 26.4518632,13.7830545 26.5089525,13.3097242 C28.1489643,13.4381064 29.7245931,13.5967057 31.3041705,13.6640501 C31.7930756,13.6848896 32.3284307,13.5317743 32.7739567,13.3164148 C33.0499701,13.1829873 33.3628912,12.7754659 33.3517037,12.5036753 C33.3418324,12.2638568 32.9427565,11.9342641 32.6501264,11.832699 C31.9122993,11.5764832 31.1241284,11.4672404 30.3813657,11.2224315 C29.6400288,10.9781161 28.8830074,10.7198163 28.2145538,10.3281438 C26.6286698,9.39886773 26.5364826,7.79077323 27.9551024,6.6133429 C29.0459392,5.7079774 30.3663393,5.42143461 31.7297345,5.24528623 C33.4291937,5.0257587 36.246252,5.18984219 37.5541484,5.63723281 Z M61.9813034,9.67279712 C61.842008,11.5912353 61.606138,13.5027087 61.4097534,15.4518029 C60.3742509,15.4518029 59.4193094,15.4518029 58.3501346,15.4518029 C58.5467386,13.6228648 58.7107673,11.8356056 58.9379723,10.0564629 C59.1650678,8.27814273 58.5431191,7.49677209 56.7592052,7.43249875 C54.5750637,7.35380233 54.5682087,7.35303452 54.3333258,9.51227833 C54.1215858,11.4590692 53.9270658,13.4077246 53.7166419,15.4357894 C52.675052,15.4357894 51.7244978,15.4357894 50.7515136,15.4357894 C51.0569765,12.3165587 51.3468097,9.25787219 51.6774444,6.20357296 C51.6994356,6.00055257 52.0070372,5.70781282 52.2229999,5.66520157 C54.3012988,5.25482845 56.3922659,4.99109939 58.5132309,5.34279296 C61.0057966,5.75612745 62.1641424,7.15407237 61.9813034,9.67279712 Z" mask="url(#csdn-b)"/>
    <path fill="#FFF" fill-rule="nonzero" d="M15.0660176,5.06162457 C15.6896115,5.11015861 16.3075019,5.23146627 16.9920238,5.328315 C16.9029076,6.14456431 16.8225112,6.88052686 16.7597733,7.45525765 C15.1215164,7.45525765 13.6454235,7.36740278 12.1841375,7.47730361 C10.3188949,7.61753135 9.13587076,8.5699502 8.78807088,9.97952131 C8.35740666,11.7248822 9.06474235,13.0707283 10.8323137,13.3627552 C12.1784889,13.5851344 13.5847696,13.4485809 14.9643429,13.4593297 C15.2245073,13.4613588 15.4851652,13.4052019 15.7110541,13.3798107 C15.7696789,13.4537908 15.8052705,13.4777562 15.8047769,13.5009538 C15.7594785,15.7489848 15.7589301,15.8480819 13.5090346,15.8389784 C11.8381474,15.8322329 10.1266781,15.6984765 8.50947998,15.3066943 C6.72276921,14.8737816 5.3533415,13.7163133 5.06158885,11.7543864 C4.75206782,9.67329065 5.62683219,8.02395588 7.28850612,6.82404088 C9.61737234,5.14245978 12.2939836,4.84588114 15.0660176,5.06162457 Z" mask="url(#csdn-b)"/>
  </g>
</svg>
