<svg xmlns="http://www.w3.org/2000/svg" xmlns:xlink="http://www.w3.org/1999/xlink" width="67" height="20" viewBox="0 0 67 20">
  <defs>
    <rect id="email-a" width="67" height="20" rx="3"/>
    <rect id="email-c" width="25" height="20"/>
    <filter id="email-d" width="100%" height="100%" x="0%" y="0%" filterUnits="objectBoundingBox">
      <feOffset in="SourceAlpha" result="shadowOffsetInner1"/>
      <feComposite in="shadowOffsetInner1" in2="SourceAlpha" k2="-1" k3="1" operator="arithmetic" result="shadowInnerInner1"/>
      <feColorMatrix in="shadowInnerInner1" values="0 0 0 0 0   0 0 0 0 0   0 0 0 0 0  0 0 0 0.5 0"/>
    </filter>
  </defs>
  <g fill="none" fill-rule="evenodd">
    <mask id="email-b" fill="#fff">
      <use xlink:href="#email-a"/>
    </mask>
    <use fill="#EA5455" xlink:href="#email-a"/>
    <g mask="url(#email-b)">
      <use fill="#FFBA49" xlink:href="#email-c"/>
      <use fill="#000" filter="url(#email-d)" xlink:href="#email-c"/>
    </g>
    <text fill="#FFF" font-family="AvenirNext-Medium, Avenir Next" font-size="12" font-weight="400" mask="url(#email-b)">
      <tspan x="31" y="14">Email</tspan>
    </text>
    <g fill-rule="nonzero" mask="url(#email-b)">
      <g transform="translate(6 3)">
        <path fill="#96383D" d="M12.1934656,4 L1.80645663,4 C0.808806618,4 0,4.79604275 0,5.77777778 L0,10.2221457 C0,11.2039573 0.808806618,12 1.80645663,12 L12.1935434,12 C13.1911156,12 14,11.2040338 14,10.2221457 L14,5.77777778 C13.9999222,4.79604275 13.1911156,4 12.1934656,4 Z"/>
        <path fill="#EBE2CE" d="M8.391891,4.63603351e-09 L1.63456496,4.63603351e-09 C1.46626195,-2.13802325e-05 1.30484664,0.0739402828 1.18583844,0.205609747 C1.06683024,0.337279211 0.999980688,0.515867466 1.00000002,0.702076206 L1.00000002,10.2979238 C0.999961352,10.4841391 1.06680469,10.6627398 1.18581709,10.7944139 C1.30482948,10.926088 1.46625602,11.0000428 1.63456496,11 L11.3654351,11 C11.5337381,11.0000214 11.6951534,10.9260597 11.8141616,10.7943902 C11.9331698,10.6627208 12.0000193,10.4841325 12,10.2979238 L12,3.99197514 L8.391891,4.63603351e-09 Z"/>
        <path fill="#C9C1B1" d="M8.17498644,3 L3,3 L3,3.71047479 L8.17498644,3.71047479 L8.17498644,3 Z M3,12 L12,12 L12,11.2894436 L3,11.2894436 L3,12 Z M3,10.5789688 L12,10.5789688 L12,9.86841247 L3,9.86841247 L3,10.5789688 Z M3,7.73682493 L12,7.73682493 L12,7.02626856 L3,7.02626856 L3,7.73682493 Z M3,9.15785609 L12,9.15785609 L12,8.4473813 L3,8.4473813 L3,9.15785609 Z M3,5.6052374 L3,6.31571219 L12,6.31571219 L12,5.6052374 L3,5.6052374 Z"/>
        <path fill="#E93741" d="M13.6233571,5 L1,13.7239908 C1.18787378,13.8938426 1.4269316,14 1.6913576,14 L12.9202854,14 C13.5165869,14 14,13.4803456 14,12.8391073 L14,5.87430753 C13.9999254,5.52355077 13.8521184,5.21287142 13.6233571,5 Z"/>
        <path fill="#EA5455" d="M0.40540355,5 C0.159165551,5.21263495 0,5.52347061 0,5.87421032 L0,12.8391044 C0,13.4803679 0.520512204,14 1.16278165,14 L13.0310059,14 C13.4110107,14 13.9960327,13.5244141 13.9960327,13.0612793 L0.40540355,5 Z"/>
        <polygon fill="#000" points="8.4 1 8.4 4.039 12 5 12 4.052"/>
        <path fill="#FFFBF2" d="M8.4,0 L8.40000002,3.29172595 C8.39995687,3.47958512 8.47456452,3.65976247 8.60740103,3.79259897 C8.74023753,3.92543548 8.92041488,4.00004313 9.10827405,3.99999998 L12.4,4 L8.4,0 Z"/>
      </g>
    </g>
  </g>
</svg>
