<?xml version="1.0" encoding="UTF-8" standalone="no"?>
<svg width="56px" height="20px" viewBox="0 0 56 20" version="1.1" xmlns="http://www.w3.org/2000/svg" xmlns:xlink="http://www.w3.org/1999/xlink" xmlns:sketch="http://www.bohemiancoding.com/sketch/ns">
    <!-- Generator: Sketch 3.5.1 (25234) - http://www.bohemiancoding.com/sketch -->
    <title>express</title>
    <desc>Created with Sketch.</desc>
    <defs>
        <rect id="path-1" x="0" y="0" width="56" height="20" rx="3"></rect>
    </defs>
    <g id="Page-1" stroke="none" stroke-width="1" fill="none" fill-rule="evenodd" sketch:type="MSPage">
        <g id="GET" sketch:type="MSLayerGroup" transform="translate(0.000000, -123.000000)">
            <g id="express" transform="translate(0.000000, 123.000000)">
                <mask id="mask-2" sketch:name="Mask" fill="white">
                    <use xlink:href="#path-1"></use>
                </mask>
                <use id="Mask" fill="#CDCDCD" sketch:type="MSShapeGroup" xlink:href="#path-1"></use>
                <path d="M6.29287341,14.0884386 L6.29287341,9.11690257 L12.5457208,9.11690257 L12.5457208,8.82616947 L6.29287341,8.82616947 L6.29287341,4.2907331 L12.9410999,4.2907331 L12.9410999,4 L6,4 L6,14.3791717 L12.9996746,14.3791717 L12.9996746,14.0884386 L6.29287341,14.0884386 L6.29287341,14.0884386 L6.29287341,14.0884386 Z M18.6374878,6.90733101 L16.0455581,10.2943716 L13.5122031,6.90733101 L13.1314676,6.90733101 L15.869834,10.5124215 L12.8678815,14.3791717 L13.2193296,14.3791717 L16.0455581,10.7304713 L18.8864302,14.3791717 L19.252522,14.3791717 L16.2359258,10.5124215 L18.9889359,6.90733101 L18.6374878,6.90733101 L18.6374878,6.90733101 L18.6374878,6.90733101 Z M20.1311422,16.9376229 L20.1311422,12.2858934 L20.1604296,12.2858934 C20.3361545,12.964274 20.6827179,13.5093931 21.2001301,13.9212671 C21.7175424,14.333141 22.3765011,14.5390749 23.1770257,14.5390749 C23.694438,14.5390749 24.1532684,14.4348966 24.5535308,14.2265368 C24.9537931,14.0181771 25.2881535,13.7347151 25.5566222,13.3761425 C25.8250908,13.0175699 26.0301001,12.6008566 26.1716564,12.1259902 C26.3132125,11.6511237 26.3839896,11.1520369 26.3839896,10.6287147 C26.3839896,10.0666279 26.310772,9.54815906 26.1643346,9.07329261 C26.017897,8.59842617 25.8055659,8.18655839 25.5273348,7.83767694 C25.2491037,7.48879546 24.9123026,7.21744728 24.5169215,7.02362425 C24.1215404,6.82980121 23.674913,6.73289115 23.1770257,6.73289115 C22.7962884,6.73289115 22.4424032,6.78861443 22.1153596,6.90006268 C21.788316,7.01151093 21.4978861,7.16898978 21.2440612,7.37250397 C20.9902363,7.57601815 20.7705834,7.81587056 20.585096,8.09206839 C20.3996085,8.36826621 20.2580545,8.67111016 20.1604296,9.00060933 L20.1311422,9.00060933 L20.1311422,6.90733101 L19.8382688,6.90733101 L19.8382688,16.9376229 L20.1311422,16.9376229 L20.1311422,16.9376229 L20.1311422,16.9376229 Z M23.1770257,14.2628784 C22.2593511,14.2628784 21.5222937,13.9503435 20.9658314,13.3252642 C20.4093691,12.7001849 20.1311422,11.8013441 20.1311422,10.6287147 C20.1311422,10.1441571 20.1994787,9.6838343 20.3361536,9.24773248 C20.4728285,8.81163064 20.6705161,8.42883588 20.9292222,8.09933671 C21.1879284,7.76983756 21.5076454,7.50818038 21.8883826,7.31435735 C22.26912,7.12053431 22.6986634,7.02362425 23.1770257,7.02362425 C23.6651504,7.02362425 24.0922533,7.12053431 24.458347,7.31435735 C24.8244404,7.50818038 25.1270733,7.77226031 25.3662545,8.10660506 C25.6054356,8.44094979 25.7860391,8.82374454 25.9080703,9.2550008 C26.0301015,9.68625706 26.0911163,10.1441571 26.0911163,10.6287147 C26.0911163,11.0648165 26.0349826,11.4984891 25.9227139,11.9297453 C25.8104453,12.3610016 25.6371636,12.7486418 25.4028636,13.0926777 C25.1685637,13.4367136 24.8683715,13.7177528 24.5022779,13.9358037 C24.1361842,14.1538546 23.694438,14.2628784 23.1770257,14.2628784 L23.1770257,14.2628784 L23.1770257,14.2628784 L23.1770257,14.2628784 Z M27.9947934,14.3791717 L27.9947934,10.1490051 C27.9947934,9.7419767 28.0533674,9.34464543 28.1705174,8.95699938 C28.2876673,8.5693533 28.4682708,8.22774532 28.7123332,7.93216519 C28.9563956,7.63658507 29.2663502,7.4040009 29.6422063,7.23440574 C30.0180623,7.06481059 30.46469,6.99455079 30.9821023,7.02362425 L30.9821023,6.73289115 C30.5330274,6.72319999 30.1400929,6.77165504 29.8032867,6.87825771 C29.4664806,6.98486038 29.1760506,7.13022547 28.9319882,7.31435735 C28.6879258,7.49848924 28.4926789,7.71411413 28.3462415,7.9612385 C28.1998039,8.20836286 28.0924181,8.4724428 28.0240807,8.75348619 L27.9947934,8.75348619 L27.9947934,6.90733101 L27.7019199,6.90733101 L27.7019199,14.3791717 L27.9947934,14.3791717 L27.9947934,14.3791717 L27.9947934,14.3791717 Z M31.348194,10.701398 L37.6449724,10.701398 C37.6644973,10.1877669 37.613245,9.6935256 37.4912138,9.21865915 C37.3691825,8.74379273 37.1739356,8.32223394 36.905467,7.95397017 C36.6369983,7.5857064 36.290435,7.2901307 35.8657663,7.06723422 C35.4410978,6.84433772 34.9358961,6.73289115 34.3501464,6.73289115 C33.9303592,6.73289115 33.5203404,6.82011021 33.1200781,6.99455094 C32.7198158,7.16899168 32.3683712,7.4233806 32.0657337,7.75772533 C31.7630964,8.09207006 31.5190377,8.5015151 31.3335503,8.98607268 C31.1480628,9.47063027 31.0553206,10.0230176 31.0553206,10.6432513 C31.0553206,11.195647 31.1187759,11.7116931 31.2456882,12.1914051 C31.3726007,12.6711171 31.5678478,13.0878304 31.8314351,13.4415575 C32.0950224,13.7952845 32.434264,14.0690554 32.8491702,14.2628784 C33.2640763,14.4567015 33.7643967,14.5487661 34.3501464,14.5390749 C35.209246,14.5390749 35.93166,14.2992225 36.5174097,13.8195105 C37.1031594,13.3397984 37.4497229,12.6638508 37.5571103,11.7916471 L37.2642369,11.7916471 C37.1373244,12.615395 36.8127262,13.2331967 36.2904329,13.6450706 C35.7681393,14.0569446 35.1116213,14.2628784 34.3208592,14.2628784 C33.7839218,14.2628784 33.3299725,14.1708139 32.9589978,13.986682 C32.5880229,13.8025501 32.28539,13.5505839 32.0510901,13.230776 C31.8167902,12.910968 31.6435086,12.5354414 31.5312399,12.1041852 C31.4189711,11.6729289 31.3579565,11.2053379 31.348194,10.701398 L31.348194,10.701398 L31.348194,10.701398 L31.348194,10.701398 Z M37.3520989,10.4106649 L31.348194,10.4106649 C31.3774814,9.88734268 31.4751049,9.41732887 31.6410673,9.00060933 C31.8070298,8.58388981 32.0242421,8.22774532 32.2927107,7.93216519 C32.5611793,7.63658507 32.8735746,7.41126915 33.2299057,7.25621074 C33.5862368,7.1011523 33.969409,7.02362425 34.3794337,7.02362425 C34.8675585,7.02362425 35.297102,7.11326605 35.6680767,7.29255237 C36.0390516,7.47183868 36.3490062,7.71653658 36.5979499,8.02665345 C36.8468936,8.3367703 37.0348188,8.69776029 37.1617311,9.10963424 C37.2886436,9.5215082 37.3520989,9.95518073 37.3520989,10.4106649 L37.3520989,10.4106649 L37.3520989,10.4106649 L37.3520989,10.4106649 Z M43.7220957,9.11690257 L44.014969,9.11690257 C44.014969,8.28346351 43.7709103,7.67777561 43.2827855,7.29982069 C42.7946608,6.92186578 42.130821,6.73289115 41.2912463,6.73289115 C40.8226465,6.73289115 40.4272714,6.79103718 40.1051091,6.90733101 C39.7829467,7.02362482 39.5193632,7.17383543 39.3143508,7.35796732 C39.1093383,7.5420992 38.9629031,7.74561034 38.8750407,7.96850682 C38.7871782,8.19140332 38.7432477,8.40460545 38.7432477,8.60811965 C38.7432477,9.01514803 38.8164653,9.33979675 38.9629027,9.58207553 C39.1093401,9.82435433 39.3387554,10.013329 39.6511552,10.1490051 C39.8659302,10.2459166 40.1099889,10.3331357 40.3833388,10.4106649 C40.6566887,10.4881941 40.973965,10.5705676 41.3351774,10.657788 C41.6573398,10.7353172 41.9746161,10.8128453 42.287016,10.8903745 C42.5994158,10.9679037 42.8752022,11.072082 43.1143833,11.2029126 C43.3535645,11.3337431 43.5488114,11.500913 43.7001302,11.7044272 C43.8514489,11.9079414 43.9271071,12.174444 43.9271071,12.5039432 C43.9271071,12.8237512 43.8514489,13.0950993 43.7001302,13.3179959 C43.5488114,13.5408924 43.356005,13.7225987 43.1217052,13.8631204 C42.8874053,14.0036421 42.6262624,14.1053978 42.3382689,14.1683902 C42.0502752,14.2313827 41.7696076,14.2628784 41.4962577,14.2628784 C40.6078707,14.2628784 39.9269467,14.0666356 39.4534656,13.674144 C38.9799846,13.2816523 38.7432477,12.6638506 38.7432477,11.8207204 L38.4503742,11.8207204 C38.4503742,12.7607621 38.706636,13.4488236 39.219167,13.8849254 C39.731698,14.3210273 40.4907206,14.5390749 41.4962577,14.5390749 C41.8184201,14.5390749 42.1430183,14.5027336 42.4700619,14.43005 C42.7971054,14.3573664 43.0899759,14.2386515 43.348682,14.073902 C43.6073882,13.9091524 43.8172788,13.6959502 43.97836,13.4342892 C44.1394412,13.172628 44.2199804,12.8528248 44.2199804,12.4748699 C44.2199804,12.1162973 44.1492035,11.8255671 44.0076472,11.6026706 C43.8660911,11.3797741 43.6806064,11.195645 43.4511878,11.0502777 C43.2217692,10.9049104 42.9630668,10.7910411 42.6750733,10.7086663 C42.3870796,10.6262915 42.0966496,10.5463407 41.8037749,10.4688115 C41.39375,10.3622088 41.0349836,10.2701443 40.727465,10.1926151 C40.4199465,10.1150858 40.1343977,10.0230213 39.8708102,9.91641861 C39.6169854,9.80981594 39.4144167,9.65718259 39.2630979,9.45851397 C39.1117792,9.25984535 39.0361211,8.97638342 39.0361211,8.60811965 C39.0361211,8.54028158 39.0556458,8.41914401 39.0946958,8.24470327 C39.1337457,8.07026254 39.2264881,7.89340167 39.3729255,7.71411536 C39.5193629,7.53482906 39.7438969,7.37492745 40.0465344,7.23440574 C40.3491717,7.09388405 40.7640715,7.02362425 41.2912463,7.02362425 C41.6524587,7.02362425 41.9819379,7.06238828 42.2796942,7.13991748 C42.5774502,7.21744671 42.8337118,7.34100703 43.0484868,7.51060219 C43.2632618,7.68019734 43.4292216,7.89582224 43.5463716,8.15748334 C43.6635215,8.41914444 43.7220957,8.73894765 43.7220957,9.11690257 L43.7220957,9.11690257 L43.7220957,9.11690257 L43.7220957,9.11690257 Z M50.5021153,9.11690257 L50.7949886,9.11690257 C50.7949886,8.28346351 50.5509299,7.67777561 50.062805,7.29982069 C49.5746802,6.92186578 48.9108405,6.73289115 48.0712659,6.73289115 C47.6026661,6.73289115 47.2072908,6.79103718 46.8851285,6.90733101 C46.5629663,7.02362482 46.2993828,7.17383543 46.0943704,7.35796732 C45.8893579,7.5420992 45.7429226,7.74561034 45.6550601,7.96850682 C45.5671978,8.19140332 45.5232671,8.40460545 45.5232671,8.60811965 C45.5232671,9.01514803 45.5964847,9.33979675 45.7429223,9.58207553 C45.8893597,9.82435433 46.1187749,10.013329 46.4311748,10.1490051 C46.6459496,10.2459166 46.8900083,10.3331357 47.1633584,10.4106649 C47.4367082,10.4881941 47.7539846,10.5705676 48.115197,10.657788 C48.4373592,10.7353172 48.7546355,10.8128453 49.0670355,10.8903745 C49.3794354,10.9679037 49.6552218,11.072082 49.8944029,11.2029126 C50.1335841,11.3337431 50.328831,11.500913 50.4801496,11.7044272 C50.6314685,11.9079414 50.7071266,12.174444 50.7071266,12.5039432 C50.7071266,12.8237512 50.6314685,13.0950993 50.4801496,13.3179959 C50.328831,13.5408924 50.1360246,13.7225987 49.9017247,13.8631204 C49.6674248,14.0036421 49.4062819,14.1053978 49.1182883,14.1683902 C48.8302948,14.2313827 48.5496271,14.2628784 48.2762773,14.2628784 C47.3878901,14.2628784 46.7069663,14.0666356 46.2334852,13.674144 C45.7600042,13.2816523 45.5232671,12.6638506 45.5232671,11.8207204 L45.2303937,11.8207204 C45.2303937,12.7607621 45.4866554,13.4488236 45.9991864,13.8849254 C46.5117176,14.3210273 47.2707401,14.5390749 48.2762773,14.5390749 C48.5984396,14.5390749 48.9230377,14.5027336 49.2500813,14.43005 C49.577125,14.3573664 49.8699955,14.2386515 50.1287016,14.073902 C50.3874078,13.9091524 50.5972982,13.6959502 50.7583794,13.4342892 C50.9194605,13.172628 51,12.8528248 51,12.4748699 C51,12.1162973 50.9292229,11.8255671 50.7876668,11.6026706 C50.6461105,11.3797741 50.460626,11.195645 50.2312073,11.0502777 C50.0017886,10.9049104 49.7430864,10.7910411 49.4550927,10.7086663 C49.1670992,10.6262915 48.8766692,10.5463407 48.5837943,10.4688115 C48.1737696,10.3622088 47.8150032,10.2701443 47.5074846,10.1926151 C47.1999659,10.1150858 46.9144171,10.0230213 46.6508298,9.91641861 C46.3970048,9.80981594 46.1944361,9.65718259 46.0431175,9.45851397 C45.8917988,9.25984535 45.8161406,8.97638342 45.8161406,8.60811965 C45.8161406,8.54028158 45.8356654,8.41914401 45.8747153,8.24470327 C45.9137653,8.07026254 46.0065075,7.89340167 46.1529451,7.71411536 C46.2993824,7.53482906 46.5239164,7.37492745 46.8265539,7.23440574 C47.1291912,7.09388405 47.5440911,7.02362425 48.0712659,7.02362425 C48.4324782,7.02362425 48.7619575,7.06238828 49.0597136,7.13991748 C49.3574698,7.21744671 49.6137314,7.34100703 49.8285064,7.51060219 C50.0432812,7.68019734 50.2092412,7.89582224 50.3263911,8.15748334 C50.4435411,8.41914444 50.5021153,8.73894765 50.5021153,9.11690257 L50.5021153,9.11690257 L50.5021153,9.11690257 L50.5021153,9.11690257 Z" id="Shape" fill="#222222" sketch:type="MSShapeGroup" mask="url(#mask-2)"></path>
            </g>
        </g>
    </g>
</svg>