<svg xmlns="http://www.w3.org/2000/svg" xmlns:xlink="http://www.w3.org/1999/xlink" width="57" height="20" viewBox="0 0 57 20">
  <defs>
    <rect id="gitee-a" width="57" height="20" x="0" y="0" rx="3"/>
  </defs>
  <g fill="none" fill-rule="evenodd">
    <mask id="gitee-b" fill="#fff">
      <use xlink:href="#gitee-a"/>
    </mask>
    <polygon fill="#C71D23" fill-rule="nonzero" points="0 0 25 0 25 20 0 20" mask="url(#gitee-b)"/>
    <polygon fill="#303643" fill-rule="nonzero" points="24 0 57 0 57 20 24 20" mask="url(#gitee-b)"/>
    <g fill="#FFF" fill-rule="nonzero" mask="url(#gitee-b)">
      <path d="M23 1.97560976L23 1.24390244 23 1.24390244C23 1.10919884 23.1193908 1 23.2666667 1L27.6666667 1C27.8139425 1 27.9333333 1.10919884 27.9333333 1.24390244L27.9333333 1.97560976C27.9333333 2.11031335 27.8139425 2.2195122 27.6666667 2.2195122L25.8415057 2.2195122 25.8415057 2.2195122C25.7353387 2.2195122 25.6392853 2.27711315 25.5969537 2.36616437L24.4144189 4.85381389C24.3850575 4.91558021 24.4160003 4.98742191 24.4835315 5.01427684 24.5003065 5.02094773 24.5184029 5.02439024 24.5366949 5.02439024L27.6666667 5.02439024C27.8139425 5.02439024 27.9333333 5.13358909 27.9333333 5.26829268L27.9333333 10.7560976C27.9333333 10.8908012 27.8139425 11 27.6666667 11L23.2666667 11C23.1193908 11 23 10.8908012 23 10.7560976L23 5.07511884 23 5.07511884C23 5.04165782 23.0075276 5.00855467 23.0221147 4.97786857L24.2522477 2.39008855 24.2522477 2.39008855C24.2816092 2.32832223 24.2506664 2.25648052 24.1831352 2.2296256 24.1663601 2.22295471 24.1482637 2.2195122 24.1299717 2.2195122L23.2666667 2.2195122C23.1193908 2.2195122 23 2.11031335 23 1.97560976L23 1.97560976zM26.4666667 6.24390244L24.4666667 6.24390244C24.3930287 6.24390244 24.3333333 6.29850187 24.3333333 6.36585366L24.3333333 9.65853659C24.3333333 9.72588838 24.3930287 9.7804878 24.4666667 9.7804878L26.4666667 9.7804878C26.5403047 9.7804878 26.6 9.72588838 26.6 9.65853659L26.6 6.36585366C26.6 6.29850187 26.5403047 6.24390244 26.4666667 6.24390244zM34.2 5.26829268L34.2 10.7560976C34.2 10.8908012 34.0806092 11 33.9333333 11L31.1333333 11C30.9860575 11 30.8666667 10.8908012 30.8666667 10.7560976L30.8666667 10.0243902C30.8666667 9.88968665 30.9860575 9.7804878 31.1333333 9.7804878L32.7333333 9.7804878C32.8069713 9.7804878 32.8666667 9.72588838 32.8666667 9.65853659L32.8666667 6.36585366C32.8666667 6.29850187 32.8069713 6.24390244 32.7333333 6.24390244L28.7333333 6.24390244C28.5860575 6.24390244 28.4666667 6.1347036 28.4666667 6L28.4666667 1.24390244C28.4666667 1.10919884 28.5860575 1 28.7333333 1L33.2666667 1 33.2666667 1C33.4139425 1 33.5333333 1.10919884 33.5333333 1.24390244L33.5333333 4.04878049C33.5333333 4.18348409 33.4139425 4.29268293 33.2666667 4.29268293L32.4666667 4.29268293 32.4666667 4.29268293C32.3193908 4.29268293 32.2 4.18348409 32.2 4.04878049L32.2 2.34146341C32.2 2.27411162 32.1403047 2.2195122 32.0666667 2.2195122L29.9333333 2.2195122C29.8596953 2.2195122 29.8 2.27411162 29.8 2.34146341L29.8 4.90243902C29.8 4.96979082 29.8596953 5.02439024 29.9333333 5.02439024L33.9333333 5.02439024C34.0806092 5.02439024 34.2 5.13358909 34.2 5.26829268zM28.4666667 8.43902439L28.4666667 7.70731707C28.4666667 7.57261348 28.5860575 7.46341463 28.7333333 7.46341463L31.8 7.46341463C31.9472759 7.46341463 32.0666667 7.57261348 32.0666667 7.70731707L32.0666667 8.43902439C32.0666667 8.57372799 31.9472759 8.68292683 31.8 8.68292683L28.7333333 8.68292683C28.5860575 8.68292683 28.4666667 8.57372799 28.4666667 8.43902439zM37.1333333 2.2195122C36.9860575 2.2195122 36.8666667 2.11031335 36.8666667 1.97560976L36.8666667 1.24390244C36.8666667 1.10919884 36.9860575 1 37.1333333 1L45.6666667 1C45.8139425 1 45.9333333 1.10919884 45.9333333 1.24390244L45.9333333 1.24390244 45.9333333 1.97560976C45.9333333 2.11031335 45.8139425 2.2195122 45.6666667 2.2195122L37.1333333 2.2195122zM44.4717488 6.6097561C45.8783327 6.6097561 47 7.42418444 47 8.69512195 47 10.1219512 45.9113816 11 44.4666667 11 44.4666667 11 44.4666667 9.90243902 44.4666667 9.7804878 45.0686312 9.7804878 45.5552851 9.35432911 45.5552851 8.69512195 45.5552851 7.39231211 43.1080351 6.99695916 42.0666667 8.94841322 42.2266399 7.07435143 43.5400007 6.6097561 44.4717488 6.6097561zM36.6 4.17073171L46.2 4.17073171C46.3472759 4.17073171 46.4666667 4.27993055 46.4666667 4.41463415L46.4666667 5.14634146C46.4666667 5.28104506 46.3472759 5.3902439 46.2 5.3902439L39.7205579 5.3902439 39.7205579 5.3902439C39.6082047 5.3902439 39.5079037 5.45465293 39.4697436 5.55130623L37.8645015 9.61711652C37.8394907 9.68046452 37.8753621 9.75036261 37.9446227 9.77323828 37.9591452 9.77803484 37.9744683 9.7804878 37.9899085 9.7804878L44.4666667 9.7804878 44.4666667 11 36.6 11C36.4527241 11 36.3333333 10.8908012 36.3333333 10.7560976L36.3333333 9.82317671 36.3333333 9.82317671C36.3333333 9.79493211 36.3386972 9.76690216 36.3491856 9.7403366L38.0021652 5.55361518C38.027176 5.49026718 37.9913045 5.4203691 37.922044 5.39749343 37.9075215 5.39269687 37.8921984 5.3902439 37.8767581 5.3902439L36.6 5.3902439C36.4527241 5.3902439 36.3333333 5.28104506 36.3333333 5.14634146L36.3333333 4.41463415C36.3333333 4.27993055 36.4527241 4.17073171 36.6 4.17073171zM11.4666696 4.80019723L5.33337009 4.80019723 5.33337009 4.8003369C5.03887439 4.8003369 4.80011683 5.03902663 4.80003971 5.33351575L4.79955087 6.66681201 4.79940678 6.66681198C4.79932964 6.96135565 5.03804726 7.20019299 5.33259749 7.20027012 5.33264553 7.20027014 5.33269356 7.20027014 5.3327416 7.20027014L9.06668284 7.20009494 9.06668284 7.2000905C9.36123308 7.20008805 9.60001522 7.43886089 9.60001767 7.73340457 9.60001767 7.73340605 9.60001767 7.73340753 9.60001767 7.73340901L9.60001323 7.86673864 9.60001323 8.00010826 9.60001323 8.00010826C9.60001323 8.88373929 8.88367278 9.60006378 8.00002205 9.60006378L2.93298637 9.60006378 2.93298637 9.60004907C2.63847841 9.60004907 2.39973026 9.36131283 2.39972214 9.06681143L2.39956777 4.00021947 2.39952368 4.00021947C2.39949932 3.11658843 3.11582002 2.4002442 3.99947075 2.40021985 3.99948544 2.40021985 3.99950015 2.40021985 3.99951485 2.40021985L11.4651811 2.40026395 11.4651811 2.39993307C11.7596022 2.39993307 11.9983288 2.16135979 11.9985114 1.86694534L11.9996692.533649078 11.9999999.533649283C12.0001826.239105662 11.7615506.000182785851 11.4670004 1.02530483e-7 11.4668901 3.4265714e-8 11.4667799 0 11.4666696 0L4.0000441.000330674806 4.0000441.000352726193C1.7909259.000352726193.0000783361134 1.7911505.0000661570027 4.00021947L.00000294030086 11.4666785 0 11.4666785C-.00000162388771 11.7612222.23877721 11.9999984.533327453 12 .533328433 12 .533329413 12 .533330393 12L8.40001985 11.9999971 8.40001985 11.9999971C10.388234 11.9999971 12 10.388267 12 8.40009714L12 5.33351573 12 5.33351573C12 5.03897205 11.7612198 4.80019723 11.4666696 4.80019723z" transform="translate(6 4)"/>
    </g>
  </g>
</svg>
