<?xml version="1.0" encoding="UTF-8" standalone="no"?>
<svg width="93px" height="20px" viewBox="0 0 93 20" version="1.1" xmlns="http://www.w3.org/2000/svg" xmlns:xlink="http://www.w3.org/1999/xlink" xmlns:sketch="http://www.bohemiancoding.com/sketch/ns">
    <!-- Generator: Sketch 3.5.1 (25234) - http://www.bohemiancoding.com/sketch -->
    <title>group</title>
    <desc>Created with Sketch.</desc>
    <defs>
        <rect id="path-1" x="0" y="0" width="93" height="20" rx="3"></rect>
    </defs>
    <g id="Page-1" stroke="none" stroke-width="1" fill="none" fill-rule="evenodd" sketch:type="MSPage">
        <g id="icon" sketch:type="MSLayerGroup" transform="translate(0.000000, -90.000000)">
            <g id="group" transform="translate(0.000000, 90.000000)">
                <mask id="mask-2" sketch:name="Mask" fill="white">
                    <use xlink:href="#path-1"></use>
                </mask>
                <use id="Mask" fill="#34C1FA" sketch:type="MSShapeGroup" xlink:href="#path-1"></use>
                <rect id="颜色" fill="#20AEDB" sketch:type="MSShapeGroup" mask="url(#mask-2)" x="0" y="0" width="30" height="20"></rect>
                <text id="Cancel" fill="#FFFFFF" sketch:type="MSTextLayer" mask="url(#mask-2)" font-family="PingFang SC" font-size="12" font-weight="526" sketch:alignment="middle">
                    <tspan x="33.7298507" y="15">加入QQ群</tspan>
                </text>
                <path d="M15.9990759,11.3635734 C17.1542549,11.3635734 18.3673469,11.6161725 19.6383519,12.1213708 C20.909357,12.6265691 21.5448595,13.2981132 21.5448595,14.1360031 L21.5448595,15.9990759 L10.4551405,15.9990759 L10.4551405,14.1360031 C10.4551405,13.2987293 11.090643,12.6271852 12.3616481,12.1213708 C13.6326531,11.6155564 14.8457451,11.3629573 16.0009241,11.3635734 L15.9990759,11.3635734 Z M22.1510974,11.5373123 C23.219407,11.7104351 24.1580285,12.0209472 24.9669619,12.4688487 C25.7758953,12.9167501 26.180362,13.4727763 26.180362,14.1369272 L26.180362,16 L23.4079322,16 L23.4079322,14.1369272 C23.4079322,13.154871 22.9892953,12.2883327 22.1520216,11.5373123 L22.1510974,11.5373123 Z M15.9990759,9.54485945 C15.2480554,9.54485945 14.5983827,9.27038891 14.0500578,8.72144782 C13.5017328,8.17250674 13.2272622,7.52283404 13.2266461,6.77242973 C13.22603,6.02202541 13.5005006,5.37235271 14.0500578,4.82341163 C14.5996149,4.27447054 15.2492876,4 15.9990759,4 C16.7488641,4 17.3985368,4.27447054 17.948094,4.82341163 C18.4976511,5.37235271 18.7721217,6.02202541 18.7715056,6.77242973 C18.7708895,7.52283404 18.4964189,8.17250674 17.948094,8.72144782 C17.399769,9.27038891 16.7500963,9.54485945 15.9990759,9.54485945 L15.9990759,9.54485945 Z M20.6345784,9.54485945 C20.3456296,9.54485945 20.071159,9.50142472 19.8111667,9.41455526 C20.3601078,8.63457836 20.6345784,7.75386985 20.6345784,6.77242973 C20.6345784,5.7909896 20.3601078,4.91028109 19.8111667,4.1303042 C20.071159,4.04343473 20.3456296,4 20.6345784,4 C21.3855988,4 22.0352715,4.27447054 22.5835965,4.82341163 C23.1319214,5.37235271 23.406392,6.02202541 23.4070081,6.77242973 C23.4076242,7.52283404 23.1331536,8.17250674 22.5835965,8.72144782 C22.0340393,9.27038891 21.3843666,9.54485945 20.6345784,9.54485945 L20.6345784,9.54485945 Z M11.4079322,8.59114363 L11.4079322,10.4542164 L8.6355025,10.4542164 L8.6355025,13.2266461 L6.77242973,13.2266461 L6.77242973,10.4542164 L4,10.4542164 L4,8.59114363 L6.77242973,8.59114363 L6.77242973,5.8187139 L8.6355025,5.8187139 L8.6355025,8.59114363 L11.4079322,8.59114363 L11.4079322,8.59114363 Z" id="Shape" fill="#FFFFFF" sketch:type="MSShapeGroup" mask="url(#mask-2)"></path>
            </g>
        </g>
    </g>
</svg>