<?xml version="1.0" encoding="UTF-8" standalone="no"?>
<svg width="126px" height="20px" viewBox="0 0 126 20" version="1.1" xmlns="http://www.w3.org/2000/svg" xmlns:xlink="http://www.w3.org/1999/xlink" xmlns:sketch="http://www.bohemiancoding.com/sketch/ns">
    <!-- Generator: Sketch 3.5.1 (25234) - http://www.bohemiancoding.com/sketch -->
    <title>grunt-build-with</title>
    <desc>Created with Sketch.</desc>
    <defs>
        <linearGradient x1="50%" y1="0%" x2="50%" y2="100%" id="linearGradient-1">
            <stop stop-color="#AA7420" offset="0%"></stop>
            <stop stop-color="#916320" offset="100%"></stop>
        </linearGradient>
        <rect id="path-2" x="0" y="0" width="126" height="20" rx="3"></rect>
        <linearGradient x1="50%" y1="0%" x2="50%" y2="100%" id="linearGradient-4">
            <stop stop-color="#F8A700" offset="0%"></stop>
            <stop stop-color="#E09609" offset="100%"></stop>
        </linearGradient>
        <filter x="-50%" y="-50%" width="200%" height="200%" filterUnits="objectBoundingBox" id="filter-5">
            <feOffset dx="0" dy="0" in="SourceAlpha" result="shadowOffsetInner1"></feOffset>
            <feGaussianBlur stdDeviation="0" in="shadowOffsetInner1" result="shadowBlurInner1"></feGaussianBlur>
            <feComposite in="shadowBlurInner1" in2="SourceAlpha" operator="arithmetic" k2="-1" k3="1" result="shadowInnerInner1"></feComposite>
            <feColorMatrix values="0 0 0 0 0   0 0 0 0 0   0 0 0 0 0  0 0 0 0.35 0" in="shadowInnerInner1" type="matrix" result="shadowMatrixInner1"></feColorMatrix>
            <feMerge>
                <feMergeNode in="SourceGraphic"></feMergeNode>
                <feMergeNode in="shadowMatrixInner1"></feMergeNode>
            </feMerge>
        </filter>
        <filter x="-50%" y="-50%" width="200%" height="200%" filterUnits="objectBoundingBox" id="filter-6">
            <feOffset dx="0" dy="1" in="SourceAlpha" result="shadowOffsetOuter1"></feOffset>
            <feGaussianBlur stdDeviation="0" in="shadowOffsetOuter1" result="shadowBlurOuter1"></feGaussianBlur>
            <feColorMatrix values="0 0 0 0 0.347417092   0 0 0 0 0.347417092   0 0 0 0 0.347417092  0 0 0 0.348713235 0" in="shadowBlurOuter1" type="matrix" result="shadowMatrixOuter1"></feColorMatrix>
            <feMerge>
                <feMergeNode in="shadowMatrixOuter1"></feMergeNode>
                <feMergeNode in="SourceGraphic"></feMergeNode>
            </feMerge>
        </filter>
        <filter x="-50%" y="-50%" width="200%" height="200%" filterUnits="objectBoundingBox" id="filter-7">
            <feOffset dx="0" dy="1" in="SourceAlpha" result="shadowOffsetOuter1"></feOffset>
            <feGaussianBlur stdDeviation="0" in="shadowOffsetOuter1" result="shadowBlurOuter1"></feGaussianBlur>
            <feColorMatrix values="0 0 0 0 1   0 0 0 0 1   0 0 0 0 1  0 0 0 0.425393456 0" in="shadowBlurOuter1" type="matrix" result="shadowMatrixOuter1"></feColorMatrix>
            <feMerge>
                <feMergeNode in="shadowMatrixOuter1"></feMergeNode>
                <feMergeNode in="SourceGraphic"></feMergeNode>
            </feMerge>
        </filter>
    </defs>
    <g id="Page-1" stroke="none" stroke-width="1" fill="none" fill-rule="evenodd" sketch:type="MSPage">
        <g id="GET" sketch:type="MSLayerGroup">
            <g id="grunt-build-with">
                <mask id="mask-3" sketch:name="Mask" fill="white">
                    <use xlink:href="#path-2"></use>
                </mask>
                <use id="Mask" fill="url(#linearGradient-1)" sketch:type="MSShapeGroup" xlink:href="#path-2"></use>
                <rect id="颜色" fill="url(#linearGradient-4)" filter="url(#filter-5)" sketch:type="MSShapeGroup" mask="url(#mask-3)" x="69" y="0" width="84" height="20"></rect>
                <path d="M6.73242188,6.84179688 L9.59375,6.84179688 C10.1601591,6.84179688 10.5825181,6.8653969 10.8608398,6.91259766 C11.1391615,6.95979841 11.3881825,7.05826748 11.6079102,7.20800781 C11.8276378,7.35774814 12.0107415,7.55712766 12.1572266,7.80615234 C12.3037117,8.05517703 12.3769531,8.33430835 12.3769531,8.64355469 C12.3769531,8.97884282 12.286622,9.28645693 12.105957,9.56640625 C11.9252921,9.84635557 11.6803401,10.0563144 11.3710938,10.1962891 C11.8072938,10.3232428 12.142577,10.539712 12.3769531,10.8457031 C12.6113293,11.1516942 12.7285156,11.5113912 12.7285156,11.9248047 C12.7285156,12.2503271 12.6528328,12.566893 12.5014648,12.8745117 C12.3500969,13.1821304 12.1433932,13.4278962 11.8813477,13.6118164 C11.6193021,13.7957366 11.2962259,13.908854 10.9121094,13.9511719 C10.6712228,13.9772137 10.0901739,13.9934896 9.16894531,14 L6.73242188,14 L6.73242188,6.84179688 Z M8.17773438,8.03320312 L8.17773438,9.68847656 L9.125,9.68847656 C9.68815386,9.68847656 10.0380853,9.68033862 10.1748047,9.6640625 C10.4222018,9.63476548 10.6166985,9.54931711 10.7583008,9.40771484 C10.8999031,9.26611257 10.9707031,9.07975376 10.9707031,8.84863281 C10.9707031,8.62727754 10.9096686,8.44742908 10.7875977,8.30908203 C10.6655267,8.17073499 10.4840507,8.08691421 10.2431641,8.05761719 C10.0999342,8.04134106 9.68815444,8.03320312 9.0078125,8.03320312 L8.17773438,8.03320312 Z M8.17773438,10.8798828 L8.17773438,12.7939453 L9.515625,12.7939453 C10.0364609,12.7939453 10.3668613,12.779297 10.5068359,12.75 C10.7216808,12.7109373 10.8966465,12.6157234 11.0317383,12.4643555 C11.1668301,12.3129875 11.234375,12.1103528 11.234375,11.8564453 C11.234375,11.6416005 11.1822922,11.4593106 11.078125,11.3095703 C10.9739578,11.15983 10.8234059,11.0507816 10.6264648,10.9824219 C10.4295238,10.9140622 10.0022819,10.8798828 9.34472656,10.8798828 L8.17773438,10.8798828 Z M13.9394531,6.84179688 L15.3847656,6.84179688 L15.3847656,10.71875 C15.3847656,11.3339875 15.4026691,11.7327465 15.4384766,11.9150391 C15.5003258,12.2080093 15.6476225,12.4431957 15.8803711,12.6206055 C16.1131197,12.7980152 16.4313131,12.8867188 16.8349609,12.8867188 C17.2451192,12.8867188 17.5543609,12.802898 17.7626953,12.6352539 C17.9710297,12.4676098 18.096354,12.26172 18.1386719,12.0175781 C18.1809898,11.7734363 18.2021484,11.3681669 18.2021484,10.8017578 L18.2021484,6.84179688 L19.6474609,6.84179688 L19.6474609,10.6015625 C19.6474609,11.4609418 19.6083988,12.0680321 19.5302734,12.4228516 C19.452148,12.777671 19.3081065,13.0771472 19.0981445,13.3212891 C18.8881825,13.5654309 18.6074236,13.7599277 18.2558594,13.9047852 C17.9042951,14.0496427 17.4453153,14.1220703 16.8789062,14.1220703 C16.1953091,14.1220703 15.6769223,14.0431323 15.3237305,13.8852539 C14.9705386,13.7273755 14.6914073,13.5222994 14.4863281,13.2700195 C14.281249,13.0177396 14.1461592,12.7532566 14.0810547,12.4765625 C13.9866532,12.0664042 13.9394531,11.4609415 13.9394531,10.6601562 L13.9394531,6.84179688 Z M21.1269531,14 L21.1269531,6.84179688 L22.5722656,6.84179688 L22.5722656,14 L21.1269531,14 Z M23.9882812,14 L23.9882812,6.90039062 L25.4335938,6.90039062 L25.4335938,12.7939453 L29.0273438,12.7939453 L29.0273438,14 L23.9882812,14 Z M31.6689453,14 L31.6689453,8.05273438 L29.5449219,8.05273438 L29.5449219,6.84179688 L35.2333984,6.84179688 L35.2333984,8.05273438 L33.1142578,8.05273438 L33.1142578,14 L31.6689453,14 Z M39.9599609,14 L38.2509766,6.84179688 L39.7304688,6.84179688 L40.8095703,11.7587891 L42.1181641,6.84179688 L43.8369141,6.84179688 L45.0917969,11.8417969 L46.1904297,6.84179688 L47.6455078,6.84179688 L45.9072266,14 L44.3740234,14 L42.9482422,8.6484375 L41.5273438,14 L39.9599609,14 Z M48.3388672,14 L48.3388672,6.84179688 L49.7841797,6.84179688 L49.7841797,14 L48.3388672,14 Z M52.7724609,14 L52.7724609,8.05273438 L50.6484375,8.05273438 L50.6484375,6.84179688 L56.3369141,6.84179688 L56.3369141,8.05273438 L54.2177734,8.05273438 L54.2177734,14 L52.7724609,14 Z M57.2744141,14 L57.2744141,6.84179688 L58.7197266,6.84179688 L58.7197266,9.65917969 L61.5517578,9.65917969 L61.5517578,6.84179688 L62.9970703,6.84179688 L62.9970703,14 L61.5517578,14 L61.5517578,10.8701172 L58.7197266,10.8701172 L58.7197266,14 L57.2744141,14 Z" id="Cancel" fill="#F3EADC" filter="url(#filter-6)" sketch:type="MSShapeGroup" mask="url(#mask-3)"></path>
                <path d="M90.0576172,11.3681641 L90.0576172,10.1621094 L93.1728516,10.1621094 L93.1728516,13.0136719 C92.8701157,13.3066421 92.4314807,13.5646148 91.8569336,13.7875977 C91.2823865,14.0105805 90.7005238,14.1220703 90.1113281,14.1220703 C89.3626265,14.1220703 88.7099637,13.9650081 88.1533203,13.6508789 C87.5966769,13.3367497 87.1783868,12.8875355 86.8984375,12.3032227 C86.6184882,11.7189098 86.4785156,11.0833368 86.4785156,10.3964844 C86.4785156,9.65103794 86.6347641,8.98860967 86.9472656,8.40917969 C87.2597672,7.82974971 87.7171194,7.38541821 88.3193359,7.07617188 C88.7783226,6.83854048 89.349606,6.71972656 90.0332031,6.71972656 C90.9218794,6.71972656 91.6160457,6.90608538 92.1157227,7.27880859 C92.6153996,7.65153181 92.9368482,8.16666338 93.0800781,8.82421875 L91.6445312,9.09277344 C91.5436193,8.74120918 91.3540053,8.46370544 91.0756836,8.26025391 C90.7973619,8.05680237 90.4498719,7.95507812 90.0332031,7.95507812 C89.4016896,7.95507812 88.8995787,8.15527144 88.5268555,8.55566406 C88.1541323,8.95605669 87.9677734,9.55012627 87.9677734,10.3378906 C87.9677734,11.1875042 88.1565736,11.8247049 88.5341797,12.2495117 C88.9117857,12.6743185 89.4065725,12.8867188 90.0185547,12.8867188 C90.3212906,12.8867188 90.6248357,12.8273118 90.9291992,12.7084961 C91.2335627,12.5896804 91.4947906,12.4456389 91.7128906,12.2763672 L91.7128906,11.3681641 L90.0576172,11.3681641 Z M94.5107422,14 L94.5107422,6.84179688 L97.5527344,6.84179688 C98.3177122,6.84179688 98.8735334,6.9060866 99.2202148,7.03466797 C99.5668963,7.16324934 99.8444,7.39192544 100.052734,7.72070312 C100.261069,8.04948081 100.365234,8.42545361 100.365234,8.84863281 C100.365234,9.38574487 100.207358,9.82926257 99.8916016,10.1791992 C99.5758448,10.5291359 99.1038443,10.749674 98.4755859,10.8408203 C98.7880875,11.0231129 99.0460602,11.2233062 99.2495117,11.4414062 C99.4529633,11.6595063 99.7272118,12.0468722 100.072266,12.6035156 L100.946289,14 L99.2177734,14 L98.1728516,12.4423828 C97.801756,11.8857394 97.5478522,11.5349942 97.4111328,11.3901367 C97.2744134,11.2452792 97.1295581,11.1459964 96.9765625,11.0922852 C96.8235669,11.038574 96.5810563,11.0117188 96.2490234,11.0117188 L95.9560547,11.0117188 L95.9560547,14 L94.5107422,14 Z M95.9560547,9.86914062 L97.0253906,9.86914062 C97.7187535,9.86914062 98.1516918,9.83984404 98.3242188,9.78125 C98.4967457,9.72265596 98.6318354,9.62174551 98.7294922,9.47851562 C98.8271489,9.33528574 98.8759766,9.15625107 98.8759766,8.94140625 C98.8759766,8.70051963 98.8116868,8.50602288 98.6831055,8.35791016 C98.5545241,8.20979744 98.373048,8.11621113 98.1386719,8.07714844 C98.0214838,8.06087231 97.6699248,8.05273438 97.0839844,8.05273438 L95.9560547,8.05273438 L95.9560547,9.86914062 Z M101.717773,6.84179688 L103.163086,6.84179688 L103.163086,10.71875 C103.163086,11.3339875 103.180989,11.7327465 103.216797,11.9150391 C103.278646,12.2080093 103.425943,12.4431957 103.658691,12.6206055 C103.89144,12.7980152 104.209633,12.8867188 104.613281,12.8867188 C105.02344,12.8867188 105.332681,12.802898 105.541016,12.6352539 C105.74935,12.4676098 105.874674,12.26172 105.916992,12.0175781 C105.95931,11.7734363 105.980469,11.3681669 105.980469,10.8017578 L105.980469,6.84179688 L107.425781,6.84179688 L107.425781,10.6015625 C107.425781,11.4609418 107.386719,12.0680321 107.308594,12.4228516 C107.230468,12.777671 107.086427,13.0771472 106.876465,13.3212891 C106.666503,13.5654309 106.385744,13.7599277 106.03418,13.9047852 C105.682615,14.0496427 105.223636,14.1220703 104.657227,14.1220703 C103.973629,14.1220703 103.455243,14.0431323 103.102051,13.8852539 C102.748859,13.7273755 102.469728,13.5222994 102.264648,13.2700195 C102.059569,13.0177396 101.924479,12.7532566 101.859375,12.4765625 C101.764973,12.0664042 101.717773,11.4609415 101.717773,10.6601562 L101.717773,6.84179688 Z M108.963867,14 L108.963867,6.84179688 L110.370117,6.84179688 L113.299805,11.6220703 L113.299805,6.84179688 L114.642578,6.84179688 L114.642578,14 L113.192383,14 L110.306641,9.33203125 L110.306641,14 L108.963867,14 Z M117.782227,14 L117.782227,8.05273438 L115.658203,8.05273438 L115.658203,6.84179688 L121.34668,6.84179688 L121.34668,8.05273438 L119.227539,8.05273438 L119.227539,14 L117.782227,14 Z" id="Cancel" fill="#000000" filter="url(#filter-7)" sketch:type="MSShapeGroup" mask="url(#mask-3)"></path>
                <g id="grunt" mask="url(#mask-3)">
                    <g transform="translate(72.000000, 4.000000)" id="Group">
                        <g>
                            <path d="M0.67568,3.15072595 C0.67568,3.15072595 0.90516,4.0069894 0.93788,4.29246214 C0.97072,4.57785749 0.34784,5.21211237 0.34784,5.52927851 C0.34784,5.84644465 0.4788,6.41727405 1.20008,6.70274679 C1.92136,6.98818084 2.0196,7.7175546 2.0196,8.16164912 C2.0196,8.60562753 1.7574,9.46181358 1.7574,9.46181358 C1.7574,9.46181358 1.59356,11.5866255 2.47856,11.9671784 C3.36356,12.3476927 3.16696,12.3476927 3.36356,12.3476927 C3.5602,12.3476927 5.00264,12.9186768 5.85488,12.6966683 C6.7072,12.4746597 6.93652,12.2209965 6.93652,12.2209965 C6.93652,12.2209965 7.78892,12.2843446 8.05112,11.5548547 C8.31348,10.8255196 8.47728,9.30330791 8.37892,8.60555014 C8.28056,7.90775367 8.14948,6.98821953 8.73948,6.6710147 C9.32968,6.35384856 9.95244,5.97341172 9.85408,5.65620688 C9.75572,5.33904074 9.23136,4.89502363 9.23136,4.89502363 C9.23136,4.89502363 9.1002,4.10226307 9.19848,3.91194791 C9.29676,3.72167144 9.88688,3.24584484 9.55904,2.8970627 C9.2314,2.54824186 8.64116,2.54824186 8.64116,2.54824186 L7.88728,2.61158995 C7.88728,2.61158995 6.60884,1.50166326 4.937,1.56508874 C3.26524,1.62851423 2.21616,2.61158995 2.21616,2.61158995 C2.21616,2.61158995 1.65896,2.42131349 1.1672,2.61158995 C0.67544,2.80194381 0.5774,2.61155126 0.67568,3.15072595 L0.67568,3.15072595 L0.67568,3.15072595 L0.67568,3.15072595 Z" id="Shape" fill="#FBA919" sketch:type="MSShapeGroup"></path>
                            <path d="M3.671,7.87253879 C3.671,7.87253879 3.02184,8.83282158 2.54568,9.51428763 C2.472,9.61970009 3.02184,9.62701395 3.02184,9.62701395 L3.671,7.87253879 L3.671,7.87253879 L3.671,7.87253879 Z" id="Shape" fill="#E78724" sketch:type="MSShapeGroup"></path>
                            <path d="M3.98008,5.88162084 C3.98008,5.88162084 3.7844,6.35392595 3.6772,6.60429991 C3.56084,6.87649935 3.1172,7.01190251 3.1172,7.01190251 C3.1172,7.01190251 3.34716,6.77855553 3.34716,6.18740986 C3.34716,5.93939647 3.67812,5.84079479 3.67812,5.84079479 L3.98008,5.88162084 L3.98008,5.88162084 L3.98008,5.88162084 Z" id="Shape" fill="#E78724" sketch:type="MSShapeGroup"></path>
                            <path d="M3.7824,6.14867349 C3.7824,6.14867349 3.38148,6.61037544 2.63708,6.35179758 C1.89252,6.09329712 1.8162,5.16977712 1.8162,4.91119926 C1.8162,4.6526214 3.22888,5.16977712 3.41984,5.28060726 C3.6108,5.3914374 3.97328,5.83464186 3.7824,6.14867349 L3.7824,6.14867349 L3.7824,6.14867349 L3.7824,6.14867349 Z" id="Shape" fill="#E78724" sketch:type="MSShapeGroup"></path>
                            <path d="M0.97044,1.21506828 C0.97044,1.21506828 1.65764,1.08570195 2.11576,1.43665116 C2.57408,1.78752298 2.70752,2.06463702 2.70752,2.06463702 L1.93532,2.65682753 C1.93532,2.65682753 1.5622,2.48946009 1.44764,2.00922195 C1.33312,1.52902251 1.40948,1.30743963 0.97044,1.21506828 L0.97044,1.21506828 L0.97044,1.21506828 L0.97044,1.21506828 Z" id="Shape" fill="#E78724" sketch:type="MSShapeGroup"></path>
                            <path d="M3.58196,4.81503553 C3.28608,4.40870995 2.79848,4.2314746 2.40916,4.20210307 C1.74532,4.15187349 1.43016,4.37891274 1.43016,4.37891274 C1.43016,4.37891274 2.51736,4.42345377 2.83072,4.82161414 C3.41408,5.5626746 4.26512,5.62288819 4.4012,5.46012577 C4.24384,5.46771051 4.07072,5.39228874 3.88544,5.22279293 C3.76968,5.1167613 3.67584,4.94401488 3.58196,4.81503553 L3.58196,4.81503553 L3.58196,4.81503553 L3.58196,4.81503553 Z" id="Shape" fill="#E78724" sketch:type="MSShapeGroup"></path>
                            <path d="M1.74664,6.25176409 C1.74664,6.25176409 0.54036,5.8505853 0.76964,5.44433712 C0.99868,5.03797284 0.81636,4.81658344 0.81636,4.81658344 C0.81636,4.81658344 0.1428,5.30301321 0.31444,5.82009153 C0.41992,6.13748986 0.59688,6.36727665 1.5686,6.80784967 C2.03468,7.64538344 1.66484,9.15292874 1.687,9.16001042 C1.72392,9.1718906 2.3414,8.86474716 2.29924,7.45433302 C2.2864,7.02122865 2.2506,6.42996688 1.74664,6.25176409 L1.74664,6.25176409 L1.74664,6.25176409 L1.74664,6.25176409 Z" id="Shape" fill="#E78724" sketch:type="MSShapeGroup"></path>
                            <path d="M3.32736,1.93774735 C2.82156,2.18634121 2.12864,2.5325306 2.12864,2.5325306 L2.40136,2.66452837 C2.37532,2.70531572 2.36276,2.72965656 2.36276,2.72965656 L2.64268,2.85279256 C2.64268,2.85279256 3.326,3.33167628 3.74468,3.63955498 C3.60508,3.22370977 3.19532,2.57041563 3.19532,2.57041563 C3.19532,2.57041563 3.0792,2.27023777 3.32736,1.93774735 L3.32736,1.93774735 L3.32736,1.93774735 L3.32736,1.93774735 Z" id="Shape" fill="#E78724" sketch:type="MSShapeGroup"></path>
                            <path d="M5.00764,12.0711204 C3.453,12.0711204 2.9264,11.3075766 2.9264,11.3075766 L3.16936,11.8799539 C3.2612,12.1275803 4.24088,12.8981284 5.00528,12.8981284" id="Shape" fill="#E78724" sketch:type="MSShapeGroup"></path>
                            <path d="M3.09676,10.7916592 C3.09676,10.7916592 3.2398,11.6373581 3.81252,11.6373581 C4.2992,11.6373581 4.4426,10.9229991 4.4426,10.7753674 L3.09676,10.7916592 L3.09676,10.7916592 L3.09676,10.7916592 Z" id="Shape" fill="#E78724" sketch:type="MSShapeGroup"></path>
                            <path d="M2.14368,9.51622251 C2.19456,9.38070326 2.37272,8.83282158 2.42996,8.33420205 C2.49856,7.73701953 2.47356,6.86357433 2.47356,6.86357433 C2.47356,6.86357433 2.32076,7.43610642 2.18712,7.52863256 C2.05356,7.62092651 1.80532,8.24879628 1.80532,8.24879628 C1.80532,8.24879628 1.67236,9.1835773 1.60908,9.49776372 C1.7842,9.53170158 1.93164,9.43186158 2.14368,9.51622251 L2.14368,9.51622251 L2.14368,9.51622251 L2.14368,9.51622251 Z" id="Shape" fill="#E78724" sketch:type="MSShapeGroup"></path>
                            <path d="M0.76064,5.81092019 C0.76064,5.81092019 1.08508,5.70001265 1.18064,5.01676651 C1.27604,4.33336558 1.066,3.7423747 1.066,3.7423747 C1.066,3.7423747 1.08508,4.68427609 0.9706,4.86901879 C0.85596,5.0536454 0.76064,5.10906047 0.62692,5.34921823 C0.4932,5.5894147 0.68416,5.73700763 0.76064,5.81092019 L0.76064,5.81092019 L0.76064,5.81092019 L0.76064,5.81092019 Z" id="Shape" fill="#E78724" sketch:type="MSShapeGroup"></path>
                            <path id="Shape" fill="#FDC168" sketch:type="MSShapeGroup" d="M1.14804,1.4361146 L1.0818,1.3361146 C0.88648,1.35184387 1.14804,1.4361146 1.14804,1.4361146 L1.14804,1.4361146 L1.14804,1.4361146 L1.14804,1.4361146 Z"></path>
                            <path d="M3.59144,1.73543591 C3.59144,1.73543591 3.28608,1.68621247 3.13328,1.46462958 C2.98048,1.2429693 2.54784,0.799648744 1.85812,0.794695442 C1.16844,0.789703442 0.48608,0.972046884 0.48608,0.972046884 L1.08172,1.3361533 C1.14472,1.33417972 1.25488,1.33499237 1.43704,1.34087442 C2.18456,1.36490567 2.29964,2.08023219 2.29964,2.08023219 L4.93412,1.72928298" id="Shape" fill="#FBA919" sketch:type="MSShapeGroup"></path>
                            <path d="M3.84604,5.68631367 C3.84604,5.68631367 3.48964,6.03110995 2.94232,5.92020242 C2.395,5.80944967 2.06404,5.57548353 2.0386,5.16911926 C2.01316,4.76279367 2.15324,4.60274009 2.15324,4.60274009 C2.15324,4.60274009 2.76408,4.78756019 3.05696,5.03383219 C3.34968,5.28002679 3.566,5.67404651 3.84604,5.68631367 L3.84604,5.68631367 L3.84604,5.68631367 L3.84604,5.68631367 Z" id="Shape" fill="#FFFFFF" sketch:type="MSShapeGroup"></path>
                            <path d="M3.41472,5.56313898 C3.41472,5.56313898 3.10564,5.69974177 2.76016,5.58848595 C2.30792,5.44255702 2.2778,4.98754977 2.2778,4.98754977 C2.2778,4.98754977 2.00036,5.77520223 2.7782,5.92681972 C3.40208,6.04840781 3.77104,5.69865823 3.77104,5.69865823 L3.41472,5.56313898 L3.41472,5.56313898 L3.41472,5.56313898 Z" id="Shape" fill="#C9C9C9" sketch:type="MSShapeGroup"></path>
                            <path d="M3.63436,1.56833935 C3.60112,0.892832744 4.17352,0.354818977 4.37184,0.331909953 C4.3828,0.446377674 4.3608,0.892871442 4.55908,1.03017079 C4.6168,0.665483907 4.812,0.26341507 5.5828,0 C5.41772,0.423584744 5.56076,0.778403721 5.62888,0.942868837 C6.15524,0.480663814 6.50988,0.557053023 6.50988,0.557053023 C6.50988,0.557053023 6.14416,1.16758623 6.2872,1.56818456 C5.23056,1.48804167 3.63952,1.67680893 3.63436,1.56833935 L3.63436,1.56833935 L3.63436,1.56833935 L3.63436,1.56833935 Z" id="Shape" fill="#463014" sketch:type="MSShapeGroup"></path>
                            <path d="M1.39428,2.59727181 C1.14216,2.39492167 1.33008,2.20712186 1.31016,1.97721898 C1.29932,1.85489563 1.28932,1.73946047 1.24764,1.67580279 C1.01564,1.32137079 0.46832,1.21382995 0.46284,1.21270772 L0.20596,1.16402605 L0.376,0.971582512 C0.39804,0.946661209 1.09636,0.302074047 2.177,0.639595163 C2.93292,0.875457488 3.49252,1.67526102 3.51336,1.70757358 L3.13432,1.88001042 C3.12988,1.87319963 2.68748,1.12141991 2.03896,0.919108465 C1.51472,0.755456 1.03156,0.911136744 0.8246,1.01318251 C1.0446,1.0981626 1.33224,1.2529146 1.50556,1.5176454 C1.58732,1.64267758 1.60112,1.80009972 1.61444,1.95252986 C1.632,2.15433823 1.64844,2.34484688 1.80196,2.46821507 L1.39428,2.59727181 L1.39428,2.59727181 L1.39428,2.59727181 Z" id="Shape" fill="#463014" sketch:type="MSShapeGroup"></path>
                            <path id="Shape" fill="#463014" sketch:type="MSShapeGroup" d="M0.72092,5.5511814 C0.72092,5.5511814 1.03856,5.1701254 1.13264,4.42863926 C1.1696,4.13658791 1.10396,3.56053433 0.99892,3.33891274 C1.018,3.8837373 0.87484,4.42863926 0.87484,4.42863926 C0.87484,4.42863926 0.77832,5.44035126 0.72092,5.5511814 L0.72092,5.5511814 L0.72092,5.5511814 L0.72092,5.5511814 Z"></path>
                            <path d="M2.39584,2.21242344 C2.39568,2.21161079 2.29392,1.78140874 2.0118,1.5642374 C1.61384,1.257984 1.12792,1.42090121 1.12324,1.42233302 L1.05268,1.2114694 C1.0762,1.20407814 1.6316,1.03477581 2.14344,1.3828614 C2.65836,1.73292056 2.72016,2.05024149 2.72552,2.08530158 L2.39584,2.21242344 L2.39584,2.21242344 L2.39584,2.21242344 Z" id="Shape" fill="#463014" sketch:type="MSShapeGroup"></path>
                            <path id="Shape" fill="#463014" sketch:type="MSShapeGroup" d="M1.71856,5.27789842 C1.71856,5.27789842 1.55192,5.04710549 1.58188,4.79328744 C1.5968,4.66794567 1.65684,4.53927591 1.76404,4.49361265 C1.96324,4.40894214 2.05152,4.62739051 2.05152,4.62739051 C2.05152,4.62739051 1.77116,4.69433749 1.71856,5.27789842 L1.71856,5.27789842 L1.71856,5.27789842 L1.71856,5.27789842 Z"></path>
                            <path d="M3.54828,5.62966028 C3.55524,5.64223702 3.5588,5.64928 3.5588,5.64928 C3.5588,5.64928 3.03904,6.02665972 2.50636,5.64370753 C2.22124,5.43853247 2.24816,4.93101247 2.33552,4.715776 C2.56268,4.76557991 2.75536,4.85535851 2.9164,4.96019051 C2.71288,4.78446437 2.53472,4.65509805 2.5352,4.65211833 L2.30388,4.58877023 L1.85428,4.4396294 C1.84852,4.4727933 1.68452,5.21644651 2.15788,5.72315386 C2.36768,5.94783256 3.35128,6.45097972 3.81828,5.59065302 L3.54828,5.62966028 L3.54828,5.62966028 L3.54828,5.62966028 Z" id="Shape" fill="#463014" sketch:type="MSShapeGroup"></path>
                            <path d="M3.4996,5.68495926 C3.79224,6.11585786 4.5306,5.86962456 4.51788,5.41407553 C4.51788,5.41407553 4.02452,5.6774906 3.58864,5.19249265 C3.33416,4.90934177 2.51872,4.12861619 1.41288,4.38808409 C2.17656,4.55053693 3.18756,5.22554047 3.4996,5.68495926 L3.4996,5.68495926 L3.4996,5.68495926 L3.4996,5.68495926 Z" id="Shape" fill="#463014" sketch:type="MSShapeGroup"></path>
                            <path d="M1.30956,6.90107237 C1.37996,6.94042791 1.62824,7.18917656 1.6284,7.561216 C1.6284,7.74777749 1.6092,8.68499647 1.51376,9.25756726 C1.65732,9.34781023 1.75732,9.36700428 1.90028,9.45898865 C1.97184,8.7958653 2.02316,7.83476986 1.99924,7.44678698 C1.97188,7.00451126 1.72712,6.70770009 1.50012,6.58112 C1.42904,6.54157098 1.35476,6.50267981 1.27996,6.46355647 C0.89116,6.26031628 0.48912,6.05007181 0.48912,5.69107349 C0.48912,5.41024447 0.60196,5.32240074 0.72144,5.22929414 L0.73432,5.21919405 C0.8136,5.15723907 0.90332,5.08696409 0.95648,4.97156763 C1.10152,4.65606549 1.12524,3.85239219 0.95648,3.64837805 C0.87236,3.54671926 0.64696,3.204864 0.71176,2.9751546 C0.73644,2.88746567 0.79352,2.82249228 0.88644,2.77644205 C0.98476,2.72772167 1.1176,2.70303256 1.28112,2.70303256 C1.60232,2.70303256 1.95856,2.79760967 2.14236,2.85391479 C2.79912,3.05529749 3.5916,3.6359174 3.81876,3.80908949 C3.82528,3.8139267 3.82912,3.81675163 3.8298,3.817216 L3.97516,3.91500502 L3.88424,3.76783777 C3.87864,3.75866642 3.30288,2.84276986 2.2734,2.50695144 C2.07312,2.44162977 1.67964,2.33199926 1.29296,2.33199926 C1.06272,2.33199926 0.86736,2.37089042 0.71268,2.44751181 C0.52416,2.54081191 0.39648,2.68968186 0.34344,2.87786865 C0.21344,3.33918363 0.63684,3.85281786 0.65128,3.86922567 C0.70064,3.95447665 0.72156,4.57375553 0.60752,4.82161414 C0.59184,4.85582288 0.54884,4.88945116 0.4944,4.93194121 C0.47736,4.94529191 0.45828,4.95914567 0.43808,4.97396688 C0.2772,5.09145302 0.03392,5.26895926 0.03392,5.67810977 C0.03392,6.23794902 0.6204,6.54149358 1.09172,6.78555981 C1.16904,6.8258054 1.24284,6.86388391 1.30956,6.90107237 L1.30956,6.90107237 L1.30956,6.90107237 L1.30956,6.90107237 Z" id="Shape" fill="#463014" sketch:type="MSShapeGroup"></path>
                            <path d="M1.39428,2.59727181 C1.14216,2.39492167 1.33008,2.20712186 1.31016,1.97721898 C1.29932,1.85489563 1.28932,1.73946047 1.24764,1.67580279 C1.01564,1.32137079 0.46832,1.21382995 0.46284,1.21270772 L0.20596,1.16402605 L0.376,0.971582512 C0.39804,0.946661209 1.09636,0.302074047 2.177,0.639595163 C2.93292,0.875457488 3.49252,1.67526102 3.51336,1.70757358 L3.13432,1.88001042 C3.12988,1.87319963 2.68748,1.12141991 2.03896,0.919108465 C1.51472,0.755456 1.03156,0.911136744 0.8246,1.01318251 C1.0446,1.0981626 1.33224,1.2529146 1.50556,1.5176454 C1.58732,1.64267758 1.60112,1.80009972 1.61444,1.95252986 C1.632,2.15433823 1.64844,2.34484688 1.80196,2.46821507 L1.39428,2.59727181 L1.39428,2.59727181 L1.39428,2.59727181 Z" id="Shape" fill="#463014" sketch:type="MSShapeGroup"></path>
                            <path d="M1.38608,2.63871702 L1.3698,2.62567591 C1.18284,2.47556763 1.216,2.32770381 1.24812,2.18463851 C1.26272,2.11862028 1.27812,2.05035758 1.27188,1.98035349 C1.26168,1.86263516 1.25188,1.75157284 1.21524,1.69549991 C0.99432,1.35805619 0.46044,1.24993488 0.45516,1.24889005 L0.13432,1.1880186 L0.347,0.94747386 C0.35088,0.94298493 0.79924,0.505120744 1.5586,0.505120744 C1.7656,0.505120744 1.97768,0.538439442 2.18868,0.604380279 C2.97764,0.850497488 3.54048,1.67974995 3.5458,1.68795386 L3.56856,1.72316874 L3.1202,1.92718288 L3.1022,1.89955274 C3.05396,1.81999033 2.62884,1.14173619 2.02744,0.954052465 C1.87972,0.907924837 1.72412,0.884628837 1.56504,0.884628837 C1.27692,0.884628837 1.04328,0.960592372 0.91896,1.01159591 C1.12672,1.10210977 1.37868,1.25446251 1.53812,1.49771609 C1.6248,1.63021693 1.63884,1.7921667 1.6526,1.9486214 C1.66948,2.1431933 1.68544,2.32615591 1.82652,2.4394627 L1.87976,2.48218493 L1.38608,2.63871702 L1.38608,2.63871702 L1.38608,2.63871702 Z" id="Shape" fill="#463014" sketch:type="MSShapeGroup"></path>
                            <path d="M2.39584,2.21242344 C2.39568,2.21161079 2.29392,1.78140874 2.0118,1.5642374 C1.61384,1.257984 1.12792,1.42090121 1.12324,1.42233302 L1.05268,1.2114694 C1.0762,1.20407814 1.6316,1.03477581 2.14344,1.3828614 C2.65836,1.73292056 2.72016,2.05024149 2.72552,2.08530158 L2.39584,2.21242344 L2.39584,2.21242344 L2.39584,2.21242344 Z" id="Shape" fill="#463014" sketch:type="MSShapeGroup"></path>
                            <path d="M2.36848,2.26273042 L2.35856,2.22039516 C2.35752,2.21625451 2.25772,1.80075758 1.98792,1.59322195 C1.83416,1.47476837 1.64872,1.41463219 1.43708,1.41463219 C1.27188,1.41463219 1.14912,1.45278809 1.13572,1.45727702 L1.09924,1.46900242 L1.0046,1.18770902 L1.04088,1.1763706 C1.05716,1.1713786 1.20456,1.12691498 1.41308,1.12691498 C1.68816,1.12691498 1.94824,1.20500688 2.16552,1.35259981 C2.69332,1.71144335 2.75776,2.04327591 2.76328,2.07988391 L2.76792,2.10882977 L2.36848,2.26273042 L2.36848,2.26273042 L2.36848,2.26273042 Z M1.43712,1.34087442 C1.6632,1.34087442 1.87028,1.40813098 2.03556,1.53529153 C2.27512,1.71987944 2.3878,2.04575256 2.42188,2.16258084 L2.68156,2.06246995 C2.65804,1.97377488 2.55452,1.70757358 2.12156,1.41312298 C1.9144,1.27226344 1.67612,1.20090493 1.41312,1.20090493 C1.2688,1.20090493 1.15668,1.2231174 1.10128,1.23666158 L1.14812,1.37670847 C1.20244,1.36258381 1.30696,1.34087442 1.43712,1.34087442 L1.43712,1.34087442 L1.43712,1.34087442 L1.43712,1.34087442 Z" id="Shape" fill="#463014" sketch:type="MSShapeGroup"></path>
                            <path d="M3.7886,11.4344662 L3.7886,11.4344662 C3.6758,11.4344662 3.56068,11.3948785 3.48088,11.3280476 C3.4198,11.2771215 3.21324,11.0935784 3.12216,10.8687062 C3.08816,10.7846162 3.0958,10.7173596 3.14512,10.6689488 C3.17912,10.6357849 3.24968,10.5961198 3.39292,10.5961198 L3.49484,10.595965 C3.61628,10.5958489 3.82076,10.5958489 3.99552,10.5958489 L4.16308,10.5958489 C4.27204,10.5958489 4.35016,10.6186419 4.39508,10.6630668 C4.45276,10.7204167 4.43428,10.7933619 4.41816,10.83175 C4.39008,10.8990065 4.27388,11.1178806 4.07716,11.3213529 C4.00672,11.3942593 3.9042,11.4344662 3.7886,11.4344662 L3.7886,11.4344662 L3.7886,11.4344662 L3.7886,11.4344662 Z" id="Shape" fill="#463014" sketch:type="MSShapeGroup"></path>
                            <path id="Shape" fill="#463014" sketch:type="MSShapeGroup" d="M3.90684,5.71030623 L3.49956,5.68495926 C3.49956,5.68495926 3.60368,5.86250419 3.67112,6.09213619 C3.74728,6.35187498 3.60148,6.73146047 3.60148,6.73146047 C3.60148,6.73146047 4.14452,6.13667721 3.90684,5.71030623 L3.90684,5.71030623 L3.90684,5.71030623 L3.90684,5.71030623 Z"></path>
                            <path d="M3.39844,12.4748532 C1.94888,12.3670802 1.43888,11.0419557 1.43888,10.7659639 L1.81744,10.7661187 L1.62816,10.7659639 L1.81744,10.7659639 C1.81932,10.8852688 2.20456,12.0188011 3.42744,12.1097793 L3.39844,12.4748532 L3.39844,12.4748532 L3.39844,12.4748532 Z" id="Shape" fill="#463014" sketch:type="MSShapeGroup"></path>
                            <path d="M2.99108,10.1007122 C2.96844,9.9740547 2.96608,9.85393712 2.99372,9.73590921 C2.88356,9.65580502 2.68588,9.62604651 2.53756,9.57953191 C2.41628,9.50527107 1.79564,9.65565023 1.34536,9.12847181 C0.7812,8.46832819 0.89992,8.07419237 0.89992,8.07419237 C0.75528,8.22967963 0.61508,8.17043349 0.3946,8.89539572 C0.1738,9.62051274 0.49824,10.1260205 1.10292,10.6335018 C1.3886,10.8732339 1.79244,10.9719903 2.1398,11.009798 C2.02344,10.896762 2.33856,10.8854623 2.55576,10.8068287 C2.53844,10.637178 2.56744,10.4724807 2.6982,10.3398638 C2.77704,10.2599144 2.87848,10.2121228 2.98372,10.1740443 C2.9896,10.1608871 2.99456,10.148736 3.00016,10.1361206 C2.99668,10.1245887 2.99328,10.1129407 2.99108,10.1007122 L2.99108,10.1007122 L2.99108,10.1007122 L2.99108,10.1007122 Z" id="Shape" fill="#FFFFFF" sketch:type="MSShapeGroup"></path>
                            <path d="M2.55284,10.8024171 C2.54028,10.7668153 2.5308,10.7305168 2.52148,10.6939862 C2.51144,10.6540889 2.46144,10.541053 2.52308,10.6701098 C2.50724,10.637062 2.49688,10.603008 2.48924,10.5686832 C1.50996,10.5674835 0.658,9.91701433 0.8226,8.54947721 C0.6944,8.3848186 0.51488,8.88150326 0.51488,8.88150326 C0.51488,8.88150326 0.02464,10.2586761 1.2908,10.7924331 C1.71268,10.9704424 2.08552,11.0980287 2.17348,11.046522 C2.35672,11.0825496 2.52212,10.9589492 2.58416,10.8776841 C2.57252,10.8527241 2.56192,10.8277254 2.55284,10.8024171 L2.55284,10.8024171 L2.55284,10.8024171 L2.55284,10.8024171 Z" id="Shape" fill="#C9C9C9" sketch:type="MSShapeGroup"></path>
                            <path d="M2.97344,9.9024253 C2.97496,9.78699014 2.99932,9.67519256 3.057,9.56378195 C3.06104,9.55611981 3.06572,9.54876726 3.07004,9.5412986 C2.6932,9.53816409 2.2592,9.50325879 1.88964,9.36015479 C1.48344,9.20296484 0.97532,8.66518326 0.888,8.03332763 C0.888,8.03332763 0.123,8.60442791 0.3478,9.82681005 C0.5588,10.9746605 1.55164,11.348867 2.68396,11.4121764 C2.68456,11.4047464 2.5566,11.1490322 2.59704,10.9925001 C1.95408,11.037699 1.23508,10.7973864 0.888,10.244861 C0.57024,9.73915981 0.65936,8.875776 0.78996,8.7492733 C1.10852,9.72170716 2.25476,9.91937488 2.97344,9.9024253 L2.97344,9.9024253 L2.97344,9.9024253 L2.97344,9.9024253 Z" id="Shape" fill="#463014" sketch:type="MSShapeGroup"></path>
                            <path d="M3.09208,9.20625414 C2.88832,9.78474567 2.47212,10.2529101 2.47212,10.2529101 C2.47212,10.2529101 3.04464,10.227718 3.07624,10.1296967 C3.09964,10.0574482 3.5932,8.93966586 3.78264,7.63025265 C3.60444,7.91348093 3.10952,9.15672112 3.09208,9.20625414 L3.09208,9.20625414 L3.09208,9.20625414 L3.09208,9.20625414 Z" id="Shape" fill="#463014" sketch:type="MSShapeGroup"></path>
                            <path d="M6.33572,7.87253879 C6.33572,7.87253879 6.98472,8.83282158 7.46104,9.51428763 C7.53472,9.61970009 6.98472,9.62701395 6.98472,9.62701395 L6.33572,7.87253879 L6.33572,7.87253879 L6.33572,7.87253879 Z" id="Shape" fill="#E78724" sketch:type="MSShapeGroup"></path>
                            <path d="M6.02656,5.88162084 C6.02656,5.88162084 6.22228,6.35392595 6.32932,6.60429991 C6.44568,6.87649935 6.88928,7.01190251 6.88928,7.01190251 C6.88928,7.01190251 6.65936,6.77855553 6.65936,6.18740986 C6.65936,5.93939647 6.32844,5.84079479 6.32844,5.84079479 L6.02656,5.88162084 L6.02656,5.88162084 L6.02656,5.88162084 Z" id="Shape" fill="#E78724" sketch:type="MSShapeGroup"></path>
                            <path d="M6.2242,6.14867349 C6.2242,6.14867349 6.62512,6.61037544 7.36972,6.35179758 C8.11432,6.09321972 8.1906,5.16977712 8.1906,4.91119926 C8.1906,4.6526214 6.77792,5.16977712 6.58696,5.28060726 C6.396,5.3914374 6.03336,5.83464186 6.2242,6.14867349 L6.2242,6.14867349 L6.2242,6.14867349 L6.2242,6.14867349 Z" id="Shape" fill="#E78724" sketch:type="MSShapeGroup"></path>
                            <path d="M9.03624,1.21506828 C9.03624,1.21506828 8.34904,1.08570195 7.89076,1.43665116 C7.43264,1.78752298 7.29896,2.06463702 7.29896,2.06463702 L8.0712,2.65678884 C8.0712,2.65678884 8.44448,2.4894214 8.55904,2.00918326 C8.67352,1.52902251 8.5972,1.30743963 9.03624,1.21506828 L9.03624,1.21506828 L9.03624,1.21506828 L9.03624,1.21506828 Z" id="Shape" fill="#E78724" sketch:type="MSShapeGroup"></path>
                            <path d="M6.42472,4.81503553 C6.7206,4.40870995 7.20804,4.2314746 7.59752,4.20210307 C8.2614,4.15187349 8.5764,4.37891274 8.5764,4.37891274 C8.5764,4.37891274 7.4892,4.42345377 7.1758,4.82161414 C6.5924,5.5626746 5.74164,5.62288819 5.60556,5.46012577 C5.76288,5.46771051 5.93608,5.39228874 6.12124,5.22279293 C6.23696,5.1167613 6.33084,4.94401488 6.42472,4.81503553 L6.42472,4.81503553 L6.42472,4.81503553 L6.42472,4.81503553 Z" id="Shape" fill="#E78724" sketch:type="MSShapeGroup"></path>
                            <path d="M8.26004,6.25176409 C8.26004,6.25176409 9.46616,5.8505853 9.23708,5.44433712 C9.00804,5.03797284 9.1902,4.81658344 9.1902,4.81658344 C9.1902,4.81658344 9.86392,5.30301321 9.69212,5.82009153 C9.58664,6.13748986 9.40968,6.36727665 8.43796,6.80784967 C7.97188,7.64538344 8.34172,9.15292874 8.31968,9.16001042 C8.28272,9.1718906 7.66532,8.86474716 7.70748,7.45433302 C7.72028,7.02122865 7.75608,6.42996688 8.26004,6.25176409 L8.26004,6.25176409 L8.26004,6.25176409 L8.26004,6.25176409 Z" id="Shape" fill="#E78724" sketch:type="MSShapeGroup"></path>
                            <path d="M6.67936,1.93774735 C7.185,2.18634121 7.87804,2.5325306 7.87804,2.5325306 L7.60536,2.66452837 C7.6314,2.70531572 7.644,2.72965656 7.644,2.72965656 L7.36408,2.85279256 C7.36408,2.85279256 6.68072,3.33167628 6.26204,3.63955498 C6.40148,3.22370977 6.81124,2.57041563 6.81124,2.57041563 C6.81124,2.57041563 6.92756,2.27023777 6.67936,1.93774735 L6.67936,1.93774735 L6.67936,1.93774735 L6.67936,1.93774735 Z" id="Shape" fill="#E78724" sketch:type="MSShapeGroup"></path>
                            <path d="M4.99912,12.0711204 C6.55352,12.0711204 7.08012,11.3075766 7.08012,11.3075766 L6.83732,11.8799539 C6.74548,12.1275803 5.76572,12.8981284 5.00148,12.8981284" id="Shape" fill="#E78724" sketch:type="MSShapeGroup"></path>
                            <path d="M6.90992,10.7916592 C6.90992,10.7916592 6.76672,11.6373581 6.19416,11.6373581 C5.70756,11.6373581 5.56412,10.9229991 5.56412,10.7753674 L6.90992,10.7916592 L6.90992,10.7916592 L6.90992,10.7916592 Z" id="Shape" fill="#E78724" sketch:type="MSShapeGroup"></path>
                            <path d="M7.863,9.51622251 C7.81212,9.38070326 7.63396,8.83282158 7.57656,8.33420205 C7.50796,7.73701953 7.53312,6.86357433 7.53312,6.86357433 C7.53312,6.86357433 7.68588,7.43610642 7.81936,7.52863256 C7.95312,7.62092651 8.2012,8.24879628 8.2012,8.24879628 C8.2012,8.24879628 8.33416,9.1835773 8.39744,9.49776372 C8.22236,9.53170158 8.07508,9.43186158 7.863,9.51622251 L7.863,9.51622251 L7.863,9.51622251 L7.863,9.51622251 Z" id="Shape" fill="#E78724" sketch:type="MSShapeGroup"></path>
                            <path d="M9.24616,5.81092019 C9.24616,5.81092019 8.92156,5.70001265 8.82616,5.01676651 C8.73076,4.33336558 8.94076,3.7423747 8.94076,3.7423747 C8.94076,3.7423747 8.92156,4.68427609 9.03616,4.86901879 C9.1508,5.05372279 9.24616,5.10906047 9.37984,5.34921823 C9.51336,5.589376 9.32248,5.73700763 9.24616,5.81092019 L9.24616,5.81092019 L9.24616,5.81092019 L9.24616,5.81092019 Z" id="Shape" fill="#E78724" sketch:type="MSShapeGroup"></path>
                            <path id="Shape" fill="#FDC168" sketch:type="MSShapeGroup" d="M8.8586,1.4361146 L8.92496,1.3361146 C9.12032,1.35184387 8.8586,1.4361146 8.8586,1.4361146 L8.8586,1.4361146 L8.8586,1.4361146 L8.8586,1.4361146 Z"></path>
                            <path d="M6.41512,1.73543591 C6.41512,1.73543591 6.72064,1.68621247 6.87328,1.46462958 C7.02604,1.2429693 7.45884,0.799648744 8.1486,0.794695442 C8.83828,0.789703442 9.52064,0.972046884 9.52064,0.972046884 L8.92496,1.3361533 C8.86196,1.33417972 8.7518,1.33499237 8.56948,1.34087442 C7.82208,1.36490567 7.707,2.08023219 7.707,2.08023219 L5.0726,1.72928298" id="Shape" fill="#FBA919" sketch:type="MSShapeGroup"></path>
                            <path d="M6.16064,5.68631367 C6.16064,5.68631367 6.51704,6.03110995 7.06424,5.92020242 C7.6116,5.80944967 7.94252,5.57548353 7.968,5.16911926 C7.9934,4.76279367 7.85348,4.60274009 7.85348,4.60274009 C7.85348,4.60274009 7.24248,4.78756019 6.94976,5.03383219 C6.65704,5.28010419 6.44072,5.67404651 6.16064,5.68631367 L6.16064,5.68631367 L6.16064,5.68631367 L6.16064,5.68631367 Z" id="Shape" fill="#FFFFFF" sketch:type="MSShapeGroup"></path>
                            <path d="M6.59184,5.56313898 C6.59184,5.56313898 6.90104,5.69974177 7.2464,5.58848595 C7.69876,5.44255702 7.72888,4.98754977 7.72888,4.98754977 C7.72888,4.98754977 8.00616,5.77520223 7.22832,5.92681972 C6.60456,6.04840781 6.23552,5.69865823 6.23552,5.69865823 L6.59184,5.56313898 L6.59184,5.56313898 L6.59184,5.56313898 Z" id="Shape" fill="#C9C9C9" sketch:type="MSShapeGroup"></path>
                            <path d="M8.61236,2.59727181 C8.86448,2.39492167 8.67672,2.20712186 8.69664,1.97721898 C8.70728,1.85489563 8.71728,1.73946047 8.759,1.67580279 C8.99104,1.32137079 9.53832,1.21382995 9.54396,1.21270772 L9.80088,1.16402605 L9.6308,0.971582512 C9.60876,0.946661209 8.91044,0.302074047 7.82964,0.639595163 C7.07384,0.875457488 6.51424,1.67526102 6.49344,1.70757358 L6.87232,1.88001042 C6.87692,1.87319963 7.31936,1.12141991 7.96788,0.919108465 C8.49208,0.755456 8.97524,0.911136744 9.18208,1.01318251 C8.9622,1.0981626 8.67444,1.2529146 8.50112,1.5176454 C8.41936,1.64267758 8.40568,1.80009972 8.3924,1.95252986 C8.37484,2.15433823 8.35824,2.34484688 8.20468,2.46821507 L8.61236,2.59727181 L8.61236,2.59727181 L8.61236,2.59727181 Z" id="Shape" fill="#463014" sketch:type="MSShapeGroup"></path>
                            <path id="Shape" fill="#463014" sketch:type="MSShapeGroup" d="M9.2856,5.5511814 C9.2856,5.5511814 8.96812,5.1701254 8.87404,4.42863926 C8.83708,4.13658791 8.9026,3.56053433 9.0076,3.33891274 C8.98852,3.8837373 9.1318,4.42863926 9.1318,4.42863926 C9.1318,4.42863926 9.22836,5.44035126 9.2856,5.5511814 L9.2856,5.5511814 L9.2856,5.5511814 L9.2856,5.5511814 Z"></path>
                            <path d="M7.61084,2.21242344 C7.611,2.21161079 7.71276,1.78140874 7.99492,1.5642374 C8.39284,1.257984 8.8788,1.42090121 8.88332,1.42233302 L8.95408,1.2114694 C8.93048,1.20407814 8.37516,1.03477581 7.86316,1.3828614 C7.34824,1.73292056 7.2866,2.05024149 7.28108,2.08530158 L7.61084,2.21242344 L7.61084,2.21242344 L7.61084,2.21242344 Z" id="Shape" fill="#463014" sketch:type="MSShapeGroup"></path>
                            <path id="Shape" fill="#463014" sketch:type="MSShapeGroup" d="M8.28812,5.27789842 C8.28812,5.27789842 8.45476,5.04710549 8.42464,4.79328744 C8.40988,4.66794567 8.34984,4.53927591 8.24264,4.49361265 C8.04344,4.40894214 7.95512,4.62739051 7.95512,4.62739051 C7.95512,4.62739051 8.23552,4.69433749 8.28812,5.27789842 L8.28812,5.27789842 L8.28812,5.27789842 L8.28812,5.27789842 Z"></path>
                            <path d="M6.45844,5.62966028 C6.45148,5.64223702 6.44788,5.64928 6.44788,5.64928 C6.44788,5.64928 6.96748,6.02665972 7.50016,5.64370753 C7.78548,5.43853247 7.75852,4.93101247 7.671,4.715776 C7.44396,4.76557991 7.25132,4.85535851 7.0902,4.96019051 C7.29376,4.78446437 7.47192,4.65509805 7.47128,4.65211833 L7.70276,4.58877023 L8.15232,4.43970679 C8.15808,4.4728707 8.32204,5.21652391 7.84852,5.72323126 C7.63876,5.94790995 6.65516,6.45105712 6.18828,5.59073042 L6.45844,5.62966028 L6.45844,5.62966028 L6.45844,5.62966028 Z" id="Shape" fill="#463014" sketch:type="MSShapeGroup"></path>
                            <path d="M6.50696,5.68495926 C6.21432,6.11585786 5.47616,5.86962456 5.48892,5.41407553 C5.48892,5.41407553 5.98212,5.6774906 6.418,5.19249265 C6.67248,4.90934177 7.48808,4.12861619 8.59388,4.38808409 C7.83024,4.55053693 6.81916,5.22554047 6.50696,5.68495926 L6.50696,5.68495926 L6.50696,5.68495926 L6.50696,5.68495926 Z" id="Shape" fill="#463014" sketch:type="MSShapeGroup"></path>
                            <path d="M8.69724,6.90107237 C8.6268,6.94042791 8.3784,7.18917656 8.3784,7.561216 C8.37824,7.74777749 8.39748,8.68499647 8.49304,9.25756726 C8.34944,9.34781023 8.24944,9.36700428 8.10648,9.45898865 C8.03492,8.7958653 7.98344,7.83476986 8.00752,7.44678698 C8.03484,7.00451126 8.27952,6.70770009 8.50648,6.58112 C8.57756,6.54157098 8.65188,6.50267981 8.72684,6.46355647 C9.11564,6.26031628 9.51768,6.05007181 9.51768,5.69107349 C9.51768,5.41024447 9.40472,5.32240074 9.28524,5.22929414 L9.27252,5.21919405 C9.19324,5.15723907 9.10336,5.08696409 9.05036,4.97156763 C8.90528,4.65606549 8.88148,3.85239219 9.0502,3.64837805 C9.13432,3.54671926 9.35988,3.204864 9.29508,2.9751546 C9.27024,2.88746567 9.21312,2.82249228 9.12024,2.77644205 C9.02188,2.72772167 8.88924,2.70303256 8.72556,2.70303256 C8.40456,2.70303256 8.04812,2.79760967 7.86448,2.85391479 C7.20772,3.05529749 6.41524,3.6359174 6.18792,3.80908949 C6.18144,3.8139267 6.17768,3.81675163 6.17696,3.817216 L6.03152,3.91500502 L6.12244,3.76783777 C6.1282,3.75866642 6.70384,2.84276986 7.73328,2.50695144 C7.9336,2.44162977 8.32704,2.33199926 8.71376,2.33199926 C8.944,2.33199926 9.13916,2.37089042 9.294,2.44751181 C9.48256,2.54081191 9.61016,2.68968186 9.66328,2.87786865 C9.79328,3.33918363 9.36984,3.85281786 9.3554,3.86922567 C9.30604,3.95447665 9.28516,4.57375553 9.39904,4.82161414 C9.41472,4.85582288 9.45772,4.88945116 9.51228,4.93194121 C9.52932,4.94529191 9.54824,4.95914567 9.5686,4.97396688 C9.72952,5.09145302 9.97268,5.26895926 9.97268,5.67810977 C9.97268,6.23794902 9.3862,6.54149358 8.91504,6.78555981 C8.83764,6.8258054 8.76376,6.86388391 8.69724,6.90107237 L8.69724,6.90107237 L8.69724,6.90107237 L8.69724,6.90107237 Z" id="Shape" fill="#463014" sketch:type="MSShapeGroup"></path>
                            <path d="M7.9976,2.53140837 C7.90432,2.37855256 7.66576,2.0834054 7.11592,1.82405358 C6.50232,1.53471107 5.79216,1.3878534 5.00484,1.38750512 L5.00484,1.38735033 L5.00332,1.38735033 L5.0018,1.38735033 L5.0018,1.38742772 C4.21436,1.3878147 3.50408,1.53467237 2.89064,1.82397619 C2.3408,2.0833667 2.10232,2.37847516 2.00896,2.53133098 L1.96892,2.5826054 L2.43976,2.6839933 L2.45468,2.6657667 L2.46256,2.6490493 C2.46984,2.61894251 2.53296,2.45641228 3.05792,2.20874716 C3.61912,1.94393898 4.27368,1.80969674 5.00324,1.80946456 C5.73288,1.80969674 6.38716,1.94393898 6.94832,2.20874716 C7.47332,2.45641228 7.53664,2.61894251 7.54384,2.6490493 L7.55168,2.6657667 L7.56644,2.6839933 L8.03744,2.5826054 L7.9976,2.53140837 L7.9976,2.53140837 L7.9976,2.53140837 Z" id="Shape" fill="#463014" sketch:type="MSShapeGroup"></path>
                            <path d="M8.61236,2.59727181 C8.86448,2.39492167 8.67672,2.20712186 8.69664,1.97721898 C8.70728,1.85489563 8.71728,1.73946047 8.759,1.67580279 C8.99104,1.32137079 9.53832,1.21382995 9.54396,1.21270772 L9.80088,1.16402605 L9.6308,0.971582512 C9.60876,0.946661209 8.91044,0.302074047 7.82964,0.639595163 C7.07384,0.875457488 6.51424,1.67526102 6.49344,1.70757358 L6.87232,1.88001042 C6.87692,1.87319963 7.31936,1.12141991 7.96788,0.919108465 C8.49208,0.755456 8.97524,0.911136744 9.18208,1.01318251 C8.9622,1.0981626 8.67444,1.2529146 8.50112,1.5176454 C8.41936,1.64267758 8.40568,1.80009972 8.3924,1.95252986 C8.37484,2.15433823 8.35824,2.34484688 8.20468,2.46821507 L8.61236,2.59727181 L8.61236,2.59727181 L8.61236,2.59727181 Z" id="Shape" fill="#463014" sketch:type="MSShapeGroup"></path>
                            <path d="M8.12712,2.48233972 L8.18016,2.43961749 C8.32136,2.3263107 8.3372,2.1433094 8.35424,1.94877619 C8.36792,1.79224409 8.38204,1.63029433 8.46872,1.49787088 C8.628,1.2546947 8.88016,1.10230326 9.08788,1.011712 C8.96352,0.960747163 8.72984,0.884783628 8.44168,0.884783628 C8.28252,0.884783628 8.1272,0.908079628 7.97944,0.954207256 C7.37788,1.14189098 6.9528,1.82014512 6.90468,1.89970753 L6.88664,1.92729898 L6.43828,1.72332353 L6.46108,1.68810865 C6.46636,1.67990474 7.02904,0.850652279 7.81804,0.60453507 C8.02904,0.538594233 8.24108,0.505314233 8.44828,0.505314233 C9.2076,0.505314233 9.656,0.943255814 9.65984,0.947667349 L9.87252,1.18821209 L9.55164,1.24908353 C9.54632,1.25012837 9.01248,1.35817228 8.7914,1.6956934 C8.75476,1.75180502 8.74516,1.86275126 8.73476,1.98054698 C8.72872,2.05058977 8.74392,2.11885247 8.75872,2.184832 C8.7908,2.3278973 8.82392,2.47587721 8.63688,2.6258694 L8.62064,2.63891051 L8.12712,2.48233972 L8.12712,2.48233972 L8.12712,2.48233972 Z" id="Shape" fill="#463014" sketch:type="MSShapeGroup"></path>
                            <path d="M7.61084,2.21242344 C7.611,2.21161079 7.71276,1.78140874 7.99492,1.5642374 C8.39284,1.257984 8.8788,1.42090121 8.88332,1.42233302 L8.95408,1.2114694 C8.93048,1.20407814 8.37516,1.03477581 7.86316,1.3828614 C7.34824,1.73292056 7.2866,2.05024149 7.28108,2.08530158 L7.61084,2.21242344 L7.61084,2.21242344 L7.61084,2.21242344 Z" id="Shape" fill="#463014" sketch:type="MSShapeGroup"></path>
                            <path d="M7.239,2.10882977 L7.24344,2.07988391 C7.24904,2.04327591 7.31352,1.71152074 7.84124,1.35259981 C8.05836,1.20500688 8.31852,1.12691498 8.5936,1.12691498 C8.80224,1.12691498 8.94964,1.17130121 8.96596,1.1763706 L9.0022,1.18770902 L8.9076,1.46900242 L8.87108,1.45727702 C8.85744,1.45282679 8.73472,1.41463219 8.5696,1.41463219 C8.358,1.41463219 8.17268,1.47469098 8.01892,1.59322195 C7.74908,1.80083498 7.6492,2.21629321 7.64828,2.22039516 L7.63836,2.26265302 L7.239,2.10882977 L7.239,2.10882977 L7.239,2.10882977 Z M8.8586,1.37670847 L8.9056,1.23666158 C8.85016,1.22304 8.73792,1.20090493 8.5936,1.20090493 C8.33064,1.20090493 8.09228,1.27234084 7.88524,1.41312298 C7.45212,1.70765098 7.3486,1.97377488 7.32512,2.06246995 L7.585,2.16258084 C7.619,2.04567516 7.73156,1.71980205 7.97124,1.53529153 C8.13664,1.40813098 8.34348,1.34087442 8.56956,1.34087442 C8.69956,1.34087442 8.80428,1.36258381 8.8586,1.37670847 L8.8586,1.37670847 L8.8586,1.37670847 L8.8586,1.37670847 Z" id="Shape" fill="#463014" sketch:type="MSShapeGroup"></path>
                            <path d="M5.92968,11.3213529 C5.733,11.1179193 5.61664,10.8990065 5.58852,10.83175 C5.57244,10.7934393 5.55412,10.7204167 5.6118,10.6630668 C5.65676,10.6186419 5.73468,10.5958489 5.84364,10.5958489 L6.01132,10.5958489 C6.18608,10.5958489 6.39044,10.5958489 6.51196,10.595965 L6.61388,10.5961198 C6.75704,10.5961198 6.82756,10.6357462 6.86152,10.6689488 C6.91088,10.7172822 6.9186,10.7845388 6.8846,10.8687062 C6.79352,11.0936171 6.58692,11.2771602 6.52584,11.3280476 C6.44584,11.3948785 6.331,11.4344662 6.2182,11.4344662 L6.2182,11.4344662 C6.10256,11.4344662 6.00012,11.3942593 5.92968,11.3213529 L5.92968,11.3213529 L5.92968,11.3213529 L5.92968,11.3213529 Z" id="Shape" fill="#463014" sketch:type="MSShapeGroup"></path>
                            <path id="Shape" fill="#463014" sketch:type="MSShapeGroup" d="M6.09992,5.71030623 L6.50696,5.68495926 C6.50696,5.68495926 6.403,5.86250419 6.33556,6.09213619 C6.2594,6.35187498 6.4052,6.73146047 6.4052,6.73146047 C6.4052,6.73146047 5.86212,6.13667721 6.09992,5.71030623 L6.09992,5.71030623 L6.09992,5.71030623 L6.09992,5.71030623 Z"></path>
                            <path d="M5.0034,4.30360707 C4.74384,4.30360707 4.4054,4.29671888 4.15148,4.12018009 C4.15148,4.12018009 4.48396,4.68404391 5.00296,4.68404391 L5.0034,4.6126854 L5.00384,4.68404391 C5.52288,4.68404391 5.85532,4.12018009 5.85532,4.12018009 C5.6014,4.29671888 5.26272,4.30360707 5.0034,4.30360707 L5.0034,4.30360707 L5.0034,4.30360707 L5.0034,4.30360707 Z" id="Shape" fill="#E78724" sketch:type="MSShapeGroup"></path>
                            <path id="Shape" fill="#463014" sketch:type="MSShapeGroup" d="M5.71808,4.30089823 C5.45772,4.45332837 5.2252,4.5061507 5.0034,4.51083312 C4.78156,4.5061507 4.54912,4.45332837 4.28872,4.30089823 C4.28872,4.30089823 4.66788,4.74851423 5.00148,4.75195833 L5.00148,4.75222921 C5.00208,4.75222921 5.00268,4.75207442 5.00336,4.75207442 C5.00396,4.75207442 5.00456,4.75222921 5.00524,4.75222921 L5.00524,4.75195833 C5.33876,4.74851423 5.71808,4.30089823 5.71808,4.30089823 L5.71808,4.30089823 L5.71808,4.30089823 L5.71808,4.30089823 Z"></path>
                            <path d="M6.60828,12.4748532 L6.57924,12.1097407 C7.80184,12.0187624 8.18708,10.8852301 8.18908,10.7659252 L8.56764,10.7659252 C8.5678,11.0418783 8.05764,12.3670802 6.60828,12.4748532 L6.60828,12.4748532 L6.60828,12.4748532 L6.60828,12.4748532 Z" id="Shape" fill="#463014" sketch:type="MSShapeGroup"></path>
                            <path d="M7.01556,10.1007122 C7.03832,9.9740547 7.04052,9.85393712 7.01292,9.73590921 C7.12324,9.65580502 7.32076,9.62604651 7.46908,9.57953191 C7.59036,9.50527107 8.21116,9.65565023 8.66144,9.12847181 C9.2256,8.46832819 9.10672,8.07419237 9.10672,8.07419237 C9.25148,8.22967963 9.39156,8.17043349 9.6122,8.89539572 C9.833,9.62051274 9.5084,10.1260205 8.90372,10.6335018 C8.61808,10.8732339 8.2142,10.9719903 7.86684,11.009798 C7.9832,10.896762 7.66808,10.8854623 7.451,10.8068287 C7.46836,10.637178 7.4392,10.4724807 7.30848,10.3398638 C7.2298,10.2599144 7.1282,10.2121228 7.02304,10.1740443 C7.01712,10.1608871 7.01204,10.148736 7.0066,10.1361206 C7.01008,10.1245887 7.01336,10.1129407 7.01556,10.1007122 L7.01556,10.1007122 L7.01556,10.1007122 L7.01556,10.1007122 Z" id="Shape" fill="#FFFFFF" sketch:type="MSShapeGroup"></path>
                            <path d="M7.45368,10.8024171 C7.4664,10.7668153 7.47572,10.7305168 7.48504,10.6939862 C7.49524,10.6540889 7.54524,10.541053 7.48352,10.6701098 C7.49936,10.637062 7.50972,10.603008 7.51736,10.5686832 C8.49664,10.5674835 9.3486,9.91701433 9.18384,8.54947721 C9.31204,8.3848186 9.49168,8.88150326 9.49168,8.88150326 C9.49168,8.88150326 9.98196,10.2586761 8.7158,10.7924331 C8.29392,10.9704424 7.92112,11.0980287 7.83312,11.046522 C7.64972,11.0825496 7.48432,10.9589492 7.42244,10.8776841 C7.434,10.8527241 7.44484,10.8277254 7.45368,10.8024171 L7.45368,10.8024171 L7.45368,10.8024171 L7.45368,10.8024171 Z" id="Shape" fill="#C9C9C9" sketch:type="MSShapeGroup"></path>
                            <path d="M7.03308,9.9024253 C7.03172,9.78699014 7.0072,9.67519256 6.94968,9.56378195 C6.9456,9.55611981 6.94092,9.54876726 6.93664,9.5412986 C7.31344,9.53816409 7.74748,9.50325879 8.11704,9.36015479 C8.5232,9.20296484 9.03132,8.66518326 9.11868,8.03332763 C9.11868,8.03332763 9.88368,8.60442791 9.65888,9.82681005 C9.44772,10.9746605 8.455,11.348867 7.32272,11.4121764 C7.32212,11.4047464 7.45012,11.1490322 7.40964,10.9925001 C8.05244,11.037699 8.77144,10.7973864 9.11872,10.244861 C9.43628,9.73915981 9.3472,8.875776 9.2166,8.7492733 C8.89816,9.72170716 7.7518,9.91937488 7.03308,9.9024253 L7.03308,9.9024253 L7.03308,9.9024253 L7.03308,9.9024253 Z" id="Shape" fill="#463014" sketch:type="MSShapeGroup"></path>
                            <path d="M7.49032,10.190336 C7.35504,10.0488573 7.10632,9.88021284 6.53284,9.88021284 C6.53284,9.88021284 5.44556,9.87959367 5.00532,9.87932279 L5.00532,9.87932279 L5.00344,9.87932279 L5.00156,9.87932279 C4.56136,9.87963237 3.4738,9.88021284 3.4738,9.88021284 C2.90048,9.88021284 2.65176,10.048896 2.5164,10.190336 C2.31924,10.3962463 2.28832,10.6826865 2.42472,11.0407174 C2.78716,11.9936863 3.29648,12.9618634 5.00148,12.9632179 L5.00148,12.9633727 C5.00212,12.9633727 5.00268,12.9632179 5.00336,12.9632179 C5.00396,12.9632179 5.00456,12.9633727 5.00524,12.9633727 L5.00524,12.9632179 C6.71008,12.961786 7.2194,11.9936863 7.58196,11.0407174 C7.71836,10.6826865 7.68736,10.3962463 7.49032,10.190336 L7.49032,10.190336 L7.49032,10.190336 L7.49032,10.190336 Z M7.22488,10.9738865 C7.0522,11.452422 6.58812,12.6107207 5.00332,12.612733 C3.41832,12.6107207 2.9544,11.4524607 2.78172,10.9738865 C2.68616,10.7083818 2.69344,10.5119137 2.80408,10.3898612 C2.87964,10.306429 3.05324,10.2068599 3.44888,10.2068599 L3.8622,10.2067051 C4.16712,10.2064342 4.54996,10.2061247 5.00336,10.2059699 C5.4566,10.2061247 5.83964,10.2064342 6.14448,10.2067051 L6.55764,10.2068599 C6.9534,10.2068599 7.12696,10.3063903 7.20256,10.3898612 C7.31308,10.5120298 7.32044,10.7083818 7.22488,10.9738865 L7.22488,10.9738865 L7.22488,10.9738865 L7.22488,10.9738865 Z" id="Shape" fill="#463014" sketch:type="MSShapeGroup"></path>
                            <path d="M6.91452,9.20625414 C7.11828,9.78474567 7.53444,10.2529101 7.53444,10.2529101 C7.53444,10.2529101 6.96196,10.227718 6.93032,10.1296967 C6.90708,10.0574482 6.41348,8.93966586 6.22404,7.63025265 C6.40212,7.91348093 6.89704,9.15672112 6.91452,9.20625414 L6.91452,9.20625414 L6.91452,9.20625414 L6.91452,9.20625414 Z" id="Shape" fill="#463014" sketch:type="MSShapeGroup"></path>
                        </g>
                    </g>
                </g>
            </g>
        </g>
    </g>
</svg>