<svg xmlns="http://www.w3.org/2000/svg" xmlns:xlink="http://www.w3.org/1999/xlink" width="116" height="20" viewBox="0 0 116 20"><defs><filter id="d" width="100%" height="100%" x="0%" y="0%" filterUnits="objectBoundingBox"><feOffset in="SourceAlpha" result="shadowOffsetInner1"/><feComposite in="shadowOffsetInner1" in2="SourceAlpha" k2="-1" k3="1" operator="arithmetic" result="shadowInnerInner1"/><feColorMatrix in="shadowInnerInner1" values="0 0 0 0 0 0 0 0 0 0 0 0 0 0 0 0 0 0 0.5 0"/></filter><filter id="f" width="100.4%" height="127.5%" x="-.9%" y="-6.9%" filterUnits="objectBoundingBox"><feOffset dy="1" in="SourceAlpha" result="shadowOffsetOuter1"/><feColorMatrix in="shadowOffsetOuter1" values="0 0 0 0 0.347417092 0 0 0 0 0.347417092 0 0 0 0 0.347417092 0 0 0 0.498161765 0"/></filter><filter id="h" width="102%" height="127%" x="-1.8%" y="-6.8%" filterUnits="objectBoundingBox"><feOffset dy="1" in="SourceAlpha" result="shadowOffsetOuter1"/><feColorMatrix in="shadowOffsetOuter1" values="0 0 0 0 1 0 0 0 0 1 0 0 0 0 1 0 0 0 0.607704937 0"/></filter><rect id="a" width="116" height="20" x="0" y="0" rx="3"/><rect id="c" width="84" height="20" x="69" y="0"/><path id="e" d="M6.73242188,6.84179688 L9.59375,6.84179688 C10.1601591,6.84179688 10.5825181,6.8653969 10.8608398,6.91259766 C11.1391615,6.95979841 11.3881825,7.05826748 11.6079102,7.20800781 C11.8276378,7.35774814 12.0107415,7.55712766 12.1572266,7.80615234 C12.3037117,8.05517703 12.3769531,8.33430835 12.3769531,8.64355469 C12.3769531,8.97884282 12.286622,9.28645693 12.105957,9.56640625 C11.9252921,9.84635557 11.6803401,10.0563144 11.3710938,10.1962891 C11.8072938,10.3232428 12.142577,10.539712 12.3769531,10.8457031 C12.6113293,11.1516942 12.7285156,11.5113912 12.7285156,11.9248047 C12.7285156,12.2503271 12.6528328,12.566893 12.5014648,12.8745117 C12.3500969,13.1821304 12.1433932,13.4278962 11.8813477,13.6118164 C11.6193021,13.7957366 11.2962259,13.908854 10.9121094,13.9511719 C10.6712228,13.9772137 10.0901739,13.9934896 9.16894531,14 L6.73242188,14 L6.73242188,6.84179688 Z M8.17773438,8.03320312 L8.17773438,9.68847656 L9.125,9.68847656 C9.68815386,9.68847656 10.0380853,9.68033862 10.1748047,9.6640625 C10.4222018,9.63476548 10.6166985,9.54931711 10.7583008,9.40771484 C10.8999031,9.26611257 10.9707031,9.07975376 10.9707031,8.84863281 C10.9707031,8.62727754 10.9096686,8.44742908 10.7875977,8.30908203 C10.6655267,8.17073499 10.4840507,8.08691421 10.2431641,8.05761719 C10.0999342,8.04134106 9.68815444,8.03320312 9.0078125,8.03320312 L8.17773438,8.03320312 Z M8.17773438,10.8798828 L8.17773438,12.7939453 L9.515625,12.7939453 C10.0364609,12.7939453 10.3668613,12.779297 10.5068359,12.75 C10.7216808,12.7109373 10.8966465,12.6157234 11.0317383,12.4643555 C11.1668301,12.3129875 11.234375,12.1103528 11.234375,11.8564453 C11.234375,11.6416005 11.1822922,11.4593106 11.078125,11.3095703 C10.9739578,11.15983 10.8234059,11.0507816 10.6264648,10.9824219 C10.4295238,10.9140622 10.0022819,10.8798828 9.34472656,10.8798828 L8.17773438,10.8798828 Z M13.9394531,6.84179688 L15.3847656,6.84179688 L15.3847656,10.71875 C15.3847656,11.3339875 15.4026691,11.7327465 15.4384766,11.9150391 C15.5003258,12.2080093 15.6476225,12.4431957 15.8803711,12.6206055 C16.1131197,12.7980152 16.4313131,12.8867188 16.8349609,12.8867188 C17.2451192,12.8867188 17.5543609,12.802898 17.7626953,12.6352539 C17.9710297,12.4676098 18.096354,12.26172 18.1386719,12.0175781 C18.1809898,11.7734363 18.2021484,11.3681669 18.2021484,10.8017578 L18.2021484,6.84179688 L19.6474609,6.84179688 L19.6474609,10.6015625 C19.6474609,11.4609418 19.6083988,12.0680321 19.5302734,12.4228516 C19.452148,12.777671 19.3081065,13.0771472 19.0981445,13.3212891 C18.8881825,13.5654309 18.6074236,13.7599277 18.2558594,13.9047852 C17.9042951,14.0496427 17.4453153,14.1220703 16.8789062,14.1220703 C16.1953091,14.1220703 15.6769223,14.0431323 15.3237305,13.8852539 C14.9705386,13.7273755 14.6914073,13.5222994 14.4863281,13.2700195 C14.281249,13.0177396 14.1461592,12.7532566 14.0810547,12.4765625 C13.9866532,12.0664042 13.9394531,11.4609415 13.9394531,10.6601562 L13.9394531,6.84179688 Z M21.1269531,14 L21.1269531,6.84179688 L22.5722656,6.84179688 L22.5722656,14 L21.1269531,14 Z M23.9882812,14 L23.9882812,6.90039062 L25.4335938,6.90039062 L25.4335938,12.7939453 L29.0273438,12.7939453 L29.0273438,14 L23.9882812,14 Z M31.6689453,14 L31.6689453,8.05273438 L29.5449219,8.05273438 L29.5449219,6.84179688 L35.2333984,6.84179688 L35.2333984,8.05273438 L33.1142578,8.05273438 L33.1142578,14 L31.6689453,14 Z M39.9599609,14 L38.2509766,6.84179688 L39.7304688,6.84179688 L40.8095703,11.7587891 L42.1181641,6.84179688 L43.8369141,6.84179688 L45.0917969,11.8417969 L46.1904297,6.84179688 L47.6455078,6.84179688 L45.9072266,14 L44.3740234,14 L42.9482422,8.6484375 L41.5273438,14 L39.9599609,14 Z M48.3388672,14 L48.3388672,6.84179688 L49.7841797,6.84179688 L49.7841797,14 L48.3388672,14 Z M52.7724609,14 L52.7724609,8.05273438 L50.6484375,8.05273438 L50.6484375,6.84179688 L56.3369141,6.84179688 L56.3369141,8.05273438 L54.2177734,8.05273438 L54.2177734,14 L52.7724609,14 Z M57.2744141,14 L57.2744141,6.84179688 L58.7197266,6.84179688 L58.7197266,9.65917969 L61.5517578,9.65917969 L61.5517578,6.84179688 L62.9970703,6.84179688 L62.9970703,14 L61.5517578,14 L61.5517578,10.8701172 L58.7197266,10.8701172 L58.7197266,14 L57.2744141,14 Z"/><path id="g" d="M87.0576172,11.3681641 L87.0576172,10.1621094 L90.1728516,10.1621094 L90.1728516,13.0136719 C89.8701157,13.3066421 89.4314807,13.5646148 88.8569336,13.7875977 C88.2823865,14.0105805 87.7005238,14.1220703 87.1113281,14.1220703 C86.3626265,14.1220703 85.7099637,13.9650081 85.1533203,13.6508789 C84.5966769,13.3367497 84.1783868,12.8875355 83.8984375,12.3032227 C83.6184882,11.7189098 83.4785156,11.0833368 83.4785156,10.3964844 C83.4785156,9.65103794 83.6347641,8.98860967 83.9472656,8.40917969 C84.2597672,7.82974971 84.7171194,7.38541821 85.3193359,7.07617188 C85.7783226,6.83854048 86.349606,6.71972656 87.0332031,6.71972656 C87.9218794,6.71972656 88.6160457,6.90608538 89.1157227,7.27880859 C89.6153996,7.65153181 89.9368482,8.16666338 90.0800781,8.82421875 L88.6445312,9.09277344 C88.5436193,8.74120918 88.3540053,8.46370544 88.0756836,8.26025391 C87.7973619,8.05680237 87.4498719,7.95507812 87.0332031,7.95507812 C86.4016896,7.95507812 85.8995787,8.15527144 85.5268555,8.55566406 C85.1541323,8.95605669 84.9677734,9.55012627 84.9677734,10.3378906 C84.9677734,11.1875042 85.1565736,11.8247049 85.5341797,12.2495117 C85.9117857,12.6743185 86.4065725,12.8867188 87.0185547,12.8867188 C87.3212906,12.8867188 87.6248357,12.8273118 87.9291992,12.7084961 C88.2335627,12.5896804 88.4947906,12.4456389 88.7128906,12.2763672 L88.7128906,11.3681641 L87.0576172,11.3681641 Z M91.4960938,6.84179688 L92.9414062,6.84179688 L92.9414062,10.71875 C92.9414062,11.3339875 92.9593097,11.7327465 92.9951172,11.9150391 C93.0569665,12.2080093 93.2042632,12.4431957 93.4370117,12.6206055 C93.6697603,12.7980152 93.9879537,12.8867188 94.3916016,12.8867188 C94.8017599,12.8867188 95.1110016,12.802898 95.3193359,12.6352539 C95.5276703,12.4676098 95.6529946,12.26172 95.6953125,12.0175781 C95.7376304,11.7734363 95.7587891,11.3681669 95.7587891,10.8017578 L95.7587891,6.84179688 L97.2041016,6.84179688 L97.2041016,10.6015625 C97.2041016,11.4609418 97.1650395,12.0680321 97.0869141,12.4228516 C97.0087887,12.777671 96.8647471,13.0771472 96.6547852,13.3212891 C96.4448232,13.5654309 96.1640643,13.7599277 95.8125,13.9047852 C95.4609357,14.0496427 95.001956,14.1220703 94.4355469,14.1220703 C93.7519497,14.1220703 93.233563,14.0431323 92.8803711,13.8852539 C92.5271792,13.7273755 92.2480479,13.5222994 92.0429688,13.2700195 C91.8378896,13.0177396 91.7027998,12.7532566 91.6376953,12.4765625 C91.5432938,12.0664042 91.4960938,11.4609415 91.4960938,10.6601562 L91.4960938,6.84179688 Z M98.7666016,14 L98.7666016,6.90039062 L100.211914,6.90039062 L100.211914,12.7939453 L103.805664,12.7939453 L103.805664,14 L98.7666016,14 Z M104.835938,14 L104.835938,6.84179688 L107.155273,6.84179688 C108.034184,6.84179688 108.607095,6.87760381 108.874023,6.94921875 C109.284182,7.05664116 109.627603,7.29020002 109.904297,7.64990234 C110.180991,8.00960466 110.319336,8.47428101 110.319336,9.04394531 C110.319336,9.48340063 110.239584,9.85286309 110.080078,10.1523438 C109.920572,10.4518244 109.717937,10.6870109 109.472168,10.8579102 C109.226399,11.0288094 108.976564,11.1419268 108.722656,11.1972656 C108.377602,11.2656253 107.877933,11.2998047 107.223633,11.2998047 L106.28125,11.2998047 L106.28125,14 L104.835938,14 Z M106.28125,8.05273438 L106.28125,10.0839844 L107.072266,10.0839844 C107.64193,10.0839844 108.022785,10.0465499 108.214844,9.97167969 C108.406902,9.89680952 108.557454,9.77962319 108.666504,9.62011719 C108.775554,9.46061118 108.830078,9.27506616 108.830078,9.06347656 C108.830078,8.80305859 108.753581,8.58821699 108.600586,8.41894531 C108.44759,8.24967363 108.253907,8.14388042 108.019531,8.1015625 C107.847004,8.06901025 107.500328,8.05273438 106.979492,8.05273438 L106.28125,8.05273438 Z"/></defs><g fill="none" fill-rule="evenodd"><mask id="b" fill="#fff"><use xlink:href="#a"/></mask><use xlink:href="#a" fill="#D34A47"/><g mask="url(#b)"><use xlink:href="#c" fill="#FF8D8B"/><use xlink:href="#c" fill="#000" filter="url(#d)"/></g><g mask="url(#b)"><use xlink:href="#e" fill="#000" filter="url(#f)"/><use xlink:href="#e" fill="#F3EADC"/></g><g mask="url(#b)"><use xlink:href="#g" fill="#000" filter="url(#h)"/><use xlink:href="#g" fill="#000"/></g><g mask="url(#b)"><g transform="translate(73 1)"><path fill="#D34A47" d="M4.62375 14.542818 4.75094531 12.1462633 5.10215625 11.4683481C5.10215625 11.4683481 4.30279688 11.8381007 2.96453906 11.8381007 1.62625781 11.8381007.839015625 11.4751855.839015625 11.4751855L1.232625 12.2146908 1.37186719 14.542818C1.37186719 14.7924117 2.0998125 14.9947261 2.99782031 14.9947261 3.89578125 14.9947261 4.62375 14.7924117 4.62375 14.542818M4.22252344 3.35125442 4.4895 2.15801237 5.96796094.398931095 5.57828906.023639576 4.01303906 1.8975 3.70305469 3.32310954C3.47845313 3.31452297 3.24405469 3.30993816 3.00290625 3.30993816 1.35440625 3.30993816.0180234375 3.52237633.0180234375 3.78437279.0180234375 4.04639576 1.35440625 4.25880742 3.00290625 4.25880742 4.65138281 4.25880742 5.98774219 4.04639576 5.98774219 3.78437279 5.98774219 3.59143993 5.26296094 3.42537986 4.22252344 3.35125442"/><path fill="#D34A47" d="M4.06722656 4.01949647C4.06722656 4.01949647 4.00940625 4.03415194 3.83932031 4.0349735 3.6691875 4.03576855 3.54839063 4.03372792 3.50027344 3.98416961 3.48733594 3.97086572 3.48025781 3.94444346 3.48032813 3.92655477 3.48046875 3.8925 3.50184375 3.87243816 3.52907813 3.85987633L3.55483594 3.90556537C3.54363281 3.90993816 3.53723438 3.91510601 3.53721094 3.92061837 3.53711719 3.9464841 3.71116406 3.96418728 3.84428906 3.96227915 3.9774375 3.96042403 4.1383125 3.9480212 4.13845313 3.9225265 4.13845313 3.91481449 4.12628906 3.907553 4.105125 3.90182862L4.13076563 3.8564576C4.16526563 3.8685689 4.19538281 3.89196996 4.1953125 3.93246466 4.19498438 4.00131625 4.1175 4.01178445 4.06722656 4.01949647M5.96505469.402402827C6.00222656.35385159 5.9458125.229664311 5.83905469.125061837 5.73225.0205123675 5.61553125-.0249116608 5.57828906.023639576 5.54109375.0721908127 5.59753125.196378092 5.70433594.300927562 5.81109375.405503534 5.92785937.450980565 5.96505469.402402827M4.55264062 8.68900177C4.51760156 8.30780035 5.29003125 7.75571555 5.09179687 7.73803887 4.66504687 7.76562721 4.45265625 8.30353357 4.23794531 8.86690813 4.15926562 9.07338339 3.89003906 9.95382509 3.71346094 9.84543286 3.53692969 9.73709364 3.94232812 9.01309187 4.05595312 8.58312721 3.92484375 8.69183746 3.44402344 9.11424912 3.32010937 8.71865724 3.12089062 8.9099735 2.69519531 9.01362191 2.74321875 8.5110689 2.63723437 8.72334806 2.39936719 9.01971731 2.11385156 8.8965636 1.73889844 8.73487633 2.33111719 7.38431979 2.478375 7.45245583 2.62565625 7.52056537 2.44865625 7.82822438 2.40229687 7.94769435 2.30034375 8.21061837 2.18257031 8.54114841 2.26125 8.60880742 2.39603906 8.72472615 2.76283594 8.17028269 2.77099219 8.15809187 2.83959375 8.05560954 3.03503906 7.38514134 3.1925625 7.46212898 3.35008594 7.53911661 2.79965625 8.42435512 3.00546094 8.60003534 3.04696875 8.6354947 3.21679687 8.57817138 3.32010937 8.45178445 3.38695312 8.3700265 3.36396094 8.18893993 3.58678125 7.58809187 3.80960156 6.98727032 4.0081875 6.23901943 4.161 6.29602473 4.3138125 6.35300353 4.18785937 6.73704064 4.13303906 6.88020318 3.87578906 7.55212898 3.43094531 8.66220848 3.64073437 8.57817138 3.85052344 8.49416078 3.95976562 8.48923145 4.16519531 8.21740283 4.370625 7.9455742 4.36115625 7.49782686 4.49807812 7.50734099 4.63504687 7.51688163 4.61205469 7.6604417 4.57884375 7.76976148 4.71360937 7.59537986 5.21765625 7.22811837 5.33934375 7.59185512 5.48348437 8.02248233 4.61819531 8.6445053 4.8339375 8.61278269 5.04428906 8.58185512 5.38507031 8.33780035 5.53057031 8.11590106L5.93107031 4.04454064C5.93107031 4.04454064 5.5280625 4.42166078 2.96414062 4.42166078.400195312 4.42166078.0388828125 4.05238516.0388828125 4.05238516L.379851562 7.7685689C.560835937 7.18693463.990609375 6.0104682 1.66804687 6.04995583 1.97620312 6.06792403 2.38757812 6.73886926 2.03519531 6.76160777 1.88603906 6.77120141 1.87089844 6.42670495 1.69427344 6.37611307 1.56682031 6.33959364 1.389375 6.45675795 1.27469531 6.58370141 1.04599219 6.83679329.554109375 7.83535336.619101562 8.33318905.70190625 8.96787986 1.39366406 8.11264134 1.51071094 7.85872792 1.59314062 7.67986749 1.64882812 7.14993816 1.82910937 7.20553887 2.00941406 7.26113958 1.81338281 7.80803004 1.68269531 8.29155477 1.53588281 8.83449647 1.45870312 9.40722615 1.27469531 9.34134276 1.09066406 9.27551237 1.39042969 8.57459364 1.37957812 8.45178445 1.20660937 8.63223498.887953125 9.08907244.48028125 8.86295936L.692039062 11.1706802C.692039062 11.1706802 1.25484375 11.6734982 2.95024219 11.6734982 4.64564062 11.6734982 5.22928125 11.1785247 5.22928125 11.1785247L5.49222656 8.50563604C5.27709375 8.74250883 4.59623437 9.16314488 4.55264062 8.68900177"/></g></g></g></svg>