<svg xmlns="http://www.w3.org/2000/svg" xmlns:xlink="http://www.w3.org/1999/xlink" width="60" height="20" viewBox="0 0 60 20">
  <defs>
    <rect id="hexo-a" width="60" height="20" rx="3"/>
    <rect id="hexo-c" width="22" height="20"/>
    <filter id="hexo-d" width="100%" height="100%" x="0%" y="0%" filterUnits="objectBoundingBox">
      <feOffset in="SourceAlpha" result="shadowOffsetInner1"/>
      <feComposite in="shadowOffsetInner1" in2="SourceAlpha" k2="-1" k3="1" operator="arithmetic" result="shadowInnerInner1"/>
      <feColorMatrix in="shadowInnerInner1" values="0 0 0 0 0   0 0 0 0 0   0 0 0 0 0  0 0 0 0.5 0"/>
    </filter>
    <text id="hexo-f" fill="#FFF" font-family="AvenirNext-Medium, Avenir Next" font-size="12" font-weight="400">
      <tspan x="27" y="14">Hexo</tspan>
    </text>
    <filter id="hexo-e" width="102.8%" height="118.8%" x="-1.4%" y="-3.1%" filterUnits="objectBoundingBox">
      <feOffset dy="1" in="SourceAlpha" result="shadowOffsetOuter1"/>
      <feColorMatrix in="shadowOffsetOuter1" values="0 0 0 0 0.347417092   0 0 0 0 0.347417092   0 0 0 0 0.347417092  0 0 0 0.498161765 0"/>
    </filter>
  </defs>
  <g fill="none" fill-rule="evenodd">
    <mask id="hexo-b" fill="#fff">
      <use xlink:href="#hexo-a"/>
    </mask>
    <use fill="#0E83CD" xlink:href="#hexo-a"/>
    <g mask="url(#hexo-b)">
      <use fill="#B6D7F4" xlink:href="#hexo-c"/>
      <use fill="#000" filter="url(#hexo-d)" xlink:href="#hexo-c"/>
    </g>
    <g fill="#FFF" mask="url(#hexo-b)">
      <use filter="url(#hexo-e)" xlink:href="#hexo-f"/>
      <use xlink:href="#hexo-f"/>
    </g>
    <g mask="url(#hexo-b)">
      <g transform="translate(5 3)">
        <polygon fill="#0E83CD" points="6.002 0 .027 3.501 .028 10.492 6.016 13.978 11.991 10.477 11.991 3.49 6.002 0"/>
        <polygon fill="#FFF" points="3.199 10.016 3.199 6.993 3.2 3.97 3.742 3.649 4.262 3.96 4.267 5.195 4.273 6.431 6.009 6.431 7.745 6.431 7.751 5.196 7.757 3.962 8.284 3.653 8.819 3.97 8.819 6.991 8.819 10.012 8.289 10.311 7.757 10.008 7.751 8.78 7.745 7.551 6.009 7.551 4.273 7.551 4.267 8.779 4.269 10.014 3.737 10.33"/>
      </g>
    </g>
  </g>
</svg>
