<svg xmlns="http://www.w3.org/2000/svg" xmlns:xlink="http://www.w3.org/1999/xlink" width="80" height="20" viewBox="0 0 80 20">
  <defs>
    <rect id="linkedin-a" width="80" height="20" rx="3"/>
  </defs>
  <g fill="none" fill-rule="evenodd">
    <mask id="linkedin-b" fill="#fff">
      <use xlink:href="#linkedin-a"/>
    </mask>
    <use fill="#0495E1" xlink:href="#linkedin-a"/>
    <rect width="22" height="20" fill="#0077B5" mask="url(#linkedin-b)"/>
    <text fill="#FFF" font-family="PingFangSC-Semibold, PingFang SC" font-size="12" font-weight="500" mask="url(#linkedin-b)">
      <tspan x="26.874" y="14">Linkedin</tspan>
    </text>
    <path fill="#FFF" d="M9.28571429,7.38461538 L11.6578571,7.38461538 L11.6578571,8.58488462 L11.6917143,8.58488462 C12.0217143,8.00061538 12.8295714,7.38461538 14.0334286,7.38461538 C16.5371429,7.38461538 17,8.92334615 17,10.9245 L17,15 L14.5275714,15 L14.5275714,11.3869231 C14.5275714,10.5251154 14.5095714,9.41665385 13.2414286,9.41665385 C11.9535714,9.41665385 11.7572857,10.3550385 11.7572857,11.3243077 L11.7572857,15 L9.28571429,15 L9.28571429,7.38461538 Z M5,7.38461538 L7.57142857,7.38461538 L7.57142857,15 L5,15 L5,7.38461538 Z M7.57142857,5.26923077 C7.57142857,5.97026923 6.99585714,6.53846154 6.28571429,6.53846154 C5.57557143,6.53846154 5,5.97026923 5,5.26923077 C5,4.56819231 5.57557143,4 6.28571429,4 C6.99585714,4 7.57142857,4.56819231 7.57142857,5.26923077 Z" mask="url(#linkedin-b)"/>
  </g>
</svg>
