<svg xmlns="http://www.w3.org/2000/svg" xmlns:xlink="http://www.w3.org/1999/xlink" width="67" height="20" viewBox="0 0 67 20">
  <defs>
    <rect id="linux-a" width="67" height="20" rx="3"/>
    <rect id="linux-c" width="22" height="20"/>
    <filter id="linux-d" width="100%" height="100%" x="0%" y="0%" filterUnits="objectBoundingBox">
      <feOffset in="SourceAlpha" result="shadowOffsetInner1"/>
      <feComposite in="shadowOffsetInner1" in2="SourceAlpha" k2="-1" k3="1" operator="arithmetic" result="shadowInnerInner1"/>
      <feColorMatrix in="shadowInnerInner1" values="0 0 0 0 0   0 0 0 0 0   0 0 0 0 0  0 0 0 0.5 0"/>
    </filter>
  </defs>
  <g fill="none" fill-rule="evenodd">
    <mask id="linux-b" fill="#fff">
      <use xlink:href="#linux-a"/>
    </mask>
    <use fill="#242424" xlink:href="#linux-a"/>
    <g mask="url(#linux-b)">
      <use fill="#FFD000" xlink:href="#linux-c"/>
      <use fill="#000" filter="url(#linux-d)" xlink:href="#linux-c"/>
    </g>
    <text fill="#FFF" font-family="AvenirNext-Medium, Avenir Next" font-size="12" font-weight="400" mask="url(#linux-b)">
      <tspan x="29" y="14">Linux</tspan>
    </text>
    <path fill="#4A4A4A" d="M11.0343588,4.0000998 C10.9444538,3.99997019 10.8506787,4.00370289 10.7528871,4.01150528 C8.28131484,4.2105556 8.93679188,6.8216441 8.90011029,7.6960144 C8.85497309,8.33543433 8.72532903,8.83934157 8.28556079,9.46445151 C7.76889886,10.0788545 7.04149728,11.0732728 6.69690911,12.108428 C6.53427857,12.5969767 6.45688977,13.0949388 6.52836068,13.5662277 C6.50597224,13.5862767 6.48465824,13.6072822 6.46439147,13.6289189 C6.31269983,13.7908625 6.20061633,13.9870822 6.07572758,14.1191927 C5.95904948,14.2355831 5.79280937,14.2798545 5.61012852,14.3453959 C5.42737508,14.410967 5.2267267,14.5076376 5.10493298,14.7413528 C5.10493298,14.7413528 5.10493298,14.7414448 5.10484096,14.7414448 C5.10471135,14.7418336 5.10432253,14.7422225 5.10419292,14.7426113 L5.10419292,14.7426113 C4.99393818,14.9485412 5.02671599,15.1856871 5.06038809,15.4054008 C5.09406148,15.625108 5.12814962,15.8327228 5.08290096,15.9735818 C4.93826646,16.3689127 4.91979865,16.6423683 5.02161852,16.8407239 C5.12365482,17.0394917 5.33344963,17.1272232 5.57056315,17.1767463 C6.0447915,17.2757926 6.68702133,17.2511826 7.19317207,17.5194474 L7.23667751,17.437359 L7.19362311,17.519691 C7.73548209,17.8029929 8.28482203,17.9036165 8.72309718,17.8035087 C9.04085525,17.7309323 9.29879934,17.5417257 9.43126885,17.2505851 C9.77407103,17.2489132 10.1502368,17.1037123 10.7528054,17.0705353 C11.1615883,17.0376072 11.6722326,17.2156973 12.2595968,17.1830841 C12.2749502,17.2468084 12.2971714,17.3080999 12.3275878,17.3663456 C12.3279766,17.3669936 12.3282358,17.3675121 12.328495,17.3681212 C12.5561886,17.8234333 12.9792595,18.0316884 13.4301235,17.9961072 C13.8815823,17.960478 14.3615743,17.6942792 14.7495733,17.2325334 L14.6784433,17.1727583 L14.7501177,17.2318788 C15.1199392,16.7834541 15.7337823,16.5975123 16.1408104,16.3520171 C16.3443244,16.2292681 16.5094602,16.0755702 16.5222201,15.8523312 C16.5349735,15.629201 16.4039763,15.3791526 16.1027549,15.0447827 L16.1026629,15.0446907 C16.1025709,15.0445611 16.1024037,15.0444315 16.1022741,15.0441723 C16.003303,14.9323272 15.9560882,14.7250352 15.905348,14.5042872 C15.8546429,14.2836741 15.7980445,14.0456935 15.6169228,13.891468 L15.6169228,13.891468 C15.616534,13.8910792 15.6161451,13.8908199 15.6158859,13.8905607 L15.6158859,13.8905607 C15.5438033,13.8277489 15.4688952,13.7851183 15.3934596,13.7564763 C15.6452758,13.0096556 15.5464745,12.2660038 15.2922812,11.5940005 C14.9803166,10.7692661 14.4356724,10.0506363 14.0197183,9.55903148 C13.5541257,8.97175794 13.0987345,8.4141892 13.107706,7.59067828 C13.121574,6.33382119 13.245956,4.00301856 11.0342668,4 L11.0343588,4.0000998 Z M11.3337787,5.93641007 C11.4592792,5.93641007 11.5664648,5.97319664 11.6765692,6.0531115 C11.788422,6.13429392 11.8690044,6.23592326 11.9339508,6.37784376 C11.9976932,6.51615599 12.0283623,6.65145873 12.0313705,6.81202331 C12.0313705,6.81623556 12.0313705,6.81983866 12.032537,6.82405091 C12.0337034,6.98882127 12.0054762,7.12893764 11.9429352,7.27206091 C11.9072477,7.35372806 11.8662658,7.42227242 11.8172131,7.48161464 C11.8005598,7.47361784 11.7832662,7.4659321 11.7653285,7.45855612 L11.7653285,7.45855612 C11.6409919,7.40530288 11.5456109,7.37141304 11.466116,7.34382862 C11.4949317,7.30919094 11.518926,7.26811046 11.5400261,7.21675468 C11.5718993,7.13918054 11.5875339,7.06340795 11.5905408,6.97320613 C11.5905408,6.96960303 11.5917072,6.96658317 11.5917072,6.96238388 C11.5935088,6.87579034 11.5820903,6.80182188 11.5568285,6.72605059 C11.5303678,6.64667231 11.4966931,6.5895451 11.4479826,6.54203737 C11.3992734,6.49452834 11.3505629,6.47288125 11.2922303,6.47107582 C11.2894956,6.47094621 11.2867739,6.47094621 11.284078,6.47094621 C11.2292099,6.47107582 11.1815661,6.48992597 11.1322736,6.53119438 C11.0805562,6.57449374 11.0420705,6.62981553 11.0101974,6.70678958 C10.9783255,6.78376234 10.9626896,6.86013372 10.9596853,6.95094081 C10.9590373,6.9545439 10.9590373,6.95756377 10.9590373,6.96116686 C10.9580004,7.01108011 10.9611629,7.05680443 10.9688616,7.10120676 C10.8565914,7.04526416 10.7507913,7.00712448 10.6514975,6.9834905 C10.6458336,6.94055404 10.6425675,6.89624503 10.6415177,6.84991674 L10.6415177,6.83729294 C10.6397161,6.67312267 10.6667744,6.53240621 10.7299167,6.38928424 C10.793059,6.24616097 10.8712358,6.14332758 10.9812832,6.05973964 C11.0913318,5.9761517 11.1995751,5.93766467 11.3276651,5.93646321 L11.333653,5.93646321 L11.3337787,5.93641007 Z M9.61604158,6.07241009 C9.69929772,6.0725397 9.77379497,6.10042222 9.85085197,6.1619574 C9.9344425,6.2287054 9.99758352,6.31409748 10.0505024,6.4343696 C10.1034225,6.55464172 10.1316861,6.67491255 10.1395027,6.81683306 L10.1395027,6.81799953 C10.1432873,6.87760484 10.1428207,6.93371205 10.1381289,6.9880501 C10.1216622,6.99272895 10.1055261,6.99779661 10.0897204,7.00323625 C9.99995016,7.03413604 9.92083628,7.0762469 9.85188365,7.1217794 C9.85863621,7.07415114 9.85963419,7.02582559 9.85446284,6.97194504 C9.85381481,6.96893814 9.85381481,6.96652744 9.85381481,6.9635335 C9.84659565,6.89197316 9.83156504,6.83183775 9.80630708,6.77109966 C9.77924627,6.70795864 9.74917857,6.66345781 9.70948878,6.62917915 C9.67352003,6.59811606 9.63953558,6.58385272 9.60214633,6.58413397 C9.59828402,6.58413397 9.59436986,6.58426358 9.59041682,6.5846524 C9.54832152,6.5882555 9.51344277,6.60870372 9.48036816,6.64899618 C9.44729356,6.68928605 9.42564517,6.7391993 9.41001058,6.80534592 C9.3943747,6.87149643 9.39016504,6.93644418 9.39677893,7.01101142 C9.39677893,7.01401832 9.39742697,7.01642902 9.39742697,7.01942296 C9.40464612,7.09158598 9.41907535,7.15172009 9.4449334,7.21245948 C9.47139412,7.27500041 9.50206191,7.31949994 9.5417517,7.35377601 C9.54840058,7.35951764 9.55497428,7.36467603 9.56152077,7.36928099 C9.5202381,7.40105304 9.50052476,7.41570131 9.46669454,7.44056008 C9.44499691,7.4564811 9.41915571,7.47543753 9.3891217,7.49757583 C9.32362053,7.43621692 9.27252137,7.359099 9.22784427,7.25756039 C9.17492412,7.13728956 9.14666056,7.01701744 9.13824124,6.87509693 L9.13824124,6.87393046 C9.13042589,6.73201255 9.14425504,6.60993499 9.18334344,6.48365166 C9.22243185,6.35736574 9.27475062,6.26596115 9.35052062,6.19078865 C9.42629191,6.11562132 9.50266329,6.07773568 9.59467185,6.07292593 C9.60186508,6.07253711 9.60898314,6.0724075 9.61603769,6.0724075 L9.61604158,6.07241009 Z M10.3972602,7.05699885 C10.5907646,7.0562212 10.8236218,7.11969142 11.1055252,7.300944 C11.278685,7.41354852 11.4134227,7.42295934 11.7236829,7.5558423 L11.7240718,7.55597191 L11.7244606,7.55610152 C11.8737402,7.61735026 11.961359,7.69718476 12.0041671,7.78125095 C12.0469753,7.86532103 12.0480212,7.95648584 12.0121898,8.05238781 C11.940531,8.24419824 11.7117979,8.44605716 11.3908191,8.54629062 L11.3905599,8.54642023 L11.3903007,8.54654984 C11.2337941,8.59739885 11.0973197,8.70968973 10.9364272,8.8016931 C10.7755399,8.89369259 10.5934825,8.96789433 10.3459342,8.95357397 C10.3459342,8.95357267 10.3459342,8.95357397 10.3459342,8.95357397 C10.135192,8.94128715 10.0092184,8.86974755 9.89531133,8.77820299 C9.78140294,8.68665713 9.68214024,8.57164968 9.53679031,8.48630037 L9.53640149,8.48604115 L9.53601267,8.48578194 C9.3018866,8.35345111 9.17406612,8.200396 9.13394992,8.06770875 C9.09383243,7.9350215 9.13148738,7.82176245 9.24764315,7.73470621 C9.37824242,7.6368329 9.46896397,7.57025598 9.52939619,7.5259055 C9.58943051,7.48185312 9.61440722,7.46533461 9.63352566,7.44697696 C9.63361769,7.44684735 9.63365527,7.44684735 9.63378488,7.44671775 L9.6338756,7.44658814 C9.73200554,7.35370343 9.88843045,7.18447586 10.1242246,7.10331029 C10.2053811,7.07537334 10.295938,7.05734879 10.3972978,7.0569483 L10.3972602,7.05699885 Z M11.750386,7.85727369 C11.6668823,7.86226358 11.5794282,7.90524541 11.4775967,7.96209656 C11.3757651,8.01894771 11.2612528,8.09167193 11.1371534,8.163288 C10.8889558,8.30652014 10.6032471,8.44350129 10.3193089,8.44350129 C10.0349313,8.44350129 9.80772758,8.31216326 9.6373154,8.17711974 C9.55210866,8.10959668 9.48178478,8.04158371 9.42559981,7.98897073 C9.39750862,7.96266165 9.37314625,7.9402408 9.35041175,7.92272691 C9.32768243,7.90521301 9.30918092,7.88784816 9.27114623,7.88784816 L9.26933172,7.96777209 C9.26660996,7.99451535 9.26381043,7.99369105 9.26491209,7.99441944 C9.26668772,7.99558591 9.27551401,7.99861873 9.28580875,8.00656369 C9.30252297,8.01943374 9.32572147,8.04042631 9.35325534,8.06621048 C9.40832309,8.11778012 9.48149575,8.18868205 9.57158481,8.2600739 C9.75176294,8.402855 10.0023388,8.54934418 10.3193141,8.54934418 C10.6367326,8.54934418 10.9370467,8.40098087 11.1900787,8.25496087 C11.3165927,8.18195022 11.4314978,8.10907048 11.5292065,8.05452245 C11.6269087,7.99997054 11.7091137,7.96576576 11.756707,7.96292735 L11.7503951,7.85727757 L11.750386,7.85727369 Z M12.0325357,8.23712295 C12.2433583,9.06817834 12.7337059,10.2685394 13.0488641,10.854338 C13.2163834,11.1651336 13.5496594,11.8254644 13.6936511,12.6210461 C13.7848885,12.6182466 13.8853526,12.6315055 13.9929374,12.6590251 C14.3694117,11.6830281 13.6736915,10.6317483 13.3555562,10.3389747 C13.2271149,10.2143439 13.2209417,10.1585037 13.2846154,10.1611425 C13.6297791,10.4663818 14.0829034,11.0803169 14.2477619,11.7732843 C14.3229344,12.0892655 14.3389617,12.4214502 14.258299,12.7492853 C14.2977607,12.765678 14.3378393,12.783503 14.378457,12.8027303 C14.9827701,13.0969996 15.2062645,13.3528907 15.0988067,13.7021331 C15.0634147,13.700837 15.0285994,13.7010962 14.9946409,13.7018739 C14.9914785,13.7019659 14.988329,13.7020035 14.9851666,13.7021331 C15.0726777,13.4252986 14.8788117,13.2211198 14.3622185,12.9873851 C13.8264096,12.7516532 13.3994466,12.775107 13.3272849,13.2531847 C13.3226709,13.2782314 13.3189511,13.3037538 13.3161257,13.3296326 C13.2760963,13.343533 13.2358466,13.3612815 13.1954971,13.3833602 C12.9438999,13.5210269 12.8065753,13.77082 12.7301974,14.077192 C12.6538831,14.3833178 12.6320027,14.753405 12.6109415,15.1694252 L12.6109415,15.1696844 C12.5980714,15.378874 12.5120676,15.6618077 12.4248402,15.9614855 C11.547104,16.5875883 10.3288882,16.8588495 9.29457802,16.1529771 C9.22448225,16.0420925 9.14407359,15.9322279 9.06130606,15.8238706 C9.00845331,15.7546691 8.95415932,15.6858979 8.90018157,15.6180871 C9.00635885,15.6180871 9.09660992,15.6007845 9.16955059,15.5677086 C9.26025788,15.5265789 9.32398991,15.4605178 9.35552089,15.3757051 C9.41858025,15.2060861 9.35526167,14.9668055 9.15337035,14.6935599 C8.95150884,14.4203338 8.60962817,14.1119723 8.10725549,13.8038752 C8.10725549,13.8038752 8.10716347,13.8038752 8.10716347,13.8037831 C7.73809109,13.5741687 7.53168553,13.2927319 7.43507331,12.9871609 C7.33845201,12.6815626 7.35199991,12.3511133 7.42646735,12.0248595 C7.56939751,11.3986258 7.93664242,10.7895639 8.17096419,10.4073428 C8.23405078,10.3609238 8.19350428,10.4935061 7.93374828,10.9758686 C7.70094939,11.4168837 7.26573169,12.4346494 7.86162285,13.2291127 C7.87754776,12.6637325 8.01256924,12.0871153 8.23923638,11.5477577 C8.56939792,10.7993584 9.25997145,9.50154006 9.31481886,8.46716119 C9.34309798,8.48769625 9.440274,8.55326352 9.48357466,8.5778877 C9.48366668,8.57801731 9.48370427,8.57801731 9.48383387,8.57801731 C9.61052028,8.65262084 9.70566794,8.76167411 9.82889901,8.8607113 C9.95237503,8.95994419 10.106629,9.0456551 10.3396755,9.05923411 L10.3396755,9.05923411 C10.6116898,9.07497497 10.8190039,8.99072344 10.9888587,8.89359668 C11.158457,8.79661896 11.2939438,8.68929206 11.422306,8.64739764 C11.4224356,8.64726804 11.4226948,8.64726804 11.4228244,8.64726804 C11.6940624,8.56244753 11.9097245,8.41232026 12.0324488,8.23721886 L12.0325357,8.23712295 Z M13.7553081,12.9949011 C13.8651701,12.9943826 13.9982552,13.0310201 14.1439344,13.0961908 C14.5360173,13.2771997 14.658695,13.4323506 14.5516532,13.6602633 C14.4614514,13.8322528 14.0753796,14.105869 13.8107828,14.0337073 C13.5407748,13.9639498 13.4090765,13.5748712 13.4529759,13.2808106 C13.4764894,13.0811213 13.589436,12.9956761 13.7553081,12.9949011 L13.7553081,12.9949011 Z M13.3116944,13.5322691 C13.3338586,13.8918685 13.5117725,14.2586183 13.8264174,14.3379927 C14.1707386,14.4287142 14.6671791,14.1332824 14.8767808,13.892313 C14.9185754,13.8906411 14.9594355,13.8885803 14.9991188,13.8876342 C15.1829791,13.8831886 15.337189,13.8936869 15.4947493,14.0314884 L15.4952678,14.0320069 L15.4957862,14.0325253 C15.6168671,14.1351073 15.6744207,14.3289668 15.7243391,14.5461389 C15.7742537,14.7633122 15.8141703,14.9998373 15.9638672,15.1683352 L15.9641265,15.1685944 L15.9642561,15.1688537 C16.2520514,15.4882176 16.3445564,15.7040858 16.336684,15.8418627 C16.3288038,15.9796488 16.2290486,16.0819326 16.0448384,16.1930376 C15.6765774,16.4151542 15.0240709,16.6082996 14.6072964,17.1131296 C14.2454056,17.543802 13.8041197,17.7803336 13.4154843,17.8110052 C13.0268489,17.8416769 12.6915484,17.6803736 12.493868,17.2836144 L12.4933496,17.2827071 L12.4928312,17.2817999 C12.3701963,17.0485137 12.4212825,16.6803563 12.5245903,16.2920229 C12.6278993,15.9036908 12.7763274,15.5049525 12.7961963,15.180867 L12.7961963,15.1803486 L12.7961963,15.1798301 C12.8172148,14.7645876 12.8404574,14.401958 12.9102097,14.1221594 C12.9799633,13.8423609 13.0897955,13.652864 13.2844042,13.5463795 C13.2934637,13.5414285 13.3024624,13.5367497 13.3114079,13.5323223 L13.3116944,13.5322691 Z M6.99200656,13.5594051 C7.02105295,13.5594971 7.05179203,13.5619454 7.08454002,13.5669094 C7.30482787,13.6002795 7.49692732,13.7543015 7.68200592,14.0053349 C7.86708582,14.2563722 8.03929955,14.5990525 8.2163308,14.9791766 L8.21659002,14.979695 L8.21671962,14.9802134 C8.358981,15.2771345 8.65917852,15.6036216 8.91357783,15.9366864 C9.16797585,16.2697511 9.36486431,16.6040718 9.3392253,16.8599564 L9.33913328,16.8611229 L9.33904126,16.8622893 C9.30587463,17.2987111 9.05969245,17.5362938 8.68177693,17.6226126 C8.30397417,17.7089015 7.79180703,17.623131 7.28024257,17.3555337 L7.27972414,17.3555337 C6.71374904,17.0557704 6.04045353,17.0855426 5.60855378,16.9953395 C5.39254558,16.950223 5.25159973,16.8823928 5.1869099,16.7563687 C5.12221618,16.630351 5.12077105,16.4104909 5.25824472,16.0356134 L5.25889276,16.0339414 L5.25941119,16.0322695 C5.32739694,15.8225615 5.27708321,15.5931052 5.244076,15.3777334 C5.21106878,15.1623616 5.19492614,14.9664633 5.26846818,14.829919 L5.268857,14.8292709 L5.26924582,14.8286229 C5.36340328,14.6471241 5.50151461,14.5822437 5.67292478,14.5207487 C5.84433494,14.4592485 6.04758973,14.4109515 6.2080934,14.2500992 L6.20887105,14.2493215 L6.2096487,14.2485439 C6.35802886,14.0920127 6.46948506,13.8958021 6.5999288,13.7565411 C6.70999042,13.63904 6.82013369,13.5611639 6.98614958,13.5600104 L6.99194305,13.5600104 L6.99200656,13.5594051 Z" mask="url(#linux-b)"/>
  </g>
</svg>
