<?xml version="1.0" encoding="UTF-8" standalone="no"?>
<svg width="12px" height="12px" viewBox="0 0 25 25" version="1.1" xmlns="http://www.w3.org/2000/svg" xmlns:xlink="http://www.w3.org/1999/xlink" xmlns:sketch="http://www.bohemiancoding.com/sketch/ns">
    <!-- Generator: Sketch 3.5.1 (25234) - http://www.bohemiancoding.com/sketch -->
    <title>min-tuijian</title>
    <desc>Created with Sketch.</desc>
    <defs></defs>
    <g id="Page-1" stroke="none" stroke-width="1" fill="none" fill-rule="evenodd" sketch:type="MSPage">
        <g id="min-tuijian" sketch:type="MSLayerGroup" transform="translate(1.000000, 1.000000)">
            <circle id="Oval-14" stroke="#D0011B" stroke-width="2" sketch:type="MSShapeGroup" cx="11.5" cy="11.5" r="10.8191231"></circle>
            <path d="M4.58581821,5.41866284 L4.58581821,6.4557901 L8.15290745,6.4557901 L8.15290745,7.58720167 L9.31574712,7.58720167 L9.31574712,6.4557901 L13.4642562,6.4557901 L13.4642562,7.60291572 L14.6270959,7.60291572 L14.6270959,6.4557901 L18.1941851,6.4557901 L18.1941851,5.41866284 L14.6270959,5.41866284 L14.6270959,4.28725127 L13.4642562,4.28725127 L13.4642562,5.41866284 L9.31574712,5.41866284 L9.31574712,4.28725127 L8.15290745,4.28725127 L8.15290745,5.41866284 L4.58581821,5.41866284 Z M4.79010085,8.65575704 L4.79010085,9.69288431 L8.62432894,9.69288431 C7.60291572,11.2800033 6.15722316,12.6942678 4.28725127,13.9199636 L4.9943835,14.8313785 C5.78008597,14.2971008 6.50293225,13.7471091 7.16292233,13.1499752 L7.16292233,18.7127487 L8.24719175,18.7127487 L8.24719175,12.0499917 C8.89146778,11.3114314 9.45717356,10.5257289 9.92859505,9.69288431 L18.1156148,9.69288431 L18.1156148,8.65575704 L10.4471587,8.65575704 C10.5728711,8.325762 10.7142975,7.99576696 10.8400099,7.65005787 L9.74002645,7.46148927 C9.58288596,7.85434051 9.41003141,8.24719175 9.22146282,8.65575704 L4.79010085,8.65575704 Z M13.6842529,13.2128314 L13.6842529,14.1871025 L9.34717522,14.1871025 L9.34717522,15.2556578 L13.6842529,15.2556578 L13.6842529,17.0627735 C13.6842529,17.4399107 13.4799702,17.6284793 13.1028331,17.6284793 C12.6942678,17.6284793 12.1128479,17.5970512 11.3900017,17.5499091 L11.7199967,18.6498925 L13.5585405,18.6498925 C14.3913851,18.6498925 14.8156644,18.2256132 14.8156644,17.3770545 L14.8156644,15.2556578 L18.2727553,15.2556578 L18.2727553,14.1871025 L14.8156644,14.1871025 L14.8156644,13.5271124 C15.7113653,12.8985504 16.5284958,12.2857025 17.2513421,11.7199967 L17.2513421,10.9028661 L10.4785868,10.9028661 L10.4785868,11.9399934 L15.6485091,11.9399934 C14.8942347,12.442843 14.2499587,12.8671223 13.6842529,13.2128314 L13.6842529,13.2128314 Z" id="è" fill="#D0011B" sketch:type="MSShapeGroup"></path>
        </g>
    </g>
</svg>