<svg xmlns="http://www.w3.org/2000/svg" width="13" height="13" viewBox="0 0 13 13"><path fill="#3A934A" fill-rule="evenodd" d="M7.8722296,0 C9.65526708,0 10.3018396,0.185651222 10.9536914,0.534265408 C11.6055433,0.882879593 12.1171204,1.39445674 12.4657346,2.04630859 C12.8143488,2.69816044 13,3.34473292 13,5.1277704 L13,7.8722296 C13,9.65526708 12.8143488,10.3018396 12.4657346,10.9536914 C12.1171204,11.6055433 11.6055433,12.1171204 10.9536914,12.4657346 C10.3018396,12.8143488 9.65526708,13 7.8722296,13 L5.1277704,13 C3.34473292,13 2.69816044,12.8143488 2.04630859,12.4657346 C1.39445674,12.1171204 0.882879593,11.6055433 0.534265408,10.9536914 C0.185651222,10.3018396 0,9.65526708 0,7.8722296 L0,5.1277704 C0,3.34473292 0.185651222,2.69816044 0.534265408,2.04630859 C0.882879593,1.39445674 1.39445674,0.882879593 2.04630859,0.534265408 C2.69816044,0.185651222 3.34473292,1.31724187e-16 5.1277704,-2.26708535e-16 L7.8722296,0 Z M6.5,2 C4.33116993,2 2.47096539,3.60043456 2.07576704,5.80640686 C1.6805687,8.01237917 2.86285036,10.1960674 4.88765649,11 L5.94005442,8.16331326 C5.2370356,7.88412589 4.82657391,7.1259031 4.96381815,6.35996694 C5.1010624,5.59403076 5.746955,5.03835457 6.5,5.03835457 C7.25304498,5.03835457 7.89893761,5.59403076 8.03618184,6.35996694 C8.17342607,7.1259031 7.76296438,7.88412589 7.05994559,8.16331326 L8.1123435,11 C10.1371496,10.1960674 11.3194313,8.01237917 10.924233,5.80640686 C10.5290346,3.60043456 8.66883007,2 6.5,2 Z"/></svg>