<svg xmlns="http://www.w3.org/2000/svg" width="13" height="13" viewBox="0 0 13 13"><path fill="#F60" fill-rule="evenodd" d="M7.8722296,0 C9.65526708,0 10.3018396,0.185651222 10.9536914,0.534265408 C11.6055433,0.882879593 12.1171204,1.39445674 12.4657346,2.04630859 C12.8143488,2.69816044 13,3.34473292 13,5.1277704 L13,7.8722296 C13,9.65526708 12.8143488,10.3018396 12.4657346,10.9536914 C12.1171204,11.6055433 11.6055433,12.1171204 10.9536914,12.4657346 C10.3018396,12.8143488 9.65526708,13 7.8722296,13 L5.1277704,13 C3.34473292,13 2.69816044,12.8143488 2.04630859,12.4657346 C1.39445674,12.1171204 0.882879593,11.6055433 0.534265408,10.9536914 C0.185651222,10.3018396 0,9.65526708 0,7.8722296 L0,5.1277704 C0,3.34473292 0.185651222,2.69816044 0.534265408,2.04630859 C0.882879593,1.39445674 1.39445674,0.882879593 2.04630859,0.534265408 C2.69816044,0.185651222 3.34473292,1.31724187e-16 5.1277704,-2.26708535e-16 L7.8722296,0 Z M6.77515346,2.55196416 L6.11088068,2.55196416 L6.10942259,3.70848678 C5.54326434,3.73241425 5.10454711,3.88307085 4.79448941,4.15986854 C4.45516742,4.46279151 4.30506732,4.88518771 4.30506732,5.38928819 C4.30506732,5.89338887 4.36095556,6.08223384 4.70746333,6.37205313 C4.76518683,6.41995637 4.84141262,6.47163057 4.93511857,6.52573263 L1.77964809,7.89391654 L2.20142923,8.78371946 L6.22219711,7.04174792 C6.37904719,7.08861938 6.54578802,7.13439307 6.72183866,7.17830563 C6.92383502,7.22917827 7.09788716,7.40183657 7.16655008,7.46966662 C7.23201917,7.53826741 7.26395536,7.63153368 7.26395536,7.7510071 C7.26395536,7.92443615 7.22403522,8.18111137 7.061959,8.26975276 C6.6204412,8.5102411 5.3350094,8.46938897 4.91345167,7.90054162 L4.09269155,8.63048528 C4.37333087,9.10988377 5.30209648,9.39606455 6.11041911,9.45740863 L6.11088068,10.0995985 L6.77515346,10.0995985 L6.77650182,9.44475266 C7.26789029,9.37113741 7.63635885,9.14350443 7.9465915,8.86480726 C8.32902745,8.52411553 8.5206446,8.09169903 8.5206446,7.56678681 C8.5206446,7.13128713 8.39769016,6.78211659 8.15258004,6.52004596 C8.08504564,6.4489957 8.0010211,6.38077815 7.90053824,6.31542405 L11.1622246,4.90267867 L10.7404433,4.01287576 L6.58539414,5.81112622 C6.06226253,5.66750589 5.79139787,5.55818004 5.68231553,5.48255446 C5.56255491,5.40470411 5.50347286,5.30604223 5.50347286,5.1865688 C5.50347286,5.05399189 5.56814359,4.94685139 5.69828362,4.86514692 C5.82842366,4.77958852 5.98810461,4.73719488 6.29469205,4.73719488 C6.78251743,4.73719488 7.0779271,4.76648503 7.47633114,5.08867786 L8.18212097,4.34794276 C7.86535606,3.9844315 7.29894025,3.80492322 6.77525592,3.73763747 L6.77515346,2.55196416 Z"/></svg>