<svg xmlns="http://www.w3.org/2000/svg" width="12" height="12" viewBox="0 0 21 21">
  <path fill="#26ABF5" fill-rule="evenodd" d="M10.5,21 C16.2989899,21 21,16.2989899 21,10.5 C21,4.70101013 16.2989899,0 10.5,0 C4.70101013,0 0,4.70101013 0,10.5 C0,16.2989899 4.70101013,21 10.5,21 Z M2.66888543,11.5099936 L2.66888543,9.67312277 C2.66888543,9.5048035 2.83256448,9.36715138 3.03313257,9.36715138 L6.87709341,9.36715138 L5.2034876,11.8160895 L3.03311414,11.8160895 C2.83256448,11.8160895 2.66888543,11.6789041 2.66888543,11.5099936 L2.66888543,11.5099936 Z M5.40401845,15.22601 L4.17728243,15.9278071 C4.01222143,16.022687 3.89549208,15.9624574 3.91837731,15.7953051 L4.08205635,14.594416 C4.10484944,14.4272792 4.26548817,14.3588032 4.43915417,14.4425272 L5.38854055,14.9004963 C5.56196698,14.9845315 5.56909789,15.1317058 5.40401845,15.22601 L5.40401845,15.22601 Z M5.67075077,14.5915518 L4.72138283,14.1335827 C4.54779053,14.0495631 4.48663431,13.8618415 4.58760934,13.7158496 L8.98376354,7.28106815 C9.08343031,7.13478068 9.30833929,7.0834976 9.48176575,7.16826405 L10.4311521,7.6253307 C10.6047444,7.71008159 10.664574,7.89795876 10.5649072,8.04365497 L6.16882666,14.4790433 C6.06925203,14.6250351 5.84425092,14.6749957 5.67075077,14.5915518 L5.67075077,14.5915518 Z M9.10978657,11.8160739 L10.7832818,9.36715138 L11.74693,9.36715138 L13.1059654,11.8160739 L9.10978657,11.8160739 L9.10978657,11.8160739 Z M14.4769745,12.4572057 C14.0968994,12.2971173 12.2040414,8.62555388 11.7191033,7.66759034 C11.2336124,6.70965793 9.76763192,4.15967848 10.2417908,3.96139222 C10.5792279,3.81905678 11.7902281,5.82704754 12.6980452,7.0323399 C13.6046461,8.23794344 15.5004523,11.3461865 15.7337083,11.7001735 C15.9657481,12.0550319 15.5103655,12.3508587 15.2570988,12.439266 C15.0036662,12.5280156 14.856847,12.6161428 14.4769745,12.4572057 L14.4769745,12.4572057 Z M15.7673444,14.1938083 L15.1954351,13.4341466 C15.0771396,13.276392 15.1385538,13.0813265 15.3304063,12.9979137 L15.8755425,12.762301 C16.0677635,12.6797595 16.3083163,12.7464306 16.4105996,12.9118403 L16.8617995,13.6412394 C16.9644144,13.8063068 16.8944874,14.0181295 16.7094156,14.1112357 L16.3196115,14.3071881 C16.1345582,14.401788 15.88564,14.3503649 15.7673444,14.1938083 L15.7673444,14.1938083 Z M17.8099937,16.2356365 C17.6905004,15.9139659 16.7781689,15.8925098 16.3697544,15.40781 C15.9599395,14.9248685 16.2986113,14.6760771 16.4408792,14.5612036 C18.097533,13.7768495 17.8099937,16.2356365 17.8099937,16.2356365 L17.8099937,16.2356365 Z M18.6946277,11.509978 C18.6946277,11.6788886 18.5309486,11.8160739 18.3303805,11.8160739 L16.406235,11.8160739 C16.3850266,11.7218008 16.3505698,11.6272009 16.2924723,11.5387625 C16.2423717,11.4632694 16.1157476,11.2602998 15.9393729,10.9768114 C15.6847242,10.567916 15.3189109,9.98301507 14.9273747,9.36715138 L18.3302331,9.36715138 C18.5307828,9.36715138 18.6944618,9.50478794 18.6944618,9.67312277 L18.6944618,11.5099936 L18.6946277,11.5099936 L18.6946277,11.509978 Z"/>
</svg>
