<?xml version="1.0" encoding="UTF-8" standalone="no"?>
<svg width="14px" height="14px" viewBox="0 0 25 25" version="1.1" xmlns="http://www.w3.org/2000/svg" xmlns:xlink="http://www.w3.org/1999/xlink" xmlns:sketch="http://www.bohemiancoding.com/sketch/ns">
    <!-- Generator: Sketch 3.5.1 (25234) - http://www.bohemiancoding.com/sketch -->
    <title>min-oss</title>
    <desc>Created with Sketch.</desc>
    <defs></defs>
    <g id="Page-1" stroke="none" stroke-width="1" fill="none" fill-rule="evenodd" sketch:type="MSPage">
        <g id="min-oss" sketch:type="MSLayerGroup" transform="translate(1.000000, 1.000000)" stroke="#21552A" stroke-width="0.5" fill="#3FA652">
            <path d="M12.9309721,15.7506894 C14.7275756,15.0372106 15.7765333,13.0995302 15.425798,11.1421377 C15.0750628,9.18474528 13.4244483,7.76468391 11.5,7.76468391 C9.57555168,7.76468391 7.92493725,9.18474528 7.57420193,11.1421377 C7.22346667,13.0995302 8.27242431,15.0372106 10.069028,15.7506894 L7.37956659,23 C2.20506204,20.9455056 -0.81632443,15.364969 0.193626885,9.7274842 C1.20357822,4.08999943 5.95743426,0 11.5,0 C17.0425657,0 21.7964217,4.08999943 22.8063731,9.7274842 C23.8163244,15.364969 20.7949378,20.9455056 15.6204334,23 L12.9309721,15.7506894 L12.9309721,15.7506894 L12.9309721,15.7506894 Z" id="oss-logo" sketch:type="MSShapeGroup"></path>
        </g>
    </g>
</svg>