<svg xmlns="http://www.w3.org/2000/svg" width="13" height="13" viewBox="0 0 13 13"><path fill="#9013FE" d="M6.5,0 C2.91605888,0 0,2.91578445 0,6.5 C0,10.08449 2.9160589,13 6.5,13 C10.08449,13 13,10.08449 13,6.5 C13,2.91578445 10.0845045,0 6.5,0 Z M4.26590667,9.5123889 C4.26590667,9.62167557 4.17676999,9.71055223 4.06774333,9.71055223 L2.74301444,9.71055223 C2.43198222,9.71055223 2.17917556,9.45774557 2.17917556,9.14697334 L2.17917556,5.76395444 C2.17917556,5.45318222 2.43196778,5.20066444 2.74301444,5.20066444 L4.06774333,5.20066444 C4.17675555,5.20066444 4.26590667,5.28897777 4.26590667,5.39882778 L4.26590667,9.5123889 Z M10.3204689,6.76163222 C10.4333522,6.89660111 10.5172456,7.08481222 10.5081456,7.33568333 C10.4970956,7.65471778 10.2970111,7.84734888 10.0720822,7.95663555 C10.0897478,7.97844666 10.1068644,8.00216444 10.1225944,8.02784667 C10.22775,8.19979334 10.2514822,8.40484667 10.1932567,8.63805222 C10.1162533,8.94522778 9.90153667,9.09176667 9.68488444,9.16794667 C9.76243666,9.28607333 9.81073889,9.42764333 9.81073889,9.57005111 C9.81073889,9.76682777 9.71884333,9.93988667 9.55241444,10.0571756 C9.38048222,10.1783355 9.13043445,10.2398833 8.8097389,10.2398833 L6.52124779,10.2398833 C6.50109779,10.2398833 6.48096223,10.2368356 6.46192445,10.2304945 L4.72736333,9.6829489 C4.64511667,9.65673223 4.58937556,9.58055223 4.58937556,9.49417445 L4.58937556,5.38668001 C4.58937556,5.29560778 4.65119778,5.2164089 4.73896222,5.1940489 L5.03095667,5.12119113 C5.0773089,5.10876891 6.22073111,4.78999446 6.26847,3.55359336 C6.31870778,2.26805225 6.64684222,1.99014113 7.15989445,1.95923002 L7.18419,1.95784336 C7.20185555,1.9564567 7.22060445,1.95563336 7.23883333,1.95563336 C7.40194001,1.95563336 7.71490778,2.00448448 7.97902445,2.32848781 C8.39824556,2.84236336 8.48601,3.77907114 8.24065667,5.11538448 L10.0265533,5.11538448 C10.0643544,5.11538448 10.4016322,5.12200003 10.6287567,5.36624115 C10.7722767,5.52024782 10.83602,5.72612448 10.81808,5.97754449 C10.7888156,6.39237445 10.5616767,6.63303333 10.3204689,6.76163222 Z"/></svg>