<svg xmlns="http://www.w3.org/2000/svg" width="16" height="16" viewBox="0 0 16 16"><path fill="#3A934A" fill-rule="evenodd" d="M8,0 C12.418278,0 16,3.581722 16,8 C16,12.418278 12.418278,16 8,16 C3.581722,16 0,12.418278 0,8 C0,3.581722 3.581722,0 8,0 Z M8,3.1936955 C5.68354272,3.1936955 3.69671841,4.90306791 3.27461983,7.25919559 C2.85252126,9.61532329 4.11527808,11.9476501 6.27790803,12.8063045 L7.40194023,9.77653111 C6.65106856,9.47834011 6.21266771,8.66850687 6.35925383,7.85043521 C6.50583998,7.03236355 7.19569699,6.43886378 8,6.43886378 C8.80430299,6.43886378 9.49416002,7.03236355 9.64074615,7.85043521 C9.78733228,8.66850687 9.34893142,9.47834011 8.59805977,9.77653111 L9.72209196,12.8063045 C11.8847219,11.9476501 13.1474787,9.61532329 12.7253802,7.25919559 C12.3032815,4.90306791 10.3164573,3.1936955 8,3.1936955 Z"/></svg>