<?xml version="1.0" encoding="UTF-8"?>
<svg width="12px" height="12px" viewBox="0 0 22 22" version="1.1" xmlns="http://www.w3.org/2000/svg" xmlns:xlink="http://www.w3.org/1999/xlink">
    <!-- Generator: https://jaywcjlove.github.io/sb/-->
    <title>min-app-store</title>
    <desc>Created with Sketch.</desc>
    <defs></defs>
    <g id="Page-1" stroke="none" stroke-width="1" fill="none" fill-rule="evenodd">
        <g id="min-new" transform="translate(0.000000, -1.000000)" fill="#26ABF5">
            <g id="min-app-store" transform="translate(0.000000, 1.000000)">
                <path d="M10.8191231,21.6382462 C16.7943598,21.6382462 21.6382462,16.7943598 21.6382462,10.8191231 C21.6382462,4.8438864 16.7943598,0 10.8191231,0 C4.8438864,0 0,4.8438864 0,10.8191231 C0,16.7943598 4.8438864,21.6382462 10.8191231,21.6382462 Z M2.75,11.8598131 L2.75,9.96711485 C2.75,9.79367991 2.91865369,9.65184417 3.12531759,9.65184417 L7.08610668,9.65184417 L5.36163551,12.1752121 L3.12529859,12.1752121 C2.91865369,12.1752121 2.75,12.0338573 2.75,11.8598131 L2.75,11.8598131 Z M5.56826103,15.6887692 L4.30424122,16.4118958 C4.13416357,16.5096594 4.01388651,16.4475992 4.03746728,16.2753667 L4.20612097,15.0379793 C4.2296068,14.8657628 4.39512777,14.7952057 4.57407194,14.8814743 L5.55231271,15.3533623 C5.73101004,15.4399515 5.73835768,15.5915988 5.56826103,15.6887692 L5.56826103,15.6887692 Z M5.84310006,15.0350281 L4.86487828,14.5631401 C4.68601006,14.4765669 4.62299513,14.2831399 4.72703906,14.132711 L9.25680415,7.50235929 C9.35950006,7.35162575 9.59124463,7.29878405 9.76994198,7.38612677 L10.7481827,7.8570849 C10.927051,7.9444116 10.9886989,8.13799886 10.886003,8.28812317 L6.35631381,14.9191001 C6.25371284,15.0695291 6.02187334,15.1210081 5.84310006,15.0350281 L5.84310006,15.0350281 Z M9.38665736,12.175196 L11.1110146,9.65184417 L12.1039506,9.65184417 L13.5042908,12.175196 L9.38665736,12.175196 L9.38665736,12.175196 Z M14.9169685,12.8358135 C14.5253419,12.6708596 12.5749549,8.88770755 12.0752782,7.90062893 C11.575032,6.91358238 10.0644964,4.28610224 10.5530662,4.08178953 C10.900759,3.93512814 12.1485646,6.00414711 13.0839727,7.24607153 C14.0181277,8.48831658 15.9715525,11.6910275 16.2118978,12.0557731 C16.4509899,12.4214166 15.981767,12.7262343 15.7208028,12.8173286 C15.4596677,12.9087755 15.3083863,12.9995811 14.9169685,12.8358135 L14.9169685,12.8358135 Z M16.2465562,14.6251961 L15.6572651,13.8424463 C15.5353742,13.6798971 15.5986549,13.478903 15.7963384,13.3929551 L16.3580427,13.1501814 C16.5561059,13.0651313 16.8039697,13.1338287 16.9093616,13.3042657 L17.3742747,14.0558331 C17.4800084,14.2259174 17.407956,14.444178 17.2172595,14.5401139 L16.8156081,14.7420218 C16.6249305,14.8394968 16.3684471,14.7865108 16.2465562,14.6251961 L16.2465562,14.6251961 Z M18.351287,16.729081 C18.2281621,16.3976339 17.2881024,16.3755257 16.8672751,15.8760946 C16.4450048,15.3784751 16.7939697,15.1221223 16.9405615,15.0037575 C18.6475654,14.1955648 18.351287,16.729081 18.351287,16.729081 L18.351287,16.729081 Z M19.2628074,11.8597971 C19.2628074,12.0338412 19.0941537,12.175196 18.8874898,12.175196 L16.9048644,12.175196 C16.8830114,12.0780577 16.8475074,11.9805827 16.7876441,11.8894564 C16.7360209,11.8116688 16.6055483,11.6025304 16.4238131,11.3104261 C16.161425,10.8891032 15.7844936,10.2864256 15.3810575,9.65184417 L18.8873379,9.65184417 C19.0939829,9.65184417 19.2626365,9.79366388 19.2626365,9.96711485 L19.2626365,11.8598131 L19.2628074,11.8598131 L19.2628074,11.8597971 Z" id="Oval-14"></path>
            </g>
        </g>
    </g>
</svg>