<svg xmlns="http://www.w3.org/2000/svg" width="16" height="16" viewBox="0 0 16 16"><path fill="#D0021B" fill-rule="evenodd" d="M8,0 C12.418278,0 16,3.581722 16,8 C16,12.418278 12.418278,16 8,16 C3.581722,16 0,12.418278 0,8 C0,3.581722 3.581722,0 8,0 Z M6.54045456,2.21829438 C6.54045456,2.21829438 8.1176119,4.73009784 5.78106651,6.3072679 C5.78106651,6.3072679 5.39408594,6.56282398 5.21880247,6.09551998 C5.04358252,5.62821598 4.68578622,5.54789254 4.52517748,5.54789254 C4.36450521,5.54789254 5.08737799,6.35107606 4.70039742,7.30030795 C4.62033248,7.49670075 4.50744939,7.66183686 4.3861273,7.81886755 L4.26289514,7.97405387 C3.82805756,8.51375186 3.38939026,9.04869267 3.99214853,10.5714868 C3.99214853,10.5714868 5.10926935,13.3315407 8.52647114,13.3096366 C11.9436729,13.2877325 12.1187023,10.3968259 12.1189691,9.98003845 C12.1194392,9.21335752 11.3961217,8.55619697 11.1113051,8.40285571 C10.8265648,8.24951443 10.201803,7.95994605 10.8046607,6.82018423 C11.1551133,6.15758578 11.3303968,5.46756912 10.2132124,4.74468364 C10.2132124,4.74468364 9.97228024,4.56943829 10.0598966,5.33613194 C10.1355698,5.99865415 9.09602806,6.38757864 8.78938364,5.57707683 C8.75580966,5.48839325 8.78345023,5.34002614 8.82209206,5.17848831 L8.88202911,4.93211763 C8.90057401,4.85057745 8.91559256,4.77155871 8.92080812,4.70087549 C9.07412398,2.61989885 6.54045456,2.21829438 6.54045456,2.21829438 Z M7.67837411,6.82964974 C7.93898694,7.09361679 8.78402198,8.05756151 8.11033173,8.85850887 C7.32175941,9.79606451 8.06652357,10.2866956 8.67987595,10.3085997 C9.17289565,10.3262093 9.22712223,9.55116825 9.2294219,9.24642963 C9.2296887,9.21345916 9.27381451,9.20465433 9.28897203,9.23395294 C9.7345117,10.0952255 9.00043277,10.6818457 9.33697297,10.7028985 C9.5659748,10.7172175 9.67344963,10.5912563 9.72040873,10.502217 C9.73372398,10.4769587 9.77189095,10.4812277 9.77942523,10.5087857 C10.3095573,12.4484784 8.46445616,12.9309273 7.27795124,12.5210262 C6.07315056,12.1048359 5.35029049,9.78287632 6.64263126,8.85850887 C7.71450821,8.09187874 7.67142426,7.15348454 7.62551972,6.85549249 C7.62093307,6.8257873 7.65725777,6.80825388 7.67837411,6.82964974 Z"/></svg>