<svg xmlns="http://www.w3.org/2000/svg" width="16" height="16" viewBox="0 0 16 16"><path fill="#F60" fill-rule="evenodd" d="M8,0 C12.418278,0 16,3.581722 16,8 C16,12.418278 12.418278,16 8,16 C3.581722,16 0,12.418278 0,8 C0,3.581722 3.581722,0 8,0 Z M8.33865041,3.14087897 L7.52108391,3.14087897 L7.5212015,4.56421102 C6.82346695,4.5934016 6.28286852,4.77885257 5.90091004,5.1198382 C5.48328298,5.49266648 5.2985444,6.01253872 5.2985444,6.63297008 C5.2985444,7.25340168 5.36732991,7.48582626 5.79380103,7.84252693 C5.86514946,7.90173714 5.95946531,7.96562837 6.07547437,8.03252623 L2.19033611,9.71558959 L2.70945136,10.8107316 L7.65780599,8.66668217 C7.85093461,8.7243996 8.05624869,8.78076508 8.2730322,8.8348377 C8.52164311,8.89745018 8.73586113,9.1099527 8.82036933,9.19343584 C8.90094667,9.27786758 8.94025275,9.39265683 8.94025275,9.53970105 C8.94025275,9.75315219 8.89112027,10.0690601 8.69164185,10.1781572 C8.14823533,10.4741429 6.56616541,10.4238633 6.04732513,9.72374354 L5.03715883,10.6221357 C5.38265123,11.2123186 6.52625399,11.564571 7.52129482,11.6399466 L7.52108391,12.4302751 L8.33865041,12.4302751 L8.33900508,11.6245061 C8.94444353,11.5341105 9.39832095,11.2537906 9.78042031,10.910532 C10.2511107,10.4912191 10.4869472,9.95901419 10.4869472,9.31296839 C10.4869472,8.77696877 10.3356187,8.34722042 10.0339447,8.02467195 C9.95095859,7.93736559 9.84774195,7.8535345 9.72433372,7.77321629 L13.7381225,6.03406606 L13.2190071,4.93892401 L8.10738447,7.15278221 C7.46203441,6.97570995 7.12803297,6.84094697 6.99361911,6.74775933 C6.84622143,6.65194352 6.77350505,6.53051351 6.77350505,6.38346929 C6.77350505,6.22029771 6.85309981,6.08843248 7.01327215,5.98787313 C7.1734445,5.88257048 7.36997491,5.8303937 7.74731329,5.8303937 C8.34771376,5.8303937 8.71129489,5.86644312 9.20163832,6.26298813 L10.0703027,5.35131417 C9.68035273,4.90381758 8.98300528,4.68288552 8.33835246,4.60011472 L8.33865041,3.14087897 Z"/></svg>