<?xml version="1.0" encoding="UTF-8" standalone="no"?>
<svg width="12px" height="12px" viewBox="0 0 23 23" version="1.1" xmlns="http://www.w3.org/2000/svg" xmlns:xlink="http://www.w3.org/1999/xlink" xmlns:sketch="http://www.bohemiancoding.com/sketch/ns">
    <!-- Generator: Sketch 3.5.1 (25234) - http://www.bohemiancoding.com/sketch -->
    <title>min-free</title>
    <desc>Created with Sketch.</desc>
    <defs></defs>
    <g id="Page-1" stroke="none" stroke-width="1" fill="none" fill-rule="evenodd" sketch:type="MSPage">
        <g id="min-free" sketch:type="MSLayerGroup">
            <circle id="Oval-14" stroke="#FF6600" sketch:type="MSShapeGroup" cx="11.5" cy="11.5" r="10.8191231"></circle>
            <path d="M9.42338514,14.5364644 C10.1544623,15.5583108 12.3836941,15.6316953 13.1493866,15.1996952 C13.4304637,15.0404646 13.4996943,14.5793872 13.4996943,14.2678488 C13.4996943,14.0532332 13.4443097,13.8856948 13.3307714,13.762464 C13.2116942,13.6406178 12.9098482,13.3304639 12.5595404,13.2390791 C10.7803087,12.7793866 9.54938528,12.2061558 9.06615442,11.790771 C8.46523094,11.2701554 8.36830801,10.9309246 8.36830801,10.0253856 C8.36830801,9.11984703 8.62861579,8.36107752 9.21707746,7.8169232 C9.80553913,7.27276924 10.6612319,7 11.7813861,7 C12.8516941,7 14.3581562,7.28246164 15.0920028,8.15476948 L13.8680024,9.48538563 C13.1770789,8.906616 12.6647712,8.85400078 11.8187708,8.85400078 C11.2870783,8.85400078 11.0101551,8.93015438 10.7844627,9.08384684 C10.5587702,9.2306163 10.4466164,9.42307764 10.4466164,9.66123158 C10.4466164,9.87584713 10.5490781,10.053078 10.7567703,10.1929241 C10.963078,10.3410781 11.5030784,10.5612321 12.5803094,10.8547707 C13.7876945,11.1843091 14.6087719,11.5858479 15.0407721,12.0566173 C15.4658489,12.5273867 15.6790799,13.1546176 15.6790799,13.9369255 C15.6790799,14.8798492 15.3467721,15.6566186 14.683541,16.2686186 C14.0258484,16.880619 13.2172327,17.3555424 12.0527708,17.3555424 C10.5532317,17.3555424 8.55246183,16.8252344 8,15.8476954" id="dollar-s" fill="#FF6600" sketch:type="MSShapeGroup"></path>
            <path d="M2.46428571,15.0279514 L3.33280234,16.9258303 L21.7845514,8.64787888 L20.9160345,6.75 L2.46428571,15.0279514 Z" id="diagonal" fill="#FF6600" sketch:type="MSShapeGroup"></path>
            <path d="M11.5,4.92857143 L11.5,7.35441848 L12.6520004,7.35441848 L12.6520004,4.92857143 L11.5,4.92857143 Z M11.5,16.3045756 L11.5,18.4867303 L12.6520004,18.4867303 L12.6520004,16.3045756 L11.5,16.3045756 Z" id="dollar-ticks" fill="#FF6600" sketch:type="MSShapeGroup"></path>
        </g>
    </g>
</svg>