<svg xmlns="http://www.w3.org/2000/svg" width="13" height="13" viewBox="0 0 13 13"><g fill="none" fill-rule="evenodd"><circle cx="6.5" cy="6.5" r="6.5" fill="#CEABC6"/><path fill="#261120" d="M11.1380082,5.89630735 L8.75718016,3.71428571 L8.42260351,4.07795599 L10.4058187,5.89630735 L2.58933234,5.89630735 L4.57254756,4.07795599 L4.23797091,3.71428571 L1.85714286,5.89630735 L1.85714286,7.33644163 C1.85714286,7.98619918 2.48265573,8.51473331 3.2536367,8.51473331 L4.7228646,8.51473331 C5.49384558,8.51473331 6.11935845,7.98619918 6.11935845,7.33644163 L6.11935845,6.39089892 L6.88064155,6.39089892 L6.88064155,7.33644163 C6.88064155,7.98619918 7.50615442,8.51473331 8.2771354,8.51473331 L9.7463633,8.51473331 C10.5173443,8.51473331 11.1428571,7.98619918 11.1428571,7.33644163 L11.1380082,5.89630735 L11.1380082,5.89630735 Z"/></g></svg>