<svg xmlns="http://www.w3.org/2000/svg" width="13" height="13" viewBox="0 0 13 13"><path fill="#D0021B" fill-rule="evenodd" d="M7.8722296,0 C9.65526708,0 10.3018396,0.185651222 10.9536914,0.534265408 C11.6055433,0.882879593 12.1171204,1.39445674 12.4657346,2.04630859 C12.8143488,2.69816044 13,3.34473292 13,5.1277704 L13,7.8722296 C13,9.65526708 12.8143488,10.3018396 12.4657346,10.9536914 C12.1171204,11.6055433 11.6055433,12.1171204 10.9536914,12.4657346 C10.3018396,12.8143488 9.65526708,13 7.8722296,13 L5.1277704,13 C3.34473292,13 2.69816044,12.8143488 2.04630859,12.4657346 C1.39445674,12.1171204 0.882879593,11.6055433 0.534265408,10.9536914 C0.185651222,10.3018396 0,9.65526708 0,7.8722296 L0,5.1277704 C0,3.34473292 0.185651222,2.69816044 0.534265408,2.04630859 C0.882879593,1.39445674 1.39445674,0.882879593 2.04630859,0.534265408 C2.69816044,0.185651222 3.34473292,1.31724187e-16 5.1277704,-2.26708535e-16 L7.8722296,0 Z M5.31411933,1.80236419 L5.32651341,1.82297942 C5.45387396,2.0398354 6.48388654,3.91858395 4.69711654,5.12465516 C4.69711654,5.12465516 4.38269483,5.33229448 4.240277,4.95260998 C4.0979108,4.57292548 3.80720131,4.50766269 3.6767067,4.50766269 C3.54616048,4.50766269 4.13349461,5.1602493 3.81907291,5.93150021 C3.75618857,6.08575039 3.66838751,6.21626936 3.57356226,6.34004849 L3.34165622,6.63287748 C3.03889553,7.02926101 2.81078283,7.49582181 3.24362068,8.58933299 C3.24362068,8.58933299 4.15128135,10.8318768 6.9277578,10.8140797 C9.70423425,10.7962827 9.8464456,8.44742101 9.84666258,8.10878124 C9.84704434,7.48585299 9.2593489,6.95191004 9.02793543,6.82732026 C8.7965839,6.70273048 8.28896492,6.46745616 8.77878683,5.54139969 C9.06352956,5.00303845 9.20594738,4.44239991 8.29823509,3.85505546 C8.29823509,3.85505546 8.10247769,3.71266861 8.17366595,4.3356072 C8.23515048,4.8739065 7.3905228,5.18990765 7.14137421,4.53137492 C7.0868165,4.38726411 7.23120603,4.0491818 7.2481566,3.81946133 C7.37272573,2.12866782 5.31411933,1.80236419 5.31411933,1.80236419 Z M6.23867897,5.54909041 C6.45042689,5.76356364 7.13701786,6.54676873 6.58964453,7.19753845 C5.94892952,7.95930242 6.5540504,8.35794017 7.05239921,8.37573724 C7.45297772,8.39004508 7.49703681,7.7603242 7.49890529,7.51272408 C7.49912207,7.48593557 7.53497429,7.47878164 7.54728977,7.50258677 C7.90929075,8.2023707 7.31285162,8.67899965 7.58629054,8.69610506 C7.77235452,8.70773922 7.85967783,8.60539576 7.8978321,8.53305132 C7.90865073,8.51252895 7.9396614,8.51599752 7.945783,8.53838837 C8.37651534,10.1143887 6.87737063,10.5063784 5.91333539,10.1733338 C4.93443483,9.8351792 4.34711103,7.94858701 5.3971379,7.19753845 C6.26803792,6.57465148 6.23303221,5.81220619 6.19573477,5.57008765 C6.19200812,5.54595218 6.22152193,5.53170628 6.23867897,5.54909041 Z"/></svg>