<svg xmlns="http://www.w3.org/2000/svg" width="16" height="16" viewBox="0 0 16 16"><path fill="#9013FE" d="M8,0 C3.58899555,0 0,3.58865778 0,8 C0,12.41168 3.58899556,16 8,16 C12.41168,16 16,12.41168 16,8 C16,3.58865778 12.4116978,0 8,0 Z M5.25034667,11.7075556 C5.25034667,11.8420622 5.14063999,11.9514489 5.00645333,11.9514489 L3.37601777,11.9514489 C2.99320889,11.9514489 2.68206223,11.6403022 2.68206223,11.2578133 L2.68206223,7.09409778 C2.68206223,6.71160888 2.99319112,6.40081777 3.37601777,6.40081777 L5.00645333,6.40081777 C5.14062222,6.40081777 5.25034667,6.5095111 5.25034667,6.64471111 L5.25034667,11.7075556 Z M12.7021156,8.32200889 C12.8410489,8.48812444 12.9443022,8.71976889 12.9331022,9.02853333 C12.9195022,9.42119111 12.6732444,9.65827555 12.3964089,9.79278222 C12.4181511,9.81962666 12.4392178,9.84881777 12.4585778,9.88042667 C12.588,10.0920533 12.6172089,10.3444267 12.5455467,10.6314489 C12.4507733,11.0095111 12.1865067,11.1898667 11.9198578,11.2836267 C12.0153067,11.4290133 12.0747556,11.6032533 12.0747556,11.7785244 C12.0747556,12.0207111 11.9616533,12.2337067 11.7568178,12.3780622 C11.5452089,12.5271822 11.2374578,12.6029333 10.8427556,12.6029333 L8.02615112,12.6029333 C8.00135112,12.6029333 7.9765689,12.5991822 7.95313778,12.5913778 L5.81829333,11.9174756 C5.71706667,11.8852089 5.64846222,11.7914489 5.64846222,11.6851378 L5.64846222,6.62976001 C5.64846222,6.51767111 5.72455112,6.42019557 5.83256889,6.39267557 L6.19194667,6.30300447 C6.24899557,6.28771559 7.65628444,5.8953778 7.71504,4.37365337 C7.77687111,2.79144893 8.18072889,2.44940447 8.81217778,2.41136003 L8.84208001,2.40965337 C8.86382222,2.40794671 8.88689778,2.40693337 8.90933333,2.40693337 C9.11008001,2.40693337 9.49527111,2.46705782 9.82033778,2.86583115 C10.3363022,3.49829336 10.44432,4.65116448 10.1423467,6.29585782 L12.3403733,6.29585782 C12.3868978,6.29585782 12.8020089,6.30400004 13.0815467,6.60460449 C13.2581867,6.79415116 13.33664,7.04753783 13.31456,7.35697783 C13.2785422,7.86753779 12.9989867,8.16373333 12.7021156,8.32200889 Z"/></svg>