<svg xmlns="http://www.w3.org/2000/svg" width="16" height="16" viewBox="0 0 16 16"><g fill="none" fill-rule="evenodd"><circle cx="8" cy="8" r="8" fill="#CEABC6"/><path fill="#261120" d="M13.7083178,7.25699366 L10.7780679,4.57142857 L10.3662812,5.01902275 L12.8071615,7.25699366 L3.18687057,7.25699366 L5.62775084,5.01902275 L5.21596419,4.57142857 L2.28571429,7.25699366 L2.28571429,9.02946662 C2.28571429,9.82916822 3.05557628,10.4796718 4.00447594,10.4796718 L5.81275643,10.4796718 C6.7616561,10.4796718 7.53151809,9.82916822 7.53151809,9.02946662 L7.53151809,7.86572175 L8.46848191,7.86572175 L8.46848191,9.02946662 C8.46848191,9.82916822 9.2383439,10.4796718 10.1872436,10.4796718 L11.9955241,10.4796718 C12.9444237,10.4796718 13.7142857,9.82916822 13.7142857,9.02946662 L13.7083178,7.25699366 L13.7083178,7.25699366 Z"/></g></svg>