<?xml version="1.0" encoding="UTF-8" standalone="no"?>
<svg width="14px" height="14px" viewBox="0 0 23 23" version="1.1" xmlns="http://www.w3.org/2000/svg" xmlns:xlink="http://www.w3.org/1999/xlink" xmlns:sketch="http://www.bohemiancoding.com/sketch/ns">
    <!-- Generator: Sketch 3.5.1 (25234) - http://www.bohemiancoding.com/sketch -->
    <title>min-free</title>
    <desc>Created with Sketch.</desc>
    <defs></defs>
    <g id="Page-1" stroke="none" stroke-width="1" fill="none" fill-rule="evenodd" sketch:type="MSPage">
        <g id="min-free" sketch:type="MSLayerGroup" fill="#FF6600">
            <path d="M11.0547733,0.00123076969 C4.9292326,0.15630775 0,5.18107876 0,11.3440042 C0,17.6052375 5.08154052,22.6867776 11.3427734,22.6867776 C17.6040067,22.6867776 22.6855469,17.6052375 22.6855469,11.3440042 C22.6855469,5.08277129 17.6040067,0.00123076969 11.3427734,0.00123076969 C11.2444656,0.00123076969 11.1516966,-0.00153846211 11.0547733,0.00123076969 L11.0547733,0.00123076969 Z M11.0436964,1.95076995 C11.1447733,1.9480009 11.2416966,1.95076995 11.3427734,1.95076995 C16.5281599,1.95076995 20.7360077,6.15861776 20.7360077,11.3440042 C20.7360077,16.5293907 16.5281599,20.7372385 11.3427734,20.7372385 C6.15738699,20.7372385 1.94953918,16.5293907 1.94953918,11.3440042 C1.94953918,6.25969463 5.99815607,2.1113854 11.0436964,1.95076995 L11.0436964,1.95076995 Z" id="circle" sketch:type="MSShapeGroup"></path>
            <path d="M9.42338514,13.5364644 C10.1544623,14.5583108 12.3836941,14.6316953 13.1493866,14.1996952 C13.4304637,14.0404646 13.4996943,13.5793872 13.4996943,13.2678488 C13.4996943,13.0532332 13.4443097,12.8856948 13.3307714,12.762464 C13.2116942,12.6406178 12.9098482,12.3304639 12.5595404,12.2390791 C10.7803087,11.7793866 9.54938528,11.2061558 9.06615442,10.790771 C8.46523094,10.2701554 8.36830801,9.93092462 8.36830801,9.02538565 C8.36830801,8.11984703 8.62861579,7.36107752 9.21707746,6.8169232 C9.80553913,6.27276924 10.6612319,6 11.7813861,6 C12.8516941,6 14.3581562,6.28246164 15.0920028,7.15476948 L13.8680024,8.48538563 C13.1770789,7.906616 12.6647712,7.85400078 11.8187708,7.85400078 C11.2870783,7.85400078 11.0101551,7.93015438 10.7844627,8.08384684 C10.5587702,8.2306163 10.4466164,8.42307764 10.4466164,8.66123158 C10.4466164,8.87584713 10.5490781,9.05307797 10.7567703,9.19292408 C10.963078,9.34107807 11.5030784,9.56123209 12.5803094,9.85477066 C13.7876945,10.1843091 14.6087719,10.5858479 15.0407721,11.0566173 C15.4658489,11.5273867 15.6790799,12.1546176 15.6790799,12.9369255 C15.6790799,13.8798492 15.3467721,14.6566186 14.683541,15.2686186 C14.0258484,15.880619 13.2172327,16.3555424 12.0527708,16.3555424 C10.5532317,16.3555424 8.55246183,15.8252344 8,14.8476954" id="dollar-s" sketch:type="MSShapeGroup"></path>
            <path d="M2.46428571,14.0279514 L3.33280234,15.9258303 L21.7845514,7.64787888 L20.9160345,5.75 L2.46428571,14.0279514 Z" id="diagonal" sketch:type="MSShapeGroup"></path>
            <path d="M11.5,3.92857143 L11.5,6.35441848 L12.6520004,6.35441848 L12.6520004,3.92857143 L11.5,3.92857143 Z M11.5,15.3045756 L11.5,17.4867303 L12.6520004,17.4867303 L12.6520004,15.3045756 L11.5,15.3045756 Z" id="dollar-ticks" sketch:type="MSShapeGroup"></path>
        </g>
    </g>
</svg>