<svg xmlns="http://www.w3.org/2000/svg" width="21" height="21" viewBox="0 0 21 21"><path fill="#F60" fill-rule="evenodd" d="M10.5,0 C16.2989899,0 21,4.70101013 21,10.5 C21,16.2989899 16.2989899,21 10.5,21 C4.70101013,21 0,16.2989899 0,10.5 C0,4.70101013 4.70101013,0 10.5,0 Z M10.9444787,4.12240365 L9.87142263,4.12240365 L9.87167783,5.99052275 C8.95585246,6.02882173 8.24628333,6.27222756 7.74494442,6.71978764 C7.19680891,7.20912475 6.95433952,7.89145708 6.95433952,8.70577323 C6.95433952,9.52008971 7.04462051,9.82514697 7.60436385,10.2933166 C7.69795841,10.3709883 7.82166537,10.4547972 7.97381502,10.5425493 L2.87481615,12.7517113 L3.55615491,14.1890853 L10.0532549,11.3757328 C10.3060415,11.4512383 10.5747184,11.5249767 10.8583548,11.5957245 C11.1846566,11.6779034 11.4658177,11.9568129 11.5767347,12.0663845 C11.6824925,12.1772012 11.7340817,12.3278621 11.7340817,12.5208576 C11.7340817,12.8010122 11.6695954,13.2156414 11.4077799,13.3588314 C10.6945589,13.7473126 8.6180921,13.6813206 7.93711423,12.7624134 L6.61127096,13.9415531 C7.064727,14.7161635 8.56569023,15.1784938 9.87167577,15.2774281 L9.87142263,16.314736 L10.9444787,16.314736 L10.9454892,15.2570828 C11.7398545,15.1383517 12.3354109,14.7704971 12.8368017,14.3200733 C13.4545828,13.7697251 13.7641182,13.0712061 13.7641182,12.223271 C13.7641182,11.5197715 13.5654995,10.9557268 13.1695524,10.5323819 C13.0606249,10.4177837 12.9251408,10.3077474 12.7631512,10.2023225 L18.0312858,7.91971171 L17.3499469,6.48233777 L10.6393808,9.38759818 C9.79338139,9.1554019 9.35543484,8.97866773 9.17912508,8.85643412 C8.98566563,8.73067587 8.89022538,8.57129898 8.89022538,8.37830344 C8.89022538,8.16414074 8.9946935,7.99106763 9.2049197,7.85908349 C9.41514591,7.72087376 9.67309207,7.65239174 10.1683487,7.65239174 C10.9563743,7.65239174 11.4335745,7.69970659 12.0771503,8.22017192 L13.2172723,7.02359985 C12.7056071,6.43642597 11.7907099,6.14645059 10.9448024,6.0377424 L10.9444787,4.12240365 Z"/></svg>