<svg xmlns="http://www.w3.org/2000/svg" width="13" height="13" viewBox="0 0 13 13"><g fill="none" fill-rule="evenodd"><path fill="#CEABC6" d="M5.1277704,-2.26708535e-16 L7.8722296,0 C9.65526708,0 10.3018396,0.185651222 10.9536914,0.534265408 C11.6055433,0.882879593 12.1171204,1.39445674 12.4657346,2.04630859 C12.8143488,2.69816044 13,3.34473292 13,5.1277704 L13,7.8722296 C13,9.65526708 12.8143488,10.3018396 12.4657346,10.9536914 C12.1171204,11.6055433 11.6055433,12.1171204 10.9536914,12.4657346 C10.3018396,12.8143488 9.65526708,13 7.8722296,13 L5.1277704,13 C3.34473292,13 2.69816044,12.8143488 2.04630859,12.4657346 C1.39445674,12.1171204 0.882879593,11.6055433 0.534265408,10.9536914 C0.185651222,10.3018396 0,9.65526708 0,7.8722296 L0,5.1277704 C0,3.34473292 0.185651222,2.69816044 0.534265408,2.04630859 C0.882879593,1.39445674 1.39445674,0.882879593 2.04630859,0.534265408 C2.69816044,0.185651222 3.34473292,1.31724187e-16 5.1277704,-2.26708535e-16 Z"/><path fill="#261120" d="M11.1380082,5.89630735 L8.75718016,3.71428571 L8.42260351,4.07795599 L10.4058187,5.89630735 L2.58933234,5.89630735 L4.57254756,4.07795599 L4.23797091,3.71428571 L1.85714286,5.89630735 L1.85714286,7.33644163 C1.85714286,7.98619918 2.48265573,8.51473331 3.2536367,8.51473331 L4.7228646,8.51473331 C5.49384558,8.51473331 6.11935845,7.98619918 6.11935845,7.33644163 L6.11935845,6.39089892 L6.88064155,6.39089892 L6.88064155,7.33644163 C6.88064155,7.98619918 7.50615442,8.51473331 8.2771354,8.51473331 L9.7463633,8.51473331 C10.5173443,8.51473331 11.1428571,7.98619918 11.1428571,7.33644163 L11.1380082,5.89630735 L11.1380082,5.89630735 Z"/></g></svg>