<svg xmlns="http://www.w3.org/2000/svg" width="13" height="13" viewBox="0 0 13 13"><path fill="#3A934A" fill-rule="evenodd" d="M6.5,0 C10.0898509,0 13,2.91014913 13,6.5 C13,10.0898509 10.0898509,13 6.5,13 C2.91014913,13 0,10.0898509 0,6.5 C0,2.91014913 2.91014913,0 6.5,0 Z M6.5,2.5948776 C4.61787846,2.5948776 3.0035837,3.98374267 2.66062861,5.89809642 C2.31767352,7.81245017 3.34366344,9.70746571 5.10080028,10.4051224 L6.01407644,7.94343153 C5.40399321,7.70115134 5.04779251,7.04316183 5.16689374,6.37847861 C5.28599499,5.71379538 5.8465038,5.23157682 6.5,5.23157682 C7.15349618,5.23157682 7.71400502,5.71379538 7.83310625,6.37847861 C7.95220748,7.04316183 7.59600678,7.70115134 6.98592357,7.94343153 L7.89919972,10.4051224 C9.65633652,9.70746571 10.6823265,7.81245017 10.3393714,5.89809642 C9.99641626,3.98374267 8.38212153,2.5948776 6.5,2.5948776 Z"/></svg>