<?xml version="1.0" encoding="UTF-8" standalone="no"?>
<svg width="11px" height="12px" viewBox="0 0 11 14" version="1.1" xmlns="http://www.w3.org/2000/svg" xmlns:xlink="http://www.w3.org/1999/xlink" xmlns:sketch="http://www.bohemiancoding.com/sketch/ns">
    <!-- Generator: Sketch 3.5.1 (25234) - http://www.bohemiancoding.com/sketch -->
    <title>hot</title>
    <desc>Created with Sketch.</desc>
    <defs></defs>
    <g id="Page-1" stroke="none" stroke-width="1" fill="none" fill-rule="evenodd" sketch:type="MSPage">
        <g id="hot" sketch:type="MSLayerGroup" transform="translate(-1.000000, 0.000000)">
            <circle id="Oval-14" sketch:type="MSShapeGroup" cx="6" cy="7" r="6"></circle>
            <path d="M10.0695652,7.74874911 C9.73582912,7.56902215 9.0035635,7.22962725 9.71015597,5.89374471 C10.1209115,5.11713184 10.3263563,4.30838286 9.01693617,3.46110927 C9.01693617,3.46110927 8.73454639,3.25570916 8.83723899,4.15432907 C8.92593349,4.93085258 7.70751604,5.38669996 7.3481068,4.43673375 C7.26940459,4.22884673 7.47769368,3.74114618 7.50214571,3.40976297 C7.68184289,0.970709216 4.71220074,0.5 4.71220074,0.5 C4.71220074,0.5 6.56074218,3.44401367 3.82214352,5.29257001 C3.82214352,5.29257001 3.36857457,5.59210005 3.16312977,5.04438627 C2.95775944,4.4966725 2.53839653,4.40252767 2.35015157,4.40252767 C2.16183215,4.40252767 3.00909086,5.34391632 2.55552191,6.45648412 C2.10195295,7.56905192 0.749793871,7.82578345 1.72540345,10.2905401 C1.72540345,10.2905401 3.03474911,13.5255212 7.03995451,13.499848 C11.0451599,13.4741748 11.2503069,10.085825 11.2506196,9.59732032 C11.2511706,8.69871532 10.4033907,7.92847606 10.0695652,7.74874911 L10.0695652,7.74874911 Z M5.57659971,12.5755401 C4.16448697,12.0877353 3.31724316,9.36623218 4.83195916,8.28280727 C6.08827577,7.38426182 6.03777829,6.28439657 5.98397487,5.93512852 C5.97859899,5.90031191 6.02117414,5.87976149 6.04592401,5.90483896 C6.35138092,6.21422726 7.34182255,7.34403957 6.5522093,8.28280727 C5.62794602,9.38168968 6.50086299,9.95674447 7.21975595,9.98241762 C7.79761036,10.0030574 7.8611678,9.09465371 7.86386318,8.73747821 C7.86417589,8.69883445 7.9158945,8.68851456 7.9336602,8.72285463 C8.45586462,9.73232776 7.59547151,10.4198887 7.98992074,10.4445641 C8.2583273,10.461347 8.38429551,10.3137115 8.43933494,10.209351 C8.45494136,10.1797465 8.49967578,10.1847501 8.50850651,10.21705 C9.12985933,12.4905089 6.96726851,13.0559735 5.57659971,12.5755401 L5.57659971,12.5755401 Z" id="Shape" fill="#D0011B" sketch:type="MSShapeGroup"></path>
        </g>
    </g>
</svg>