<svg xmlns="http://www.w3.org/2000/svg" width="13" height="13" viewBox="0 0 13 13"><path fill="#26ABF5" fill-rule="evenodd" d="M5.1277704,-2.26708535e-16 L7.8722296,0 C9.65526708,0 10.3018396,0.185651222 10.9536914,0.534265408 C11.6055433,0.882879593 12.1171204,1.39445674 12.4657346,2.04630859 C12.8143488,2.69816044 13,3.34473292 13,5.1277704 L13,7.8722296 C13,9.65526708 12.8143488,10.3018396 12.4657346,10.9536914 C12.1171204,11.6055433 11.6055433,12.1171204 10.9536914,12.4657346 C10.3018396,12.8143488 9.65526708,13 7.8722296,13 L5.1277704,13 C3.34473292,13 2.69816044,12.8143488 2.04630859,12.4657346 C1.39445674,12.1171204 0.882879593,11.6055433 0.534265408,10.9536914 C0.185651222,10.3018396 0,9.65526708 0,7.8722296 L0,5.1277704 C0,3.34473292 0.185651222,2.69816044 0.534265408,2.04630859 C0.882879593,1.39445674 1.39445674,0.882879593 2.04630859,0.534265408 C2.69816044,0.185651222 3.34473292,1.31724187e-16 5.1277704,-2.26708535e-16 Z M1.65216717,7.12523414 L1.65216717,5.98812362 C1.65216717,5.88392597 1.7534923,5.79871276 1.8776535,5.79871276 L4.2572483,5.79871276 L3.22120661,7.31472206 L1.87764208,7.31472206 C1.7534923,7.31472206 1.65216717,7.22979779 1.65216717,7.12523414 L1.65216717,7.12523414 Z M3.34534475,9.42562526 L2.58593674,9.86007108 C2.48375612,9.91880626 2.4114951,9.88152127 2.42566214,9.77804601 L2.52698727,9.03463847 C2.54109727,8.93117285 2.6405403,8.88878295 2.74804782,8.94061209 L3.3357632,9.22411676 C3.44312242,9.27613853 3.44753679,9.36724645 3.34534475,9.42562526 L3.34534475,9.42562526 Z M3.51046476,9.03286537 L2.9227608,8.7493607 C2.8152989,8.69734856 2.77744029,8.58113996 2.83994864,8.49076406 L5.56137743,4.5073279 C5.6230759,4.41676899 5.76230528,4.38502233 5.86966451,4.43749679 L6.45737989,4.72044281 C6.56484178,4.77290765 6.60187912,4.88921256 6.54018064,4.97940546 L3.81879745,8.96321727 C3.75715602,9.05359317 3.61786962,9.08452114 3.51046476,9.03286537 L3.51046476,9.03286537 Z M5.63939168,7.31471243 L6.67536494,5.79871276 L7.27190905,5.79871276 L8.11321669,7.31471243 L5.63939168,7.31471243 L5.63939168,7.31471243 Z M8.96193661,7.71160355 C8.72665199,7.61250117 7.55488277,5.33962859 7.254683,4.74660355 C6.95414103,4.15359776 6.04662928,2.57503906 6.34015618,2.45229042 C6.54904586,2.36417801 7.29871261,3.60721991 7.86069462,4.35335327 C8.42192379,5.09967927 9.59551806,7.02382973 9.73991464,7.24296457 C9.88355837,7.46263878 9.60165484,7.64576966 9.44487067,7.70049799 C9.28798381,7.75543821 9.19709576,7.80999316 8.96193661,7.71160355 L8.96193661,7.71160355 Z M9.76073702,8.78664325 L9.40669793,8.31637648 C9.33346734,8.21871888 9.37148566,8.09796404 9.49025152,8.04632754 L9.82771677,7.90047202 C9.94671076,7.84937492 10.0956244,7.89064751 10.1589426,7.993044 L10.4382568,8.44457676 C10.5017803,8.54676134 10.4584922,8.67788972 10.343924,8.73552687 L10.1026166,8.85683073 C9.98805981,8.91539255 9.83396761,8.8835592 9.76073702,8.78664325 L9.76073702,8.78664325 Z M11.0252342,10.0506321 C10.9512622,9.85150271 10.3864855,9.83822035 10.1336575,9.53816812 C9.87996258,9.23920429 10.0896165,9.08519057 10.1776871,9.01407842 C11.2032347,8.52852586 11.0252342,10.0506321 11.0252342,10.0506321 L11.0252342,10.0506321 Z M11.5728647,7.1252245 C11.5728647,7.22978815 11.4715396,7.31471242 11.3473784,7.31471242 L10.1562407,7.31471242 C10.1431117,7.25635288 10.1217813,7.19779106 10.0858162,7.14304347 C10.0548015,7.0963096 9.97641517,6.97066177 9.86723087,6.79516897 C9.7095912,6.54204324 9.48313531,6.17996171 9.24075576,5.79871276 L11.3472872,5.79871276 C11.471437,5.79871276 11.5727621,5.88391635 11.5727621,5.98812362 L11.5727621,7.12523414 L11.5728647,7.12523414 L11.5728647,7.1252245 Z"/></svg>