<svg xmlns="http://www.w3.org/2000/svg" width="12" height="12" viewBox="0 0 21 21">
  <g fill="none" fill-rule="evenodd">
    <circle cx="10.5" cy="10.5" r="10.5" fill="#CEABC6"/>
    <path fill="#261120" d="M17.9921671,9.52480418 L14.1462141,6 L13.6057441,6.58746736 L16.8093995,9.52480418 L4.18276762,9.52480418 L7.38642298,6.58746736 L6.845953,6 L3,9.52480418 L3,11.8511749 C3,12.9007833 4.01044386,13.7545692 5.25587467,13.7545692 L7.62924282,13.7545692 C8.87467363,13.7545692 9.88511749,12.9007833 9.88511749,11.8511749 L9.88511749,10.3237598 L11.1148825,10.3237598 L11.1148825,11.8511749 C11.1148825,12.9007833 12.1253264,13.7545692 13.3707572,13.7545692 L15.7441253,13.7545692 C16.9895561,13.7545692 18,12.9007833 18,11.8511749 L17.9921671,9.52480418 L17.9921671,9.52480418 Z"/>
  </g>
</svg>
