<?xml version="1.0" encoding="UTF-8" standalone="no"?>
<svg width="14px" height="14px" viewBox="0 0 14 14" version="1.1" xmlns="http://www.w3.org/2000/svg" xmlns:xlink="http://www.w3.org/1999/xlink" xmlns:sketch="http://www.bohemiancoding.com/sketch/ns">
    <!-- Generator: Sketch 3.5.1 (25234) - http://www.bohemiancoding.com/sketch -->
    <title>tuijian</title>
    <desc>Created with Sketch.</desc>
    <defs></defs>
    <g id="Page-1" stroke="none" stroke-width="1" fill="none" fill-rule="evenodd" sketch:type="MSPage">
        <g id="tuijian" sketch:type="MSLayerGroup" transform="translate(1.000000, 1.000000)">
            <circle id="Oval-14" stroke="#D0011B" sketch:type="MSShapeGroup" cx="6" cy="6" r="5.64475988"></circle>
            <path d="M2.39260081,2.82712844 L2.39260081,3.36823831 L4.25369084,3.36823831 L4.25369084,3.95854 L4.8603898,3.95854 L4.8603898,3.36823831 L7.02482932,3.36823831 L7.02482932,3.96673864 L7.63152827,3.96673864 L7.63152827,3.36823831 L9.49261831,3.36823831 L9.49261831,2.82712844 L7.63152827,2.82712844 L7.63152827,2.23682675 L7.02482932,2.23682675 L7.02482932,2.82712844 L4.8603898,2.82712844 L4.8603898,2.23682675 L4.25369084,2.23682675 L4.25369084,2.82712844 L2.39260081,2.82712844 Z M2.49918305,4.51604715 L2.49918305,5.05715703 L4.49964988,5.05715703 C3.96673864,5.88521912 3.21246426,6.62309622 2.23682675,7.26258972 L2.6057653,7.73811052 C3.01569703,7.45935695 3.39283422,7.17240474 3.73717687,6.86085663 L3.73717687,9.76317325 L4.30288265,9.76317325 L4.30288265,6.28695221 C4.63902667,5.90161639 4.93417751,5.49168466 5.18013655,5.05715703 L9.45162514,5.05715703 L9.45162514,4.51604715 L5.45069149,4.51604715 C5.51628056,4.34387582 5.59006827,4.1717045 5.65565735,3.99133454 L5.08175293,3.89295093 C4.99976659,4.09791679 4.90958161,4.30288265 4.81119799,4.51604715 L2.49918305,4.51604715 Z M7.1396102,6.89365116 L7.1396102,7.40196651 L4.87678707,7.40196651 L4.87678707,7.95947365 L7.1396102,7.95947365 L7.1396102,8.90231662 C7.1396102,9.09908385 7.03302795,9.19746747 6.83626072,9.19746747 C6.62309622,9.19746747 6.31974675,9.1810702 5.94260956,9.1564743 L6.11478088,9.73037871 L7.07402112,9.73037871 C7.50854875,9.73037871 7.72991189,9.50901558 7.72991189,9.06628932 L7.72991189,7.95947365 L9.53361148,7.95947365 L9.53361148,7.40196651 L7.72991189,7.40196651 L7.72991189,7.05762385 C8.19723405,6.72967847 8.62356305,6.40993173 9.00070024,6.11478088 L9.00070024,5.68845189 L5.46708876,5.68845189 L5.46708876,6.22956177 L8.16443952,6.22956177 C7.77090506,6.49191807 7.43476104,6.7132812 7.1396102,6.89365116 L7.1396102,6.89365116 Z" id="è" fill="#D0011B" sketch:type="MSShapeGroup"></path>
        </g>
    </g>
</svg>