<?xml version="1.0" encoding="UTF-8"?>
<svg width="12px" height="12px" viewBox="0 0 21 21" version="1.1" xmlns="http://www.w3.org/2000/svg" xmlns:xlink="http://www.w3.org/1999/xlink">
    <!-- Generator: https://jaywcjlove.github.io/sb/-->
    <title>min-hot</title>
    <desc>Created with Sketch.</desc>
    <defs></defs>
    <g id="Page-1" stroke="none" stroke-width="1" fill="none" fill-rule="evenodd">
        <g id="min-new" transform="translate(-138.000000, 0.000000)" fill="#D0021B">
            <g id="min-hot" transform="translate(138.000000, 0.000000)">
                <path d="M10.5,21 C4.70101013,21 0,16.2989899 0,10.5 C0,4.70101013 4.70101013,0 10.5,0 C16.2989899,0 21,4.70101013 21,10.5 C21,16.2989899 16.2989899,21 10.5,21 Z M14.583588,11.0287481 C14.2098663,10.8274877 13.3898664,10.4474292 14.1811172,8.9514918 C14.6410862,8.08183133 14.8711458,7.17618447 13.4048413,6.22739727 C13.4048413,6.22739727 13.0886178,5.99738776 13.2036142,7.00367317 C13.3029354,7.87323358 11.9385368,8.38369697 11.536066,7.31991334 C11.4479343,7.08711895 11.681179,6.54098599 11.7085607,6.16989908 C11.9097877,3.43861724 8.58434661,2.91151138 8.58434661,2.91151138 C8.58434661,2.91151138 10.6543656,6.20825341 7.58764979,8.27828911 C7.58764979,8.27828911 7.0797378,8.61370647 6.84967824,8.00036997 C6.61970206,7.38703347 6.15009442,7.28160896 5.93929544,7.28160896 C5.72841308,7.28160896 6.67718361,8.33578733 6.16927162,9.58165418 C5.66135963,10.827521 4.14719557,11.1150121 5.23969495,13.8750764 C5.23969495,13.8750764 6.70591603,17.4976472 11.1909934,17.4688981 C15.6760707,17.4401489 15.9057967,13.6458339 15.9061469,13.0988005 C15.9067639,12.0925317 14.9574098,11.2300085 14.583588,11.0287481 Z M9.55231101,16.4338469 C7.97101011,15.8875972 7.02225627,12.8400252 8.71845353,11.6267929 C10.125292,10.6205908 10.0687443,9.38894846 10.0084946,8.99783389 C10.0024747,8.95884583 10.0501508,8.93583322 10.077866,8.96391528 C10.4199204,9.31037203 11.5290288,10.5755495 10.6448104,11.6267929 C9.60980922,12.8573347 10.5873122,13.501288 11.3923372,13.5300371 C12.0394255,13.5531497 12.1105979,12.5359083 12.1136162,12.1359389 C12.1139664,12.0926651 12.1718815,12.0811088 12.1917758,12.1195632 C12.7765466,13.2499834 11.813068,14.0199225 12.254777,14.0475543 C12.5553419,14.066348 12.6964026,13.9010239 12.7580365,13.7841598 C12.7755127,13.7510083 12.8256069,13.7566114 12.8354956,13.7927812 C13.531294,16.338628 11.1095987,16.971842 9.55231101,16.4338469 Z" id="Oval-14"></path>
            </g>
        </g>
    </g>
</svg>