<svg xmlns="http://www.w3.org/2000/svg" width="16" height="16" viewBox="0 0 16 16"><path fill="#26ABF5" fill-rule="evenodd" d="M8,16 C12.418278,16 16,12.418278 16,8 C16,3.581722 12.418278,0 8,0 C3.581722,0 0,3.581722 0,8 C0,12.418278 3.581722,16 8,16 Z M2.03343652,8.76951894 L2.03343652,7.3699983 C2.03343652,7.24175505 2.15814436,7.13687724 2.31095815,7.13687724 L5.23969022,7.13687724 L3.96456198,9.00273484 L2.3109441,9.00273484 C2.15814436,9.00273484 2.03343652,8.89821267 2.03343652,8.76951894 L2.03343652,8.76951894 Z M4.11734739,11.6007696 L3.18269138,12.1354721 C3.05693061,12.2077616 2.96799397,12.1618723 2.98543033,12.0345182 L3.11013817,11.119555 C3.12750434,10.9922127 3.24989575,10.9400406 3.3822127,11.0038303 L4.1055547,11.3527591 C4.23768913,11.4167859 4.2431222,11.5289187 4.11734739,11.6007696 L4.11734739,11.6007696 Z M4.32057201,11.1173728 L3.59724406,10.7684439 C3.46498326,10.704429 3.41838805,10.561403 3.4953214,10.4501711 L6.84477222,5.54748049 C6.92070881,5.43602337 7.09206803,5.39695056 7.22420247,5.46153451 L7.94754448,5.80977577 C8.07980527,5.87434788 8.12538968,6.01749239 8.0494531,6.12849903 L4.70005841,11.031652 C4.62419202,11.1428839 4.45276261,11.1809491 4.32057201,11.1173728 L4.32057201,11.1173728 Z M6.94078976,9.00272299 L8.21583377,7.13687724 L8.9500419,7.13687724 L9.98549747,9.00272299 L6.94078976,9.00272299 L6.94078976,9.00272299 Z M11.0300758,9.49120436 C10.7404948,9.3692322 9.29831726,6.57185058 8.92884062,5.84197359 C8.5589428,5.11212033 7.44200527,3.16927884 7.80326915,3.01820359 C8.06036413,2.90975755 8.9830309,4.43965527 9.67470107,5.35797326 C10.3654447,6.27652833 11.8098684,8.64471352 11.9875872,8.91441793 C12.1643795,9.18478619 11.8174213,9.41017805 11.6244562,9.47753599 C11.4313647,9.54515472 11.3195025,9.61229928 11.0300758,9.49120436 L11.0300758,9.49120436 Z M12.0132148,10.8143302 L11.5774744,10.2355403 C11.4873444,10.1153463 11.5341362,9.96672497 11.6803096,9.90317236 L12.0956514,9.72365788 C12.2421056,9.66076913 12.4253838,9.71156617 12.5033139,9.83759261 L12.8470853,10.3933252 C12.9252681,10.5190909 12.8719904,10.6804797 12.7309833,10.7514177 L12.4339897,10.9007147 C12.2929967,10.9727908 12.1033447,10.9336113 12.0132148,10.8143302 L12.0132148,10.8143302 Z M13.569519,12.3700088 C13.4784765,12.1249264 12.7833668,12.1085789 12.4721939,11.7392838 C12.1599539,11.3713284 12.4179895,11.181773 12.5263841,11.0942504 C13.7885965,10.4966472 13.569519,12.3700088 13.569519,12.3700088 L13.569519,12.3700088 Z M14.2435258,8.76950707 C14.2435258,8.8982008 14.118818,9.00272297 13.9660042,9.00272297 L12.4999886,9.00272297 C12.4838298,8.93089585 12.457577,8.85881977 12.4133122,8.79143812 C12.3751404,8.73391951 12.2786648,8.57927602 12.1442842,8.36328488 C11.9502661,8.05174552 11.6715511,7.60610672 11.3732379,7.13687724 L13.9658919,7.13687724 C14.1186916,7.13687724 14.2433995,7.24174319 14.2433995,7.3699983 L14.2433995,8.76951894 L14.2435258,8.76951894 L14.2435258,8.76950707 Z"/></svg>