<svg xmlns="http://www.w3.org/2000/svg" width="13" height="13" viewBox="0 0 13 13"><path fill="#9013FE" d="M7.8722296,0 C9.65526708,0 10.3018396,0.185651222 10.9536914,0.534265408 C11.6055433,0.882879593 12.1171204,1.39445674 12.4657346,2.04630859 C12.8143488,2.69816044 13,3.34473292 13,5.1277704 L13,7.8722296 C13,9.65526708 12.8143488,10.3018396 12.4657346,10.9536914 C12.1171204,11.6055433 11.6055433,12.1171204 10.9536914,12.4657346 C10.3018396,12.8143488 9.65526708,13 7.8722296,13 L5.1277704,13 C3.34473292,13 2.69816044,12.8143488 2.04630859,12.4657346 C1.39445674,12.1171204 0.882879593,11.6055433 0.534265408,10.9536914 C0.185651222,10.3018396 0,9.65526708 0,7.8722296 L0,5.1277704 C0,3.34473292 0.185651222,2.69816044 0.534265408,2.04630859 C0.882879593,1.39445674 1.39445674,0.882879593 2.04630859,0.534265408 C2.69816044,0.185651222 3.34473292,1.31724187e-16 5.1277704,-2.26708535e-16 L7.8722296,0 Z M7.23883333,1.95563336 L7.18419,1.95784336 L7.15989445,1.95923002 C6.64684222,1.99014113 6.31870778,2.26805225 6.26847,3.55359336 C6.22073111,4.78999446 5.0773089,5.10876891 5.03095667,5.12119113 L4.73896222,5.1940489 C4.65119778,5.2164089 4.58937556,5.29560778 4.58937556,5.38668001 L4.58937556,9.49417445 C4.58937556,9.58055223 4.64511667,9.65673223 4.72736333,9.6829489 L6.46192445,10.2304945 C6.48096223,10.2368356 6.50109779,10.2398833 6.52124779,10.2398833 L8.8097389,10.2398833 C9.13043445,10.2398833 9.38048222,10.1783355 9.55241444,10.0571756 C9.71884333,9.93988667 9.81073889,9.76682777 9.81073889,9.57005111 C9.81073889,9.42764333 9.76243666,9.28607333 9.68488444,9.16794667 C9.90153667,9.09176667 10.1162533,8.94522778 10.1932567,8.63805222 C10.2514822,8.40484667 10.22775,8.19979334 10.1225944,8.02784667 C10.1068644,8.00216444 10.0897478,7.97844666 10.0720822,7.95663555 C10.2970111,7.84734888 10.4970956,7.65471778 10.5081456,7.33568333 C10.5172456,7.08481222 10.4333522,6.89660111 10.3204689,6.76163222 C10.5616767,6.63303333 10.7888156,6.39237445 10.81808,5.97754449 C10.83602,5.72612448 10.7722767,5.52024782 10.6287567,5.36624115 C10.4016322,5.12200003 10.0643544,5.11538448 10.0265533,5.11538448 L8.24065667,5.11538448 C8.48601,3.77907114 8.39824556,2.84236336 7.97902445,2.32848781 C7.71490778,2.00448448 7.40194001,1.95563336 7.23883333,1.95563336 Z M4.06774333,5.20066444 L2.74301444,5.20066444 C2.43196778,5.20066444 2.17917556,5.45318222 2.17917556,5.76395444 L2.17917556,9.14697334 C2.17917556,9.45774557 2.43198222,9.71055223 2.74301444,9.71055223 L4.06774333,9.71055223 C4.17676999,9.71055223 4.26590667,9.62167557 4.26590667,9.5123889 L4.26590667,5.39882778 C4.26590667,5.28897777 4.17675555,5.20066444 4.06774333,5.20066444 Z"/></svg>