<?xml version="1.0" encoding="UTF-8" standalone="no"?>
<svg width="14px" height="14px" viewBox="0 0 14 14" version="1.1" xmlns="http://www.w3.org/2000/svg" xmlns:xlink="http://www.w3.org/1999/xlink" xmlns:sketch="http://www.bohemiancoding.com/sketch/ns">
    <!-- Generator: Sketch 3.5.1 (25234) - http://www.bohemiancoding.com/sketch -->
    <title>tuijian</title>
    <desc>Created with Sketch.</desc>
    <defs></defs>
    <g id="Page-1" stroke="none" stroke-width="1" fill="none" fill-rule="evenodd" sketch:type="MSPage">
        <g id="tuijian" sketch:type="MSLayerGroup" transform="translate(1.000000, 1.000000)">
            <circle id="Oval-14" stroke="#D0011B" sketch:type="MSShapeGroup" cx="6" cy="6" r="6"></circle>
            <path d="M2.16557734,2.62745098 L2.16557734,3.20261438 L4.14379085,3.20261438 L4.14379085,3.83006536 L4.78867102,3.83006536 L4.78867102,3.20261438 L7.08932462,3.20261438 L7.08932462,3.83877996 L7.73420479,3.83877996 L7.73420479,3.20261438 L9.7124183,3.20261438 L9.7124183,2.62745098 L7.73420479,2.62745098 L7.73420479,2 L7.08932462,2 L7.08932462,2.62745098 L4.78867102,2.62745098 L4.78867102,2 L4.14379085,2 L4.14379085,2.62745098 L2.16557734,2.62745098 Z M2.2788671,4.42265795 L2.2788671,4.99782135 L4.40522876,4.99782135 C3.83877996,5.87799564 3.03703704,6.66230937 2,7.34204793 L2.39215686,7.84749455 C2.82788671,7.55119826 3.22875817,7.24618736 3.59477124,6.91503268 L3.59477124,10 L4.19607843,10 L4.19607843,6.30501089 C4.55337691,5.89542484 4.8671024,5.45969499 5.12854031,4.99782135 L9.66884532,4.99782135 L9.66884532,4.42265795 L5.416122,4.42265795 C5.48583878,4.23965142 5.56427015,4.05664488 5.63398693,3.86492375 L5.02396514,3.76034858 C4.93681917,3.97821351 4.84095861,4.19607843 4.73638344,4.42265795 L2.2788671,4.42265795 Z M7.21132898,6.94989107 L7.21132898,7.49019608 L4.80610022,7.49019608 L4.80610022,8.08278867 L7.21132898,8.08278867 L7.21132898,9.08496732 C7.21132898,9.29411765 7.09803922,9.39869281 6.88888889,9.39869281 C6.66230937,9.39869281 6.33986928,9.38126362 5.93899782,9.35511983 L6.12200436,9.96514161 L7.1416122,9.96514161 C7.60348584,9.96514161 7.83877996,9.72984749 7.83877996,9.25925926 L7.83877996,8.08278867 L9.75599129,8.08278867 L9.75599129,7.49019608 L7.83877996,7.49019608 L7.83877996,7.12418301 C8.33551198,6.77559913 8.78867102,6.43572985 9.18954248,6.12200436 L9.18954248,5.66884532 L5.4335512,5.66884532 L5.4335512,6.24400871 L8.30065359,6.24400871 C7.88235294,6.52287582 7.52505447,6.75816993 7.21132898,6.94989107 L7.21132898,6.94989107 Z" id="è" fill="#D0011B" sketch:type="MSShapeGroup"></path>
        </g>
    </g>
</svg>