<svg xmlns="http://www.w3.org/2000/svg" width="13" height="13" viewBox="0 0 13 13"><path fill="#609DE5" d="M7.8722296,0 C9.65526708,0 10.3018396,0.185651222 10.9536914,0.534265408 C11.6055433,0.882879593 12.1171204,1.39445674 12.4657346,2.04630859 C12.8143488,2.69816044 13,3.34473292 13,5.1277704 L13,7.8722296 C13,9.65526708 12.8143488,10.3018396 12.4657346,10.9536914 C12.1171204,11.6055433 11.6055433,12.1171204 10.9536914,12.4657346 C10.3018396,12.8143488 9.65526708,13 7.8722296,13 L5.1277704,13 C3.34473292,13 2.69816044,12.8143488 2.04630859,12.4657346 C1.39445674,12.1171204 0.882879593,11.6055433 0.534265408,10.9536914 C0.185651222,10.3018396 0,9.65526708 0,7.8722296 L0,5.1277704 C0,3.34473292 0.185651222,2.69816044 0.534265408,2.04630859 C0.882879593,1.39445674 1.39445674,0.882879593 2.04630859,0.534265408 C2.69816044,0.185651222 3.34473292,1.31724187e-16 5.1277704,-2.26708535e-16 L7.8722296,0 Z M10.59,2.63 C7.9563762,4.14036525 6.71189008,4.46129319 5.88830975,7.10502468 L4.23915487,4.46129319 L2.59,6.22378085 L6.71189008,10.63 C7.03377732,9.95300099 7.38210053,9.22680158 7.73339654,8.4981619 L7.96777681,8.01255373 C9.29550922,5.26454109 10.5912555,2.63 10.59,2.63 Z"/></svg>