<?xml version="1.0" encoding="UTF-8" standalone="no"?>
<svg width="70px" height="20px" viewBox="0 0 70 20" version="1.1" xmlns="http://www.w3.org/2000/svg" xmlns:xlink="http://www.w3.org/1999/xlink" xmlns:sketch="http://www.bohemiancoding.com/sketch/ns">
    <!-- Generator: Sketch 3.5.1 (25234) - http://www.bohemiancoding.com/sketch -->
    <title>mysql</title>
    <desc>Created with Sketch.</desc>
    <defs>
        <rect id="path-1" x="0" y="0" width="70" height="20" rx="3"></rect>
        <filter x="-50%" y="-50%" width="200%" height="200%" filterUnits="objectBoundingBox" id="filter-3">
            <feOffset dx="0" dy="0" in="SourceAlpha" result="shadowOffsetInner1"></feOffset>
            <feGaussianBlur stdDeviation="0" in="shadowOffsetInner1" result="shadowBlurInner1"></feGaussianBlur>
            <feComposite in="shadowBlurInner1" in2="SourceAlpha" operator="arithmetic" k2="-1" k3="1" result="shadowInnerInner1"></feComposite>
            <feColorMatrix values="0 0 0 0 0   0 0 0 0 0   0 0 0 0 0  0 0 0 0.35 0" in="shadowInnerInner1" type="matrix" result="shadowMatrixInner1"></feColorMatrix>
            <feMerge>
                <feMergeNode in="SourceGraphic"></feMergeNode>
                <feMergeNode in="shadowMatrixInner1"></feMergeNode>
            </feMerge>
        </filter>
        <filter x="-50%" y="-50%" width="200%" height="200%" filterUnits="objectBoundingBox" id="filter-4">
            <feOffset dx="0" dy="1" in="SourceAlpha" result="shadowOffsetOuter1"></feOffset>
            <feGaussianBlur stdDeviation="0" in="shadowOffsetOuter1" result="shadowBlurOuter1"></feGaussianBlur>
            <feColorMatrix values="0 0 0 0 0.347417092   0 0 0 0 0.347417092   0 0 0 0 0.347417092  0 0 0 0.348713235 0" in="shadowBlurOuter1" type="matrix" result="shadowMatrixOuter1"></feColorMatrix>
            <feMerge>
                <feMergeNode in="shadowMatrixOuter1"></feMergeNode>
                <feMergeNode in="SourceGraphic"></feMergeNode>
            </feMerge>
        </filter>
    </defs>
    <g id="Page-1" stroke="none" stroke-width="1" fill="none" fill-rule="evenodd" sketch:type="MSPage">
        <g id="GET" sketch:type="MSLayerGroup" transform="translate(-70.000000, -91.000000)">
            <g id="mysql" transform="translate(70.000000, 91.000000)">
                <mask id="mask-2" sketch:name="Mask" fill="white">
                    <use xlink:href="#path-1"></use>
                </mask>
                <use id="Mask" fill="#5382A1" sketch:type="MSShapeGroup" xlink:href="#path-1"></use>
                <rect id="颜色" fill="#FFD34B" filter="url(#filter-3)" sketch:type="MSShapeGroup" mask="url(#mask-2)" x="0" y="0" width="22" height="20"></rect>
                <text id="Cancel" fill="#FFFFFF" filter="url(#filter-4)" sketch:type="MSTextLayer" mask="url(#mask-2)" font-family="Avenir Next" font-size="12" font-weight="420">
                    <tspan x="26" y="14">MySQL</tspan>
                </text>
                <g mask="url(#mask-2)" id="Shape" fill="#648FAB" sketch:type="MSShapeGroup">
                    <g transform="translate(6.000000, 4.000000)">
                        <path d="M11.0460129,9.24817295 C10.3935868,9.23164567 9.88794713,9.29796533 9.46385644,9.48018876 C9.34152652,9.52987648 9.14577783,9.52992848 9.12945783,9.68730752 C9.19474209,9.75362805 9.20287659,9.86131981 9.25997325,9.95243119 C9.35789962,10.1180739 9.5290897,10.3418259 9.68406173,10.4578337 C9.85530286,10.590369 10.0265949,10.7229042 10.2059726,10.838912 C10.5240512,11.0377679 10.8829043,11.1537224 11.1927974,11.3525773 C11.372277,11.4684794 11.5515995,11.6177005 11.7310282,11.741972 C11.8207691,11.808187 11.8778147,11.9159307 11.9920101,11.9573546 L11.9920101,11.932511 C11.9349113,11.8579276 11.9185913,11.7502358 11.8615457,11.6673878 C11.7800434,11.58454 11.6984392,11.5099563 11.6168859,11.4271086 C11.3803605,11.1040333 11.0867875,10.8223326 10.7687131,10.590369 C10.5077843,10.4080929 9.93686039,10.15955 9.83084831,9.85300243 C9.83084831,9.85300243 9.82266281,9.84473857 9.81452831,9.83647476 C9.99395489,9.81989462 10.2059726,9.75362762 10.3772668,9.70388681 C10.6545687,9.62930352 10.9073652,9.64588324 11.1927974,9.57135152 C11.3232618,9.5381919 11.4537793,9.49676805 11.5842437,9.4553439 L11.5842437,9.3808131 C11.4375103,9.23164438 11.3314494,9.0328421 11.1764774,8.89198943 C10.7605765,8.52738633 10.3038459,8.17120329 9.83084831,7.87297114 C9.57800086,7.70727581 9.25178775,7.599531 8.98267556,7.45873186 C8.88485325,7.40893948 8.72169361,7.38414857 8.66464795,7.30129995 C8.51781103,7.1190249 8.43625777,6.8787981 8.33024916,6.6633609 C8.09382792,6.20764786 7.8653842,5.7023479 7.66150359,5.22184119 C7.51477013,4.89871395 7.42503052,4.5755852 7.24560291,4.27735825 C6.40561716,2.86894788 5.49220758,2.0156243 4.08948319,1.1788313 C3.78772609,1.00487168 3.42892396,0.93028829 3.04561232,0.839176781 C2.84178117,0.830860395 2.63784595,0.814333171 2.43396127,0.806016786 C2.30349685,0.748012281 2.1729806,0.590633771 2.05878499,0.516049719 C1.59402541,0.217766481 0.395129204,-0.428384337 0.0525963188,0.424938208 C-0.167607929,0.963450076 0.378809416,1.49364176 0.566369414,1.76708006 C0.705072,1.9576199 0.884447789,2.17300244 0.982322123,2.3884403 C1.03942004,2.52918679 1.05568885,2.67840707 1.11278676,2.8275227 C1.2433028,3.19196852 1.36558088,3.59799402 1.53687377,3.93770505 C1.62661338,4.11166465 1.72443589,4.2939401 1.83863108,4.45131743 C1.90386308,4.54242883 2.01800665,4.58390536 2.04251384,4.73302078 C1.92837069,4.89871567 1.92018414,5.14725962 1.85489989,5.35438057 C1.56132913,6.29054724 1.67552411,7.45041905 2.0914252,8.13804238 C2.22188963,8.34510938 2.53183157,8.80087719 2.94773586,8.62686581 C3.31472538,8.47774971 3.23317189,8.005506 3.33918096,7.59126714 C3.36368857,7.49178681 3.34736729,7.42557224 3.39627865,7.35930395 C3.39632113,7.36756781 3.39627865,7.37588386 3.39627865,7.37588386 C3.51047363,7.60784705 3.62461741,7.8315481 3.73062605,8.06350743 C3.983472,8.46942976 4.42383016,8.89198448 4.79081733,9.17369062 C4.98661786,9.32275276 5.14153763,9.57961319 5.38619639,9.67077681 L5.38619639,9.64588019 L5.36987555,9.64588019 C5.32091255,9.57129671 5.24754586,9.53818848 5.18231344,9.48018533 C5.0355277,9.33106967 4.87236956,9.14879357 4.75822641,8.9830991 C4.41574428,8.51911838 4.11393473,8.00550643 3.84482103,7.47526171 C3.7143566,7.218455 3.60016163,6.93674924 3.49415257,6.67994338 C3.44518959,6.58046329 3.44518959,6.43140029 3.36363632,6.381713 C3.24130662,6.56393557 3.06193083,6.72136748 2.97219122,6.94506748 C2.81732304,7.3013021 2.80095016,7.74038557 2.74385246,8.1960451 C2.71126173,8.20436181 2.72753119,8.1960451 2.71121012,8.21262562 C2.45028106,8.14630514 2.36054145,7.87297114 2.26266541,7.64095486 C2.0180058,7.05275838 1.97722938,6.10827067 2.18929869,5.42896362 C2.24639639,5.25495181 2.491056,4.7081768 2.39318167,4.54248104 C2.3442703,4.38504892 2.18111214,4.29393795 2.09142435,4.16966651 C1.98541529,4.0122346 1.87122032,3.81343167 1.79785359,3.63942179 C1.60210492,3.17549434 1.50423101,2.6618291 1.29221416,2.19784835 C1.19433983,1.98241269 1.02309876,1.75876589 0.884447789,1.5599622 C0.729528,1.33626326 0.558234689,1.1788313 0.435903292,0.913707171 C0.395178265,0.822595662 0.338028956,0.673480548 0.40326138,0.574052219 C0.419582443,0.507784986 0.452172531,0.482940948 0.517456355,0.466360713 C0.623465414,0.375196642 0.925222725,0.491204319 1.03122945,0.540892205 C1.33298676,0.665110719 1.58578152,0.781171843 1.83862747,0.955131014 C1.95277083,1.03797868 2.07510053,1.19541063 2.22188623,1.23683447 L2.3931789,1.23683447 C2.65415957,1.29478597 2.94773097,1.2534138 3.19239037,1.32794596 C3.62466393,1.46874514 4.01605614,1.67591687 4.36677983,1.89961672 C5.43515766,2.58724043 6.31586967,3.56488641 6.91125295,4.73302121 C7.0091273,4.9235081 7.04985211,5.0975719 7.13959172,5.29637571 C7.31088459,5.70235071 7.52290209,6.11658933 7.69414359,6.51424848 C7.86538462,6.90359052 8.02849097,7.30130295 8.27314973,7.62443086 C8.39553127,7.79833781 8.88480014,7.88950143 9.10500122,7.98066548 C9.26810775,8.05519719 9.5209552,8.12151767 9.66773962,8.21262886 C9.94499067,8.38653538 10.2222926,8.58544429 10.4832724,8.77598314 C10.6137878,8.87535881 11.0215032,9.08253067 11.0460108,9.24817381 L11.0460129,9.24817295 L11.0460129,9.24817295 L11.0460129,9.24817295 Z"></path>
                        <path d="M2.72749168,2.04867926 C2.58884092,2.04867926 2.49101862,2.06531203 2.39314428,2.09015622 C2.39314428,2.09011307 2.39314428,2.0984725 2.39314428,2.10673635 L2.40946556,2.10673635 C2.47474959,2.23927159 2.58884135,2.33043564 2.67039441,2.44639037 C2.73567865,2.57892566 2.79272411,2.71151402 2.85800835,2.84410196 C2.86614265,2.83578547 2.87427738,2.82752183 2.87427738,2.82752183 C2.9885246,2.74462142 3.04557027,2.61208613 3.04557027,2.41328298 C2.99660708,2.35527897 2.98847235,2.29727517 2.94769593,2.23927116 C2.89878457,2.15637057 2.79272368,2.11499976 2.72749168,2.04867926 L2.72749168,2.04867926 L2.72749168,2.04867926 L2.72749168,2.04867926 Z"></path>
                    </g>
                </g>
            </g>
        </g>
    </g>
</svg>