<?xml version="1.0" encoding="UTF-8" standalone="no"?>
<svg width="73px" height="20px" viewBox="0 0 73 20" version="1.1" xmlns="http://www.w3.org/2000/svg" xmlns:xlink="http://www.w3.org/1999/xlink" xmlns:sketch="http://www.bohemiancoding.com/sketch/ns">
    <!-- Generator: Sketch 3.5.1 (25234) - http://www.bohemiancoding.com/sketch -->
    <title>nodejs</title>
    <desc>Created with Sketch.</desc>
    <defs>
        <rect id="path-1" x="0" y="0" width="73" height="20" rx="3"></rect>
        <filter x="-50%" y="-50%" width="200%" height="200%" filterUnits="objectBoundingBox" id="filter-3">
            <feOffset dx="0" dy="0" in="SourceAlpha" result="shadowOffsetInner1"></feOffset>
            <feGaussianBlur stdDeviation="0" in="shadowOffsetInner1" result="shadowBlurInner1"></feGaussianBlur>
            <feComposite in="shadowBlurInner1" in2="SourceAlpha" operator="arithmetic" k2="-1" k3="1" result="shadowInnerInner1"></feComposite>
            <feColorMatrix values="0 0 0 0 0   0 0 0 0 0   0 0 0 0 0  0 0 0 0.35 0" in="shadowInnerInner1" type="matrix" result="shadowMatrixInner1"></feColorMatrix>
            <feMerge>
                <feMergeNode in="SourceGraphic"></feMergeNode>
                <feMergeNode in="shadowMatrixInner1"></feMergeNode>
            </feMerge>
        </filter>
        <filter x="-50%" y="-50%" width="200%" height="200%" filterUnits="objectBoundingBox" id="filter-4">
            <feOffset dx="0" dy="1" in="SourceAlpha" result="shadowOffsetOuter1"></feOffset>
            <feGaussianBlur stdDeviation="0" in="shadowOffsetOuter1" result="shadowBlurOuter1"></feGaussianBlur>
            <feColorMatrix values="0 0 0 0 0.347417092   0 0 0 0 0.347417092   0 0 0 0 0.347417092  0 0 0 0.348713235 0" in="shadowBlurOuter1" type="matrix" result="shadowMatrixOuter1"></feColorMatrix>
            <feMerge>
                <feMergeNode in="shadowMatrixOuter1"></feMergeNode>
                <feMergeNode in="SourceGraphic"></feMergeNode>
            </feMerge>
        </filter>
    </defs>
    <g id="Page-1" stroke="none" stroke-width="1" fill="none" fill-rule="evenodd" sketch:type="MSPage">
        <g id="GET" sketch:type="MSLayerGroup" transform="translate(-129.000000, -123.000000)">
            <g id="nodejs" transform="translate(129.000000, 123.000000)">
                <mask id="mask-2" sketch:name="Mask" fill="white">
                    <use xlink:href="#path-1"></use>
                </mask>
                <use id="Mask" fill="#36BA29" sketch:type="MSShapeGroup" xlink:href="#path-1"></use>
                <rect id="颜色" fill="#B6D8F5" filter="url(#filter-3)" sketch:type="MSShapeGroup" mask="url(#mask-2)" x="0" y="0" width="21" height="20"></rect>
                <text id="Cancel" fill="#FFFFFF" filter="url(#filter-4)" sketch:type="MSTextLayer" mask="url(#mask-2)" font-family="Avenir Next" font-size="12" font-weight="420">
                    <tspan x="27" y="14">Node.js</tspan>
                </text>
                <path d="M10.2024632,17 C10.0098401,17 9.83005856,16.948553 9.66311853,16.8585208 L7.95519394,15.8424437 C7.6983631,15.7009646 7.82677857,15.6495176 7.90382772,15.6237941 C8.2505493,15.5080386 8.31475699,15.482315 8.67432014,15.2765272 C8.71284466,15.2508038 8.76421087,15.2636655 8.8027355,15.289389 L10.1125724,16.0739549 C10.1639387,16.0996784 10.2281463,16.0996784 10.266671,16.0739549 L15.3904449,13.1028939 C15.4418111,13.0771703 15.4674941,13.0257235 15.4674941,12.9614148 L15.4674941,7.03215437 C15.4674941,6.96784559 15.4418111,6.9163987 15.3904449,6.89067525 L10.266671,3.93247588 C10.2153047,3.90675244 10.1510971,3.90675244 10.1125724,3.93247588 L4.9887984,6.89067525 C4.9374323,6.9163987 4.91174925,6.98070736 4.91174925,7.03215437 L4.91174925,12.9614148 C4.91174925,13.0128617 4.9374323,13.0771703 4.9887984,13.1028939 L6.38852617,13.9131833 C7.146177,14.2990353 7.62131395,13.8488746 7.62131395,13.3987138 L7.62131395,7.54662373 C7.62131395,7.46945339 7.68552163,7.39228294 7.77541236,7.39228294 L8.43033088,7.39228294 C8.50738014,7.39228294 8.58442929,7.45659161 8.58442929,7.54662373 L8.58442929,13.3987138 C8.58442929,14.414791 8.0322432,15.0064308 7.06912774,15.0064308 C6.77377238,15.0064308 6.5426247,15.0064308 5.88770618,14.6848874 L4.53934462,13.9131833 C4.20546463,13.7202572 4,13.3601286 4,12.9742764 L4,7.04501604 C4,6.65916402 4.20546463,6.29903533 4.53934462,6.10610932 L9.66311853,3.13504817 C9.98415706,2.95498394 10.4207694,2.95498394 10.7418079,3.13504817 L15.8655818,6.10610932 C16.1994618,6.29903533 16.4049264,6.65916402 16.4049264,7.04501604 L16.4049264,12.9742764 C16.4049264,13.3601286 16.1994618,13.7202572 15.8655818,13.9131833 L10.7418079,16.8842443 C10.5748678,16.9614147 10.3822448,17 10.2024632,17 L10.2024632,17 L10.2024632,17 Z M11.7819725,12.9228296 C9.53470317,12.9228296 9.07240781,11.8938906 9.07240781,11.0192926 C9.07240781,10.9421221 9.13661551,10.8649518 9.22650621,10.8649518 L9.89426631,10.8649518 C9.97131549,10.8649518 10.0355231,10.9163987 10.0355231,10.9935691 C10.1382555,11.6752411 10.4336109,12.0096463 11.794814,12.0096463 C12.8735033,12.0096463 13.3357987,11.7652733 13.3357987,11.1864951 C13.3357987,10.85209 13.2073833,10.607717 11.5251417,10.4405144 C10.125414,10.2990353 9.2521894,9.99035361 9.2521894,8.87138259 C9.2521894,7.82958196 10.125414,7.2122186 11.5893495,7.2122186 C13.2330664,7.2122186 14.0420833,7.77813507 14.1448156,9.0128617 C14.1448156,9.0514469 14.131974,9.09003216 14.106291,9.12861736 C14.080608,9.1543408 14.0420833,9.18006424 14.0035587,9.18006424 L13.3357987,9.18006424 C13.271591,9.18006424 13.2073833,9.12861736 13.1945417,9.06430867 C13.0404433,8.3569132 12.6423555,8.12540187 11.5893495,8.12540187 C10.4079278,8.12540187 10.266671,8.53697746 10.266671,8.84565911 C10.266671,9.2186495 10.4336109,9.33440516 12.0259618,9.54019296 C13.605471,9.74598071 14.3502803,10.0418006 14.3502803,11.1479099 C14.3374387,12.2797427 13.412848,12.9228296 11.7819725,12.9228296 L11.7819725,12.9228296 L11.7819725,12.9228296 Z" id="Shape" fill="#539E43" sketch:type="MSShapeGroup" mask="url(#mask-2)"></path>
            </g>
        </g>
    </g>
</svg>