<svg xmlns="http://www.w3.org/2000/svg" xmlns:xlink="http://www.w3.org/1999/xlink" width="148" height="20" viewBox="0 0 148 20">
  <defs>
    <rect id="npm-a" width="148" height="20" rx="3"/>
    <rect id="npm-c" width="43" height="20"/>
    <filter id="npm-d" width="100%" height="100%" x="0%" y="0%" filterUnits="objectBoundingBox">
      <feOffset in="SourceAlpha" result="shadowOffsetInner1"/>
      <feComposite in="shadowOffsetInner1" in2="SourceAlpha" k2="-1" k3="1" operator="arithmetic" result="shadowInnerInner1"/>
      <feColorMatrix in="shadowInnerInner1" values="0 0 0 0 0   0 0 0 0 0   0 0 0 0 0  0 0 0 0.5 0"/>
    </filter>
    <text id="npm-f" fill="#FFF" font-family="AvenirNext-Medium, Avenir Next" font-size="12" font-weight="400">
      <tspan x="48" y="13">get this with npm</tspan>
    </text>
    <filter id="npm-e" width="100.7%" height="118.8%" x="-.3%" y="-3.1%" filterUnits="objectBoundingBox">
      <feOffset dy="1" in="SourceAlpha" result="shadowOffsetOuter1"/>
      <feColorMatrix in="shadowOffsetOuter1" values="0 0 0 0 0.347417092   0 0 0 0 0.347417092   0 0 0 0 0.347417092  0 0 0 0.498161765 0"/>
    </filter>
  </defs>
  <g fill="none" fill-rule="evenodd">
    <mask id="npm-b" fill="#fff">
      <use xlink:href="#npm-a"/>
    </mask>
    <use fill="#CB3837" xlink:href="#npm-a"/>
    <g mask="url(#npm-b)">
      <use fill="#FFBA49" xlink:href="#npm-c"/>
      <use fill="#000" filter="url(#npm-d)" xlink:href="#npm-c"/>
    </g>
    <g fill="#FFF" mask="url(#npm-b)">
      <use filter="url(#npm-e)" xlink:href="#npm-f"/>
      <use xlink:href="#npm-f"/>
    </g>
    <g mask="url(#npm-b)">
      <g transform="translate(5 4)">
        <polygon fill="#CB3837" points="0 0 0 11.115 9.452 11.115 9.452 12.978 17 12.978 17 11.115 34 11.115 34 0 0 0"/>
        <polygon fill="#FFF" points="5.645 1.863 1.903 1.863 1.903 3.726 1.903 9.252 5.645 9.252 5.645 3.726 7.548 3.726 7.548 9.252 9.452 9.252 9.452 3.726 9.452 1.863 5.645 1.863"/>
        <path fill="#FFF" d="M11.3552124,1.86316602 L11.3552124,8.86610039 L11.3552124,9.25158302 L11.3552124,11.114749 L15.1621621,11.114749 L15.1621621,9.25158302 L18.9034749,9.25158302 L18.9034749,1.86316602 L11.3552124,1.86316602 L11.3552124,1.86316602 L11.3552124,1.86316602 Z M17,7.38841698 L15.1621621,7.38841698 L15.1621621,3.72633205 L17,3.72633205 L17,7.38841698 L17,7.38841698 L17,7.38841698 Z"/>
        <polygon fill="#FFF" points="24.548 1.863 20.807 1.863 20.807 3.726 20.807 9.252 24.548 9.252 24.548 3.726 26.452 3.726 26.452 9.252 28.355 9.252 28.355 3.726 30.259 3.726 30.259 9.252 32.162 9.252 32.162 3.726 32.162 1.992 32.162 1.863 24.548 1.863"/>
      </g>
    </g>
  </g>
</svg>
