<?xml version="1.0" encoding="UTF-8" standalone="no"?>
<svg width="77px" height="20px" viewBox="0 0 77 20" version="1.1" xmlns="http://www.w3.org/2000/svg" xmlns:xlink="http://www.w3.org/1999/xlink" xmlns:sketch="http://www.bohemiancoding.com/sketch/ns">
    <!-- Generator: Sketch 3.5.1 (25234) - http://www.bohemiancoding.com/sketch -->
    <title>qzone</title>
    <desc>Created with Sketch.</desc>
    <defs>
        <rect id="path-1" x="0" y="0" width="77" height="20" rx="3"></rect>
    </defs>
    <g id="Page-1" stroke="none" stroke-width="1" fill="none" fill-rule="evenodd" sketch:type="MSPage">
        <g id="icon" sketch:type="MSLayerGroup" transform="translate(-156.000000, -30.000000)">
            <g id="qzone" transform="translate(156.000000, 30.000000)">
                <mask id="mask-2" sketch:name="Mask" fill="white">
                    <use xlink:href="#path-1"></use>
                </mask>
                <use id="Mask" fill="#FCB725" sketch:type="MSShapeGroup" xlink:href="#path-1"></use>
                <rect id="颜色" fill="#FDAC00" sketch:type="MSShapeGroup" mask="url(#mask-2)" x="0" y="0" width="22" height="20"></rect>
                <text id="Cancel" fill="#FFFFFF" sketch:type="MSTextLayer" mask="url(#mask-2)" font-family="PingFang SC" font-size="12" font-weight="526" sketch:alignment="middle">
                    <tspan x="26.2058507" y="14">QQzone</tspan>
                </text>
                <path d="M10.900643,3.0451652 C10.8294006,3.07444291 10.6288483,3.28768224 10.6288483,3.33599046 C10.6288483,3.3520932 10.3150888,4.01816113 9.93057487,4.81353894 C9.54606093,5.60891676 9.21619872,6.30377444 9.19668025,6.35891412 C9.18057751,6.41063808 9.1512998,6.47212127 9.13861279,6.49163975 C9.12251005,6.51115822 9.03174914,6.68584856 8.9351327,6.87956942 C8.83168478,7.09280875 8.72189337,7.27091482 8.66041017,7.31922305 C8.51158181,7.4451172 8.61210195,7.4324302 5.63455874,7.76522018 C4.28973588,7.91697631 4.14090751,7.93991052 4.06039381,8.01408072 C4.00232635,8.06580468 3.97939214,8.25318203 4.02184482,8.36346141 C4.03453183,8.39273912 4.61325458,8.94218416 5.30860022,9.58531788 C7.50686836,11.6157271 7.36487146,11.4732423 7.36487146,11.6254864 C7.36487146,11.6996566 7.31949101,11.9680356 7.26776705,12.2266554 C7.21262736,12.4852752 7.09014894,13.1318246 6.9896288,13.6651669 C6.88910866,14.1985092 6.77297373,14.8094375 6.73100902,15.0231647 C6.50801045,16.1610918 6.50459472,16.1932973 6.6212176,16.3162637 C6.73100902,16.4323986 6.85739113,16.4197116 7.19018112,16.2518527 C7.50052485,16.0932651 7.52980257,16.0771623 8.1407308,15.7185104 C8.36372937,15.5892005 8.65455463,15.4208537 8.78728026,15.3466835 C8.92000588,15.2725133 9.16545069,15.1271006 9.3303818,15.0265805 C9.4953129,14.9265483 9.6373098,14.8455466 9.64706904,14.8455466 C9.65341254,14.8455466 9.75393268,14.7874792 9.86713983,14.7162367 C9.98034698,14.6449943 10.0837949,14.5869269 10.0964819,14.5869269 C10.1091689,14.5869269 10.2257918,14.5225159 10.3551017,14.4415142 C10.6620297,14.2507211 10.9274809,14.1536167 11.0792371,14.1828944 C11.143648,14.1955814 11.2988199,14.2570646 11.4217863,14.3253793 C11.745305,14.4966539 13.7815698,15.6702022 14.4154322,16.0483726 C14.9551181,16.3718913 15.1137057,16.4328865 15.2981552,16.3845783 C15.4211216,16.3553006 15.4567428,16.1776825 15.4142902,15.825374 C15.3947717,15.6667864 15.3659819,15.4891683 15.3493912,15.4276851 C15.3235292,15.3242372 15.2166656,14.751858 14.9580458,13.3167622 C14.8384952,12.6345915 14.8384952,12.6219045 15.1068742,12.5213843 C15.4787011,12.3823152 15.6533915,12.2593488 15.5855648,12.1915221 C15.5631185,12.1690759 15.3562227,12.1949379 14.9258403,12.2725238 C14.1275348,12.4179364 13.9626036,12.4408706 13.1184296,12.5179686 C12.1581207,12.6087295 11.27247,12.62776 10.0891625,12.5857953 C9.16447477,12.5535898 8.06558468,12.4725882 8.00410148,12.4340392 C7.95579326,12.4018337 7.97823951,12.3013135 8.05240971,12.2369026 C8.09095869,12.2012814 8.58233628,11.8489729 9.14202852,11.451284 C10.8942995,10.2099091 12.0322266,9.38866926 12.1259152,9.30132409 C12.2874306,9.14956795 12.2747436,9.14273648 11.6023322,9.05587927 C10.5385753,8.92022588 10.2604371,8.89729167 8.52768455,8.81677797 C7.9489618,8.79091599 7.42537873,8.75871051 7.36389554,8.74895127 C6.73003309,8.64208762 9.95985258,8.35126236 11.3241939,8.39322708 C12.2196039,8.41908906 13.2736015,8.49325926 13.894289,8.57426093 C14.4730117,8.65184686 14.508633,8.65819037 14.508633,8.72308929 C14.508633,8.77481325 14.4471498,8.8201937 13.0862242,9.75756842 C12.5270199,10.1454981 11.9321944,10.555874 11.7638475,10.6724969 C11.5989164,10.7886318 11.4276418,10.9086704 11.3886049,10.9345324 C11.207571,11.0574988 10.5995706,11.4810497 10.4317117,11.6035281 C10.324848,11.681114 10.2409186,11.7650435 10.2409186,11.7909054 C10.2409186,11.8523886 10.3995062,11.8909376 10.8874681,11.9494931 C12.1839827,12.1012492 14.5954902,12.1856666 14.7023538,12.0788029 C14.7248001,12.0563567 14.7218723,11.9851143 14.6862511,11.8362859 C14.6603891,11.7230788 14.6379428,11.6162151 14.6379428,11.6001124 C14.6379428,11.5547319 15.1873879,11.0052869 15.9471445,10.2938385 C17.9546195,8.41225759 18,8.36687714 18,8.21853674 C18,8.08922685 17.8931364,7.97260397 17.7350367,7.93405498 C17.6574508,7.91453651 17.1953509,7.86281255 16.7069011,7.81450433 C16.2189392,7.76912387 15.6787655,7.71739992 15.5109066,7.70129718 C15.3425598,7.6817787 14.9873235,7.64615749 14.7189445,7.61736774 C13.6942246,7.51391983 13.3804652,7.47488288 13.306295,7.43974962 C13.1638101,7.37533866 13.0315724,7.10988741 12.051745,4.90527577 C11.3534716,3.32769511 11.2919884,3.20131299 11.194884,3.11445578 C11.1138824,3.04028558 10.9879882,3.01100787 10.900643,3.04662908 L10.900643,3.0451652 Z" id="Shape" fill="#FFFFFF" sketch:type="MSShapeGroup" mask="url(#mask-2)"></path>
            </g>
        </g>
    </g>
</svg>