<?xml version="1.0" encoding="UTF-8" standalone="no"?>
<svg width="67px" height="20px" viewBox="0 0 67 20" version="1.1" xmlns="http://www.w3.org/2000/svg" xmlns:xlink="http://www.w3.org/1999/xlink" xmlns:sketch="http://www.bohemiancoding.com/sketch/ns">
    <!-- Generator: Sketch 3.5.1 (25234) - http://www.bohemiancoding.com/sketch -->
    <title>reddit</title>
    <desc>Created with Sketch.</desc>
    <defs>
        <rect id="path-1" x="0" y="0" width="67" height="20" rx="3"></rect>
        <filter x="-50%" y="-50%" width="200%" height="200%" filterUnits="objectBoundingBox" id="filter-3">
            <feOffset dx="0" dy="0" in="SourceAlpha" result="shadowOffsetInner1"></feOffset>
            <feGaussianBlur stdDeviation="0" in="shadowOffsetInner1" result="shadowBlurInner1"></feGaussianBlur>
            <feComposite in="shadowBlurInner1" in2="SourceAlpha" operator="arithmetic" k2="-1" k3="1" result="shadowInnerInner1"></feComposite>
            <feColorMatrix values="0 0 0 0 0   0 0 0 0 0   0 0 0 0 0  0 0 0 0.35 0" in="shadowInnerInner1" type="matrix" result="shadowMatrixInner1"></feColorMatrix>
            <feMerge>
                <feMergeNode in="SourceGraphic"></feMergeNode>
                <feMergeNode in="shadowMatrixInner1"></feMergeNode>
            </feMerge>
        </filter>
        <filter x="-50%" y="-50%" width="200%" height="200%" filterUnits="objectBoundingBox" id="filter-4">
            <feOffset dx="0" dy="1" in="SourceAlpha" result="shadowOffsetOuter1"></feOffset>
            <feGaussianBlur stdDeviation="0" in="shadowOffsetOuter1" result="shadowBlurOuter1"></feGaussianBlur>
            <feColorMatrix values="0 0 0 0 0.347417092   0 0 0 0 0.347417092   0 0 0 0 0.347417092  0 0 0 0.348713235 0" in="shadowBlurOuter1" type="matrix" result="shadowMatrixOuter1"></feColorMatrix>
            <feMerge>
                <feMergeNode in="shadowMatrixOuter1"></feMergeNode>
                <feMergeNode in="SourceGraphic"></feMergeNode>
            </feMerge>
        </filter>
    </defs>
    <g id="Page-1" stroke="none" stroke-width="1" fill="none" fill-rule="evenodd" sketch:type="MSPage">
        <g id="GET" sketch:type="MSLayerGroup" transform="translate(-152.000000, -61.000000)">
            <g id="reddit" transform="translate(152.000000, 61.000000)">
                <mask id="mask-2" sketch:name="Mask" fill="white">
                    <use xlink:href="#path-1"></use>
                </mask>
                <use id="Mask" fill="#242424" sketch:type="MSShapeGroup" xlink:href="#path-1"></use>
                <rect id="颜色" fill="#FF4500" filter="url(#filter-3)" sketch:type="MSShapeGroup" mask="url(#mask-2)" x="0" y="0" width="22" height="20"></rect>
                <text id="Cancel" fill="#FFFFFF" filter="url(#filter-4)" sketch:type="MSTextLayer" mask="url(#mask-2)" font-family="Avenir Next" font-size="12" font-weight="420">
                    <tspan x="26" y="14">Reddit</tspan>
                </text>
                <path d="M15.1363903,9 C15.7677183,9 16.277637,9.57075121 16.277637,10.2773956 C16.277637,10.8155324 15.9765422,11.2775691 15.5540381,11.4623838 C15.3996055,10.7068179 14.9324228,10.0164807 14.2525312,9.47834387 C14.4550418,9.18481468 14.7755621,9 15.1363903,9 L15.1363903,9 Z M14.2510743,9.47834387 C14.9299947,10.0164807 15.3971773,10.7068179 15.5525812,11.4623838 C15.4214592,11.5178282 15.2806245,11.5493554 15.1363903,11.5493554 C14.5099187,11.5493554 14,10.9786042 14,10.2773956 C14,9.97299491 14.0908141,9.6957729 14.2510743,9.47834387 L14.2510743,9.47834387 Z" id="Shape" fill="#FFFFFF" sketch:type="MSShapeGroup" mask="url(#mask-2)"></path>
                <ellipse id="Oval" fill="#FFFFFF" sketch:type="MSShapeGroup" mask="url(#mask-2)" cx="14.8984283" cy="5.00560927" rx="0.898428255" ry="1.00560927"></ellipse>
                <path d="M12.4829142,10.0005436 C12.9384416,10.0005436 13.3133533,10.4299659 13.3133533,10.9463599 C13.3133533,11.4573181 12.9384416,11.875869 12.4829142,11.875869 C12.0215591,11.875869 11.637906,11.4573181 11.637906,10.9463599 C11.6364491,10.4299659 12.0196166,10.0005436 12.4829142,10.0005436 L12.4829142,10.0005436 Z M9.67059092,10.9458163 C9.67059092,11.4567745 9.30150688,11.8753254 8.84015183,11.8753254 C8.38365315,11.8753254 8,11.4567745 8,10.9458163 C8,10.4294223 8.38365315,10 8.84015183,10 C9.30150688,10 9.67059092,10.4294223 9.67059092,10.9458163 L9.67059092,10.9458163 Z" id="Shape" fill="#FF4500" sketch:type="MSShapeGroup" mask="url(#mask-2)"></path>
                <path d="M13.8440071,11.0385707 C13.8440071,10.5221768 13.4700667,10.0927544 13.013568,10.0927544 C12.552213,10.0927544 12.1685598,10.5221768 12.1685598,11.0385707 C12.1685598,11.5495289 12.552213,11.9680798 13.013568,11.9680798 C13.4700667,11.9680798 13.8440071,11.5506161 13.8440071,11.0385707 L13.8440071,11.0385707 Z M6.52545912,11.2886141 C7.15095944,11.2886141 7.66670582,10.7178629 7.66670582,10.0166543 C7.66670582,9.70138217 7.56472208,9.4132887 7.39474916,9.19585967 C8.33688474,8.45660097 9.67724257,8 11.1632915,8 C12.6687658,8 14.0188364,8.46747242 14.960972,9.21760257 C14.8007118,9.43503161 14.7074695,9.71225362 14.7074695,10.0166543 C14.7074695,10.7178629 15.2183595,11.2886141 15.8438599,11.2886141 C15.9905222,11.2886141 16.1318425,11.2559997 16.2615076,11.2016425 C16.3003585,11.3864572 16.319784,11.5767076 16.319784,11.766958 C16.319784,13.8553638 14.0130088,15.5393517 11.1623202,15.5393517 C8.31163162,15.5393517 6,13.8542767 6,11.766958 C6,11.5658361 6.01942548,11.37015 6.0631328,11.1798996 C6.2039675,11.250564 6.3593713,11.2886141 6.52448785,11.2886141 L6.52545912,11.2886141 Z M9.37129132,10.0927544 C8.91479264,10.0927544 8.5311395,10.5232639 8.5311395,11.0385707 C8.5311395,11.5495289 8.91479264,11.969167 9.37129132,11.969167 C9.83264637,11.969167 10.2017304,11.5506161 10.2017304,11.0385707 C10.2017304,10.5221768 9.83264637,10.0927544 9.37129132,10.0927544 L9.37129132,10.0927544 Z" id="Shape" fill="#FFFFFF" sketch:type="MSShapeGroup" mask="url(#mask-2)"></path>
                <path d="M7.60260175,9.82079459 C7.60260175,10.5220032 7.08685537,11.0927544 6.46135505,11.0927544 C6.29623851,11.0927544 6.1408347,11.0547043 6,10.9840399 C6.16026018,10.2230383 6.64006943,9.53270113 7.32967382,9 C7.49964673,9.21742903 7.60260175,9.5055225 7.60260175,9.82079459 L7.60260175,9.82079459 Z" id="Shape" fill="#FFFFFF" sketch:type="MSShapeGroup" mask="url(#mask-2)"></path>
                <path d="M7.00956547,9.45660097 C6.31996108,9.98930209 5.83918055,10.6796393 5.67892038,11.4406409 C5.2816694,11.2460419 5,10.7992252 5,10.2773956 C5,9.57075121 5.50991874,9 6.1412467,9 C6.49090527,9 6.80171288,9.17394322 7.00956547,9.45660097 L7.00956547,9.45660097 Z" id="Shape" fill="#FFFFFF" sketch:type="MSShapeGroup" mask="url(#mask-2)"></path>
                <g id="Group" mask="url(#mask-2)" stroke="#000000" stroke-width="1.1" sketch:type="MSShapeGroup">
                    <g transform="translate(5.000000, 4.000000)">
                        <path d="M0.706116045,6.4761237 C0.307893791,6.28152471 0.0262243923,5.83470805 0.0262243923,5.31287838 C0.0262243923,4.60623403 0.537114406,4.03548282 1.1674711,4.03548282 C1.51810093,4.03548282 1.82890855,4.20942604 2.03773241,4.49208379 M9.60249832,4.51437026 C9.80646582,4.22084107 10.1269862,4.03602639 10.4853862,4.03602639 C11.1176854,4.03602639 11.6280898,4.6067776 11.6280898,5.31342195 C11.6280898,5.8515588 11.3269949,6.31359549 10.9044908,6.49841017" id="Shape"></path>
                        <path d="M8.98671074,0.834383907 L6.71004498,0.236454071 L5.86989315,3.19892462" id="Shape"></path>
                        <ellipse id="Oval" cx="9.91913358" cy="1.04094149" rx="0.898428255" ry="1.00560927"></ellipse>
                        <path d="M2.0362755,4.49262736 C2.97841108,3.75336865 4.31876891,3.29676769 5.8048178,3.29676769 C7.31126345,3.29676769 8.66036274,3.7642401 9.60249832,4.51437026 C10.2814187,5.05250711 10.7486014,5.74284429 10.9040052,6.49841017 C10.9428562,6.68322485 10.9622816,6.87347525 10.9622816,7.06372565 C10.9622816,9.15104435 8.65550638,10.8361193 5.8048178,10.8361193 C2.95412923,10.8361193 0.642497612,9.15104435 0.642497612,7.06372565 C0.642497612,6.8626038 0.661923088,6.66691767 0.705630408,6.47666727 C0.865890583,5.71566566 1.34667111,5.02532848 2.0362755,4.49262736 L2.0362755,4.49262736 Z" id="Shape"></path>
                        <path d="M4.04244151,8.8031579 C4.49408382,9.30324467 5.2176828,9.40108774 5.81987255,9.40108774 M7.61235833,8.8031579 C7.16071601,9.30324467 6.43711704,9.40108774 5.83492729,9.40108774" id="Shape"></path>
                    </g>
                </g>
            </g>
        </g>
    </g>
</svg>