<?xml version="1.0" encoding="UTF-8" standalone="no"?>
<svg width="71px" height="20px" viewBox="0 0 71 20" version="1.1" xmlns="http://www.w3.org/2000/svg" xmlns:xlink="http://www.w3.org/1999/xlink" xmlns:sketch="http://www.bohemiancoding.com/sketch/ns">
    <!-- Generator: Sketch 3.5.1 (25234) - http://www.bohemiancoding.com/sketch -->
    <title>redhat</title>
    <desc>Created with Sketch.</desc>
    <defs>
        <rect id="path-1" x="0" y="0" width="71" height="20" rx="3"></rect>
        <filter x="-50%" y="-50%" width="200%" height="200%" filterUnits="objectBoundingBox" id="filter-3">
            <feOffset dx="0" dy="0" in="SourceAlpha" result="shadowOffsetInner1"></feOffset>
            <feGaussianBlur stdDeviation="0" in="shadowOffsetInner1" result="shadowBlurInner1"></feGaussianBlur>
            <feComposite in="shadowBlurInner1" in2="SourceAlpha" operator="arithmetic" k2="-1" k3="1" result="shadowInnerInner1"></feComposite>
            <feColorMatrix values="0 0 0 0 0   0 0 0 0 0   0 0 0 0 0  0 0 0 0.35 0" in="shadowInnerInner1" type="matrix" result="shadowMatrixInner1"></feColorMatrix>
            <feMerge>
                <feMergeNode in="SourceGraphic"></feMergeNode>
                <feMergeNode in="shadowMatrixInner1"></feMergeNode>
            </feMerge>
        </filter>
        <filter x="-50%" y="-50%" width="200%" height="200%" filterUnits="objectBoundingBox" id="filter-4">
            <feOffset dx="0" dy="1" in="SourceAlpha" result="shadowOffsetOuter1"></feOffset>
            <feGaussianBlur stdDeviation="0" in="shadowOffsetOuter1" result="shadowBlurOuter1"></feGaussianBlur>
            <feColorMatrix values="0 0 0 0 0.347417092   0 0 0 0 0.347417092   0 0 0 0 0.347417092  0 0 0 0.348713235 0" in="shadowBlurOuter1" type="matrix" result="shadowMatrixOuter1"></feColorMatrix>
            <feMerge>
                <feMergeNode in="shadowMatrixOuter1"></feMergeNode>
                <feMergeNode in="SourceGraphic"></feMergeNode>
            </feMerge>
        </filter>
    </defs>
    <g id="Page-1" stroke="none" stroke-width="1" fill="none" fill-rule="evenodd" sketch:type="MSPage">
        <g id="GET" sketch:type="MSLayerGroup" transform="translate(-227.000000, -91.000000)">
            <g id="redhat" transform="translate(227.000000, 91.000000)">
                <mask id="mask-2" sketch:name="Mask" fill="white">
                    <use xlink:href="#path-1"></use>
                </mask>
                <use id="Mask" fill="#000000" sketch:type="MSShapeGroup" xlink:href="#path-1"></use>
                <rect id="颜色" fill="#CB0000" filter="url(#filter-3)" sketch:type="MSShapeGroup" mask="url(#mask-2)" x="0" y="0" width="22" height="20"></rect>
                <text id="Cancel" fill="#FFFFFF" filter="url(#filter-4)" sketch:type="MSTextLayer" mask="url(#mask-2)" font-family="Avenir Next" font-size="12" font-weight="420">
                    <tspan x="26" y="14">Redhat</tspan>
                </text>
                <path d="M16.790689,12.8912797 C16.5435714,12.839612 16.2814815,12.8074277 16.016287,12.8074277 C15.5630628,12.8074277 15.1506994,12.8787156 14.8462465,12.9937048 C14.8126466,13.0089092 14.7888612,13.0407748 14.7888612,13.076965 C14.7888612,13.0900299 14.7925667,13.1036411 14.798175,13.114703 C14.8340784,13.2096169 14.7748904,13.3124972 14.4805526,13.371403 C14.0440032,13.4584871 13.7683932,13.8679143 13.6105084,14.0040714 C13.4253329,14.1638545 12.9024551,14.2621371 12.9810721,14.1669045 C13.0426136,14.0923846 13.2780638,13.8599024 13.4212769,13.6086195 C13.5493173,13.3841037 13.6633369,13.320327 13.8203705,13.1060993 C13.8665893,13.043233 14.045205,12.8225866 14.0971322,12.6479177 C14.1555191,12.4774368 14.1357897,12.2636643 14.1582231,12.1756698 C14.1902708,12.0487082 14.322167,11.7729799 14.3321318,11.6175213 C14.3378403,11.5293447 13.9279806,11.7429352 13.7334913,11.7429352 C13.539002,11.7429352 13.34942,11.637278 13.1757116,11.6294482 C12.9606417,11.6202527 12.8224862,11.7802179 12.6278466,11.7522672 C12.5166813,11.7363344 12.4232423,11.6473839 12.2289533,11.6406466 C11.952492,11.6314511 11.6146394,11.7802179 10.9802458,11.7617814 C10.3560172,11.7433904 9.77950965,11.0448058 9.7006924,10.933777 C9.60860542,10.8032646 9.49593782,10.8032646 9.37315518,10.9055532 C9.25037254,11.0078417 9.09904744,10.9276315 9.05588323,10.8590749 C8.97406152,10.7287447 8.75513586,10.3479965 8.41613158,10.268287 C7.94738431,10.1578956 7.70988102,10.5042744 7.7407269,10.7799573 C7.77197338,11.0598281 7.97096939,11.1381719 8.06325667,11.2868932 C8.15519343,11.4357965 8.20241367,11.5319395 8.37562132,11.5978557 C8.49860427,11.6441974 8.54432227,11.7132091 8.50771782,11.804891 C8.47567015,11.8847825 8.34777991,11.903037 8.263805,11.9066787 C8.0851893,11.914372 7.96000308,11.870352 7.86861714,11.8173185 C7.7625093,11.7559545 7.67613081,11.6704182 7.58339286,11.5252022 C7.47608324,11.3651004 7.30728214,11.2953603 7.11043933,11.2953603 C7.01664982,11.2953603 6.92891932,11.3178938 6.85100342,11.3543571 C6.5426948,11.5000284 6.17549858,11.5865207 5.78026066,11.5865207 L5.3346478,11.5867028 C5.1175749,11.0018328 5,10.3754464 5,9.72406841 C5,6.50582664 7.86976886,3.89708243 11.4096846,3.89708243 C14.9496003,3.89708243 17.8190687,6.50582664 17.8190687,9.72406841 C17.8190687,10.8917599 17.4412567,11.9793778 16.790689,12.8912797" id="Shape" fill="#000000" sketch:type="MSShapeGroup" mask="url(#mask-2)"></path>
                <path d="M16.790689,12.8911432 C16.5435714,12.8394754 16.2814815,12.806927 16.016287,12.806927 C15.5630628,12.806927 15.1506994,12.8783969 14.8462465,12.9935682 C14.8126466,13.0085906 14.7888612,13.0406383 14.7888612,13.0768285 C14.7888612,13.0900299 14.7925667,13.1035045 14.798175,13.114703 C14.8340784,13.2094803 14.7748904,13.3121785 14.4805526,13.3710843 C14.0440032,13.4583505 13.7683932,13.8677322 13.6105084,14.0036162 C13.4253329,14.1636724 12.9024551,14.261955 12.9810721,14.1665859 C13.0426136,14.092248 13.2780638,13.8597658 13.4212769,13.6086195 C13.5493173,13.3841037 13.6633369,13.3200084 13.8203705,13.1059627 C13.8665893,13.043233 14.045205,12.8224501 14.0971322,12.6477811 C14.1555191,12.4774368 14.1357897,12.2635277 14.1582231,12.1754877 C14.1902708,12.0483895 14.322167,11.7728433 14.3321318,11.6170661 C14.3378403,11.5291626 13.9279806,11.7427986 13.7334913,11.7427986 C13.539002,11.7427986 13.34942,11.6369593 13.1757116,11.6293116 C12.9606417,11.6201161 12.8224862,11.7800358 12.6278466,11.7522672 C12.5166813,11.7360158 12.4232423,11.6469287 12.2289533,11.6403735 C11.952492,11.6313146 11.6146394,11.7800358 10.9802458,11.7615082 C10.3560172,11.7430717 9.77950965,11.0444871 9.7006924,10.9333217 C9.60860542,10.8031281 9.49593782,10.8031281 9.37315518,10.9054166 C9.25037254,11.0076596 9.09904744,10.9273128 9.05588323,10.8586197 C8.97406152,10.7286081 8.75513586,10.34786 8.41613158,10.2679684 C7.94738431,10.1575769 7.70988102,10.5040924 7.7407269,10.7798207 C7.77197338,11.059646 7.97096939,11.1380354 8.06325667,11.2867566 C8.15519343,11.4356599 8.20241367,11.5316208 8.37562132,11.5974005 C8.49860427,11.6440153 8.54432227,11.7128905 8.50771782,11.8047544 C8.47567015,11.8844639 8.34777991,11.9027183 8.263805,11.9064056 C8.0851893,11.9142354 7.96000308,11.8700333 7.86861714,11.8173185 C7.7625093,11.7554993 7.67613081,11.6702361 7.58339286,11.5248835 C7.47608324,11.3647817 7.30728214,11.294723 7.11043933,11.294723 C7.01664982,11.294723 6.92891932,11.3175752 6.85100342,11.3539019 C6.5426948,11.5000284 6.17549858,11.5863841 5.78026066,11.5863841 L5.3346478,11.5865207 C6.18911885,13.8912217 8.58628469,15.5507813 11.4096846,15.5507813 C13.6649894,15.5507813 15.6482395,14.491979 16.790689,12.8911432" id="Shape" fill="#FFFFFF" sketch:type="MSShapeGroup" mask="url(#mask-2)"></path>
                <path d="M12.8213344,12.3568939 C12.8541833,12.3861647 12.9110679,12.4844928 12.8415645,12.6093148 C12.8026066,12.6753676 12.7607443,12.7219824 12.6857327,12.7764271 C12.5956487,12.8420702 12.4193865,12.9179558 12.177677,12.7785666 C12.0476335,12.7035914 12.039872,12.6784631 11.860405,12.699631 C11.7322143,12.7147899 11.6812385,12.5971604 11.727307,12.4993331 C11.7733756,12.4018244 11.9627573,12.3228432 12.1982576,12.4483026 C12.3040149,12.5048868 12.4693108,12.6241551 12.6138758,12.5184979 C12.6737149,12.4747966 12.7096683,12.4456623 12.792792,12.3582596 C12.7965476,12.3546178 12.8017553,12.3524782 12.8076641,12.3524782 C12.8128719,12.3524782 12.8177792,12.354117 12.8213344,12.3568939" id="Shape" fill="#000000" sketch:type="MSShapeGroup" mask="url(#mask-2)"></path>
                <path d="M15.0265147,8.17367124 C14.9632706,8.36718637 14.8732367,8.61482747 14.4724405,8.80192397 C14.4141037,8.82891867 14.3918206,8.78444342 14.4188107,8.74256294 C14.5700858,8.50839643 14.5970759,8.4498548 14.6411414,8.35739909 C14.702683,8.22242558 14.7348809,8.03032164 14.6124488,7.62949813 C14.3714403,6.84087048 13.868442,5.78680253 13.5030986,5.44488483 C13.1502237,5.11489396 12.511123,5.02198302 11.9334136,5.15677444 C11.7207473,5.20643923 11.304428,5.40318644 10.5324296,5.24508763 C9.19654247,4.97149884 8.99854794,5.57967624 8.92198405,5.8446158 C8.84521986,6.10960088 8.66119612,6.86263013 8.66119612,6.86263013 C8.5998048,7.16917703 8.51948533,7.70247032 10.593821,8.06159544 C11.5601584,8.22902631 11.6094317,8.45595478 11.6520952,8.61942522 C11.7288093,8.91217888 11.8514417,9.07960976 11.989447,9.16318863 C12.1275524,9.24690407 11.989447,9.31618895 11.8362691,9.33048294 C11.4247069,9.36926791 9.9036443,8.97272349 9.00375569,8.50794121 C8.26751051,8.09883265 8.25504196,7.73051203 8.42354261,7.41804723 C7.3114884,7.30870276 6.47689692,7.51296115 6.32557182,7.99153668 C6.06583546,8.81294035 8.31222702,10.215982 10.8699317,10.9199837 C13.5541746,11.6589011 16.3148311,11.1430883 16.6216876,9.60939783 C16.761145,8.91245202 16.1154846,8.39695793 15.0265147,8.17367124 M10.9109427,6.67175529 C10.1704912,6.72050963 10.0935768,6.79316316 9.95492057,6.92736278 C9.75942978,7.11673539 9.50184661,6.68172466 9.50184661,6.68172466 C9.34716652,6.65208967 9.15978779,6.42561642 9.26098833,6.21402895 C9.36048634,6.00471759 9.54451008,6.06758384 9.60219589,6.13277171 C9.67240032,6.21202597 9.82197281,6.34176442 10.0163119,6.33716667 C10.2106009,6.33238683 10.4347844,6.29528619 10.7474996,6.29528619 C11.0642708,6.29528619 11.2772876,6.40276424 11.2892554,6.49521996 C11.2995708,6.57406451 11.2636173,6.64858445 10.9109427,6.67175529 M11.6886996,5.5595554 C11.6874978,5.55973749 11.6863461,5.55987406 11.6852946,5.55987406 C11.6738275,5.55987406 11.6645637,5.5517711 11.6645637,5.54207486 C11.6645637,5.53506443 11.6692707,5.52891892 11.6762311,5.52614206 C11.8197445,5.45713032 12.0339632,5.40241256 12.2790277,5.37969695 C12.3525872,5.37282309 12.4244441,5.36927235 12.4935969,5.36868056 C12.5057149,5.36868056 12.517883,5.36881713 12.5302014,5.3689537 C12.9410625,5.37742084 13.2700018,5.52582341 13.2650945,5.70049232 C13.2601872,5.87516124 12.9233862,6.00990713 12.512475,6.00148551 C12.379377,5.99875418 12.2545914,5.98127363 12.1471315,5.95304983 C12.1344627,5.9501364 12.1251989,5.94016703 12.1251989,5.92851333 C12.1251989,5.91685963 12.1344627,5.90689026 12.1474821,5.9041134 C12.4038634,5.85016952 12.5767206,5.7619929 12.5646025,5.67873268 C12.5484285,5.56847777 12.2130796,5.50834286 11.8156885,5.54471515 C11.7721738,5.54867558 11.7296605,5.55372855 11.6886996,5.5595554" id="Shape" fill="#CC0000" sketch:type="MSShapeGroup" mask="url(#mask-2)"></path>
            </g>
        </g>
    </g>
</svg>