<?xml version="1.0" encoding="UTF-8" standalone="no"?>
<svg width="63px" height="20px" viewBox="0 0 63 20" version="1.1" xmlns="http://www.w3.org/2000/svg" xmlns:xlink="http://www.w3.org/1999/xlink" xmlns:sketch="http://www.bohemiancoding.com/sketch/ns">
    <!-- Generator: Sketch 3.5.1 (25234) - http://www.bohemiancoding.com/sketch -->
    <title>redis</title>
    <desc>Created with Sketch.</desc>
    <defs>
        <rect id="path-1" x="0" y="0" width="63" height="20" rx="3"></rect>
        <filter x="-50%" y="-50%" width="200%" height="200%" filterUnits="objectBoundingBox" id="filter-3">
            <feOffset dx="0" dy="0" in="SourceAlpha" result="shadowOffsetInner1"></feOffset>
            <feGaussianBlur stdDeviation="0" in="shadowOffsetInner1" result="shadowBlurInner1"></feGaussianBlur>
            <feComposite in="shadowBlurInner1" in2="SourceAlpha" operator="arithmetic" k2="-1" k3="1" result="shadowInnerInner1"></feComposite>
            <feColorMatrix values="0 0 0 0 0   0 0 0 0 0   0 0 0 0 0  0 0 0 0.35 0" in="shadowInnerInner1" type="matrix" result="shadowMatrixInner1"></feColorMatrix>
            <feMerge>
                <feMergeNode in="SourceGraphic"></feMergeNode>
                <feMergeNode in="shadowMatrixInner1"></feMergeNode>
            </feMerge>
        </filter>
        <filter x="-50%" y="-50%" width="200%" height="200%" filterUnits="objectBoundingBox" id="filter-4">
            <feOffset dx="0" dy="1" in="SourceAlpha" result="shadowOffsetOuter1"></feOffset>
            <feGaussianBlur stdDeviation="0" in="shadowOffsetOuter1" result="shadowBlurOuter1"></feGaussianBlur>
            <feColorMatrix values="0 0 0 0 0.347417092   0 0 0 0 0.347417092   0 0 0 0 0.347417092  0 0 0 0.348713235 0" in="shadowBlurOuter1" type="matrix" result="shadowMatrixOuter1"></feColorMatrix>
            <feMerge>
                <feMergeNode in="shadowMatrixOuter1"></feMergeNode>
                <feMergeNode in="SourceGraphic"></feMergeNode>
            </feMerge>
        </filter>
    </defs>
    <g id="Page-1" stroke="none" stroke-width="1" fill="none" fill-rule="evenodd" sketch:type="MSPage">
        <g id="GET" sketch:type="MSLayerGroup" transform="translate(0.000000, -91.000000)">
            <g id="redis" transform="translate(0.000000, 91.000000)">
                <mask id="mask-2" sketch:name="Mask" fill="white">
                    <use xlink:href="#path-1"></use>
                </mask>
                <use id="Mask" fill="#CB3837" sketch:type="MSShapeGroup" xlink:href="#path-1"></use>
                <rect id="颜色" fill="#FFBA48" filter="url(#filter-3)" sketch:type="MSShapeGroup" mask="url(#mask-2)" x="0" y="0" width="26" height="20"></rect>
                <text id="Cancel" fill="#FFFFFF" filter="url(#filter-4)" sketch:type="MSTextLayer" mask="url(#mask-2)" font-family="Avenir Next" font-size="12" font-weight="420">
                    <tspan x="31" y="13">redis</tspan>
                </text>
                <g mask="url(#mask-2)" id="Group">
                    <g transform="translate(5.000000, 3.000000)">
                        <g>
                            <path d="M15.3731054,10.7509345 C14.5192662,11.2041032 10.096003,13.055852 9.15428606,13.5556676 C8.21263169,14.0556105 7.68949025,14.0507739 6.94559206,13.6886718 C6.20169379,13.3265695 1.49454671,11.3906272 0.646645212,10.9779961 C0.222819463,10.7717443 0,10.5976933 0,10.4332518 L0,8.78660949 C0,8.78660949 6.12806649,7.42824886 7.11740994,7.06691026 C8.10669081,6.70550803 8.44995156,6.69246225 9.29185288,7.00645387 C10.1338167,7.32050913 15.1679114,8.24530165 16,8.55560224 C16,8.55560224 15.9996249,10.0262845 15.9996249,10.178953 C15.99975,10.3417399 15.807744,10.5203091 15.3731054,10.7509345" id="Shape" fill="#912626" sketch:type="MSShapeGroup"></path>
                            <path d="M15.3728076,9.11400426 C14.5189959,9.56696745 10.0958752,11.4187839 9.15418856,11.9185833 C8.21256444,12.4185739 7.68943994,12.4136738 6.94556563,12.0515833 C6.20162886,11.6897472 1.49469585,9.75348545 0.646821662,9.34105855 C-0.201052533,8.92837712 -0.218865016,8.64436835 0.614071691,8.31231412 C1.44694589,7.98013262 6.12806643,6.11017984 7.11750294,5.74878928 C8.10675206,5.38752598 8.44993925,5.37435327 9.29181338,5.68846206 C10.1337501,6.00244358 14.5304959,7.78432372 15.3624951,8.09455067 C16.1946819,8.40515951 16.2266192,8.6608501 15.3728076,9.11400426" id="Shape" fill="#C6302B" sketch:type="MSShapeGroup"></path>
                            <path d="M15.3731054,8.0865498 C14.5192662,8.53971854 10.096003,10.3914673 9.15428606,10.8914739 C8.21263169,11.3912258 7.68949025,11.3863893 6.94559206,11.0242871 C6.20163129,10.6623758 1.49454671,8.72624251 0.646645212,8.31361141 C0.222819463,8.10735953 0,7.93349957 0,7.76905812 L0,6.12222479 C0,6.12222479 6.12806649,4.7639278 7.11740994,4.40252559 C8.10669081,4.04118703 8.44995156,4.02807753 9.29185288,4.34206916 C10.1338167,4.65612444 15.1679114,5.58072605 16,5.8910903 C16,5.8910903 15.9996249,7.3617726 15.9996249,7.51463192 C15.99975,7.67735519 15.807744,7.85592443 15.3731054,8.0865498" id="Shape" fill="#912626" sketch:type="MSShapeGroup"></path>
                            <path d="M15.3728076,6.44961953 C14.5189959,6.90270999 10.0958752,8.75439912 9.15418856,9.25438958 C8.21256444,9.75418907 7.68943994,9.74928907 6.94556563,9.38719855 C6.20162886,9.0253625 1.49469585,7.08916435 0.646821662,6.67667382 C-0.201052533,6.26411968 -0.218865016,5.98004722 0.614071691,5.64786572 C1.44694589,5.31587513 6.12806643,3.4457951 7.11750294,3.08446817 C8.10675206,2.72314124 8.44993925,2.71003216 9.29181338,3.02407732 C10.1337501,3.33805883 14.5304959,5.11981168 15.3624951,5.43016593 C16.1946819,5.74064745 16.2266192,5.99646539 15.3728076,6.44955583 L15.3728076,6.44961953" id="Shape" fill="#C6302B" sketch:type="MSShapeGroup"></path>
                            <path d="M15.3731054,5.32334512 C14.5192662,5.77651383 10.096003,7.62832624 9.15428606,8.1283328 C8.21263169,8.62814839 7.68949025,8.62324826 6.94559206,8.26114596 C6.20163129,7.8992347 1.49454671,5.96303783 0.646645212,5.55053404 C0.222819463,5.3442185 0,5.17029488 0,5.00598065 L0,3.35908373 C0,3.35908373 6.12806649,2.00085038 7.11740994,1.63951182 C8.10669081,1.27810962 8.44995156,1.26506376 9.29185288,1.57905539 C10.1338167,1.89311065 15.1679114,2.81771227 16,3.12807652 C16,3.12807652 15.9996249,4.59875884 15.9996249,4.75155452 C15.99975,4.91415051 15.807744,5.09271972 15.3731054,5.32334512" id="Shape" fill="#912626" sketch:type="MSShapeGroup"></path>
                            <path d="M15.3728076,3.68641554 C14.5189959,4.13950601 10.0958752,5.99132243 9.15418856,6.49118559 C8.21256444,6.99098515 7.68943994,6.98608515 6.94556563,6.62412183 C6.20169136,6.26215853 1.49469585,4.32608765 0.646821662,3.9135335 C-0.201052533,3.50097935 -0.218865016,3.21684325 0.614071691,2.88472539 C1.44694589,2.55267116 6.12806643,0.682782036 7.11750294,0.321327837 C8.10675206,-0.0400627276 8.44993925,-0.0530445334 9.29181338,0.261000622 C10.1337501,0.575045776 14.5304959,2.35679862 15.3624951,2.66715287 C16.1946819,2.97744348 16.2266192,3.23332506 15.3728076,3.68641554" id="Shape" fill="#C6302B" sketch:type="MSShapeGroup"></path>
                            <path d="M9.95518606,2.08454179 L8.57962013,2.22996026 L8.27165119,2.98439352 L7.77422481,2.14250712 L6.18582169,1.9971518 L7.371062,1.56196984 L7.01546513,0.893916278 L8.1251085,1.33579141 L9.17124806,0.98705229 L8.88851938,1.67783735 L9.95518606,2.08454179" id="Shape" fill="#FFFFFF" sketch:type="MSShapeGroup"></path>
                            <path d="M8.18948062,5.74475546 L5.62216279,4.66058915 L9.3009845,4.0856716 L8.18948062,5.74475546" id="Shape" fill="#FFFFFF" sketch:type="MSShapeGroup"></path>
                            <path d="M4.63010078,2.50387484 C5.71605426,2.50387484 6.59636431,2.85135109 6.59636431,3.27990303 C6.59636431,3.70851811 5.71605426,4.05593122 4.63010078,4.05593122 C3.5442093,4.05593122 2.66383721,3.70851811 2.66383721,3.27990303 C2.66383721,2.85135109 3.5442093,2.50387484 4.63010078,2.50387484" id="Shape" fill="#FFFFFF" sketch:type="MSShapeGroup"></path>
                            <path d="M11.5809225,2.29076702 L13.7581628,3.16681382 L11.5827829,4.0419766 L11.5809225,2.29076702" id="Shape" fill="#621B1C" sketch:type="MSShapeGroup"></path>
                            <path d="M9.17217831,3.26089697 L11.5809225,2.29076702 L11.5827829,4.0419766 L11.3466279,4.13605976 L9.17217831,3.26089697" id="Shape" fill="#9A2928" sketch:type="MSShapeGroup"></path>
                        </g>
                    </g>
                </g>
            </g>
        </g>
    </g>
</svg>