<svg xmlns="http://www.w3.org/2000/svg" xmlns:xlink="http://www.w3.org/1999/xlink" width="63" height="20" viewBox="0 0 63 20">
  <defs>
    <rect id="redis-a" width="63" height="20" rx="3"/>
    <rect id="redis-c" width="26" height="20"/>
    <filter id="redis-d" width="100%" height="100%" x="0%" y="0%" filterUnits="objectBoundingBox">
      <feOffset in="SourceAlpha" result="shadowOffsetInner1"/>
      <feComposite in="shadowOffsetInner1" in2="SourceAlpha" k2="-1" k3="1" operator="arithmetic" result="shadowInnerInner1"/>
      <feColorMatrix in="shadowInnerInner1" values="0 0 0 0 0   0 0 0 0 0   0 0 0 0 0  0 0 0 0.5 0"/>
    </filter>
    <text id="redis-f" fill="#FFF" font-family="AvenirNext-Medium, Avenir Next" font-size="12" font-weight="400">
      <tspan x="31" y="13">redis</tspan>
    </text>
    <filter id="redis-e" width="102.8%" height="118.8%" x="-1.4%" y="-3.1%" filterUnits="objectBoundingBox">
      <feOffset dy="1" in="SourceAlpha" result="shadowOffsetOuter1"/>
      <feColorMatrix in="shadowOffsetOuter1" values="0 0 0 0 0.347417092   0 0 0 0 0.347417092   0 0 0 0 0.347417092  0 0 0 0.498161765 0"/>
    </filter>
  </defs>
  <g fill="none" fill-rule="evenodd">
    <mask id="redis-b" fill="#fff">
      <use xlink:href="#redis-a"/>
    </mask>
    <use fill="#CB3837" xlink:href="#redis-a"/>
    <g mask="url(#redis-b)">
      <use fill="#FFBA49" xlink:href="#redis-c"/>
      <use fill="#000" filter="url(#redis-d)" xlink:href="#redis-c"/>
    </g>
    <g fill="#FFF" mask="url(#redis-b)">
      <use filter="url(#redis-e)" xlink:href="#redis-f"/>
      <use xlink:href="#redis-f"/>
    </g>
    <g mask="url(#redis-b)">
      <g transform="translate(5 3)">
        <path fill="#912626" d="M15.3731054,10.7509345 C14.5192662,11.2041032 10.096003,13.055852 9.15428606,13.5556676 C8.21263169,14.0556105 7.68949025,14.0507739 6.94559206,13.6886718 C6.20169379,13.3265695 1.49454671,11.3906272 0.646645212,10.9779961 C0.222819463,10.7717443 0,10.5976933 0,10.4332518 L0,8.78660949 C0,8.78660949 6.12806649,7.42824886 7.11740994,7.06691026 C8.10669081,6.70550803 8.44995156,6.69246225 9.29185288,7.00645387 C10.1338167,7.32050913 15.1679114,8.24530165 16,8.55560224 C16,8.55560224 15.9996249,10.0262845 15.9996249,10.178953 C15.99975,10.3417399 15.807744,10.5203091 15.3731054,10.7509345"/>
        <path fill="#C6302B" d="M15.3728076,9.11400426 C14.5189959,9.56696745 10.0958752,11.4187839 9.15418856,11.9185833 C8.21256444,12.4185739 7.68943994,12.4136738 6.94556562,12.0515833 C6.20162886,11.6897472 1.49469585,9.75348545 0.646821662,9.34105855 C-0.201052533,8.92837712 -0.218865016,8.64436835 0.614071691,8.31231412 C1.44694589,7.98013262 6.12806643,6.11017984 7.11750294,5.74878928 C8.10675206,5.38752598 8.44993925,5.37435327 9.29181337,5.68846206 C10.1337501,6.00244358 14.5304959,7.78432372 15.3624951,8.09455067 C16.1946819,8.40515951 16.2266192,8.6608501 15.3728076,9.11400426"/>
        <path fill="#912626" d="M15.3731054,8.0865498 C14.5192662,8.53971854 10.096003,10.3914673 9.15428606,10.8914739 C8.21263169,11.3912258 7.68949025,11.3863893 6.94559206,11.0242871 C6.20163129,10.6623758 1.49454671,8.72624251 0.646645212,8.31361141 C0.222819463,8.10735953 0,7.93349957 0,7.76905812 L0,6.12222479 C0,6.12222479 6.12806649,4.7639278 7.11740994,4.40252559 C8.10669081,4.04118703 8.44995156,4.02807753 9.29185288,4.34206916 C10.1338167,4.65612444 15.1679114,5.58072605 16,5.8910903 C16,5.8910903 15.9996249,7.3617726 15.9996249,7.51463192 C15.99975,7.67735519 15.807744,7.85592443 15.3731054,8.0865498"/>
        <path fill="#C6302B" d="M15.3728076,6.44961953 C14.5189959,6.90270999 10.0958752,8.75439912 9.15418856,9.25438958 C8.21256444,9.75418907 7.68943994,9.74928907 6.94556562,9.38719855 C6.20162886,9.0253625 1.49469585,7.08916435 0.646821662,6.67667382 C-0.201052533,6.26411968 -0.218865016,5.98004722 0.614071691,5.64786572 C1.44694589,5.31587513 6.12806643,3.4457951 7.11750294,3.08446817 C8.10675206,2.72314124 8.44993925,2.71003216 9.29181337,3.02407732 C10.1337501,3.33805883 14.5304959,5.11981168 15.3624951,5.43016593 C16.1946819,5.74064745 16.2266192,5.99646539 15.3728076,6.44955583 L15.3728076,6.44961953"/>
        <path fill="#912626" d="M15.3731054,5.32334512 C14.5192662,5.77651383 10.096003,7.62832624 9.15428606,8.1283328 C8.21263169,8.62814839 7.68949025,8.62324826 6.94559206,8.26114596 C6.20163129,7.8992347 1.49454671,5.96303783 0.646645212,5.55053404 C0.222819463,5.3442185 0,5.17029488 0,5.00598065 L0,3.35908373 C0,3.35908373 6.12806649,2.00085038 7.11740994,1.63951182 C8.10669081,1.27810962 8.44995156,1.26506376 9.29185288,1.57905539 C10.1338167,1.89311065 15.1679114,2.81771227 16,3.12807652 C16,3.12807652 15.9996249,4.59875884 15.9996249,4.75155452 C15.99975,4.91415051 15.807744,5.09271972 15.3731054,5.32334512"/>
        <path fill="#C6302B" d="M15.3728076,3.68641554 C14.5189959,4.13950601 10.0958752,5.99132243 9.15418856,6.49118559 C8.21256444,6.99098515 7.68943994,6.98608515 6.94556562,6.62412183 C6.20169136,6.26215853 1.49469585,4.32608765 0.646821662,3.9135335 C-0.201052533,3.50097935 -0.218865016,3.21684325 0.614071691,2.88472539 C1.44694589,2.55267116 6.12806643,0.682782036 7.11750294,0.321327837 C8.10675206,-0.0400627276 8.44993925,-0.0530445334 9.29181337,0.261000622 C10.1337501,0.575045776 14.5304959,2.35679862 15.3624951,2.66715287 C16.1946819,2.97744348 16.2266192,3.23332506 15.3728076,3.68641554"/>
        <polyline fill="#FFF" points="9.955 2.085 8.58 2.23 8.272 2.984 7.774 2.143 6.186 1.997 7.371 1.562 7.015 .894 8.125 1.336 9.171 .987 8.889 1.678 9.955 2.085"/>
        <polyline fill="#FFF" points="8.189 5.745 5.622 4.661 9.301 4.086 8.189 5.745"/>
        <path fill="#FFF" d="M4.63010078,2.50387484 C5.71605426,2.50387484 6.59636431,2.85135109 6.59636431,3.27990303 C6.59636431,3.70851811 5.71605426,4.05593122 4.63010078,4.05593122 C3.5442093,4.05593122 2.66383721,3.70851811 2.66383721,3.27990303 C2.66383721,2.85135109 3.5442093,2.50387484 4.63010078,2.50387484"/>
        <polyline fill="#621B1C" points="11.581 2.291 13.758 3.167 11.583 4.042 11.581 2.291"/>
        <polyline fill="#9A2928" points="9.172 3.261 11.581 2.291 11.583 4.042 11.347 4.136 9.172 3.261"/>
      </g>
    </g>
  </g>
</svg>
