<?xml version="1.0" encoding="UTF-8" standalone="no"?>
<svg width="55px" height="20px" viewBox="0 0 55 20" version="1.1" xmlns="http://www.w3.org/2000/svg" xmlns:xlink="http://www.w3.org/1999/xlink" xmlns:sketch="http://www.bohemiancoding.com/sketch/ns">
    <!-- Generator: Sketch 3.5.1 (25234) - http://www.bohemiancoding.com/sketch -->
    <title>sass</title>
    <desc>Created with Sketch.</desc>
    <defs>
        <rect id="path-1" x="0" y="0" width="55" height="20" rx="3"></rect>
        <filter x="-50%" y="-50%" width="200%" height="200%" filterUnits="objectBoundingBox" id="filter-3">
            <feOffset dx="0" dy="0" in="SourceAlpha" result="shadowOffsetInner1"></feOffset>
            <feGaussianBlur stdDeviation="0" in="shadowOffsetInner1" result="shadowBlurInner1"></feGaussianBlur>
            <feComposite in="shadowBlurInner1" in2="SourceAlpha" operator="arithmetic" k2="-1" k3="1" result="shadowInnerInner1"></feComposite>
            <feColorMatrix values="0 0 0 0 0   0 0 0 0 0   0 0 0 0 0  0 0 0 0.35 0" in="shadowInnerInner1" type="matrix" result="shadowMatrixInner1"></feColorMatrix>
            <feMerge>
                <feMergeNode in="SourceGraphic"></feMergeNode>
                <feMergeNode in="shadowMatrixInner1"></feMergeNode>
            </feMerge>
        </filter>
        <filter x="-50%" y="-50%" width="200%" height="200%" filterUnits="objectBoundingBox" id="filter-4">
            <feOffset dx="0" dy="1" in="SourceAlpha" result="shadowOffsetOuter1"></feOffset>
            <feGaussianBlur stdDeviation="0" in="shadowOffsetOuter1" result="shadowBlurOuter1"></feGaussianBlur>
            <feColorMatrix values="0 0 0 0 0.347417092   0 0 0 0 0.347417092   0 0 0 0 0.347417092  0 0 0 0.348713235 0" in="shadowBlurOuter1" type="matrix" result="shadowMatrixOuter1"></feColorMatrix>
            <feMerge>
                <feMergeNode in="shadowMatrixOuter1"></feMergeNode>
                <feMergeNode in="SourceGraphic"></feMergeNode>
            </feMerge>
        </filter>
    </defs>
    <g id="Page-1" stroke="none" stroke-width="1" fill="none" fill-rule="evenodd" sketch:type="MSPage">
        <g id="GET" sketch:type="MSLayerGroup" transform="translate(-146.000000, -91.000000)">
            <g id="sass" transform="translate(146.000000, 91.000000)">
                <mask id="mask-2" sketch:name="Mask" fill="white">
                    <use xlink:href="#path-1"></use>
                </mask>
                <use id="Mask" fill="#5FA558" sketch:type="MSShapeGroup" xlink:href="#path-1"></use>
                <rect id="颜色" fill="#BEE576" filter="url(#filter-3)" sketch:type="MSShapeGroup" mask="url(#mask-2)" x="0" y="0" width="21" height="20"></rect>
                <text id="Cancel" fill="#FFFFFF" filter="url(#filter-4)" sketch:type="MSTextLayer" mask="url(#mask-2)" font-family="Avenir Next" font-size="12" font-weight="420">
                    <tspan x="26" y="14">Sass</tspan>
                </text>
                <path d="M7.82984363,11.566806 C7.60347052,11.7059586 7.26240169,11.9313876 6.99854314,12.1765794 C6.56536723,12.5786766 6.47472062,13.1364353 6.70323576,13.2667353 C6.9146147,13.3871778 7.40810808,13.2438622 7.76129882,12.8652122 C8.13196654,12.4676608 8.28482925,11.9636874 8.12695226,11.3915733 C8.10840427,11.4024356 8.09019705,11.4133458 8.07233061,11.4234904 L8.07272007,11.424256 L8.04876834,11.4376066 C7.95661257,11.4916789 7.88130092,11.5362767 7.82984363,11.566806 L7.82984363,11.566806 L7.82984363,11.566806 Z M14.1912202,11.3863096 C14.0629908,11.6602124 14.0565647,11.7483551 14.0955106,11.7757741 C14.2815747,11.7100738 14.5893935,11.5517327 14.5918276,11.1274323 C14.5922171,11.0638853 14.5779531,10.9956968 14.5550724,10.9244457 C14.3561562,11.0975729 14.2415091,11.2788349 14.1912202,11.3863096 L14.1912202,11.3863096 L14.1912202,11.3863096 Z M16.187685,10.5581414 C15.6906378,10.501198 15.3027852,10.5697215 15.001782,10.6929873 C15.0575234,10.8355852 15.1003639,10.9841167 15.1064005,11.1337487 C15.1203723,11.4621545 14.8903967,11.7051929 14.6507333,11.8787029 C14.5107714,11.9798613 14.361852,12.0472842 14.2368356,12.088006 C14.1368907,12.1294455 14.0040364,12.1722727 13.9097386,12.1533713 C13.7018648,12.1118361 13.5912098,11.9303349 13.7326321,11.5299602 C13.8090148,11.3132881 14.0293513,10.9834468 14.3850248,10.6993516 C14.3039686,10.5353162 14.2136141,10.3681705 14.1675606,10.2146146 C14.0768166,9.91190514 14.0494084,9.7289205 14.0494084,9.7289205 C14.0494084,9.7289205 13.7562431,10.3263481 13.3780296,10.8696556 C13.3562199,10.9012376 13.3344588,10.9321977 13.3126491,10.963062 C13.3869385,11.1327438 13.4454547,11.3121875 13.4533899,11.4931145 C13.4673131,11.8214724 13.3226777,12.0697745 13.0826735,12.2429017 C12.9527402,12.3370737 12.8141415,12.4021041 12.6952104,12.4434958 C12.6191685,12.4761306 12.4645045,12.5298201 12.2445575,12.5442713 C12.1242633,12.5523582 12.0085453,12.5450369 11.9439437,12.4968982 C11.855001,12.4308629 11.8442909,12.3493716 11.8903444,12.2380209 C11.9292903,12.1435139 12.2206544,11.8165915 12.4649427,11.5303431 C12.5324165,11.4512922 12.5966772,11.3705186 12.6541711,11.2957265 L12.6527593,11.2925204 C12.6527593,11.2925683 12.6970116,11.2363905 12.7688182,11.1383903 C12.6795346,10.9494242 12.5663481,10.7527062 12.5131382,10.5743153 C12.4223943,10.2716059 12.3949374,10.0885734 12.3949374,10.0885734 C12.3949374,10.0885734 12.0977801,10.8374036 11.7882088,11.4351662 C11.5486427,11.8981307 11.3886237,12.1786848 11.3165251,12.3016157 L11.3157949,12.3065444 C11.3157949,12.3065444 11.305036,12.3244888 11.2864881,12.3525777 L11.2726136,12.375355 L11.2722241,12.3732496 C11.1918495,12.4899119 11.0115299,12.7184991 10.8322814,12.7184991 C10.3401998,12.7184991 10.5208601,11.7361529 10.5208601,11.7361529 C10.5208601,11.7361529 10.3770036,12.1000167 10.2148426,12.4122487 C10.0827673,12.6668672 9.96242441,12.8825823 9.69924741,12.8825823 C9.62354629,12.8825823 9.5035442,12.880429 9.40389135,12.7873097 C9.17785901,12.5762362 9.00503653,12.0402501 9.03891947,11.6251371 C9.06783681,11.2721835 9.12318869,11.0277095 9.1988898,10.823718 C9.06389354,10.8960218 8.90786648,10.9817719 8.74896715,11.0734557 L8.50467892,11.214953 L8.51256547,11.2290213 C8.71464607,11.6132699 8.76858616,12.4551237 8.32791316,13.10136 C7.88728885,13.7479313 7.06703926,14.1413195 6.26786914,13.9228768 C6.00999852,13.8522478 5.62044204,13.3278896 5.95644789,12.5970038 C6.25282628,11.9524902 7.43731752,11.3431475 7.749469,11.191075 L7.83515001,11.1447068 C7.21279434,10.6094384 5.65865771,9.88735726 5.4408527,8.77820426 C5.37941552,8.46597236 5.52833495,7.71929549 6.46104087,6.8609329 C7.24555758,6.13918673 8.33687072,5.58635682 9.34498566,5.2340731 C11.038646,4.64229196 12.8281133,4.99136962 13.1034122,6.05276668 C13.3740863,7.09660219 12.4528208,8.34519484 11.2729544,8.79404316 C10.2195161,9.19475273 9.34853947,9.13120576 8.9907239,9.01569192 C8.58398253,8.88433919 8.34543882,8.62053314 8.28726337,8.47161885 C8.26438264,8.41333557 8.22504727,8.31538327 8.28726337,8.28164787 C8.32543036,8.26092812 8.34076531,8.26585683 8.44290097,8.37682477 C8.54007102,8.48219407 8.93069852,8.76494936 9.67276419,8.68307522 C11.6200598,8.4685085 12.793062,6.98037058 12.4223943,6.17957351 C12.1628198,5.61903948 10.6619417,5.3661436 8.78679337,6.28527776 C6.49779607,7.40706358 6.37355861,8.33184424 6.35393961,8.68307522 C6.3003403,9.64924753 7.56622849,10.1574797 8.25118972,10.8760198 L8.27757557,10.9044916 C8.4057563,10.8349631 8.54114203,10.7615587 8.67394759,10.6899248 C9.01930047,10.5033992 9.34498566,10.3284536 9.49672867,10.2469623 C9.73780386,9.90252622 10.2269645,9.52244071 10.5801553,9.52244071 C11.1447249,9.52244071 10.950823,10.3200796 10.950823,10.3200796 C10.950823,10.3200796 10.9622633,10.2835688 10.9775983,10.2832338 C10.9936635,10.2828031 11.0558309,10.1781516 11.2301138,10.2406459 C11.4093624,10.3052934 11.3686152,10.428942 11.3697349,10.4415749 C11.371877,10.4661228 11.1579665,11.1752361 11.0690725,11.6300659 C11.0265241,11.8471209 11.0511574,12.0052227 11.0637174,12.0052227 C11.0811944,12.0052227 11.1169273,11.9500497 11.1501287,11.8907137 L11.1493984,11.8889432 C11.1493984,11.8889432 11.1743725,11.8440105 11.2161907,11.763237 L11.224418,11.7463453 L11.2247588,11.747111 C11.274074,11.652269 11.3433004,11.5128294 11.4232856,11.3400371 C11.5800429,11.0004341 12.1781547,9.68929935 12.2288818,9.54426105 C12.2795601,9.39922275 12.3059947,9.24925574 12.3310174,9.18494314 C12.3556507,9.1206784 12.5670783,9.0722047 12.8141415,9.07397521 C13.0612533,9.07574572 13.0863247,9.1793445 13.0880286,9.20078203 C13.0898298,9.22217171 12.970558,9.50985573 12.9430524,9.71317731 C12.9159363,9.91654675 12.9420301,10.0179922 12.9645214,10.1887268 C12.9791748,10.3003647 13.0502024,10.4419577 13.1341795,10.6024521 C13.3898594,10.1915022 13.8397334,9.40549132 13.8829633,9.1852781 C13.9125622,9.03464116 13.9600762,8.89027279 13.985099,8.82596019 C14.0100731,8.76169545 14.2211599,8.7132696 14.468223,8.71499226 C14.7153348,8.71676277 14.7403089,8.82036155 14.7421102,8.84179908 C14.7439114,8.86323662 14.6242501,9.15087278 14.597134,9.35424222 C14.5699692,9.55722884 14.5961117,9.65910497 14.6185542,9.82979174 C14.6378812,9.97588278 14.7528203,10.172218 14.8667858,10.3955416 C15.1777689,10.2448568 15.5438118,10.1437463 15.9723628,10.1416408 C16.1498101,10.1406359 16.3558827,10.1581496 16.4623024,10.1907845 L16.4623024,6.83069067 C16.4623024,6.59363368 16.3386978,6.37519098 16.1298504,6.25685389 L10.5534286,3.0887887 C10.3449219,2.97040377 10.0895828,2.97040377 9.88102745,3.0887887 L4.31998935,6.25532264 C4.11143399,6.37370758 4,6.59253309 4,6.82920727 L4,13.1680652 C4,13.4047394 4.11211554,13.6235649 4.32033013,13.741902 L9.89032579,16.9109242 C10.0988325,17.0296919 10.3516888,17.0296919 10.5601955,16.9109242 L16.1327226,13.741902 C16.3412293,13.6231821 16.4626919,13.4046915 16.4626919,13.1680652 L16.4626919,10.6062802 C16.3919564,10.5857997 16.2884089,10.5696737 16.187685,10.5581414 L16.187685,10.5581414 L16.187685,10.5581414 Z M10.1884567,10.2261947 C10.0688441,10.3578824 9.86496227,10.6974854 9.76959346,10.9817241 C9.57997555,11.5460862 9.66210275,12.1196359 9.79636878,12.1540891 C9.95312607,12.194428 10.2102665,11.440047 10.3333842,11.1449939 C10.4105458,10.9602387 10.7105267,10.1402053 10.6448055,10.030625 C10.5934942,9.94492277 10.3809469,10.0141162 10.1884567,10.2261947 L10.1884567,10.2261947 L10.1884567,10.2261947 Z M12.3578901,12.1283928 C12.3578901,12.1283928 12.3200639,12.1635637 12.3364212,12.1733733 C12.3585717,12.1863889 12.4064264,12.1694973 12.4585653,12.1427961 C12.6060729,12.051543 12.9370645,11.8239128 12.9377947,11.4870852 C12.9377947,11.4772756 12.9374053,11.467801 12.9367237,11.4576086 C12.8599516,11.5566615 12.7892161,11.6448042 12.7281684,11.7195963 C12.6238907,11.847073 12.3578901,12.1283928 12.3578901,12.1283928 L12.3578901,12.1283928 L12.3578901,12.1283928 Z" id="Shape" fill="#539E43" sketch:type="MSShapeGroup" mask="url(#mask-2)"></path>
            </g>
        </g>
    </g>
</svg>