<?xml version="1.0" encoding="UTF-8" standalone="no"?>
<svg width="119px" height="20px" viewBox="0 0 119 20" version="1.1" xmlns="http://www.w3.org/2000/svg" xmlns:xlink="http://www.w3.org/1999/xlink" xmlns:sketch="http://www.bohemiancoding.com/sketch/ns">
    <!-- Generator: Sketch 3.5.1 (25234) - http://www.bohemiancoding.com/sketch -->
    <title>stackoverflow</title>
    <desc>Created with Sketch.</desc>
    <defs>
        <rect id="path-1" x="0" y="0" width="119" height="20" rx="3"></rect>
    </defs>
    <g id="Page-1" stroke="none" stroke-width="1" fill="none" fill-rule="evenodd" sketch:type="MSPage">
        <g id="icon" sketch:type="MSLayerGroup" transform="translate(-170.000000, -60.000000)">
            <g id="stackoverflow" transform="translate(170.000000, 60.000000)">
                <mask id="mask-2" sketch:name="Mask" fill="white">
                    <use xlink:href="#path-1"></use>
                </mask>
                <use id="Mask" fill="#DCDCDC" sketch:type="MSShapeGroup" xlink:href="#path-1"></use>
                <rect id="颜色" fill="#F48024" sketch:type="MSShapeGroup" mask="url(#mask-2)" x="0" y="0" width="20" height="20"></rect>
                <path d="M13.5354616,14.8581081 L13.5354616,11.4324324 L14.7027027,11.4324324 L14.7027027,16 L4.16216216,16 L4.16216216,11.4324324 L5.32940323,11.4324324 L5.32940323,14.8581081 L13.5354616,14.8581081 Z M6.76329555,11.2135578 L12.5010898,12.4277359 L12.7490192,11.2849801 L7.01122493,10.0708019 L6.76329555,11.2135578 Z M7.5070837,8.42809039 L12.8198561,10.9278689 L13.3157149,9.85653522 L8.00294246,7.35675676 L7.5070837,8.42809039 Z M8.99465998,5.78546743 L13.4928073,9.57084626 L14.2365955,8.67806823 L9.73844813,4.89268941 L8.99465998,5.78546743 Z M11.8989756,3 L10.9426765,3.71422242 L14.4491064,8.46380151 L15.4054054,7.74957909 L11.8989756,3 Z M6.62162162,13.8918919 L12.5010898,13.8918919 L12.5010898,12.7134249 L6.62162162,12.7134249 L6.62162162,13.8918919 Z" id="Shape" fill="#FFFFFF" sketch:type="MSShapeGroup" mask="url(#mask-2)"></path>
                <path d="M28.0794824,11.1329576 L26.7719615,11.014092 C25.7616045,10.9546593 25.4050079,10.5386299 25.4050079,9.8254367 C25.4050079,8.99337795 25.9993356,8.51791581 27.1879909,8.51791581 C27.955754,8.4784161 28.713006,8.70979864 29.3275705,9.17167625 L30.1001965,8.39905028 C29.2746124,7.79910934 28.2660845,7.50495536 27.2474237,7.56699153 C25.5238734,7.56699153 24.3352181,8.45848304 24.3352181,9.88486946 C24.3352181,11.1923903 25.1672768,11.9055836 26.7125288,12.0244491 L28.0200496,12.1433146 C28.9709739,12.2027474 29.3275705,12.6187768 29.3275705,13.33197 C29.3275705,14.2828943 28.4955118,14.7583564 27.1879909,14.7583564 C26.2559489,14.8281734 25.3411638,14.4796838 24.6918147,13.8074321 L23.9191887,14.5800581 C24.8092316,15.386438 25.9899967,15.7943387 27.1879909,15.7092807 C29.0898395,15.7092807 30.4567931,14.8177892 30.4567931,13.2725372 C30.4567931,11.7272853 29.5058688,11.2518231 28.0794824,11.1329576 L28.0794824,11.1329576 Z M38.0641874,7.50755876 C36.7566665,7.50755876 35.9840405,7.74528983 35.2708473,8.63678135 L36.0434733,9.40940732 C36.4997509,8.76068636 37.2774459,8.41758562 38.0641874,8.51791581 C39.5500065,8.51791581 40.0849014,9.11224349 40.0849014,10.2414661 L40.0849014,11.014092 L37.7075907,11.014092 C35.9246077,11.014092 34.9736834,11.9055836 34.9736834,13.33197 C34.958036,13.9233955 35.1708917,14.4981058 35.5680111,14.9366547 C36.0434733,15.4715496 36.6972337,15.6498479 37.8264563,15.6498479 C38.6823275,15.7152974 39.5254883,15.4126243 40.1443342,14.8177892 L40.1443342,15.5904151 L41.3329896,15.5904151 L41.3329896,10.1820333 C41.2735568,8.45848304 40.203767,7.50755876 38.0641874,7.50755876 L38.0641874,7.50755876 Z M40.0849014,12.7970751 C40.1521346,13.2915877 40.0001955,13.7908159 39.6688721,14.1640287 C39.1719601,14.5772742 38.5282168,14.7703972 37.8858891,14.6989236 C36.6378009,14.6989236 36.0434733,14.2828943 36.0434733,13.33197 C36.0434733,12.3810457 36.6378009,11.9055836 37.8264563,11.9055836 L40.0849014,11.9055836 L40.0849014,12.7970751 L40.0849014,12.7970751 Z M45.8498799,8.57734858 C46.5726575,8.55625058 47.2603031,8.88898232 47.6922957,9.46884009 L48.4649217,8.69621411 C47.8389327,7.8976441 46.8631514,7.45410712 45.8498799,7.50755876 C43.8291658,7.50755876 42.3433466,8.87451242 42.3433466,11.6084197 C42.3433466,14.342327 43.8885986,15.7092807 45.8498799,15.7092807 C46.8631514,15.7627323 47.8389327,15.3191953 48.4649217,14.5206253 L47.6922957,13.7479993 C47.2603031,14.3278571 46.5726575,14.6605889 45.8498799,14.6394909 C45.1246683,14.6721923 44.4318683,14.3369665 44.0074641,13.7479993 C43.6075617,13.1092442 43.4203048,12.3602166 43.4725692,11.6084197 C43.3898988,10.8542517 43.5796171,10.0953787 44.0074641,9.46884009 C44.4318683,8.87987292 45.1246683,8.54464712 45.8498799,8.57734858 L45.8498799,8.57734858 Z M55.8345848,7.6264243 L54.4081984,7.6264243 L50.7827996,11.1329576 L50.7827996,4.06045825 L49.5941442,4.06045825 L49.5941442,15.5904151 L50.7827996,15.5904151 L50.7827996,12.6782095 L52.209186,11.2518231 L54.8836606,15.5904151 L56.310047,15.5904151 L52.981812,10.4791971 L55.8345848,7.6264243 Z M61.3023994,7.21039493 C60.3443763,7.16098753 59.4120301,7.52958949 58.7467904,8.22075197 C57.9741645,8.99337795 57.7958662,9.94430223 57.7958662,11.4301214 C57.7958662,12.9159406 57.9741645,13.8668649 58.7467904,14.6394909 C59.426095,15.3093713 60.3486668,15.674109 61.3023994,15.6498479 C62.2604226,15.6992553 63.1927687,15.3306533 63.8580084,14.6394909 C64.6306344,13.8668649 64.8089327,12.9159406 64.8089327,11.4301214 C64.8089327,9.94430223 64.6306344,8.99337795 63.8580084,8.22075197 C63.1927687,7.52958949 62.2604226,7.16098753 61.3023994,7.21039493 L61.3023994,7.21039493 Z M62.3127565,13.4508355 C61.7682813,13.927164 60.9553831,13.927164 60.4109079,13.4508355 C59.9948786,13.0348061 59.9354458,12.2621802 59.9354458,11.4301214 C59.9354458,10.5980627 59.9948786,9.8254367 60.4109079,9.40940732 C60.9553831,8.93307887 61.7682813,8.93307887 62.3127565,9.40940732 C62.7287859,9.8254367 62.7882186,10.5386299 62.7882186,11.4301214 C62.7882186,12.3216129 62.7287859,13.0348061 62.3127565,13.4508355 L62.3127565,13.4508355 Z M70.3956129,7.26982769 L68.7314954,12.3810457 L67.0673779,7.26982769 L64.8683655,7.26982769 L67.9588694,15.5904151 L69.5635541,15.5904151 L72.5946253,7.26982769 L70.3956129,7.26982769 L70.3956129,7.26982769 Z M76.1011585,7.21039493 C73.9615789,7.21039493 72.4757597,8.75564688 72.4757597,11.4301214 C72.4757597,14.8177892 74.3776083,15.7092807 76.3388896,15.7092807 C77.5318246,15.7678983 78.6880739,15.2879457 79.4888263,14.4017598 L78.2407382,13.1536717 C77.766067,13.6994766 77.0597224,13.9864291 76.3388896,13.9262977 C75.8396151,13.9641109 75.3486957,13.7821787 74.9946443,13.4281272 C74.6405928,13.0740758 74.4586606,12.5831564 74.4964738,12.0838819 L79.6671246,12.0838819 L79.6671246,11.1329576 C79.7265574,8.87451242 78.4190365,7.21039493 76.1011585,7.21039493 L76.1011585,7.21039493 Z M74.4964738,10.6574954 C74.4922701,10.3510736 74.5530372,10.0472381 74.6747721,9.76600393 C74.9293879,9.24600662 75.4628771,8.92127409 76.0417258,8.93394518 C76.6290755,8.88773417 77.1799518,9.22305014 77.4086794,9.76600393 C77.5304144,10.0472381 77.5911815,10.3510736 77.5869777,10.6574954 L74.4964738,10.6574954 L74.4964738,10.6574954 Z M82.7576285,8.10188644 L82.7576285,7.32926046 L80.7369144,7.32926046 L80.7369144,15.6498479 L82.8170613,15.6498479 L82.8170613,10.6574954 C82.7752561,10.2672077 82.8996126,9.87734309 83.1596863,9.58334672 C83.41976,9.28935035 83.7915423,9.11836241 84.1840149,9.11224349 C84.5956072,9.09332179 84.9920405,9.26951438 85.2538047,9.58770563 L86.7990567,8.04245367 C86.2962811,7.50082837 85.5748724,7.21663707 84.8377754,7.26982769 C84.0542666,7.21848661 83.2895893,7.52435752 82.7576285,8.10188644 L82.7576285,8.10188644 Z M87.4528171,6.43776895 L87.4528171,15.5904151 L89.532964,15.5904151 L89.532964,9.05281072 L91.078216,9.05281072 L91.078216,7.448126 L89.532964,7.448126 L89.532964,6.55663448 C89.5016024,6.35429397 89.5642608,6.14869954 89.703143,5.99824374 C89.8420253,5.84778794 90.0419582,5.76890846 90.2461572,5.78400851 L91.0187832,5.78400851 L91.0187832,4.00102548 L89.8301278,4.00102548 C89.1834438,3.9817717 88.5582788,4.23436715 88.1064838,4.69745701 C87.6546888,5.16054687 87.4176041,5.79175737 87.4528171,6.43776895 L87.4528171,6.43776895 Z M99.5771017,7.21039493 C98.6190786,7.16098753 97.6867324,7.52958949 97.0214927,8.22075197 C96.2488667,8.99337795 96.0705684,9.94430223 96.0705684,11.4301214 C96.0705684,12.9159406 96.2488667,13.8668649 97.0214927,14.6394909 C97.7007972,15.3093713 98.6233691,15.674109 99.5771017,15.6498479 C100.535125,15.6992553 101.467471,15.3306533 102.132711,14.6394909 C102.905337,13.8668649 103.083635,12.9159406 103.083635,11.4301214 C103.083635,9.94430223 102.905337,8.99337795 102.132711,8.22075197 C101.467471,7.52958949 100.535125,7.16098753 99.5771017,7.21039493 L99.5771017,7.21039493 Z M100.587459,13.4508355 C100.042984,13.927164 99.2300854,13.927164 98.6856102,13.4508355 C98.2695808,13.0348061 98.2101481,12.2621802 98.2101481,11.4301214 C98.2101481,10.5980627 98.2695808,9.8254367 98.6856102,9.40940732 C99.2300854,8.93307887 100.042984,8.93307887 100.587459,9.40940732 C101.003488,9.8254367 101.062921,10.5386299 101.062921,11.4301214 C101.062921,12.3216129 101.003488,13.0348061 100.587459,13.4508355 L100.587459,13.4508355 Z M112.890042,7.26982769 L111.523088,12.3810457 L109.799538,7.26982769 L108.313719,7.26982769 L106.649601,12.4404785 L105.282647,7.32926046 L103.083635,7.32926046 L105.639244,15.6498479 L107.362794,15.6498479 L109.086345,10.4197644 L110.809895,15.6498479 L112.592878,15.6498479 L115.148487,7.32926046 L112.890042,7.26982769 L112.890042,7.26982769 L112.890042,7.26982769 Z M94.1092871,13.0942389 L94.1092871,4.06045825 L92.0291402,4.06045825 L92.0291402,13.2131044 C91.9926756,13.8646629 92.2398271,14.5001448 92.7069307,14.9558556 C93.1740343,15.4115664 93.815424,15.642954 94.4658837,15.5904151 L95.654539,15.5904151 L95.654539,13.8074321 L94.8819131,13.8074321 C94.6764366,13.8581166 94.4592402,13.802243 94.3037298,13.6586949 C94.1482195,13.5151469 94.0751765,13.3031072 94.1092871,13.0942389 L94.1092871,13.0942389 Z M34.7359524,7.8047226 L32.53694,7.8047226 L32.53694,5.18968083 L31.3482846,5.18968083 L31.3482846,13.4508355 C31.3482846,14.6394909 32.0020451,15.5904151 33.3689987,15.5904151 L34.2010575,15.5904151 L34.2010575,14.5800581 L33.6067298,14.5800581 C32.8341038,14.5800581 32.53694,14.1640287 32.53694,13.3914027 L32.53694,8.81507965 L33.6661626,8.81507965 L34.7359524,7.8047226 Z" id="Shape" fill="#303030" sketch:type="MSShapeGroup" mask="url(#mask-2)"></path>
            </g>
        </g>
    </g>
</svg>