<?xml version="1.0" encoding="UTF-8" standalone="no"?>
<svg width="56px" height="20px" viewBox="0 0 56 20" version="1.1" xmlns="http://www.w3.org/2000/svg" xmlns:xlink="http://www.w3.org/1999/xlink" xmlns:sketch="http://www.bohemiancoding.com/sketch/ns">
    <!-- Generator: Sketch 3.5.1 (25234) - http://www.bohemiancoding.com/sketch -->
    <title>tudou</title>
    <desc>Created with Sketch.</desc>
    <defs>
        <rect id="path-1" x="0" y="0" width="56" height="20" rx="3"></rect>
        <rect id="path-3" x="0" y="0" width="56" height="20" rx="3"></rect>
    </defs>
    <g id="Page-1" stroke="none" stroke-width="1" fill="none" fill-rule="evenodd" sketch:type="MSPage">
        <g id="icon" sketch:type="MSLayerGroup" transform="translate(-468.000000, -90.000000)">
            <g id="tudou" transform="translate(468.000000, 90.000000)">
                <mask id="mask-2" sketch:name="Mask" fill="white">
                    <use xlink:href="#path-1"></use>
                </mask>
                <use id="Mask" fill="#FF8E42" sketch:type="MSShapeGroup" xlink:href="#path-1"></use>
                <mask id="mask-4" sketch:name="Mask" fill="white">
                    <use xlink:href="#path-3"></use>
                </mask>
                <use id="Mask" fill="#FF8E42" sketch:type="MSShapeGroup" xlink:href="#path-3"></use>
                <rect id="颜色" fill="#FF6600" sketch:type="MSShapeGroup" mask="url(#mask-4)" x="0" y="0" width="22" height="20"></rect>
                <text id="Cancel" fill="#FFFFFF" sketch:type="MSTextLayer" mask="url(#mask-4)" font-family="PingFang SC" font-size="12" font-weight="526" sketch:alignment="middle">
                    <tspan x="26.5" y="14">土豆</tspan>
                </text>
                <path d="M11.3138433,3.06414074 C10.8326194,3.11723704 10.1785896,3.25604444 9.77551493,3.39075556 C9.26132836,3.56222963 8.2741194,4.07260741 7.85871642,4.38288889 C7.41855224,4.7136 6.50541791,5.6404 6.22980597,6.04054074 C5.63752239,6.89791111 5.25497761,7.84918519 5.05756716,8.98012593 C4.97529104,9.43740741 4.9876194,10.6582074 5.07809701,11.164437 C5.34545522,12.6383778 5.99948507,13.871363 7.07717164,14.9410667 C7.65305224,15.5126815 8.15898507,15.8760593 8.86645522,16.2230519 C9.74260448,16.6558593 10.4953134,16.8640963 11.4701418,16.9457111 C13.3375746,17.1090444 15.3366493,16.4231481 16.7228582,15.1493037 C17.730597,14.2225037 18.3887015,13.1446074 18.7918284,11.7564815 C18.7918284,11.7564815 19.0014104,10.9775111 18.9974925,10.1519259 C18.9935746,9.32634074 18.9645821,9.02508148 18.882306,8.64127407 C18.6848955,7.73080741 18.3311343,6.89381481 17.8046194,6.09768148 C17.4467836,5.55463704 16.6323284,4.72993333 16.0441716,4.31345926 C15.571097,3.98274815 14.7237836,3.55408889 14.2013955,3.38665926 C13.2553507,3.08457037 12.1941194,2.96614074 11.3138433,3.06414074 L11.3138433,3.06414074 Z M13.0578881,4.45231852 C13.4404328,4.5176 14.1314478,4.7585037 14.5839403,4.98307407 C15.110403,5.24025926 15.595806,5.60363704 16.0647015,6.08544444 C16.7927537,6.83257778 17.2123358,7.55933333 17.5166791,8.6127037 C17.6236642,8.98831852 17.6894851,9.03322222 17.6894851,10.0008296 C17.6894851,10.9194889 17.6195373,11.0256296 17.5331343,11.3277704 C17.2040821,12.4709481 16.7310597,13.2752741 15.9413134,14.0387926 C15.1474403,14.8063556 14.2013955,15.3085407 13.1278358,15.5330593 C12.7288358,15.6147259 11.322097,15.6188222 10.8901866,15.5371556 C9.80017164,15.3289185 8.68957463,14.7164963 7.89162687,13.8836 C7.11008209,13.0711333 6.58356716,12.0545259 6.39848507,11.0052519 C6.31620896,10.531637 6.31620896,9.53131111 6.39848507,9.02098519 C6.526,8.24932593 6.95378358,7.28171852 7.46384328,6.6121037 C8.40988806,5.36682963 9.91535821,4.51355556 11.3961194,4.39108148 C11.6922612,4.36655556 12.7905299,4.40736296 13.0578881,4.45231852 L13.0578881,4.45231852 Z M8.86645522,7.80837778 C8.58264179,7.90228148 8.32761194,8.07375556 8.07258209,8.34732593 C7.8298806,8.60451111 7.67770896,8.89851111 7.62421642,9.21288889 C7.60368657,9.3435037 7.60368657,9.3435037 7.7188209,9.31083704 C7.78464179,9.29045926 7.91628358,9.24555556 8.01501493,9.20879259 C8.42634328,9.06179259 9.20783582,8.96788889 9.16259701,9.06998519 C9.15026866,9.09855556 9.07624627,9.26593333 8.99397015,9.4456 C8.9158209,9.62117037 8.81296269,9.92735556 8.76359701,10.1274 L8.6731194,10.4867333 L8.54560448,10.4050667 C8.3851791,10.311163 8.09729104,10.3029704 7.96152239,10.3928296 C7.83400746,10.4744444 7.72294776,10.7521111 7.75585821,10.9072519 C7.77231343,10.9684889 7.84226119,11.0868667 7.91628358,11.164437 L8.052,11.3032963 L7.94919403,11.3972 C7.70236567,11.6299111 7.68183582,11.8911926 7.89570149,12.1198593 C8.1096194,12.3443778 8.43867164,12.3403333 8.6278806,12.1075704 L8.73481343,11.968763 L8.86645522,12.1035259 C9.11323134,12.3648074 9.49990299,12.324 9.68085821,12.0096222 C9.79191791,11.8177185 9.7466791,11.6135778 9.54926866,11.4257704 L9.39297015,11.2828667 L9.51223134,11.213437 C9.77138806,11.0664889 9.8125,10.6582074 9.5821791,10.4458741 C9.43820896,10.3152074 9.26952985,10.2825926 9.06386567,10.3519704 C8.98164179,10.3805407 8.89936567,10.3968741 8.89111194,10.384637 C8.83354478,10.3315407 9.13381343,9.64974074 9.38058955,9.27412593 C9.50402985,9.07812593 9.56572388,9.02098519 9.63974627,9.02098519 C9.82895522,9.02098519 10.5117687,9.21693333 10.836694,9.36393333 C11.0135746,9.4456 11.1657985,9.51093333 11.174,9.51093333 C11.2110373,9.51093333 11.1863284,9.27412593 11.1328881,9.07812593 C11.0012463,8.58817778 10.5899179,8.09418519 10.1333507,7.89004444 C9.93181343,7.80023704 9.82482836,7.77980741 9.46286567,7.76757037 C9.1831791,7.75937778 8.97338806,7.77571111 8.86645522,7.80837778 L8.86645522,7.80837778 Z M8.86645522,11.1562963 C8.91994776,11.1971037 8.93227612,11.2420074 8.91169403,11.3196296 C8.88291045,11.4421037 8.75952239,11.4951481 8.64020896,11.4298667 C8.54147761,11.3767704 8.53327612,11.2787704 8.6278806,11.1767259 C8.70602985,11.090963 8.76359701,11.0828222 8.86645522,11.1562963 L8.86645522,11.1562963 Z M14.0656269,7.83285185 C13.5350373,8.00028148 13.0578881,8.48613333 12.9015896,9.01688889 C12.8398955,9.23326667 12.8111119,9.51093333 12.8563507,9.51093333 C12.8686791,9.51093333 12.9879925,9.45783704 13.123709,9.38840741 C13.5350373,9.18022222 14.0368433,9.0576963 14.5633582,9.03322222 C15.0898731,9.00874815 15.4024701,9.04545926 15.9906791,9.21288889 C16.2004701,9.27412593 16.3814254,9.31493333 16.3896791,9.3026963 C16.4266642,9.26593333 16.3279851,8.92708148 16.221,8.7107037 C16.0976119,8.46160741 15.8384552,8.17585185 15.5999328,8.02475556 C15.1762239,7.75937778 14.5427761,7.68180741 14.0656269,7.83285185 L14.0656269,7.83285185 Z" id="Shape" fill="#FFFFFF" sketch:type="MSShapeGroup" mask="url(#mask-4)"></path>
            </g>
        </g>
    </g>
</svg>