<?xml version="1.0" encoding="UTF-8" standalone="no"?>
<svg width="71px" height="20px" viewBox="0 0 71 20" version="1.1" xmlns="http://www.w3.org/2000/svg" xmlns:xlink="http://www.w3.org/1999/xlink" xmlns:sketch="http://www.bohemiancoding.com/sketch/ns">
    <!-- Generator: Sketch 3.5.1 (25234) - http://www.bohemiancoding.com/sketch -->
    <title>ubuntu</title>
    <desc>Created with Sketch.</desc>
    <defs>
        <rect id="path-1" x="0" y="0" width="71" height="20" rx="3"></rect>
        <filter x="-50%" y="-50%" width="200%" height="200%" filterUnits="objectBoundingBox" id="filter-3">
            <feOffset dx="0" dy="0" in="SourceAlpha" result="shadowOffsetInner1"></feOffset>
            <feGaussianBlur stdDeviation="0" in="shadowOffsetInner1" result="shadowBlurInner1"></feGaussianBlur>
            <feComposite in="shadowBlurInner1" in2="SourceAlpha" operator="arithmetic" k2="-1" k3="1" result="shadowInnerInner1"></feComposite>
            <feColorMatrix values="0 0 0 0 0   0 0 0 0 0   0 0 0 0 0  0 0 0 0.35 0" in="shadowInnerInner1" type="matrix" result="shadowMatrixInner1"></feColorMatrix>
            <feMerge>
                <feMergeNode in="SourceGraphic"></feMergeNode>
                <feMergeNode in="shadowMatrixInner1"></feMergeNode>
            </feMerge>
        </filter>
        <filter x="-50%" y="-50%" width="200%" height="200%" filterUnits="objectBoundingBox" id="filter-4">
            <feOffset dx="0" dy="1" in="SourceAlpha" result="shadowOffsetOuter1"></feOffset>
            <feGaussianBlur stdDeviation="0" in="shadowOffsetOuter1" result="shadowBlurOuter1"></feGaussianBlur>
            <feColorMatrix values="0 0 0 0 0.347417092   0 0 0 0 0.347417092   0 0 0 0 0.347417092  0 0 0 0.348713235 0" in="shadowBlurOuter1" type="matrix" result="shadowMatrixOuter1"></feColorMatrix>
            <feMerge>
                <feMergeNode in="shadowMatrixOuter1"></feMergeNode>
                <feMergeNode in="SourceGraphic"></feMergeNode>
            </feMerge>
        </filter>
    </defs>
    <g id="Page-1" stroke="none" stroke-width="1" fill="none" fill-rule="evenodd" sketch:type="MSPage">
        <g id="GET" sketch:type="MSLayerGroup" transform="translate(-148.000000, -91.000000)">
            <g id="ubuntu" transform="translate(148.000000, 91.000000)">
                <mask id="mask-2" sketch:name="Mask" fill="white">
                    <use xlink:href="#path-1"></use>
                </mask>
                <use id="Mask" fill="#DD4814" sketch:type="MSShapeGroup" xlink:href="#path-1"></use>
                <rect id="颜色" fill="#FFD34B" filter="url(#filter-3)" sketch:type="MSShapeGroup" mask="url(#mask-2)" x="0" y="0" width="22" height="20"></rect>
                <text id="Cancel" fill="#FFFFFF" filter="url(#filter-4)" sketch:type="MSTextLayer" mask="url(#mask-2)" font-family="Avenir Next" font-size="12" font-weight="420">
                    <tspan x="26" y="14">Ubuntu</tspan>
                </text>
                <g id="Group" mask="url(#mask-2)" sketch:type="MSShapeGroup">
                    <g transform="translate(4.000000, 3.000000)" id="Shape">
                        <path d="M13.9801701,6.98267451 C13.9801701,10.8388739 10.8539413,13.9651847 6.99749559,13.9651847 C3.14096774,13.9651847 0.0147800587,10.8388739 0.0147800587,6.98267451 C0.0147800587,3.12622874 3.1410088,0 6.99749559,0 C10.8539824,0 13.9801701,3.12622874 13.9801701,6.98267451 L13.9801701,6.98267451 L13.9801701,6.98267451 Z" fill="#DD4814"></path>
                        <path d="M2.24948387,6.05021703 C1.73435777,6.05021703 1.31702639,6.46758946 1.31702639,6.98267451 C1.31702639,7.49751319 1.73435777,7.9148446 2.24948387,7.9148446 C2.76432258,7.9148446 3.18165396,7.49751319 3.18165396,6.98267451 C3.18165396,6.46758946 2.76432258,6.05021703 2.24948387,6.05021703 L2.24948387,6.05021703 L2.24948387,6.05021703 Z M8.90576542,10.2873314 C8.45985924,10.5448739 8.30696776,11.1147273 8.5645513,11.5603871 C8.82180644,12.0062933 9.39165981,12.1591437 9.83756599,11.9016012 C10.2834311,11.6443461 10.4363226,11.0744927 10.1787801,10.6285454 C9.92152492,10.1829267 9.35134309,10.0300763 8.90576542,10.2873314 L8.90576542,10.2873314 L8.90576542,10.2873314 Z M4.27447507,6.98267451 C4.27447507,6.06138416 4.73208211,5.24745454 5.43228739,4.75458064 L4.75072141,3.61302639 C3.93506745,4.15824633 3.32818182,4.99139003 3.07597654,5.96716127 C3.37026393,6.20729621 3.55862756,6.57285628 3.55862756,6.98263344 C3.55862756,7.39216423 3.37026393,7.75772435 3.07597654,7.99785924 C3.32785338,8.97391791 3.934739,9.80710265 4.75072141,10.3523226 L5.43228739,9.21048095 C4.73208211,8.71789445 4.27447507,7.90400587 4.27447507,6.98267451 L4.27447507,6.98267451 L4.27447507,6.98267451 Z M6.99749559,4.25936657 C8.42007627,4.25936657 9.5872082,5.35009384 9.70971848,6.74110265 L11.0381173,6.72151905 C10.9727566,5.69459237 10.5241408,4.77268621 9.83481527,4.0947742 C9.48034019,4.22869795 9.07089148,4.20821114 8.71699123,4.00420528 C8.36247508,3.79962463 8.14019943,3.45451026 8.07943697,3.07987683 C7.73489735,2.98479179 7.37229325,2.93273314 6.9974135,2.93273314 C6.35296189,2.93273314 5.74365395,3.08410557 5.20266276,3.35187097 L5.85043988,4.51268035 C6.19892082,4.35051026 6.58767741,4.25936657 6.99749559,4.25936657 L6.99749559,4.25936657 L6.99749559,4.25936657 Z M6.99749559,9.70569502 C6.58767741,9.70569502 6.19892082,9.61451028 5.85048095,9.45238126 L5.20270381,10.6131496 C5.74369502,10.8812434 6.35300291,11.0326569 6.99749559,11.0326569 C7.37237539,11.0326569 7.73497949,10.9805572 8.07947798,10.8851847 C8.14024045,10.5105513 8.36259823,10.1657654 8.71703224,9.96081527 C9.07117887,9.75648095 9.48038126,9.73636366 9.83485628,9.87028738 C10.5241818,9.19237539 10.9727977,8.27046921 11.0381584,7.24354252 L9.7094311,7.22395893 C9.5872082,8.61533723 8.42011729,9.70569502 6.99749559,9.70569502 L6.99749559,9.70569502 L6.99749559,9.70569502 Z M8.90543697,3.67744281 C9.35134309,3.93494428 9.92123754,3.78242229 10.1784927,3.33651613 C10.4360352,2.89060997 10.2835132,2.32071554 9.83756599,2.06313196 C9.39165981,1.80587683 8.82180644,1.95872727 8.56418183,2.40463343 C8.30696776,2.85029326 8.45981817,3.42018768 8.90543697,3.67744281 L8.90543697,3.67744281 L8.90543697,3.67744281 Z" fill="#FFFFFF"></path>
                    </g>
                </g>
            </g>
        </g>
    </g>
</svg>