<?xml version="1.0" encoding="UTF-8" standalone="no"?>
<svg width="76px" height="20px" viewBox="0 0 76 20" version="1.1" xmlns="http://www.w3.org/2000/svg" xmlns:xlink="http://www.w3.org/1999/xlink" xmlns:sketch="http://www.bohemiancoding.com/sketch/ns">
    <!-- Generator: Sketch 3.5.1 (25234) - http://www.bohemiancoding.com/sketch -->
    <title>wechat</title>
    <desc>Created with Sketch.</desc>
    <defs>
        <rect id="path-1" x="0" y="0" width="76" height="20" rx="3"></rect>
    </defs>
    <g id="Page-1" stroke="none" stroke-width="1" fill="none" fill-rule="evenodd" sketch:type="MSPage">
        <g id="icon" sketch:type="MSLayerGroup" transform="translate(-407.000000, -30.000000)">
            <g id="wechat" transform="translate(407.000000, 30.000000)">
                <mask id="mask-2" sketch:name="Mask" fill="white">
                    <use xlink:href="#path-1"></use>
                </mask>
                <use id="Mask" fill="#6CB83E" sketch:type="MSShapeGroup" xlink:href="#path-1"></use>
                <rect id="颜色" fill="#3E9609" sketch:type="MSShapeGroup" mask="url(#mask-2)" x="0" y="0" width="24" height="20"></rect>
                <text id="Cancel" fill="#FFFFFF" sketch:type="MSTextLayer" mask="url(#mask-2)" font-family="PingFang SC" font-size="12" font-weight="526" sketch:alignment="middle">
                    <tspan x="28.4778507" y="14">Wechat</tspan>
                </text>
                <path d="M8.52006894,7.10932493 C8.52006894,6.89615021 8.45505231,6.72471251 8.32501906,6.59501183 C8.1949858,6.46531114 8.0235481,6.40029451 7.81070595,6.39996195 C7.58722169,6.39996195 7.38967756,6.46614255 7.21807358,6.59850377 C7.04646959,6.73086498 6.9606676,6.90097242 6.9606676,7.10882608 C6.9606676,7.3113587 7.04646959,7.47897189 7.21807358,7.61166567 C7.38967756,7.74435945 7.58722169,7.81054006 7.81070595,7.81020749 C8.02388067,7.81020749 8.19531837,7.74652113 8.32501906,7.6191484 C8.45471974,7.49177568 8.51973637,7.32166824 8.52006894,7.10882608 L8.52006894,7.10932493 Z M14.3112046,11.0612051 C14.3112046,10.9155412 14.245024,10.7856743 14.1126628,10.6716042 C13.9803016,10.5575341 13.8101941,10.5003328 13.6023405,10.5000002 C13.4619977,10.5000002 13.333461,10.5585318 13.2167303,10.675595 C13.0999997,10.7926582 13.0414681,10.9211949 13.0411356,11.0612051 C13.0411356,11.2068689 13.0996672,11.3380662 13.2167303,11.4547968 C13.3337935,11.5715274 13.4623302,11.630059 13.6023405,11.6303916 C13.8101941,11.6303916 13.9803016,11.5731902 14.1126628,11.4587876 C14.245024,11.3443849 14.3112046,11.2118574 14.3112046,11.0612051 L14.3112046,11.0612051 Z M12.4714502,7.10932493 C12.4714502,6.89615021 12.4077639,6.72471251 12.2803912,6.59501183 C12.1530184,6.46531114 11.982911,6.40029451 11.7700688,6.39996195 C11.5465846,6.39996195 11.3490405,6.46614255 11.1774365,6.59850377 C11.0058325,6.73086498 10.9200305,6.90097242 10.9200305,7.10882608 C10.9200305,7.3113587 11.0058325,7.47897189 11.1774365,7.61166567 C11.3490405,7.74435945 11.5465846,7.81054006 11.7700688,7.81020749 C11.9832436,7.81020749 12.153351,7.74652113 12.2803912,7.6191484 C12.4074313,7.49177568 12.4711177,7.32166824 12.4714502,7.10882608 L12.4714502,7.10932493 Z M17.421028,11.0612051 C17.421028,10.9155412 17.3535171,10.7856743 17.2184954,10.6716042 C17.0834736,10.5575341 16.9145302,10.5003328 16.711665,10.5000002 C16.5713222,10.5000002 16.4427855,10.5585318 16.3260549,10.675595 C16.2093243,10.7926582 16.1507927,10.9211949 16.1504601,11.0612051 C16.1504601,11.2068689 16.2089917,11.3380662 16.3260549,11.4547968 C16.4431181,11.5715274 16.5716548,11.630059 16.711665,11.6303916 C16.9141976,11.6303916 17.0831411,11.5731902 17.2184954,11.4587876 C17.3538497,11.3443849 17.4213606,11.2118574 17.421028,11.0612051 L17.421028,11.0612051 Z M15.3478124,7.96684601 C15.1868505,7.94589436 15.004937,7.93541854 14.8020718,7.93541854 C13.9237654,7.93541854 13.1157966,8.13545691 12.3781655,8.53553364 C11.6405344,8.93561037 11.0598744,9.47736017 10.6361855,10.160783 C10.2124966,10.8442059 10.0008184,11.5911488 10.001151,12.4016118 C10.001151,12.8070096 10.0608466,13.2019316 10.1802377,13.5863777 C9.9983242,13.6020083 9.82173173,13.6098236 9.65046031,13.6098236 C9.51543857,13.6098236 9.3855716,13.6059991 9.2608594,13.5983501 C9.1361472,13.590701 8.99331016,13.5737402 8.83234828,13.5474675 C8.6713864,13.5211948 8.55581977,13.5030699 8.48564837,13.493093 C8.41547697,13.483116 8.27380391,13.4558456 8.06062919,13.4112818 C7.84745448,13.3667179 7.71758751,13.3394475 7.67102829,13.3294706 L5.699079,14.3191866 L6.26028389,12.6201076 C4.75342796,11.5652087 4,10.2921465 4,8.8009212 C4,7.92261475 4.25324891,7.11464599 4.75974672,6.3770149 C5.26624453,5.63938382 5.95216162,5.05872382 6.817498,4.63503491 C7.68283437,4.211346 8.62732143,3.99966783 9.65095915,4.00000039 C10.5655153,4.00000039 11.4293551,4.17143809 12.2424786,4.5143135 C13.0556022,4.8571889 13.7363645,5.33142783 14.2847656,5.93703026 C14.8331667,6.5426327 15.1878482,7.21940423 15.3488101,7.96734486 L15.3478124,7.96684601 Z M19.9621638,12.3392557 C19.9621638,12.9471861 19.784241,13.5278461 19.4283955,14.0812357 C19.0725501,14.6346253 18.5906621,15.1372986 17.9827317,15.5892556 L18.4112429,17 L16.8603219,16.1504605 C16.0807876,16.3426836 15.5144279,16.4387951 15.1612429,16.4387951 C14.2829365,16.4387951 13.4749677,16.2555513 12.7373367,15.8890637 C11.9997056,15.5225762 11.4190456,15.0250576 10.9953567,14.3965081 C10.5716677,13.7679587 10.3599896,13.0820416 10.3603221,12.3387569 C10.3606547,11.5954722 10.5723329,10.9095551 10.9953567,10.2810056 C11.4183804,9.65245609 11.9990404,9.15493756 12.7373367,8.78844998 C13.4756329,8.4219624 14.2836016,8.23871861 15.1612429,8.23871861 C15.9979787,8.23871861 16.7851621,8.4219624 17.5227931,8.78844998 C18.2604242,9.15493756 18.8515601,9.65378636 19.2962006,10.2849964 C19.7408412,10.9162064 19.9629952,11.6007932 19.9626626,12.3387569 L19.9621638,12.3392557 Z" id="Shape" fill="#FFFFFF" sketch:type="MSShapeGroup" mask="url(#mask-2)"></path>
            </g>
        </g>
    </g>
</svg>