<?xml version="1.0" encoding="UTF-8" standalone="no"?>
<svg width="56px" height="20px" viewBox="0 0 56 20" version="1.1" xmlns="http://www.w3.org/2000/svg" xmlns:xlink="http://www.w3.org/1999/xlink" xmlns:sketch="http://www.bohemiancoding.com/sketch/ns">
    <!-- Generator: Sketch 3.5.1 (25234) - http://www.bohemiancoding.com/sketch -->
    <title>xunlei</title>
    <desc>Created with Sketch.</desc>
    <defs>
        <rect id="path-1" x="0" y="0" width="56" height="20" rx="3"></rect>
    </defs>
    <g id="Page-1" stroke="none" stroke-width="1" fill="none" fill-rule="evenodd" sketch:type="MSPage">
        <g id="icon" sketch:type="MSLayerGroup" transform="translate(-402.000000, -90.000000)">
            <g id="xunlei" transform="translate(402.000000, 90.000000)">
                <mask id="mask-2" sketch:name="Mask" fill="white">
                    <use xlink:href="#path-1"></use>
                </mask>
                <use id="Mask" fill="#1BA0EB" sketch:type="MSShapeGroup" xlink:href="#path-1"></use>
                <rect id="颜色" fill="#0E6AB2" sketch:type="MSShapeGroup" mask="url(#mask-2)" x="0" y="0" width="22" height="20"></rect>
                <text id="Cancel" fill="#FFFFFF" sketch:type="MSTextLayer" mask="url(#mask-2)" font-family="PingFang SC" font-size="12" font-weight="526" sketch:alignment="middle">
                    <tspan x="26.5" y="14">迅雷</tspan>
                </text>
                <path d="M16.8121418,3.1288 C15.854922,3.53275833 14.6127092,4.17034167 13.5572766,4.80005 C12.2457305,5.58218333 10.9803688,6.461325 9.90763121,7.33655833 L9.69577305,7.50881667 L9.65724823,7.461275 C9.63608511,7.43356667 9.56868085,7.34245 9.50899291,7.25734167 C8.96391489,6.48506667 8.19739007,5.95044167 7.45594326,5.82175833 C7.13622695,5.76826667 6.67398582,5.81580833 6.33503546,5.94058333 C6.1732766,5.99798333 6.15784397,5.99996667 4.62865248,6.11879167 C3.78121986,6.18610833 3.0667234,6.23954167 3.04170213,6.23954167 C2.9453617,6.23954167 3.03205674,6.26334167 3.40953191,6.34051667 C4.36289362,6.53260833 4.89634043,6.67120833 5.37208511,6.84941667 C5.66093617,6.95634167 6.19636879,7.18605833 6.20794326,7.20781667 C6.22910638,7.24345833 6.09043972,8.35033333 6.02496454,8.675075 C6.00374468,8.77803333 5.97679433,8.912725 5.96334752,8.97210833 C5.95177305,9.03149167 5.94212766,9.24534167 5.94019858,9.44735 C5.94019858,9.75225833 5.94791489,9.85125 5.98451064,10.0354083 C6.1231773,10.7462583 6.46212766,11.3620833 7.03994326,11.9521833 C7.37889362,12.2986833 7.71205674,12.560075 8.54025532,13.1224083 C9.01015603,13.4431833 9.30865248,13.629325 9.8671773,13.9520833 C10.0886809,14.0787833 10.3274894,14.2193667 10.3968227,14.264925 C10.9187518,14.6015667 11.3386099,14.9837083 12.4999716,16.1797167 C13.1201135,16.8212667 13.3377589,17.0331333 13.3300426,16.993525 C13.3030922,16.8291417 13.1201135,15.8984917 13.0546383,15.5955667 C12.7811631,14.322325 12.467234,13.2134667 12.2245674,12.6650167 C12.172539,12.5442083 12.1167092,12.4194917 12.1032057,12.3878167 L12.0781844,12.328375 L12.5904681,12.3363083 C13.0219007,12.3422583 13.8577589,12.3105833 13.8827801,12.2887667 C13.8847092,12.2848 13.861617,12.195725 13.8269504,12.0907833 C13.7922837,11.9858417 13.7691348,11.8967083 13.7729929,11.8907583 C13.7787801,11.8867917 13.9193759,11.9502 14.0888511,12.033325 L14.3950638,12.1818417 L14.9535887,12.0195 C15.2598014,11.9303667 15.5198298,11.8531333 15.5294752,11.8472417 C15.5371915,11.843275 15.4890213,11.7798667 15.421617,11.7066583 C15.3542128,11.635375 15.2617305,11.5323583 15.213617,11.4809083 C15.1134752,11.3700167 15.0826667,11.3620833 15.5564255,11.5660167 L15.8895887,11.7085833 L16.2690496,11.5660167 C16.4770496,11.4868583 16.6561135,11.4175583 16.6657589,11.4116083 C16.6754043,11.4056583 16.5944965,11.3145417 16.4827801,11.2076167 L16.2824965,11.0136 L16.6233759,11.1304417 L16.9661844,11.2452417 L17.8656454,10.9146083 C18.3624965,10.7324333 18.8150922,10.5660667 18.8729078,10.5462917 C18.9306667,10.5284417 18.9845674,10.5047 18.9942128,10.49875 C19.0154326,10.4769917 18.0601418,10.045325 17.2107801,9.692875 C16.2324539,9.28693333 14.8129929,8.76420833 14.2313759,8.59585833 C14.1100709,8.5622 14.0022128,8.52655833 13.9944965,8.51868333 C13.9867801,8.50876667 14.1967092,8.189975 14.4624681,7.80585 C14.7263546,7.42166667 14.944,7.10485833 14.944,7.102875 C14.944,7.09890833 14.8842553,7.08905 14.8091348,7.0831 C14.736,7.07516667 14.6743262,7.06326667 14.6743262,7.05731667 C14.6743262,7.051425 14.961305,6.623725 15.3118298,6.108875 C15.6623546,5.594025 15.9512624,5.166325 15.9531915,5.15646667 C15.9531915,5.14853333 15.8915177,5.13465 15.8145248,5.12671667 C15.7374752,5.120825 15.6700709,5.11090833 15.6662128,5.10694167 C15.6584965,5.09900833 15.8145248,4.87524167 16.6715461,3.66739167 C16.9296454,3.305025 17.1395745,3.00408333 17.1357163,3.0021 C17.1318582,2.99813333 16.9874043,3.05553333 16.8121418,3.1288 L16.8121418,3.1288 Z" id="Shape" fill="#FFFFFF" sketch:type="MSShapeGroup" mask="url(#mask-2)"></path>
            </g>
        </g>
    </g>
</svg>