<?xml version="1.0" encoding="UTF-8" standalone="no"?>
<svg width="82px" height="20px" viewBox="0 0 82 20" version="1.1" xmlns="http://www.w3.org/2000/svg" xmlns:xlink="http://www.w3.org/1999/xlink" xmlns:sketch="http://www.bohemiancoding.com/sketch/ns">
    <!-- Generator: Sketch 3.5.1 (25234) - http://www.bohemiancoding.com/sketch -->
    <title>youku</title>
    <desc>Created with Sketch.</desc>
    <defs>
        <rect id="path-1" x="0" y="0" width="82" height="20" rx="3"></rect>
    </defs>
    <g id="Page-1" stroke="none" stroke-width="1" fill="none" fill-rule="evenodd" sketch:type="MSPage">
        <g id="icon" sketch:type="MSLayerGroup" transform="translate(-534.000000, -90.000000)">
            <g id="youku" transform="translate(534.000000, 90.000000)">
                <mask id="mask-2" sketch:name="Mask" fill="white">
                    <use xlink:href="#path-1"></use>
                </mask>
                <use id="Mask" fill="#EB422D" sketch:type="MSShapeGroup" xlink:href="#path-1"></use>
                <rect id="颜色" fill="#1BA7DE" sketch:type="MSShapeGroup" mask="url(#mask-2)" x="0" y="0" width="48" height="20"></rect>
                <path d="M6.04418605,6.06100027 C5.62440178,6.21581137 5.33508724,6.54588031 5.29029913,6.93297761 C5.23730449,7.39754999 5.25761215,7.44233811 6.85510133,10.1645376 C7.6660166,11.5581156 8.33436101,12.7195466 8.33436101,12.7480608 C8.33436101,12.7725412 8.07759436,13.3674443 7.76379935,14.0683366 C7.44597064,14.7692289 7.16068981,15.4538472 7.12396912,15.5883506 C6.95691779,16.240282 7.25040514,16.7496425 7.90233651,16.9411743 C8.40362959,17.0919517 8.74593876,16.9574483 9.0718349,16.4848084 C9.23081881,16.256556 13.0898297,7.71537871 13.1673048,7.42606417 C13.2406071,7.14495614 13.2406071,7.00224618 13.163132,6.74547953 C13.085796,6.48467916 12.8372358,6.24835925 12.5234408,6.13026885 C11.8103083,5.86529567 11.3864903,6.0324861 11.0686616,6.70889793 C10.9831191,6.8922232 10.5958827,7.74806569 10.2087854,8.61600931 C9.81765441,9.48798664 9.49161917,10.1970855 9.47937894,10.1970855 C9.463105,10.1930517 8.98629238,9.38213647 8.41586982,8.39179054 C7.58854151,6.96149178 7.33191395,6.54588031 7.15248329,6.36658875 C6.82241435,6.02831329 6.42724963,5.91829031 6.04418605,6.06100027 L6.04418605,6.06100027 Z M15.8730912,6.11802862 C14.9399127,6.32180064 14.1085507,6.88818949 13.5503684,7.69507105 C12.4256581,9.32093531 12.6171899,11.7008256 13.9822538,13.0658895 C14.6831461,13.7585753 15.530782,14.0846105 16.6269781,14.0805768 C17.7679623,14.0723703 18.6276995,13.7260274 19.324558,12.9966209 C19.8339185,12.4587462 20.1559201,11.7821953 20.2944572,10.9346984 C20.3882063,10.376377 20.3637258,9.46767899 20.2374289,9.01131312 C19.858399,7.60938944 18.8722259,6.56618797 17.5641903,6.18326348 C17.0628972,6.03651981 16.3661778,6.00800564 15.8730912,6.11802862 L15.8730912,6.11802862 Z M17.2056072,8.07813463 C17.6904873,8.30221431 18.0939976,8.8441227 18.2568761,9.48395293 C18.3873458,9.99734715 18.3018033,10.8449831 18.0817573,11.285075 C17.5194022,12.3812711 16.3824517,12.6625183 15.5715364,11.9044585 C14.6586656,11.0527888 14.6138775,9.36989624 15.4777874,8.45299169 C15.9871479,7.91915073 16.5902574,7.78882009 17.2056072,8.07813463 L17.2056072,8.07813463 Z M21.2194292,6.37062247 C21.01983,6.43182362 20.7835101,6.68845118 20.6978284,6.94118412 C20.6245262,7.14495614 20.6204924,7.3200749 20.6204924,9.42289087 C20.6204924,11.6396244 20.6204924,11.6926191 20.7141024,12.0308945 C20.7630633,12.2222872 20.8608461,12.4953278 20.9301146,12.633865 C21.0850648,12.9558665 21.50471,13.4081987 21.8225387,13.5997305 C22.6904823,14.1253649 24.092406,14.2761423 25.298486,13.9705538 C26.3458603,13.7015469 27.0019645,13.0861971 27.291279,12.0919566 C27.384889,11.7700942 27.384889,11.7496474 27.384889,9.42289087 C27.384889,7.12854311 27.384889,7.07568757 27.2993464,6.89625691 C27.1770832,6.63142283 26.977484,6.45616499 26.7166836,6.37882898 C26.2603178,6.24835925 25.7752986,6.4236171 25.5837668,6.79040674 C25.441196,7.06748105 25.4329895,7.16929751 25.4126818,9.36168972 L25.3882013,11.5621493 L25.2822121,11.7863681 C25.1314347,12.1122643 24.9521431,12.2957286 24.6425209,12.446506 C24.3939608,12.5687692 24.3367934,12.5810095 24.0026907,12.5768366 C23.6888957,12.5768366 23.5993195,12.5605627 23.3792735,12.46278 C23.0817524,12.3242428 22.8779804,12.1164371 22.7231693,11.7904018 L22.6171801,11.5621493 L22.5968724,9.32093531 L22.5764257,7.07972128 L22.4541624,6.83519485 C22.2748709,6.47661174 22.0752717,6.35031481 21.6677276,6.33807458 C21.4965035,6.33404087 21.2928706,6.34614201 21.2194292,6.37062247 L21.2194292,6.37062247 Z M35.335336,6.38689641 C35.1275303,6.46033779 34.9685464,6.6191826 34.8544897,6.87191555 L34.7607406,7.07972128 L34.7607406,9.42289087 C34.7607406,11.7496474 34.7607406,11.7700942 34.8544897,12.0919566 C35.241587,13.4244726 36.3377831,14.109091 38.1021845,14.1131247 C38.9416139,14.1172975 39.6711595,13.9623473 40.2090342,13.6730327 C40.3271246,13.6119707 40.555377,13.4326791 40.714361,13.2819017 C41.0607038,12.9558665 41.2847835,12.5605627 41.4315272,12.0308945 C41.5252762,11.6885854 41.5252762,11.6600712 41.5252762,9.40244412 L41.5252762,7.12047568 L41.4315272,6.91670366 C41.2725433,6.57036077 41.0362234,6.39106922 40.6736065,6.34210829 C40.367879,6.29732018 40.0908047,6.39106922 39.8747924,6.60694237 C39.5692039,6.91670366 39.5774104,6.84743508 39.55293,9.34138206 L39.5284495,11.5621493 L39.4224603,11.7904018 C39.2839231,12.0837501 39.0313292,12.336483 38.737981,12.4709865 C38.5422764,12.5645964 38.4567339,12.5810095 38.1226312,12.5810095 C37.7883895,12.5810095 37.702847,12.5645964 37.5113152,12.4750202 C37.2260343,12.3405167 36.9979209,12.1122643 36.8634175,11.8271225 L36.7574282,11.6029038 L36.7371206,9.38213647 C36.7126401,6.98597224 36.7126401,7.00641899 36.4885604,6.66814353 C36.3458505,6.46437151 36.0484685,6.32583435 35.7427409,6.32583435 C35.6042038,6.32986806 35.4249122,6.35434852 35.335336,6.38689641 L35.335336,6.38689641 Z M28.3792686,6.41958339 C28.1387759,6.50915962 27.9879985,6.63962935 27.8902157,6.84743508 C27.7964667,7.03493316 27.792433,7.08375499 27.7598851,8.54674073 C27.7436112,9.37392995 27.7354046,10.8082624 27.7394384,11.7293398 L27.7516786,13.3999922 L27.8739418,13.6404849 C27.9758974,13.8400841 28.0329257,13.8972515 28.199977,13.982794 C28.3752349,14.0765431 28.4525709,14.0886442 28.811154,14.0886442 C29.1534632,14.0886442 29.2472122,14.0723703 29.3899222,13.999068 C29.8055336,13.7749883 29.8503218,13.5956967 29.8503218,12.1245045 C29.8503218,11.4888471 29.8585283,10.97128 29.8707685,10.97128 C29.8870425,10.97128 30.583901,11.6070766 31.4233305,12.3853049 C32.2750002,13.1759125 33.0329208,13.8482906 33.1389101,13.9053189 C33.3915039,14.0398224 33.8112882,14.0683366 34.0761223,13.9665201 C34.5080077,13.7993297 34.6832655,13.5019477 34.6507176,12.980347 C34.6180307,12.446506 34.5732425,12.3894777 33.3182016,11.2320804 C32.7150921,10.6738981 32.2179718,10.1970855 32.2179718,10.1766387 C32.213799,10.1522973 32.5316277,9.83850234 32.9188641,9.47574641 C34.1535974,8.31445454 34.190179,8.27370013 34.3328889,8.00065954 C34.4061912,7.85391586 34.4714261,7.65014384 34.4836663,7.52801972 C34.5284544,7.09599522 34.2798943,6.66814353 33.86011,6.46437151 C33.6685782,6.37062247 33.5993097,6.35838224 33.3832974,6.37465618 C33.2447602,6.38689641 33.045161,6.43585733 32.9473783,6.48481825 C32.8169086,6.54991403 32.3400959,7.00641899 31.3091347,8.04962046 L29.8543555,9.52470733 L29.8503218,8.416271 C29.8503218,7.78882009 29.8300141,7.21825843 29.8055336,7.10420174 C29.7485053,6.83922857 29.5692137,6.59484124 29.3532015,6.48481825 C29.1331555,6.37062247 28.6033483,6.33807458 28.3792686,6.41958339 L28.3792686,6.41958339 Z" id="Shape" fill="#FFFFFF" sketch:type="MSShapeGroup" mask="url(#mask-2)"></path>
                <path d="M55.3952755,5.42659826 C54.9061867,6.97709627 54.1395805,8.51019025 53.1926591,9.8352646 C52.9048414,10.2410035 52.9012895,10.2479888 52.9706689,10.303516 C53.0089104,10.3346538 53.2204818,10.5219543 53.4424721,10.7196736 C53.82394,11.059585 53.8517628,11.076989 53.8968712,11.0144766 C53.9245756,10.9763535 54.0771865,10.764782 54.2332308,10.5427918 L54.5211669,10.1404863 L54.5315856,12.5649746 L54.5385709,14.9895813 L55.7837288,14.9895813 L55.7941475,14.646118 L55.8045663,14.2993397 L56.2728176,14.6496699 L56.7376355,15 L56.9596257,14.7606058 C58.1666605,13.4529354 58.8396164,12.3291322 59.2384884,10.9625013 C59.3702618,10.5012352 59.5090205,9.82129402 59.5679811,9.33575704 C59.6407939,8.70790953 59.6269417,8.74603265 59.7622669,8.74603265 L59.8801881,8.74603265 L59.8801881,11.2157477 C59.8801881,12.7661273 59.8940403,13.7720094 59.9183112,13.910768 C59.9981093,14.4032903 60.2131142,14.6773742 60.6362572,14.8229998 C60.8548139,14.8993644 60.9207598,14.9027979 61.7359079,14.9027979 C62.5544893,14.9027979 62.6168834,14.8993644 62.8354402,14.8229998 C63.2585831,14.6773742 63.5256817,14.3547485 63.6574551,13.8379553 C63.7302679,13.5604379 63.8967309,12.2284966 63.8621597,12.1973588 C63.8517409,12.1869401 63.5810905,12.1037085 63.2585831,12.0100583 C62.7452233,11.8643143 62.6688587,11.8504621 62.6515731,11.899004 C62.6411543,11.9302602 62.6203168,12.0932898 62.6064647,12.2667382 C62.5579228,12.9361422 62.4781247,13.5084626 62.4121788,13.6333691 C62.3150951,13.8241031 62.1763364,13.8864971 61.8087206,13.9039011 C61.4341196,13.9211868 61.2849421,13.8656596 61.1912919,13.6714922 C61.1323313,13.5604379 61.1288978,13.3662705 61.1288978,11.1463684 L61.1288978,8.74603265 L63.5568195,8.74603265 L63.5568195,7.67077127 L59.6720501,7.67077127 L59.6720501,5.00002188 L59.0407691,5.00688877 L58.4060547,5.01730751 L58.395636,6.34238187 L58.3886507,7.67077127 L57.3203746,7.67775657 L56.2554136,7.68817531 L56.2451132,8.21538725 L56.2346945,8.74603265 L58.353961,8.74603265 L58.353961,8.87792443 C58.353961,9.28022989 58.1700939,10.2688263 57.9897787,10.8203092 C57.6671529,11.8192059 56.9110839,12.9951028 56.0508274,13.8449405 L55.7871622,14.1016204 L55.7871622,8.0489242 L55.9744628,7.62566286 C56.3144926,6.85562323 56.7619064,5.50982979 56.699394,5.44743574 C56.6786749,5.42659826 55.5617386,4.99647003 55.5340342,5.00002188 C55.5304824,5.00002188 55.4680883,5.19075586 55.3952755,5.42659826 L55.3952755,5.42659826 Z M72.2977876,5.78036186 L72.2977876,6.52613056 L71.8987972,6.52613056 C71.5416001,6.52613056 71.4999252,6.51926367 71.4999252,6.46373651 C71.4999252,6.43248029 71.5241961,6.2487316 71.5520189,6.05787922 C71.5797233,5.86714523 71.6039942,5.66244066 71.6039942,5.60348006 L71.6039942,5.4959776 L71.2849203,5.47170667 C71.1080385,5.45785448 70.8582255,5.44045045 70.7334374,5.43003171 L70.5044619,5.40931262 L70.480191,5.73182 C70.4489347,6.14809604 70.289457,7.09845092 70.1298608,7.80266306 C70.0639149,8.10433295 70.0085062,8.37841686 70.0085062,8.40612124 C70.0085062,8.4477962 70.1194421,8.48248587 70.4974766,8.55186521 C70.7681271,8.60384052 70.9935507,8.64196364 70.9969842,8.63509674 C71.0004176,8.62811145 71.0663635,8.37841686 71.1357428,8.07662857 L71.2675162,7.52857915 L71.7740091,7.53899789 L72.2803836,7.54941663 L72.2908023,8.25007692 L72.2977876,8.95417067 L70.1784027,8.95417067 L70.1888214,9.46409698 L70.1992402,9.97745673 L72.7763393,9.98787547 L75.3501234,9.99474237 L75.3501234,8.95417067 L73.4769996,8.95417067 L73.4769996,7.5320126 L75.0413498,7.5320126 L75.030931,7.03605687 L75.0206307,6.54353459 L74.2505911,6.53311585 L73.4769996,6.52613056 L73.4769996,5.03471155 L72.2977876,5.03471155 L72.2977876,5.78036186 L72.2977876,5.78036186 Z M60.9727351,5.48899231 C60.6917843,5.80818463 60.6432424,5.88099742 60.6813656,5.91568709 C60.7091883,5.93995802 60.8617992,6.06829796 61.0248288,6.1966379 C61.1878584,6.32841128 61.5901639,6.67187453 61.9232084,6.95625879 L62.5266666,7.473052 L62.8007505,7.18168245 C63.196189,6.75853951 63.3209771,6.60249519 63.3001397,6.56780552 C63.2481644,6.48102215 61.3994299,5.10409089 61.3369175,5.10409089 C61.3196318,5.10409089 61.1566022,5.27742084 60.9727351,5.48899231 Z M64.5973912,5.78036186 L64.5973912,6.31799254 L66.1929977,6.31799254 L66.1929977,7.42794359 L64.5973912,7.42794359 L64.6043765,10.868851 C64.6147953,14.6496699 64.6043765,14.4206944 64.8193814,14.6531033 C65.0760613,14.9306207 65.3814015,14.9653103 67.4174365,14.9444728 C69.2523187,14.9306207 69.3147128,14.9202019 69.5748261,14.6599702 C69.8280725,14.4068422 69.8142203,14.6252805 69.8280725,10.8375948 L69.8384913,7.42794359 L69.0823038,7.42107669 L68.3262348,7.41065795 L68.315816,6.86260852 L68.3053973,6.31799254 L69.8350578,6.31799254 L69.8350578,5.24273117 L64.5973912,5.24273117 L64.5973912,5.78036186 L64.5973912,5.78036186 Z M67.4070177,6.87302726 L67.4070177,7.42794359 L67.0948107,7.42794359 L67.0948107,6.31799254 L67.4070177,6.31799254 L67.4070177,6.87302726 Z M66.1929977,8.69405734 C66.1929977,9.43982605 65.9710075,10.4005997 65.7281798,10.7058214 C65.6796379,10.7682155 65.6762045,10.6815505 65.6726526,9.62014129 L65.6726526,8.46863368 L66.1929977,8.46863368 L66.1929977,8.69405734 L66.1929977,8.69405734 Z M67.414003,9.39815108 L67.4243034,10.3277869 L67.5387911,10.556644 C67.7192247,10.9208263 67.9654859,11.0838559 68.4303038,11.1463684 L68.7251068,11.1879249 L68.7251068,11.7984868 L65.6726526,11.7984868 L65.6726526,10.9347969 L66.0369533,11.1463684 C66.453111,11.3856442 66.4496775,11.3890777 66.6057219,11.0734372 C66.8798058,10.5219543 67.0948107,9.49878665 67.0948107,8.72874701 L67.0948107,8.46863368 L67.4035843,8.46863368 L67.414003,9.39815108 Z M68.7251068,9.42585546 L68.7251068,10.3831956 L68.6140525,10.3624766 C68.3539391,10.3103828 68.3088307,10.133501 68.3088307,9.15887524 L68.3088307,8.46863368 L68.7251068,8.46863368 L68.7251068,9.42585546 Z M68.7251068,13.2205265 C68.7251068,13.4806398 68.7077027,13.70263 68.6868653,13.7547237 C68.6002003,13.9385908 68.5273875,13.9490096 67.1920128,13.9490096 C66.0403868,13.9490096 65.9605887,13.9454577 65.8565197,13.8796302 C65.7108941,13.7928468 65.6726526,13.6472213 65.6726526,13.1581324 L65.6726526,12.7696792 L68.7251068,12.7696792 L68.7251068,13.2205265 Z M70.5044619,12.4123637 C70.5114472,13.7963987 70.5252994,14.2785022 70.559989,14.3825712 C70.6328018,14.6045614 70.8582255,14.7952954 71.1391763,14.8716601 C71.3577331,14.9306207 71.5103439,14.9374876 72.8007286,14.9374876 C74.0944283,14.9374876 74.2436058,14.9306207 74.4621625,14.8716601 C74.6528965,14.8195664 74.736128,14.7744579 74.8471823,14.663522 C75.09001,14.4206944 75.0830247,14.455384 75.0968769,12.4123637 L75.1107291,10.5844668 L70.4906097,10.5844668 L70.5044619,12.4123637 L70.5044619,12.4123637 Z M73.8932756,12.6030977 C73.8932756,13.7581572 73.8794234,13.8241031 73.6504479,13.9039011 C73.4839849,13.9593099 72.117354,13.9593099 71.9508909,13.9039011 C71.7219154,13.8241031 71.7080632,13.7581572 71.7080632,12.6030977 L71.7080632,11.5903488 L73.8932756,11.5903488 L73.8932756,12.6030977 L73.8932756,12.6030977 Z" id="Path" fill="#FFFFFF" sketch:type="MSShapeGroup" mask="url(#mask-2)"></path>
            </g>
        </g>
    </g>
</svg>