<svg xmlns="http://www.w3.org/2000/svg" xmlns:xlink="http://www.w3.org/1999/xlink" width="82" height="20" viewBox="0 0 82 20"><defs><rect id="a" width="82" height="20" x="0" y="0" rx="3"/></defs><g fill="none" fill-rule="evenodd"><mask id="b" fill="#fff"><use xlink:href="#a"/></mask><use xlink:href="#a" fill="#EB422D"/><rect width="48" height="20" fill="#1BA7DE" mask="url(#b)"/><path fill="#FFF" d="M6.04418605 6.06100027C5.62440178 6.21581137 5.33508724 6.54588031 5.29029913 6.93297761 5.23730449 7.39754999 5.25761215 7.44233811 6.85510133 10.1645376 7.6660166 11.5581156 8.33436101 12.7195466 8.33436101 12.7480608 8.33436101 12.7725412 8.07759436 13.3674443 7.76379935 14.0683366 7.44597064 14.7692289 7.16068981 15.4538472 7.12396912 15.5883506 6.95691779 16.240282 7.25040514 16.7496425 7.90233651 16.9411743 8.40362959 17.0919517 8.74593876 16.9574483 9.0718349 16.4848084 9.23081881 16.256556 13.0898297 7.71537871 13.1673048 7.42606417 13.2406071 7.14495614 13.2406071 7.00224618 13.163132 6.74547953 13.085796 6.48467916 12.8372358 6.24835925 12.5234408 6.13026885 11.8103083 5.86529567 11.3864903 6.0324861 11.0686616 6.70889793 10.9831191 6.8922232 10.5958827 7.74806569 10.2087854 8.61600931 9.81765441 9.48798664 9.49161917 10.1970855 9.47937894 10.1970855 9.463105 10.1930517 8.98629238 9.38213647 8.41586982 8.39179054 7.58854151 6.96149178 7.33191395 6.54588031 7.15248329 6.36658875 6.82241435 6.02831329 6.42724963 5.91829031 6.04418605 6.06100027L6.04418605 6.06100027ZM15.8730912 6.11802862C14.9399127 6.32180064 14.1085507 6.88818949 13.5503684 7.69507105 12.4256581 9.32093531 12.6171899 11.7008256 13.9822538 13.0658895 14.6831461 13.7585753 15.530782 14.0846105 16.6269781 14.0805768 17.7679623 14.0723703 18.6276995 13.7260274 19.324558 12.9966209 19.8339185 12.4587462 20.1559201 11.7821953 20.2944572 10.9346984 20.3882063 10.376377 20.3637258 9.46767899 20.2374289 9.01131312 19.858399 7.60938944 18.8722259 6.56618797 17.5641903 6.18326348 17.0628972 6.03651981 16.3661778 6.00800564 15.8730912 6.11802862L15.8730912 6.11802862ZM17.2056072 8.07813463C17.6904873 8.30221431 18.0939976 8.8441227 18.2568761 9.48395293 18.3873458 9.99734715 18.3018033 10.8449831 18.0817573 11.285075 17.5194022 12.3812711 16.3824517 12.6625183 15.5715364 11.9044585 14.6586656 11.0527888 14.6138775 9.36989624 15.4777874 8.45299169 15.9871479 7.91915073 16.5902574 7.78882009 17.2056072 8.07813463L17.2056072 8.07813463ZM21.2194292 6.37062247C21.01983 6.43182362 20.7835101 6.68845118 20.6978284 6.94118412 20.6245262 7.14495614 20.6204924 7.3200749 20.6204924 9.42289087 20.6204924 11.6396244 20.6204924 11.6926191 20.7141024 12.0308945 20.7630633 12.2222872 20.8608461 12.4953278 20.9301146 12.633865 21.0850648 12.9558665 21.50471 13.4081987 21.8225387 13.5997305 22.6904823 14.1253649 24.092406 14.2761423 25.298486 13.9705538 26.3458603 13.7015469 27.0019645 13.0861971 27.291279 12.0919566 27.384889 11.7700942 27.384889 11.7496474 27.384889 9.42289087 27.384889 7.12854311 27.384889 7.07568757 27.2993464 6.89625691 27.1770832 6.63142283 26.977484 6.45616499 26.7166836 6.37882898 26.2603178 6.24835925 25.7752986 6.4236171 25.5837668 6.79040674 25.441196 7.06748105 25.4329895 7.16929751 25.4126818 9.36168972L25.3882013 11.5621493 25.2822121 11.7863681C25.1314347 12.1122643 24.9521431 12.2957286 24.6425209 12.446506 24.3939608 12.5687692 24.3367934 12.5810095 24.0026907 12.5768366 23.6888957 12.5768366 23.5993195 12.5605627 23.3792735 12.46278 23.0817524 12.3242428 22.8779804 12.1164371 22.7231693 11.7904018L22.6171801 11.5621493 22.5968724 9.32093531 22.5764257 7.07972128 22.4541624 6.83519485C22.2748709 6.47661174 22.0752717 6.35031481 21.6677276 6.33807458 21.4965035 6.33404087 21.2928706 6.34614201 21.2194292 6.37062247L21.2194292 6.37062247ZM35.335336 6.38689641C35.1275303 6.46033779 34.9685464 6.6191826 34.8544897 6.87191555L34.7607406 7.07972128 34.7607406 9.42289087C34.7607406 11.7496474 34.7607406 11.7700942 34.8544897 12.0919566 35.241587 13.4244726 36.3377831 14.109091 38.1021845 14.1131247 38.9416139 14.1172975 39.6711595 13.9623473 40.2090342 13.6730327 40.3271246 13.6119707 40.555377 13.4326791 40.714361 13.2819017 41.0607038 12.9558665 41.2847835 12.5605627 41.4315272 12.0308945 41.5252762 11.6885854 41.5252762 11.6600712 41.5252762 9.40244412L41.5252762 7.12047568 41.4315272 6.91670366C41.2725433 6.57036077 41.0362234 6.39106922 40.6736065 6.34210829 40.367879 6.29732018 40.0908047 6.39106922 39.8747924 6.60694237 39.5692039 6.91670366 39.5774104 6.84743508 39.55293 9.34138206L39.5284495 11.5621493 39.4224603 11.7904018C39.2839231 12.0837501 39.0313292 12.336483 38.737981 12.4709865 38.5422764 12.5645964 38.4567339 12.5810095 38.1226312 12.5810095 37.7883895 12.5810095 37.702847 12.5645964 37.5113152 12.4750202 37.2260343 12.3405167 36.9979209 12.1122643 36.8634175 11.8271225L36.7574282 11.6029038 36.7371206 9.38213647C36.7126401 6.98597224 36.7126401 7.00641899 36.4885604 6.66814353 36.3458505 6.46437151 36.0484685 6.32583435 35.7427409 6.32583435 35.6042038 6.32986806 35.4249122 6.35434852 35.335336 6.38689641L35.335336 6.38689641ZM28.3792686 6.41958339C28.1387759 6.50915962 27.9879985 6.63962935 27.8902157 6.84743508 27.7964667 7.03493316 27.792433 7.08375499 27.7598851 8.54674073 27.7436112 9.37392995 27.7354046 10.8082624 27.7394384 11.7293398L27.7516786 13.3999922 27.8739418 13.6404849C27.9758974 13.8400841 28.0329257 13.8972515 28.199977 13.982794 28.3752349 14.0765431 28.4525709 14.0886442 28.811154 14.0886442 29.1534632 14.0886442 29.2472122 14.0723703 29.3899222 13.999068 29.8055336 13.7749883 29.8503218 13.5956967 29.8503218 12.1245045 29.8503218 11.4888471 29.8585283 10.97128 29.8707685 10.97128 29.8870425 10.97128 30.583901 11.6070766 31.4233305 12.3853049 32.2750002 13.1759125 33.0329208 13.8482906 33.1389101 13.9053189 33.3915039 14.0398224 33.8112882 14.0683366 34.0761223 13.9665201 34.5080077 13.7993297 34.6832655 13.5019477 34.6507176 12.980347 34.6180307 12.446506 34.5732425 12.3894777 33.3182016 11.2320804 32.7150921 10.6738981 32.2179718 10.1970855 32.2179718 10.1766387 32.213799 10.1522973 32.5316277 9.83850234 32.9188641 9.47574641 34.1535974 8.31445454 34.190179 8.27370013 34.3328889 8.00065954 34.4061912 7.85391586 34.4714261 7.65014384 34.4836663 7.52801972 34.5284544 7.09599522 34.2798943 6.66814353 33.86011 6.46437151 33.6685782 6.37062247 33.5993097 6.35838224 33.3832974 6.37465618 33.2447602 6.38689641 33.045161 6.43585733 32.9473783 6.48481825 32.8169086 6.54991403 32.3400959 7.00641899 31.3091347 8.04962046L29.8543555 9.52470733 29.8503218 8.416271C29.8503218 7.78882009 29.8300141 7.21825843 29.8055336 7.10420174 29.7485053 6.83922857 29.5692137 6.59484124 29.3532015 6.48481825 29.1331555 6.37062247 28.6033483 6.33807458 28.3792686 6.41958339L28.3792686 6.41958339ZM59.6720501 5.00002188 59.6720501 7.67077127 63.5568195 7.67077127 63.5568195 8.74603265 61.1288978 8.74603265 61.1292599 11.979394C61.1293329 12.0394214 61.1294198 12.0972189 61.1295229 12.152875L61.1303556 12.4618232C61.134085 13.4581596 61.1470714 13.5882015 61.1912919 13.6714922 61.2849421 13.8656596 61.4341196 13.9211868 61.8087206 13.9039011 62.1763364 13.8864971 62.3150951 13.8241031 62.4121788 13.6333691 62.4781247 13.5084626 62.5579228 12.9361422 62.6064647 12.2667382 62.6203168 12.0932898 62.6411543 11.9302602 62.6515731 11.899004 62.6688587 11.8504621 62.7452233 11.8643143 63.2585831 12.0100583 63.5810905 12.1037085 63.8517409 12.1869401 63.8621597 12.1973588 63.8967309 12.2284966 63.7302679 13.5604379 63.6574551 13.8379553 63.5256817 14.3547485 63.2585831 14.6773742 62.8354402 14.8229998 62.6481058 14.8884552 62.5755032 14.9003285 62.0430912 14.9023851L61.429799 14.9023851C60.8988036 14.9003285 60.8235915 14.8884552 60.6362572 14.8229998 60.2131142 14.6773742 59.9981093 14.4032903 59.9183112 13.910768 59.8940403 13.7720094 59.8801881 12.7661273 59.8801881 11.2157477L59.8801881 8.74603265 59.7622669 8.74603265C59.6269417 8.74603265 59.6407939 8.70790953 59.5679811 9.33575704 59.5090205 9.82129402 59.3702618 10.5012352 59.2384884 10.9625013 58.8396164 12.3291322 58.1666605 13.4529354 56.9596257 14.7606058L56.7376355 15 56.2728176 14.6496699 55.8045663 14.2993397 55.7941475 14.646118 55.7837288 14.9895813 54.5385709 14.9895813 54.5315856 12.5649746 54.5211669 10.1404863 54.2332308 10.5427918C54.0771865 10.764782 53.9245756 10.9763535 53.8968712 11.0144766 53.8517628 11.076989 53.82394 11.059585 53.4424721 10.7196736 53.2204818 10.5219543 53.0089104 10.3346538 52.9706689 10.303516 52.9012895 10.2479888 52.9048414 10.2410035 53.1926591 9.8352646 54.1395805 8.51019025 54.9061867 6.97709627 55.3952755 5.42659826 55.4680883 5.19075586 55.5304824 5.00002188 55.5340342 5.00002188 55.5617386 4.99647003 56.6786749 5.42659826 56.699394 5.44743574 56.7619064 5.50982979 56.3144926 6.85562323 55.9744628 7.62566286L55.7871622 8.0489242 55.7871622 14.1016204 56.0508274 13.8449405C56.9110839 12.9951028 57.6671529 11.8192059 57.9897787 10.8203092 58.1700939 10.2688263 58.353961 9.28022989 58.353961 8.87792443L58.353961 8.74603265 56.2346945 8.74603265 56.2451132 8.21538725 56.2554136 7.68817531 57.3203746 7.67775657 58.3886507 7.67077127 58.395636 6.34238187 58.4060547 5.01730751 59.0407691 5.00688877 59.6720501 5.00002188ZM69.8350578 5.24273117 69.8350578 6.31799254 68.3053973 6.31799254 68.315816 6.86260852 68.3262348 7.41065795 69.0823038 7.42107669 69.8384913 7.42794359 69.8280725 10.8375948C69.8142203 14.6252805 69.8280725 14.4068422 69.5748261 14.6599702L69.5431992 14.6912164C69.306436 14.9210761 69.1758653 14.9311978 67.4174365 14.9444728 65.3814015 14.9653103 65.0760613 14.9306207 64.8193814 14.6531033 64.8032561 14.6356726 64.7883987 14.6208372 64.7747055 14.6067109L64.7488404 14.5788446C64.6066556 14.4152852 64.6134929 14.1770675 64.6043765 10.868851L64.5973912 7.42794359 66.1929977 7.42794359 66.1929977 6.31799254 64.5973912 6.31799254 64.5973912 5.24273117 69.8350578 5.24273117ZM75.1107291 10.5844668 75.0968769 12.4123637C75.0840508 14.3040492 75.0890895 14.4144332 74.8971419 14.6131713L74.8471823 14.663522C74.736128 14.7744579 74.6528965 14.8195664 74.4621625 14.8716601 74.2678899 14.9240695 74.1284354 14.9353184 73.1912373 14.9371712L72.411089 14.9371712C71.4756163 14.9353184 71.333449 14.9240695 71.1391763 14.8716601 70.8582255 14.7952954 70.6328018 14.6045614 70.559989 14.3825712 70.5252994 14.2785022 70.5114472 13.7963987 70.5044619 12.4123637L70.4906097 10.5844668 75.1107291 10.5844668ZM68.7251068 12.7696792 65.6726526 12.7696792 65.6726526 13.1581324C65.6726526 13.6472213 65.7108941 13.7928468 65.8565197 13.8796302 65.9422236 13.9338411 66.0114669 13.9458166 66.6764409 13.948355L66.9996878 13.9489607 67.1920128 13.9490096C68.5273875 13.9490096 68.6002003 13.9385908 68.6868653 13.7547237 68.7077027 13.70263 68.7251068 13.4806398 68.7251068 13.2205265L68.7251068 12.7696792ZM73.8932756 11.5903488 71.7080632 11.5903488 71.708226 12.7857124C71.7102663 13.7655272 71.7346363 13.8285363 71.9508909 13.9039011 72.117354 13.9593099 73.4839849 13.9593099 73.6504479 13.9039011 73.8539817 13.8329695 73.8875415 13.7729828 73.8924865 12.949293L73.8932756 11.5903488ZM67.4035843 8.46863368 67.0948107 8.46863368 67.0948107 8.72874701C67.0948107 9.49878665 66.8798058 10.5219543 66.6057219 11.0734372 66.4496775 11.3890777 66.453111 11.3856442 66.0369533 11.1463684L65.6726526 10.9347969 65.6726526 11.7984868 68.7251068 11.7984868 68.7251068 11.1879249 68.4303038 11.1463684C67.9654859 11.0838559 67.7192247 10.9208263 67.5387911 10.556644L67.4243034 10.3277869 67.414003 9.39815108 67.4035843 8.46863368ZM66.1929977 8.46863368 65.6726526 8.46863368 65.6732874 9.79749841C65.6767645 10.6912306 65.6824933 10.7645452 65.7281798 10.7058214 65.9710075 10.4005997 66.1929977 9.43982605 66.1929977 8.69405734L66.1929977 8.46863368ZM68.7251068 8.46863368 68.3088307 8.46863368 68.3088307 9.15887524C68.3088307 10.133501 68.3539391 10.3103828 68.6140525 10.3624766L68.7251068 10.3831956 68.7251068 8.46863368ZM73.4769996 5.03471155 73.4769996 6.52613056 74.2505911 6.53311585 75.0206307 6.54353459 75.030931 7.03605687 75.0413498 7.5320126 73.4769996 7.5320126 73.4769996 8.95417067 75.3501234 8.95417067 75.3501234 9.99474237 72.7763393 9.98787547 70.1992402 9.97745673 70.1888214 9.46409698 70.1784027 8.95417067 72.2977876 8.95417067 72.2908023 8.25007692 72.2803836 7.54941663 71.7740091 7.53899789 71.2675162 7.52857915 71.1357428 8.07662857C71.0663635 8.37841686 71.0004176 8.62811145 70.9969842 8.63509674 70.9935507 8.64196364 70.7681271 8.60384052 70.4974766 8.55186521 70.1194421 8.48248587 70.0085062 8.4477962 70.0085062 8.40612124 70.0085062 8.39919515 70.0119692 8.37687033 70.0181942 8.34256544L70.0444538 8.20712922C70.0665492 8.09743646 70.0968879 7.953498 70.1298608 7.80266306 70.289457 7.09845092 70.4489347 6.14809604 70.480191 5.73182L70.5044619 5.40931262 70.7334374 5.43003171C70.8582255 5.44045045 71.1080385 5.45785448 71.2849203 5.47170667L71.6039942 5.4959776 71.6039942 5.60348006C71.6039942 5.66244066 71.5797233 5.86714523 71.5520189 6.05787922 71.5241961 6.2487316 71.4999252 6.43248029 71.4999252 6.46373651 71.4999252 6.51926367 71.5416001 6.52613056 71.8987972 6.52613056L72.2977876 6.52613056 72.2977876 5.03471155 73.4769996 5.03471155ZM61.3369175 5.10409089C61.3994299 5.10409089 63.2481644 6.48102215 63.3001397 6.56780552 63.3152942 6.59303438 63.2534236 6.68245081 63.0664342 6.89211862L62.901981 7.07279261 62.8007505 7.18168245 62.5266666 7.473052 61.9232084 6.95625879C61.5901639 6.67187453 61.1878584 6.32841128 61.0248288 6.1966379L60.869508 6.07215236C60.773924 5.99430122 60.6999141 5.93186771 60.6813656 5.91568709 60.6432424 5.88099742 60.6917843 5.80818463 60.9727351 5.48899231 61.1566022 5.27742084 61.3196318 5.10409089 61.3369175 5.10409089ZM67.4070177 6.31799254 67.0948107 6.31799254 67.0948107 7.42794359 67.4070177 7.42794359 67.4070177 6.31799254Z" mask="url(#b)"/></g></svg>