<?xml version="1.0" encoding="UTF-8" standalone="no"?>
<svg width="54px" height="20px" viewBox="0 0 54 20" version="1.1" xmlns="http://www.w3.org/2000/svg" xmlns:xlink="http://www.w3.org/1999/xlink" xmlns:sketch="http://www.bohemiancoding.com/sketch/ns">
    <!-- Generator: Sketch 3.5.1 (25234) - http://www.bohemiancoding.com/sketch -->
    <title>zhihu</title>
    <desc>Created with Sketch.</desc>
    <defs>
        <rect id="path-1" x="0" y="0" width="54" height="20" rx="3"></rect>
    </defs>
    <g id="Page-1" stroke="none" stroke-width="1" fill="none" fill-rule="evenodd" sketch:type="MSPage">
        <g id="icon" sketch:type="MSLayerGroup" transform="translate(-104.000000, -90.000000)">
            <g id="zhihu" transform="translate(104.000000, 90.000000)">
                <mask id="mask-2" sketch:name="Mask" fill="white">
                    <use xlink:href="#path-1"></use>
                </mask>
                <use id="Mask" fill="#1D7FE1" sketch:type="MSShapeGroup" xlink:href="#path-1"></use>
                <rect id="颜色" fill="#055CB2" sketch:type="MSShapeGroup" mask="url(#mask-2)" x="0" y="0" width="21" height="20"></rect>
                <text id="Cancel" fill="#FFFFFF" sketch:type="MSTextLayer" mask="url(#mask-2)" font-family="PingFang SC" font-size="12" font-weight="526" sketch:alignment="middle">
                    <tspan x="25.0298507" y="14">知乎</tspan>
                </text>
                <path d="M10.1037836,9.7440976 L8.32151639,9.7440976 C8.38082055,8.62175845 8.3962912,7.60709723 8.3962912,6.70109373 L10.1390761,6.70109373 C10.139076,6.70109373 10.2061961,5.7665786 9.84690639,5.77735619 L6.83214399,5.77735619 C6.95091346,5.23396964 7.10030193,4.67284906 7.27902017,4.0928187 C7.27902017,4.0928187 6.45915628,4.0928187 6.17963708,4.98686887 C6.06425182,5.35605036 5.72969901,6.77389146 5.13407897,8.22269365 C5.33479454,8.19653349 5.99825983,8.17439044 6.38897432,7.30297321 C6.46092896,7.05969358 6.47462693,7.02716485 6.56398605,6.70109373 L7.54709753,6.70109373 C7.54709753,7.13572459 7.55225442,7.73633035 7.52292464,8.46038852 C7.52292464,9.15015435 7.5064065,9.47152252 7.48988836,9.7440976 L5.70874917,9.7440976 C5.30884897,9.7440976 5.17871824,10.722213 5.17871824,10.722213 L7.41309914,10.722213 C7.2636301,12.7871015 6.45923686,14.5080868 5,15.8843852 C5.2380224,16.1737145 6.42515308,15.8739016 6.73738626,15.4925708 C6.73738626,15.4925708 7.52018505,14.6276201 7.94941502,12.6240659 C8.51498009,13.4214117 8.99175008,14.1278338 9.37940268,14.7432343 C9.55820149,15.0334454 9.78163958,15.3409987 9.78163958,15.3409987 C9.78163958,15.3409987 10.0574523,14.2003376 9.7455414,13.6577349 C9.48737492,13.2880635 8.78313803,12.2803587 8.48573089,11.9176438 L7.99405429,12.4067505 C8.14279815,11.8278959 8.23231842,11.2655016 8.2622928,10.722213 L10.3625142,10.722213 C10.3625143,10.722213 10.3594523,9.7440976 10.1037836,9.7440976 Z M11.6072569,14.6320291 L11.8629255,15.7176265 C11.8629255,15.7176268 13.0866378,14.6320291 13.3010514,14.6320291 C13.5155455,14.6320291 14.1392061,14.6318332 14.1392061,14.6318332 L14.9883192,14.6318332 L14.9883192,5.62098314 L10.8093903,5.62098314 L10.8093903,14.6318332 L11.6072569,14.6320291 Z M14.1392061,6.59909853 L14.1392061,13.6539137 L13.1875999,13.6539137 L12.2220541,14.4047199 L12.0642051,13.6553834 L11.6585034,13.6539137 L11.6585034,6.59909853 L14.1392061,6.59909853 Z" id="Shape" fill="#FFFFFF" sketch:type="MSShapeGroup" mask="url(#mask-2)"></path>
            </g>
        </g>
    </g>
</svg>