<?xml version="1.0" encoding="UTF-8" standalone="no"?>
<svg width="60px" height="12px" viewBox="0 0 60 11" version="1.1" xmlns="http://www.w3.org/2000/svg" xmlns:xlink="http://www.w3.org/1999/xlink" xmlns:sketch="http://www.bohemiancoding.com/sketch/ns">
    <!-- Generator: https://jaywcjlove.github.io/sb/-->
    <title>red0</title>
    <desc>Created with Sketch.</desc>
    <defs></defs>
    <g id="Page-1" stroke="none" stroke-width="1" fill="none" fill-rule="evenodd" sketch:type="MSPage">
        <g id="star" sketch:type="MSLayerGroup" transform="translate(0.000000, -71.000000)" fill="#9B9B9B">
            <g id="red0" transform="translate(0.000000, 71.000000)" sketch:type="MSShapeGroup">
                <path d="M5.7063391,9 L2.17962758,10.854102 L2.85316955,6.92705098 L5.68434189e-14,4.14589803 L3.94298334,3.57294902 L5.7063391,0 L7.46969485,3.57294902 L11.4126782,4.14589803 L8.55950865,6.92705098 L9.23305061,10.854102 L5.7063391,9 Z M17.7063391,9 L14.1796276,10.854102 L14.8531695,6.92705098 L12,4.14589803 L15.9429833,3.57294902 L17.7063391,0 L19.4696949,3.57294902 L23.4126782,4.14589803 L20.5595086,6.92705098 L21.2330506,10.854102 L17.7063391,9 Z M29.7063391,9 L26.1796276,10.854102 L26.8531695,6.92705098 L24,4.14589803 L27.9429833,3.57294902 L29.7063391,0 L31.4696949,3.57294902 L35.4126782,4.14589803 L32.5595086,6.92705098 L33.2330506,10.854102 L29.7063391,9 Z M41.7063391,9 L38.1796276,10.854102 L38.8531695,6.92705098 L36,4.14589803 L39.9429833,3.57294902 L41.7063391,0 L43.4696949,3.57294902 L47.4126782,4.14589803 L44.5595086,6.92705098 L45.2330506,10.854102 L41.7063391,9 Z M53.7063391,9 L50.1796276,10.854102 L50.8531695,6.92705098 L48,4.14589803 L51.9429833,3.57294902 L53.7063391,0 L55.4696949,3.57294902 L59.4126782,4.14589803 L56.5595086,6.92705098 L57.2330506,10.854102 L53.7063391,9 Z" id="red5"></path>
            </g>
        </g>
    </g>
</svg>