<?xml version="1.0" encoding="UTF-8" standalone="no"?>
<svg width="64px" height="12px" viewBox="0 0 64 11" version="1.1" xmlns="http://www.w3.org/2000/svg" xmlns:xlink="http://www.w3.org/1999/xlink" xmlns:sketch="http://www.bohemiancoding.com/sketch/ns">
    <!-- Generator: Sketch 3.5.1 (25234) - http://www.bohemiancoding.com/sketch -->
    <title>red0</title>
    <desc>Created with Sketch.</desc>
    <defs></defs>
    <g id="Page-1" stroke="none" stroke-width="1" fill="none" fill-rule="evenodd" sketch:type="MSPage">
        <g id="star" sketch:type="MSLayerGroup" transform="translate(0.000000, -71.000000)" fill="#9B9B9B">
            <g id="red0" transform="translate(0.000000, 71.000000)" sketch:type="MSShapeGroup">
                <path d="M5.7063391,9 L2.17962758,10.854102 L2.85316955,6.92705098 L0,4.14589803 L3.94298334,3.57294902 L5.7063391,0 L7.46969485,3.57294902 L11.4126782,4.14589803 L8.55950865,6.92705098 L9.23305061,10.854102 L5.7063391,9 Z M18.7063391,9 L15.1796276,10.854102 L15.8531695,6.92705098 L13,4.14589803 L16.9429833,3.57294902 L18.7063391,0 L20.4696949,3.57294902 L24.4126782,4.14589803 L21.5595086,6.92705098 L22.2330506,10.854102 L18.7063391,9 Z M31.7063391,9 L28.1796276,10.854102 L28.8531695,6.92705098 L26,4.14589803 L29.9429833,3.57294902 L31.7063391,0 L33.4696949,3.57294902 L37.4126782,4.14589803 L34.5595086,6.92705098 L35.2330506,10.854102 L31.7063391,9 Z M44.7063391,9 L41.1796276,10.854102 L41.8531695,6.92705098 L39,4.14589803 L42.9429833,3.57294902 L44.7063391,0 L46.4696949,3.57294902 L50.4126782,4.14589803 L47.5595086,6.92705098 L48.2330506,10.854102 L44.7063391,9 Z M57.7063391,9 L54.1796276,10.854102 L54.8531695,6.92705098 L52,4.14589803 L55.9429833,3.57294902 L57.7063391,0 L59.4696949,3.57294902 L63.4126782,4.14589803 L60.5595086,6.92705098 L61.2330506,10.854102 L57.7063391,9 Z" id="red5"></path>
            </g>
        </g>
    </g>
</svg>