<?xml version="1.0" encoding="UTF-8" standalone="no"?>
<svg width="60px" height="12px" viewBox="0 0 60 12" version="1.1" xmlns="http://www.w3.org/2000/svg" xmlns:xlink="http://www.w3.org/1999/xlink" xmlns:sketch="http://www.bohemiancoding.com/sketch/ns">
    <!-- Generator: https://jaywcjlove.github.io/sb/-->
    <title>red1</title>
    <desc>Created with Sketch.</desc>
    <defs></defs>
    <g id="Page-1" stroke="none" stroke-width="1" fill="none" fill-rule="evenodd" sketch:type="MSPage">
        <g id="star" sketch:type="MSLayerGroup" transform="translate(0.000000, -56.000000)">
            <g id="red1" transform="translate(0.000000, 56.854102)" sketch:type="MSShapeGroup">
                <polygon id="red5" fill="#C90000" points="5.7063391 9 2.17962758 10.854102 2.85316955 6.92705098 5.68434189e-14 4.14589803 3.94298334 3.57294902 5.7063391 0 7.46969485 3.57294902 11.4126782 4.14589803 8.55950865 6.92705098 9.23305061 10.854102 "></polygon>
                <polygon id="Star-1" fill="#9B9B9B" points="53.7063391 9 50.1796276 10.854102 50.8531695 6.92705098 48 4.14589803 51.9429833 3.57294902 53.7063391 0 55.4696949 3.57294902 59.4126782 4.14589803 56.5595086 6.92705098 57.2330506 10.854102 "></polygon>
                <polygon id="Star-1" fill="#9B9B9B" points="41.7063391 9 38.1796276 10.854102 38.8531695 6.92705098 36 4.14589803 39.9429833 3.57294902 41.7063391 0 43.4696949 3.57294902 47.4126782 4.14589803 44.5595086 6.92705098 45.2330506 10.854102 "></polygon>
                <polygon id="Star-1" fill="#9B9B9B" points="29.7063391 9 26.1796276 10.854102 26.8531695 6.92705098 24 4.14589803 27.9429833 3.57294902 29.7063391 0 31.4696949 3.57294902 35.4126782 4.14589803 32.5595086 6.92705098 33.2330506 10.854102 "></polygon>
                <polygon id="Star-1" fill="#9B9B9B" points="17.7063391 9 14.1796276 10.854102 14.8531695 6.92705098 12 4.14589803 15.9429833 3.57294902 17.7063391 0 19.4696949 3.57294902 23.4126782 4.14589803 20.5595086 6.92705098 21.2330506 10.854102 "></polygon>
            </g>
        </g>
    </g>
</svg>