<svg xmlns="http://www.w3.org/2000/svg" width="59.413" height="10.854" viewBox="0 0 59.413 10.854"><g fill="none" fill-rule="evenodd"><polygon fill="#C90000" points="5.706 9 2.18 10.854 2.853 6.927 0 4.146 3.943 3.573 5.706 0 7.47 3.573 11.413 4.146 8.56 6.927 9.233 10.854"/><polygon fill="#9B9B9B" points="53.706 9 50.18 10.854 50.853 6.927 48 4.146 51.943 3.573 53.706 0 55.47 3.573 59.413 4.146 56.56 6.927 57.233 10.854"/><polygon fill="#9B9B9B" points="41.706 9 38.18 10.854 38.853 6.927 36 4.146 39.943 3.573 41.706 0 43.47 3.573 47.413 4.146 44.56 6.927 45.233 10.854"/><polygon fill="#9B9B9B" points="29.706 9 26.18 10.854 26.853 6.927 24 4.146 27.943 3.573 29.706 0 31.47 3.573 35.413 4.146 32.56 6.927 33.233 10.854"/><polygon fill="#9B9B9B" points="17.706 9 14.18 10.854 14.853 6.927 12 4.146 15.943 3.573 17.706 0 19.47 3.573 23.413 4.146 20.56 6.927 21.233 10.854"/></g></svg>