<?xml version="1.0" encoding="UTF-8" standalone="no"?>
<svg width="64px" height="12px" viewBox="0 0 64 12" version="1.1" xmlns="http://www.w3.org/2000/svg" xmlns:xlink="http://www.w3.org/1999/xlink" xmlns:sketch="http://www.bohemiancoding.com/sketch/ns">
    <!-- Generator: Sketch 3.5.1 (25234) - http://www.bohemiancoding.com/sketch -->
    <title>red1</title>
    <desc>Created with Sketch.</desc>
    <defs></defs>
    <g id="Page-1" stroke="none" stroke-width="1" fill="none" fill-rule="evenodd" sketch:type="MSPage">
        <g id="star" sketch:type="MSLayerGroup" transform="translate(0.000000, -56.000000)">
            <g id="red1" transform="translate(0.000000, 56.854102)" sketch:type="MSShapeGroup">
                <polygon id="red5" fill="#C90000" points="5.7063391 9 2.17962758 10.854102 2.85316955 6.92705098 5.68434189e-14 4.14589803 3.94298334 3.57294902 5.7063391 0 7.46969485 3.57294902 11.4126782 4.14589803 8.55950865 6.92705098 9.23305061 10.854102 "></polygon>
                <polygon id="Star-1" fill="#9B9B9B" points="57.7063391 9 54.1796276 10.854102 54.8531695 6.92705098 52 4.14589803 55.9429833 3.57294902 57.7063391 0 59.4696949 3.57294902 63.4126782 4.14589803 60.5595086 6.92705098 61.2330506 10.854102 "></polygon>
                <polygon id="Star-1" fill="#9B9B9B" points="44.7063391 9 41.1796276 10.854102 41.8531695 6.92705098 39 4.14589803 42.9429833 3.57294902 44.7063391 0 46.4696949 3.57294902 50.4126782 4.14589803 47.5595086 6.92705098 48.2330506 10.854102 "></polygon>
                <polygon id="Star-1" fill="#9B9B9B" points="31.7063391 9 28.1796276 10.854102 28.8531695 6.92705098 26 4.14589803 29.9429833 3.57294902 31.7063391 0 33.4696949 3.57294902 37.4126782 4.14589803 34.5595086 6.92705098 35.2330506 10.854102 "></polygon>
                <polygon id="Star-1" fill="#9B9B9B" points="18.7063391 9 15.1796276 10.854102 15.8531695 6.92705098 13 4.14589803 16.9429833 3.57294902 18.7063391 0 20.4696949 3.57294902 24.4126782 4.14589803 21.5595086 6.92705098 22.2330506 10.854102 "></polygon>
            </g>
        </g>
    </g>
</svg>