<?xml version="1.0" encoding="UTF-8" standalone="no"?>
<svg width="64px" height="12px" viewBox="0 0 64 11" version="1.1" xmlns="http://www.w3.org/2000/svg" xmlns:xlink="http://www.w3.org/1999/xlink" xmlns:sketch="http://www.bohemiancoding.com/sketch/ns">
    <!-- Generator: Sketch 3.5.1 (25234) - http://www.bohemiancoding.com/sketch -->
    <title>red3</title>
    <desc>Created with Sketch.</desc>
    <defs></defs>
    <g id="Page-1" stroke="none" stroke-width="1" fill="none" fill-rule="evenodd" sketch:type="MSPage">
        <g id="star" sketch:type="MSLayerGroup" transform="translate(0.000000, -28.000000)">
            <g id="red3" transform="translate(0.000000, 27.854102)" sketch:type="MSShapeGroup">
                <path d="M5.7063391,9.14589803 L2.17962758,11 L2.85316955,7.07294902 L5.68434189e-14,4.29179607 L3.94298334,3.71884705 L5.7063391,0.145898034 L7.46969485,3.71884705 L11.4126782,4.29179607 L8.55950865,7.07294902 L9.23305061,11 L5.7063391,9.14589803 Z M18.7063391,9.14589803 L15.1796276,11 L15.8531695,7.07294902 L13,4.29179607 L16.9429833,3.71884705 L18.7063391,0.145898034 L20.4696949,3.71884705 L24.4126782,4.29179607 L21.5595086,7.07294902 L22.2330506,11 L18.7063391,9.14589803 Z M31.7063391,9.14589803 L28.1796276,11 L28.8531695,7.07294902 L26,4.29179607 L29.9429833,3.71884705 L31.7063391,0.145898034 L33.4696949,3.71884705 L37.4126782,4.29179607 L34.5595086,7.07294902 L35.2330506,11 L31.7063391,9.14589803 Z" fill="#C90000"></path>
                <polygon id="Star-1" fill="#9B9B9B" points="57.7063391 9.14589803 54.1796276 11 54.8531695 7.07294902 52 4.29179607 55.9429833 3.71884705 57.7063391 0.145898034 59.4696949 3.71884705 63.4126782 4.29179607 60.5595086 7.07294902 61.2330506 11 "></polygon>
                <polygon id="Star-1" fill="#9B9B9B" points="44.7063391 9.14589803 41.1796276 11 41.8531695 7.07294902 39 4.29179607 42.9429833 3.71884705 44.7063391 0.145898034 46.4696949 3.71884705 50.4126782 4.29179607 47.5595086 7.07294902 48.2330506 11 "></polygon>
            </g>
        </g>
    </g>
</svg>