<svg xmlns="http://www.w3.org/2000/svg" width="59.413" height="10.854" viewBox="0 0 59.413 10.854"><g fill="none" fill-rule="evenodd" transform="translate(0 -.146)"><path fill="#C90000" d="M5.7063391,9.14589803 L2.17962758,11 L2.85316955,7.07294902 L0,4.29179607 L3.94298334,3.71884705 L5.7063391,0.145898034 L7.46969485,3.71884705 L11.4126782,4.29179607 L8.55950865,7.07294902 L9.23305061,11 L5.7063391,9.14589803 Z M17.7063391,9.14589803 L14.1796276,11 L14.8531695,7.07294902 L12,4.29179607 L15.9429833,3.71884705 L17.7063391,0.145898034 L19.4696949,3.71884705 L23.4126782,4.29179607 L20.5595086,7.07294902 L21.2330506,11 L17.7063391,9.14589803 Z M29.7063391,9.14589803 L26.1796276,11 L26.8531695,7.07294902 L24,4.29179607 L27.9429833,3.71884705 L29.7063391,0.145898034 L31.4696949,3.71884705 L35.4126782,4.29179607 L32.5595086,7.07294902 L33.2330506,11 L29.7063391,9.14589803 Z"/><polygon fill="#9B9B9B" points="53.706 9.146 50.18 11 50.853 7.073 48 4.292 51.943 3.719 53.706 .146 55.47 3.719 59.413 4.292 56.56 7.073 57.233 11"/><polygon fill="#9B9B9B" points="41.706 9.146 38.18 11 38.853 7.073 36 4.292 39.943 3.719 41.706 .146 43.47 3.719 47.413 4.292 44.56 7.073 45.233 11"/></g></svg>