<?xml version="1.0" encoding="UTF-8" standalone="no"?>
<svg width="60px" height="12px" viewBox="0 0 60 11" version="1.1" xmlns="http://www.w3.org/2000/svg" xmlns:xlink="http://www.w3.org/1999/xlink" xmlns:sketch="http://www.bohemiancoding.com/sketch/ns">
    <!-- Generator: https://jaywcjlove.github.io/sb/-->
    <title>red3</title>
    <desc>Created with Sketch.</desc>
    <defs></defs>
    <g id="Page-1" stroke="none" stroke-width="1" fill="none" fill-rule="evenodd" sketch:type="MSPage">
        <g id="star" sketch:type="MSLayerGroup" transform="translate(0.000000, -28.000000)">
            <g id="red3" transform="translate(0.000000, 27.854102)" sketch:type="MSShapeGroup">
                <path d="M5.7063391,9.14589803 L2.17962758,11 L2.85316955,7.07294902 L0,4.29179607 L3.94298334,3.71884705 L5.7063391,0.145898034 L7.46969485,3.71884705 L11.4126782,4.29179607 L8.55950865,7.07294902 L9.23305061,11 L5.7063391,9.14589803 Z M17.7063391,9.14589803 L14.1796276,11 L14.8531695,7.07294902 L12,4.29179607 L15.9429833,3.71884705 L17.7063391,0.145898034 L19.4696949,3.71884705 L23.4126782,4.29179607 L20.5595086,7.07294902 L21.2330506,11 L17.7063391,9.14589803 Z M29.7063391,9.14589803 L26.1796276,11 L26.8531695,7.07294902 L24,4.29179607 L27.9429833,3.71884705 L29.7063391,0.145898034 L31.4696949,3.71884705 L35.4126782,4.29179607 L32.5595086,7.07294902 L33.2330506,11 L29.7063391,9.14589803 Z" fill="#C90000"></path>
                <polygon id="Star-1" fill="#9B9B9B" points="53.7063391 9.14589803 50.1796276 11 50.8531695 7.07294902 48 4.29179607 51.9429833 3.71884705 53.7063391 0.145898034 55.4696949 3.71884705 59.4126782 4.29179607 56.5595086 7.07294902 57.2330506 11 "></polygon>
                <polygon id="Star-1" fill="#9B9B9B" points="41.7063391 9.14589803 38.1796276 11 38.8531695 7.07294902 36 4.29179607 39.9429833 3.71884705 41.7063391 0.145898034 43.4696949 3.71884705 47.4126782 4.29179607 44.5595086 7.07294902 45.2330506 11 "></polygon>
            </g>
        </g>
    </g>
</svg>