<svg xmlns="http://www.w3.org/2000/svg" width="59.413" height="10.854" viewBox="0 0 59.413 10.854"><defs><linearGradient id="a" x1="50%" x2="50%" y1="0%" y2="100%"><stop offset="0%" stop-color="#E60000"/><stop offset="100%" stop-color="#C90000"/></linearGradient></defs><g fill="none" fill-rule="evenodd"><path fill="url(#a)" d="M5.7063391,9 L2.17962758,10.854102 L2.85316955,6.92705098 L5.68434189e-14,4.14589803 L3.94298334,3.57294902 L5.7063391,0 L7.46969485,3.57294902 L11.4126782,4.14589803 L8.55950865,6.92705098 L9.23305061,10.854102 L5.7063391,9 Z M17.7063391,9 L14.1796276,10.854102 L14.8531695,6.92705098 L12,4.14589803 L15.9429833,3.57294902 L17.7063391,0 L19.4696949,3.57294902 L23.4126782,4.14589803 L20.5595086,6.92705098 L21.2330506,10.854102 L17.7063391,9 Z M29.7063391,9 L26.1796276,10.854102 L26.8531695,6.92705098 L24,4.14589803 L27.9429833,3.57294902 L29.7063391,0 L31.4696949,3.57294902 L35.4126782,4.14589803 L32.5595086,6.92705098 L33.2330506,10.854102 L29.7063391,9 Z M41.7063391,9 L38.1796276,10.854102 L38.8531695,6.92705098 L36,4.14589803 L39.9429833,3.57294902 L41.7063391,0 L43.4696949,3.57294902 L47.4126782,4.14589803 L44.5595086,6.92705098 L45.2330506,10.854102 L41.7063391,9 Z"/><polygon fill="#9B9B9B" points="53.706 9 50.18 10.854 50.853 6.927 48 4.146 51.943 3.573 53.706 0 55.47 3.573 59.413 4.146 56.56 6.927 57.233 10.854"/></g></svg>