<?xml version="1.0" encoding="UTF-8" standalone="no"?>
<svg width="60px" height="12px" viewBox="0 0 60 12" version="1.1" xmlns="http://www.w3.org/2000/svg" xmlns:xlink="http://www.w3.org/1999/xlink" xmlns:sketch="http://www.bohemiancoding.com/sketch/ns">
    <!-- Generator: https://jaywcjlove.github.io/sb/-->
    <title>red4</title>
    <desc>Created with Sketch.</desc>
    <defs>
        <linearGradient x1="50%" y1="0%" x2="50%" y2="100%" id="linearGradient-1">
            <stop stop-color="#E70000" offset="0%"></stop>
            <stop stop-color="#C90000" offset="100%"></stop>
        </linearGradient>
    </defs>
    <g id="Page-1" stroke="none" stroke-width="1" fill="none" fill-rule="evenodd" sketch:type="MSPage">
        <g id="star" sketch:type="MSLayerGroup" transform="translate(0.000000, -13.000000)">
            <g id="red4" transform="translate(0.000000, 13.854102)" sketch:type="MSShapeGroup">
                <path d="M5.7063391,9 L2.17962758,10.854102 L2.85316955,6.92705098 L5.68434189e-14,4.14589803 L3.94298334,3.57294902 L5.7063391,0 L7.46969485,3.57294902 L11.4126782,4.14589803 L8.55950865,6.92705098 L9.23305061,10.854102 L5.7063391,9 Z M17.7063391,9 L14.1796276,10.854102 L14.8531695,6.92705098 L12,4.14589803 L15.9429833,3.57294902 L17.7063391,0 L19.4696949,3.57294902 L23.4126782,4.14589803 L20.5595086,6.92705098 L21.2330506,10.854102 L17.7063391,9 Z M29.7063391,9 L26.1796276,10.854102 L26.8531695,6.92705098 L24,4.14589803 L27.9429833,3.57294902 L29.7063391,0 L31.4696949,3.57294902 L35.4126782,4.14589803 L32.5595086,6.92705098 L33.2330506,10.854102 L29.7063391,9 Z M41.7063391,9 L38.1796276,10.854102 L38.8531695,6.92705098 L36,4.14589803 L39.9429833,3.57294902 L41.7063391,0 L43.4696949,3.57294902 L47.4126782,4.14589803 L44.5595086,6.92705098 L45.2330506,10.854102 L41.7063391,9 Z" id="red5" fill="url(#linearGradient-1)"></path>
                <polygon id="Star-1" fill="#9B9B9B" points="53.7063391 9 50.1796276 10.854102 50.8531695 6.92705098 48 4.14589803 51.9429833 3.57294902 53.7063391 0 55.4696949 3.57294902 59.4126782 4.14589803 56.5595086 6.92705098 57.2330506 10.854102 "></polygon>
            </g>
        </g>
    </g>
</svg>