<?xml version="1.0" encoding="UTF-8" standalone="no"?>
<svg width="72px" height="11px" viewBox="0 0 72 11" version="1.1" xmlns="http://www.w3.org/2000/svg" xmlns:xlink="http://www.w3.org/1999/xlink" xmlns:sketch="http://www.bohemiancoding.com/sketch/ns">
    <!-- Generator: Sketch 3.5.1 (25234) - http://www.bohemiancoding.com/sketch -->
    <title>star4</title>
    <desc>Created with Sketch.</desc>
    <defs></defs>
    <g id="Page-1" stroke="none" stroke-width="1" fill="none" fill-rule="evenodd" sketch:type="MSPage">
        <g id="star4" sketch:type="MSLayerGroup">
            <polygon id="Star-1" fill="#C2C2C2" sketch:type="MSShapeGroup" points="65.7063391 9 62.1796276 10.854102 62.8531695 6.92705098 60 4.14589803 63.9429833 3.57294902 65.7063391 0 67.4696949 3.57294902 71.4126782 4.14589803 68.5595086 6.92705098 69.2330506 10.854102 "></polygon>
            <polygon id="Star-1" fill="#C90000" sketch:type="MSShapeGroup" points="50.7063391 9 47.1796276 10.854102 47.8531695 6.92705098 45 4.14589803 48.9429833 3.57294902 50.7063391 0 52.4696949 3.57294902 56.4126782 4.14589803 53.5595086 6.92705098 54.2330506 10.854102 "></polygon>
            <polygon id="Star-1" fill="#C90000" sketch:type="MSShapeGroup" points="35.7063391 9 32.1796276 10.854102 32.8531695 6.92705098 30 4.14589803 33.9429833 3.57294902 35.7063391 0 37.4696949 3.57294902 41.4126782 4.14589803 38.5595086 6.92705098 39.2330506 10.854102 "></polygon>
            <polygon id="Star-1" fill="#C90000" sketch:type="MSShapeGroup" points="20.7063391 9 17.1796276 10.854102 17.8531695 6.92705098 15 4.14589803 18.9429833 3.57294902 20.7063391 0 22.4696949 3.57294902 26.4126782 4.14589803 23.5595086 6.92705098 24.2330506 10.854102 "></polygon>
            <polygon id="Path" fill="#C90000" sketch:type="MSShapeGroup" points="5.7063391 9 2.17962758 10.854102 2.85316955 6.92705098 5.68434189e-14 4.14589803 3.94298334 3.57294902 5.7063391 0 7.46969485 3.57294902 11.4126782 4.14589803 8.55950865 6.92705098 9.23305061 10.854102 "></polygon>
        </g>
    </g>
</svg>