<svg xmlns="http://www.w3.org/2000/svg" width="59.413" height="10.854" viewBox="0 0 59.413 10.854"><path fill="#C90000" fill-rule="evenodd" d="M5.7063391,9 L2.17962758,10.854102 L2.85316955,6.92705098 L5.68434189e-14,4.14589803 L3.94298334,3.57294902 L5.7063391,0 L7.46969485,3.57294902 L11.4126782,4.14589803 L8.55950865,6.92705098 L9.23305061,10.854102 L5.7063391,9 Z M17.7063391,9 L14.1796276,10.854102 L14.8531695,6.92705098 L12,4.14589803 L15.9429833,3.57294902 L17.7063391,0 L19.4696949,3.57294902 L23.4126782,4.14589803 L20.5595086,6.92705098 L21.2330506,10.854102 L17.7063391,9 Z M29.7063391,9 L26.1796276,10.854102 L26.8531695,6.92705098 L24,4.14589803 L27.9429833,3.57294902 L29.7063391,0 L31.4696949,3.57294902 L35.4126782,4.14589803 L32.5595086,6.92705098 L33.2330506,10.854102 L29.7063391,9 Z M41.7063391,9 L38.1796276,10.854102 L38.8531695,6.92705098 L36,4.14589803 L39.9429833,3.57294902 L41.7063391,0 L43.4696949,3.57294902 L47.4126782,4.14589803 L44.5595086,6.92705098 L45.2330506,10.854102 L41.7063391,9 Z M53.7063391,9 L50.1796276,10.854102 L50.8531695,6.92705098 L48,4.14589803 L51.9429833,3.57294902 L53.7063391,0 L55.4696949,3.57294902 L59.4126782,4.14589803 L56.5595086,6.92705098 L57.2330506,10.854102 L53.7063391,9 Z"/></svg>