<?xml version="1.0" encoding="UTF-8" standalone="no"?>
<svg width="72px" height="11px" viewBox="0 0 72 11" version="1.1" xmlns="http://www.w3.org/2000/svg" xmlns:xlink="http://www.w3.org/1999/xlink" xmlns:sketch="http://www.bohemiancoding.com/sketch/ns">
    <!-- Generator: Sketch 3.5.1 (25234) - http://www.bohemiancoding.com/sketch -->
    <title>Star 1</title>
    <desc>Created with Sketch.</desc>
    <defs></defs>
    <g id="Page-1" stroke="none" stroke-width="1" fill="none" fill-rule="evenodd" sketch:type="MSPage">
        <path d="M6,9 L2.47328849,10.854102 L3.14683045,6.92705098 L0.293660902,4.14589803 L4.23664424,3.57294902 L6,0 L7.76335576,3.57294902 L11.7063391,4.14589803 L8.85316955,6.92705098 L9.52671151,10.854102 L6,9 Z M21,9 L17.4732885,10.854102 L18.1468305,6.92705098 L15.2936609,4.14589803 L19.2366442,3.57294902 L21,0 L22.7633558,3.57294902 L26.7063391,4.14589803 L23.8531695,6.92705098 L24.5267115,10.854102 L21,9 Z M36,9 L32.4732885,10.854102 L33.1468305,6.92705098 L30.2936609,4.14589803 L34.2366442,3.57294902 L36,0 L37.7633558,3.57294902 L41.7063391,4.14589803 L38.8531695,6.92705098 L39.5267115,10.854102 L36,9 Z M51,9 L47.4732885,10.854102 L48.1468305,6.92705098 L45.2936609,4.14589803 L49.2366442,3.57294902 L51,0 L52.7633558,3.57294902 L56.7063391,4.14589803 L53.8531695,6.92705098 L54.5267115,10.854102 L51,9 Z M66,9 L62.4732885,10.854102 L63.1468305,6.92705098 L60.2936609,4.14589803 L64.2366442,3.57294902 L66,0 L67.7633558,3.57294902 L71.7063391,4.14589803 L68.8531695,6.92705098 L69.5267115,10.854102 L66,9 Z" id="Star-1" fill="#C90000" sketch:type="MSShapeGroup"></path>
    </g>
</svg>