<?xml version="1.0" encoding="UTF-8" standalone="no"?>
<svg width="82px" height="20px" viewBox="0 0 82 20" version="1.1" xmlns="http://www.w3.org/2000/svg" xmlns:xlink="http://www.w3.org/1999/xlink" xmlns:sketch="http://www.bohemiancoding.com/sketch/ns">
    <!-- Generator: Sketch 3.5.1 (25234) - http://www.bohemiancoding.com/sketch -->
    <title>alipay-1</title>
    <desc>Created with Sketch.</desc>
    <defs>
        <rect id="path-1" x="0" y="0" width="82" height="20" rx="3"></rect>
    </defs>
    <g id="Page-1" stroke="none" stroke-width="1" fill="none" fill-rule="evenodd" sketch:type="MSPage">
        <g id="icon" sketch:type="MSLayerGroup" transform="translate(-79.000000, -60.000000)">
            <g id="alipay-1" transform="translate(79.000000, 60.000000)">
                <mask id="mask-2" sketch:name="Mask" fill="white">
                    <use xlink:href="#path-1"></use>
                </mask>
                <use id="Mask" fill="#33C1FA" sketch:type="MSShapeGroup" xlink:href="#path-1"></use>
                <rect id="颜色" fill="#00AAEE" sketch:type="MSShapeGroup" mask="url(#mask-2)" x="0" y="0" width="24" height="20"></rect>
                <text id="Cancel" fill="#FFFFFF" sketch:type="MSTextLayer" mask="url(#mask-2)" font-family="PingFang SC" font-size="12" font-weight="526" sketch:alignment="middle">
                    <tspan x="28.0298507" y="14">我要捐赠</tspan>
                </text>
                <path d="M10.4580601,4.0604565 L10.4258884,5.13182498 L6.1891687,5.13182498 L6.1891687,5.95171931 L10.4795261,5.95171931 L10.4795261,7.37293597 L6.93998667,7.37293597 L6.93998667,8.14918237 L10.5331093,8.11633563 L14.1369921,8.08354429 L14.0726487,8.34593042 C13.9117359,8.98004408 13.2253156,10.6745588 13.0965745,10.7291742 C13.0215253,10.7510535 12.4959636,10.6308001 11.9060585,10.455876 C10.1148229,9.89831244 9.22455795,9.73435573 8.01257601,9.73435573 C6.77907382,9.74526771 5.97467257,9.9748625 5.20238868,10.5324261 C3.70080708,11.6256739 3.58282606,13.7684109 4.97718677,14.9600328 C6.45730245,16.2282047 8.88137501,16.3484581 11.080137,15.2552102 C11.8631266,14.8725707 13.2681931,13.8339936 13.7401716,13.2983093 L13.9332018,13.0687146 L14.5445728,13.3748594 C15.1559438,13.6918608 18.9314453,15.4738376 19.574988,15.7471912 L19.9182253,15.9002359 L19.9182253,13.0905939 L18.9850829,12.8391752 C18.1377498,12.6095804 15.9711052,11.9208514 15.2739249,11.6474979 L15.0057911,11.5382119 L15.3597342,10.7948122 C15.7351432,10.0295332 16.4859611,7.86491688 16.4859611,7.54786005 C16.4859611,7.39481532 16.2714107,7.37293597 14.6089162,7.37293597 L12.7319256,7.37293597 L12.7319256,5.95171931 L17.2367791,5.95171931 L17.2367791,5.230199 C17.2367791,5.19740766 16.2178274,5.1755283 14.9843252,5.18649568 L12.7319256,5.19740766 L12.7319256,3 L10.4902318,3 L10.4580601,4.0604565 L10.4580601,4.0604565 Z M10.0397193,11.1883637 C10.5975071,11.3851672 11.3375649,11.6912566 11.6808022,11.8770927 L12.302879,12.2160289 L11.9596417,12.6532837 C11.7666115,12.8937905 11.3268591,13.3092213 10.9621559,13.5825748 C9.73941387,14.5118106 8.60248113,14.8725707 7.14377702,14.7851087 C5.6207295,14.6976466 4.80556812,14.0635884 4.70899867,12.8828785 C4.64465527,12.1503908 4.80556812,11.7349599 5.29895813,11.3523204 C5.92103495,10.8713069 6.42513075,10.7620209 7.79802554,10.7948122 C8.8492033,10.8276036 9.18168046,10.8931863 10.0397193,11.1883637 L10.0397193,11.1883637 Z" id="Shape" fill="#FFFFFF" sketch:type="MSShapeGroup" mask="url(#mask-2)"></path>
            </g>
        </g>
    </g>
</svg>