<?xml version="1.0" encoding="UTF-8" standalone="no"?>
<svg width="81px" height="20px" viewBox="0 0 81 20" version="1.1" xmlns="http://www.w3.org/2000/svg" xmlns:xlink="http://www.w3.org/1999/xlink" xmlns:sketch="http://www.bohemiancoding.com/sketch/ns">
    <!-- Generator: Sketch 3.5.1 (25234) - http://www.bohemiancoding.com/sketch -->
    <title>facebook</title>
    <desc>Created with Sketch.</desc>
    <defs>
        <rect id="path-1" x="0" y="0" width="81" height="20" rx="3"></rect>
    </defs>
    <g id="Page-1" stroke="none" stroke-width="1" fill="none" fill-rule="evenodd" sketch:type="MSPage">
        <g id="icon" sketch:type="MSLayerGroup" transform="translate(-64.000000, -30.000000)">
            <g id="facebook" transform="translate(64.000000, 30.000000)">
                <mask id="mask-2" sketch:name="Mask" fill="white">
                    <use xlink:href="#path-1"></use>
                </mask>
                <use id="Mask" fill="#5878C5" sketch:type="MSShapeGroup" xlink:href="#path-1"></use>
                <rect id="颜色" fill="#3458B0" sketch:type="MSShapeGroup" mask="url(#mask-2)" x="0" y="0" width="18" height="20"></rect>
                <text id="Cancel" fill="#FFFFFF" sketch:type="MSTextLayer" mask="url(#mask-2)" font-family="PingFang SC" font-size="12" font-weight="526" sketch:alignment="middle">
                    <tspan x="22.2078507" y="14">Facebook</tspan>
                </text>
                <path d="M10.8125,6.4375 L13,6.4375 L13,4 L10.8125,4 C9.12375,4 7.75,5.275625 7.75,6.84375 L7.75,8.0625 L6,8.0625 L6,10.5 L7.75,10.5 L7.75,17 L10.375,17 L10.375,10.5 L12.5625,10.5 L13,8.0625 L10.375,8.0625 L10.375,6.84375 C10.375,6.6235625 10.575375,6.4375 10.8125,6.4375 L10.8125,6.4375 Z" id="Shape" fill="#FFFFFF" sketch:type="MSShapeGroup" mask="url(#mask-2)"></path>
            </g>
        </g>
    </g>
</svg>