<?xml version="1.0" encoding="UTF-8" standalone="no"?>
<svg width="77px" height="20px" viewBox="0 0 77 20" version="1.1" xmlns="http://www.w3.org/2000/svg" xmlns:xlink="http://www.w3.org/1999/xlink" xmlns:sketch="http://www.bohemiancoding.com/sketch/ns">
    <!-- Generator: Sketch 3.5.1 (25234) - http://www.bohemiancoding.com/sketch -->
    <title>google+</title>
    <desc>Created with Sketch.</desc>
    <defs>
        <rect id="path-1" x="0" y="0" width="77" height="20" rx="3"></rect>
    </defs>
    <g id="Page-1" stroke="none" stroke-width="1" fill="none" fill-rule="evenodd" sketch:type="MSPage">
        <g id="icon" sketch:type="MSLayerGroup" transform="translate(-243.000000, -30.000000)">
            <g id="google+" transform="translate(243.000000, 30.000000)">
                <mask id="mask-2" sketch:name="Mask" fill="white">
                    <use xlink:href="#path-1"></use>
                </mask>
                <use id="Mask" fill="#20B4F8" sketch:type="MSShapeGroup" xlink:href="#path-1"></use>
                <rect id="颜色" fill="#03A1E9" sketch:type="MSShapeGroup" mask="url(#mask-2)" x="0" y="0" width="21" height="20"></rect>
                <text id="Cancel" fill="#FFFFFF" sketch:type="MSTextLayer" mask="url(#mask-2)" font-family="PingFang SC" font-size="12" font-weight="526" sketch:alignment="middle">
                    <tspan x="24.1258507" y="14">Google+</tspan>
                </text>
                <path d="M5.72453811,7.36718607 C5.72453811,8.44528495 6.08462602,9.2231903 6.79397756,9.67997517 C7.37560253,10.0552171 8.04959473,10.1115034 8.4003016,10.1115034 C8.48545265,10.1115034 8.55400646,10.1071737 8.60163332,10.1042872 C8.60163332,10.1042872 8.49050398,10.8287927 9.02738856,11.5446388 L9.00285352,11.5446388 C8.07268654,11.5446388 5.039,11.7387544 5.039,14.2341131 C5.039,16.7713257 7.8251712,16.9004955 8.38442598,16.9004955 C8.42844474,16.9004955 8.45442303,16.8990523 8.45442303,16.8990523 C8.46019598,16.8990523 8.49988503,16.9004955 8.56843884,16.9004955 C8.92708351,16.9004955 9.85436401,16.8557551 10.7152556,16.4364945 C11.8323219,15.8952802 12.3987928,14.9506808 12.3987928,13.6330044 C12.3987928,12.3600684 11.5357364,11.6023684 10.905763,11.0481649 C10.52114,10.7097256 10.1884736,10.4181915 10.1884736,10.1345952 C10.1884736,9.84594755 10.4316593,9.62874021 10.7383474,9.35380335 C11.2355429,8.91000763 11.7045953,8.27714771 11.7045953,7.0807033 C11.7045953,6.02930433 11.5682093,5.32283926 10.7275231,4.87471382 C10.814839,4.82997344 11.1251352,4.79750058 11.2781184,4.77585201 C11.7334601,4.71379277 12.3995144,4.64307411 12.3995144,4.27144029 L12.3995144,4.2 L9.08078837,4.2 C9.0475939,4.20144324 5.72453811,4.32411848 5.72453811,7.36718607 L5.72453811,7.36718607 Z M11.081838,13.8711387 C11.1453405,14.8857351 10.2772328,15.6340541 8.97326713,15.7285862 C7.64909615,15.8260047 6.55945137,15.2299474 6.49594889,14.2160726 C6.46491927,13.7282581 6.67924013,13.2519895 7.09850081,12.8716963 C7.52353444,12.4870733 8.10732426,12.248939 8.74234903,12.2020338 C8.81739742,12.1977041 8.89172418,12.1933744 8.96605094,12.1933744 C10.1920817,12.194096 11.0219437,12.9142718 11.081838,13.8711387 L11.081838,13.8711387 Z M10.2151735,6.67226691 C10.5406237,7.81819798 10.0492012,9.01464239 9.26552286,9.23617944 C9.17532047,9.26143611 9.08295323,9.27370364 8.98842113,9.27370364 C8.27113179,9.27370364 7.56033701,8.54775486 7.29622443,7.54686922 C7.14901414,6.98689282 7.16128167,6.49474862 7.33014053,6.02280975 C7.49539129,5.55736546 7.79414158,5.2449044 8.1693835,5.1388264 C8.25958588,5.11356973 8.35267474,5.10058059 8.44720684,5.10058059 C9.31314971,5.10058059 9.87023963,5.45994688 10.2151735,6.67226691 L10.2151735,6.67226691 Z M15.8351428,9.10700963 L15.8351428,6.94215244 L14.3919047,6.94215244 L14.3919047,9.10700963 L12.2270475,9.10700963 L12.2270475,10.5502478 L14.3919047,10.5502478 L14.3919047,12.7151049 L15.8351428,12.7151049 L15.8351428,10.5502478 L18,10.5502478 L18,9.10700963 L15.8351428,9.10700963 L15.8351428,9.10700963 Z" id="Shape" fill="#FFFFFF" sketch:type="MSShapeGroup" mask="url(#mask-2)"></path>
            </g>
        </g>
    </g>
</svg>