<?xml version="1.0" encoding="UTF-8" standalone="no"?>
<svg width="116px" height="20px" viewBox="0 0 116 20" version="1.1" xmlns="http://www.w3.org/2000/svg" xmlns:xlink="http://www.w3.org/1999/xlink" xmlns:sketch="http://www.bohemiancoding.com/sketch/ns">
    <!-- Generator: Sketch 3.5.1 (25234) - http://www.bohemiancoding.com/sketch -->
    <title>gulp</title>
    <desc>Created with Sketch.</desc>
    <defs>
        <rect id="path-1" x="0" y="0" width="116" height="20" rx="3"></rect>
        <filter x="-50%" y="-50%" width="200%" height="200%" filterUnits="objectBoundingBox" id="filter-3">
            <feOffset dx="0" dy="0" in="SourceAlpha" result="shadowOffsetInner1"></feOffset>
            <feGaussianBlur stdDeviation="0" in="shadowOffsetInner1" result="shadowBlurInner1"></feGaussianBlur>
            <feComposite in="shadowBlurInner1" in2="SourceAlpha" operator="arithmetic" k2="-1" k3="1" result="shadowInnerInner1"></feComposite>
            <feColorMatrix values="0 0 0 0 0   0 0 0 0 0   0 0 0 0 0  0 0 0 0.35 0" in="shadowInnerInner1" type="matrix" result="shadowMatrixInner1"></feColorMatrix>
            <feMerge>
                <feMergeNode in="SourceGraphic"></feMergeNode>
                <feMergeNode in="shadowMatrixInner1"></feMergeNode>
            </feMerge>
        </filter>
        <filter x="-50%" y="-50%" width="200%" height="200%" filterUnits="objectBoundingBox" id="filter-4">
            <feOffset dx="0" dy="1" in="SourceAlpha" result="shadowOffsetOuter1"></feOffset>
            <feGaussianBlur stdDeviation="0" in="shadowOffsetOuter1" result="shadowBlurOuter1"></feGaussianBlur>
            <feColorMatrix values="0 0 0 0 0.347417092   0 0 0 0 0.347417092   0 0 0 0 0.347417092  0 0 0 0.348713235 0" in="shadowBlurOuter1" type="matrix" result="shadowMatrixOuter1"></feColorMatrix>
            <feMerge>
                <feMergeNode in="shadowMatrixOuter1"></feMergeNode>
                <feMergeNode in="SourceGraphic"></feMergeNode>
            </feMerge>
        </filter>
        <filter x="-50%" y="-50%" width="200%" height="200%" filterUnits="objectBoundingBox" id="filter-5">
            <feOffset dx="0" dy="1" in="SourceAlpha" result="shadowOffsetOuter1"></feOffset>
            <feGaussianBlur stdDeviation="0" in="shadowOffsetOuter1" result="shadowBlurOuter1"></feGaussianBlur>
            <feColorMatrix values="0 0 0 0 1   0 0 0 0 1   0 0 0 0 1  0 0 0 0.425393456 0" in="shadowBlurOuter1" type="matrix" result="shadowMatrixOuter1"></feColorMatrix>
            <feMerge>
                <feMergeNode in="shadowMatrixOuter1"></feMergeNode>
                <feMergeNode in="SourceGraphic"></feMergeNode>
            </feMerge>
        </filter>
    </defs>
    <g id="Page-1" stroke="none" stroke-width="1" fill="none" fill-rule="evenodd" sketch:type="MSPage">
        <g id="GET" sketch:type="MSLayerGroup" transform="translate(-134.000000, 0.000000)">
            <g id="gulp" transform="translate(134.000000, 0.000000)">
                <mask id="mask-2" sketch:name="Mask" fill="white">
                    <use xlink:href="#path-1"></use>
                </mask>
                <use id="Mask" fill="#D34A47" sketch:type="MSShapeGroup" xlink:href="#path-1"></use>
                <rect id="颜色" fill="#FF8D8C" filter="url(#filter-3)" sketch:type="MSShapeGroup" mask="url(#mask-2)" x="69" y="0" width="84" height="20"></rect>
                <text id="Cancel" fill="#F3EADC" filter="url(#filter-4)" sketch:type="MSTextLayer" mask="url(#mask-2)" font-family="Arial" font-size="10" font-weight="bold">
                    <tspan x="6" y="14">BUILT WITH</tspan>
                </text>
                <text id="Cancel" fill="#000000" filter="url(#filter-5)" sketch:type="MSTextLayer" mask="url(#mask-2)" font-family="Arial" font-size="10" font-weight="bold">
                    <tspan x="83" y="14">GULP</tspan>
                </text>
                <g mask="url(#mask-2)" id="Group">
                    <g transform="translate(73.000000, 1.000000)">
                        <g>
                            <path d="M4.62375,14.542818 L4.75094531,12.1462633 L5.10215625,11.4683481 C5.10215625,11.4683481 4.30279688,11.8381007 2.96453906,11.8381007 C1.62625781,11.8381007 0.839015625,11.4751855 0.839015625,11.4751855 L1.232625,12.2146908 L1.37186719,14.542818 C1.37186719,14.7924117 2.0998125,14.9947261 2.99782031,14.9947261 C3.89578125,14.9947261 4.62375,14.7924117 4.62375,14.542818" id="Shape" fill="#D34A47" sketch:type="MSShapeGroup"></path>
                            <path d="M4.22252344,3.35125442 L4.4895,2.15801237 L5.96796094,0.398931095 L5.57828906,0.023639576 L4.01303906,1.8975 L3.70305469,3.32310954 C3.47845312,3.31452297 3.24405469,3.30993816 3.00290625,3.30993816 C1.35440625,3.30993816 0.0180234375,3.52237633 0.0180234375,3.78437279 C0.0180234375,4.04639576 1.35440625,4.25880742 3.00290625,4.25880742 C4.65138281,4.25880742 5.98774219,4.04639576 5.98774219,3.78437279 C5.98774219,3.59143993 5.26296094,3.42537986 4.22252344,3.35125442" id="Shape" fill="#D34A47" sketch:type="MSShapeGroup"></path>
                            <path id="Shape" fill="#FFFFFF" sketch:type="MSShapeGroup" d="M4.06722656,4.01949647 C4.06722656,4.01949647 4.00940625,4.03415194 3.83932031,4.0349735 C3.6691875,4.03576855 3.54839063,4.03372792 3.50027344,3.98416961 C3.48733594,3.97086572 3.48025781,3.94444346 3.48032813,3.92655477 C3.48046875,3.8925 3.50184375,3.87243816 3.52907813,3.85987633 L3.55483594,3.90556537 C3.54363281,3.90993816 3.53723438,3.91510601 3.53721094,3.92061837 C3.53711719,3.9464841 3.71116406,3.96418728 3.84428906,3.96227915 C3.9774375,3.96042403 4.1383125,3.9480212 4.13845313,3.9225265 C4.13845313,3.91481449 4.12628906,3.907553 4.105125,3.90182862 L4.13076563,3.8564576 C4.16526562,3.8685689 4.19538281,3.89196996 4.1953125,3.93246466 C4.19498437,4.00131625 4.1175,4.01178445 4.06722656,4.01949647"></path>
                            <path id="Shape" fill="#D34A47" sketch:type="MSShapeGroup" d="M5.96505469,0.402402827 C6.00222656,0.35385159 5.9458125,0.229664311 5.83905469,0.125061837 C5.73225,0.0205123675 5.61553125,-0.0249116608 5.57828906,0.023639576 C5.54109375,0.0721908127 5.59753125,0.196378092 5.70433594,0.300927562 C5.81109375,0.405503534 5.92785937,0.450980565 5.96505469,0.402402827"></path>
                            <path d="M4.55264063,8.68900177 C4.51760156,8.30780035 5.29003125,7.75571555 5.09179688,7.73803887 C4.66504688,7.76562721 4.45265625,8.30353357 4.23794531,8.86690813 C4.15926562,9.07338339 3.89003906,9.95382509 3.71346094,9.84543286 C3.53692969,9.73709364 3.94232813,9.01309187 4.05595313,8.58312721 C3.92484375,8.69183746 3.44402344,9.11424912 3.32010938,8.71865724 C3.12089063,8.9099735 2.69519531,9.01362191 2.74321875,8.5110689 C2.63723438,8.72334806 2.39936719,9.01971731 2.11385156,8.8965636 C1.73889844,8.73487633 2.33111719,7.38431979 2.478375,7.45245583 C2.62565625,7.52056537 2.44865625,7.82822438 2.40229688,7.94769435 C2.30034375,8.21061837 2.18257031,8.54114841 2.26125,8.60880742 C2.39603906,8.72472615 2.76283594,8.17028269 2.77099219,8.15809187 C2.83959375,8.05560954 3.03503906,7.38514134 3.1925625,7.46212898 C3.35008594,7.53911661 2.79965625,8.42435512 3.00546094,8.60003534 C3.04696875,8.6354947 3.21679688,8.57817138 3.32010938,8.45178445 C3.38695313,8.3700265 3.36396094,8.18893993 3.58678125,7.58809187 C3.80960156,6.98727032 4.0081875,6.23901943 4.161,6.29602473 C4.3138125,6.35300353 4.18785938,6.73704064 4.13303906,6.88020318 C3.87578906,7.55212898 3.43094531,8.66220848 3.64073438,8.57817138 C3.85052344,8.49416078 3.95976563,8.48923145 4.16519531,8.21740283 C4.370625,7.9455742 4.36115625,7.49782686 4.49807813,7.50734099 C4.63504688,7.51688163 4.61205469,7.6604417 4.57884375,7.76976148 C4.71360938,7.59537986 5.21765625,7.22811837 5.33934375,7.59185512 C5.48348438,8.02248233 4.61819531,8.6445053 4.8339375,8.61278269 C5.04428906,8.58185512 5.38507031,8.33780035 5.53057031,8.11590106 L5.93107031,4.04454064 C5.93107031,4.04454064 5.5280625,4.42166078 2.96414063,4.42166078 C0.400195313,4.42166078 0.0388828125,4.05238516 0.0388828125,4.05238516 L0.379851563,7.7685689 C0.560835938,7.18693463 0.990609375,6.0104682 1.66804688,6.04995583 C1.97620313,6.06792403 2.38757813,6.73886926 2.03519531,6.76160777 C1.88603906,6.77120141 1.87089844,6.42670495 1.69427344,6.37611307 C1.56682031,6.33959364 1.389375,6.45675795 1.27469531,6.58370141 C1.04599219,6.83679329 0.554109375,7.83535336 0.619101563,8.33318905 C0.70190625,8.96787986 1.39366406,8.11264134 1.51071094,7.85872792 C1.59314063,7.67986749 1.64882813,7.14993816 1.82910938,7.20553887 C2.00941406,7.26113958 1.81338281,7.80803004 1.68269531,8.29155477 C1.53588281,8.83449647 1.45870313,9.40722615 1.27469531,9.34134276 C1.09066406,9.27551237 1.39042969,8.57459364 1.37957813,8.45178445 C1.20660938,8.63223498 0.887953125,9.08907244 0.48028125,8.86295936 L0.692039063,11.1706802 C0.692039063,11.1706802 1.25484375,11.6734982 2.95024219,11.6734982 C4.64564063,11.6734982 5.22928125,11.1785247 5.22928125,11.1785247 L5.49222656,8.50563604 C5.27709375,8.74250883 4.59623437,9.16314488 4.55264063,8.68900177" id="Shape" fill="#D34A47" sketch:type="MSShapeGroup"></path>
                        </g>
                    </g>
                </g>
            </g>
        </g>
    </g>
</svg>