<?xml version="1.0" encoding="UTF-8" standalone="no"?>
<svg width="80px" height="20px" viewBox="0 0 80 20" version="1.1" xmlns="http://www.w3.org/2000/svg" xmlns:xlink="http://www.w3.org/1999/xlink" xmlns:sketch="http://www.bohemiancoding.com/sketch/ns">
    <!-- Generator: Sketch 3.5.1 (25234) - http://www.bohemiancoding.com/sketch -->
    <title>linkedin</title>
    <desc>Created with Sketch.</desc>
    <defs>
        <rect id="path-1" x="0" y="0" width="80" height="20" rx="3"></rect>
    </defs>
    <g id="Page-1" stroke="none" stroke-width="1" fill="none" fill-rule="evenodd" sketch:type="MSPage">
        <g id="icon" sketch:type="MSLayerGroup" transform="translate(-320.000000, 0.000000)">
            <g id="linkedin" transform="translate(320.000000, 0.000000)">
                <mask id="mask-2" sketch:name="Mask" fill="white">
                    <use xlink:href="#path-1"></use>
                </mask>
                <use id="Mask" fill="#0495E1" sketch:type="MSShapeGroup" xlink:href="#path-1"></use>
                <rect id="颜色" fill="#0077B5" sketch:type="MSShapeGroup" mask="url(#mask-2)" x="0" y="0" width="22" height="20"></rect>
                <text id="Cancel" fill="#FFFFFF" sketch:type="MSTextLayer" mask="url(#mask-2)" font-family="PingFang SC" font-size="12" font-weight="526" sketch:alignment="middle">
                    <tspan x="26.8738507" y="14">Linkedin</tspan>
                </text>
                <path d="M9.28571429,7.38461538 L11.6578571,7.38461538 L11.6578571,8.58488462 L11.6917143,8.58488462 C12.0217143,8.00061538 12.8295714,7.38461538 14.0334286,7.38461538 C16.5371429,7.38461538 17,8.92334615 17,10.9245 L17,15 L14.5275714,15 L14.5275714,11.3869231 C14.5275714,10.5251154 14.5095714,9.41665385 13.2414286,9.41665385 C11.9535714,9.41665385 11.7572857,10.3550385 11.7572857,11.3243077 L11.7572857,15 L9.28571429,15 L9.28571429,7.38461538 Z M5,7.38461538 L7.57142857,7.38461538 L7.57142857,15 L5,15 L5,7.38461538 Z M7.57142857,5.26923077 C7.57142857,5.97026923 6.99585714,6.53846154 6.28571429,6.53846154 C5.57557143,6.53846154 5,5.97026923 5,5.26923077 C5,4.56819231 5.57557143,4 6.28571429,4 C6.99585714,4 7.57142857,4.56819231 7.57142857,5.26923077 Z" id="Shape" fill="#FFFFFF" sketch:type="MSShapeGroup" mask="url(#mask-2)"></path>
            </g>
        </g>
    </g>
</svg>