<?xml version="1.0" encoding="UTF-8" standalone="no"?>
<svg width="52px" height="20px" viewBox="0 0 52 20" version="1.1" xmlns="http://www.w3.org/2000/svg" xmlns:xlink="http://www.w3.org/1999/xlink" xmlns:sketch="http://www.bohemiancoding.com/sketch/ns">
    <!-- Generator: Sketch 3.5.1 (25234) - http://www.bohemiancoding.com/sketch -->
    <title>qq</title>
    <desc>Created with Sketch.</desc>
    <defs>
        <rect id="path-1" x="0" y="0" width="52" height="20" rx="3"></rect>
    </defs>
    <g id="Page-1" stroke="none" stroke-width="1" fill="none" fill-rule="evenodd" sketch:type="MSPage">
        <g id="icon" sketch:type="MSLayerGroup" transform="translate(0.000000, -30.000000)">
            <g id="qq" transform="translate(0.000000, 30.000000)">
                <mask id="mask-2" sketch:name="Mask" fill="white">
                    <use xlink:href="#path-1"></use>
                </mask>
                <use id="Mask" fill="#1FAEDB" sketch:type="MSShapeGroup" xlink:href="#path-1"></use>
                <rect id="颜色" fill="#1094BE" sketch:type="MSShapeGroup" mask="url(#mask-2)" x="0" y="0" width="22" height="20"></rect>
                <text id="Cancel" fill="#FFFFFF" sketch:type="MSTextLayer" mask="url(#mask-2)" font-family="PingFang SC" font-size="12" font-weight="526" sketch:alignment="middle">
                    <tspan x="27.7" y="14">QQ</tspan>
                </text>
                <path d="M6.68881906,9.39642181 C6.6531086,9.31157376 6.63525337,9.19558619 6.63525337,9.04845909 C6.63525337,8.9590401 6.65982216,8.84962325 6.70895975,8.72020855 C6.75809735,8.59079384 6.81166304,8.49037603 6.86965682,8.41895511 C6.86508588,8.32067993 6.88179838,8.20240688 6.91979431,8.06413599 C6.95779024,7.92586509 7.00807056,7.82987537 7.07063529,7.77616684 C7.07063529,7.15566189 7.27704175,6.51173089 7.68985466,5.84437382 C8.10266757,5.17701675 8.58804414,4.70949541 9.14598436,4.44180981 C9.7664893,4.14726994 10.4896975,4 11.315609,4 C11.9092597,4 12.5029104,4.12270114 13.0965611,4.36810342 C13.3153948,4.46180766 13.5162304,4.56893904 13.699068,4.68949755 C13.8819055,4.81005607 14.0403171,4.93504267 14.1743028,5.06445738 C14.3082884,5.19387209 14.4309895,5.34557012 14.5424062,5.51955148 C14.6538228,5.69353284 14.7475271,5.858658 14.8235189,6.01492697 C14.8995108,6.17119594 14.9720744,6.35974717 15.0412099,6.58058065 C15.1103453,6.80141413 15.1671964,7.00110702 15.211763,7.17965932 C15.2563297,7.35821162 15.3054673,7.57690247 15.3591758,7.83573189 L15.3660322,7.86915688 C15.6114345,8.2396886 15.7341356,8.57450987 15.7341356,8.87362068 C15.7341356,8.93618541 15.7139949,9.02546156 15.6737135,9.14144913 C15.6334321,9.2574367 15.6132914,9.34228476 15.6132914,9.39599329 C15.6132914,9.40056423 15.6165768,9.40842053 15.6231475,9.41956219 C15.6297182,9.43070385 15.6375745,9.44184552 15.6467164,9.45298718 C15.6558583,9.46412884 15.6602864,9.47198514 15.6600007,9.47655608 C16.0036782,9.98535871 16.2726494,10.4641646 16.4669143,10.9129736 C16.6611792,11.3617827 16.7583116,11.8271614 16.7583116,12.3091097 C16.7583116,12.5010892 16.7147448,12.724351 16.6276113,12.9788951 C16.5404778,13.2334393 16.4166339,13.3607114 16.2560797,13.3607114 C16.2157983,13.3607114 16.1722315,13.3439989 16.1253794,13.3105739 C16.0785273,13.2771489 16.0361033,13.2381531 15.9981073,13.1935864 C15.9601114,13.1490197 15.9176874,13.091026 15.8708353,13.019605 C15.8239831,12.9481841 15.7882727,12.8890476 15.7637039,12.8421955 C15.7391351,12.7953434 15.7089955,12.7373496 15.673285,12.6682141 C15.6375745,12.5990787 15.6174338,12.5600828 15.6128629,12.5512267 C15.608292,12.5466557 15.6015784,12.5443702 15.5927222,12.5443702 L15.5592972,12.5713674 C15.2958969,13.2587223 15.0012142,13.7563832 14.6752491,14.0643502 C14.7646681,14.1537692 14.9019391,14.23976 15.0870621,14.3223226 C15.2721851,14.4048852 15.4261686,14.4974467 15.5490126,14.6000071 C15.6718566,14.7025676 15.7511338,14.8476949 15.7868443,15.0353891 C15.7779881,15.0533871 15.768989,15.0890976 15.7598472,15.1425204 C15.7507053,15.1959433 15.7351355,15.2360818 15.7131379,15.2629361 C15.4274542,15.6960326 14.7533836,15.9125808 13.690926,15.9125808 C13.4543799,15.9125808 13.207692,15.8924401 12.9508624,15.8521587 C12.6940328,15.8118773 12.4753419,15.7671678 12.2947898,15.7180302 C12.1142378,15.6688926 11.880977,15.6018998 11.5950077,15.5170517 C11.5281577,15.4947684 11.4768775,15.4791987 11.441167,15.4703425 C11.3786023,15.4523444 11.275899,15.4423455 11.1330572,15.4403457 C10.9902153,15.4383459 10.9009392,15.4350605 10.8652287,15.4304896 C10.6821055,15.6313252 10.3975645,15.7764525 10.0116059,15.8658715 C9.62564725,15.9552905 9.24954469,16 8.88329822,16 C8.72702925,16 8.57304575,15.9967146 8.42134771,15.9901439 C8.26964968,15.9835732 8.06210049,15.9634325 7.79870014,15.9297218 C7.53529979,15.8960111 7.30989537,15.8503018 7.12248688,15.7925937 C6.93507838,15.7348855 6.76881048,15.6456094 6.62368318,15.5247652 C6.47855587,15.403921 6.40599222,15.2610792 6.40599222,15.0962397 C6.40599222,14.9176874 6.42827554,14.7848445 6.4728422,14.697711 C6.51740885,14.6105774 6.60897047,14.5023033 6.74752705,14.3728886 C6.79666464,14.3640324 6.88708353,14.3350355 7.0187837,14.2858979 C7.15048388,14.2367603 7.26090062,14.2100489 7.35003392,14.2057637 C7.368032,14.2057637 7.39931436,14.2013356 7.44388101,14.1924794 C7.45273721,14.1836232 7.4571653,14.1746241 7.4571653,14.1654823 L7.44388101,14.1453416 C7.22961826,14.096204 6.98864407,13.8608006 6.72095847,13.4391315 C6.45327286,13.0174624 6.29029033,12.6682141 6.23201086,12.3913866 L6.19858587,12.3712459 C6.18058779,12.3712459 6.15387637,12.4159554 6.11845159,12.5053744 C6.03817448,12.6884977 5.91647324,12.8547656 5.75334786,13.0041781 C5.59022248,13.1535907 5.41724101,13.237296 5.23440346,13.2552941 L5.22754705,13.2552941 C5.20954898,13.2552941 5.19612184,13.2452951 5.18726565,13.2252973 C5.17840946,13.2052994 5.16726779,13.193015 5.15384066,13.1884441 C5.05128022,12.9473271 5,12.7240653 5,12.5186587 C5,11.291076 5.56251116,10.2510445 6.68753348,9.39856444 L6.68881906,9.39642181 Z" id="Shape" fill="#FFFFFF" sketch:type="MSShapeGroup" mask="url(#mask-2)"></path>
            </g>
        </g>
    </g>
</svg>