<?xml version="1.0" encoding="UTF-8" standalone="no"?>
<svg width="74px" height="20px" viewBox="0 0 74 20" version="1.1" xmlns="http://www.w3.org/2000/svg" xmlns:xlink="http://www.w3.org/1999/xlink" xmlns:sketch="http://www.bohemiancoding.com/sketch/ns">
    <!-- Generator: Sketch 3.5.1 (25234) - http://www.bohemiancoding.com/sketch -->
    <title>qqweibo</title>
    <desc>Created with Sketch.</desc>
    <defs>
        <rect id="path-1" x="0" y="0" width="74" height="20" rx="3"></rect>
    </defs>
    <g id="Page-1" stroke="none" stroke-width="1" fill="none" fill-rule="evenodd" sketch:type="MSPage">
        <g id="icon" sketch:type="MSLayerGroup" transform="translate(-233.000000, 0.000000)">
            <g id="qqweibo" transform="translate(233.000000, 0.000000)">
                <mask id="mask-2" sketch:name="Mask" fill="white">
                    <use xlink:href="#path-1"></use>
                </mask>
                <use id="Mask" fill="#0CB1E5" sketch:type="MSShapeGroup" xlink:href="#path-1"></use>
                <rect id="颜色" fill="#009BCD" sketch:type="MSShapeGroup" mask="url(#mask-2)" x="0" y="0" width="19" height="20"></rect>
                <text id="Cancel" fill="#FFFFFF" sketch:type="MSTextLayer" mask="url(#mask-2)" font-family="PingFang SC" font-size="12" font-weight="526" sketch:alignment="middle">
                    <tspan x="22" y="14">腾讯微博</tspan>
                </text>
                <path d="M9.87896062,4.23244944 C9.66386205,4.25142326 9.22727832,4.33153492 9.03747817,4.38641016 C8.34567804,4.58885951 7.7741074,4.91997117 7.25741201,5.41980095 C6.18179518,6.46168655 5.75786066,7.98231992 6.13541475,9.45018624 C6.22606741,9.80455011 6.40749676,10.2452882 6.51290684,10.3718423 C6.68162496,10.5722455 7.03809704,10.5279113 7.15826453,10.2938389 C7.22157258,10.1715012 7.21313977,10.0365143 7.13507431,9.87201256 C6.89467733,9.36585818 6.79974626,8.94824826 6.79974626,8.39571344 C6.79974626,7.80938538 6.90521834,7.37490985 7.17308395,6.84978165 C7.80579243,5.6117713 9.15132106,4.89256455 10.5496167,5.04441706 C11.0895643,5.10133851 11.6146925,5.29541706 12.0828993,5.6075549 C12.3718469,5.79946324 12.7957815,6.22339777 12.9834734,6.50806698 C13.4854114,7.26311316 13.6667787,8.13206423 13.5043852,9.01366451 C13.2555554,10.3718423 12.163073,11.455892 10.7858593,11.706892 C10.4399902,11.770138 9.92323285,11.770138 9.57103918,11.706892 C9.36226522,11.6710525 9.29684897,11.6668361 9.22727832,11.68581 C9.06277659,11.7300822 8.92989789,11.8988003 8.92989789,12.0654102 C8.92989789,12.229912 9.06277659,12.4007383 9.22095371,12.4429643 C9.6026622,12.544158 10.2839213,12.5800594 10.7246595,12.5188596 C11.9689944,12.3501415 13.0382866,11.6647279 13.7237622,10.5996521 C14.1814279,9.88466177 14.4260413,8.90397602 14.350146,8.07929719 C14.2278084,6.73376856 13.5318538,5.58430268 12.4161192,4.87780714 C11.9310468,4.5698857 11.3616464,4.35894154 10.7900757,4.27250527 C10.5812398,4.24088225 10.0497869,4.21769203 9.87896062,4.23244944 L9.87896062,4.23244944 Z M10.0160557,6.93200151 C9.43394408,7.0543392 9.02476696,7.43183129 8.87713085,7.98442812 C8.83075041,8.15314625 8.83285861,8.47371689 8.87930105,8.63821862 C8.89827487,8.70785127 8.91935688,8.78585473 8.92357329,8.81115315 C8.93200609,8.84699258 8.89195026,8.90819243 8.74642235,9.07480235 C7.78675661,10.1778258 7.12874971,11.4052951 6.73650021,12.8225646 C6.60783791,13.286555 6.48971662,13.9255881 6.43068698,14.4802931 C6.36105432,15.1108934 6.36948712,16.4374482 6.44333618,16.7116384 C6.4707428,16.8150023 6.5930805,16.9499892 6.68794957,16.9816122 C6.86727071,17.0406419 7.09291028,16.9520974 7.17308395,16.7939203 C7.20681517,16.7263958 7.20892337,16.6779072 7.20049057,16.4311236 C7.17730035,15.7963069 7.19205776,14.7839981 7.23000539,14.4592111 C7.42402193,12.7867252 7.97451056,11.3799967 8.9404389,10.0934357 C9.15342926,9.81087472 9.42972767,9.49241228 9.4634589,9.49241228 C9.47821631,9.49241228 9.51833414,9.51138609 9.55417357,9.5324681 C9.66386205,9.59993055 9.90636724,9.67799602 10.0771936,9.70118623 C10.4821543,9.75810767 10.9334954,9.59993055 11.2393087,9.29200912 C11.5366891,8.99673689 11.692758,8.53485474 11.6315582,8.13838884 C11.5219317,7.41918208 10.9377118,6.9130277 10.2269379,6.9214605 C10.134177,6.9235687 10.0392459,6.92778511 10.0160557,6.93200151 L10.0160557,6.93200151 Z" id="Shape" fill="#FFFFFF" sketch:type="MSShapeGroup" mask="url(#mask-2)"></path>
            </g>
        </g>
    </g>
</svg>