<?xml version="1.0" encoding="UTF-8" standalone="no"?>
<svg width="103px" height="20px" viewBox="0 0 103 20" version="1.1" xmlns="http://www.w3.org/2000/svg" xmlns:xlink="http://www.w3.org/1999/xlink" xmlns:sketch="http://www.bohemiancoding.com/sketch/ns">
    <!-- Generator: Sketch 3.5.1 (25234) - http://www.bohemiancoding.com/sketch -->
    <title>segmentfault</title>
    <desc>Created with Sketch.</desc>
    <defs>
        <rect id="path-1" x="0" y="0" width="103" height="20" rx="3"></rect>
    </defs>
    <g id="Page-1" stroke="none" stroke-width="1" fill="none" fill-rule="evenodd" sketch:type="MSPage">
        <g id="icon" sketch:type="MSLayerGroup" transform="translate(-299.000000, -60.000000)">
            <g id="segmentfault" transform="translate(299.000000, 60.000000)">
                <mask id="mask-2" sketch:name="Mask" fill="white">
                    <use xlink:href="#path-1"></use>
                </mask>
                <use id="Mask" fill="#DCDCDC" sketch:type="MSShapeGroup" xlink:href="#path-1"></use>
                <rect id="颜色" fill="#009A61" sketch:type="MSShapeGroup" mask="url(#mask-2)" x="0" y="0" width="67" height="20"></rect>
                <path d="M5.83918303,12.0151019 C6.38125588,12.4920027 7.16036059,12.9199166 7.90546072,12.9199166 C8.44703351,12.9199166 9.05661543,12.6893906 9.05661543,12.0650492 C9.05661543,11.3734711 8.22650387,11.2582081 7.29537873,10.862952 C6.2452376,10.4187092 5.36511932,9.87553221 5.36511932,8.57546145 C5.36511932,6.8801346 6.77030817,6.15637891 8.51454258,6.15637891 C9.46267,6.15637891 10.4788066,6.37009575 11.2069044,6.83066755 L11.2069044,7.0275752 L10.5298134,8.32764596 C10.0557497,7.98185692 9.41216321,7.75133089 8.70106765,7.75133089 C8.07448344,7.75133089 7.68493108,7.99866611 7.68493108,8.47556683 C7.68493108,9.10134895 8.43003122,9.2329409 9.36115636,9.57824968 C10.6483293,10.0556307 11.4264339,10.5819984 11.4264339,11.9152073 C11.4264339,13.6595209 10.0212451,14.4173753 8.1589948,14.4173753 C6.97383552,14.4173753 6.0257081,14.1042441 5.12858753,13.4458041 L5.12858753,13.2488965 L5.8396831,12.0146217 L5.83918303,12.0151019 Z M15.8475281,14.4178555 C13.0871571,14.4178555 11.9695069,12.5582789 11.9695069,10.2381304 C11.9695069,7.95063985 13.0031458,6.15685917 15.7300123,6.15685917 C18.354365,6.15685917 19.2854901,7.80271898 19.2854901,9.94132818 C19.2854901,10.1886634 19.217981,10.6329063 19.1164674,10.8970507 C18.4728809,10.8970507 14.5273507,10.8634323 14.3578279,10.8634323 C14.3748302,11.7355891 14.7643825,12.887739 16.1190646,12.887739 C16.8131579,12.887739 17.3892353,12.54195 17.8973036,12.0160625 L18.8624333,13.0692783 L18.8624333,13.2661859 C18.049324,13.957764 17.1011966,14.4188161 15.8480282,14.4188161 L15.8475281,14.4178555 Z M15.7285121,7.76958086 C14.8984005,7.76958086 14.4248369,8.39488272 14.3743301,9.69543374 C14.5603551,9.69543374 16.9146715,9.64548644 16.9996829,9.64548644 C16.9986828,8.41121165 16.6261327,7.76958086 15.7285121,7.76958086 L15.7285121,7.76958086 Z M27.3790778,7.86851495 L27.3790778,14.5326383 C27.3790778,16.8042802 25.6178411,17.7580817 23.6870817,17.7580817 C22.603436,17.7580817 21.434779,17.4785689 20.5206561,16.9512406 L21.130238,15.4878805 L21.3332653,15.4878805 C21.9433473,15.8826564 22.7049497,16.1458402 23.4335476,16.1458402 C24.4321818,16.1458402 24.9907569,15.6521303 24.9907569,14.7963024 C24.9907569,14.6647105 25.0417637,13.9078167 25.0757683,13.4467646 L25.0077592,13.4141068 C24.4316817,13.9246259 23.7375885,14.4015266 22.789461,14.4015266 C20.4691492,14.4015266 19.9110742,12.344562 19.9110742,10.2376502 C19.9110742,8.18116588 20.7746903,6.15685917 22.8404679,6.15685917 C23.7555909,6.15685917 24.4831887,6.55211526 25.0927706,7.09529222 L25.1437774,7.06167384 L25.3128002,6.48535877 L25.4993252,6.32110897 L27.4295846,6.37057602 C27.4130824,6.53578634 27.3795779,7.3752853 27.3795779,7.86899521 L27.3790778,7.86851495 Z M25.0087593,8.52647466 C24.6352091,8.11488965 24.1276409,7.86851495 23.6705794,7.86851495 C22.5354269,7.86851495 22.4004087,9.34916444 22.4004087,10.2381304 C22.4004087,11.2082608 22.4514156,12.8377917 23.518059,12.8377917 C23.9921227,12.8377917 24.5847023,12.4593448 24.9742547,11.9829243 C24.9742547,11.817714 25.0082592,8.70753365 25.0082592,8.52647466 L25.0087593,8.52647466 Z M37.5389433,14.2031782 C37.5389433,14.0557376 37.6069524,9.16810545 37.6069524,9.02018458 C37.6069524,8.19749481 37.3869228,7.88436362 36.8618523,7.88436362 C36.4717998,7.88436362 35.9302271,8.09856072 35.5066701,8.42706031 L35.5066701,14.2036584 L33.1698561,14.2036584 C33.1698561,14.0562178 33.2038607,9.16858571 33.2038607,9.02066484 C33.2038607,8.19797507 33.0008334,7.88484388 32.5097674,7.88484388 C32.1037128,7.88484388 31.5446377,8.11536991 31.1215808,8.44483003 L31.1385831,14.2031782 L28.73426,14.2031782 L28.73426,8.39536298 C28.73426,7.83537683 28.7002554,6.71684532 28.6832531,6.37105628 L30.6815217,6.3220695 L30.8675467,6.48679956 L30.9865627,7.12939087 L31.0200672,7.14571979 C31.748165,6.56940472 32.7643016,6.17462889 33.6279176,6.17462889 C34.3050086,6.17462889 34.9480951,6.47095089 35.2706384,7.17837765 C36.0997498,6.55307579 37.1673933,6.17462889 38.0310094,6.17462889 C39.1311572,6.17462889 39.9952734,6.8325886 39.9952734,8.51158652 C39.9952734,8.67631658 39.9442665,14.0408494 39.9442665,14.2050992 L37.5389433,14.2050992 L37.5389433,14.2031782 Z M44.8544264,14.4178555 C42.0940554,14.4178555 40.9769053,12.5582789 40.9769053,10.2381304 C40.9769053,7.95063985 42.0100441,6.15685917 44.7359105,6.15685917 C47.3612633,6.15685917 48.2923885,7.80271898 48.2923885,9.94132818 C48.2923885,10.1886634 48.2248794,10.6329063 48.1223656,10.8970507 C47.4792792,10.8970507 43.5337489,10.8634323 43.3642261,10.8634323 C43.3812284,11.7355891 43.7707808,12.887739 45.1254628,12.887739 C45.8205563,12.887739 46.3956335,12.54195 46.9037018,12.0160625 L47.8688315,13.0692783 L47.8688315,13.2661859 C47.0557223,13.957764 46.1075948,14.4188161 44.8544264,14.4188161 L44.8544264,14.4178555 Z M44.7359105,7.76958086 C43.9057989,7.76958086 43.4317352,8.39488272 43.3807284,9.69543374 C43.5677535,9.69543374 45.9210698,9.64548644 46.0060812,9.64548644 C46.0060812,8.41121165 45.6335311,7.76958086 44.7359105,7.76958086 L44.7359105,7.76958086 Z M53.8121303,14.2031782 C53.8121303,14.0557376 53.8796393,9.16810545 53.8796393,9.02018458 C53.8796393,8.18068562 53.6766121,7.88436362 53.1005346,7.88436362 C52.6774778,7.88436362 52.0673958,8.14850803 51.6103344,8.44434977 L51.6273366,14.2026979 L49.2220134,14.2026979 L49.2220134,8.39536298 C49.2220134,7.81904791 49.189009,6.71684532 49.1720067,6.37105628 L51.1697752,6.3220695 L51.3568003,6.48679956 L51.4753162,7.12939087 L51.5103209,7.14571979 C52.2719233,6.6030231 53.3725712,6.17462889 54.2706919,6.17462889 C55.4043443,6.17462889 56.2679603,6.8325886 56.2679603,8.51158652 C56.2679603,8.67631658 56.2169535,14.0408494 56.2169535,14.2050992 L53.8131304,14.2050992 L53.8121303,14.2031782 Z M60.2804996,14.2031782 C58.1642152,14.2031782 58.0116947,13.0188507 58.0116947,11.8671811 C58.0116947,11.702451 58.0116947,9.56288128 58.0456992,8.0154753 C57.5216288,8.03276475 57.1825832,8.03276475 57.0135605,8.03276475 L57.0305628,6.37105628 C57.2005857,6.37105628 57.5216288,6.37105628 58.0456992,6.38690494 C58.0317244,5.64638156 58.0205562,4.90581178 58.0121947,4.16521032 L58.1822176,4 L60.417518,4 C60.417518,4.14888139 60.417518,5.13582096 60.3835134,6.38690494 C60.9760931,6.37009575 61.7722,6.37009575 61.9412228,6.37009575 L61.9077183,8.03276475 C61.7376954,8.03276475 60.9760931,8.03276475 60.3835134,8.01595556 C60.4005157,9.51341423 60.4005157,11.4387869 60.4005157,11.587188 C60.4005157,12.4098778 60.4165179,12.5741276 61.161618,12.5741276 L61.8217067,12.5741276 L61.8567114,14.0389284 L61.6866886,14.2036584 L60.2814997,14.2036584 L60.2804996,14.2031782 Z" id="Shape" fill="#FFFFFF" sketch:type="MSShapeGroup" mask="url(#mask-2)"></path>
                <path d="M70.9413206,15.1158127 C70.9413206,14.9635814 70.9737639,10.8150546 70.9890586,9.38132016 C70.5649777,9.39689939 70.1256021,9.39689939 70,9.39689939 L70.0152947,7.85678106 C70.1404334,7.85678106 70.5645143,7.85678106 70.972837,7.87147005 C70.972837,7.81048849 70.9403936,6.54500976 70.9403936,6.49871719 C70.9403936,4.7760993 71.9767269,4.1351252 73.3263702,4.1351252 C73.9071061,4.1351252 74.5036002,4.2268201 75.1000944,4.47074636 L75.1000944,4.6995385 L74.6449605,5.91916977 C74.3937563,5.78251766 74.1119627,5.70551174 73.860295,5.70551174 C73.4209193,5.70551174 73.1381987,5.91916977 73.1381987,6.72750933 C73.1381987,7.00214893 73.1539569,7.81048849 73.1539569,7.87147005 C73.624849,7.85633594 74.5193584,7.85633594 74.644497,7.85633594 L74.6292023,9.39645427 C74.5031367,9.39645427 73.6081638,9.39645427 73.1377353,9.38176528 C73.1692517,10.8150546 73.1692517,14.9635814 73.1692517,15.1162579 L70.9399301,15.1162579 L70.9413206,15.1158127 Z M79.7306871,15.1158127 L79.5731051,14.9635814 L79.3853972,14.384034 L79.3223644,14.3688999 C78.6470793,14.9635814 77.8939301,15.3143367 76.9679043,15.3143367 C75.2887292,15.3143367 74.9907139,13.9113156 74.9907139,13.0878419 C74.9907139,10.7389389 77.0624534,10.6013966 79.2282787,10.4794334 L79.2282787,10.006715 C79.2282787,9.33591783 78.7740718,9.16766212 78.2243888,9.16766212 C77.2510883,9.16766212 76.3565789,9.47301506 75.823581,9.67064874 L75.3369308,8.45101747 L75.3369308,8.2685179 C76.4671235,7.86650364 77.6624758,7.65974702 78.867694,7.65781202 C80.4212669,7.65781202 81.4413785,8.28320689 81.4413785,9.91546524 L81.4413785,13.3624815 C81.4413785,13.9576082 81.4728949,14.8117952 81.4886531,15.1162579 L79.7306871,15.1162579 L79.7306871,15.1158127 Z M79.2440369,11.6238393 C77.7687915,11.6541075 77.1259497,11.6696867 77.1259497,12.8132023 C77.1259497,13.3473474 77.2668465,13.850334 77.8628772,13.850334 C78.2396835,13.850334 78.7573867,13.6522552 79.2287422,13.1795368 C79.2287422,13.0878419 79.2611855,11.7306683 79.2611855,11.6394185 L79.2445004,11.6238393 L79.2440369,11.6238393 Z M87.530995,15.1158127 L87.373413,14.9635814 L87.1852416,14.3537658 L87.1226723,14.3381865 C86.2911956,15.1011238 85.4272756,15.3143367 84.5642825,15.3143367 C83.4185689,15.3143367 82.5866287,14.704521 82.5866287,13.1488235 C82.5866287,12.9965921 82.6339033,8.00945753 82.6339033,7.85633594 L84.7056428,7.85633594 L84.8632248,8.00945753 C84.8632248,8.17726811 84.8154867,12.554142 84.8154867,12.7526659 C84.8154867,13.3014999 85.0041216,13.8200658 85.5690994,13.8200658 C86.0404549,13.8200658 86.6675384,13.515158 87.0448082,13.1345796 L87.0132918,7.85678106 L89.0850314,7.85678106 L89.2426133,8.00990266 L89.2426133,13.3620364 C89.2426133,13.9576082 89.2736663,14.8113501 89.288961,15.116703 L87.5314585,15.116703 L87.530995,15.1158127 Z M92.6941221,13.3620364 C92.6941221,13.9420289 92.7265655,14.8113501 92.7571549,15.1158127 L90.5287604,15.1158127 C90.496317,14.8113501 90.4657276,13.9415838 90.4657276,13.3620364 L90.4657276,6.14840704 C90.4657276,5.56885962 90.4499694,4.69998362 90.418453,4.39463068 L92.5374671,4.33364912 L92.6941221,4.48632559 L92.6941221,13.3620364 L92.6941221,13.3620364 Z M96.4612583,15.1158127 C94.4993627,15.1158127 94.3584659,14.0181446 94.3584659,12.9507447 C94.3584659,12.7980682 94.3584659,10.8150546 94.3899823,9.38087504 C93.9033321,9.39689939 93.5895585,9.39689939 93.43244,9.39689939 L93.4481982,7.85678106 C93.6057802,7.85678106 93.9037955,7.85678106 94.3904458,7.87147005 C94.3773389,7.18513262 94.3668334,6.49875164 94.3589294,5.81234076 L94.5165113,5.65921917 L96.5882509,5.65921917 C96.5882509,5.79720665 96.5882509,6.7119301 96.5558075,7.87147005 C97.105954,7.85589082 97.843345,7.85589082 98,7.85589082 L97.9694106,9.39689939 C97.8118286,9.39689939 97.1064175,9.39689939 96.5567345,9.38132016 C96.5724927,10.7692071 96.5724927,12.5536968 96.5724927,12.6912392 C96.5724927,13.4537313 96.5882509,13.6059626 97.2788307,13.6059626 L97.8906196,13.6059626 L97.922136,14.9635814 L97.764554,15.1162579 L96.4621853,15.1162579 L96.4612583,15.1158127 Z" id="Shape" fill="#303030" sketch:type="MSShapeGroup" mask="url(#mask-2)"></path>
            </g>
        </g>
    </g>
</svg>