<?xml version="1.0" encoding="UTF-8" standalone="no"?>
<svg width="66px" height="20px" viewBox="0 0 66 20" version="1.1" xmlns="http://www.w3.org/2000/svg" xmlns:xlink="http://www.w3.org/1999/xlink" xmlns:sketch="http://www.bohemiancoding.com/sketch/ns">
    <!-- Generator: Sketch 3.5.1 (25234) - http://www.bohemiancoding.com/sketch -->
    <title>stylus</title>
    <desc>Created with Sketch.</desc>
    <defs>
        <rect id="path-1" x="0" y="0" width="66" height="20" rx="3"></rect>
        <filter x="-50%" y="-50%" width="200%" height="200%" filterUnits="objectBoundingBox" id="filter-3">
            <feOffset dx="0" dy="0" in="SourceAlpha" result="shadowOffsetInner1"></feOffset>
            <feGaussianBlur stdDeviation="0" in="shadowOffsetInner1" result="shadowBlurInner1"></feGaussianBlur>
            <feComposite in="shadowBlurInner1" in2="SourceAlpha" operator="arithmetic" k2="-1" k3="1" result="shadowInnerInner1"></feComposite>
            <feColorMatrix values="0 0 0 0 0   0 0 0 0 0   0 0 0 0 0  0 0 0 0.35 0" in="shadowInnerInner1" type="matrix" result="shadowMatrixInner1"></feColorMatrix>
            <feMerge>
                <feMergeNode in="SourceGraphic"></feMergeNode>
                <feMergeNode in="shadowMatrixInner1"></feMergeNode>
            </feMerge>
        </filter>
        <filter x="-50%" y="-50%" width="200%" height="200%" filterUnits="objectBoundingBox" id="filter-4">
            <feOffset dx="0" dy="1" in="SourceAlpha" result="shadowOffsetOuter1"></feOffset>
            <feGaussianBlur stdDeviation="0" in="shadowOffsetOuter1" result="shadowBlurOuter1"></feGaussianBlur>
            <feColorMatrix values="0 0 0 0 0.347417092   0 0 0 0 0.347417092   0 0 0 0 0.347417092  0 0 0 0.348713235 0" in="shadowBlurOuter1" type="matrix" result="shadowMatrixOuter1"></feColorMatrix>
            <feMerge>
                <feMergeNode in="shadowMatrixOuter1"></feMergeNode>
                <feMergeNode in="SourceGraphic"></feMergeNode>
            </feMerge>
        </filter>
    </defs>
    <g id="Page-1" stroke="none" stroke-width="1" fill="none" fill-rule="evenodd" sketch:type="MSPage">
        <g id="GET" sketch:type="MSLayerGroup" transform="translate(-208.000000, -91.000000)">
            <g id="stylus" transform="translate(208.000000, 91.000000)">
                <mask id="mask-2" sketch:name="Mask" fill="white">
                    <use xlink:href="#path-1"></use>
                </mask>
                <use id="Mask" fill="#353053" sketch:type="MSShapeGroup" xlink:href="#path-1"></use>
                <rect id="颜色" fill="#B9B5CE" filter="url(#filter-3)" sketch:type="MSShapeGroup" mask="url(#mask-2)" x="0" y="0" width="28" height="20"></rect>
                <text id="Cancel" fill="#FFFFFF" filter="url(#filter-4)" sketch:type="MSTextLayer" mask="url(#mask-2)" font-family="Avenir Next" font-size="12" font-weight="420">
                    <tspan x="31" y="14">Stylus</tspan>
                </text>
                <path d="M6.39061197,13.5606782 C6.96124156,12.8748907 7.02837446,12.1666183 6.58641624,10.8512553 C6.30669585,10.0193163 5.84236,9.37849848 6.18361888,8.86134721 C6.54725539,8.31046868 7.31928367,8.8444836 6.67592677,9.58086199 L6.80459814,9.67080134 C7.57662644,9.76074068 7.95704614,8.69833213 7.38082214,8.39478682 C5.85914322,7.5965751 4.52767416,9.13116525 5.11508699,10.9074674 C5.36683534,11.6607094 5.71928303,12.4589211 5.43396823,13.0941178 C5.18781429,13.6393751 4.71228962,13.959784 4.39340838,13.9710265 C3.72767385,14.0047537 4.16963207,12.4701636 4.93606594,12.0879213 C5.00319883,12.0541941 5.09830376,12.0092244 5.00879324,11.8968002 C4.06333832,11.7899972 3.50949195,12.2284516 3.1906107,12.8411634 C2.261939,14.6230867 4.95284916,15.2807682 6.39061197,13.5606782 L6.39061197,13.5606782 Z M23.0060032,8.32171113 C23.224185,8.86134721 23.5542551,9.39536209 23.3584509,9.86754369 C23.196213,10.2722707 22.9836255,10.440907 22.7486604,10.4802555 C22.4185903,10.5364676 22.5081009,9.49654385 23.0731361,9.18737733 C23.1234857,9.15927132 23.196213,9.02436229 23.1290801,8.94566535 C22.4129959,8.90631688 22.0101986,9.24921066 21.7920167,9.7045286 C21.1598486,11.0367552 23.224185,11.4021338 24.2367729,10.0923921 C24.6395703,9.56961958 24.6563535,9.05246831 24.2703393,8.11372637 C24.0241854,7.51787821 23.6493601,7.07380265 23.8843252,6.680318 C24.1360735,6.26434851 24.7402696,6.62410591 24.2871226,7.18060563 L24.3878219,7.23681772 C24.9752347,7.27054497 25.2157943,6.48357567 24.7682416,6.28683335 C23.5878216,5.78092451 22.4857232,7.05693902 23.0060032,8.32171113 L23.0060032,8.32171113 Z M15.5318743,6.89954516 C15.1234825,6.57351502 13.976629,7.11877233 13.6521533,7.92822647 C13.2437615,8.95690776 12.6395655,10.4577706 12.0465583,11.1154521 C11.4199846,11.8068609 11.3584461,11.272846 11.4199846,10.8737401 C11.5654392,9.93499817 12.4773277,7.75959019 12.9752299,7.14687837 C12.7906145,6.87143912 11.5822224,6.91078758 10.7430613,8.22052933 C10.4297744,8.71519578 9.7136902,10.3622101 8.91928429,11.6607094 C8.74585765,11.9417699 8.52767574,11.7450276 8.69550798,11.0873461 C8.88571783,10.3284828 9.44515863,8.24301419 10.1668372,6.60162107 C12.0577471,6.22500005 14.0661395,5.96080321 15.6046016,5.955182 C15.8115947,5.89896991 15.9514549,5.71347 15.6046016,5.70222758 C14.278727,5.65725791 12.2871178,5.81465177 10.42418,6.05074256 C10.7822221,5.33122777 11.1682362,4.75786442 11.5598448,4.51615242 C11.1346698,4.24633437 10.273131,4.35313735 9.78082311,5.08389456 C9.56264121,5.4099247 9.3444593,5.80340935 9.1374662,6.23062126 C7.77243069,6.44422721 6.60319946,6.68593921 6.01019223,6.91078758 C5.39480738,7.14687837 5.46194027,7.89449921 5.83676559,7.75396898 C6.61438828,7.46166608 7.66613696,7.15812079 8.83536817,6.88830274 C8.09131193,8.57466551 7.50949353,10.5645736 7.36963334,11.3740278 C7.02278005,13.341451 8.23676656,13.3302086 8.82977377,12.5544817 C9.47313068,11.7056791 10.8157885,8.72081699 11.0227816,8.40602927 C11.0843201,8.29922627 11.1682362,8.35543835 11.123481,8.45099894 C9.62417967,11.4583459 9.75285106,12.6219362 10.9668376,12.3633606 C11.5150895,12.2453152 12.4605445,11.300952 12.7066984,10.8119068 C12.757048,10.6938614 12.8633418,10.7051039 12.8409642,10.7556948 C11.8899149,13.234648 10.6815227,15.2414198 9.87033364,15.8709952 C9.1318718,16.4387373 8.58361981,15.2076925 11.1962083,13.4426328 C11.5822224,13.178436 11.4032014,12.8186786 10.9668376,12.9423451 C9.61858527,13.1559511 5.75844388,14.386996 4.06333832,15.5674499 C3.93466694,15.6573893 3.81718438,15.730465 3.82277878,15.9159649 C3.82837319,16.0227679 4.01298865,15.9834194 4.10249917,15.9272073 C6.29550703,14.6062231 8.09131193,14.0890718 10.150054,13.6562387 C10.1780261,13.6674812 10.2115925,13.6731024 10.2395645,13.66186 C10.3346695,13.6393751 10.3290751,13.689966 10.2675366,13.7293145 C10.1276764,13.8080114 9.98781617,13.8810871 9.95424976,13.8923295 C8.5668366,14.4375868 7.72767543,15.6405256 8.02417906,16.2532374 C8.27592738,16.7816311 9.63536848,16.59051 10.2787254,16.241995 C11.8563484,15.38195 13.003202,13.6955872 13.7864191,11.3684066 C14.4689368,9.30542274 15.3304756,6.96699967 15.5318743,6.89954516 L15.5318743,6.89954516 Z M24.7011087,11.6607094 C22.1332756,11.3234369 16.5948118,11.7731336 14.1500556,12.4251939 C13.4227826,12.616315 13.6241813,13.0041785 13.9934122,12.9311027 C13.9990066,12.9311027 14.15565,12.8917543 14.1612444,12.8917543 C16.1696368,12.4982696 21.042366,12.1553758 23.8843252,12.7006332 C24.2255841,12.7624665 25.2493607,11.7337852 24.7011087,11.6607094 L24.7011087,11.6607094 Z M16.2479585,11.3571641 C16.9640427,10.9974067 18.0269802,8.77140786 18.7262812,7.55160543 C18.7766308,7.46166608 18.8661414,7.53474182 18.8157917,7.5965751 C17.0479588,10.654513 17.7976095,11.0086492 18.4969105,10.9636795 C19.4311766,10.9074674 20.2927154,9.55837717 20.4829252,9.25483187 C20.561247,9.13678646 20.6060022,9.23234701 20.561247,9.31666515 C20.5164917,9.45719538 20.3542539,9.7045286 20.2032049,10.0418012 C19.9906174,10.5196039 20.2143937,10.7051039 20.3990091,10.789422 C20.6899183,10.9299522 21.4843242,10.8400129 21.6074012,10.3509677 C20.8129953,10.334104 22.715094,6.56789381 22.9108982,6.33742423 C22.3794295,6.02825772 21.5570516,6.36553028 21.1822262,7.1075299 C20.3822259,8.69833213 19.710897,9.97996785 19.2913164,10.0024527 C18.4745328,10.0474224 20.2311769,6.45546963 20.5164917,6.34304544 C20.343065,6.09009102 19.2297779,6.196894 18.6087986,7.163742 C18.3850223,7.51225696 17.0199868,9.94061938 16.6843223,10.3397252 C16.0913151,11.0479976 16.0465598,10.440907 16.2143921,9.73263466 C16.2703361,9.49092264 16.3654411,9.18175613 16.4885181,8.83886235 C16.8801266,7.95071129 17.2997072,7.66965084 17.55705,7.38296914 C19.285722,5.45489437 20.2759321,3.89219818 19.8843236,3.27948637 C19.5374703,2.73422907 18.3794279,2.97594107 17.6353716,4.10018293 C16.2647417,6.16316675 15.0004056,8.99063503 14.8381678,10.2835132 C14.6815243,11.5763913 15.6157904,11.6719519 16.2479585,11.3571641 L16.2479585,11.3571641 Z M16.9752315,7.57409029 C17.03677,7.43356006 17.0759309,7.39421159 17.1822246,7.15812079 L17.1822246,7.15812079 C17.7976095,5.79778814 18.5696378,4.36437977 19.1011065,3.69545586 C19.4311766,3.34694088 19.8955124,3.81912246 19.0563513,5.11200061 C18.5640433,5.87648507 18.0046026,6.57913623 17.3948121,7.19746926 C17.3948121,7.19746926 17.3948121,7.19746926 17.3948121,7.20309046 C17.2381687,7.37734794 17.0983085,7.52349941 17.03677,7.60781755 C16.9920148,7.66402963 16.9416651,7.65278723 16.9752315,7.57409029 L16.9752315,7.57409029 L16.9752315,7.57409029 Z" id="Shape" fill="#333333" sketch:type="MSShapeGroup" mask="url(#mask-2)"></path>
            </g>
        </g>
    </g>
</svg>