<?xml version="1.0" encoding="UTF-8" standalone="no"?>
<svg width="68px" height="20px" viewBox="0 0 68 20" version="1.1" xmlns="http://www.w3.org/2000/svg" xmlns:xlink="http://www.w3.org/1999/xlink" xmlns:sketch="http://www.bohemiancoding.com/sketch/ns">
    <!-- Generator: Sketch 3.5.1 (25234) - http://www.bohemiancoding.com/sketch -->
    <title>weibo</title>
    <desc>Created with Sketch.</desc>
    <defs>
        <rect id="path-1" x="0" y="0" width="68" height="20" rx="3"></rect>
    </defs>
    <g id="Page-1" stroke="none" stroke-width="1" fill="none" fill-rule="evenodd" sketch:type="MSPage">
        <g id="icon" sketch:type="MSLayerGroup" transform="translate(-83.000000, 0.000000)">
            <g id="weibo" transform="translate(83.000000, 0.000000)">
                <mask id="mask-2" sketch:name="Mask" fill="white">
                    <use xlink:href="#path-1"></use>
                </mask>
                <use id="Mask" fill="#F42A1F" sketch:type="MSShapeGroup" xlink:href="#path-1"></use>
                <rect id="颜色" fill="#D40E04" sketch:type="MSShapeGroup" mask="url(#mask-2)" x="0" y="0" width="24" height="20"></rect>
                <text id="Cancel" fill="#FFFFFF" sketch:type="MSTextLayer" mask="url(#mask-2)" font-family="PingFang SC" font-size="12" font-weight="526" sketch:alignment="middle">
                    <tspan x="27.49" y="14">WeiBo</tspan>
                </text>
                <path d="M15.0514735,4.13146683 C14.5795806,4.3372861 14.4714203,4.82729576 14.815527,5.170346 C14.982674,5.33697972 15.1399534,5.36638247 15.8281124,5.36638247 C16.7915785,5.36638247 17.4404312,5.6211701 17.9320045,6.18965957 C18.5316835,6.8659229 18.6005376,7.07174217 18.6005376,8.30665782 C18.6005376,9.4043425 18.6005376,9.42396245 18.8561099,9.57097622 C19.445976,9.90418931 19.8392564,9.49255076 19.9768555,8.39486608 C20.1538153,6.96391396 19.2985095,5.29773981 18.0106715,4.53326823 C17.1651786,4.04325857 15.7200066,3.84722209 15.0514735,4.13146683 L15.0514735,4.13146683 Z M10.2145714,5.95443754 C9.11345166,6.34645614 8.05169266,7.10114493 6.9113212,8.31644062 C4.20775003,11.1783449 4.38470986,13.9030181 7.36353371,15.3535358 C10.4603308,16.8628591 14.6287543,16.3630123 16.8997388,14.2068285 C18.6005376,12.5994598 18.3940844,10.5804526 16.4573392,9.8944065 C16.1132325,9.77679549 16.0050722,9.68858723 16.0542459,9.58075902 C16.2312057,9.14955487 16.2901923,8.64970806 16.1918995,8.35568052 C15.887099,7.42457521 14.7762208,7.20897314 13.1245957,7.76762545 L12.4658755,7.99301033 L12.5248622,7.33636695 C12.5937162,6.56211256 12.4265693,6.14063686 11.9644894,5.90541484 C11.5810764,5.70937836 10.8437437,5.72899832 10.2145714,5.95443754 L10.2145714,5.95443754 Z M12.9476359,9.74739274 C14.4124337,10.1492485 15.3071003,11.0313311 15.3071003,12.0799931 C15.3071003,13.2463204 14.2649672,14.2950367 12.5740358,14.853689 C11.6695563,15.1477166 9.98843789,15.2065221 9.16262534,14.9810829 C7.59948015,14.5400415 6.71468099,13.6775789 6.71468099,12.5700571 C6.71468099,11.962382 6.98012074,11.4331325 7.56017392,10.8941001 C8.10086634,10.3844705 8.51377262,10.1394113 9.31009187,9.87478655 C10.5095045,9.47298515 11.797397,9.42396245 12.9476359,9.74739274 L12.9476359,9.74739274 Z M9.85078429,10.6980636 C8.85787936,11.1587249 8.32699986,11.864391 8.32699986,12.7464736 C8.32699986,13.5501851 8.68091952,14.0990002 9.45755839,14.5106388 C10.0572374,14.8340691 11.1583572,14.8046663 11.8268903,14.4616704 C12.6821961,14.010792 13.2425689,13.1777321 13.2425689,12.3642378 C13.2327015,11.6977573 12.6428354,10.9038829 11.9448635,10.6196925 C11.3844907,10.3844705 10.4406504,10.4236561 9.85078429,10.6980636 L9.85078429,10.6980636 Z M10.5684911,12.5406543 C10.6372906,12.6092426 10.6864643,12.7758763 10.6864643,12.9228901 C10.6864643,13.4129541 9.86065174,13.8148099 9.52635793,13.4815424 C9.33958517,13.2953431 9.38875885,12.8346818 9.60502492,12.6190798 C9.82129099,12.4034233 10.3816638,12.354455 10.5684911,12.5406543 L10.5684911,12.5406543 Z M15.2186204,6.14063686 C14.7663534,6.59151532 15.0711539,7.13054768 15.7888061,7.13054768 C16.4081655,7.13054768 16.6834182,7.44419517 16.6834182,8.14986125 C16.6834182,8.59090255 16.722779,8.71829637 16.8997388,8.83590738 C17.4306183,9.20836037 17.863205,8.79672182 17.863205,7.92442202 C17.863205,6.8561401 17.0963245,6.0524286 16.0050722,5.97400314 C15.5135534,5.93481759 15.3955802,5.96422034 15.2186204,6.14063686 L15.2186204,6.14063686 Z" id="Shape" fill="#FFFEFE" sketch:type="MSShapeGroup" mask="url(#mask-2)"></path>
            </g>
        </g>
    </g>
</svg>