<?xml version="1.0" encoding="UTF-8" standalone="no"?>
<svg width="100px" height="20px" viewBox="0 0 100 20" version="1.1" xmlns="http://www.w3.org/2000/svg" xmlns:xlink="http://www.w3.org/1999/xlink" xmlns:sketch="http://www.bohemiancoding.com/sketch/ns">
    <!-- Generator: Sketch 3.5.1 (25234) - http://www.bohemiancoding.com/sketch -->
    <title>stable</title>
    <desc>Created with Sketch.</desc>
    <defs>
        <linearGradient x1="50%" y1="0%" x2="50%" y2="100%" id="linearGradient-1">
            <stop stop-color="#5E5E5E" offset="0%"></stop>
            <stop stop-color="#4D4D4D" offset="100%"></stop>
        </linearGradient>
        <rect id="path-2" x="0" y="0" width="100" height="20" rx="3"></rect>
        <filter x="-50%" y="-50%" width="200%" height="200%" filterUnits="objectBoundingBox" id="filter-4">
            <feOffset dx="0" dy="0" in="SourceAlpha" result="shadowOffsetInner1"></feOffset>
            <feGaussianBlur stdDeviation="0" in="shadowOffsetInner1" result="shadowBlurInner1"></feGaussianBlur>
            <feComposite in="shadowBlurInner1" in2="SourceAlpha" operator="arithmetic" k2="-1" k3="1" result="shadowInnerInner1"></feComposite>
            <feColorMatrix values="0 0 0 0 0   0 0 0 0 0   0 0 0 0 0  0 0 0 0.35 0" in="shadowInnerInner1" type="matrix" result="shadowMatrixInner1"></feColorMatrix>
            <feMerge>
                <feMergeNode in="SourceGraphic"></feMergeNode>
                <feMergeNode in="shadowMatrixInner1"></feMergeNode>
            </feMerge>
        </filter>
        <filter x="-50%" y="-50%" width="200%" height="200%" filterUnits="objectBoundingBox" id="filter-5">
            <feOffset dx="0" dy="1" in="SourceAlpha" result="shadowOffsetOuter1"></feOffset>
            <feGaussianBlur stdDeviation="0" in="shadowOffsetOuter1" result="shadowBlurOuter1"></feGaussianBlur>
            <feColorMatrix values="0 0 0 0 0.347417092   0 0 0 0 0.347417092   0 0 0 0 0.347417092  0 0 0 0.348713235 0" in="shadowBlurOuter1" type="matrix" result="shadowMatrixOuter1"></feColorMatrix>
            <feMerge>
                <feMergeNode in="shadowMatrixOuter1"></feMergeNode>
                <feMergeNode in="SourceGraphic"></feMergeNode>
            </feMerge>
        </filter>
        <filter x="-50%" y="-50%" width="200%" height="200%" filterUnits="objectBoundingBox" id="filter-6">
            <feOffset dx="0" dy="1" in="SourceAlpha" result="shadowOffsetOuter1"></feOffset>
            <feGaussianBlur stdDeviation="0" in="shadowOffsetOuter1" result="shadowBlurOuter1"></feGaussianBlur>
            <feColorMatrix values="0 0 0 0 0.347417092   0 0 0 0 0.347417092   0 0 0 0 0.347417092  0 0 0 0.348713235 0" in="shadowBlurOuter1" type="matrix" result="shadowMatrixOuter1"></feColorMatrix>
            <feMerge>
                <feMergeNode in="shadowMatrixOuter1"></feMergeNode>
                <feMergeNode in="SourceGraphic"></feMergeNode>
            </feMerge>
        </filter>
    </defs>
    <g id="Page-1" stroke="none" stroke-width="1" fill="none" fill-rule="evenodd" sketch:type="MSPage">
        <g id="status" sketch:type="MSLayerGroup">
            <g id="stable">
                <mask id="mask-3" sketch:name="Mask" fill="white">
                    <use xlink:href="#path-2"></use>
                </mask>
                <use id="Mask" fill="url(#linearGradient-1)" sketch:type="MSShapeGroup" xlink:href="#path-2"></use>
                <rect id="颜色" fill="#5ACF19" filter="url(#filter-4)" sketch:type="MSShapeGroup" mask="url(#mask-3)" x="46" y="0" width="61" height="20"></rect>
                <path d="M9.718,9.044 C9.56866592,8.80133212 9.35866802,8.60300077 9.088,8.449 C8.81733198,8.29499923 8.51400168,8.218 8.178,8.218 C8.02866592,8.218 7.87933408,8.23433317 7.73,8.267 C7.58066592,8.29966683 7.44766725,8.35099965 7.331,8.421 C7.21433275,8.49100035 7.12100035,8.57966613 7.051,8.687 C6.98099965,8.79433387 6.946,8.92733254 6.946,9.086 C6.946,9.3660014 7.07199874,9.57366599 7.324,9.709 C7.57600126,9.84433401 7.95399748,9.96799944 8.458,10.08 C8.77533492,10.154667 9.06933198,10.2433328 9.34,10.346 C9.61066802,10.4486672 9.84633233,10.5769992 10.047,10.731 C10.2476677,10.8850008 10.4039994,11.0693323 10.516,11.284 C10.6280006,11.4986677 10.684,11.7506652 10.684,12.04 C10.684,12.432002 10.6093341,12.763332 10.46,13.034 C10.3106659,13.304668 10.1123346,13.5263325 9.865,13.699 C9.61766543,13.8716675 9.33533492,13.995333 9.018,14.07 C8.70066508,14.144667 8.37400168,14.182 8.038,14.182 C7.53399748,14.182 7.04166907,14.084001 6.561,13.888 C6.08033093,13.691999 5.68133492,13.3933353 5.364,12.992 L6.302,12.194 C6.47933422,12.4553346 6.72433177,12.6746658 7.037,12.852 C7.34966823,13.0293342 7.6926648,13.118 8.066,13.118 C8.23400084,13.118 8.39499923,13.1016668 8.549,13.069 C8.70300077,13.0363332 8.84299937,12.982667 8.969,12.908 C9.09500063,12.833333 9.19533296,12.7353339 9.27,12.614 C9.34466704,12.4926661 9.382,12.3386676 9.382,12.152 C9.382,11.8439985 9.23500147,11.6153341 8.941,11.466 C8.64699853,11.3166659 8.21533618,11.1766673 7.646,11.046 C7.42199888,10.9899997 7.19566781,10.9223337 6.967,10.843 C6.73833219,10.7636663 6.5306676,10.6540007 6.344,10.514 C6.1573324,10.3739993 6.00566725,10.1990011 5.889,9.989 C5.77233275,9.77899895 5.714,9.52000154 5.714,9.212 C5.714,8.85733156 5.78633261,8.55166795 5.931,8.295 C6.07566739,8.03833205 6.2646655,7.82833415 6.498,7.665 C6.7313345,7.50166585 6.99733184,7.38033373 7.296,7.301 C7.59466816,7.22166627 7.90266508,7.182 8.22,7.182 C8.69600238,7.182 9.15566445,7.2753324 9.599,7.462 C10.0423356,7.6486676 10.3853321,7.91933156 10.628,8.274 L9.718,9.044 Z M15.598,8.442 L13.834,8.442 L13.834,11.9 C13.834,12.3013353 13.9086659,12.5883325 14.058,12.761 C14.2073341,12.9336675 14.4453317,13.02 14.772,13.02 C14.8933339,13.02 15.0239993,13.0060001 15.164,12.978 C15.3040007,12.9499999 15.4299994,12.9080003 15.542,12.852 L15.584,13.93 C15.4253325,13.9860003 15.2503343,14.0303332 15.059,14.063 C14.8676657,14.0956668 14.6693344,14.112 14.464,14.112 C13.8386635,14.112 13.360335,13.9393351 13.029,13.594 C12.697665,13.2486649 12.532,12.7306701 12.532,12.04 L12.532,8.442 L11.258,8.442 L11.258,7.364 L12.532,7.364 L12.532,5.46 L13.834,5.46 L13.834,7.364 L15.598,7.364 L15.598,8.442 Z M21.086,9.702 C21.086,9.20733086 20.9366682,8.84100119 20.638,8.603 C20.3393318,8.36499881 19.9426691,8.246 19.448,8.246 C19.0746648,8.246 18.722335,8.31833261 18.391,8.463 C18.059665,8.60766739 17.7820011,8.79199888 17.558,9.016 L16.858,8.176 C17.1846683,7.86799846 17.5836643,7.62533422 18.055,7.448 C18.5263357,7.27066578 19.032664,7.182 19.574,7.182 C20.0500024,7.182 20.4629982,7.24966599 20.813,7.385 C21.1630017,7.52033401 21.4499989,7.7046655 21.674,7.938 C21.8980011,8.1713345 22.0659994,8.44666508 22.178,8.764 C22.2900006,9.08133492 22.346,9.42199818 22.346,9.786 L22.346,12.684 C22.346,12.9080011 22.3529999,13.1436654 22.367,13.391 C22.3810001,13.6383346 22.4066665,13.8413325 22.444,14 L21.254,14 C21.179333,13.6826651 21.142,13.3653349 21.142,13.048 L21.1,13.048 C20.8573321,13.4026684 20.5516685,13.677999 20.183,13.874 C19.8143315,14.070001 19.3780025,14.168 18.874,14.168 C18.6126654,14.168 18.3396681,14.1330004 18.055,14.063 C17.7703319,13.9929997 17.5113345,13.8786675 17.278,13.72 C17.0446655,13.5613325 16.8510008,13.3513346 16.697,13.09 C16.5429992,12.8286654 16.466,12.5066686 16.466,12.124 C16.466,11.6199975 16.601332,11.2210015 16.872,10.927 C17.142668,10.6329985 17.4973311,10.4090008 17.936,10.255 C18.3746689,10.1009992 18.8693306,10.0006669 19.42,9.954 C19.9706694,9.9073331 20.5259972,9.884 21.086,9.884 L21.086,9.702 Z M20.764,10.836 C20.4373317,10.836 20.0990017,10.8499999 19.749,10.878 C19.3989982,10.9060001 19.0816681,10.9619996 18.797,11.046 C18.5123319,11.1300004 18.2766676,11.2559992 18.09,11.424 C17.9033324,11.5920008 17.81,11.8159986 17.81,12.096 C17.81,12.292001 17.8496663,12.4553327 17.929,12.586 C18.0083337,12.7166673 18.1133327,12.8239996 18.244,12.908 C18.3746673,12.9920004 18.5193325,13.0503332 18.678,13.083 C18.8366675,13.1156668 18.9999992,13.132 19.168,13.132 C19.7840031,13.132 20.257665,12.9476685 20.589,12.579 C20.920335,12.2103315 21.086,11.7460028 21.086,11.186 L21.086,10.836 L20.764,10.836 Z M27.792,8.442 L26.028,8.442 L26.028,11.9 C26.028,12.3013353 26.1026659,12.5883325 26.252,12.761 C26.4013341,12.9336675 26.6393317,13.02 26.966,13.02 C27.0873339,13.02 27.2179993,13.0060001 27.358,12.978 C27.4980007,12.9499999 27.6239994,12.9080003 27.736,12.852 L27.778,13.93 C27.6193325,13.9860003 27.4443343,14.0303332 27.253,14.063 C27.0616657,14.0956668 26.8633344,14.112 26.658,14.112 C26.0326635,14.112 25.554335,13.9393351 25.223,13.594 C24.891665,13.2486649 24.726,12.7306701 24.726,12.04 L24.726,8.442 L23.452,8.442 L23.452,7.364 L24.726,7.364 L24.726,5.46 L26.028,5.46 L26.028,7.364 L27.792,7.364 L27.792,8.442 Z M33.826,14 C33.8073332,13.8319992 33.7933334,13.6430011 33.784,13.433 C33.7746666,13.222999 33.77,13.0480007 33.77,12.908 L33.742,12.908 C33.5739992,13.2626684 33.2916686,13.5636654 32.895,13.811 C32.4983314,14.0583346 32.0573358,14.182 31.572,14.182 C31.1426645,14.182 30.7716682,14.1120007 30.459,13.972 C30.1463318,13.8319993 29.8896677,13.6383346 29.689,13.391 C29.4883323,13.1436654 29.3390005,12.8566683 29.241,12.53 C29.1429995,12.2033317 29.094,11.8533352 29.094,11.48 L29.094,7.364 L30.41,7.364 L30.41,11.032 C30.41,11.302668 30.4309998,11.5616654 30.473,11.809 C30.5150002,12.0563346 30.5919994,12.2733324 30.704,12.46 C30.8160006,12.6466676 30.969999,12.7959994 31.166,12.908 C31.362001,13.0200006 31.6139985,13.076 31.922,13.076 C32.4540027,13.076 32.8833317,12.8776687 33.21,12.481 C33.5366683,12.0843314 33.7,11.55467 33.7,10.892 L33.7,7.364 L35.016,7.364 L35.016,12.572 C35.016,12.7493342 35.0206666,12.9779986 35.03,13.258 C35.0393334,13.5380014 35.0533332,13.7853323 35.072,14 L33.826,14 Z M40.882,9.044 C40.7326659,8.80133212 40.522668,8.60300077 40.252,8.449 C39.981332,8.29499923 39.6780017,8.218 39.342,8.218 C39.1926659,8.218 39.0433341,8.23433317 38.894,8.267 C38.7446659,8.29966683 38.6116673,8.35099965 38.495,8.421 C38.3783327,8.49100035 38.2850003,8.57966613 38.215,8.687 C38.1449996,8.79433387 38.11,8.92733254 38.11,9.086 C38.11,9.3660014 38.2359987,9.57366599 38.488,9.709 C38.7400013,9.84433401 39.1179975,9.96799944 39.622,10.08 C39.9393349,10.154667 40.233332,10.2433328 40.504,10.346 C40.774668,10.4486672 41.0103323,10.5769992 41.211,10.731 C41.4116677,10.8850008 41.5679994,11.0693323 41.68,11.284 C41.7920006,11.4986677 41.848,11.7506652 41.848,12.04 C41.848,12.432002 41.7733341,12.763332 41.624,13.034 C41.4746659,13.304668 41.2763346,13.5263325 41.029,13.699 C40.7816654,13.8716675 40.4993349,13.995333 40.182,14.07 C39.8646651,14.144667 39.5380017,14.182 39.202,14.182 C38.6979975,14.182 38.2056691,14.084001 37.725,13.888 C37.2443309,13.691999 36.8453349,13.3933353 36.528,12.992 L37.466,12.194 C37.6433342,12.4553346 37.8883318,12.6746658 38.201,12.852 C38.5136682,13.0293342 38.8566648,13.118 39.23,13.118 C39.3980008,13.118 39.5589992,13.1016668 39.713,13.069 C39.8670008,13.0363332 40.0069994,12.982667 40.133,12.908 C40.2590006,12.833333 40.359333,12.7353339 40.434,12.614 C40.508667,12.4926661 40.546,12.3386676 40.546,12.152 C40.546,11.8439985 40.3990015,11.6153341 40.105,11.466 C39.8109985,11.3166659 39.3793362,11.1766673 38.81,11.046 C38.5859989,10.9899997 38.3596678,10.9223337 38.131,10.843 C37.9023322,10.7636663 37.6946676,10.6540007 37.508,10.514 C37.3213324,10.3739993 37.1696672,10.1990011 37.053,9.989 C36.9363327,9.77899895 36.878,9.52000154 36.878,9.212 C36.878,8.85733156 36.9503326,8.55166795 37.095,8.295 C37.2396674,8.03833205 37.4286655,7.82833415 37.662,7.665 C37.8953345,7.50166585 38.1613318,7.38033373 38.46,7.301 C38.7586682,7.22166627 39.0666651,7.182 39.384,7.182 C39.8600024,7.182 40.3196644,7.2753324 40.763,7.462 C41.2063355,7.6486676 41.5493321,7.91933156 41.792,8.274 L40.882,9.044 Z" id="Cancel" fill="#FFFFFF" filter="url(#filter-5)" sketch:type="MSShapeGroup" mask="url(#mask-3)"></path>
                <path d="M56.718,9.044 C56.5686659,8.80133212 56.358668,8.60300077 56.088,8.449 C55.817332,8.29499923 55.5140017,8.218 55.178,8.218 C55.0286659,8.218 54.8793341,8.23433317 54.73,8.267 C54.5806659,8.29966683 54.4476673,8.35099965 54.331,8.421 C54.2143327,8.49100035 54.1210004,8.57966613 54.051,8.687 C53.9809997,8.79433387 53.946,8.92733254 53.946,9.086 C53.946,9.3660014 54.0719987,9.57366599 54.324,9.709 C54.5760013,9.84433401 54.9539975,9.96799944 55.458,10.08 C55.7753349,10.154667 56.069332,10.2433328 56.34,10.346 C56.610668,10.4486672 56.8463323,10.5769992 57.047,10.731 C57.2476677,10.8850008 57.4039994,11.0693323 57.516,11.284 C57.6280006,11.4986677 57.684,11.7506652 57.684,12.04 C57.684,12.432002 57.6093341,12.763332 57.46,13.034 C57.3106659,13.304668 57.1123346,13.5263325 56.865,13.699 C56.6176654,13.8716675 56.3353349,13.995333 56.018,14.07 C55.7006651,14.144667 55.3740017,14.182 55.038,14.182 C54.5339975,14.182 54.0416691,14.084001 53.561,13.888 C53.0803309,13.691999 52.6813349,13.3933353 52.364,12.992 L53.302,12.194 C53.4793342,12.4553346 53.7243318,12.6746658 54.037,12.852 C54.3496682,13.0293342 54.6926648,13.118 55.066,13.118 C55.2340008,13.118 55.3949992,13.1016668 55.549,13.069 C55.7030008,13.0363332 55.8429994,12.982667 55.969,12.908 C56.0950006,12.833333 56.195333,12.7353339 56.27,12.614 C56.344667,12.4926661 56.382,12.3386676 56.382,12.152 C56.382,11.8439985 56.2350015,11.6153341 55.941,11.466 C55.6469985,11.3166659 55.2153362,11.1766673 54.646,11.046 C54.4219989,10.9899997 54.1956678,10.9223337 53.967,10.843 C53.7383322,10.7636663 53.5306676,10.6540007 53.344,10.514 C53.1573324,10.3739993 53.0056673,10.199001 52.889,9.989 C52.7723327,9.77899895 52.714,9.52000154 52.714,9.212 C52.714,8.85733156 52.7863326,8.55166795 52.931,8.295 C53.0756674,8.03833205 53.2646655,7.82833415 53.498,7.665 C53.7313345,7.50166585 53.9973318,7.38033373 54.296,7.301 C54.5946682,7.22166627 54.9026651,7.182 55.22,7.182 C55.6960024,7.182 56.1556645,7.2753324 56.599,7.462 C57.0423355,7.6486676 57.3853321,7.91933156 57.628,8.274 L56.718,9.044 Z M62.598,8.442 L60.834,8.442 L60.834,11.9 C60.834,12.3013353 60.9086659,12.5883325 61.058,12.761 C61.2073341,12.9336675 61.4453317,13.02 61.772,13.02 C61.8933339,13.02 62.0239993,13.0060001 62.164,12.978 C62.3040007,12.9499999 62.4299994,12.9080003 62.542,12.852 L62.584,13.93 C62.4253325,13.9860003 62.2503343,14.0303332 62.059,14.063 C61.8676657,14.0956668 61.6693344,14.112 61.464,14.112 C60.8386635,14.112 60.360335,13.9393351 60.029,13.594 C59.697665,13.2486649 59.532,12.7306701 59.532,12.04 L59.532,8.442 L58.258,8.442 L58.258,7.364 L59.532,7.364 L59.532,5.46 L60.834,5.46 L60.834,7.364 L62.598,7.364 L62.598,8.442 Z M68.086,9.702 C68.086,9.20733086 67.9366682,8.84100119 67.638,8.603 C67.3393318,8.36499881 66.9426691,8.246 66.448,8.246 C66.0746648,8.246 65.722335,8.31833261 65.391,8.463 C65.059665,8.60766739 64.7820011,8.79199888 64.558,9.016 L63.858,8.176 C64.1846683,7.86799846 64.5836643,7.62533422 65.055,7.448 C65.5263357,7.27066578 66.032664,7.182 66.574,7.182 C67.0500024,7.182 67.4629982,7.24966599 67.813,7.385 C68.1630018,7.52033401 68.4499989,7.7046655 68.674,7.938 C68.8980011,8.1713345 69.0659994,8.44666508 69.178,8.764 C69.2900006,9.08133492 69.346,9.42199818 69.346,9.786 L69.346,12.684 C69.346,12.9080011 69.3529999,13.1436654 69.367,13.391 C69.3810001,13.6383346 69.4066665,13.8413325 69.444,14 L68.254,14 C68.179333,13.6826651 68.142,13.3653349 68.142,13.048 L68.1,13.048 C67.8573321,13.4026684 67.5516685,13.677999 67.183,13.874 C66.8143315,14.070001 66.3780025,14.168 65.874,14.168 C65.6126654,14.168 65.3396681,14.1330003 65.055,14.063 C64.7703319,13.9929996 64.5113345,13.8786675 64.278,13.72 C64.0446655,13.5613325 63.8510008,13.3513346 63.697,13.09 C63.5429992,12.8286654 63.466,12.5066686 63.466,12.124 C63.466,11.6199975 63.601332,11.2210015 63.872,10.927 C64.142668,10.6329985 64.4973311,10.4090008 64.936,10.255 C65.3746689,10.1009992 65.8693306,10.0006669 66.42,9.954 C66.9706694,9.9073331 67.5259972,9.884 68.086,9.884 L68.086,9.702 Z M67.764,10.836 C67.4373317,10.836 67.0990017,10.8499999 66.749,10.878 C66.3989983,10.9060001 66.0816681,10.9619996 65.797,11.046 C65.5123319,11.1300004 65.2766676,11.2559992 65.09,11.424 C64.9033324,11.5920008 64.81,11.8159986 64.81,12.096 C64.81,12.292001 64.8496663,12.4553327 64.929,12.586 C65.0083337,12.7166673 65.1133327,12.8239996 65.244,12.908 C65.3746673,12.9920004 65.5193325,13.0503332 65.678,13.083 C65.8366675,13.1156668 65.9999992,13.132 66.168,13.132 C66.7840031,13.132 67.257665,12.9476685 67.589,12.579 C67.920335,12.2103315 68.086,11.7460028 68.086,11.186 L68.086,10.836 L67.764,10.836 Z M72.846,12.95 L72.846,14 L71.572,14 L71.572,3.416 L72.888,3.416 L72.888,8.358 L72.93,8.358 C73.1540011,8.0313317 73.4666647,7.75366781 73.868,7.525 C74.2693353,7.29633219 74.7453306,7.182 75.296,7.182 C75.7906691,7.182 76.240998,7.27066578 76.647,7.448 C77.053002,7.62533422 77.4029985,7.87266508 77.697,8.19 C77.9910015,8.50733492 78.2173325,8.87833121 78.376,9.303 C78.5346675,9.72766879 78.614,10.1826642 78.614,10.668 C78.614,11.1533358 78.5346675,11.6106645 78.376,12.04 C78.2173325,12.4693355 77.9933348,12.8426651 77.704,13.16 C77.4146652,13.4773349 77.0646687,13.7269991 76.654,13.909 C76.2433313,14.0910009 75.7813359,14.182 75.268,14.182 C74.7919976,14.182 74.3393355,14.077001 73.91,13.867 C73.4806645,13.6569989 73.1353346,13.3513353 72.874,12.95 L72.846,12.95 Z M77.256,10.668 C77.256,10.3599985 77.2093338,10.0613348 77.116,9.772 C77.0226662,9.48266522 76.8826676,9.22600112 76.696,9.002 C76.5093324,8.77799888 76.2783347,8.60066732 76.003,8.47 C75.7276653,8.33933268 75.4080018,8.274 75.044,8.274 C74.7079983,8.274 74.4023347,8.33933268 74.127,8.47 C73.8516653,8.60066732 73.616001,8.77799888 73.42,9.002 C73.223999,9.22600112 73.0723339,9.48266522 72.965,9.772 C72.8576661,10.0613348 72.804,10.3646651 72.804,10.682 C72.804,10.9993349 72.8576661,11.3026652 72.965,11.592 C73.0723339,11.8813348 73.223999,12.1356656 73.42,12.355 C73.616001,12.5743344 73.8516653,12.7493327 74.127,12.88 C74.4023347,13.0106673 74.7079983,13.076 75.044,13.076 C75.4080018,13.076 75.7276653,13.008334 76.003,12.873 C76.2783347,12.737666 76.5093324,12.5580011 76.696,12.334 C76.8826676,12.1099989 77.0226662,11.8533348 77.116,11.564 C77.2093338,11.2746652 77.256,10.9760015 77.256,10.668 L77.256,10.668 Z M81.792,14 L80.476,14 L80.476,3.416 L81.792,3.416 L81.792,14 Z M88.946,10.094 C88.9366666,9.83266536 88.8923337,9.58766781 88.813,9.359 C88.7336663,9.13033219 88.6170008,8.93200084 88.463,8.764 C88.3089992,8.59599916 88.1176678,8.46300049 87.889,8.365 C87.6603322,8.26699951 87.3920015,8.218 87.084,8.218 C86.8039986,8.218 86.5403346,8.26699951 86.293,8.365 C86.0456654,8.46300049 85.8310009,8.59599916 85.649,8.764 C85.4669991,8.93200084 85.3176672,9.13033219 85.201,9.359 C85.0843328,9.58766781 85.0166668,9.83266536 84.998,10.094 L88.946,10.094 Z M90.276,10.626 L90.276,10.85 C90.276,10.924667 90.2713334,10.999333 90.262,11.074 L84.998,11.074 C85.0073334,11.3540014 85.0703328,11.6176654 85.187,11.865 C85.3036672,12.1123346 85.459999,12.3269991 85.656,12.509 C85.852001,12.6910009 86.0783321,12.8333328 86.335,12.936 C86.5916679,13.0386672 86.8646652,13.09 87.154,13.09 C87.6020022,13.09 87.9893317,12.992001 88.316,12.796 C88.6426683,12.599999 88.8993324,12.3620014 89.086,12.082 L90.01,12.824 C89.6553316,13.290669 89.2376691,13.6336656 88.757,13.853 C88.2763309,14.0723344 87.7420029,14.182 87.154,14.182 C86.6499975,14.182 86.1833355,14.0980008 85.754,13.93 C85.3246645,13.7619992 84.9560015,13.5263348 84.648,13.223 C84.3399985,12.9196651 84.0973342,12.5533355 83.92,12.124 C83.7426658,11.6946645 83.654,11.2186693 83.654,10.696 C83.654,10.1826641 83.7403325,9.70900217 83.913,9.275 C84.0856675,8.84099783 84.3259985,8.47000154 84.634,8.162 C84.9420015,7.85399846 85.3059979,7.61366753 85.726,7.441 C86.1460021,7.26833247 86.5986642,7.182 87.084,7.182 C87.5693358,7.182 88.0103314,7.26133254 88.407,7.42 C88.8036686,7.57866746 89.1396653,7.80733184 89.415,8.106 C89.6903347,8.40466816 89.9026659,8.76633121 90.052,9.191 C90.2013341,9.61566879 90.276,10.0939973 90.276,10.626 L90.276,10.626 Z" id="Cancel" fill="#FFFFFF" filter="url(#filter-6)" sketch:type="MSShapeGroup" mask="url(#mask-3)"></path>
            </g>
        </g>
    </g>
</svg>