<?xml version="1.0" encoding="UTF-8" standalone="no"?>
<svg width="71px" height="20px" viewBox="0 0 71 20" version="1.1" xmlns="http://www.w3.org/2000/svg" xmlns:xlink="http://www.w3.org/1999/xlink" xmlns:sketch="http://www.bohemiancoding.com/sketch/ns">
    <!-- Generator: Sketch 3.5.1 (25234) - http://www.bohemiancoding.com/sketch -->
    <title>green-alt</title>
    <desc>Created with Sketch.</desc>
    <defs>
        <rect id="path-1" x="0" y="0" width="71" height="20" rx="3"></rect>
        <rect id="path-3" x="0" y="0" width="23" height="20"></rect>
    </defs>
    <g id="Page-1" stroke="none" stroke-width="1" fill="none" fill-rule="evenodd" sketch:type="MSPage">
        <g id="github" sketch:type="MSLayerGroup">
            <g id="green-alt">
                <mask id="mask-2" sketch:name="Mask" fill="white">
                    <use xlink:href="#path-1"></use>
                </mask>
                <use id="Mask" fill="#63B362" sketch:type="MSShapeGroup" xlink:href="#path-1"></use>
                <g id="颜色">
                    <use fill="#444444" fill-rule="evenodd" sketch:type="MSShapeGroup" mask="url(#mask-2)" xlink:href="#path-3"></use>
                    <use fill="none" xlink:href="#path-3"></use>
                    <use fill="none" xlink:href="#path-3"></use>
                </g>
                <text id="Cancel" fill="#FFFFFF" sketch:type="MSTextLayer" mask="url(#mask-2)" font-family="PingFang SC" font-size="12" font-weight="526" sketch:alignment="middle">
                    <tspan x="27.1058507" y="14">Github</tspan>
                </text>
                <path d="M9.8625403,11.987005 C9.8625403,12.2088514 9.82948187,12.4361996 9.76336501,12.6690497 C9.69724815,12.9018997 9.58332372,13.1127425 9.42159171,13.3015782 C9.2598597,13.4904139 9.06778174,13.5846543 8.84535784,13.5842993 C8.62293394,13.5839444 8.43085599,13.489704 8.26912398,13.3015782 C8.10739197,13.1134524 7.99346753,12.9026096 7.92735067,12.6690497 C7.86123381,12.4354897 7.82817538,12.2081415 7.82817538,11.987005 C7.82817538,11.7658685 7.86123381,11.5385202 7.92735067,11.3049603 C7.99346753,11.0714004 8.10739197,10.8605575 8.26912398,10.6724317 C8.43085599,10.484306 8.62293394,10.3900656 8.84535784,10.3897106 C9.06778174,10.3893557 9.2598597,10.4835961 9.42159171,10.6724317 C9.58332372,10.8612674 9.69724815,11.0721103 9.76336501,11.3049603 C9.82948187,11.5378103 9.8625403,11.7651585 9.8625403,11.987005 L9.8625403,11.987005 Z M14.9484526,11.987005 C14.9484526,12.2088514 14.9153942,12.4361996 14.8492773,12.6690497 C14.7831605,12.9018997 14.669236,13.1127425 14.507504,13.3015782 C14.345772,13.4904139 14.1536941,13.5846543 13.9312702,13.5842993 C13.7088463,13.5839444 13.5167683,13.489704 13.3550363,13.3015782 C13.1933043,13.1134524 13.0793798,12.9026096 13.013263,12.6690497 C12.9471461,12.4354897 12.9140877,12.2081415 12.9140877,11.987005 C12.9140877,11.7658685 12.9471461,11.5385202 13.013263,11.3049603 C13.0793798,11.0714004 13.1933043,10.8605575 13.3550363,10.6724317 C13.5167683,10.484306 13.7088463,10.3900656 13.9312702,10.3897106 C14.1536941,10.3893557 14.345772,10.4835961 14.507504,10.6724317 C14.669236,10.8612674 14.7831605,11.0721103 14.8492773,11.3049603 C14.9153942,11.5378103 14.9484526,11.7651585 14.9484526,11.987005 L14.9484526,11.987005 Z M16.2199307,11.987005 C16.2199307,11.3214657 16.0371769,10.755846 15.6716693,10.290146 C15.3061618,9.82444592 14.8107939,9.59141843 14.1855658,9.59106347 C13.9682278,9.59106347 13.4516686,9.64927598 12.6358883,9.76570099 C12.2598698,9.82675313 11.8440117,9.8572792 11.388314,9.8572792 C10.9326163,9.8572792 10.5167582,9.82675313 10.1407397,9.76570099 C9.33547026,9.64927598 8.8189111,9.59106347 8.59106223,9.59106347 C7.96583407,9.59106347 7.47046621,9.82409097 7.10495865,10.290146 C6.73945109,10.756201 6.5566973,11.3218206 6.5566973,11.987005 C6.5566973,12.4750671 6.64146251,12.9006573 6.81099292,13.2637756 C6.98052333,13.6268938 7.19514883,13.9124546 7.45486942,14.1204578 C7.71459001,14.328461 8.03771497,14.4949346 8.4242443,14.6198785 C8.81077364,14.7448224 9.18170618,14.8266394 9.53704192,14.8653294 C9.89237766,14.9040194 10.2870445,14.9233644 10.7210423,14.9233644 L12.0560943,14.9233644 C12.4904312,14.9233644 12.885098,14.9040194 13.2400947,14.8653294 C13.5950913,14.8266394 13.9660239,14.7448224 14.3528923,14.6198785 C14.7397607,14.4949346 15.0628856,14.328461 15.3222672,14.1204578 C15.5816487,13.9124546 15.7962742,13.6268938 15.9661437,13.2637756 C16.1360131,12.9006573 16.2207783,12.4750671 16.2204393,11.987005 L16.2199307,11.987005 Z M18,10.5228185 C18,11.6707407 17.8384375,12.5886525 17.5153126,13.2765539 C17.3139104,13.703564 17.0345243,14.0723615 16.6771542,14.3829465 C16.3197841,14.6935315 15.9463086,14.9320608 15.5567277,15.0985343 C15.1671468,15.2650079 14.7168741,15.396696 14.2059094,15.4935985 C13.6949448,15.590501 13.2406033,15.6515531 12.8428849,15.6767549 C12.4451666,15.7019566 12.0028617,15.71438 11.5159704,15.7140251 C11.1026553,15.7140251 10.7264673,15.7056837 10.3874065,15.6890008 C10.0483456,15.672318 9.65757804,15.6377099 9.21510367,15.5851767 C8.7726293,15.5326434 8.36863833,15.4494067 8.00313076,15.3354663 C7.6376232,15.221526 7.27465859,15.0786569 6.91423694,14.906859 C6.55381529,14.7350611 6.23323328,14.5103751 5.95249092,14.2328008 C5.67174856,13.9552266 5.44389969,13.6363001 5.26894431,13.2760215 C4.94039437,12.5937993 4.7761194,11.6758875 4.7761194,10.5222861 C4.7761194,9.20789031 5.13637152,8.10966172 5.85687577,7.22760029 C5.7137921,6.77290384 5.64225027,6.30152453 5.64225027,5.81346237 C5.64225027,5.16993023 5.77736601,4.56544307 6.04759748,4.00000087 C6.61959308,4.00000087 7.12292887,4.10950427 7.55760485,4.32851107 C7.99228082,4.54751787 8.49290412,4.89004877 9.05947475,5.35610376 C9.83829746,5.16194376 10.6567903,5.06486376 11.5149532,5.06486376 C12.2988618,5.06486376 13.0405574,5.15360234 13.7400398,5.33107948 C14.2964387,4.87638303 14.7918065,4.54077374 15.2261434,4.32425162 C15.6604803,4.1077295 16.1611036,3.99964592 16.7280133,4.00000087 C16.9982448,4.56579802 17.1333605,5.17028519 17.1333605,5.81346237 C17.1333605,6.29584526 17.0618187,6.76172278 16.918735,7.21109492 C17.6392393,8.09848066 17.9994914,9.20221104 17.9994914,10.5222861 L18,10.5228185 Z" id="Shape" fill="#FFFFFF" sketch:type="MSShapeGroup" mask="url(#mask-2)"></path>
            </g>
        </g>
    </g>
</svg>