<svg xmlns="http://www.w3.org/2000/svg" xmlns:xlink="http://www.w3.org/1999/xlink" width="60" height="20" viewBox="0 0 60 20"><defs><rect id="b" width="60" height="20" x="0" y="0" rx="3"/><rect id="f" width="22" height="20" x="0" y="0"/><filter id="e" width="102.9%" height="111.8%" x="-1.4%" y="-2.9%" filterUnits="objectBoundingBox"><feOffset dy="1" in="SourceAlpha" result="shadowOffsetOuter1"/><feColorMatrix in="shadowOffsetOuter1" values="0 0 0 0 0.347417092 0 0 0 0 0.347417092 0 0 0 0 0.347417092 0 0 0 0.498161765 0"/></filter><text id="d" fill="#FFF" font-family="PingFangSC-Regular, PingFang SC" font-size="12" font-weight="normal">
            <tspan x="29" y="14">中文</tspan>
        </text><path id="a" d="M3,0 L57,0 C58.6568542,-4.4408921e-16 60,1.34314575 60,3 L60,17 C60,18.6568542 58.6568542,20 57,20 L3,20 C1.34314575,20 0,18.6568542 0,17 L0,3 C0,1.34314575 1.34314575,0 3,0 Z"/></defs><g fill="none"><use xlink:href="#a" fill="#4A4A4A" fill-rule="evenodd"/><mask id="c" fill="#fff"><use xlink:href="#b"/></mask><use xlink:href="#b" fill="#4A4A4A" fill-rule="evenodd"/><g fill="#FFF" mask="url(#c)"><use xlink:href="#d" filter="url(#e)"/><use xlink:href="#d"/></g><mask id="g" fill="#fff"><use xlink:href="#f"/></mask><use xlink:href="#f" fill="#F8E71C" fill-rule="evenodd"/><path fill="#D0021B" fill-rule="evenodd" d="M0,-3 L25,-3 L25,22 L0,22 L0,-3 L0,-3 Z M6.415625,10.3822591 L9.28333333,12.5666341 L8.20729167,9.14371746 L11.0114583,6.96038411 L7.48958333,6.96038411 L6.415625,3.60309246 L5.33958333,6.96038411 L1.81875,6.96038411 L4.62291667,9.14371746 L3.54583333,12.5666341 L6.415625,10.3822591 Z M18.0322917,12.4593425 L18.9760417,13.1770508 L18.621875,12.0520508 L19.5447917,11.3333008 L18.3854167,11.3333008 L18.0322917,10.2280925 L17.678125,11.3333008 L16.5197917,11.3333008 L17.4427083,12.0520508 L17.0885417,13.1770508 L18.0322917,12.4593425 Z M14.409375,15.8166341 L15.0260417,16.8312175 L15.109375,15.6530925 L16.23125,15.3249675 L15.153125,14.8999675 L15.2291667,13.7416341 L14.4947917,14.6405925 L13.4166667,14.2155925 L14.0114583,15.2218425 L13.2697917,16.1385091 L14.409375,15.8166341 Z M18.3791667,7.38225911 L19.5489583,7.58225911 L18.7145833,6.74788411 L19.2,5.68434246 L18.1708333,6.22080078 L17.346875,5.40413411 L17.5447917,6.54788411 L16.5177083,7.08225911 L17.6677083,7.29267578 L17.8729167,8.45517578 L18.3791667,7.38225911 Z M15.178125,3.88330078 L16.3385417,3.64892578 L15.2604167,3.17184246 L15.3302083,2.00517578 L14.5645833,2.87496746 L13.5010417,2.41142578 L14.0979167,3.40725911 L13.3333333,4.27600911 L14.48125,4.05725911 L15.09375,5.06663411 L15.178125,3.88330078 Z" mask="url(#g)"/></g></svg>