<svg xmlns="http://www.w3.org/2000/svg" xmlns:xlink="http://www.w3.org/1999/xlink" width="60" height="20" viewBox="0 0 60 20"><defs><rect id="b" width="60" height="20" x="0" y="0" rx="3"/><rect id="f" width="22" height="20" x="0" y="3"/><filter id="e" width="102.9%" height="111.8%" x="-1.4%" y="-2.9%" filterUnits="objectBoundingBox"><feOffset dy="1" in="SourceAlpha" result="shadowOffsetOuter1"/><feColorMatrix in="shadowOffsetOuter1" values="0 0 0 0 0.347417092 0 0 0 0 0.347417092 0 0 0 0 0.347417092 0 0 0 0.498161765 0"/></filter><text id="d" fill="#FFF" font-family="PingFangSC-Regular, PingFang SC" font-size="12" font-weight="normal">
            <tspan x="29" y="14">中文</tspan>
        </text><path id="a" d="M3,0 L57,0 C58.6568542,-4.4408921e-16 60,1.34314575 60,3 L60,17 C60,18.6568542 58.6568542,20 57,20 L3,20 C1.34314575,20 0,18.6568542 0,17 L0,3 C0,1.34314575 1.34314575,0 3,0 Z"/></defs><g fill="none"><use xlink:href="#a" fill="#4A4A4A" fill-rule="evenodd"/><mask id="c" fill="#fff"><use xlink:href="#b"/></mask><use xlink:href="#b" fill="#4A4A4A" fill-rule="evenodd"/><g fill="#FFF" mask="url(#c)"><use xlink:href="#d" filter="url(#e)"/><use xlink:href="#d"/></g><g fill-rule="evenodd" mask="url(#c)"><g transform="translate(0 -3)"><mask id="g" fill="#fff"><use xlink:href="#f"/></mask><use xlink:href="#f" fill="#F8E71C"/><path fill="#D0021B" d="M0,0 L25,0 L25,25 L0,25 L0,0 L0,0 Z M6.415625,13.3822591 L9.28333333,15.5666341 L8.20729167,12.1437175 L11.0114583,9.96038411 L7.48958333,9.96038411 L6.415625,6.60309246 L5.33958333,9.96038411 L1.81875,9.96038411 L4.62291667,12.1437175 L3.54583333,15.5666341 L6.415625,13.3822591 Z M18.0322917,15.4593425 L18.9760417,16.1770508 L18.621875,15.0520508 L19.5447917,14.3333008 L18.3854167,14.3333008 L18.0322917,13.2280925 L17.678125,14.3333008 L16.5197917,14.3333008 L17.4427083,15.0520508 L17.0885417,16.1770508 L18.0322917,15.4593425 Z M14.409375,18.8166341 L15.0260417,19.8312175 L15.109375,18.6530925 L16.23125,18.3249675 L15.153125,17.8999675 L15.2291667,16.7416341 L14.4947917,17.6405925 L13.4166667,17.2155925 L14.0114583,18.2218425 L13.2697917,19.1385091 L14.409375,18.8166341 Z M18.3791667,10.3822591 L19.5489583,10.5822591 L18.7145833,9.74788411 L19.2,8.68434246 L18.1708333,9.22080078 L17.346875,8.40413411 L17.5447917,9.54788411 L16.5177083,10.0822591 L17.6677083,10.2926758 L17.8729167,11.4551758 L18.3791667,10.3822591 Z M15.178125,6.88330078 L16.3385417,6.64892578 L15.2604167,6.17184246 L15.3302083,5.00517578 L14.5645833,5.87496746 L13.5010417,5.41142578 L14.0979167,6.40725911 L13.3333333,7.27600911 L14.48125,7.05725911 L15.09375,8.06663411 L15.178125,6.88330078 Z" mask="url(#g)"/></g></g></g></svg>