<svg xmlns="http://www.w3.org/2000/svg" xmlns:xlink="http://www.w3.org/1999/xlink" width="60" height="20" viewBox="0 0 60 20"><defs><path id="a" d="M3,0 L57,0 C58.6568542,-4.4408921e-16 60,1.34314575 60,3 L60,17 C60,18.6568542 58.6568542,20 57,20 L3,20 C1.34314575,20 0,18.6568542 0,17 L0,3 C0,1.34314575 1.34314575,0 3,0 Z"/><path id="d" d="M5.556,3.148 L5.556,5.308 L1.26,5.308 L1.26,10.948 L2.124,10.948 L2.124,10.192 L5.556,10.192 L5.556,14.284 L6.444,14.284 L6.444,10.192 L9.888,10.192 L9.888,10.948 L10.752,10.948 L10.752,5.308 L6.444,5.308 L6.444,3.148 L5.556,3.148 Z M2.124,9.352 L2.124,6.148 L5.556,6.148 L5.556,9.352 L2.124,9.352 Z M6.444,9.352 L6.444,6.148 L9.888,6.148 L9.888,9.352 L6.444,9.352 Z"/><path id="f" d="M12.768,5.224 L12.768,6.088 L14.616,6.088 C15.156,7.936 16.116,9.544 17.508,10.912 C16.212,12.088 14.556,12.94 12.54,13.48 L12.996,14.236 C15.036,13.648 16.74,12.724 18.108,11.464 C19.404,12.58 21.036,13.504 23.028,14.248 L23.496,13.528 C21.576,12.82 19.98,11.932 18.708,10.852 C19.884,9.58 20.772,7.984 21.36,6.088 L23.232,6.088 L23.232,5.224 L18.648,5.224 C18.264,4.396 17.856,3.688 17.4,3.112 L16.536,3.424 C17.016,3.988 17.412,4.588 17.736,5.224 L12.768,5.224 Z M15.468,6.088 L20.46,6.088 C19.956,7.744 19.176,9.148 18.108,10.312 C16.86,9.112 15.984,7.708 15.468,6.088 Z"/><filter id="e" width="110.5%" height="118%" x="-5.3%" y="-4.5%" filterUnits="objectBoundingBox"><feOffset dy="1" in="SourceAlpha" result="shadowOffsetOuter1"/><feColorMatrix in="shadowOffsetOuter1" values="0 0 0 0 0.347417092 0 0 0 0 0.347417092 0 0 0 0 0.347417092 0 0 0 0.498161765 0"/></filter><filter id="g" width="109.1%" height="118%" x="-4.6%" y="-4.5%" filterUnits="objectBoundingBox"><feOffset dy="1" in="SourceAlpha" result="shadowOffsetOuter1"/><feColorMatrix in="shadowOffsetOuter1" values="0 0 0 0 0.347417092 0 0 0 0 0.347417092 0 0 0 0 0.347417092 0 0 0 0.498161765 0"/></filter><rect id="b" width="60" height="20" x="0" y="0" rx="3"/><rect id="h" width="22" height="20" x="0" y="3"/></defs><g fill="none"><use xlink:href="#a" fill="#4A4A4A" fill-rule="evenodd"/><mask id="c" fill="#fff"><use xlink:href="#b"/></mask><use xlink:href="#b" fill="#4A4A4A" fill-rule="evenodd"/><g fill-rule="evenodd" mask="url(#c)"><g fill-rule="nonzero" transform="translate(29 1)"><use xlink:href="#d" fill="#000" filter="url(#e)"/><use xlink:href="#d" fill="#FFF"/><use xlink:href="#f" fill="#000" filter="url(#g)"/><use xlink:href="#f" fill="#FFF"/></g></g><g fill-rule="evenodd" mask="url(#c)"><g transform="translate(0 -3)"><mask id="i" fill="#fff"><use xlink:href="#h"/></mask><use xlink:href="#h" fill="#F8E71C"/><path fill="#D0021B" d="M0,0 L25,0 L25,25 L0,25 L0,0 L0,0 Z M6.415625,13.3822591 L9.28333333,15.5666341 L8.20729167,12.1437175 L11.0114583,9.96038411 L7.48958333,9.96038411 L6.415625,6.60309246 L5.33958333,9.96038411 L1.81875,9.96038411 L4.62291667,12.1437175 L3.54583333,15.5666341 L6.415625,13.3822591 Z M18.0322917,15.4593425 L18.9760417,16.1770508 L18.621875,15.0520508 L19.5447917,14.3333008 L18.3854167,14.3333008 L18.0322917,13.2280925 L17.678125,14.3333008 L16.5197917,14.3333008 L17.4427083,15.0520508 L17.0885417,16.1770508 L18.0322917,15.4593425 Z M14.409375,18.8166341 L15.0260417,19.8312175 L15.109375,18.6530925 L16.23125,18.3249675 L15.153125,17.8999675 L15.2291667,16.7416341 L14.4947917,17.6405925 L13.4166667,17.2155925 L14.0114583,18.2218425 L13.2697917,19.1385091 L14.409375,18.8166341 Z M18.3791667,10.3822591 L19.5489583,10.5822591 L18.7145833,9.74788411 L19.2,8.68434246 L18.1708333,9.22080078 L17.346875,8.40413411 L17.5447917,9.54788411 L16.5177083,10.0822591 L17.6677083,10.2926758 L17.8729167,11.4551758 L18.3791667,10.3822591 Z M15.178125,6.88330078 L16.3385417,6.64892578 L15.2604167,6.17184246 L15.3302083,5.00517578 L14.5645833,5.87496746 L13.5010417,5.41142578 L14.0979167,6.40725911 L13.3333333,7.27600911 L14.48125,7.05725911 L15.09375,8.06663411 L15.178125,6.88330078 Z" mask="url(#i)"/></g></g></g></svg>