<svg xmlns="http://www.w3.org/2000/svg" xmlns:xlink="http://www.w3.org/1999/xlink" width="71" height="20" viewBox="0 0 71 20"><defs><filter id="e" width="118.5%" height="123.5%" x="-9.2%" y="-5.9%" filterUnits="objectBoundingBox"><feOffset dy="1" in="SourceAlpha" result="shadowOffsetOuter1"/><feColorMatrix in="shadowOffsetOuter1" values="0 0 0 0 0.347417092 0 0 0 0 0.347417092 0 0 0 0 0.347417092 0 0 0 0.498161765 0"/></filter><filter id="g" width="120.4%" height="134.7%" x="-10.2%" y="-8.7%" filterUnits="objectBoundingBox"><feOffset dy="1" in="SourceAlpha" result="shadowOffsetOuter1"/><feColorMatrix in="shadowOffsetOuter1" values="0 0 0 0 0.347417092 0 0 0 0 0.347417092 0 0 0 0 0.347417092 0 0 0 0.498161765 0"/></filter><filter id="i" width="117%" height="123.1%" x="-8.5%" y="-5.8%" filterUnits="objectBoundingBox"><feOffset dy="1" in="SourceAlpha" result="shadowOffsetOuter1"/><feColorMatrix in="shadowOffsetOuter1" values="0 0 0 0 0.347417092 0 0 0 0 0.347417092 0 0 0 0 0.347417092 0 0 0 0.498161765 0"/></filter><filter id="k" width="181.6%" height="122%" x="-40.8%" y="-5.5%" filterUnits="objectBoundingBox"><feOffset dy="1" in="SourceAlpha" result="shadowOffsetOuter1"/><feColorMatrix in="shadowOffsetOuter1" values="0 0 0 0 0.347417092 0 0 0 0 0.347417092 0 0 0 0 0.347417092 0 0 0 0.498161765 0"/></filter><filter id="m" width="186.8%" height="123.9%" x="-43.4%" y="-6%" filterUnits="objectBoundingBox"><feOffset dy="1" in="SourceAlpha" result="shadowOffsetOuter1"/><feColorMatrix in="shadowOffsetOuter1" values="0 0 0 0 0.347417092 0 0 0 0 0.347417092 0 0 0 0 0.347417092 0 0 0 0.498161765 0"/></filter><filter id="o" width="123.1%" height="133.9%" x="-11.5%" y="-8.5%" filterUnits="objectBoundingBox"><feOffset dy="1" in="SourceAlpha" result="shadowOffsetOuter1"/><feColorMatrix in="shadowOffsetOuter1" values="0 0 0 0 0.347417092 0 0 0 0 0.347417092 0 0 0 0 0.347417092 0 0 0 0.498161765 0"/></filter><filter id="q" width="120.6%" height="122%" x="-10.3%" y="-5.5%" filterUnits="objectBoundingBox"><feOffset dy="1" in="SourceAlpha" result="shadowOffsetOuter1"/><feColorMatrix in="shadowOffsetOuter1" values="0 0 0 0 0.347417092 0 0 0 0 0.347417092 0 0 0 0 0.347417092 0 0 0 0.498161765 0"/></filter><path id="a" d="M3,0 L68,0 C69.6568542,-4.4408921e-16 71,1.34314575 71,3 L71,17 C71,18.6568542 69.6568542,20 68,20 L3,20 C1.34314575,20 0,18.6568542 0,17 L0,3 C0,1.34314575 1.34314575,0 3,0 Z"/><path id="f" d="M8.916,6.384 C8.932,6.536 8.944,6.704 8.952,6.888 C8.96,7.072 8.964,7.224 8.964,7.344 L8.988,7.344 C9.148,7.016 9.408,6.75 9.768,6.546 C10.128,6.342 10.508,6.24 10.908,6.24 C11.62,6.24 12.154,6.452 12.51,6.876 C12.866,7.3 13.044,7.86 13.044,8.556 L13.044,12 L12.228,12 L12.228,8.892 C12.228,8.596 12.204,8.328 12.156,8.088 C12.108,7.848 12.026,7.642 11.91,7.47 C11.794,7.298 11.638,7.164 11.442,7.068 C11.246,6.972 11,6.924 10.704,6.924 C10.488,6.924 10.278,6.968 10.074,7.056 C9.87,7.144 9.688,7.278 9.528,7.458 C9.368,7.638 9.24,7.866 9.144,8.142 C9.048,8.418 9,8.744 9,9.12 L9,12 L8.184,12 L8.184,7.62 C8.184,7.468 8.18,7.272 8.172,7.032 C8.164,6.792 8.152,6.576 8.136,6.384 L8.916,6.384 Z"/><path id="h" d="M15.456,13.128 C15.68,13.416 15.986,13.66 16.374,13.86 C16.762,14.06 17.172,14.16 17.604,14.16 C18.004,14.16 18.344,14.102 18.624,13.986 C18.904,13.87 19.13,13.712 19.302,13.512 C19.474,13.312 19.6,13.078 19.68,12.81 C19.76,12.542 19.8,12.256 19.8,11.952 L19.8,10.896 L19.776,10.896 C19.56,11.248 19.254,11.52 18.858,11.712 C18.462,11.904 18.06,12 17.652,12 C17.212,12 16.814,11.928 16.458,11.784 C16.102,11.64 15.798,11.442 15.546,11.19 C15.294,10.938 15.098,10.636 14.958,10.284 C14.818,9.932 14.748,9.552 14.748,9.144 C14.748,8.744 14.818,8.368 14.958,8.016 C15.098,7.664 15.294,7.356 15.546,7.092 C15.798,6.828 16.102,6.62 16.458,6.468 C16.814,6.316 17.212,6.24 17.652,6.24 C18.06,6.24 18.46,6.336 18.852,6.528 C19.244,6.72 19.552,6.996 19.776,7.356 L19.8,7.356 L19.8,6.384 L20.616,6.384 L20.616,11.952 C20.616,12.256 20.574,12.58 20.49,12.924 C20.406,13.268 20.25,13.584 20.022,13.872 C19.794,14.16 19.484,14.4 19.092,14.592 C18.7,14.784 18.192,14.88 17.568,14.88 C17.048,14.88 16.552,14.78 16.08,14.58 C15.608,14.38 15.204,14.104 14.868,13.752 L15.456,13.128 Z M15.612,9.12 C15.612,9.416 15.66,9.696 15.756,9.96 C15.852,10.224 15.99,10.456 16.17,10.656 C16.35,10.856 16.572,11.014 16.836,11.13 C17.1,11.246 17.4,11.304 17.736,11.304 C18.048,11.304 18.336,11.252 18.6,11.148 C18.864,11.044 19.092,10.896 19.284,10.704 C19.476,10.512 19.626,10.282 19.734,10.014 C19.842,9.746 19.896,9.448 19.896,9.12 C19.896,8.824 19.842,8.544 19.734,8.28 C19.626,8.016 19.476,7.784 19.284,7.584 C19.092,7.384 18.864,7.224 18.6,7.104 C18.336,6.984 18.048,6.924 17.736,6.924 C17.4,6.924 17.1,6.984 16.836,7.104 C16.572,7.224 16.35,7.384 16.17,7.584 C15.99,7.784 15.852,8.016 15.756,8.28 C15.66,8.544 15.612,8.824 15.612,9.12 Z"/><path id="l" d="M26.592,12 L25.776,12 L25.776,6.384 L26.592,6.384 L26.592,12 Z M26.76,4.224 C26.76,4.392 26.7,4.53 26.58,4.638 C26.46,4.746 26.328,4.8 26.184,4.8 C26.04,4.8 25.908,4.746 25.788,4.638 C25.668,4.53 25.608,4.392 25.608,4.224 C25.608,4.056 25.668,3.918 25.788,3.81 C25.908,3.702 26.04,3.648 26.184,3.648 C26.328,3.648 26.46,3.702 26.58,3.81 C26.7,3.918 26.76,4.056 26.76,4.224 Z"/><path id="n" d="M31.752,7.716 C31.632,7.484 31.45,7.294 31.206,7.146 C30.962,6.998 30.684,6.924 30.372,6.924 C30.228,6.924 30.084,6.94 29.94,6.972 C29.796,7.004 29.668,7.056 29.556,7.128 C29.444,7.2 29.354,7.292 29.286,7.404 C29.218,7.516 29.184,7.648 29.184,7.8 C29.184,8.064 29.292,8.266 29.508,8.406 C29.724,8.546 30.064,8.664 30.528,8.76 C31.192,8.896 31.682,9.094 31.998,9.354 C32.314,9.614 32.472,9.964 32.472,10.404 C32.472,10.724 32.41,10.994 32.286,11.214 C32.162,11.434 32,11.614 31.8,11.754 C31.6,11.894 31.374,11.994 31.122,12.054 C30.87,12.114 30.616,12.144 30.36,12.144 C29.936,12.144 29.524,12.056 29.124,11.88 C28.724,11.704 28.396,11.428 28.14,11.052 L28.788,10.572 C28.932,10.82 29.144,11.028 29.424,11.196 C29.704,11.364 30.012,11.448 30.348,11.448 C30.524,11.448 30.692,11.432 30.852,11.4 C31.012,11.368 31.152,11.312 31.272,11.232 C31.392,11.152 31.488,11.05 31.56,10.926 C31.632,10.802 31.668,10.648 31.668,10.464 C31.668,10.168 31.526,9.946 31.242,9.798 C30.958,9.65 30.548,9.512 30.012,9.384 C29.844,9.344 29.666,9.294 29.478,9.234 C29.29,9.174 29.116,9.086 28.956,8.97 C28.796,8.854 28.664,8.708 28.56,8.532 C28.456,8.356 28.404,8.136 28.404,7.872 C28.404,7.584 28.46,7.338 28.572,7.134 C28.684,6.93 28.834,6.762 29.022,6.63 C29.21,6.498 29.424,6.4 29.664,6.336 C29.904,6.272 30.152,6.24 30.408,6.24 C30.8,6.24 31.18,6.328 31.548,6.504 C31.916,6.68 32.192,6.928 32.376,7.248 L31.752,7.716 Z"/><path id="p" d="M34.956,7.308 C35.108,6.98 35.36,6.72 35.712,6.528 C36.064,6.336 36.44,6.24 36.84,6.24 C37.552,6.24 38.086,6.452 38.442,6.876 C38.798,7.3 38.976,7.86 38.976,8.556 L38.976,12 L38.16,12 L38.16,8.892 C38.16,8.596 38.136,8.328 38.088,8.088 C38.04,7.848 37.958,7.642 37.842,7.47 C37.726,7.298 37.57,7.164 37.374,7.068 C37.178,6.972 36.932,6.924 36.636,6.924 C36.42,6.924 36.21,6.968 36.006,7.056 C35.802,7.144 35.62,7.278 35.46,7.458 C35.3,7.638 35.172,7.866 35.076,8.142 C34.98,8.418 34.932,8.744 34.932,9.12 L34.932,12 L34.116,12 L34.116,2.928 L34.932,2.928 L34.932,7.308 L34.956,7.308 Z"/><path id="t" d="M5,0 L34,0 C36.7614237,-8.8817842e-16 39,2.23857625 39,5 L39,15 C39,17.7614237 36.7614237,20 34,20 L5,20 C2.23857625,20 0,17.7614237 0,15 L0,5 C0,2.23857625 2.23857625,0 5,0 Z"/><polygon id="d" points="1.992 11.232 6.54 11.232 6.54 12 1.128 12 1.128 3.504 6.396 3.504 6.396 4.272 1.992 4.272 1.992 7.2 6.108 7.2 6.108 7.956 1.992 7.956"/><polygon id="j" points="23.58 12 22.764 12 22.764 2.928 23.58 2.928"/><rect id="b" width="71" height="20" x="0" y="0" rx="3"/><rect id="r" width="22" height="20" x="6" y="0"/></defs><g fill="none"><use xlink:href="#a" fill="#1156A7" fill-rule="evenodd"/><mask id="c" fill="#fff"><use xlink:href="#b"/></mask><use xlink:href="#b" fill="#1156A7" fill-rule="evenodd"/><g fill-rule="evenodd" mask="url(#c)"><g fill-rule="nonzero" transform="translate(26 2)"><use xlink:href="#d" fill="#000" filter="url(#e)"/><use xlink:href="#d" fill="#FFF"/><use xlink:href="#f" fill="#000" filter="url(#g)"/><use xlink:href="#f" fill="#FFF"/><use xlink:href="#h" fill="#000" filter="url(#i)"/><use xlink:href="#h" fill="#FFF"/><use xlink:href="#j" fill="#000" filter="url(#k)"/><use xlink:href="#j" fill="#FFF"/><use xlink:href="#l" fill="#000" filter="url(#m)"/><use xlink:href="#l" fill="#FFF"/><use xlink:href="#n" fill="#000" filter="url(#o)"/><use xlink:href="#n" fill="#FFF"/><use xlink:href="#p" fill="#000" filter="url(#q)"/><use xlink:href="#p" fill="#FFF"/></g></g><g fill-rule="evenodd" mask="url(#c)"><g transform="translate(-6)"><mask id="s" fill="#fff"><use xlink:href="#r"/></mask><use xlink:href="#r" fill="#CB0000"/><g mask="url(#s)"><use xlink:href="#t" fill="#2F80B7"/><path fill="#BE3B31" fill-rule="nonzero" stroke="#EDF1F2" d="M35.4249464,0 L36.5363634,2.24489856 L35.4207855,2.80402995 L21.074,9.994 L35.4432902,17.19597 L36.5588681,17.7551014 L35.447451,20 L34.3318731,19.4408686 L18.279,11.395 L2.22699502,19.4408686 L1.11141708,20 L0,17.7551014 L1.11557794,17.19597 L15.484,9.994 L1.13808261,2.80402995 L0.0225046688,2.24489856 L1.13392175,0 L2.24949969,0.559131392 L18.279,8.593 L34.3093684,0.559131392 L35.4249464,0 Z"/><path fill="#BE3B31" stroke="#EDF1F2" d="M18.6268499,4.66683861e-05 L18.6260467,8.6060003 L34.2353349,8.60600971 L34.7353346,8.60601001 L34.7353346,11.60601 L34.2353343,11.6060097 L18.6260478,11.6060003 L18.6268499,19.9999522 L18.6268977,20.5 L15.6268977,20.5 L15.6268499,20.0000478 L15.6260478,11.6060003 L1.00000032,11.6060097 L0.5,11.60601 L0.5,8.60601003 L0.999999679,8.60600971 L15.6260467,8.60600033 L15.6268499,-4.66683861e-05 L15.6268966,-0.5 L18.6268966,-0.5 Z"/></g></g></g></g></svg>