<svg xmlns="http://www.w3.org/2000/svg" xmlns:xlink="http://www.w3.org/1999/xlink" width="71" height="20" viewBox="0 0 71 20"><defs><rect id="a" width="71" height="20" x="0" y="0" rx="3"/><rect id="e" width="22" height="20" x="0" y="0"/><rect id="g" width="39" height="20" x="0" y="0" rx="5"/><filter id="d" width="102%" height="112.5%" x="-1%" y="-3.1%" filterUnits="objectBoundingBox"><feOffset dy="1" in="SourceAlpha" result="shadowOffsetOuter1"/><feColorMatrix in="shadowOffsetOuter1" values="0 0 0 0 0.347417092 0 0 0 0 0.347417092 0 0 0 0 0.347417092 0 0 0 0.498161765 0"/></filter><text id="c" fill="#FFF" font-family="AvenirNext-Regular, Avenir Next" font-size="12" font-weight="normal">
            <tspan x="26" y="14">English</tspan>
        </text></defs><g fill="none" fill-rule="evenodd"><mask id="b" fill="#fff"><use xlink:href="#a"/></mask><use xlink:href="#a" fill="#1156A7"/><g fill="#FFF" mask="url(#b)"><use xlink:href="#c" filter="url(#d)"/><use xlink:href="#c"/></g><g mask="url(#b)"><mask id="f" fill="#fff"><use xlink:href="#e"/></mask><use xlink:href="#e" fill="#CB0000"/><g mask="url(#f)"><g transform="translate(-6)"><mask id="h" fill="#fff"><use xlink:href="#g"/></mask><use xlink:href="#g" fill="#2F80B7"/><path fill="#BE3B31" fill-rule="nonzero" stroke="#EDF1F2" d="M35.4249464,0 L36.5363634,2.24489856 L35.4207855,2.80402995 L21.074,9.994 L35.4432902,17.19597 L36.5588681,17.7551014 L35.447451,20 L34.3318731,19.4408686 L18.279,11.395 L2.22699502,19.4408686 L1.11141708,20 L0,17.7551014 L1.11557794,17.19597 L15.484,9.994 L1.13808261,2.80402995 L0.0225046688,2.24489856 L1.13392175,0 L2.24949969,0.559131392 L18.279,8.593 L34.3093684,0.559131392 L35.4249464,0 Z" mask="url(#h)"/><path fill="#BE3B31" stroke="#EDF1F2" d="M18.6268966,-0.5 L18.6260467,8.6060003 L34.7353346,8.60601001 L34.7353346,11.60601 L18.6260478,11.6060003 L18.6268977,20.5 L15.6268977,20.5 L15.6260478,11.6060003 L0.5,11.60601 L0.5,8.60601003 L15.6260467,8.60600032 L15.6268966,-0.5 L18.6268966,-0.5 Z" mask="url(#h)"/></g></g></g></g></svg>