<svg xmlns="http://www.w3.org/2000/svg" xmlns:xlink="http://www.w3.org/1999/xlink" width="60" height="20" viewBox="0 0 60 20"><defs><linearGradient id="c" x1="50%" x2="50%" y1="0%" y2="100%"><stop offset="0%" stop-color="#FFF"/><stop offset="100%" stop-color="#F0F0F0"/></linearGradient><linearGradient id="d" x1="50%" x2="50%" y1="0%" y2="100%"><stop offset="0%" stop-color="#D81441"/><stop offset="100%" stop-color="#BB0831"/></linearGradient><filter id="f" width="113.5%" height="119.1%" x="-6.7%" y="-4.8%" filterUnits="objectBoundingBox"><feOffset dy="1" in="SourceAlpha" result="shadowOffsetOuter1"/><feColorMatrix in="shadowOffsetOuter1" values="0 0 0 0 0.347417092 0 0 0 0 0.347417092 0 0 0 0 0.347417092 0 0 0 0.498161765 0"/></filter><filter id="h" width="109%" height="118.2%" x="-4.5%" y="-4.6%" filterUnits="objectBoundingBox"><feOffset dy="1" in="SourceAlpha" result="shadowOffsetOuter1"/><feColorMatrix in="shadowOffsetOuter1" values="0 0 0 0 0.347417092 0 0 0 0 0.347417092 0 0 0 0 0.347417092 0 0 0 0.498161765 0"/></filter><path id="e" d="M37.828,4.676 L30.412,4.676 L30.412,15.152 L31.276,15.152 L31.276,14.228 L36.952,14.228 L36.952,15.14 L37.828,15.14 L37.828,4.676 Z M31.276,13.388 L31.276,9.776 L36.952,9.776 L36.952,13.388 L31.276,13.388 Z M31.276,8.936 L31.276,5.516 L36.952,5.516 L36.952,8.936 L31.276,8.936 Z"/><path id="g" d="M40.864,6.404 L40.864,7.232 L44.788,7.232 C43.9,9.356 42.46,11.096 40.444,12.44 L40.936,13.244 C43.072,11.672 44.584,9.668 45.472,7.232 L45.556,7.232 L45.556,11.912 L43.084,11.912 L43.084,12.74 L45.556,12.74 L45.556,15.2 L46.444,15.2 L46.444,12.74 L49.012,12.74 L49.012,11.912 L46.444,11.912 L46.444,7.232 L46.54,7.232 C47.356,9.404 48.82,11.36 50.932,13.088 L51.52,12.344 C49.456,10.844 48.016,9.14 47.212,7.232 L51.124,7.232 L51.124,6.404 L46.444,6.404 L46.444,4.232 L45.556,4.232 L45.556,6.404 L40.864,6.404 Z"/><rect id="a" width="60" height="20" x="0" y="0" rx="3"/></defs><g fill="none"><mask id="b" fill="#fff"><use xlink:href="#a"/></mask><use xlink:href="#a" fill="#0047A0" fill-rule="evenodd"/><g fill-rule="evenodd" mask="url(#b)"><polygon fill="url(#c)" points="0 0 22 0 22 20 0 20"/><ellipse cx="10.5" cy="10" fill="url(#d)" rx="5.786" ry="6"/></g><g mask="url(#b)"><use xlink:href="#e" fill="#000" filter="url(#f)"/><use xlink:href="#e" fill="#FFF"/></g><g mask="url(#b)"><use xlink:href="#g" fill="#000" filter="url(#h)"/><use xlink:href="#g" fill="#FFF"/></g></g></svg>