<svg xmlns="http://www.w3.org/2000/svg" xmlns:xlink="http://www.w3.org/1999/xlink" width="66" height="20" viewBox="0 0 66 20"><defs><filter id="d" width="110.3%" height="119.7%" x="-5.2%" y="-4.9%" filterUnits="objectBoundingBox"><feOffset dy="1" in="SourceAlpha" result="shadowOffsetOuter1"/><feColorMatrix in="shadowOffsetOuter1" values="0 0 0 0 0.347417092 0 0 0 0 0.347417092 0 0 0 0 0.347417092 0 0 0 0.498161765 0"/></filter><filter id="f" width="110.6%" height="120%" x="-5.3%" y="-5%" filterUnits="objectBoundingBox"><feOffset dy="1" in="SourceAlpha" result="shadowOffsetOuter1"/><feColorMatrix in="shadowOffsetOuter1" values="0 0 0 0 0.347417092 0 0 0 0 0.347417092 0 0 0 0 0.347417092 0 0 0 0.498161765 0"/></filter><filter id="h" width="111.9%" height="119.1%" x="-5.9%" y="-4.8%" filterUnits="objectBoundingBox"><feOffset dy="1" in="SourceAlpha" result="shadowOffsetOuter1"/><feColorMatrix in="shadowOffsetOuter1" values="0 0 0 0 0.347417092 0 0 0 0 0.347417092 0 0 0 0 0.347417092 0 0 0 0.498161765 0"/></filter><path id="c" d="M10.116,5.672 L10.116,4.904 L8.52,4.904 L8.52,1.352 L7.608,1.352 L7.608,9.092 L8.52,9.092 L8.52,5.672 L10.116,5.672 Z M8.928,11.504 L8.928,10.736 L2.856,10.736 L2.856,8.816 L1.944,8.816 L1.944,11.504 L8.928,11.504 Z M4.932,2.528 L4.932,1.724 L1.908,1.724 L1.908,2.528 L4.932,2.528 Z M6.552,4.076 L6.552,3.32 L0.408,3.32 L0.408,4.076 L6.552,4.076 Z M5.952,6.476 C5.952,5.348 4.896,4.64 3.48,4.64 C2.076,4.64 1.02,5.348 1.02,6.476 C1.02,7.58 2.088,8.312 3.48,8.312 C4.896,8.312 5.952,7.58 5.952,6.476 Z M5.088,6.476 C5.088,7.16 4.332,7.58 3.48,7.58 C2.64,7.58 1.884,7.16 1.884,6.476 C1.884,5.78 2.64,5.36 3.48,5.36 C4.332,5.36 5.088,5.78 5.088,6.476 Z"/><path id="e" d="M11.844,8.372 L11.844,9.128 L18.18,9.128 L18.18,11.912 L19.104,11.912 L19.104,8.372 L16.02,8.372 L16.02,6.416 L20.304,6.416 L20.304,5.648 L18.744,5.648 C18.996,4.604 19.116,3.332 19.116,1.928 L11.988,1.928 L11.988,2.684 L18.18,2.684 C18.18,3.584 18.048,4.88 17.832,5.648 L10.836,5.648 L10.836,6.416 L15.108,6.416 L15.108,8.372 L11.844,8.372 Z"/><path id="g" d="M21.348,5.792 C21.348,8.024 22.308,9.5 24,9.5 C25.596,9.5 26.532,8.18 26.628,6.164 L28.872,6.164 L28.872,11.84 L29.784,11.84 L29.784,1.352 L28.872,1.352 L28.872,5.384 L26.628,5.384 C26.508,3.392 25.584,2.084 24,2.084 C22.308,2.084 21.348,3.572 21.348,5.792 Z M25.74,5.804 C25.74,7.508 25.032,8.708 24,8.708 C22.956,8.708 22.26,7.508 22.26,5.804 C22.26,4.076 22.956,2.876 24,2.876 C25.032,2.876 25.74,4.076 25.74,5.804 Z"/><rect id="a" width="66" height="20" x="0" y="0" rx="3"/><rect id="i" width="22" height="20" x="-2.034" y="-1.032"/></defs><g fill="none"><mask id="b" fill="#fff"><use xlink:href="#a"/></mask><use xlink:href="#a" fill="#0047A0" fill-rule="evenodd"/><g fill-rule="evenodd" mask="url(#b)"><g fill-rule="nonzero" transform="translate(29 3)"><use xlink:href="#c" fill="#000" filter="url(#d)"/><use xlink:href="#c" fill="#FFF"/><use xlink:href="#e" fill="#000" filter="url(#f)"/><use xlink:href="#e" fill="#FFF"/><use xlink:href="#g" fill="#000" filter="url(#h)"/><use xlink:href="#g" fill="#FFF"/></g></g><g fill-rule="evenodd" mask="url(#b)"><g transform="rotate(-56 10.954 7.572)"><mask id="j" fill="#fff"><use xlink:href="#i" transform="rotate(56 8.966 8.968)"/></mask><use xlink:href="#i" fill="#FFF" transform="rotate(56 8.966 8.968)"/><path fill="#000" fill-rule="nonzero" d="M6.9529345,0.010497535 L11.0559279,0.010497535 L11.0559279,0.702805227 L6.9529345,0.702805227 L6.9529345,0.010497535 Z M6.9529345,2.08742061 L11.0559279,2.08742061 L11.0559279,2.7797283 L6.9529345,2.7797283 L6.9529345,2.08742061 Z M8.81944835,1.74126677 L6.9529345,1.74126677 L6.9529345,1.04895907 L8.82372902,1.04895907 L8.81944835,1.74126677 Z M9.16255561,1.04895907 L11.0559279,1.04895907 L11.0559279,1.74126677 L9.16093493,1.74126677 L9.16255561,1.04895907 Z M6.94464004,16.2633149 L11.0510397,16.265612 L11.0514183,16.9573457 L6.94501865,16.9550486 L6.94464004,16.2633149 Z M9.18453307,15.2269678 L11.0504718,15.2280116 L11.0508504,15.9197452 L9.18704034,15.9187026 L9.18453307,15.2269678 Z M8.84492721,15.9185112 L6.94445073,15.9174481 L6.94407211,15.2257145 L8.8390026,15.2267745 L8.84492721,15.9185112 Z M8.81445073,17.9936945 L6.94558658,17.992649 L6.94520796,17.3009154 L8.81324959,17.3019604 L8.81445073,17.9936945 Z M9.15409024,17.302151 L11.0516076,17.3032125 L11.0519862,17.9949461 L9.1594362,17.9938874 L9.15409024,17.302151 Z" mask="url(#j)" transform="rotate(-67.4 9 9.003)"/><path fill="#000" d="M6.94793831,-1.26079702e-14 L11.0509317,-1.26079702e-14 L11.0509317,0.692307692 L6.94793831,0.692307692 L6.94793831,-1.26079702e-14 Z M6.94793831,1.03846154 L11.0509317,1.03846154 L11.0509317,1.73076923 L6.94793831,1.73076923 L6.94793831,1.03846154 Z M6.94793831,2.07692308 L11.0509317,2.07692308 L11.0509317,2.76923077 L6.94793831,2.76923077 L6.94793831,2.07692308 Z M8.82340798,18 L6.94793831,18 L6.94793831,17.3076923 L8.82522629,17.3076923 L8.82340798,18 Z M9.17302521,17.3076923 L11.0509317,17.3076923 L11.0509317,18 L9.17173001,18 L9.17302521,17.3076923 Z M9.17080338,16.2692308 L11.0509317,16.2692308 L11.0509317,16.9615385 L9.16940349,16.9615385 L9.17080338,16.2692308 Z M8.82768275,16.9615385 L6.94793831,16.9615385 L6.94793831,16.2692308 L8.82633915,16.2692308 L8.82768275,16.9615385 Z M9.1706641,15.2307692 L11.0509317,15.2307692 L11.0509317,15.9230769 L9.1707674,15.9230769 L9.1706641,15.2307692 Z M8.82857677,15.9230769 L6.94793831,15.9230769 L6.94793831,15.2307692 L8.82857677,15.2307692 L8.82857677,15.9230769 Z" mask="url(#j)"/><path fill="#CD2E3A" d="M8.999435,4.84615385 C11.2654557,4.84615385 13.1024284,6.70589412 13.1024284,9 C13.1024284,11.2941059 11.2654557,13.1538462 8.999435,13.1538462 L8.999435,4.84615385 Z" mask="url(#j)"/><path fill="#0047A0" d="M8.999435,4.84615385 C6.73341432,4.84615385 4.89644161,6.70589412 4.89644161,9 C4.89644161,11.2941059 6.73341432,13.1538462 8.999435,13.1538462 C10.1324453,13.1538462 11.0509317,12.223976 11.0509317,11.0769231 C11.0509317,9.92987013 10.1324453,9 8.999435,9 L8.999435,4.84615385 Z" mask="url(#j)"/><ellipse cx="8.999" cy="6.923" fill="#CD2E3A" mask="url(#j)" rx="2.051" ry="2.077"/></g></g></g></svg>