<?xml version="1.0" encoding="UTF-8"?>
<svg width="66px" height="20px" viewBox="0 0 66 20" version="1.1" xmlns="http://www.w3.org/2000/svg" xmlns:xlink="http://www.w3.org/1999/xlink">
    <title>korean</title>
    <defs>
        <rect id="path-1" x="0" y="0" width="66" height="20" rx="3"></rect>
        <text id="text-3" font-family="AppleSDGothicNeo-Regular, Apple SD Gothic Neo" font-size="12" font-weight="normal" fill="#FFFFFF">
            <tspan x="29" y="14">한국어</tspan>
        </text>
        <filter x="-1.4%" y="-3.3%" width="102.9%" height="113.3%" filterUnits="objectBoundingBox" id="filter-4">
            <feOffset dx="0" dy="1" in="SourceAlpha" result="shadowOffsetOuter1"></feOffset>
            <feColorMatrix values="0 0 0 0 0.347417092   0 0 0 0 0.347417092   0 0 0 0 0.347417092  0 0 0 0.498161765 0" type="matrix" in="shadowOffsetOuter1"></feColorMatrix>
        </filter>
        <rect id="path-5" x="-2.03353434" y="-1.03215083" width="22" height="20"></rect>
    </defs>
    <g id="korean" stroke="none" fill="none">
        <mask id="mask-2" fill="white">
            <use xlink:href="#path-1"></use>
        </mask>
        <use id="Mask" fill="#0047A0" fill-rule="evenodd" xlink:href="#path-1"></use>
        <g id="한국어" mask="url(#mask-2)" fill="#FFFFFF" fill-opacity="1">
            <use filter="url(#filter-4)" xlink:href="#text-3"></use>
            <use xlink:href="#text-3"></use>
        </g>
        <g id="Group" stroke-width="1" fill-rule="evenodd" mask="url(#mask-2)">
            <g transform="translate(11.0454, 9.9902) rotate(-56) translate(-11.0454, -9.9902)translate(2.0454, 0.9902)">
                <mask id="mask-6" fill="white">
                    <use xlink:href="#path-5" transform="translate(8.9665, 8.9678) rotate(56) translate(-8.9665, -8.9678)"></use>
                </mask>
                <use id="Mask" stroke="none" fill="#FFFFFF" fill-rule="evenodd" transform="translate(8.9665, 8.9678) rotate(56) translate(-8.9665, -8.9678)" xlink:href="#path-5"></use>
                <path d="M6.9529345,0.010497535 L11.0559279,0.010497535 L11.0559279,0.702805227 L6.9529345,0.702805227 L6.9529345,0.010497535 Z M6.9529345,2.08742061 L11.0559279,2.08742061 L11.0559279,2.7797283 L6.9529345,2.7797283 L6.9529345,2.08742061 Z M8.81944835,1.74126677 L6.9529345,1.74126677 L6.9529345,1.04895907 L8.82372902,1.04895907 L8.81944835,1.74126677 Z M9.16255561,1.04895907 L11.0559279,1.04895907 L11.0559279,1.74126677 L9.16093493,1.74126677 L9.16255561,1.04895907 Z M6.94464004,16.2633149 L11.0510397,16.265612 L11.0514183,16.9573457 L6.94501865,16.9550486 L6.94464004,16.2633149 Z M9.18453307,15.2269678 L11.0504718,15.2280116 L11.0508504,15.9197452 L9.18704034,15.9187026 L9.18453307,15.2269678 Z M8.84492721,15.9185112 L6.94445073,15.9174481 L6.94407211,15.2257145 L8.8390026,15.2267745 L8.84492721,15.9185112 Z M8.81445073,17.9936945 L6.94558658,17.992649 L6.94520796,17.3009154 L8.81324959,17.3019604 L8.81445073,17.9936945 Z M9.15409024,17.302151 L11.0516076,17.3032125 L11.0519862,17.9949461 L9.1594362,17.9938874 L9.15409024,17.302151 Z" id="Combined-Shape" stroke="none" fill="#000000" fill-rule="nonzero" mask="url(#mask-6)" transform="translate(9, 9.0027) rotate(-67.4) translate(-9, -9.0027)"></path>
                <path d="M6.94793831,-1.26600119e-14 L11.0509317,-1.26600119e-14 L11.0509317,0.692307692 L6.94793831,0.692307692 L6.94793831,-1.26600119e-14 Z M6.94793831,1.03846154 L11.0509317,1.03846154 L11.0509317,1.73076923 L6.94793831,1.73076923 L6.94793831,1.03846154 Z M6.94793831,2.07692308 L11.0509317,2.07692308 L11.0509317,2.76923077 L6.94793831,2.76923077 L6.94793831,2.07692308 Z M8.82340798,18 L6.94793831,18 L6.94793831,17.3076923 L8.82522629,17.3076923 L8.82340798,18 Z M9.17302521,17.3076923 L11.0509317,17.3076923 L11.0509317,18 L9.17173001,18 L9.17302521,17.3076923 Z M9.17080338,16.2692308 L11.0509317,16.2692308 L11.0509317,16.9615385 L9.16940349,16.9615385 L9.17080338,16.2692308 Z M8.82768275,16.9615385 L6.94793831,16.9615385 L6.94793831,16.2692308 L8.82633915,16.2692308 L8.82768275,16.9615385 Z M9.1706641,15.2307692 L11.0509317,15.2307692 L11.0509317,15.9230769 L9.1707674,15.9230769 L9.1706641,15.2307692 Z M8.82857677,15.9230769 L6.94793831,15.9230769 L6.94793831,15.2307692 L8.82857677,15.2307692 L8.82857677,15.9230769 Z" id="Combined-Shape" stroke="none" fill="#000000" fill-rule="evenodd" mask="url(#mask-6)"></path>
                <path d="M8.999435,4.84615385 C11.2654557,4.84615385 13.1024284,6.70589412 13.1024284,9 C13.1024284,11.2941059 11.2654557,13.1538462 8.999435,13.1538462 L8.999435,4.84615385 Z" id="Path" stroke="none" fill="#CD2E3A" fill-rule="evenodd" mask="url(#mask-6)"></path>
                <path d="M8.999435,4.84615385 C6.73341432,4.84615385 4.89644161,6.70589412 4.89644161,9 C4.89644161,11.2941059 6.73341432,13.1538462 8.999435,13.1538462 C10.1324453,13.1538462 11.0509317,12.223976 11.0509317,11.0769231 C11.0509317,9.92987013 10.1324453,9 8.999435,9 L8.999435,4.84615385 Z" id="Path" stroke="none" fill="#0047A0" fill-rule="evenodd" mask="url(#mask-6)"></path>
                <ellipse id="Oval" stroke="none" fill="#CD2E3A" fill-rule="evenodd" mask="url(#mask-6)" cx="8.999435" cy="6.92307692" rx="2.05149669" ry="2.07692308"></ellipse>
            </g>
        </g>
    </g>
</svg>