<svg xmlns="http://www.w3.org/2000/svg" width="119" height="40" viewBox="0 0 119 40"><g fill="none" fill-rule="evenodd" opacity=".9"><rect width="119" height="40" fill="#000" rx="3"/><path fill="#F90" d="M26.4,28.5 C16.7,33.1 10.7,29.3 6.9,26.9 C6.7,26.8 6.3,26.9 6.6,27.3 C7.9,28.9 12.1,32.6 17.6,32.6 C23.1,32.6 26.3,29.6 26.8,29.1 C27.1,28.6 26.9,28.3 26.4,28.5 L26.4,28.5 Z"/><path fill="#F90" d="M29.2,27 C28.9,26.7 27.6,26.6 26.8,26.7 C26,26.8 24.7,27.3 24.8,27.6 C24.9,27.7 25,27.7 25.5,27.6 C26.1,27.5 27.7,27.3 28,27.8 C28.3,28.2 27.5,30.3 27.3,30.7 C27.2,31 27.4,31.1 27.6,30.9 C27.9,30.7 28.4,30.1 28.7,29.3 C29.2,28.4 29.4,27.2 29.2,27 L29.2,27 Z"/><path fill="#FFF" d="M24,21.1 L24,13.4 C24,12.1 22.7,9.1 18.1,9.1 C13.5,9.1 11,12 11,14.6 L14.9,14.9 C14.9,14.9 15.8,12.3 17.7,12.3 C19.7,12.3 19.6,13.9 19.6,14.3 L19.6,16 C17,16.1 10.7,16.8 10.7,22.2 C10.7,27.9 17.9,28.2 20.3,24.5 C20.4,24.7 20.5,24.8 20.6,24.9 C21.5,25.8 22.6,26.9 22.6,26.9 L25.6,24 C25.7,23.9 24,22.6 24,21.1 L24,21.1 Z M19.6,20.5 C19.6,24.7 15.2,24.1 15.2,21.4 C15.2,18.9 17.8,18.4 19.6,18.4 L19.6,20.5 L19.6,20.5 Z"/><g transform="translate(37 8)"><path fill="#FFF" d="M2.9,0.1 L4.1,0.1 L6.6,6.5 L5.4,6.5 L4.8,4.8 L2.2,4.8 L1.6,6.5 L0.4,6.5 L2.9,0.1 L2.9,0.1 Z M2.5,3.9 L4.5,3.9 L3.5,1.1 L3.5,1.1 L2.5,3.9 L2.5,3.9 Z"/><polygon fill="#F90" points="6.4 1.8 7.5 1.8 8.7 5.4 8.7 5.4 9.8 1.8 10.9 1.8 9.2 6.5 8 6.5"/><path fill="#FFF" d="M15.4 5.5C15.4 5.6 15.4 5.7 15.4 5.8 15.4 5.9 15.5 5.9 15.6 5.9 15.6 5.9 15.7 5.9 15.7 5.9 15.7 5.9 15.8 5.9 15.8 5.9L15.8 6.6C15.8 6.6 15.7 6.6 15.7 6.6 15.6 6.6 15.6 6.6 15.5 6.6 15.4 6.6 15.4 6.6 15.3 6.6 15.2 6.6 15.2 6.6 15.1 6.6 14.9 6.6 14.7 6.6 14.6 6.5 14.5 6.4 14.4 6.3 14.3 6.1 14.1 6.3 13.8 6.4 13.5 6.5 13.2 6.6 12.9 6.6 12.6 6.6 12.4 6.6 12.2 6.6 12 6.5 11.8 6.4 11.6 6.4 11.5 6.2 11.4 6.1 11.2 5.9 11.1 5.8 11 5.6 11 5.4 11 5.2 11 4.9 11.1 4.7 11.2 4.5 11.3 4.3 11.4 4.2 11.6 4.1 11.8 4 12 3.9 12.2 3.9 12.4 3.9 12.6 3.8 12.8 3.8 13 3.8 13.2 3.7 13.3 3.7 13.5 3.7 13.6 3.7 13.7 3.6 13.8 3.5 13.9 3.5 14 3.4 14.1 3.3 14.1 3.2 14.1 3.1 14.1 3 14.1 2.9 14 2.8 13.9 2.7 13.9 2.7 13.8 2.6 13.7 2.5 13.6 2.5 13.5 2.5 13.4 2.5 13.3 2.5 13.2 2.5 12.9 2.5 12.7 2.6 12.5 2.7 12.3 2.8 12.2 3 12.2 3.3L11.2 3.3C11.2 3 11.3 2.8 11.4 2.6 11.5 2.4 11.7 2.2 11.9 2.1 12.1 2 12.3 1.9 12.6 1.8 12.8 1.8 13.1 1.7 13.4 1.7 13.6 1.7 13.9 1.7 14.1 1.8 14.3 1.8 14.5 1.9 14.7 2 14.9 2.1 15 2.2 15.1 2.4 15.2 2.6 15.3 2.8 15.3 3L15.3 5.5 15.4 5.5ZM14.4 4.2C14.2 4.3 14.1 4.4 13.8 4.4 13.6 4.4 13.3 4.5 13.1 4.5 13 4.5 12.9 4.5 12.8 4.6 12.7 4.6 12.6 4.7 12.5 4.7 12.4 4.8 12.4 4.8 12.3 4.9 12.3 5 12.2 5.1 12.2 5.2 12.2 5.3 12.2 5.4 12.3 5.5 12.4 5.6 12.4 5.6 12.5 5.7 12.6 5.8 12.7 5.8 12.8 5.8 12.9 5.8 13 5.8 13.1 5.8 13.2 5.8 13.3 5.8 13.5 5.8 13.6 5.8 13.8 5.7 13.9 5.6 14 5.5 14.1 5.4 14.2 5.3 14.3 5.2 14.3 5.1 14.3 4.9L14.3 4.2 14.4 4.2ZM16.6.1 17.6.1 17.6 1.1 16.6 1.1 16.6.1 16.6.1ZM16.6 1.8 17.6 1.8 17.6 6.5 16.6 6.5 16.6 1.8 16.6 1.8Z"/><polygon fill="#F90" points="18.8 .1 19.8 .1 19.8 6.5 18.8 6.5"/><path fill="#FFF" d="M24.8 5.5C24.8 5.6 24.8 5.7 24.8 5.8 24.8 5.9 24.9 5.9 25 5.9 25 5.9 25.1 5.9 25.1 5.9 25.1 5.9 25.2 5.9 25.2 5.9L25.2 6.6C25.2 6.6 25.1 6.6 25.1 6.6 25 6.6 25 6.6 24.9 6.6 24.8 6.6 24.8 6.6 24.7 6.6 24.6 6.6 24.6 6.6 24.5 6.6 24.3 6.6 24.1 6.6 24 6.5 23.9 6.4 23.8 6.3 23.7 6.1 23.5 6.3 23.2 6.4 22.9 6.5 22.6 6.6 22.3 6.6 22 6.6 21.8 6.6 21.6 6.6 21.4 6.5 21.2 6.4 21 6.4 20.9 6.2 20.8 6.1 20.6 5.9 20.5 5.8 20.4 5.6 20.4 5.4 20.4 5.2 20.4 4.9 20.5 4.7 20.6 4.5 20.7 4.3 20.8 4.2 21 4.1 21.2 4 21.4 3.9 21.6 3.9 21.8 3.9 22 3.8 22.2 3.8 22.4 3.8 22.6 3.7 22.7 3.7 22.9 3.7 23 3.7 23.1 3.6 23.2 3.5 23.3 3.5 23.4 3.4 23.5 3.3 23.5 3.2 23.5 3.1 23.5 3 23.5 2.9 23.4 2.8 23.3 2.7 23.3 2.7 23.2 2.6 23.1 2.5 23 2.5 22.9 2.5 22.8 2.5 22.7 2.5 22.6 2.5 22.3 2.5 22.1 2.6 21.9 2.7 21.7 2.8 21.6 3 21.6 3.3L20.6 3.3C20.6 3 20.7 2.8 20.8 2.6 20.9 2.4 21.1 2.2 21.3 2.1 21.5 2 21.7 1.9 22 1.8 22.2 1.8 22.5 1.7 22.8 1.7 23 1.7 23.3 1.7 23.5 1.8 23.7 1.8 23.9 1.9 24.1 2 24.3 2.1 24.4 2.2 24.5 2.4 24.6 2.6 24.7 2.8 24.7 3L24.7 5.5 24.8 5.5ZM23.8 4.2C23.6 4.3 23.5 4.4 23.2 4.4 23 4.4 22.7 4.5 22.5 4.5 22.4 4.5 22.3 4.5 22.2 4.6 22.1 4.6 22 4.7 21.9 4.7 21.8 4.8 21.8 4.8 21.7 4.9 21.7 5 21.6 5.1 21.6 5.2 21.6 5.3 21.6 5.4 21.7 5.5 21.8 5.6 21.8 5.6 21.9 5.7 22 5.8 22.1 5.8 22.2 5.8 22.3 5.8 22.4 5.8 22.5 5.8 22.6 5.8 22.7 5.8 22.9 5.8 23 5.8 23.2 5.7 23.3 5.6 23.4 5.5 23.5 5.4 23.6 5.3 23.7 5.2 23.7 5.1 23.7 4.9L23.7 4.2 23.8 4.2ZM25.9.1 26.9.1 26.9 2.5 26.9 2.5C27 2.4 27.1 2.3 27.2 2.2 27.3 2.1 27.4 2 27.5 2 27.6 1.9 27.8 1.9 27.9 1.9 28 1.9 28.2 1.9 28.3 1.9 28.7 1.9 29 2 29.3 2.1 29.6 2.2 29.8 2.4 30 2.6 30.2 2.8 30.3 3.1 30.4 3.4 30.5 3.7 30.5 4 30.5 4.4 30.5 4.7 30.5 5 30.4 5.3 30.3 5.6 30.2 5.9 30 6.1 29.8 6.3 29.6 6.5 29.4 6.6 29.1 6.7 28.9 6.8 28.5 6.8 28.3 6.8 28.2 6.8 28 6.8 27.8 6.8 27.7 6.7 27.5 6.7 27.4 6.6 27.2 6.6 27.1 6.5 27 6.4 26.9 6.3 26.8 6.1L26.8 6.1 26.8 6.7 25.8 6.7 25.8.1 25.9.1ZM29.5 4.2C29.5 4 29.5 3.8 29.4 3.6 29.3 3.4 29.3 3.2 29.2 3.1 29.1 2.9 29 2.8 28.8 2.7 28.6 2.6 28.5 2.6 28.2 2.6 27.8 2.6 27.4 2.8 27.2 3.1 27 3.4 26.9 3.8 26.9 4.3 26.9 4.5 26.9 4.8 27 5 27.1 5.2 27.1 5.4 27.3 5.5 27.4 5.6 27.5 5.8 27.7 5.8 27.9 5.8 28 5.9 28.3 5.9 28.5 5.9 28.7 5.9 28.9 5.8 29.1 5.7 29.2 5.6 29.3 5.4 29.4 5.2 29.5 5.1 29.5 4.9 29.5 4.6 29.5 4.4 29.5 4.2L29.5 4.2Z"/><polygon fill="#F90" points="31.4 .1 32.4 .1 32.4 6.5 31.4 6.5"/><path fill="#FFF" d="M34.4 4.4C34.4 4.6 34.4 4.8 34.5 4.9 34.6 5.1 34.6 5.2 34.7 5.3 34.8 5.4 34.9 5.5 35.1 5.6 35.3 5.7 35.4 5.7 35.7 5.7 36 5.7 36.2 5.6 36.4 5.5 36.6 5.4 36.7 5.2 36.8 4.9L37.8 4.9C37.7 5.2 37.7 5.4 37.5 5.6 37.4 5.8 37.2 6 37 6.1 36.8 6.2 36.6 6.3 36.4 6.4 36.2 6.5 35.9 6.5 35.7 6.5 35.3 6.5 35 6.4 34.7 6.3 34.4 6.2 34.2 6 34 5.8 33.8 5.6 33.7 5.3 33.6 5 33.5 4.7 33.5 4.4 33.5 4 33.5 3.7 33.6 3.4 33.7 3.1 33.8 2.8 34 2.5 34.2 2.3 34.4 2.1 34.6 1.9 34.9 1.8 35.2 1.7 35.5 1.6 35.8 1.6 36.2 1.6 36.5 1.7 36.8 1.8 37.1 2 37.3 2.2 37.5 2.4 37.7 2.7 37.8 2.9 37.9 3.3 38 3.6 38 4 38 4.3L34.4 4.3 34.4 4.4ZM36.8 3.8C36.8 3.6 36.8 3.5 36.7 3.3 36.6 3.2 36.6 3 36.5 2.9 36.4 2.8 36.3 2.7 36.1 2.6 36 2.5 35.8 2.5 35.6 2.5 35.4 2.5 35.3 2.5 35.1 2.6 35 2.7 34.8 2.7 34.7 2.9 34.6 3 34.5 3.1 34.4 3.3 34.3 3.5 34.3 3.6 34.3 3.8L36.8 3.8 36.8 3.8ZM43.2 6.6C42.8 6.6 42.5 6.5 42.2 6.4 41.9 6.3 41.7 6.1 41.5 5.9 41.3 5.7 41.1 5.4 41 5.1 40.9 4.8 40.8 4.5 40.8 4.1 40.8 3.7 40.9 3.4 41 3.1 41.1 2.8 41.3 2.5 41.5 2.3 41.7 2.1 41.9 1.9 42.2 1.8 42.5 1.7 42.8 1.6 43.2 1.6 43.6 1.6 43.9 1.7 44.2 1.8 44.5 1.9 44.7 2.1 44.9 2.3 45.1 2.5 45.3 2.8 45.4 3.1 45.5 3.4 45.6 3.7 45.6 4.1 45.6 4.5 45.5 4.8 45.4 5.1 45.3 5.4 45.1 5.7 44.9 5.9 44.7 6.1 44.5 6.3 44.2 6.4 43.9 6.6 43.6 6.6 43.2 6.6L43.2 6.6ZM43.2 5.8C43.4 5.8 43.6 5.8 43.8 5.7 44 5.6 44.1 5.5 44.2 5.3 44.3 5.1 44.4 5 44.4 4.8 44.5 4.6 44.5 4.4 44.5 4.2 44.5 4 44.5 3.8 44.4 3.6 44.3 3.4 44.3 3.2 44.2 3.1 44.1 2.9 44 2.8 43.8 2.7 43.6 2.6 43.4 2.6 43.2 2.6 43 2.6 42.8 2.6 42.6 2.7 42.4 2.8 42.3 2.9 42.2 3.1 42.1 3.3 42 3.4 42 3.6 41.9 3.8 41.9 4 41.9 4.2 41.9 4.4 41.9 4.6 42 4.8 42.1 5 42.1 5.2 42.2 5.3 42.3 5.5 42.4 5.6 42.6 5.7 42.8 5.8 43 5.8 43.2 5.8L43.2 5.8Z"/><path fill="#F90" d="M46.4,1.8 L47.4,1.8 L47.4,2.5 L47.4,2.5 C47.6,2.2 47.8,2 48,1.9 C48.2,1.8 48.5,1.7 48.8,1.7 C49.3,1.7 49.7,1.8 50,2.1 C50.3,2.4 50.4,2.8 50.4,3.3 L50.4,6.5 L49.4,6.5 L49.4,3.6 C49.4,3.2 49.3,3 49.2,2.8 C49.1,2.6 48.8,2.6 48.5,2.6 C48.3,2.6 48.2,2.6 48,2.7 C47.9,2.8 47.7,2.8 47.6,3 C47.5,3.1 47.4,3.2 47.4,3.4 C47.3,3.6 47.3,3.7 47.3,3.9 L47.3,6.6 L46.3,6.6 L46.3,1.8 L46.4,1.8 Z"/></g><path fill="#FFF" d="M64.3,23 L64.3,21.9 C64.3,21.7 64.4,21.6 64.6,21.6 L69.3,21.6 C69.5,21.6 69.6,21.7 69.6,21.9 L69.6,22.8 C69.6,23 69.5,23.1 69.2,23.5 L66.8,27 C67.7,27 68.7,27.1 69.5,27.6 C69.7,27.7 69.7,27.9 69.8,28 L69.8,29.1 C69.8,29.3 69.6,29.4 69.5,29.3 C68,28.5 66.1,28.5 64.5,29.3 C64.3,29.4 64.2,29.2 64.2,29.1 L64.2,28 C64.2,27.8 64.2,27.5 64.4,27.3 L67.2,23.2 L64.7,23.2 C64.4,23.2 64.3,23.1 64.3,23 L64.3,23 Z M47,29.6 L45.6,29.6 C45.5,29.6 45.4,29.5 45.3,29.4 L45.3,22 C45.3,21.9 45.4,21.7 45.6,21.7 L46.9,21.7 C47,21.7 47.2,21.8 47.2,21.9 L47.2,22.9 L47.2,22.9 C47.5,22 48.2,21.5 49.1,21.5 C50,21.5 50.6,21.9 51,22.9 C51.3,22 52.1,21.5 53,21.5 C53.6,21.5 54.3,21.7 54.7,22.3 C55.2,22.9 55.1,23.8 55.1,24.6 L55.1,29.3 C55.1,29.4 55,29.6 54.8,29.6 L53.4,29.6 C53.3,29.6 53.1,29.5 53.1,29.3 L53.1,25.4 C53.1,25.1 53.1,24.3 53.1,24 C53,23.5 52.7,23.4 52.3,23.4 C52,23.4 51.6,23.6 51.4,24 C51.2,24.4 51.3,25 51.3,25.4 L51.3,29.3 C51.3,29.4 51.2,29.6 51,29.6 L49.6,29.6 C49.5,29.6 49.3,29.5 49.3,29.3 L49.3,25.4 C49.3,24.6 49.4,23.4 48.4,23.4 C47.4,23.4 47.4,24.6 47.4,25.4 L47.4,29.3 C47.3,29.5 47.2,29.6 47,29.6 L47,29.6 Z M73.6,21.5 C75.7,21.5 76.9,23.3 76.9,25.7 C76.9,28 75.6,29.7 73.6,29.7 C71.5,29.7 70.4,27.9 70.4,25.6 C70.4,23.3 71.5,21.5 73.6,21.5 L73.6,21.5 Z M73.6,23 C72.5,23 72.5,24.4 72.5,25.3 C72.5,26.2 72.5,28.1 73.6,28.1 C74.7,28.1 74.8,26.5 74.8,25.6 C74.8,25 74.8,24.2 74.6,23.6 C74.4,23.2 74.1,23 73.6,23 L73.6,23 Z M79.7,29.6 L78.3,29.6 C78.2,29.6 78,29.5 78,29.3 L78,21.9 C78,21.8 78.1,21.7 78.3,21.7 L79.6,21.7 C79.7,21.7 79.8,21.8 79.9,21.9 L79.9,23 L79.9,23 C80.3,22 80.9,21.5 81.9,21.5 C82.5,21.5 83.2,21.7 83.6,22.4 C84,23 84,24 84,24.7 L84,29.3 C84,29.4 83.9,29.5 83.7,29.5 L82.3,29.5 C82.2,29.5 82.1,29.4 82,29.3 L82,25.3 C82,24.5 82.1,23.3 81.1,23.3 C80.8,23.3 80.4,23.5 80.3,23.9 C80.1,24.4 80.1,24.8 80.1,25.3 L80.1,29.3 C80,29.5 79.8,29.6 79.7,29.6 L79.7,29.6 Z M85.5,29.7 C85.8865993,29.7 86.2,29.3865993 86.2,29 C86.2,28.6134007 85.8865993,28.3 85.5,28.3 C85.1134007,28.3 84.8,28.6134007 84.8,29 C84.8,29.3865993 85.1134007,29.7 85.5,29.7 Z M100,29.6 C99.9,29.6 99.7,29.5 99.7,29.3 L99.7,21.9 C99.7,21.8 99.8,21.7 100,21.7 L100.5,21.7 C100.6,21.7 100.8,21.8 100.8,21.9 L100.8,23 C101.2,22.1 101.9,21.5 102.8,21.5 L102.9,21.5 L103,21.5 C103.9,21.5 104.6,22.2 104.9,23.2 C105.3,22.2 106,21.5 107,21.5 L107.1,21.5 L107.2,21.5 C107.9,21.5 108.6,22 108.9,22.6 C109.2,23.3 109.2,24.1 109.2,24.9 L109.2,29.3 C109.2,29.4 109.1,29.6 108.9,29.6 L108.3,29.6 C108.2,29.6 108.1,29.5 108,29.4 L108,24.9 C108,24.4 108,23.8 107.8,23.3 C107.6,22.8 107.2,22.5 106.7,22.5 C106.2,22.5 105.7,22.9 105.4,23.4 C105,24 105,24.6 105,25.4 L105,29.4 C105,29.5 104.9,29.6 104.7,29.6 L104.1,29.6 C104,29.6 103.8,29.5 103.8,29.3 L103.8,24.6 C103.8,24.2 103.8,23.7 103.6,23.3 C103.4,22.9 103,22.6 102.5,22.5 C102,22.5 101.6,22.9 101.3,23.3 C101,23.8 100.9,24.4 100.9,25.1 L100.9,29.4 C100.9,29.5 100.8,29.7 100.6,29.7 L100,29.7 L100,29.6 Z M95.7,29.7 C93.7,29.7 92.7,27.6 92.7,25.5 C92.7,23.3 93.8,21.4 95.8,21.4 L95.9,21.4 L96,21.4 C98,21.4 99,23.4 99,25.5 C99,27.7 97.9,29.6 95.8,29.6 L95.7,29.6 L95.7,29.7 L95.7,29.7 Z M95.8,28.7 C96.5,28.7 97,28.3 97.3,27.6 C97.6,27 97.6,26.3 97.6,25.6 C97.6,24.9 97.5,24.1 97.2,23.4 C96.9,22.8 96.3,22.5 95.8,22.5 C95.2,22.5 94.6,23 94.3,23.6 C94,24.2 94,24.9 94,25.6 C94,26.3 94.1,27.1 94.4,27.8 C94.7,28.3 95.2,28.7 95.8,28.7 L95.8,28.7 Z M89.3,28.7 C90.2,28.7 90.7,27.9 90.9,27 C90.9,26.9 91,26.8 91.2,26.8 L91.8,26.8 C91.9,26.8 92.1,26.9 92.1,27 C91.8,28.6 90.8,29.7 89.5,29.7 L89.4,29.7 L89.3,29.7 C87.3,29.7 86.4,27.7 86.4,25.6 C86.4,23.6 87.3,21.5 89.3,21.5 L89.4,21.5 L89.5,21.5 C90.9,21.5 91.9,22.6 92.1,24.2 C92.1,24.3 92,24.4 91.9,24.4 L91.3,24.4 C91.2,24.4 91.1,24.3 91.1,24.1 C90.9,23.2 90.4,22.5 89.6,22.4 C88.2,22.4 87.8,24.1 87.8,25.4 C87.6,26.8 87.9,28.6 89.3,28.7 L89.3,28.7 Z M60.5,26 C60.5,26.6 60.5,27 60.2,27.5 C60,27.9 59.6,28.2 59.2,28.2 C58.6,28.2 58.3,27.8 58.3,27.2 C58.3,26 59.4,25.8 60.4,25.8 L60.4,26 L60.5,26 Z M62,29.6 C61.9,29.7 61.8,29.7 61.7,29.6 C61.2,29.2 61.1,29 60.9,28.6 C60.1,29.4 59.6,29.6 58.5,29.6 C57.3,29.6 56.3,28.9 56.3,27.4 C56.3,26.2 56.9,25.4 57.8,25 C58.6,24.7 59.7,24.6 60.5,24.5 L60.5,24.3 C60.5,24 60.5,23.6 60.3,23.3 C60.1,23 59.8,22.9 59.5,22.9 C59,22.9 58.5,23.2 58.3,23.8 C58.3,23.9 58.2,24.1 58.1,24.1 L56.7,23.9 C56.6,23.9 56.5,23.8 56.5,23.6 C56.8,21.9 58.3,21.4 59.7,21.4 C60.4,21.4 61.3,21.6 61.9,22.1 C62.6,22.8 62.5,23.6 62.5,24.6 L62.5,26.8 C62.5,27.5 62.8,27.8 63,28.1 C63.1,28.2 63.1,28.4 63,28.5 C62.8,28.8 62.3,29.3 62,29.6 L62,29.6 L62,29.6 Z M41.7,26 C41.7,26.6 41.7,27 41.4,27.5 C41.2,27.9 40.8,28.2 40.4,28.2 C39.8,28.2 39.5,27.8 39.5,27.2 C39.5,26 40.6,25.8 41.6,25.8 L41.6,26 L41.7,26 Z M43.1,29.6 C43,29.7 42.9,29.7 42.8,29.6 C42.3,29.2 42.2,29 42,28.6 C41.2,29.4 40.7,29.6 39.6,29.6 C38.4,29.6 37.4,28.9 37.4,27.4 C37.4,26.2 38,25.4 38.9,25 C39.7,24.7 40.8,24.6 41.6,24.5 L41.6,24.3 C41.6,24 41.6,23.6 41.4,23.3 C41.2,23 40.9,22.9 40.6,22.9 C40.1,22.9 39.6,23.2 39.4,23.8 C39.4,23.9 39.3,24.1 39.2,24.1 L37.8,23.9 C37.7,23.9 37.6,23.8 37.6,23.6 C37.9,21.9 39.4,21.4 40.8,21.4 C41.5,21.4 42.4,21.6 43,22.1 C43.7,22.8 43.6,23.6 43.6,24.6 L43.6,26.8 C43.6,27.5 43.9,27.8 44.1,28.1 C44.2,28.2 44.2,28.4 44.1,28.5 C43.9,28.8 43.4,29.3 43.1,29.6 L43.1,29.6 L43.1,29.6 Z"/></g></svg>