<svg xmlns="http://www.w3.org/2000/svg" width="108" height="40" viewBox="0 0 108 40"><g fill="none" fill-rule="evenodd" opacity=".9"><path fill="#000" stroke="#FFF" stroke-opacity=".334" d="M105,0.5 C105.690356,0.5 106.315356,0.779822031 106.767767,1.23223305 C107.220178,1.68464406 107.5,2.30964406 107.5,3 L107.5,37 C107.5,37.6903559 107.220178,38.3153559 106.767767,38.767767 C106.315356,39.220178 105.690356,39.5 105,39.5 L3,39.5 C2.30964406,39.5 1.68464406,39.220178 1.23223305,38.767767 C0.779822031,38.3153559 0.5,37.6903559 0.5,37 L0.5,3 C0.5,2.30964406 0.779822031,1.68464406 1.23223305,1.23223305 C1.68464406,0.779822031 2.30964406,0.5 3,0.5 Z"/><path fill="#FFF" d="M23.3307874,12 C21.5245477,12 20.0035038,13.1347903 19.0528513,13.1347903 C17.9120684,13.1347903 16.8663507,12.0945659 15.0125784,12.0945659 C11.4476317,12.0945659 8.5006091,15.4516538 9.07100057,20.55821 C9.59385942,25.144654 12.8736104,30.3457761 15.2977741,30.3457761 C16.8188181,30.3457761 17.4842748,29.3528346 19.3380471,29.3528346 C21.1918194,29.3528346 21.7146782,30.2984932 23.3307874,30.2984932 C26.0401469,30.2984932 28.2741801,25.5229175 28.7495064,23.9152979 C24.9944292,22.4022442 24.0437767,16.9647075 28.1315823,14.4114293 C28.1315818,14.4114297 26.5630057,12 23.3307874,12 Z M19.0221222,11.5793855 C21.8265469,11.6739514 24.1556455,8.83697569 23.8704497,6 C21.2561555,6.18913171 18.7369265,8.74240983 19.0221222,11.5793855 Z"/><text fill="#FFF" font-family="SFProDisplay-Semibold, SF Pro Display" font-size="14" font-weight="500">
                    <tspan x="33" y="25">Download</tspan>
                </text></g></svg>