<svg xmlns="http://www.w3.org/2000/svg" xmlns:xlink="http://www.w3.org/1999/xlink" width="108" height="40" viewBox="0 0 108 40">
  <defs>
    <rect id="macos-a" width="108" height="40" rx="3"/>
  </defs>
  <g fill="none" fill-rule="evenodd" opacity=".9">
    <mask id="macos-b" fill="#fff">
      <use xlink:href="#macos-a"/>
    </mask>
    <use fill="#000" xlink:href="#macos-a"/>
    <path fill="#FFF" d="M23.3307874 12C21.5245477 12 20.0035038 13.1347903 19.0528513 13.1347903 17.9120684 13.1347903 16.8663507 12.0945659 15.0125784 12.0945659 11.4476317 12.0945659 8.5006091 15.4516538 9.07100057 20.55821 9.59385942 25.144654 12.8736104 30.3457761 15.2977741 30.3457761 16.8188181 30.3457761 17.4842748 29.3528346 19.3380471 29.3528346 21.1918194 29.3528346 21.7146782 30.2984932 23.3307874 30.2984932 26.0401469 30.2984932 28.2741801 25.5229175 28.7495064 23.9152979 24.9944292 22.4022442 24.0437767 16.9647075 28.1315823 14.4114293 28.1315818 14.4114297 26.5630057 12 23.3307874 12zM23.8704497 6C21.2561555 6.18913171 18.7369265 8.74240983 19.0221222 11.5793855 21.8265469 11.6739514 24.1556455 8.83697569 23.8704497 6L23.8704497 6zM41.051 7C41.87 7 42.518 7.18 42.995 7.558 43.454 7.918 43.742 8.449 43.859 9.169L42.869 9.169C42.779 8.737 42.581 8.413 42.275 8.197 41.969 7.972 41.555 7.864 41.051 7.864 40.43 7.864 39.935 8.071 39.566 8.503 39.17 8.953 38.981 9.574 38.981 10.366 38.981 11.14 39.152 11.734 39.512 12.148 39.89 12.598 40.484 12.823 41.285 12.823 41.6 12.823 41.897 12.778 42.176 12.706 42.446 12.634 42.68 12.526 42.896 12.391L42.896 10.996 41.123 10.996 41.123 10.159 43.877 10.159 43.877 12.859C43.544 13.12 43.157 13.318 42.716 13.462 42.248 13.606 41.735 13.678 41.177 13.678 40.151 13.678 39.359 13.354 38.792 12.706 38.261 12.103 38 11.32 38 10.366 38 9.403 38.261 8.611 38.792 7.99 39.35 7.324 40.106 7 41.051 7zM46.787 8.773C47.543 8.773 48.128 9.025 48.524 9.547 48.884 10.015 49.073 10.663 49.082 11.491L45.554 11.491C45.59 11.941 45.707 12.292 45.923 12.535 46.139 12.769 46.436 12.895 46.814 12.895 47.147 12.895 47.417 12.814 47.624 12.661 47.786 12.535 47.921 12.328 48.047 12.058L49.001 12.058C48.893 12.49 48.686 12.859 48.362 13.147 47.957 13.498 47.444 13.678 46.823 13.678 46.139 13.678 45.59 13.462 45.194 13.039 44.762 12.589 44.546 11.986 44.546 11.221 44.546 10.528 44.744 9.952 45.158 9.484 45.554 9.007 46.103 8.773 46.787 8.773zM46.814 9.556C46.454 9.556 46.175 9.655 45.959 9.871 45.761 10.078 45.626 10.375 45.572 10.771L48.083 10.771C47.993 9.961 47.57 9.556 46.814 9.556zM51.155 7.396L51.155 8.899 52.217 8.899 52.217 9.691 51.155 9.691 51.155 12.391C51.155 12.517 51.182 12.607 51.236 12.67 51.29 12.724 51.371 12.76 51.488 12.76L52.1 12.76 52.1 13.552 51.335 13.552C50.939 13.552 50.642 13.444 50.462 13.237 50.282 13.039 50.201 12.76 50.201 12.391L50.201 9.691 49.337 9.691 49.337 8.899 50.201 8.899 50.201 7.792 51.155 7.396zM56.3540001 7.036C56.5430001 7.036 56.7050001 7.09 56.8310001 7.216 56.9570001 7.333 57.0200001 7.486 57.0200001 7.675 57.0200001 7.864 56.9480001 8.017 56.8220001 8.143 56.6960001 8.26 56.5340001 8.323 56.3540001 8.323 56.1650001 8.323 56.0120001 8.26 55.8860001 8.143 55.7600001 8.017 55.6970001 7.855 55.6970001 7.675 55.6970001 7.486 55.7600001 7.333 55.8860001 7.216 56.0120001 7.09 56.1650001 7.036 56.3540001 7.036zM55.8770001 8.899L56.8310001 8.899 56.8310001 13.552 55.8770001 13.552 55.8770001 8.899zM59.3810001 7.396L59.3810001 8.899 60.4430001 8.899 60.4430001 9.691 59.3810001 9.691 59.3810001 12.391C59.3810001 12.517 59.4080001 12.607 59.4620001 12.67 59.5160001 12.724 59.5970001 12.76 59.7140001 12.76L60.3260001 12.76 60.3260001 13.552 59.5610001 13.552C59.1650001 13.552 58.8680001 13.444 58.6880001 13.237 58.5080001 13.039 58.4270001 12.76 58.4270001 12.391L58.4270001 9.691 57.5630001 9.691 57.5630001 8.899 58.4270001 8.899 58.4270001 7.792 59.3810001 7.396zM66.0470002 8.773C66.7490002 8.773 67.3160002 9.007 67.7390002 9.475 68.1530002 9.934 68.3690002 10.519 68.3690002 11.23 68.3690002 11.932 68.1620002 12.517 67.7480002 12.967 67.3160002 13.435 66.7490002 13.678 66.0470002 13.678 65.3450002 13.678 64.7780002 13.435 64.3460002 12.967 63.9320002 12.517 63.7250002 11.932 63.7250002 11.23 63.7250002 10.519 63.9320002 9.934 64.3550002 9.475 64.7780002 9.007 65.3450002 8.773 66.0470002 8.773zM66.0470002 9.556C65.6060002 9.556 65.2640002 9.727 65.0210002 10.078 64.8050002 10.375 64.7060002 10.762 64.7060002 11.23 64.7060002 11.698 64.8050002 12.076 65.0210002 12.373 65.2640002 12.715 65.6060002 12.895 66.0470002 12.895 66.4880002 12.895 66.8300002 12.715 67.0820002 12.373 67.2980002 12.067 67.4060002 11.689 67.4060002 11.23 67.4060002 10.762 67.2980002 10.375 67.0820002 10.078 66.8300002 9.727 66.4880002 9.556 66.0470002 9.556zM71.4860002 8.773C72.6380002 8.773 73.2230002 9.403 73.2230002 10.681L73.2230002 13.552 72.2690002 13.552 72.2690002 10.762C72.2690002 9.97 71.9000002 9.574 71.1800002 9.574 70.9100002 9.574 70.6670002 9.664 70.4690002 9.862 70.2530002 10.078 70.1180002 10.375 70.0820002 10.753L70.0820002 13.552 69.1280002 13.552 69.1280002 8.899 70.0820002 8.899 70.0820002 9.475C70.2620002 9.241 70.4690002 9.07 70.7030002 8.953 70.9370002 8.827 71.1980002 8.773 71.4860002 8.773zM42.464 19.546C43.832 19.546 44.822 20.068 45.398 21.112 45.812 20.536 46.262 20.122 46.73 19.888 47.162 19.654 47.684 19.546 48.314 19.546 49.268 19.546 50.06 19.852 50.69 20.5 51.302 21.13 51.626 21.958 51.626 23.002L51.626 29.104 49.718 29.104 49.718 23.326C49.718 22.57 49.556 22.012 49.232 21.67 48.908 21.31 48.368 21.148 47.648 21.148 47.108 21.148 46.676 21.346 46.316 21.742 45.956 22.138 45.776 22.696 45.776 23.38L45.776 29.104 43.868 29.104 43.868 23.344C43.868 21.868 43.22 21.148 41.96 21.148 41.348 21.148 40.844 21.382 40.484 21.85 40.088 22.3 39.908 22.858 39.908 23.506L39.908 29.104 38 29.104 38 19.798 39.908 19.798 39.908 20.824C40.664 19.96 41.528 19.546 42.464 19.546zM57.68 19.546C59.048 19.546 60.056 19.888 60.704 20.572 61.262 21.166 61.55 22.03 61.55 23.164L61.55 29.104 59.786 29.104 59.786 27.79C59.426 28.258 58.976 28.636 58.436 28.906 57.824 29.194 57.104 29.356 56.276 29.356 55.304 29.356 54.548 29.104 54.008 28.618 53.414 28.132 53.126 27.502 53.126 26.728 53.126 25.684 53.54 24.874 54.368 24.316 55.124 23.776 56.204 23.506 57.572 23.47L59.66 23.416 59.66 23.038C59.66 21.742 58.958 21.094 57.554 21.094 56.96 21.094 56.474 21.202 56.114 21.418 55.682 21.67 55.412 22.048 55.304 22.57L53.414 22.408C53.612 21.4 54.116 20.644 54.908 20.176 55.592 19.744 56.528 19.546 57.68 19.546zM59.66 24.802L57.698 24.856C55.952 24.892 55.088 25.504 55.088 26.656 55.088 27.016 55.232 27.304 55.538 27.538 55.826 27.772 56.222 27.898 56.708 27.898 57.518 27.898 58.202 27.646 58.778 27.16 59.354 26.674 59.66 26.062 59.66 25.342L59.66 24.802zM67.568 19.546C68.756 19.546 69.71 19.816 70.43 20.356 71.15 20.932 71.618 21.796 71.798 22.948L69.908 22.948C69.782 22.318 69.53 21.85 69.134 21.562 68.738 21.256 68.216 21.112 67.568 21.112 66.776 21.112 66.164 21.4 65.714 21.994 65.246 22.57 65.03 23.398 65.03 24.442 65.03 25.486 65.246 26.314 65.696 26.908 66.11 27.484 66.722 27.79 67.55 27.79 68.972 27.79 69.764 27.07 69.944 25.666L71.834 25.666C71.618 26.908 71.132 27.844 70.412 28.456 69.692 29.05 68.72 29.356 67.532 29.356 66.11 29.356 65.012 28.888 64.22 27.952 63.446 27.052 63.068 25.9 63.068 24.46 63.068 23.056 63.446 21.904 64.202 21.004 65.012 20.032 66.128 19.546 67.568 19.546zM79.04 16C80.984 16 82.532 16.63 83.666 17.908 84.746 19.114 85.286 20.716 85.286 22.696 85.286 24.658 84.746 26.242 83.666 27.466 82.532 28.726 80.984 29.356 79.04 29.356 77.078 29.356 75.53 28.708 74.414 27.448 73.334 26.224 72.812 24.64 72.812 22.696 72.812 20.734 73.334 19.15 74.414 17.926 75.53 16.63 77.078 16 79.04 16zM79.04 17.728C77.672 17.728 76.61 18.178 75.854 19.114 75.134 19.996 74.774 21.184 74.774 22.696 74.774 24.19 75.134 25.378 75.854 26.26 76.61 27.16 77.672 27.628 79.04 27.628 80.408 27.628 81.47 27.178 82.208 26.296 82.928 25.432 83.306 24.226 83.306 22.696 83.306 21.148 82.928 19.942 82.208 19.06 81.47 18.16 80.408 17.728 79.04 17.728zM91.466 16C92.96 16 94.13 16.306 94.976 16.954 95.876 17.62 96.38 18.646 96.506 20.05L94.562 20.05C94.382 19.222 94.058 18.61 93.554 18.25 93.05 17.872 92.33 17.692 91.358 17.692 90.512 17.692 89.864 17.818 89.414 18.07 88.856 18.358 88.586 18.826 88.586 19.474 88.586 20.05 88.892 20.5 89.54 20.842 89.828 21.004 90.566 21.274 91.772 21.634 93.5 22.174 94.634 22.588 95.138 22.894 96.236 23.56 96.794 24.478 96.794 25.666 96.794 26.818 96.344 27.718 95.444 28.384 94.544 29.032 93.284 29.356 91.664 29.356 90.098 29.356 88.874 29.032 87.992 28.42 86.93 27.664 86.354 26.476 86.246 24.856L88.19 24.856C88.334 25.864 88.694 26.602 89.27 27.034 89.792 27.43 90.584 27.628 91.664 27.628 92.636 27.628 93.41 27.448 93.986 27.124 94.562 26.8 94.85 26.35 94.85 25.774 94.85 25.054 94.436 24.496 93.626 24.082 93.338 23.938 92.492 23.65 91.07 23.218 89.486 22.714 88.514 22.372 88.118 22.156 87.128 21.562 86.642 20.698 86.642 19.582 86.642 18.448 87.11 17.566 88.064 16.918 88.964 16.306 90.098 16 91.466 16z" mask="url(#macos-b)"/>
  </g>
</svg>
