<svg xmlns="http://www.w3.org/2000/svg" width="108" height="40" viewBox="0 0 108 40"><g fill="none" fill-rule="evenodd" opacity=".9"><path fill="#000" stroke="#FFF" stroke-opacity=".334" d="M105,0.5 C105.690356,0.5 106.315356,0.779822031 106.767767,1.23223305 C107.220178,1.68464406 107.5,2.30964406 107.5,3 L107.5,37 C107.5,37.6903559 107.220178,38.3153559 106.767767,38.767767 C106.315356,39.220178 105.690356,39.5 105,39.5 L3,39.5 C2.30964406,39.5 1.68464406,39.220178 1.23223305,38.767767 C0.779822031,38.3153559 0.5,37.6903559 0.5,37 L0.5,3 C0.5,2.30964406 0.779822031,1.68464406 1.23223305,1.23223305 C1.68464406,0.779822031 2.30964406,0.5 3,0.5 Z"/><path fill="#FFF" d="M23.3307874,12 C21.5245477,12 20.0035038,13.1347903 19.0528513,13.1347903 C17.9120684,13.1347903 16.8663507,12.0945659 15.0125784,12.0945659 C11.4476317,12.0945659 8.5006091,15.4516538 9.07100057,20.55821 C9.59385942,25.144654 12.8736104,30.3457761 15.2977741,30.3457761 C16.8188181,30.3457761 17.4842748,29.3528346 19.3380471,29.3528346 C21.1918194,29.3528346 21.7146782,30.2984932 23.3307874,30.2984932 C26.0401469,30.2984932 28.2741801,25.5229175 28.7495064,23.9152979 C24.9944292,22.4022442 24.0437767,16.9647075 28.1315823,14.4114293 C28.1315818,14.4114297 26.5630057,12 23.3307874,12 Z M23.8704497,6 C21.2561555,6.18913171 18.7369265,8.74240983 19.0221222,11.5793855 C21.8265469,11.6739514 24.1556455,8.83697569 23.8704497,6 L23.8704497,6 Z M41.051,7 C41.87,7 42.518,7.18 42.995,7.558 C43.454,7.918 43.742,8.449 43.859,9.169 L42.869,9.169 C42.779,8.737 42.581,8.413 42.275,8.197 C41.969,7.972 41.555,7.864 41.051,7.864 C40.43,7.864 39.935,8.071 39.566,8.503 C39.17,8.953 38.981,9.574 38.981,10.366 C38.981,11.14 39.152,11.734 39.512,12.148 C39.89,12.598 40.484,12.823 41.285,12.823 C41.6,12.823 41.897,12.778 42.176,12.706 C42.446,12.634 42.68,12.526 42.896,12.391 L42.896,10.996 L41.123,10.996 L41.123,10.159 L43.877,10.159 L43.877,12.859 C43.544,13.12 43.157,13.318 42.716,13.462 C42.248,13.606 41.735,13.678 41.177,13.678 C40.151,13.678 39.359,13.354 38.792,12.706 C38.261,12.103 38,11.32 38,10.366 C38,9.403 38.261,8.611 38.792,7.99 C39.35,7.324 40.106,7 41.051,7 Z M46.787,8.773 C47.543,8.773 48.128,9.025 48.524,9.547 C48.884,10.015 49.073,10.663 49.082,11.491 L45.554,11.491 C45.59,11.941 45.707,12.292 45.923,12.535 C46.139,12.769 46.436,12.895 46.814,12.895 C47.147,12.895 47.417,12.814 47.624,12.661 C47.786,12.535 47.921,12.328 48.047,12.058 L49.001,12.058 C48.893,12.49 48.686,12.859 48.362,13.147 C47.957,13.498 47.444,13.678 46.823,13.678 C46.139,13.678 45.59,13.462 45.194,13.039 C44.762,12.589 44.546,11.986 44.546,11.221 C44.546,10.528 44.744,9.952 45.158,9.484 C45.554,9.007 46.103,8.773 46.787,8.773 Z M46.814,9.556 C46.454,9.556 46.175,9.655 45.959,9.871 C45.761,10.078 45.626,10.375 45.572,10.771 L48.083,10.771 C47.993,9.961 47.57,9.556 46.814,9.556 Z M51.155,7.396 L51.155,8.899 L52.217,8.899 L52.217,9.691 L51.155,9.691 L51.155,12.391 C51.155,12.517 51.182,12.607 51.236,12.67 C51.29,12.724 51.371,12.76 51.488,12.76 L52.1,12.76 L52.1,13.552 L51.335,13.552 C50.939,13.552 50.642,13.444 50.462,13.237 C50.282,13.039 50.201,12.76 50.201,12.391 L50.201,9.691 L49.337,9.691 L49.337,8.899 L50.201,8.899 L50.201,7.792 L51.155,7.396 Z M56.3540001,7.036 C56.5430001,7.036 56.7050001,7.09 56.8310001,7.216 C56.9570001,7.333 57.0200001,7.486 57.0200001,7.675 C57.0200001,7.864 56.9480001,8.017 56.8220001,8.143 C56.6960001,8.26 56.5340001,8.323 56.3540001,8.323 C56.1650001,8.323 56.0120001,8.26 55.8860001,8.143 C55.7600001,8.017 55.6970001,7.855 55.6970001,7.675 C55.6970001,7.486 55.7600001,7.333 55.8860001,7.216 C56.0120001,7.09 56.1650001,7.036 56.3540001,7.036 Z M55.8770001,8.899 L56.8310001,8.899 L56.8310001,13.552 L55.8770001,13.552 L55.8770001,8.899 Z M59.3810001,7.396 L59.3810001,8.899 L60.4430001,8.899 L60.4430001,9.691 L59.3810001,9.691 L59.3810001,12.391 C59.3810001,12.517 59.4080001,12.607 59.4620001,12.67 C59.5160001,12.724 59.5970001,12.76 59.7140001,12.76 L60.3260001,12.76 L60.3260001,13.552 L59.5610001,13.552 C59.1650001,13.552 58.8680001,13.444 58.6880001,13.237 C58.5080001,13.039 58.4270001,12.76 58.4270001,12.391 L58.4270001,9.691 L57.5630001,9.691 L57.5630001,8.899 L58.4270001,8.899 L58.4270001,7.792 L59.3810001,7.396 Z M66.0470002,8.773 C66.7490002,8.773 67.3160002,9.007 67.7390002,9.475 C68.1530002,9.934 68.3690002,10.519 68.3690002,11.23 C68.3690002,11.932 68.1620002,12.517 67.7480002,12.967 C67.3160002,13.435 66.7490002,13.678 66.0470002,13.678 C65.3450002,13.678 64.7780002,13.435 64.3460002,12.967 C63.9320002,12.517 63.7250002,11.932 63.7250002,11.23 C63.7250002,10.519 63.9320002,9.934 64.3550002,9.475 C64.7780002,9.007 65.3450002,8.773 66.0470002,8.773 Z M66.0470002,9.556 C65.6060002,9.556 65.2640002,9.727 65.0210002,10.078 C64.8050002,10.375 64.7060002,10.762 64.7060002,11.23 C64.7060002,11.698 64.8050002,12.076 65.0210002,12.373 C65.2640002,12.715 65.6060002,12.895 66.0470002,12.895 C66.4880002,12.895 66.8300002,12.715 67.0820002,12.373 C67.2980002,12.067 67.4060002,11.689 67.4060002,11.23 C67.4060002,10.762 67.2980002,10.375 67.0820002,10.078 C66.8300002,9.727 66.4880002,9.556 66.0470002,9.556 Z M71.4860002,8.773 C72.6380002,8.773 73.2230002,9.403 73.2230002,10.681 L73.2230002,13.552 L72.2690002,13.552 L72.2690002,10.762 C72.2690002,9.97 71.9000002,9.574 71.1800002,9.574 C70.9100002,9.574 70.6670002,9.664 70.4690002,9.862 C70.2530002,10.078 70.1180002,10.375 70.0820002,10.753 L70.0820002,13.552 L69.1280002,13.552 L69.1280002,8.899 L70.0820002,8.899 L70.0820002,9.475 C70.2620002,9.241 70.4690002,9.07 70.7030002,8.953 C70.9370002,8.827 71.1980002,8.773 71.4860002,8.773 Z M42.464,19.546 C43.832,19.546 44.822,20.068 45.398,21.112 C45.812,20.536 46.262,20.122 46.73,19.888 C47.162,19.654 47.684,19.546 48.314,19.546 C49.268,19.546 50.06,19.852 50.69,20.5 C51.302,21.13 51.626,21.958 51.626,23.002 L51.626,29.104 L49.718,29.104 L49.718,23.326 C49.718,22.57 49.556,22.012 49.232,21.67 C48.908,21.31 48.368,21.148 47.648,21.148 C47.108,21.148 46.676,21.346 46.316,21.742 C45.956,22.138 45.776,22.696 45.776,23.38 L45.776,29.104 L43.868,29.104 L43.868,23.344 C43.868,21.868 43.22,21.148 41.96,21.148 C41.348,21.148 40.844,21.382 40.484,21.85 C40.088,22.3 39.908,22.858 39.908,23.506 L39.908,29.104 L38,29.104 L38,19.798 L39.908,19.798 L39.908,20.824 C40.664,19.96 41.528,19.546 42.464,19.546 Z M57.68,19.546 C59.048,19.546 60.056,19.888 60.704,20.572 C61.262,21.166 61.55,22.03 61.55,23.164 L61.55,29.104 L59.786,29.104 L59.786,27.79 C59.426,28.258 58.976,28.636 58.436,28.906 C57.824,29.194 57.104,29.356 56.276,29.356 C55.304,29.356 54.548,29.104 54.008,28.618 C53.414,28.132 53.126,27.502 53.126,26.728 C53.126,25.684 53.54,24.874 54.368,24.316 C55.124,23.776 56.204,23.506 57.572,23.47 L59.66,23.416 L59.66,23.038 C59.66,21.742 58.958,21.094 57.554,21.094 C56.96,21.094 56.474,21.202 56.114,21.418 C55.682,21.67 55.412,22.048 55.304,22.57 L53.414,22.408 C53.612,21.4 54.116,20.644 54.908,20.176 C55.592,19.744 56.528,19.546 57.68,19.546 Z M59.66,24.802 L57.698,24.856 C55.952,24.892 55.088,25.504 55.088,26.656 C55.088,27.016 55.232,27.304 55.538,27.538 C55.826,27.772 56.222,27.898 56.708,27.898 C57.518,27.898 58.202,27.646 58.778,27.16 C59.354,26.674 59.66,26.062 59.66,25.342 L59.66,24.802 Z M67.568,19.546 C68.756,19.546 69.71,19.816 70.43,20.356 C71.15,20.932 71.618,21.796 71.798,22.948 L69.908,22.948 C69.782,22.318 69.53,21.85 69.134,21.562 C68.738,21.256 68.216,21.112 67.568,21.112 C66.776,21.112 66.164,21.4 65.714,21.994 C65.246,22.57 65.03,23.398 65.03,24.442 C65.03,25.486 65.246,26.314 65.696,26.908 C66.11,27.484 66.722,27.79 67.55,27.79 C68.972,27.79 69.764,27.07 69.944,25.666 L71.834,25.666 C71.618,26.908 71.132,27.844 70.412,28.456 C69.692,29.05 68.72,29.356 67.532,29.356 C66.11,29.356 65.012,28.888 64.22,27.952 C63.446,27.052 63.068,25.9 63.068,24.46 C63.068,23.056 63.446,21.904 64.202,21.004 C65.012,20.032 66.128,19.546 67.568,19.546 Z M79.04,16 C80.984,16 82.532,16.63 83.666,17.908 C84.746,19.114 85.286,20.716 85.286,22.696 C85.286,24.658 84.746,26.242 83.666,27.466 C82.532,28.726 80.984,29.356 79.04,29.356 C77.078,29.356 75.53,28.708 74.414,27.448 C73.334,26.224 72.812,24.64 72.812,22.696 C72.812,20.734 73.334,19.15 74.414,17.926 C75.53,16.63 77.078,16 79.04,16 Z M79.04,17.728 C77.672,17.728 76.61,18.178 75.854,19.114 C75.134,19.996 74.774,21.184 74.774,22.696 C74.774,24.19 75.134,25.378 75.854,26.26 C76.61,27.16 77.672,27.628 79.04,27.628 C80.408,27.628 81.47,27.178 82.208,26.296 C82.928,25.432 83.306,24.226 83.306,22.696 C83.306,21.148 82.928,19.942 82.208,19.06 C81.47,18.16 80.408,17.728 79.04,17.728 Z M91.466,16 C92.96,16 94.13,16.306 94.976,16.954 C95.876,17.62 96.38,18.646 96.506,20.05 L94.562,20.05 C94.382,19.222 94.058,18.61 93.554,18.25 C93.05,17.872 92.33,17.692 91.358,17.692 C90.512,17.692 89.864,17.818 89.414,18.07 C88.856,18.358 88.586,18.826 88.586,19.474 C88.586,20.05 88.892,20.5 89.54,20.842 C89.828,21.004 90.566,21.274 91.772,21.634 C93.5,22.174 94.634,22.588 95.138,22.894 C96.236,23.56 96.794,24.478 96.794,25.666 C96.794,26.818 96.344,27.718 95.444,28.384 C94.544,29.032 93.284,29.356 91.664,29.356 C90.098,29.356 88.874,29.032 87.992,28.42 C86.93,27.664 86.354,26.476 86.246,24.856 L88.19,24.856 C88.334,25.864 88.694,26.602 89.27,27.034 C89.792,27.43 90.584,27.628 91.664,27.628 C92.636,27.628 93.41,27.448 93.986,27.124 C94.562,26.8 94.85,26.35 94.85,25.774 C94.85,25.054 94.436,24.496 93.626,24.082 C93.338,23.938 92.492,23.65 91.07,23.218 C89.486,22.714 88.514,22.372 88.118,22.156 C87.128,21.562 86.642,20.698 86.642,19.582 C86.642,18.448 87.11,17.566 88.064,16.918 C88.964,16.306 90.098,16 91.466,16 Z"/></g></svg>