<svg xmlns="http://www.w3.org/2000/svg" width="81" height="40" viewBox="0 0 81 40"><g fill="none" fill-rule="evenodd" opacity=".9"><rect width="81" height="40" fill="#000" rx="3"/><path fill="#FFF" d="M28.7222584,19.392491 C28.7222584,19.7034619 28.6180365,19.9571197 28.4107587,20.1500969 C28.203481,20.3442183 27.9356826,20.4412459 27.6085249,20.4412459 C27.3127216,20.4412459 27.0651304,20.3419972 26.8634262,20.1412788 C26.660628,19.9427826 26.559794,19.6935338 26.559794,19.392491 C26.559794,19.0914139 26.6640135,18.8443862 26.8712912,18.6502979 C27.078569,18.4573207 27.3351529,18.36026 27.641007,18.36026 C27.9457694,18.36026 28.203481,18.4573207 28.4107588,18.6502979 C28.6180365,18.8443862 28.7222584,19.0914139 28.7222584,19.392491 L28.7222584,19.392491 Z M28.5250314,29.564764 L26.7569825,29.564764 L26.7569825,21.7304315 L28.5250314,21.7304315 L28.5250314,29.564764 L28.5250314,29.564764 Z M37.483378,21.8590274 C37.483378,22.8581751 37.1842252,23.6587924 36.5847896,24.2609122 C35.8128137,25.0461167 34.6856439,25.4365132 33.206697,25.4365132 C32.7708378,25.4365132 32.4335934,25.4100612 32.1937999,25.3560119 L32.1937999,29.5643248 L30.4246569,29.5643248 L30.4246569,18.8439493 C31.2661101,18.6939823 32.2263156,18.6189657 33.307531,18.6189657 C34.7047233,18.6189657 35.7579003,18.9145226 36.467165,19.5056387 C37.1450058,20.0846046 37.483378,20.8709189 37.483378,21.8590274 M35.7310254,21.9395299 C35.7310254,21.3054037 35.5248753,20.8190895 35.1114139,20.4805212 C34.6979884,20.141953 34.1220758,19.9721299 33.3837145,19.9721299 C32.8940696,19.9721299 32.4974658,20.004102 32.1938,20.0691563 L32.1938,23.9708743 C32.4436801,24.0348529 32.7865342,24.0668251 33.2201332,24.0668251 C34.0033236,24.0668251 34.6173255,23.8793669 35.0621413,23.5021964 C35.5080537,23.127247 35.7310254,22.6056284 35.7310254,21.9395299 M45.671632,29.5645279 L43.9035831,29.5645279 L43.9035831,25.0981799 C43.9035831,23.6898896 43.3680199,22.9874099 42.298019,22.9874099 C41.4789611,22.9874099 40.9165207,23.3965538 40.6117607,24.2126181 C40.5568473,24.3846635 40.5299701,24.5941988 40.5299701,24.8412242 L40.5299701,29.5645279 L38.7607935,29.5645279 L38.7607935,18.1350414 L40.5299701,18.1350414 L40.5299701,22.84293 L40.5613245,22.84293 C41.1193213,21.9926712 41.9159479,21.5691915 42.9534644,21.5691915 C43.6839968,21.5691915 44.2912614,21.80518 44.7708195,22.2783001 C45.3713516,22.8694162 45.671632,23.7439401 45.671632,24.9051685 L45.671632,29.5645279 L45.671632,29.5645279 Z M54.8595485,25.5820712 C54.8595485,26.7863463 54.5099619,27.7744548 53.8107839,28.547542 C53.0791238,29.3437514 52.1077711,29.7418561 50.8954253,29.7418561 C49.7279421,29.7418561 48.7968692,29.3591985 48.1044238,28.5971492 C47.4097614,27.8340232 47.0635242,26.8712567 47.0635242,25.7111052 C47.0635242,24.496935 47.4209422,23.5021964 48.135783,22.7291423 C48.8517467,21.9560551 49.8142123,21.5689896 51.0276138,21.5689896 C52.195097,21.5689896 53.1340396,21.9505349 53.8444321,22.7125841 C54.5211763,23.454776 54.8595485,24.4109124 54.8595485,25.5820712 M53.0253741,25.6228957 C53.0253741,24.9038578 52.8662364,24.2885096 52.5502932,23.7745992 C52.179439,23.152589 51.6494471,22.8426938 50.9615555,22.8426938 C50.2511631,22.8426938 49.711118,23.152589 49.3402638,23.7745992 C49.0231929,24.2885096 48.8651828,24.9159727 48.8651828,25.6548667 C48.8651828,26.3727946 49.0231929,26.9892527 49.3402638,27.5031619 C49.7223325,28.1251391 50.2567679,28.4350343 50.9447314,28.4350343 C51.6214805,28.4350343 52.1514005,28.1196531 52.5334739,27.4877479 C52.8617929,26.9627984 53.0253741,26.3419336 53.0253741,25.6228957 M62.9987723,29.5645279 L61.2307234,29.5645279 L61.2307234,25.0672859 C61.2307234,23.6799616 60.6951219,22.9874099 59.6251568,22.9874099 C59.1007745,22.9874099 58.6739104,23.1782003 58.3478469,23.5597456 C58.0195951,23.9402153 57.8559467,24.3890702 57.8559467,24.9051685 L57.8559467,29.5645279 L56.0878978,29.5645279 L56.0878978,23.9711105 C56.0878978,23.282968 56.065536,22.536367 56.0218347,21.7301965 L57.577001,21.7301965 L57.6587893,22.9377696 L57.7091895,22.9377696 C57.9164673,22.562819 58.2212633,22.2518481 58.6256984,22.0037105 C59.1063842,21.7136714 59.6408197,21.5691915 60.2301661,21.5691915 C60.9730454,21.5691915 61.5903632,21.80518 62.0811693,22.2783001 C62.6928822,22.8572671 62.9987723,23.7229729 62.9987723,24.8720876 L62.9987723,29.5645279 L62.9987723,29.5645279 Z M71.2526071,25.2760466 C71.2526071,25.588164 71.2301735,25.8506034 71.1876382,26.0656601 L65.8812361,26.0656601 C65.9025038,26.8398242 66.1602489,27.4309403 66.6509879,27.8389707 C67.0991196,28.2039921 67.6773236,28.3870755 68.3876488,28.3870755 C69.1730586,28.3870755 69.8878946,28.2635628 70.5321616,28.0165351 L70.8111744,29.2252193 C70.0570854,29.5483062 69.1674537,29.7093443 68.1411853,29.7093443 C66.9075718,29.7093443 65.9384073,29.3509188 65.2336197,28.6374023 C64.5299981,27.9227735 64.1781514,26.9633369 64.1781514,25.760174 C64.1781514,24.5768648 64.5053139,23.5942765 65.1607905,22.8090733 C65.84766,21.9720405 66.7764774,21.5529698 67.9450548,21.5529698 C69.0912704,21.5529698 69.9584731,21.9720406 70.5489856,22.8090733 C71.0172909,23.4762817 71.2526071,24.2978662 71.2526071,25.2760466 L71.2526071,25.2760466 Z M69.5663465,24.8250025 C69.5763996,24.3089041 69.4621245,23.8633472 69.2212706,23.4873209 C68.9164746,23.0031604 68.4470081,22.7616529 67.8128615,22.7616529 C67.2347295,22.7616529 66.7652582,22.9976414 66.4056184,23.4707627 C66.1109428,23.8468232 65.9349858,24.2978662 65.8812361,24.8250025 L69.5663465,24.8250025 L69.5663465,24.8250025 Z M31.951576,15.6442729 L31.1224649,15.6442729 L31.0115441,13.4518892 C30.9588861,12.4615591 30.9353271,11.7248862 30.9409343,11.2440579 L30.9174113,11.2440579 C30.7482228,11.8605492 30.5398174,12.521128 30.2933203,13.2257951 L29.4642092,15.5968525 L28.8154674,15.5968525 L28.0569301,13.2655079 C27.8306089,12.5597303 27.6468541,11.8859248 27.5045789,11.2440579 L27.4888825,11.2440579 C27.4620077,12.0314822 27.4306197,12.7802712 27.3936557,13.4904915 L27.2670408,15.6442729 L26.4692842,15.6442729 L26.8244804,10.4037278 L27.923614,10.4037278 L28.6899803,12.6743924 C28.8782123,13.2335358 29.0451766,13.8356562 29.1874518,14.4774901 L29.2109772,14.4774901 C29.3790691,13.8092036 29.5583444,13.20816 29.7476704,12.6743924 L30.5454247,10.4037278 L31.6445919,10.4037278 L31.951576,15.6442729 L31.951576,15.6442729 Z M35.8624293,15.6448113 L35.096027,15.6448113 L35.0321906,15.2092155 L35.0086652,15.2092155 C34.745344,15.5554907 34.3711379,15.7297229 33.8871027,15.7297229 C33.5240751,15.7297229 33.2316236,15.6161371 33.0097796,15.3878556 C32.8103668,15.1805413 32.7095303,14.9235855 32.7095303,14.6181006 C32.7095303,14.1560179 32.9067213,13.8042562 33.2988815,13.560527 C33.6910058,13.3167984 34.2422629,13.1976936 34.9537518,13.2032126 L34.9537518,13.1326381 C34.9537518,12.6352523 34.6882088,12.3871141 34.1548674,12.3871141 C33.7772735,12.3871141 33.4422868,12.4797663 33.1520907,12.666147 L32.9784251,12.1147449 C33.3369708,11.8963914 33.7772735,11.7872146 34.2983063,11.7872146 C35.3044325,11.7872146 35.8075136,12.3077221 35.8075136,13.3498811 L35.8075136,14.7427244 C35.8075136,15.1209718 35.8254317,15.4209389 35.8624293,15.6448113 M34.9772748,14.3456965 L34.9772748,13.7623222 C34.0338574,13.7469082 33.5632944,14.0005318 33.5632944,14.5243708 C33.5632944,14.7217571 33.6181742,14.8695361 33.7280009,14.9677079 C33.8389242,15.0669554 33.9778499,15.1154527 34.1447806,15.1154527 C34.3330126,15.1154527 34.5066782,15.0570274 34.6669051,14.9412205 C34.8271345,14.824338 34.9246191,14.6754478 34.9615808,14.4935098 L34.9772748,14.3456965 M40.2628555,15.6448113 L39.5043182,15.6448113 L39.4650988,15.0382824 L39.4415758,15.0382824 C39.1984281,15.4992534 38.7872244,15.7297229 38.2079624,15.7297229 C37.7452284,15.7297229 37.3598054,15.5510817 37.0550431,15.1926573 C36.7502831,14.8364528 36.596791,14.3721828 36.596791,13.8009245 C36.596791,13.1899865 36.7637193,12.6948212 37.0976143,12.3165732 C37.4202925,11.9636679 37.8180599,11.7872146 38.2886565,11.7872146 C38.8085257,11.7872146 39.1704256,11.9581483 39.3777034,12.3011256 L39.3777034,10.1318965 L40.2303375,10.1318965 L40.2303375,14.6258407 C40.2303374,14.99416 40.2415519,15.3338393 40.2628555,15.6448113 M39.3777034,14.0501727 L39.3777034,13.4204555 C39.3777034,13.3123893 39.369872,13.2241798 39.3530503,13.1557927 C39.3059995,12.9539643 39.2029077,12.7841412 39.0449361,12.6462908 C38.8858367,12.509551 38.6964772,12.4411639 38.4735054,12.4411639 C38.1553044,12.4411639 37.9065855,12.5657883 37.7239272,12.813926 C37.5413025,13.0631747 37.4505528,13.3818532 37.4505528,13.7700629 C37.4505528,14.1439018 37.5379506,14.4471663 37.7116162,14.6798569 C37.8975928,14.9291056 38.1452176,15.0537294 38.457809,15.0537294 C38.7368242,15.0537294 38.9620177,14.9500729 39.1312062,14.7427243 C39.2959127,14.5508571 39.3777034,14.3203545 39.3777034,14.0501727 M44.4570644,13.57584 C44.4570644,13.726917 44.4469777,13.8537287 44.4256765,13.9574201 L41.8666082,13.9574201 C41.876695,14.3301479 41.9999243,14.6157779 42.2374648,14.8120873 C42.4526051,14.9885394 42.7327145,15.0767501 43.0744385,15.0767501 C43.4542542,15.0767501 43.7982359,15.0172136 44.1096972,14.8981088 L44.244177,15.4814837 C43.8800241,15.6369697 43.4509023,15.7141743 42.9556526,15.7141743 C42.3607301,15.7141743 41.893483,15.5421301 41.5540144,15.1969648 C41.2145122,14.8528764 41.0441984,14.3897175 41.0441984,13.8096411 C41.0441984,13.2383823 41.2022036,12.7641842 41.5181469,12.3870131 C41.8497841,11.9822788 42.2979854,11.779373 42.8615535,11.779373 C43.4150348,11.779373 43.8329758,11.9822788 44.1175622,12.3870131 C44.3438882,12.7079468 44.4570644,13.1049404 44.4570644,13.57584 L44.4570644,13.57584 Z M43.6436137,13.3585976 C43.649221,13.1093488 43.5931799,12.8942939 43.4777795,12.7134321 C43.3298947,12.4796653 43.103571,12.3627479 42.797681,12.3627479 C42.5187018,12.3627479 42.2923781,12.4774442 42.1187125,12.7046146 C41.9764013,12.8865869 41.8923889,13.1049404 41.8666081,13.3585976 L43.6436137,13.3585976 L43.6436137,13.3585976 Z M50.9505426,11.7875175 C51.5141107,11.7875175 51.9667579,11.9717114 52.3096456,12.3400307 C52.635642,12.6973451 52.8003845,13.1594278 52.8003845,13.7240565 C52.8003845,14.3041329 52.6311937,14.7816632 52.2939156,15.1543916 C51.9398807,15.5381592 51.4715083,15.7300594 50.8877666,15.7300594 C50.3241986,15.7300594 49.8749008,15.5458992 49.5399165,15.1786567 C49.2060215,14.8092263 49.0390572,14.3460331 49.0390572,13.7858134 C49.0390572,13.2002175 49.2116263,12.7204998 49.5555745,12.3477714 C49.9006839,11.9738988 50.3656733,11.7875175 50.9505426,11.7875175 Z M48.4696732,10.0457735 C48.6971245,10.0457735 48.8965756,10.0799673 49.0702389,10.1472432 L48.9918001,10.800082 C48.8663153,10.7482531 48.7273896,10.7228774 48.5761169,10.7228774 C48.131301,10.7228774 47.9094593,11.0382916 47.9094593,11.6713073 L47.9094593,11.8653951 L48.762127,11.8653951 L48.762127,12.4950792 L47.9094593,12.4950792 L47.9094593,15.6447098 L47.0568205,15.6447098 L47.0568205,12.4950793 L46.5346984,12.4950793 L46.5346984,11.8653951 L47.0568205,11.8653951 L47.0568205,11.694462 C47.0568205,11.1187941 47.2058378,10.6886842 47.5061183,10.4030879 C47.7593143,10.1648783 48.0809008,10.0457735 48.4696732,10.0457735 Z M50.9191546,12.4017876 C50.5763389,12.4017876 50.3152395,12.5517878 50.1370944,12.8517543 C49.9847324,13.0998583 49.9074213,13.4020459 49.9074213,13.7582497 C49.9074213,14.1045255 49.9847324,14.4023047 50.1370944,14.6504093 C50.3219768,14.9503752 50.5796884,15.0992642 50.9112897,15.0992642 C51.2373533,15.0992642 51.4928431,14.9470772 51.6765979,14.6427023 C51.8356636,14.3890444 51.9141023,14.0891115 51.9141023,13.7428021 C51.9141023,13.3965269 51.8379189,13.0998583 51.6855569,12.8517543 C51.5062457,12.5517877 51.2508279,12.4017876 50.9191546,12.4017876 Z M55.4851439,12.6038522 L55.2162514,12.5806639 C54.9170651,12.5806639 54.6851655,12.6920617 54.521589,12.9148237 C54.3792754,13.1122436 54.3087016,13.3603476 54.3087016,13.6614246 L54.3087016,15.6442729 L53.4549063,15.6442729 L53.4549063,13.0548957 C53.4549063,12.6192662 53.4471085,12.2233489 53.4313785,11.8660682 L54.174253,11.8660682 L54.2055738,12.5884045 L54.2291688,12.5884045 C54.3187548,12.3402663 54.4599696,12.1395484 54.6560329,11.989582 C54.8453925,11.8550296 55.0504149,11.7866425 55.2711673,11.7866425 L55.485144,11.8032007 L55.485144,12.6038522 L55.4851439,12.6038522 Z M19.7590893,9.68744949 C20.7585153,9.68744949 21.571966,10.4881004 21.571966,11.471801 L21.571966,28.7803336 C21.571966,29.7640336 20.7585153,30.5646851 19.7590893,30.5646851 L12.8829912,30.5646851 C11.8835651,30.5646851 11.0701151,29.7640336 11.0701151,28.7803342 L11.0701151,11.471801 C11.0701151,10.4881004 11.8835651,9.68744949 12.8829912,9.68744949 L19.7590893,9.68744949 Z M19.7590893,10.2675258 L12.8829912,10.2675258 C12.208501,10.2675258 11.6594645,10.8079236 11.6594645,11.471801 L11.6594645,28.7803336 C11.6594645,29.4442098 12.208501,29.9846088 12.8829912,29.9846088 L19.7590893,29.9846088 C20.4336142,29.9846088 20.9814871,29.4442098 20.9814871,28.7803336 L20.9814871,11.471801 C20.9814871,10.8079236 20.4336142,10.2675258 19.7590893,10.2675258 Z M16.3221856,27.7362895 C16.856621,27.7362895 17.2913501,28.1652906 17.2913501,28.691317 C17.2913501,29.2173765 16.856621,29.6452654 16.3221856,29.6452654 C15.7877501,29.6452654 15.3518922,29.2173765 15.3518922,28.691317 C15.3518922,28.1652906 15.7877501,27.7362895 16.3221856,27.7362895 Z M20.1380496,12.7048502 C20.2781042,12.7048502 20.3923769,12.8228445 20.3923769,12.9662144 L20.3923769,27.1956915 C20.3923769,27.3390603 20.2781042,27.457054 20.1380496,27.457054 L12.5034148,27.457054 C12.3633607,27.457054 12.2501821,27.3390603 12.2501821,27.1956915 L12.2501821,12.9662144 C12.2501821,12.8228445 12.3633607,12.7048502 12.5034148,12.7048502 Z M19.8030281,13.283816 L12.8395316,13.283816 L12.8395316,26.8769788 L19.8030281,26.8769788 L19.8030281,13.283816 Z M17.1475693,11.6530996 L17.2988384,11.7986912 L17.1475693,11.9453592 L15.4814834,11.9453592 L15.3302478,11.7986912 L15.4814834,11.6530996 L17.1475693,11.6530996 Z M16.321365,10.6821887 C16.4849786,10.6821887 16.6182972,10.813409 16.6182972,10.9744482 C16.6182972,11.1365638 16.4849786,11.2666741 16.321365,11.2666741 C16.1566921,11.2666741 16.0233399,11.1365638 16.0233399,10.9744482 C16.0233399,10.813409 16.156692,10.6821887 16.321365,10.6821887 Z"/></g></svg>