<svg xmlns="http://www.w3.org/2000/svg" width="140" height="40" viewBox="0 0 140 40"><g fill="none" fill-rule="evenodd" opacity=".9"><rect width="139" height="39" x=".5" y=".5" fill="#FFF" stroke="#191919" rx="3"/><path fill="#191919" fill-rule="nonzero" d="M43.5103333,13 C41.7503333,13 40.3743333,13.56 39.3823333,14.712 C38.4223333,15.8 37.9583333,17.208 37.9583333,18.952 C37.9583333,20.68 38.4223333,22.088 39.3823333,23.176 C40.3743333,24.296 41.7503333,24.872 43.5103333,24.872 C45.2543333,24.872 46.6303333,24.312 47.6383333,23.192 C48.5983333,22.12 49.0783333,20.712 49.0783333,18.952 C49.0783333,17.192 48.5983333,15.768 47.6383333,14.696 C46.6303333,13.56 45.2543333,13 43.5103333,13 Z M43.5103333,14.648 C44.6943333,14.648 45.6063333,15.016 46.2463333,15.784 C46.8703333,16.552 47.1903333,17.608 47.1903333,18.952 C47.1903333,20.296 46.8703333,21.336 46.2463333,22.088 C45.6063333,22.84 44.6943333,23.224 43.5103333,23.224 C42.3263333,23.224 41.3983333,22.824 40.7583333,22.04 C40.1343333,21.272 39.8303333,20.248 39.8303333,18.952 C39.8303333,17.64 40.1343333,16.616 40.7583333,15.848 C41.4143333,15.048 42.3263333,14.648 43.5103333,14.648 Z M54.4258893,16.152 C53.3378893,16.152 52.5058893,16.52 51.9298893,17.256 L51.9298893,16.376 L50.2338893,16.376 L50.2338893,27.816 L52.0578893,27.816 L52.0578893,23.512 C52.7298893,24.408 53.5618893,24.872 54.5218893,24.872 C55.7058893,24.872 56.6498893,24.44 57.3218893,23.576 C57.9458893,22.776 58.2658893,21.768 58.2658893,20.552 C58.2658893,19.272 57.9458893,18.248 57.3058893,17.448 C56.6018893,16.584 55.6418893,16.152 54.4258893,16.152 Z M54.1538893,17.624 C54.9538893,17.624 55.5458893,17.912 55.9298893,18.488 C56.2338893,18.968 56.3938893,19.656 56.3938893,20.552 C56.3938893,21.448 56.2178893,22.136 55.8818893,22.616 C55.4978893,23.128 54.8898893,23.4 54.0898893,23.4 C53.4978893,23.4 53.0178893,23.16 52.6338893,22.68 C52.2018893,22.152 51.9938893,21.448 51.9938893,20.584 L51.9938893,20.456 C51.9938893,19.624 52.1538893,18.968 52.5058893,18.472 C52.8898893,17.896 53.4338893,17.624 54.1538893,17.624 Z M62.9414453,16.152 C61.7094453,16.152 60.7334453,16.568 60.0294453,17.416 C59.2934453,18.248 58.9414453,19.272 58.9414453,20.504 C58.9414453,21.88 59.3254453,22.952 60.0934453,23.736 C60.8134453,24.488 61.7894453,24.872 63.0214453,24.872 C64.1254453,24.872 65.0374453,24.552 65.7734453,23.928 C66.3494453,23.416 66.7334453,22.76 66.9254453,21.992 L65.1014453,21.992 C64.8774453,22.456 64.6374453,22.792 64.3654453,23 C64.0134453,23.256 63.5654453,23.384 63.0054453,23.384 C62.3494453,23.384 61.8374453,23.176 61.4854453,22.776 C61.1334453,22.376 60.9254453,21.784 60.8614453,21.016 L67.0534453,21.016 C67.0534453,19.528 66.7174453,18.36 66.0614453,17.528 C65.3414453,16.6 64.3014453,16.152 62.9414453,16.152 Z M62.9894453,17.64 C64.2694453,17.64 64.9894453,18.296 65.1494453,19.64 L60.8934453,19.64 C61.0054453,18.984 61.2294453,18.488 61.5654453,18.152 C61.9174453,17.8 62.3814453,17.64 62.9894453,17.64 Z M72.3210013,16.152 C71.8250013,16.152 71.3770013,16.248 70.9610013,16.456 C70.5610013,16.648 70.1930013,16.952 69.8730013,17.336 L69.8730013,16.376 L68.0490013,16.376 L68.0490013,24.648 L69.8730013,24.648 L69.8730013,19.672 C69.9370013,19.016 70.1610013,18.504 70.5450013,18.152 C70.8810013,17.832 71.2810013,17.672 71.7290013,17.672 C72.9770013,17.672 73.6010013,18.344 73.6010013,19.704 L73.6010013,24.648 L75.4250013,24.648 L75.4250013,19.544 C75.4250013,17.272 74.3850013,16.152 72.3210013,16.152 Z M85.9761133,13 C84.7441133,13 83.7361133,13.272 82.9361133,13.832 C82.0721133,14.408 81.6561133,15.208 81.6561133,16.216 C81.6561133,17.224 82.0881133,17.992 82.9681133,18.52 C83.3041133,18.712 84.1841133,19.032 85.5921133,19.48 C86.8561133,19.864 87.5921133,20.12 87.8161133,20.232 C88.5201133,20.584 88.8881133,21.064 88.8881133,21.672 C88.8881133,22.152 88.6321133,22.52 88.1521133,22.808 C87.6721133,23.08 87.0001133,23.224 86.1681133,23.224 C85.2241133,23.224 84.5361133,23.048 84.0881133,22.728 C83.5921133,22.36 83.2881133,21.736 83.1601133,20.872 L81.3041133,20.872 C81.3841133,22.328 81.9121133,23.384 82.8721133,24.056 C83.6561133,24.6 84.7601133,24.872 86.1681133,24.872 C87.6241133,24.872 88.7601133,24.568 89.5601133,23.992 C90.3601133,23.4 90.7601133,22.584 90.7601133,21.56 C90.7601133,20.504 90.2641133,19.688 89.2721133,19.096 C88.8241133,18.84 87.8321133,18.456 86.2801133,17.976 C85.2241133,17.64 84.5681133,17.4 84.3281133,17.272 C83.7841133,16.984 83.5281133,16.584 83.5281133,16.104 C83.5281133,15.56 83.7521133,15.16 84.2321133,14.92 C84.6161133,14.712 85.1601133,14.616 85.8801133,14.616 C86.7121133,14.616 87.3521133,14.76 87.7681133,15.08 C88.1841133,15.384 88.4881133,15.896 88.6481133,16.6 L90.5041133,16.6 C90.3921133,15.352 89.9281133,14.424 89.1281133,13.832 C88.3761133,13.272 87.3201133,13 85.9761133,13 Z M95.5956693,16.152 C94.3316693,16.152 93.3236693,16.552 92.5716693,17.384 C91.8036693,18.2 91.4356693,19.24 91.4356693,20.52 C91.4356693,21.784 91.8036693,22.824 92.5556693,23.624 C93.3236693,24.456 94.3316693,24.872 95.5956693,24.872 C96.8436693,24.872 97.8676693,24.456 98.6356693,23.624 C99.3716693,22.824 99.7556693,21.784 99.7556693,20.52 C99.7556693,19.24 99.3716693,18.2 98.6196693,17.384 C97.8516693,16.552 96.8436693,16.152 95.5956693,16.152 Z M95.5956693,17.64 C96.3476693,17.64 96.9396693,17.928 97.3556693,18.536 C97.7076693,19.048 97.8996693,19.72 97.8996693,20.52 C97.8996693,21.304 97.7076693,21.96 97.3556693,22.488 C96.9396693,23.08 96.3476693,23.384 95.5956693,23.384 C94.8276693,23.384 94.2516693,23.08 93.8356693,22.488 C93.4836693,21.976 93.3076693,21.32 93.3076693,20.52 C93.3076693,19.72 93.4836693,19.048 93.8356693,18.536 C94.2516693,17.928 94.8276693,17.64 95.5956693,17.64 Z M100.911225,16.376 L100.911225,21.528 C100.911225,23.752 101.903225,24.872 103.887225,24.872 C104.911225,24.872 105.775225,24.44 106.479225,23.576 L106.479225,24.648 L108.303225,24.648 L108.303225,16.376 L106.479225,16.376 L106.479225,21.432 C106.319225,22.024 106.047225,22.488 105.679225,22.84 C105.311225,23.176 104.927225,23.352 104.527225,23.352 C103.887225,23.352 103.439225,23.192 103.151225,22.888 C102.863225,22.568 102.735225,22.088 102.735225,21.416 L102.735225,16.376 L100.911225,16.376 Z M113.682781,16.152 C113.170781,16.152 112.738781,16.296 112.370781,16.6 C112.066781,16.824 111.810781,17.144 111.586781,17.56 L111.586781,16.376 L109.778781,16.376 L109.778781,24.648 L111.586781,24.648 L111.586781,20.264 C111.586781,19.56 111.794781,19 112.242781,18.568 C112.626781,18.184 113.058781,18.008 113.538781,18.008 C113.922781,18.008 114.306781,18.056 114.722781,18.184 L114.722781,16.36 C114.434781,16.216 114.082781,16.152 113.682781,16.152 Z M119.030337,16.152 C117.734337,16.152 116.726337,16.584 116.006337,17.448 C115.334337,18.232 114.998337,19.256 114.998337,20.504 C114.998337,21.784 115.334337,22.824 116.022337,23.624 C116.726337,24.456 117.718337,24.872 118.998337,24.872 C120.070337,24.872 120.934337,24.6 121.574337,24.072 C122.230337,23.528 122.662337,22.696 122.854337,21.576 L121.046337,21.576 C120.902337,22.776 120.230337,23.384 119.014337,23.384 C118.310337,23.384 117.782337,23.128 117.430337,22.632 C117.046337,22.12 116.870337,21.4 116.870337,20.488 C116.870337,19.592 117.062337,18.888 117.446337,18.392 C117.830337,17.88 118.358337,17.64 119.030337,17.64 C119.574337,17.64 120.022337,17.768 120.358337,18.024 C120.678337,18.28 120.902337,18.664 121.014337,19.192 L122.822337,19.192 C122.662337,18.152 122.246337,17.384 121.590337,16.872 C120.950337,16.392 120.102337,16.152 119.030337,16.152 Z M127.369893,16.152 C126.137893,16.152 125.161893,16.568 124.457893,17.416 C123.721893,18.248 123.369893,19.272 123.369893,20.504 C123.369893,21.88 123.753893,22.952 124.521893,23.736 C125.241893,24.488 126.217893,24.872 127.449893,24.872 C128.553893,24.872 129.465893,24.552 130.201893,23.928 C130.777893,23.416 131.161893,22.76 131.353893,21.992 L129.529893,21.992 C129.305893,22.456 129.065893,22.792 128.793893,23 C128.441893,23.256 127.993893,23.384 127.433893,23.384 C126.777893,23.384 126.265893,23.176 125.913893,22.776 C125.561893,22.376 125.353893,21.784 125.289893,21.016 L131.481893,21.016 C131.481893,19.528 131.145893,18.36 130.489893,17.528 C129.769893,16.6 128.729893,16.152 127.369893,16.152 Z M127.417893,17.64 C128.697893,17.64 129.417893,18.296 129.577893,19.64 L125.321893,19.64 C125.433893,18.984 125.657893,18.488 125.993893,18.152 C126.345893,17.8 126.809893,17.64 127.417893,17.64 Z M20.4583333,9 C14.1302883,9 9,14.0864681 9,20.3614879 C9,25.231576 12.0916193,29.3848413 16.4347806,31 L19.075431,24.0184123 C17.2924126,23.3555357 16.2430462,21.5228965 16.582791,19.6652043 C16.9225357,17.8075122 18.5540844,16.4568332 20.4583333,16.4568332 C22.3625823,16.4568332 23.994131,17.8075122 24.3338757,19.6652043 C24.6736204,21.5228965 23.6242541,23.3555357 21.8412356,24.0184123 L24.481886,31 C28.8250474,29.3848413 31.9166667,25.231576 31.9166667,20.3614879 C31.9166667,14.0864681 26.7863784,9 20.457299,9 L20.4583333,9 Z"/></g></svg>