<svg xmlns="http://www.w3.org/2000/svg" xmlns:xlink="http://www.w3.org/1999/xlink" width="108" height="40" viewBox="0 0 108 40"><defs><path id="a" d="M3,0 L105,0 C106.656854,-4.4408921e-16 108,1.34314575 108,3 L108,37 C108,38.6568542 106.656854,40 105,40 L3,40 C1.34314575,40 0,38.6568542 0,37 L0,3 C0,1.34314575 1.34314575,0 3,0 Z"/></defs><g fill="none" fill-rule="evenodd" opacity=".9"><mask id="b" fill="#fff"><use xlink:href="#a"/></mask><path stroke="#191919" d="M105,0.5 C105.690356,0.5 106.315356,0.779822031 106.767767,1.23223305 C107.220178,1.68464406 107.5,2.30964406 107.5,3 L107.5,37 C107.5,37.6903559 107.220178,38.3153559 106.767767,38.767767 C106.315356,39.220178 105.690356,39.5 105,39.5 L3,39.5 C2.30964406,39.5 1.68464406,39.220178 1.23223305,38.767767 C0.779822031,38.3153559 0.5,37.6903559 0.5,37 L0.5,3 C0.5,2.30964406 0.779822031,1.68464406 1.23223305,1.23223305 C1.68464406,0.779822031 2.30964406,0.5 3,0.5 Z"/><path fill="#191919" d="M23.3585539,11.9548032 C21.5523143,11.9548032 20.0312704,13.0895934 19.0806179,13.0895934 C17.939835,13.0895934 16.8941173,12.049369 15.040345,12.049369 C11.4753983,12.049369 8.52837566,15.4064569 9.09876714,20.5130132 C9.62162598,25.0994572 12.9013769,30.3005793 15.3255407,30.3005793 C16.8465846,30.3005793 17.5120413,29.3076378 19.3658136,29.3076378 C21.2195859,29.3076378 21.7424448,30.2532964 23.3585539,30.2532964 C26.0679134,30.2532964 28.3019467,25.4777206 28.7772729,23.8701011 C25.0221957,22.3570474 24.0715433,16.9195106 28.1593488,14.3662325 C28.1593484,14.3662328 26.5907723,11.9548032 23.3585539,11.9548032 Z M23.7388149,6.139003 C21.1245207,6.32813471 18.6052917,8.88141283 18.8904874,11.7183885 C21.6949121,11.8129544 24.0240107,8.97597869 23.7388149,6.139003 L23.7388149,6.139003 Z" mask="url(#b)"/><text fill="#000" font-family="SFProDisplay-Semibold, SF Pro Display" font-size="14" font-weight="500" mask="url(#b)">
                    <tspan x="34" y="25">Download</tspan>
                </text></g></svg>