<svg xmlns="http://www.w3.org/2000/svg" width="119" height="40" viewBox="0 0 119 40"><g fill="none" fill-rule="evenodd" opacity=".9"><rect width="118" height="39" x=".5" y=".5" fill="#FFF" stroke="#191919" rx="3"/><path fill="#F90" d="M27.4,28.5 C17.7,33.1 11.7,29.3 7.9,26.9 C7.7,26.8 7.3,26.9 7.6,27.3 C8.9,28.9 13.1,32.6 18.6,32.6 C24.1,32.6 27.3,29.6 27.8,29.1 C28.1,28.6 27.9,28.3 27.4,28.5 L27.4,28.5 Z"/><path fill="#000" d="M30.2 27C29.9 26.7 28.6 26.6 27.8 26.7 27 26.8 25.7 27.3 25.8 27.6 25.9 27.7 26 27.7 26.5 27.6 27.1 27.5 28.7 27.3 29 27.8 29.3 28.2 28.5 30.3 28.3 30.7 28.2 31 28.4 31.1 28.6 30.9 28.9 30.7 29.4 30.1 29.7 29.3 30.2 28.4 30.4 27.2 30.2 27L30.2 27ZM25 21.1 25 13.4C25 12.1 23.7 9.1 19.1 9.1 14.5 9.1 12 12 12 14.6L15.9 14.9C15.9 14.9 16.8 12.3 18.7 12.3 20.7 12.3 20.6 13.9 20.6 14.3L20.6 16C18 16.1 11.7 16.8 11.7 22.2 11.7 27.9 18.9 28.2 21.3 24.5 21.4 24.7 21.5 24.8 21.6 24.9 22.5 25.8 23.6 26.9 23.6 26.9L26.6 24C26.7 23.9 25 22.6 25 21.1L25 21.1ZM20.6 20.5C20.6 24.7 16.2 24.1 16.2 21.4 16.2 18.9 18.8 18.4 20.6 18.4L20.6 20.5 20.6 20.5Z"/><g transform="translate(38.4 8.1)"><path fill="#000" d="M2.5,0 L3.7,0 L6.2,6.4 L5,6.4 L4.4,4.7 L1.8,4.7 L1.2,6.4 L5.68434189e-14,6.4 L2.5,0 L2.5,0 Z M2.1,3.8 L4.1,3.8 L3.1,1 L3.1,1 L2.1,3.8 L2.1,3.8 Z"/><polygon fill="#F90" points="6 1.7 7.1 1.7 8.3 5.3 8.3 5.3 9.4 1.7 10.5 1.7 8.8 6.4 7.6 6.4"/><path fill="#000" d="M15 5.4C15 5.5 15 5.6 15 5.7 15 5.8 15.1 5.8 15.2 5.8 15.2 5.8 15.3 5.8 15.3 5.8 15.3 5.8 15.4 5.8 15.4 5.8L15.4 6.5C15.4 6.5 15.3 6.5 15.3 6.5 15.2 6.5 15.2 6.5 15.1 6.5 15 6.5 15 6.5 14.9 6.5 14.8 6.5 14.8 6.5 14.7 6.5 14.5 6.5 14.3 6.5 14.2 6.4 14.1 6.3 14 6.2 13.9 6 13.7 6.2 13.4 6.3 13.1 6.4 12.8 6.5 12.5 6.5 12.2 6.5 12 6.5 11.8 6.5 11.6 6.4 11.4 6.3 11.2 6.3 11.1 6.1 11 6 10.8 5.8 10.7 5.7 10.6 5.5 10.6 5.3 10.6 5.1 10.6 4.8 10.7 4.6 10.8 4.4 10.9 4.2 11 4.1 11.2 4 11.4 3.9 11.6 3.8 11.8 3.8 12 3.8 12.2 3.7 12.4 3.7 12.6 3.7 12.8 3.6 12.9 3.6 13.1 3.6 13.2 3.6 13.3 3.5 13.4 3.4 13.5 3.4 13.6 3.3 13.7 3.2 13.7 3.1 13.7 3 13.7 2.9 13.7 2.8 13.6 2.7 13.5 2.6 13.5 2.6 13.4 2.5 13.3 2.4 13.2 2.4 13.1 2.4 13 2.4 12.9 2.4 12.8 2.4 12.5 2.4 12.3 2.5 12.1 2.6 11.9 2.7 11.8 2.9 11.8 3.2L10.8 3.2C10.8 2.9 10.9 2.7 11 2.5 11.1 2.3 11.3 2.1 11.5 2 11.7 1.9 11.9 1.8 12.2 1.7 12.4 1.7 12.7 1.6 13 1.6 13.2 1.6 13.5 1.6 13.7 1.7 13.9 1.7 14.1 1.8 14.3 1.9 14.5 2 14.6 2.1 14.7 2.3 14.8 2.5 14.9 2.7 14.9 2.9L14.9 5.4 15 5.4ZM14 4.1C13.8 4.2 13.7 4.3 13.4 4.3 13.2 4.3 12.9 4.4 12.7 4.4 12.6 4.4 12.5 4.4 12.4 4.5 12.3 4.5 12.2 4.6 12.1 4.6 12 4.7 12 4.7 11.9 4.8 11.9 4.9 11.8 5 11.8 5.1 11.8 5.2 11.8 5.3 11.9 5.4 12 5.5 12 5.5 12.1 5.6 12.2 5.7 12.3 5.7 12.4 5.7 12.5 5.7 12.6 5.7 12.7 5.7 12.8 5.7 12.9 5.7 13.1 5.7 13.2 5.7 13.4 5.6 13.5 5.5 13.6 5.4 13.7 5.3 13.8 5.2 13.9 5.1 13.9 5 13.9 4.8L13.9 4.1 14 4.1ZM16.2 0 17.2 0 17.2 1 16.2 1 16.2 0 16.2 0ZM16.2 1.7 17.2 1.7 17.2 6.4 16.2 6.4 16.2 1.7 16.2 1.7Z"/><polygon fill="#F90" points="18.4 0 19.4 0 19.4 6.4 18.4 6.4"/><path fill="#000" d="M24.4 5.4C24.4 5.5 24.4 5.6 24.4 5.7 24.4 5.8 24.5 5.8 24.6 5.8 24.6 5.8 24.7 5.8 24.7 5.8 24.7 5.8 24.8 5.8 24.8 5.8L24.8 6.5C24.8 6.5 24.7 6.5 24.7 6.5 24.6 6.5 24.6 6.5 24.5 6.5 24.4 6.5 24.4 6.5 24.3 6.5 24.2 6.5 24.2 6.5 24.1 6.5 23.9 6.5 23.7 6.5 23.6 6.4 23.5 6.3 23.4 6.2 23.3 6 23.1 6.2 22.8 6.3 22.5 6.4 22.2 6.5 21.9 6.5 21.6 6.5 21.4 6.5 21.2 6.5 21 6.4 20.8 6.3 20.6 6.3 20.5 6.1 20.4 6 20.2 5.8 20.1 5.7 20 5.5 20 5.3 20 5.1 20 4.8 20.1 4.6 20.2 4.4 20.3 4.2 20.4 4.1 20.6 4 20.8 3.9 21 3.8 21.2 3.8 21.4 3.8 21.6 3.7 21.8 3.7 22 3.7 22.2 3.6 22.3 3.6 22.5 3.6 22.6 3.6 22.7 3.5 22.8 3.4 22.9 3.4 23 3.3 23.1 3.2 23.1 3.1 23.1 3 23.1 2.9 23.1 2.8 23 2.7 22.9 2.6 22.9 2.6 22.8 2.5 22.7 2.4 22.6 2.4 22.5 2.4 22.4 2.4 22.3 2.4 22.2 2.4 21.9 2.4 21.7 2.5 21.5 2.6 21.3 2.7 21.2 2.9 21.2 3.2L20.2 3.2C20.2 2.9 20.3 2.7 20.4 2.5 20.5 2.3 20.7 2.1 20.9 2 21.1 1.9 21.3 1.8 21.6 1.7 21.8 1.7 22.1 1.6 22.4 1.6 22.6 1.6 22.9 1.6 23.1 1.7 23.3 1.7 23.5 1.8 23.7 1.9 23.9 2 24 2.1 24.1 2.3 24.2 2.5 24.3 2.7 24.3 2.9L24.3 5.4 24.4 5.4ZM23.4 4.1C23.2 4.2 23.1 4.3 22.8 4.3 22.6 4.3 22.3 4.4 22.1 4.4 22 4.4 21.9 4.4 21.8 4.5 21.7 4.5 21.6 4.6 21.5 4.6 21.4 4.7 21.4 4.7 21.3 4.8 21.3 4.9 21.2 5 21.2 5.1 21.2 5.2 21.2 5.3 21.3 5.4 21.4 5.5 21.4 5.5 21.5 5.6 21.6 5.7 21.7 5.7 21.8 5.7 21.9 5.7 22 5.7 22.1 5.7 22.2 5.7 22.3 5.7 22.5 5.7 22.6 5.7 22.8 5.6 22.9 5.5 23 5.4 23.1 5.3 23.2 5.2 23.3 5.1 23.3 5 23.3 4.8L23.3 4.1 23.4 4.1ZM25.5 0 26.5 0 26.5 2.4 26.5 2.4C26.6 2.3 26.7 2.2 26.8 2.1 26.9 2 27 1.9 27.1 1.9 27.2 1.8 27.4 1.8 27.5 1.8 27.6 1.8 27.8 1.8 27.9 1.8 28.3 1.8 28.6 1.9 28.9 2 29.2 2.1 29.4 2.3 29.6 2.5 29.8 2.7 29.9 3 30 3.3 30.1 3.6 30.1 3.9 30.1 4.3 30.1 4.6 30.1 4.9 30 5.2 29.9 5.5 29.8 5.8 29.6 6 29.4 6.2 29.2 6.4 29 6.5 28.7 6.6 28.5 6.7 28.1 6.7 27.9 6.7 27.8 6.7 27.6 6.7 27.4 6.7 27.3 6.6 27.1 6.6 27 6.5 26.8 6.5 26.7 6.4 26.6 6.3 26.5 6.2 26.4 6L26.4 6 26.4 6.6 25.4 6.6 25.4 0 25.5 0ZM29.1 4.1C29.1 3.9 29.1 3.7 29 3.5 28.9 3.3 28.9 3.1 28.8 3 28.7 2.8 28.6 2.7 28.4 2.6 28.2 2.5 28.1 2.5 27.8 2.5 27.4 2.5 27 2.7 26.8 3 26.6 3.3 26.5 3.7 26.5 4.2 26.5 4.4 26.5 4.7 26.6 4.9 26.7 5.1 26.7 5.3 26.9 5.4 27 5.5 27.1 5.7 27.3 5.7 27.5 5.7 27.6 5.8 27.9 5.8 28.1 5.8 28.3 5.8 28.5 5.7 28.7 5.6 28.8 5.5 28.9 5.3 29 5.1 29.1 5 29.1 4.8 29.1 4.5 29.1 4.3 29.1 4.1L29.1 4.1Z"/><polygon fill="#F90" points="31 0 32 0 32 6.4 31 6.4"/><path fill="#000" d="M34 4.3C34 4.5 34 4.7 34.1 4.8 34.2 5 34.2 5.1 34.3 5.2 34.4 5.3 34.5 5.4 34.7 5.5 34.9 5.6 35 5.6 35.3 5.6 35.6 5.6 35.8 5.5 36 5.4 36.2 5.3 36.3 5.1 36.4 4.8L37.4 4.8C37.3 5.1 37.3 5.3 37.1 5.5 37 5.7 36.8 5.9 36.6 6 36.4 6.1 36.2 6.2 36 6.3 35.8 6.4 35.5 6.4 35.3 6.4 34.9 6.4 34.6 6.3 34.3 6.2 34 6.1 33.8 5.9 33.6 5.7 33.4 5.5 33.3 5.2 33.2 4.9 33.1 4.6 33.1 4.3 33.1 3.9 33.1 3.6 33.2 3.3 33.3 3 33.4 2.7 33.6 2.4 33.8 2.2 34 2 34.2 1.8 34.5 1.7 34.8 1.6 35.1 1.5 35.4 1.5 35.8 1.5 36.1 1.6 36.4 1.7 36.7 1.9 36.9 2.1 37.1 2.3 37.3 2.6 37.4 2.8 37.5 3.2 37.6 3.5 37.6 3.9 37.6 4.2L34 4.2 34 4.3ZM36.4 3.7C36.4 3.5 36.4 3.4 36.3 3.2 36.2 3.1 36.2 2.9 36.1 2.8 36 2.7 35.9 2.6 35.7 2.5 35.6 2.4 35.4 2.4 35.2 2.4 35 2.4 34.9 2.4 34.7 2.5 34.6 2.6 34.4 2.6 34.3 2.8 34.2 2.9 34.1 3 34 3.2 33.9 3.4 33.9 3.5 33.9 3.7L36.4 3.7 36.4 3.7ZM42.8 6.5C42.4 6.5 42.1 6.4 41.8 6.3 41.5 6.2 41.3 6 41.1 5.8 40.9 5.6 40.7 5.3 40.6 5 40.5 4.7 40.4 4.4 40.4 4 40.4 3.6 40.5 3.3 40.6 3 40.7 2.7 40.9 2.4 41.1 2.2 41.3 2 41.5 1.8 41.8 1.7 42.1 1.6 42.4 1.5 42.8 1.5 43.2 1.5 43.5 1.6 43.8 1.7 44.1 1.8 44.3 2 44.5 2.2 44.7 2.4 44.9 2.7 45 3 45.1 3.3 45.2 3.6 45.2 4 45.2 4.4 45.1 4.7 45 5 44.9 5.3 44.7 5.6 44.5 5.8 44.3 6 44.1 6.2 43.8 6.3 43.5 6.5 43.2 6.5 42.8 6.5L42.8 6.5ZM42.8 5.7C43 5.7 43.2 5.7 43.4 5.6 43.6 5.5 43.7 5.4 43.8 5.2 43.9 5 44 4.9 44 4.7 44.1 4.5 44.1 4.3 44.1 4.1 44.1 3.9 44.1 3.7 44 3.5 43.9 3.3 43.9 3.1 43.8 3 43.7 2.8 43.6 2.7 43.4 2.6 43.2 2.5 43 2.5 42.8 2.5 42.6 2.5 42.4 2.5 42.2 2.6 42 2.7 41.9 2.8 41.8 3 41.7 3.2 41.6 3.3 41.6 3.5 41.5 3.7 41.5 3.9 41.5 4.1 41.5 4.3 41.5 4.5 41.6 4.7 41.7 4.9 41.7 5.1 41.8 5.2 41.9 5.4 42 5.5 42.2 5.6 42.4 5.7 42.6 5.7 42.8 5.7L42.8 5.7Z"/><path fill="#F90" d="M46,1.7 L47,1.7 L47,2.4 L47,2.4 C47.2,2.1 47.4,1.9 47.6,1.8 C47.8,1.7 48.1,1.6 48.4,1.6 C48.9,1.6 49.3,1.7 49.6,2 C49.9,2.3 50,2.7 50,3.2 L50,6.4 L49,6.4 L49,3.5 C49,3.1 48.9,2.9 48.8,2.7 C48.7,2.5 48.4,2.5 48.1,2.5 C47.9,2.5 47.8,2.5 47.6,2.6 C47.5,2.7 47.3,2.7 47.2,2.9 C47.1,3 47,3.1 47,3.3 C46.9,3.5 46.9,3.6 46.9,3.8 L46.9,6.5 L45.9,6.5 L45.9,1.7 L46,1.7 Z"/></g><path fill="#000" d="M65.3,23 L65.3,21.9 C65.3,21.7 65.4,21.6 65.6,21.6 L70.3,21.6 C70.5,21.6 70.6,21.7 70.6,21.9 L70.6,22.8 C70.6,23 70.5,23.1 70.2,23.5 L67.8,27 C68.7,27 69.7,27.1 70.5,27.6 C70.7,27.7 70.7,27.9 70.8,28 L70.8,29.1 C70.8,29.3 70.6,29.4 70.5,29.3 C69,28.5 67.1,28.5 65.5,29.3 C65.3,29.4 65.2,29.2 65.2,29.1 L65.2,28 C65.2,27.8 65.2,27.5 65.4,27.3 L68.2,23.2 L65.7,23.2 C65.4,23.2 65.3,23.1 65.3,23 L65.3,23 Z M48,29.6 L46.6,29.6 C46.5,29.6 46.4,29.5 46.3,29.4 L46.3,22 C46.3,21.9 46.4,21.7 46.6,21.7 L47.9,21.7 C48,21.7 48.2,21.8 48.2,21.9 L48.2,22.9 L48.2,22.9 C48.5,22 49.2,21.5 50.1,21.5 C51,21.5 51.6,21.9 52,22.9 C52.3,22 53.1,21.5 54,21.5 C54.6,21.5 55.3,21.7 55.7,22.3 C56.2,22.9 56.1,23.8 56.1,24.6 L56.1,29.3 C56.1,29.4 56,29.6 55.8,29.6 L54.4,29.6 C54.3,29.6 54.1,29.5 54.1,29.3 L54.1,25.4 C54.1,25.1 54.1,24.3 54.1,24 C54,23.5 53.7,23.4 53.3,23.4 C53,23.4 52.6,23.6 52.4,24 C52.2,24.4 52.3,25 52.3,25.4 L52.3,29.3 C52.3,29.4 52.2,29.6 52,29.6 L50.6,29.6 C50.5,29.6 50.3,29.5 50.3,29.3 L50.3,25.4 C50.3,24.6 50.4,23.4 49.4,23.4 C48.4,23.4 48.4,24.6 48.4,25.4 L48.4,29.3 C48.3,29.5 48.2,29.6 48,29.6 L48,29.6 Z M74.6,21.5 C76.7,21.5 77.9,23.3 77.9,25.7 C77.9,28 76.6,29.7 74.6,29.7 C72.5,29.7 71.4,27.9 71.4,25.6 C71.4,23.3 72.5,21.5 74.6,21.5 L74.6,21.5 Z M74.6,23 C73.5,23 73.5,24.4 73.5,25.3 C73.5,26.2 73.5,28.1 74.6,28.1 C75.7,28.1 75.8,26.5 75.8,25.6 C75.8,25 75.8,24.2 75.6,23.6 C75.4,23.2 75.1,23 74.6,23 L74.6,23 Z M80.7,29.6 L79.3,29.6 C79.2,29.6 79,29.5 79,29.3 L79,21.9 C79,21.8 79.1,21.7 79.3,21.7 L80.6,21.7 C80.7,21.7 80.8,21.8 80.9,21.9 L80.9,23 L80.9,23 C81.3,22 81.9,21.5 82.9,21.5 C83.5,21.5 84.2,21.7 84.6,22.4 C85,23 85,24 85,24.7 L85,29.3 C85,29.4 84.9,29.5 84.7,29.5 L83.3,29.5 C83.2,29.5 83.1,29.4 83,29.3 L83,25.3 C83,24.5 83.1,23.3 82.1,23.3 C81.8,23.3 81.4,23.5 81.3,23.9 C81.1,24.4 81.1,24.8 81.1,25.3 L81.1,29.3 C81,29.5 80.8,29.6 80.7,29.6 L80.7,29.6 Z M86.5,29.7 C86.8865993,29.7 87.2,29.3865993 87.2,29 C87.2,28.6134007 86.8865993,28.3 86.5,28.3 C86.1134007,28.3 85.8,28.6134007 85.8,29 C85.8,29.3865993 86.1134007,29.7 86.5,29.7 Z M101,29.6 C100.9,29.6 100.7,29.5 100.7,29.3 L100.7,21.9 C100.7,21.8 100.8,21.7 101,21.7 L101.5,21.7 C101.6,21.7 101.8,21.8 101.8,21.9 L101.8,23 C102.2,22.1 102.9,21.5 103.8,21.5 L103.9,21.5 L104,21.5 C104.9,21.5 105.6,22.2 105.9,23.2 C106.3,22.2 107,21.5 108,21.5 L108.1,21.5 L108.2,21.5 C108.9,21.5 109.6,22 109.9,22.6 C110.2,23.3 110.2,24.1 110.2,24.9 L110.2,29.3 C110.2,29.4 110.1,29.6 109.9,29.6 L109.3,29.6 C109.2,29.6 109.1,29.5 109,29.4 L109,24.9 C109,24.4 109,23.8 108.8,23.3 C108.6,22.8 108.2,22.5 107.7,22.5 C107.2,22.5 106.7,22.9 106.4,23.4 C106,24 106,24.6 106,25.4 L106,29.4 C106,29.5 105.9,29.6 105.7,29.6 L105.1,29.6 C105,29.6 104.8,29.5 104.8,29.3 L104.8,24.6 C104.8,24.2 104.8,23.7 104.6,23.3 C104.4,22.9 104,22.6 103.5,22.5 C103,22.5 102.6,22.9 102.3,23.3 C102,23.8 101.9,24.4 101.9,25.1 L101.9,29.4 C101.9,29.5 101.8,29.7 101.6,29.7 L101,29.7 L101,29.6 Z M96.7,29.7 C94.7,29.7 93.7,27.6 93.7,25.5 C93.7,23.3 94.8,21.4 96.8,21.4 L96.9,21.4 L97,21.4 C99,21.4 100,23.4 100,25.5 C100,27.7 98.9,29.6 96.8,29.6 L96.7,29.6 L96.7,29.7 L96.7,29.7 Z M96.8,28.7 C97.5,28.7 98,28.3 98.3,27.6 C98.6,27 98.6,26.3 98.6,25.6 C98.6,24.9 98.5,24.1 98.2,23.4 C97.9,22.8 97.3,22.5 96.8,22.5 C96.2,22.5 95.6,23 95.3,23.6 C95,24.2 95,24.9 95,25.6 C95,26.3 95.1,27.1 95.4,27.8 C95.7,28.3 96.2,28.7 96.8,28.7 L96.8,28.7 Z M90.3,28.7 C91.2,28.7 91.7,27.9 91.9,27 C91.9,26.9 92,26.8 92.2,26.8 L92.8,26.8 C92.9,26.8 93.1,26.9 93.1,27 C92.8,28.6 91.8,29.7 90.5,29.7 L90.4,29.7 L90.3,29.7 C88.3,29.7 87.4,27.7 87.4,25.6 C87.4,23.6 88.3,21.5 90.3,21.5 L90.4,21.5 L90.5,21.5 C91.9,21.5 92.9,22.6 93.1,24.2 C93.1,24.3 93,24.4 92.9,24.4 L92.3,24.4 C92.2,24.4 92.1,24.3 92.1,24.1 C91.9,23.2 91.4,22.5 90.6,22.4 C89.2,22.4 88.8,24.1 88.8,25.4 C88.6,26.8 88.9,28.6 90.3,28.7 L90.3,28.7 Z M61.5,26 C61.5,26.6 61.5,27 61.2,27.5 C61,27.9 60.6,28.2 60.2,28.2 C59.6,28.2 59.3,27.8 59.3,27.2 C59.3,26 60.4,25.8 61.4,25.8 L61.4,26 L61.5,26 Z M63,29.6 C62.9,29.7 62.8,29.7 62.7,29.6 C62.2,29.2 62.1,29 61.9,28.6 C61.1,29.4 60.6,29.6 59.5,29.6 C58.3,29.6 57.3,28.9 57.3,27.4 C57.3,26.2 57.9,25.4 58.8,25 C59.6,24.7 60.7,24.6 61.5,24.5 L61.5,24.3 C61.5,24 61.5,23.6 61.3,23.3 C61.1,23 60.8,22.9 60.5,22.9 C60,22.9 59.5,23.2 59.3,23.8 C59.3,23.9 59.2,24.1 59.1,24.1 L57.7,23.9 C57.6,23.9 57.5,23.8 57.5,23.6 C57.8,21.9 59.3,21.4 60.7,21.4 C61.4,21.4 62.3,21.6 62.9,22.1 C63.6,22.8 63.5,23.6 63.5,24.6 L63.5,26.8 C63.5,27.5 63.8,27.8 64,28.1 C64.1,28.2 64.1,28.4 64,28.5 C63.8,28.8 63.3,29.3 63,29.6 L63,29.6 L63,29.6 Z M42.7,26 C42.7,26.6 42.7,27 42.4,27.5 C42.2,27.9 41.8,28.2 41.4,28.2 C40.8,28.2 40.5,27.8 40.5,27.2 C40.5,26 41.6,25.8 42.6,25.8 L42.6,26 L42.7,26 Z M44.1,29.6 C44,29.7 43.9,29.7 43.8,29.6 C43.3,29.2 43.2,29 43,28.6 C42.2,29.4 41.7,29.6 40.6,29.6 C39.4,29.6 38.4,28.9 38.4,27.4 C38.4,26.2 39,25.4 39.9,25 C40.7,24.7 41.8,24.6 42.6,24.5 L42.6,24.3 C42.6,24 42.6,23.6 42.4,23.3 C42.2,23 41.9,22.9 41.6,22.9 C41.1,22.9 40.6,23.2 40.4,23.8 C40.4,23.9 40.3,24.1 40.2,24.1 L38.8,23.9 C38.7,23.9 38.6,23.8 38.6,23.6 C38.9,21.9 40.4,21.4 41.8,21.4 C42.5,21.4 43.4,21.6 44,22.1 C44.7,22.8 44.6,23.6 44.6,24.6 L44.6,26.8 C44.6,27.5 44.9,27.8 45.1,28.1 C45.2,28.2 45.2,28.4 45.1,28.5 C44.9,28.8 44.4,29.3 44.1,29.6 L44.1,29.6 L44.1,29.6 Z"/></g></svg>