<svg xmlns="http://www.w3.org/2000/svg" xmlns:xlink="http://www.w3.org/1999/xlink" width="159" height="40" viewBox="0 0 159 40">
  <defs>
    <rect id="white-chrome-web-store-a" width="159" height="40" rx="3"/>
  </defs>
  <g fill="none" fill-rule="evenodd" opacity=".9">
    <mask id="white-chrome-web-store-b" fill="#fff">
      <use xlink:href="#white-chrome-web-store-a"/>
    </mask>
    <use fill="#FFF" xlink:href="#white-chrome-web-store-a"/>
    <rect width="158" height="39" x=".5" y=".5" stroke="#191919" rx="3"/>
    <path fill="#191919" fill-rule="nonzero" d="M20.45911,8.00047905 C22.5123602,7.9832329 24.4413742,8.4964656 26.2461521,9.54017717 C28.2307371,10.6864075 29.736422,12.2775248 30.7632067,14.3135288 L21.2418936,13.8129113 C19.8730602,13.7359424 18.6155282,14.0546768 17.4692979,14.7691147 C16.3230675,15.4835525 15.5318205,16.4651459 15.0955567,17.7138951 L11.5538677,12.2732132 C12.6489984,10.9130028 13.9791877,9.86290379 15.5444357,9.12291611 C17.1096837,8.38292844 18.7479084,8.00862307 20.45911,8 L20.45911,8.00047905 Z M10.8736028,13.1973195 L15.1980755,21.7049422 C15.8141463,22.9281415 16.716695,23.8563996 17.9057213,24.4897167 C19.0947477,25.1230337 20.3479681,25.315456 21.6653825,25.0669837 L18.7138952,30.8540258 C16.9001748,30.5716999 15.253327,29.8979822 13.7733517,28.8328726 C12.2933763,27.7677631 11.1278239,26.4161757 10.2766943,24.7781106 C9.42556477,23.1400456 9,21.3799799 9,19.4979138 C9,17.2137567 9.62453426,15.1135587 10.8736028,13.1973196 Z M31.2250204,15.3660231 C31.7213263,16.6492646 31.9758667,17.977378 31.9886417,19.3503633 C32.0014166,20.7233486 31.7939837,22.03214 31.366343,23.2767373 C30.9387023,24.5213346 30.2843067,25.6848111 29.403156,26.7671668 C28.5220054,27.8495225 27.4698304,28.7456837 26.2466311,29.4556503 C24.2789729,30.593577 22.1489135,31.1026578 19.8564527,30.9828929 L25.0532932,22.9888224 C25.8060558,21.8681418 26.1589632,20.6256205 26.1120153,19.2612582 C26.0650675,17.896896 25.6094816,16.7099455 24.7452578,15.7004069 L31.2250204,15.3660231 Z M20.4974347,15.6227992 C21.5666962,15.6227992 22.4799438,16.0014161 23.2371776,16.7586499 C23.9944114,17.5158838 24.3730284,18.4291314 24.3730284,19.4983928 C24.3730284,20.5676542 23.9944114,21.4809019 23.2371776,22.2381357 C22.4799438,22.9953695 21.5666962,23.3739864 20.4974347,23.3739864 C19.4281733,23.3739864 18.5149257,22.9953695 17.7576919,22.2381357 C17.000458,21.4809019 16.6218411,20.5676542 16.6218411,19.4983928 C16.6218411,18.4291314 17.000458,17.5158838 17.7576919,16.7586499 C18.5149257,16.0014161 19.4281733,15.6227992 20.4974347,15.6227992 Z" mask="url(#white-chrome-web-store-b)"/>
    <text fill="#191919" font-family="AvenirNext-Medium, Avenir Next" font-size="12" font-weight="400" letter-spacing="-.4" mask="url(#white-chrome-web-store-b)">
      <tspan x="38" y="15">Available in the</tspan>
    </text>
    <text fill="#191919" font-family="AvenirNext-DemiBold, Avenir Next" font-size="14" font-weight="500" letter-spacing="-.467" mask="url(#white-chrome-web-store-b)">
      <tspan x="38" y="31">Chrome Web Store</tspan>
    </text>
  </g>
</svg>
