<?xml version="1.0" encoding="UTF-8" standalone="no"?>
<svg width="130px" height="40px" viewBox="0 0 130 40" version="1.1" xmlns="http://www.w3.org/2000/svg" xmlns:xlink="http://www.w3.org/1999/xlink" xmlns:sketch="http://www.bohemiancoding.com/sketch/ns">
    <!-- Generator: Sketch 3.5.1 (25234) - http://www.bohemiancoding.com/sketch -->
    <title>white-window</title>
    <desc>Created with Sketch.</desc>
    <defs>
        <rect id="path-1" x="0" y="0" width="130" height="40" rx="3"></rect>
    </defs>
    <g id="Page-1" stroke="none" stroke-width="1" fill="none" fill-rule="evenodd" sketch:type="MSPage">
        <g id="Download" sketch:type="MSLayerGroup" transform="translate(-274.000000, -45.000000)">
            <g id="white-window" transform="translate(274.000000, 45.000000)">
                <mask id="mask-2" sketch:name="Mask" fill="white">
                    <use xlink:href="#path-1"></use>
                </mask>
                <use id="Mask" stroke="#191919" fill="#FFFFFF" sketch:type="MSShapeGroup" xlink:href="#path-1"></use>
                <g id="windows-badge" mask="url(#mask-2)">
                    <g transform="translate(11.000000, 8.000000)">
                        <g id="bag_3_" transform="translate(0.000000, 2.000000)">
                            <path d="M9,19.8 L0,18.5 L0,10.9 L9,10.9 L9,19.8 L9,19.8 Z M9,10.2 L0,10.2 L0,3 L9,1.7 L9,10.2 L9,10.2 Z M21.3,21.5 L9.7,19.8 L9.7,10.9 L21.3,10.9 L21.3,21.5 L21.3,21.5 Z M21.3,10.2 L9.7,10.2 L9.7,1.7 L21.3,-3.55271368e-15 L21.3,10.2 L21.3,10.2 Z" id="Shape" fill="#000000" sketch:type="MSShapeGroup"></path>
                        </g>
                        <g id="Group" transform="translate(30.000000, 0.000000)">
                            <path d="M6.8,7.7 C6.4,7.9 5.5,8.1 4.5,8.1 C3.4,8.1 2.4,7.8 1.7,7.1 C1.1,6.5 0.7,5.5 0.7,4.3 C0.7,2.1 2.2,0.4 4.7,0.4 C5.6,0.4 6.2,0.6 6.6,0.7 L6.4,1.5 C6,1.3 5.5,1.2 4.8,1.2 C3,1.2 1.8,2.3 1.8,4.2 C1.8,6.1 2.9,7.2 4.7,7.2 C5.3,7.2 5.8,7.1 6,7 L6,4.8 L4.5,4.8 L4.5,4 L6.9,4 L6.9,7.7 L6.8,7.7 Z" id="Shape" fill="#000000" sketch:type="MSShapeGroup"></path>
                            <path d="M8.8,5.5 C8.8,6.8 9.7,7.4 10.6,7.4 C11.3,7.4 11.7,7.3 12.1,7.1 L12.3,7.8 C12,8 11.4,8.1 10.5,8.1 C8.9,8.1 7.9,7 7.9,5.4 C7.9,3.8 8.8,2.5 10.4,2.5 C12.1,2.5 12.6,4 12.6,5 L12.6,5.5 L8.8,5.5 L8.8,5.5 Z M11.7,4.8 C11.7,4.2 11.4,3.2 10.4,3.2 C9.4,3.2 9,4.1 8.9,4.8 L11.7,4.8 L11.7,4.8 Z" id="Shape" fill="#000000" sketch:type="MSShapeGroup"></path>
                            <path d="M15,1.1 L15,2.6 L16.4,2.6 L16.4,3.3 L15,3.3 L15,6.2 C15,6.9 15.2,7.2 15.7,7.2 C16,7.2 16.1,7.2 16.3,7.1 L16.3,7.8 C16.1,7.9 15.8,7.9 15.4,7.9 C14.9,7.9 14.6,7.8 14.4,7.5 C14.1,7.2 14,6.7 14,6.1 L14,3.2 L13.2,3.2 L13.2,2.5 L14,2.5 L14,1.2 L15,1.1 L15,1.1 Z" id="Shape" fill="#000000" sketch:type="MSShapeGroup"></path>
                            <path d="M20.9,1.1 C20.9,1.4 20.7,1.7 20.3,1.7 C20,1.7 19.7,1.4 19.7,1.1 C19.7,0.8 20,0.5 20.3,0.5 C20.6,0.5 20.9,0.8 20.9,1.1 L20.9,1.1 Z M19.8,8 L19.8,2.6 L20.8,2.6 L20.8,8 L19.8,8 L19.8,8 Z" id="Shape" fill="#000000" sketch:type="MSShapeGroup"></path>
                            <path d="M23.5,1.1 L23.5,2.6 L24.9,2.6 L24.9,3.3 L23.5,3.3 L23.5,6.2 C23.5,6.9 23.7,7.2 24.2,7.2 C24.5,7.2 24.6,7.2 24.8,7.1 L24.8,7.8 C24.6,7.9 24.3,7.9 23.9,7.9 C23.4,7.9 23.1,7.8 22.9,7.5 C22.6,7.2 22.5,6.7 22.5,6.1 L22.5,3.2 L21.7,3.2 L21.7,2.5 L22.5,2.5 L22.5,1.2 L23.5,1.1 L23.5,1.1 Z" id="Shape" fill="#000000" sketch:type="MSShapeGroup"></path>
                            <path d="M33.1,5.3 C33.1,7.3 31.7,8.2 30.4,8.2 C29,8.2 27.8,7.1 27.8,5.4 C27.8,3.6 29,2.5 30.4,2.5 C32.1,2.5 33.1,3.6 33.1,5.3 L33.1,5.3 Z M28.9,5.3 C28.9,6.5 29.6,7.4 30.5,7.4 C31.4,7.4 32.1,6.5 32.1,5.3 C32.1,4.4 31.6,3.2 30.5,3.2 C29.4,3.2 28.9,4.3 28.9,5.3 L28.9,5.3 Z" id="Shape" fill="#000000" sketch:type="MSShapeGroup"></path>
                            <path d="M34.3,4.1 L34.3,2.6 L35.2,2.6 L35.3,3.5 L35.3,3.5 C35.6,3 36.2,2.5 37.1,2.5 C37.8,2.5 39,2.9 39,4.8 L39,8 L38,8 L38,4.9 C38,4 37.7,3.3 36.8,3.3 C36.2,3.3 35.7,3.8 35.5,4.3 C35.5,4.4 35.4,4.6 35.4,4.8 L35.4,8 L34.4,8 L34.4,4.1 L34.3,4.1 Z" id="Shape" fill="#000000" sketch:type="MSShapeGroup"></path>
                            <path d="M3.3,24.2 L0.6,13.3 L2.1,13.3 L3.4,18.8 C3.7,20.2 4,21.5 4.2,22.6 L4.2,22.6 C4.4,21.5 4.7,20.2 5.1,18.8 L6.5,13.3 L8,13.3 L9.3,18.8 C9.6,20.1 9.9,21.4 10.1,22.5 L10.1,22.5 C10.3,21.3 10.6,20.1 11,18.7 L12.4,13.2 L13.8,13.2 L10.7,24.1 L9.2,24.1 L7.8,18.4 C7.5,17 7.2,15.9 7.1,14.8 L7.1,14.8 C6.9,15.9 6.7,16.9 6.3,18.4 L4.8,24.1 L3.3,24.1 L3.3,24.2 Z" id="Shape" fill="#000000" sketch:type="MSShapeGroup"></path>
                            <path d="M16.3,14.1 C16.3,14.6 16,15 15.4,15 C14.9,15 14.5,14.6 14.5,14.1 C14.5,13.6 14.9,13.2 15.4,13.2 C16,13.3 16.3,13.6 16.3,14.1 L16.3,14.1 Z M14.7,24.2 L14.7,16.4 L16.1,16.4 L16.1,24.2 L14.7,24.2 L14.7,24.2 Z" id="Shape" fill="#000000" sketch:type="MSShapeGroup"></path>
                            <path d="M17.9,18.5 C17.9,17.7 17.9,17 17.8,16.4 L19.1,16.4 L19.2,17.7 L19.2,17.7 C19.6,17 20.5,16.2 21.8,16.2 C22.9,16.2 24.5,16.8 24.5,19.5 L24.5,24.2 L23.1,24.2 L23.1,19.7 C23.1,18.4 22.6,17.4 21.3,17.4 C20.4,17.4 19.6,18.1 19.4,18.9 C19.3,19.1 19.3,19.3 19.3,19.6 L19.3,24.3 L17.9,24.3 L17.9,18.5 L17.9,18.5 Z" id="Shape" fill="#000000" sketch:type="MSShapeGroup"></path>
                            <path d="M33.4,12.7 L33.4,22.2 C33.4,22.9 33.4,23.7 33.5,24.2 L32.2,24.2 L32.1,22.8 L32.1,22.8 C31.7,23.7 30.7,24.3 29.5,24.3 C27.6,24.3 26.2,22.7 26.2,20.3 C26.2,17.7 27.8,16.1 29.7,16.1 C30.9,16.1 31.7,16.7 32,17.3 L32,17.3 L32,12.6 L33.4,12.6 L33.4,12.7 Z M32,19.5 C32,19.3 32,19.1 31.9,18.9 C31.7,18 30.9,17.3 29.9,17.3 C28.4,17.3 27.6,18.6 27.6,20.3 C27.6,21.9 28.4,23.2 29.9,23.2 C30.8,23.2 31.7,22.6 32,21.5 C32,21.3 32.1,21.1 32.1,20.9 L32.1,19.5 L32,19.5 Z" id="Shape" fill="#000000" sketch:type="MSShapeGroup"></path>
                            <path d="M42.3,20.2 C42.3,23.1 40.3,24.4 38.4,24.4 C36.3,24.4 34.7,22.8 34.7,20.4 C34.7,17.8 36.4,16.2 38.6,16.2 C40.8,16.2 42.3,17.8 42.3,20.2 L42.3,20.2 Z M36.2,20.3 C36.2,22 37.2,23.3 38.6,23.3 C39.9,23.3 41,22 41,20.3 C41,19 40.3,17.3 38.7,17.3 C36.9,17.2 36.2,18.8 36.2,20.3 L36.2,20.3 Z" id="Shape" fill="#000000" sketch:type="MSShapeGroup"></path>
                            <path d="M44.1,16.3 L45.1,20.3 C45.3,21.2 45.5,22 45.7,22.8 L45.7,22.8 C45.9,22 46.1,21.2 46.4,20.3 L47.7,16.3 L48.9,16.3 L50.1,20.2 C50.4,21.1 50.6,22 50.8,22.8 L50.8,22.8 C50.9,22 51.1,21.2 51.4,20.3 L52.5,16.4 L53.9,16.4 L51.4,24.2 L50.1,24.2 L48.9,20.5 C48.6,19.6 48.4,18.9 48.2,17.9 L48.2,17.9 C48,18.8 47.8,19.6 47.5,20.5 L46.2,24.2 L45,24.2 L42.7,16.4 L44.1,16.4 L44.1,16.3 Z" id="Shape" fill="#000000" sketch:type="MSShapeGroup"></path>
                            <path d="M55,22.7 C55.4,23 56.2,23.3 56.9,23.3 C57.9,23.3 58.4,22.8 58.4,22.1 C58.4,21.4 58,21 57,20.7 C55.6,20.2 54.9,19.4 54.9,18.5 C54.9,17.2 55.9,16.2 57.6,16.2 C58.4,16.2 59.1,16.4 59.5,16.7 L59.1,17.7 C58.8,17.5 58.2,17.2 57.5,17.2 C56.7,17.2 56.2,17.7 56.2,18.3 C56.2,18.9 56.7,19.2 57.7,19.6 C59,20.1 59.7,20.8 59.7,22 C59.7,23.4 58.6,24.3 56.8,24.3 C55.9,24.3 55.2,24.1 54.6,23.8 L55,22.7 L55,22.7 Z" id="Shape" fill="#000000" sketch:type="MSShapeGroup"></path>
                            <path d="M66.3,15 L66.3,15 L64.5,16 L64.2,14.9 L66.5,13.7 L67.7,13.7 L67.7,24.2 L66.3,24.2 L66.3,15 L66.3,15 Z" id="Shape" fill="#000000" sketch:type="MSShapeGroup"></path>
                            <path d="M77.5,18.8 C77.5,22.4 76.2,24.3 73.9,24.3 C71.9,24.3 70.5,22.4 70.4,18.9 C70.4,15.4 71.9,13.4 74,13.4 C76.3,13.5 77.5,15.5 77.5,18.8 L77.5,18.8 Z M71.8,19 C71.8,21.7 72.6,23.3 73.9,23.3 C75.3,23.3 76,21.6 76,18.9 C76,16.3 75.3,14.6 73.9,14.6 C72.7,14.6 71.8,16.1 71.8,19 L71.8,19 Z" id="Shape" fill="#000000" sketch:type="MSShapeGroup"></path>
                        </g>
                    </g>
                </g>
            </g>
        </g>
    </g>
</svg>