<svg xmlns="http://www.w3.org/2000/svg" xmlns:xlink="http://www.w3.org/1999/xlink" width="108" height="40" viewBox="0 0 108 40"><defs><path id="a" d="M0,3.0065012 C0,1.34605644 1.34596999,0 3.00125831,0 L104.998742,0 C106.656291,0 108,1.34230941 108,3.0065012 L108,36.9934988 C108,38.6539436 106.65403,40 104.998742,40 L3.00125831,40 C1.34370912,40 0,38.6576906 0,36.9934988 L0,3.0065012 Z"/></defs><g fill="none" fill-rule="evenodd" opacity=".9"><mask id="b" fill="#fff"><use xlink:href="#a"/></mask><path stroke="#191919" d="M104.998742,0.5 C105.689754,0.5 106.315349,0.779892576 106.768008,1.23334259 C107.220454,1.68657909 107.5,2.31309867 107.5,3.0065012 L107.5,36.9934988 C107.5,37.6855015 107.219613,38.3120084 106.766798,38.7656144 C106.313979,39.2192251 105.688651,39.5 104.998742,39.5 L3.00125831,39.5 C2.31024557,39.5 1.68465128,39.2201074 1.23199202,38.7666574 C0.779545888,38.3134209 0.5,37.6869013 0.5,36.9934988 L0.5,3.0065012 C0.5,2.31449848 0.780386589,1.68799162 1.23320163,1.23438556 C1.68602125,0.780774908 2.31134899,0.5 3.00125831,0.5 L104.998742,0.5 Z"/><path fill="#191919" d="M41.051 8C41.87 8 42.518 8.18 42.995 8.558 43.454 8.918 43.742 9.449 43.859 10.169L42.869 10.169C42.779 9.737 42.581 9.413 42.275 9.197 41.969 8.972 41.555 8.864 41.051 8.864 40.43 8.864 39.935 9.071 39.566 9.503 39.17 9.953 38.981 10.574 38.981 11.366 38.981 12.14 39.152 12.734 39.512 13.148 39.89 13.598 40.484 13.823 41.285 13.823 41.6 13.823 41.897 13.778 42.176 13.706 42.446 13.634 42.68 13.526 42.896 13.391L42.896 11.996 41.123 11.996 41.123 11.159 43.877 11.159 43.877 13.859C43.544 14.12 43.157 14.318 42.716 14.462 42.248 14.606 41.735 14.678 41.177 14.678 40.151 14.678 39.359 14.354 38.792 13.706 38.261 13.103 38 12.32 38 11.366 38 10.403 38.261 9.611 38.792 8.99 39.35 8.324 40.106 8 41.051 8ZM46.787 9.773C47.543 9.773 48.128 10.025 48.524 10.547 48.884 11.015 49.073 11.663 49.082 12.491L45.554 12.491C45.59 12.941 45.707 13.292 45.923 13.535 46.139 13.769 46.436 13.895 46.814 13.895 47.147 13.895 47.417 13.814 47.624 13.661 47.786 13.535 47.921 13.328 48.047 13.058L49.001 13.058C48.893 13.49 48.686 13.859 48.362 14.147 47.957 14.498 47.444 14.678 46.823 14.678 46.139 14.678 45.59 14.462 45.194 14.039 44.762 13.589 44.546 12.986 44.546 12.221 44.546 11.528 44.744 10.952 45.158 10.484 45.554 10.007 46.103 9.773 46.787 9.773ZM46.814 10.556C46.454 10.556 46.175 10.655 45.959 10.871 45.761 11.078 45.626 11.375 45.572 11.771L48.083 11.771C47.993 10.961 47.57 10.556 46.814 10.556ZM51.155 8.396 51.155 9.899 52.217 9.899 52.217 10.691 51.155 10.691 51.155 13.391C51.155 13.517 51.182 13.607 51.236 13.67 51.29 13.724 51.371 13.76 51.488 13.76L52.1 13.76 52.1 14.552 51.335 14.552C50.939 14.552 50.642 14.444 50.462 14.237 50.282 14.039 50.201 13.76 50.201 13.391L50.201 10.691 49.337 10.691 49.337 9.899 50.201 9.899 50.201 8.792 51.155 8.396ZM56.3540001 8.036C56.5430001 8.036 56.7050001 8.09 56.8310001 8.216 56.9570001 8.333 57.0200001 8.486 57.0200001 8.675 57.0200001 8.864 56.9480001 9.017 56.8220001 9.143 56.6960001 9.26 56.5340001 9.323 56.3540001 9.323 56.1650001 9.323 56.0120001 9.26 55.8860001 9.143 55.7600001 9.017 55.6970001 8.855 55.6970001 8.675 55.6970001 8.486 55.7600001 8.333 55.8860001 8.216 56.0120001 8.09 56.1650001 8.036 56.3540001 8.036ZM55.8770001 9.899 56.8310001 9.899 56.8310001 14.552 55.8770001 14.552 55.8770001 9.899ZM59.3810001 8.396 59.3810001 9.899 60.4430001 9.899 60.4430001 10.691 59.3810001 10.691 59.3810001 13.391C59.3810001 13.517 59.4080001 13.607 59.4620001 13.67 59.5160001 13.724 59.5970001 13.76 59.7140001 13.76L60.3260001 13.76 60.3260001 14.552 59.5610001 14.552C59.1650001 14.552 58.8680001 14.444 58.6880001 14.237 58.5080001 14.039 58.4270001 13.76 58.4270001 13.391L58.4270001 10.691 57.5630001 10.691 57.5630001 9.899 58.4270001 9.899 58.4270001 8.792 59.3810001 8.396ZM66.0470002 9.773C66.7490002 9.773 67.3160002 10.007 67.7390002 10.475 68.1530002 10.934 68.3690002 11.519 68.3690002 12.23 68.3690002 12.932 68.1620002 13.517 67.7480002 13.967 67.3160002 14.435 66.7490002 14.678 66.0470002 14.678 65.3450002 14.678 64.7780002 14.435 64.3460002 13.967 63.9320002 13.517 63.7250002 12.932 63.7250002 12.23 63.7250002 11.519 63.9320002 10.934 64.3550002 10.475 64.7780002 10.007 65.3450002 9.773 66.0470002 9.773ZM66.0470002 10.556C65.6060002 10.556 65.2640002 10.727 65.0210002 11.078 64.8050002 11.375 64.7060002 11.762 64.7060002 12.23 64.7060002 12.698 64.8050002 13.076 65.0210002 13.373 65.2640002 13.715 65.6060002 13.895 66.0470002 13.895 66.4880002 13.895 66.8300002 13.715 67.0820002 13.373 67.2980002 13.067 67.4060002 12.689 67.4060002 12.23 67.4060002 11.762 67.2980002 11.375 67.0820002 11.078 66.8300002 10.727 66.4880002 10.556 66.0470002 10.556ZM71.4860002 9.773C72.6380002 9.773 73.2230002 10.403 73.2230002 11.681L73.2230002 14.552 72.2690002 14.552 72.2690002 11.762C72.2690002 10.97 71.9000002 10.574 71.1800002 10.574 70.9100002 10.574 70.6670002 10.664 70.4690002 10.862 70.2530002 11.078 70.1180002 11.375 70.0820002 11.753L70.0820002 14.552 69.1280002 14.552 69.1280002 9.899 70.0820002 9.899 70.0820002 10.475C70.2620002 10.241 70.4690002 10.07 70.7030002 9.953 70.9370002 9.827 71.1980002 9.773 71.4860002 9.773ZM42.464 20.546C43.832 20.546 44.822 21.068 45.398 22.112 45.812 21.536 46.262 21.122 46.73 20.888 47.162 20.654 47.684 20.546 48.314 20.546 49.268 20.546 50.06 20.852 50.69 21.5 51.302 22.13 51.626 22.958 51.626 24.002L51.626 30.104 49.718 30.104 49.718 24.326C49.718 23.57 49.556 23.012 49.232 22.67 48.908 22.31 48.368 22.148 47.648 22.148 47.108 22.148 46.676 22.346 46.316 22.742 45.956 23.138 45.776 23.696 45.776 24.38L45.776 30.104 43.868 30.104 43.868 24.344C43.868 22.868 43.22 22.148 41.96 22.148 41.348 22.148 40.844 22.382 40.484 22.85 40.088 23.3 39.908 23.858 39.908 24.506L39.908 30.104 38 30.104 38 20.798 39.908 20.798 39.908 21.824C40.664 20.96 41.528 20.546 42.464 20.546ZM57.68 20.546C59.048 20.546 60.056 20.888 60.704 21.572 61.262 22.166 61.55 23.03 61.55 24.164L61.55 30.104 59.786 30.104 59.786 28.79C59.426 29.258 58.976 29.636 58.436 29.906 57.824 30.194 57.104 30.356 56.276 30.356 55.304 30.356 54.548 30.104 54.008 29.618 53.414 29.132 53.126 28.502 53.126 27.728 53.126 26.684 53.54 25.874 54.368 25.316 55.124 24.776 56.204 24.506 57.572 24.47L59.66 24.416 59.66 24.038C59.66 22.742 58.958 22.094 57.554 22.094 56.96 22.094 56.474 22.202 56.114 22.418 55.682 22.67 55.412 23.048 55.304 23.57L53.414 23.408C53.612 22.4 54.116 21.644 54.908 21.176 55.592 20.744 56.528 20.546 57.68 20.546ZM59.66 25.802 57.698 25.856C55.952 25.892 55.088 26.504 55.088 27.656 55.088 28.016 55.232 28.304 55.538 28.538 55.826 28.772 56.222 28.898 56.708 28.898 57.518 28.898 58.202 28.646 58.778 28.16 59.354 27.674 59.66 27.062 59.66 26.342L59.66 25.802ZM67.568 20.546C68.756 20.546 69.71 20.816 70.43 21.356 71.15 21.932 71.618 22.796 71.798 23.948L69.908 23.948C69.782 23.318 69.53 22.85 69.134 22.562 68.738 22.256 68.216 22.112 67.568 22.112 66.776 22.112 66.164 22.4 65.714 22.994 65.246 23.57 65.03 24.398 65.03 25.442 65.03 26.486 65.246 27.314 65.696 27.908 66.11 28.484 66.722 28.79 67.55 28.79 68.972 28.79 69.764 28.07 69.944 26.666L71.834 26.666C71.618 27.908 71.132 28.844 70.412 29.456 69.692 30.05 68.72 30.356 67.532 30.356 66.11 30.356 65.012 29.888 64.22 28.952 63.446 28.052 63.068 26.9 63.068 25.46 63.068 24.056 63.446 22.904 64.202 22.004 65.012 21.032 66.128 20.546 67.568 20.546ZM79.04 17C80.984 17 82.532 17.63 83.666 18.908 84.746 20.114 85.286 21.716 85.286 23.696 85.286 25.658 84.746 27.242 83.666 28.466 82.532 29.726 80.984 30.356 79.04 30.356 77.078 30.356 75.53 29.708 74.414 28.448 73.334 27.224 72.812 25.64 72.812 23.696 72.812 21.734 73.334 20.15 74.414 18.926 75.53 17.63 77.078 17 79.04 17ZM79.04 18.728C77.672 18.728 76.61 19.178 75.854 20.114 75.134 20.996 74.774 22.184 74.774 23.696 74.774 25.19 75.134 26.378 75.854 27.26 76.61 28.16 77.672 28.628 79.04 28.628 80.408 28.628 81.47 28.178 82.208 27.296 82.928 26.432 83.306 25.226 83.306 23.696 83.306 22.148 82.928 20.942 82.208 20.06 81.47 19.16 80.408 18.728 79.04 18.728ZM91.466 17C92.96 17 94.13 17.306 94.976 17.954 95.876 18.62 96.38 19.646 96.506 21.05L94.562 21.05C94.382 20.222 94.058 19.61 93.554 19.25 93.05 18.872 92.33 18.692 91.358 18.692 90.512 18.692 89.864 18.818 89.414 19.07 88.856 19.358 88.586 19.826 88.586 20.474 88.586 21.05 88.892 21.5 89.54 21.842 89.828 22.004 90.566 22.274 91.772 22.634 93.5 23.174 94.634 23.588 95.138 23.894 96.236 24.56 96.794 25.478 96.794 26.666 96.794 27.818 96.344 28.718 95.444 29.384 94.544 30.032 93.284 30.356 91.664 30.356 90.098 30.356 88.874 30.032 87.992 29.42 86.93 28.664 86.354 27.476 86.246 25.856L88.19 25.856C88.334 26.864 88.694 27.602 89.27 28.034 89.792 28.43 90.584 28.628 91.664 28.628 92.636 28.628 93.41 28.448 93.986 28.124 94.562 27.8 94.85 27.35 94.85 26.774 94.85 26.054 94.436 25.496 93.626 25.082 93.338 24.938 92.492 24.65 91.07 24.218 89.486 23.714 88.514 23.372 88.118 23.156 87.128 22.562 86.642 21.698 86.642 20.582 86.642 19.448 87.11 18.566 88.064 17.918 88.964 17.306 90.098 17 91.466 17Z" mask="url(#b)"/><path fill="#000" d="M23.3585539 11.9548032C21.5523143 11.9548032 20.0312704 13.0895934 19.0806179 13.0895934 17.939835 13.0895934 16.8941173 12.049369 15.040345 12.049369 11.4753983 12.049369 8.52837566 15.4064569 9.09876714 20.5130132 9.62162598 25.0994572 12.9013769 30.3005793 15.3255407 30.3005793 16.8465846 30.3005793 17.5120413 29.3076378 19.3658136 29.3076378 21.2195859 29.3076378 21.7424448 30.2532964 23.3585539 30.2532964 26.0679134 30.2532964 28.3019467 25.4777206 28.7772729 23.8701011 25.0221957 22.3570474 24.0715433 16.9195106 28.1593488 14.3662325 28.1593484 14.3662328 26.5907723 11.9548032 23.3585539 11.9548032ZM23.7388149 6.139003C21.1245207 6.32813471 18.6052917 8.88141283 18.8904874 11.7183885 21.6949121 11.8129544 24.0240107 8.97597869 23.7388149 6.139003L23.7388149 6.139003Z" mask="url(#b)"/></g></svg>