<svg xmlns="http://www.w3.org/2000/svg" width="130" height="40" viewBox="0 0 130 40"><g fill="none" fill-rule="evenodd" opacity=".9"><rect width="129" height="39" x=".5" y=".5" fill="#FFF" stroke="#191919" rx="3"/><path fill="#000" d="M47.8 15.7C47.4 15.9 46.5 16.1 45.5 16.1 44.4 16.1 43.4 15.8 42.7 15.1 42.1 14.5 41.7 13.5 41.7 12.3 41.7 10.1 43.2 8.4 45.7 8.4 46.6 8.4 47.2 8.6 47.6 8.7L47.4 9.5C47 9.3 46.5 9.2 45.8 9.2 44 9.2 42.8 10.3 42.8 12.2 42.8 14.1 43.9 15.2 45.7 15.2 46.3 15.2 46.8 15.1 47 15L47 12.8 45.5 12.8 45.5 12 47.9 12 47.9 15.7 47.8 15.7ZM49.8 13.5C49.8 14.8 50.7 15.4 51.6 15.4 52.3 15.4 52.7 15.3 53.1 15.1L53.3 15.8C53 16 52.4 16.1 51.5 16.1 49.9 16.1 48.9 15 48.9 13.4 48.9 11.8 49.8 10.5 51.4 10.5 53.1 10.5 53.6 12 53.6 13 53.6 13.2 53.6 13.4 53.6 13.5L49.8 13.5 49.8 13.5ZM52.7 12.8C52.7 12.2 52.4 11.2 51.4 11.2 50.4 11.2 50 12.1 49.9 12.8L52.7 12.8 52.7 12.8ZM56 9.1 56 10.6 57.4 10.6 57.4 11.3 56 11.3 56 14.2C56 14.9 56.2 15.2 56.7 15.2 57 15.2 57.1 15.2 57.3 15.1L57.3 15.8C57.1 15.9 56.8 15.9 56.4 15.9 55.9 15.9 55.6 15.8 55.4 15.5 55.1 15.2 55 14.7 55 14.1L55 11.2 54.2 11.2 54.2 10.5 55 10.5 55 9.2 56 9.1 56 9.1ZM61.9 9.1C61.9 9.4 61.7 9.7 61.3 9.7 61 9.7 60.7 9.4 60.7 9.1 60.7 8.8 61 8.5 61.3 8.5 61.6 8.5 61.9 8.8 61.9 9.1L61.9 9.1ZM60.8 16 60.8 10.6 61.8 10.6 61.8 16 60.8 16 60.8 16ZM64.5 9.1 64.5 10.6 65.9 10.6 65.9 11.3 64.5 11.3 64.5 14.2C64.5 14.9 64.7 15.2 65.2 15.2 65.5 15.2 65.6 15.2 65.8 15.1L65.8 15.8C65.6 15.9 65.3 15.9 64.9 15.9 64.4 15.9 64.1 15.8 63.9 15.5 63.6 15.2 63.5 14.7 63.5 14.1L63.5 11.2 62.7 11.2 62.7 10.5 63.5 10.5 63.5 9.2 64.5 9.1 64.5 9.1ZM74.1 13.3C74.1 15.3 72.7 16.2 71.4 16.2 70 16.2 68.8 15.1 68.8 13.4 68.8 11.6 70 10.5 71.4 10.5 73.1 10.5 74.1 11.6 74.1 13.3L74.1 13.3ZM69.9 13.3C69.9 14.5 70.6 15.4 71.5 15.4 72.4 15.4 73.1 14.5 73.1 13.3 73.1 12.4 72.6 11.2 71.5 11.2 70.4 11.2 69.9 12.3 69.9 13.3L69.9 13.3ZM75.3 12.1C75.3 11.5 75.3 11.1 75.3 10.6L76.2 10.6 76.3 11.5 76.3 11.5C76.6 11 77.2 10.5 78.1 10.5 78.8 10.5 80 10.9 80 12.8L80 16 79 16 79 12.9C79 12 78.7 11.3 77.8 11.3 77.2 11.3 76.7 11.8 76.5 12.3 76.5 12.4 76.4 12.6 76.4 12.8L76.4 16 75.4 16 75.4 12.1 75.3 12.1ZM44.3 32.2 41.6 21.3 43.1 21.3 44.4 26.8C44.7 28.2 45 29.5 45.2 30.6L45.2 30.6C45.4 29.5 45.7 28.2 46.1 26.8L47.5 21.3 49 21.3 50.3 26.8C50.6 28.1 50.9 29.4 51.1 30.5L51.1 30.5C51.3 29.3 51.6 28.1 52 26.7L53.4 21.2 54.8 21.2 51.7 32.1 50.2 32.1 48.8 26.4C48.5 25 48.2 23.9 48.1 22.8L48.1 22.8C47.9 23.9 47.7 24.9 47.3 26.4L45.8 32.1 44.3 32.1 44.3 32.2ZM57.3 22.1C57.3 22.6 57 23 56.4 23 55.9 23 55.5 22.6 55.5 22.1 55.5 21.6 55.9 21.2 56.4 21.2 57 21.3 57.3 21.6 57.3 22.1L57.3 22.1ZM55.7 32.2 55.7 24.4 57.1 24.4 57.1 32.2 55.7 32.2 55.7 32.2ZM58.9 26.5C58.9 25.7 58.9 25 58.8 24.4L60.1 24.4 60.2 25.7 60.2 25.7C60.6 25 61.5 24.2 62.8 24.2 63.9 24.2 65.5 24.8 65.5 27.5L65.5 32.2 64.1 32.2 64.1 27.7C64.1 26.4 63.6 25.4 62.3 25.4 61.4 25.4 60.6 26.1 60.4 26.9 60.3 27.1 60.3 27.3 60.3 27.6L60.3 32.3 58.9 32.3 58.9 26.5 58.9 26.5ZM74.4 20.7 74.4 30.2C74.4 30.9 74.4 31.7 74.5 32.2L73.2 32.2 73.1 30.8 73.1 30.8C72.7 31.7 71.7 32.3 70.5 32.3 68.6 32.3 67.2 30.7 67.2 28.3 67.2 25.7 68.8 24.1 70.7 24.1 71.9 24.1 72.7 24.7 73 25.3L73 25.3 73 20.6 74.4 20.6 74.4 20.7ZM73 27.5C73 27.3 73 27.1 72.9 26.9 72.7 26 71.9 25.3 70.9 25.3 69.4 25.3 68.6 26.6 68.6 28.3 68.6 29.9 69.4 31.2 70.9 31.2 71.8 31.2 72.7 30.6 73 29.5 73 29.3 73.1 29.1 73.1 28.9L73.1 27.5 73 27.5ZM83.3 28.2C83.3 31.1 81.3 32.4 79.4 32.4 77.3 32.4 75.7 30.8 75.7 28.4 75.7 25.8 77.4 24.2 79.6 24.2 81.8 24.2 83.3 25.8 83.3 28.2L83.3 28.2ZM77.2 28.3C77.2 30 78.2 31.3 79.6 31.3 80.9 31.3 82 30 82 28.3 82 27 81.3 25.3 79.7 25.3 77.9 25.2 77.2 26.8 77.2 28.3L77.2 28.3ZM85.1 24.3 86.1 28.3C86.3 29.2 86.5 30 86.7 30.8L86.7 30.8C86.9 30 87.1 29.2 87.4 28.3L88.7 24.3 89.9 24.3 91.1 28.2C91.4 29.1 91.6 30 91.8 30.8L91.8 30.8C91.9 30 92.1 29.2 92.4 28.3L93.5 24.4 94.9 24.4 92.4 32.2 91.1 32.2 89.9 28.5C89.6 27.6 89.4 26.9 89.2 25.9L89.2 25.9C89 26.8 88.8 27.6 88.5 28.5L87.2 32.2 86 32.2 83.7 24.4 85.1 24.4 85.1 24.3ZM96 30.7C96.4 31 97.2 31.3 97.9 31.3 98.9 31.3 99.4 30.8 99.4 30.1 99.4 29.4 99 29 98 28.7 96.6 28.2 95.9 27.4 95.9 26.5 95.9 25.2 96.9 24.2 98.6 24.2 99.4 24.2 100.1 24.4 100.5 24.7L100.1 25.7C99.8 25.5 99.2 25.2 98.5 25.2 97.7 25.2 97.2 25.7 97.2 26.3 97.2 26.9 97.7 27.2 98.7 27.6 100 28.1 100.7 28.8 100.7 30 100.7 31.4 99.6 32.3 97.8 32.3 96.9 32.3 96.2 32.1 95.6 31.8L96 30.7 96 30.7ZM107.3 23 107.3 23 105.5 24 105.2 22.9 107.5 21.7 108.7 21.7 108.7 32.2 107.3 32.2 107.3 23 107.3 23ZM118.5 26.8C118.5 30.4 117.2 32.3 114.9 32.3 112.9 32.3 111.5 30.4 111.4 26.9 111.4 23.4 112.9 21.4 115 21.4 117.3 21.5 118.5 23.5 118.5 26.8L118.5 26.8ZM112.8 27C112.8 29.7 113.6 31.3 114.9 31.3 116.3 31.3 117 29.6 117 26.9 117 24.3 116.3 22.6 114.9 22.6 113.7 22.6 112.8 24.1 112.8 27L112.8 27ZM20 29.8 11 28.5 11 20.9 20 20.9 20 29.8 20 29.8ZM20 20.2 11 20.2 11 13 20 11.7 20 20.2 20 20.2ZM32.3 31.5 20.7 29.8 20.7 20.9 32.3 20.9 32.3 31.5 32.3 31.5ZM32.3 20.2 20.7 20.2 20.7 11.7 32.3 10 32.3 20.2 32.3 20.2Z"/></g></svg>