<?xml version="1.0" encoding="UTF-8" standalone="no"?>
<svg width="119px" height="40px" viewBox="0 0 119 40" version="1.1" xmlns="http://www.w3.org/2000/svg" xmlns:xlink="http://www.w3.org/1999/xlink" xmlns:sketch="http://www.bohemiancoding.com/sketch/ns">
    <!-- Generator: Sketch 3.5.1 (25234) - http://www.bohemiancoding.com/sketch -->
    <title>white-amazon</title>
    <desc>Created with Sketch.</desc>
    <defs>
        <rect id="path-1" x="0" y="0" width="119" height="40" rx="3"></rect>
    </defs>
    <g id="Page-1" stroke="none" stroke-width="1" fill="none" fill-rule="evenodd" sketch:type="MSPage">
        <g id="Download" sketch:type="MSLayerGroup" transform="translate(-586.000000, -45.000000)">
            <g id="white-amazon" transform="translate(586.000000, 45.000000)">
                <mask id="mask-2" sketch:name="Mask" fill="white">
                    <use xlink:href="#path-1"></use>
                </mask>
                <use id="Mask" stroke="#191919" fill="#FFFFFF" sketch:type="MSShapeGroup" xlink:href="#path-1"></use>
                <g id="Badges" mask="url(#mask-2)">
                    <g transform="translate(7.000000, 8.000000)">
                        <path d="M20.4,20.5 C10.7,25.1 4.7,21.3 0.9,18.9 C0.7,18.8 0.3,18.9 0.6,19.3 C1.9,20.9 6.1,24.6 11.6,24.6 C17.1,24.6 20.3,21.6 20.8,21.1 C21.1,20.6 20.9,20.3 20.4,20.5 L20.4,20.5 Z" id="Shape" fill="#FF9900" sketch:type="MSShapeGroup"></path>
                        <path d="M23.2,19 C22.9,18.7 21.6,18.6 20.8,18.7 C20,18.8 18.7,19.3 18.8,19.6 C18.9,19.7 19,19.7 19.5,19.6 C20.1,19.5 21.7,19.3 22,19.8 C22.3,20.2 21.5,22.3 21.3,22.7 C21.2,23 21.4,23.1 21.6,22.9 C21.9,22.7 22.4,22.1 22.7,21.3 C23.2,20.4 23.4,19.2 23.2,19 L23.2,19 Z" id="Shape" fill="#000000" sketch:type="MSShapeGroup"></path>
                        <path d="M18,13.1 L18,5.4 C18,4.1 16.7,1.1 12.1,1.1 C7.5,1.1 5,4 5,6.6 L8.9,6.9 C8.9,6.9 9.8,4.3 11.7,4.3 C13.7,4.3 13.6,5.9 13.6,6.3 L13.6,8 C11,8.1 4.7,8.8 4.7,14.2 C4.7,19.9 11.9,20.2 14.3,16.5 C14.4,16.7 14.5,16.8 14.6,16.9 C15.5,17.8 16.6,18.9 16.6,18.9 L19.6,16 C19.7,15.9 18,14.6 18,13.1 L18,13.1 Z M13.6,12.5 C13.6,16.7 9.2,16.1 9.2,13.4 C9.2,10.9 11.8,10.4 13.6,10.4 L13.6,12.5 L13.6,12.5 Z" id="Shape" fill="#000000" sketch:type="MSShapeGroup"></path>
                        <g id="Group" stroke-width="1" fill="none" sketch:type="MSLayerGroup" transform="translate(31.000000, 0.000000)">
                            <path d="M2.9,0.1 L4.1,0.1 L6.6,6.5 L5.4,6.5 L4.8,4.8 L2.2,4.8 L1.6,6.5 L0.4,6.5 L2.9,0.1 L2.9,0.1 Z M2.5,3.9 L4.5,3.9 L3.5,1.1 L3.5,1.1 L2.5,3.9 L2.5,3.9 Z" id="Shape" fill="#000000" sketch:type="MSShapeGroup"></path>
                            <path d="M6.4,1.8 L7.5,1.8 L8.7,5.4 L8.7,5.4 L9.8,1.8 L10.9,1.8 L9.2,6.5 L8,6.5 L6.4,1.8 L6.4,1.8 Z" id="Shape" fill="#000000" sketch:type="MSShapeGroup"></path>
                            <path d="M15.4,5.5 L15.4,5.8 C15.4,5.9 15.5,5.9 15.6,5.9 L15.7,5.9 L15.8,5.9 L15.8,6.6 L15.7,6.6 L15.5,6.6 L15.3,6.6 L15.1,6.6 C14.9,6.6 14.7,6.6 14.6,6.5 C14.5,6.4 14.4,6.3 14.3,6.1 C14.1,6.3 13.8,6.4 13.5,6.5 C13.2,6.6 12.9,6.6 12.6,6.6 C12.4,6.6 12.2,6.6 12,6.5 C11.8,6.4 11.6,6.4 11.5,6.2 C11.4,6.1 11.2,5.9 11.1,5.8 C11,5.6 11,5.4 11,5.2 C11,4.9 11.1,4.7 11.2,4.5 C11.3,4.3 11.4,4.2 11.6,4.1 C11.8,4 12,3.9 12.2,3.9 C12.4,3.9 12.6,3.8 12.8,3.8 C13,3.8 13.2,3.7 13.3,3.7 C13.5,3.7 13.6,3.7 13.7,3.6 C13.8,3.5 13.9,3.5 14,3.4 C14.1,3.3 14.1,3.2 14.1,3.1 C14.1,3 14.1,2.9 14,2.8 C13.9,2.7 13.9,2.7 13.8,2.6 C13.7,2.5 13.6,2.5 13.5,2.5 L13.2,2.5 C12.9,2.5 12.7,2.6 12.5,2.7 C12.3,2.8 12.2,3 12.2,3.3 L11.2,3.3 C11.2,3 11.3,2.8 11.4,2.6 C11.5,2.4 11.7,2.2 11.9,2.1 C12.1,2 12.3,1.9 12.6,1.8 C12.8,1.8 13.1,1.7 13.4,1.7 C13.6,1.7 13.9,1.7 14.1,1.8 C14.3,1.8 14.5,1.9 14.7,2 C14.9,2.1 15,2.2 15.1,2.4 C15.2,2.6 15.3,2.8 15.3,3 L15.3,5.5 L15.4,5.5 Z M14.4,4.2 C14.2,4.3 14.1,4.4 13.8,4.4 C13.6,4.4 13.3,4.5 13.1,4.5 C13,4.5 12.9,4.5 12.8,4.6 C12.7,4.6 12.6,4.7 12.5,4.7 C12.4,4.8 12.4,4.8 12.3,4.9 C12.3,5 12.2,5.1 12.2,5.2 C12.2,5.3 12.2,5.4 12.3,5.5 C12.4,5.6 12.4,5.6 12.5,5.7 C12.6,5.8 12.7,5.8 12.8,5.8 L13.1,5.8 L13.5,5.8 C13.6,5.8 13.8,5.7 13.9,5.6 C14,5.5 14.1,5.4 14.2,5.3 C14.3,5.2 14.3,5.1 14.3,4.9 L14.3,4.2 L14.4,4.2 Z" id="Shape" fill="#000000" sketch:type="MSShapeGroup"></path>
                            <path d="M16.6,0.1 L17.6,0.1 L17.6,1.1 L16.6,1.1 L16.6,0.1 L16.6,0.1 Z M16.6,1.8 L17.6,1.8 L17.6,6.5 L16.6,6.5 L16.6,1.8 L16.6,1.8 Z" id="Shape" fill="#000000" sketch:type="MSShapeGroup"></path>
                            <path d="M18.8,0.1 L19.8,0.1 L19.8,6.5 L18.8,6.5 L18.8,0.1 L18.8,0.1 Z" id="Shape" fill="#000000" sketch:type="MSShapeGroup"></path>
                            <path d="M24.8,5.5 L24.8,5.8 C24.8,5.9 24.9,5.9 25,5.9 L25.1,5.9 L25.2,5.9 L25.2,6.6 L25.1,6.6 L24.9,6.6 L24.7,6.6 L24.5,6.6 C24.3,6.6 24.1,6.6 24,6.5 C23.9,6.4 23.8,6.3 23.7,6.1 C23.5,6.3 23.2,6.4 22.9,6.5 C22.6,6.6 22.3,6.6 22,6.6 C21.8,6.6 21.6,6.6 21.4,6.5 C21.2,6.4 21,6.4 20.9,6.2 C20.8,6.1 20.6,5.9 20.5,5.8 C20.4,5.6 20.4,5.4 20.4,5.2 C20.4,4.9 20.5,4.7 20.6,4.5 C20.7,4.3 20.8,4.2 21,4.1 C21.2,4 21.4,3.9 21.6,3.9 C21.8,3.9 22,3.8 22.2,3.8 C22.4,3.8 22.6,3.7 22.7,3.7 C22.9,3.7 23,3.7 23.1,3.6 C23.2,3.5 23.3,3.5 23.4,3.4 C23.5,3.3 23.5,3.2 23.5,3.1 C23.5,3 23.5,2.9 23.4,2.8 C23.3,2.7 23.3,2.7 23.2,2.6 C23.1,2.5 23,2.5 22.9,2.5 L22.6,2.5 C22.3,2.5 22.1,2.6 21.9,2.7 C21.7,2.8 21.6,3 21.6,3.3 L20.6,3.3 C20.6,3 20.7,2.8 20.8,2.6 C20.9,2.4 21.1,2.2 21.3,2.1 C21.5,2 21.7,1.9 22,1.8 C22.2,1.8 22.5,1.7 22.8,1.7 C23,1.7 23.3,1.7 23.5,1.8 C23.7,1.8 23.9,1.9 24.1,2 C24.3,2.1 24.4,2.2 24.5,2.4 C24.6,2.6 24.7,2.8 24.7,3 L24.7,5.5 L24.8,5.5 Z M23.8,4.2 C23.6,4.3 23.5,4.4 23.2,4.4 C23,4.4 22.7,4.5 22.5,4.5 C22.4,4.5 22.3,4.5 22.2,4.6 C22.1,4.6 22,4.7 21.9,4.7 C21.8,4.8 21.8,4.8 21.7,4.9 C21.7,5 21.6,5.1 21.6,5.2 C21.6,5.3 21.6,5.4 21.7,5.5 C21.8,5.6 21.8,5.6 21.9,5.7 C22,5.8 22.1,5.8 22.2,5.8 L22.5,5.8 L22.9,5.8 C23,5.8 23.2,5.7 23.3,5.6 C23.4,5.5 23.5,5.4 23.6,5.3 C23.7,5.2 23.7,5.1 23.7,4.9 L23.7,4.2 L23.8,4.2 Z" id="Shape" fill="#000000" sketch:type="MSShapeGroup"></path>
                            <path d="M25.9,0.1 L26.9,0.1 L26.9,2.5 L26.9,2.5 C27,2.4 27.1,2.3 27.2,2.2 C27.3,2.1 27.4,2 27.5,2 C27.6,1.9 27.8,1.9 27.9,1.9 L28.3,1.9 C28.7,1.9 29,2 29.3,2.1 C29.6,2.2 29.8,2.4 30,2.6 C30.2,2.8 30.3,3.1 30.4,3.4 C30.5,3.7 30.5,4 30.5,4.4 C30.5,4.7 30.5,5 30.4,5.3 C30.3,5.6 30.2,5.9 30,6.1 C29.8,6.3 29.6,6.5 29.4,6.6 C29.1,6.7 28.9,6.8 28.5,6.8 L28,6.8 C27.8,6.8 27.7,6.7 27.5,6.7 C27.4,6.6 27.2,6.6 27.1,6.5 C27,6.4 26.9,6.3 26.8,6.1 L26.8,6.1 L26.8,6.7 L25.8,6.7 L25.8,0.1 L25.9,0.1 Z M29.5,4.2 C29.5,4 29.5,3.8 29.4,3.6 C29.3,3.4 29.3,3.2 29.2,3.1 C29.1,2.9 29,2.8 28.8,2.7 C28.6,2.6 28.5,2.6 28.2,2.6 C27.8,2.6 27.4,2.8 27.2,3.1 C27,3.4 26.9,3.8 26.9,4.3 C26.9,4.5 26.9,4.8 27,5 C27.1,5.2 27.1,5.4 27.3,5.5 C27.4,5.6 27.5,5.8 27.7,5.8 C27.9,5.8 28,5.9 28.3,5.9 C28.5,5.9 28.7,5.9 28.9,5.8 C29.1,5.7 29.2,5.6 29.3,5.4 C29.4,5.2 29.5,5.1 29.5,4.9 L29.5,4.2 L29.5,4.2 Z" id="Shape" fill="#000000" sketch:type="MSShapeGroup"></path>
                            <path d="M31.4,0.1 L32.4,0.1 L32.4,6.5 L31.4,6.5 L31.4,0.1 L31.4,0.1 Z" id="Shape" fill="#000000" sketch:type="MSShapeGroup"></path>
                            <path d="M34.4,4.4 C34.4,4.6 34.4,4.8 34.5,4.9 C34.6,5.1 34.6,5.2 34.7,5.3 C34.8,5.4 34.9,5.5 35.1,5.6 C35.3,5.7 35.4,5.7 35.7,5.7 C36,5.7 36.2,5.6 36.4,5.5 C36.6,5.4 36.7,5.2 36.8,4.9 L37.8,4.9 C37.7,5.2 37.7,5.4 37.5,5.6 C37.4,5.8 37.2,6 37,6.1 C36.8,6.2 36.6,6.3 36.4,6.4 C36.2,6.5 35.9,6.5 35.7,6.5 C35.3,6.5 35,6.4 34.7,6.3 C34.4,6.2 34.2,6 34,5.8 C33.8,5.6 33.7,5.3 33.6,5 C33.5,4.7 33.5,4.4 33.5,4 C33.5,3.7 33.6,3.4 33.7,3.1 C33.8,2.8 34,2.5 34.2,2.3 C34.4,2.1 34.6,1.9 34.9,1.8 C35.2,1.7 35.5,1.6 35.8,1.6 C36.2,1.6 36.5,1.7 36.8,1.8 C37.1,2 37.3,2.2 37.5,2.4 C37.7,2.7 37.8,2.9 37.9,3.3 C38,3.6 38,4 38,4.3 L34.4,4.3 L34.4,4.4 Z M36.8,3.8 C36.8,3.6 36.8,3.5 36.7,3.3 C36.6,3.2 36.6,3 36.5,2.9 C36.4,2.8 36.3,2.7 36.1,2.6 C36,2.5 35.8,2.5 35.6,2.5 C35.4,2.5 35.3,2.5 35.1,2.6 C35,2.7 34.8,2.7 34.7,2.9 C34.6,3 34.5,3.1 34.4,3.3 C34.3,3.5 34.3,3.6 34.3,3.8 L36.8,3.8 L36.8,3.8 Z" id="Shape" fill="#000000" sketch:type="MSShapeGroup"></path>
                            <path d="M43.2,6.6 C42.8,6.6 42.5,6.5 42.2,6.4 C41.9,6.3 41.7,6.1 41.5,5.9 C41.3,5.7 41.1,5.4 41,5.1 C40.9,4.8 40.8,4.5 40.8,4.1 C40.8,3.7 40.9,3.4 41,3.1 C41.1,2.8 41.3,2.5 41.5,2.3 C41.7,2.1 41.9,1.9 42.2,1.8 C42.5,1.7 42.8,1.6 43.2,1.6 C43.6,1.6 43.9,1.7 44.2,1.8 C44.5,1.9 44.7,2.1 44.9,2.3 C45.1,2.5 45.3,2.8 45.4,3.1 C45.5,3.4 45.6,3.7 45.6,4.1 C45.6,4.5 45.5,4.8 45.4,5.1 C45.3,5.4 45.1,5.7 44.9,5.9 C44.7,6.1 44.5,6.3 44.2,6.4 C43.9,6.6 43.6,6.6 43.2,6.6 L43.2,6.6 Z M43.2,5.8 C43.4,5.8 43.6,5.8 43.8,5.7 C44,5.6 44.1,5.5 44.2,5.3 C44.3,5.1 44.4,5 44.4,4.8 C44.5,4.6 44.5,4.4 44.5,4.2 C44.5,4 44.5,3.8 44.4,3.6 C44.3,3.4 44.3,3.2 44.2,3.1 C44.1,2.9 44,2.8 43.8,2.7 C43.6,2.6 43.4,2.6 43.2,2.6 C43,2.6 42.8,2.6 42.6,2.7 C42.4,2.8 42.3,2.9 42.2,3.1 C42.1,3.3 42,3.4 42,3.6 C41.9,3.8 41.9,4 41.9,4.2 C41.9,4.4 41.9,4.6 42,4.8 C42.1,5 42.1,5.2 42.2,5.3 C42.3,5.5 42.4,5.6 42.6,5.7 C42.8,5.8 43,5.8 43.2,5.8 L43.2,5.8 Z" id="Shape" fill="#000000" sketch:type="MSShapeGroup"></path>
                            <path d="M46.4,1.8 L47.4,1.8 L47.4,2.5 L47.4,2.5 C47.6,2.2 47.8,2 48,1.9 C48.2,1.8 48.5,1.7 48.8,1.7 C49.3,1.7 49.7,1.8 50,2.1 C50.3,2.4 50.4,2.8 50.4,3.3 L50.4,6.5 L49.4,6.5 L49.4,3.6 C49.4,3.2 49.3,3 49.2,2.8 C49.1,2.6 48.8,2.6 48.5,2.6 C48.3,2.6 48.2,2.6 48,2.7 C47.9,2.8 47.7,2.8 47.6,3 C47.5,3.1 47.4,3.2 47.4,3.4 C47.3,3.6 47.3,3.7 47.3,3.9 L47.3,6.6 L46.3,6.6 L46.3,1.8 L46.4,1.8 Z" id="Shape" fill="#000000" sketch:type="MSShapeGroup"></path>
                        </g>
                        <path d="M58.3,15 L58.3,13.9 C58.3,13.7 58.4,13.6 58.6,13.6 L63.3,13.6 C63.5,13.6 63.6,13.7 63.6,13.9 L63.6,14.8 C63.6,15 63.5,15.1 63.2,15.5 L60.8,19 C61.7,19 62.7,19.1 63.5,19.6 C63.7,19.7 63.7,19.9 63.8,20 L63.8,21.1 C63.8,21.3 63.6,21.4 63.5,21.3 C62,20.5 60.1,20.5 58.5,21.3 C58.3,21.4 58.2,21.2 58.2,21.1 L58.2,20 C58.2,19.8 58.2,19.5 58.4,19.3 L61.2,15.2 L58.7,15.2 C58.4,15.2 58.3,15.1 58.3,15 L58.3,15 Z" id="Shape" fill="#000000" sketch:type="MSShapeGroup"></path>
                        <path d="M41,21.6 L39.6,21.6 C39.5,21.6 39.4,21.5 39.3,21.4 L39.3,14 C39.3,13.9 39.4,13.7 39.6,13.7 L40.9,13.7 C41,13.7 41.2,13.8 41.2,13.9 L41.2,14.9 L41.2,14.9 C41.5,14 42.2,13.5 43.1,13.5 C44,13.5 44.6,13.9 45,14.9 C45.3,14 46.1,13.5 47,13.5 C47.6,13.5 48.3,13.7 48.7,14.3 C49.2,14.9 49.1,15.8 49.1,16.6 L49.1,21.3 C49.1,21.4 49,21.6 48.8,21.6 L47.4,21.6 C47.3,21.6 47.1,21.5 47.1,21.3 L47.1,17.4 L47.1,16 C47,15.5 46.7,15.4 46.3,15.4 C46,15.4 45.6,15.6 45.4,16 C45.2,16.4 45.3,17 45.3,17.4 L45.3,21.3 C45.3,21.4 45.2,21.6 45,21.6 L43.6,21.6 C43.5,21.6 43.3,21.5 43.3,21.3 L43.3,17.4 C43.3,16.6 43.4,15.4 42.4,15.4 C41.4,15.4 41.4,16.6 41.4,17.4 L41.4,21.3 C41.3,21.5 41.2,21.6 41,21.6 L41,21.6 Z" id="Shape" fill="#000000" sketch:type="MSShapeGroup"></path>
                        <path d="M67.6,13.5 C69.7,13.5 70.9,15.3 70.9,17.7 C70.9,20 69.6,21.7 67.6,21.7 C65.5,21.7 64.4,19.9 64.4,17.6 C64.4,15.3 65.5,13.5 67.6,13.5 L67.6,13.5 Z M67.6,15 C66.5,15 66.5,16.4 66.5,17.3 C66.5,18.2 66.5,20.1 67.6,20.1 C68.7,20.1 68.8,18.5 68.8,17.6 C68.8,17 68.8,16.2 68.6,15.6 C68.4,15.2 68.1,15 67.6,15 L67.6,15 Z" id="Shape" fill="#000000" sketch:type="MSShapeGroup"></path>
                        <path d="M73.7,21.6 L72.3,21.6 C72.2,21.6 72,21.5 72,21.3 L72,13.9 C72,13.8 72.1,13.7 72.3,13.7 L73.6,13.7 C73.7,13.7 73.8,13.8 73.9,13.9 L73.9,15 L73.9,15 C74.3,14 74.9,13.5 75.9,13.5 C76.5,13.5 77.2,13.7 77.6,14.4 C78,15 78,16 78,16.7 L78,21.3 C78,21.4 77.9,21.5 77.7,21.5 L76.3,21.5 C76.2,21.5 76.1,21.4 76,21.3 L76,17.3 C76,16.5 76.1,15.3 75.1,15.3 C74.8,15.3 74.4,15.5 74.3,15.9 C74.1,16.4 74.1,16.8 74.1,17.3 L74.1,21.3 C74,21.5 73.8,21.6 73.7,21.6 L73.7,21.6 Z" id="Shape" fill="#000000" sketch:type="MSShapeGroup"></path>
                        <circle id="Oval" fill="#000000" sketch:type="MSShapeGroup" cx="79.5" cy="21" r="0.7"></circle>
                        <path d="M94,21.6 C93.9,21.6 93.7,21.5 93.7,21.3 L93.7,13.9 C93.7,13.8 93.8,13.7 94,13.7 L94.5,13.7 C94.6,13.7 94.8,13.8 94.8,13.9 L94.8,15 C95.2,14.1 95.9,13.5 96.8,13.5 L96.9,13.5 L97,13.5 C97.9,13.5 98.6,14.2 98.9,15.2 C99.3,14.2 100,13.5 101,13.5 L101.1,13.5 L101.2,13.5 C101.9,13.5 102.6,14 102.9,14.6 C103.2,15.3 103.2,16.1 103.2,16.9 L103.2,21.3 C103.2,21.4 103.1,21.6 102.9,21.6 L102.3,21.6 C102.2,21.6 102.1,21.5 102,21.4 L102,16.9 C102,16.4 102,15.8 101.8,15.3 C101.6,14.8 101.2,14.5 100.7,14.5 C100.2,14.5 99.7,14.9 99.4,15.4 C99,16 99,16.6 99,17.4 L99,21.4 C99,21.5 98.9,21.6 98.7,21.6 L98.1,21.6 C98,21.6 97.8,21.5 97.8,21.3 L97.8,16.6 C97.8,16.2 97.8,15.7 97.6,15.3 C97.4,14.9 97,14.6 96.5,14.5 C96,14.5 95.6,14.9 95.3,15.3 C95,15.8 94.9,16.4 94.9,17.1 L94.9,21.4 C94.9,21.5 94.8,21.7 94.6,21.7 L94,21.7 L94,21.6 Z" id="Shape" fill="#000000" sketch:type="MSShapeGroup"></path>
                        <path d="M89.7,21.7 C87.7,21.7 86.7,19.6 86.7,17.5 C86.7,15.3 87.8,13.4 89.8,13.4 L89.9,13.4 L90,13.4 C92,13.4 93,15.4 93,17.5 C93,19.7 91.9,21.6 89.8,21.6 L89.7,21.6 L89.7,21.7 L89.7,21.7 Z M89.8,20.7 C90.5,20.7 91,20.3 91.3,19.6 C91.6,19 91.6,18.3 91.6,17.6 C91.6,16.9 91.5,16.1 91.2,15.4 C90.9,14.8 90.3,14.5 89.8,14.5 C89.2,14.5 88.6,15 88.3,15.6 C88,16.2 88,16.9 88,17.6 C88,18.3 88.1,19.1 88.4,19.8 C88.7,20.3 89.2,20.7 89.8,20.7 L89.8,20.7 Z" id="Shape" fill="#000000" sketch:type="MSShapeGroup"></path>
                        <path d="M83.3,20.7 C84.2,20.7 84.7,19.9 84.9,19 C84.9,18.9 85,18.8 85.2,18.8 L85.8,18.8 C85.9,18.8 86.1,18.9 86.1,19 C85.8,20.6 84.8,21.7 83.5,21.7 L83.4,21.7 L83.3,21.7 C81.3,21.7 80.4,19.7 80.4,17.6 C80.4,15.6 81.3,13.5 83.3,13.5 L83.4,13.5 L83.5,13.5 C84.9,13.5 85.9,14.6 86.1,16.2 C86.1,16.3 86,16.4 85.9,16.4 L85.3,16.4 C85.2,16.4 85.1,16.3 85.1,16.1 C84.9,15.2 84.4,14.5 83.6,14.4 C82.2,14.4 81.8,16.1 81.8,17.4 C81.6,18.8 81.9,20.6 83.3,20.7 L83.3,20.7 Z" id="Shape" fill="#000000" sketch:type="MSShapeGroup"></path>
                        <path d="M54.5,18 C54.5,18.6 54.5,19 54.2,19.5 C54,19.9 53.6,20.2 53.2,20.2 C52.6,20.2 52.3,19.8 52.3,19.2 C52.3,18 53.4,17.8 54.4,17.8 L54.4,18 L54.5,18 Z M56,21.6 C55.9,21.7 55.8,21.7 55.7,21.6 C55.2,21.2 55.1,21 54.9,20.6 C54.1,21.4 53.6,21.6 52.5,21.6 C51.3,21.6 50.3,20.9 50.3,19.4 C50.3,18.2 50.9,17.4 51.8,17 C52.6,16.7 53.7,16.6 54.5,16.5 L54.5,16.3 C54.5,16 54.5,15.6 54.3,15.3 C54.1,15 53.8,14.9 53.5,14.9 C53,14.9 52.5,15.2 52.3,15.8 C52.3,15.9 52.2,16.1 52.1,16.1 L50.7,15.9 C50.6,15.9 50.5,15.8 50.5,15.6 C50.8,13.9 52.3,13.4 53.7,13.4 C54.4,13.4 55.3,13.6 55.9,14.1 C56.6,14.8 56.5,15.6 56.5,16.6 L56.5,18.8 C56.5,19.5 56.8,19.8 57,20.1 C57.1,20.2 57.1,20.4 57,20.5 C56.8,20.8 56.3,21.3 56,21.6 L56,21.6 L56,21.6 Z" id="Shape" fill="#000000" sketch:type="MSShapeGroup"></path>
                        <path d="M35.7,18 C35.7,18.6 35.7,19 35.4,19.5 C35.2,19.9 34.8,20.2 34.4,20.2 C33.8,20.2 33.5,19.8 33.5,19.2 C33.5,18 34.6,17.8 35.6,17.8 L35.6,18 L35.7,18 Z M37.1,21.6 C37,21.7 36.9,21.7 36.8,21.6 C36.3,21.2 36.2,21 36,20.6 C35.2,21.4 34.7,21.6 33.6,21.6 C32.4,21.6 31.4,20.9 31.4,19.4 C31.4,18.2 32,17.4 32.9,17 C33.7,16.7 34.8,16.6 35.6,16.5 L35.6,16.3 C35.6,16 35.6,15.6 35.4,15.3 C35.2,15 34.9,14.9 34.6,14.9 C34.1,14.9 33.6,15.2 33.4,15.8 C33.4,15.9 33.3,16.1 33.2,16.1 L31.8,15.9 C31.7,15.9 31.6,15.8 31.6,15.6 C31.9,13.9 33.4,13.4 34.8,13.4 C35.5,13.4 36.4,13.6 37,14.1 C37.7,14.8 37.6,15.6 37.6,16.6 L37.6,18.8 C37.6,19.5 37.9,19.8 38.1,20.1 C38.2,20.2 38.2,20.4 38.1,20.5 C37.9,20.8 37.4,21.3 37.1,21.6 L37.1,21.6 L37.1,21.6 Z" id="Shape" fill="#000000" sketch:type="MSShapeGroup"></path>
                    </g>
                </g>
            </g>
        </g>
    </g>
</svg>