<svg xmlns="http://www.w3.org/2000/svg" xmlns:xlink="http://www.w3.org/1999/xlink" width="130" height="40" viewBox="0 0 130 40"><defs><rect id="a" width="130" height="40" x="0" y="0" rx="3"/></defs><g fill="none" fill-rule="evenodd" opacity=".9"><mask id="b" fill="#fff"><use xlink:href="#a"/></mask><rect width="129" height="39" x=".5" y=".5" stroke="#191919" rx="3"/><g mask="url(#b)"><g transform="translate(11 8)"><path fill="#000" d="M9,19.8 L0,18.5 L0,10.9 L9,10.9 L9,19.8 L9,19.8 Z M9,10.2 L0,10.2 L0,3 L9,1.7 L9,10.2 L9,10.2 Z M21.3,21.5 L9.7,19.8 L9.7,10.9 L21.3,10.9 L21.3,21.5 L21.3,21.5 Z M21.3,10.2 L9.7,10.2 L9.7,1.7 L21.3,-3.55271368e-15 L21.3,10.2 L21.3,10.2 Z" transform="translate(0 2)"/><g transform="translate(30)"><path fill="#000" d="M6.8 7.7C6.4 7.9 5.5 8.1 4.5 8.1 3.4 8.1 2.4 7.8 1.7 7.1 1.1 6.5.7 5.5.7 4.3.7 2.1 2.2.4 4.7.4 5.6.4 6.2.6 6.6.7L6.4 1.5C6 1.3 5.5 1.2 4.8 1.2 3 1.2 1.8 2.3 1.8 4.2 1.8 6.1 2.9 7.2 4.7 7.2 5.3 7.2 5.8 7.1 6 7L6 4.8 4.5 4.8 4.5 4 6.9 4 6.9 7.7 6.8 7.7ZM8.8 5.5C8.8 6.8 9.7 7.4 10.6 7.4 11.3 7.4 11.7 7.3 12.1 7.1L12.3 7.8C12 8 11.4 8.1 10.5 8.1 8.9 8.1 7.9 7 7.9 5.4 7.9 3.8 8.8 2.5 10.4 2.5 12.1 2.5 12.6 4 12.6 5L12.6 5.5 8.8 5.5 8.8 5.5ZM11.7 4.8C11.7 4.2 11.4 3.2 10.4 3.2 9.4 3.2 9 4.1 8.9 4.8L11.7 4.8 11.7 4.8ZM15 1.1 15 2.6 16.4 2.6 16.4 3.3 15 3.3 15 6.2C15 6.9 15.2 7.2 15.7 7.2 16 7.2 16.1 7.2 16.3 7.1L16.3 7.8C16.1 7.9 15.8 7.9 15.4 7.9 14.9 7.9 14.6 7.8 14.4 7.5 14.1 7.2 14 6.7 14 6.1L14 3.2 13.2 3.2 13.2 2.5 14 2.5 14 1.2 15 1.1 15 1.1ZM20.9 1.1C20.9 1.4 20.7 1.7 20.3 1.7 20 1.7 19.7 1.4 19.7 1.1 19.7.8 20 .5 20.3.5 20.6.5 20.9.8 20.9 1.1L20.9 1.1ZM19.8 8 19.8 2.6 20.8 2.6 20.8 8 19.8 8 19.8 8ZM23.5 1.1 23.5 2.6 24.9 2.6 24.9 3.3 23.5 3.3 23.5 6.2C23.5 6.9 23.7 7.2 24.2 7.2 24.5 7.2 24.6 7.2 24.8 7.1L24.8 7.8C24.6 7.9 24.3 7.9 23.9 7.9 23.4 7.9 23.1 7.8 22.9 7.5 22.6 7.2 22.5 6.7 22.5 6.1L22.5 3.2 21.7 3.2 21.7 2.5 22.5 2.5 22.5 1.2 23.5 1.1 23.5 1.1ZM33.1 5.3C33.1 7.3 31.7 8.2 30.4 8.2 29 8.2 27.8 7.1 27.8 5.4 27.8 3.6 29 2.5 30.4 2.5 32.1 2.5 33.1 3.6 33.1 5.3L33.1 5.3ZM28.9 5.3C28.9 6.5 29.6 7.4 30.5 7.4 31.4 7.4 32.1 6.5 32.1 5.3 32.1 4.4 31.6 3.2 30.5 3.2 29.4 3.2 28.9 4.3 28.9 5.3L28.9 5.3ZM34.3 4.1 34.3 2.6 35.2 2.6 35.3 3.5 35.3 3.5C35.6 3 36.2 2.5 37.1 2.5 37.8 2.5 39 2.9 39 4.8L39 8 38 8 38 4.9C38 4 37.7 3.3 36.8 3.3 36.2 3.3 35.7 3.8 35.5 4.3 35.5 4.4 35.4 4.6 35.4 4.8L35.4 8 34.4 8 34.4 4.1 34.3 4.1ZM3.3 24.2.6 13.3 2.1 13.3 3.4 18.8C3.7 20.2 4 21.5 4.2 22.6L4.2 22.6C4.4 21.5 4.7 20.2 5.1 18.8L6.5 13.3 8 13.3 9.3 18.8C9.6 20.1 9.9 21.4 10.1 22.5L10.1 22.5C10.3 21.3 10.6 20.1 11 18.7L12.4 13.2 13.8 13.2 10.7 24.1 9.2 24.1 7.8 18.4C7.5 17 7.2 15.9 7.1 14.8L7.1 14.8C6.9 15.9 6.7 16.9 6.3 18.4L4.8 24.1 3.3 24.1 3.3 24.2ZM16.3 14.1C16.3 14.6 16 15 15.4 15 14.9 15 14.5 14.6 14.5 14.1 14.5 13.6 14.9 13.2 15.4 13.2 16 13.3 16.3 13.6 16.3 14.1L16.3 14.1ZM14.7 24.2 14.7 16.4 16.1 16.4 16.1 24.2 14.7 24.2 14.7 24.2ZM17.9 18.5C17.9 17.7 17.9 17 17.8 16.4L19.1 16.4 19.2 17.7 19.2 17.7C19.6 17 20.5 16.2 21.8 16.2 22.9 16.2 24.5 16.8 24.5 19.5L24.5 24.2 23.1 24.2 23.1 19.7C23.1 18.4 22.6 17.4 21.3 17.4 20.4 17.4 19.6 18.1 19.4 18.9 19.3 19.1 19.3 19.3 19.3 19.6L19.3 24.3 17.9 24.3 17.9 18.5 17.9 18.5ZM33.4 12.7 33.4 22.2C33.4 22.9 33.4 23.7 33.5 24.2L32.2 24.2 32.1 22.8 32.1 22.8C31.7 23.7 30.7 24.3 29.5 24.3 27.6 24.3 26.2 22.7 26.2 20.3 26.2 17.7 27.8 16.1 29.7 16.1 30.9 16.1 31.7 16.7 32 17.3L32 17.3 32 12.6 33.4 12.6 33.4 12.7ZM32 19.5C32 19.3 32 19.1 31.9 18.9 31.7 18 30.9 17.3 29.9 17.3 28.4 17.3 27.6 18.6 27.6 20.3 27.6 21.9 28.4 23.2 29.9 23.2 30.8 23.2 31.7 22.6 32 21.5 32 21.3 32.1 21.1 32.1 20.9L32.1 19.5 32 19.5ZM42.3 20.2C42.3 23.1 40.3 24.4 38.4 24.4 36.3 24.4 34.7 22.8 34.7 20.4 34.7 17.8 36.4 16.2 38.6 16.2 40.8 16.2 42.3 17.8 42.3 20.2L42.3 20.2ZM36.2 20.3C36.2 22 37.2 23.3 38.6 23.3 39.9 23.3 41 22 41 20.3 41 19 40.3 17.3 38.7 17.3 36.9 17.2 36.2 18.8 36.2 20.3L36.2 20.3ZM44.1 16.3 45.1 20.3C45.3 21.2 45.5 22 45.7 22.8L45.7 22.8C45.9 22 46.1 21.2 46.4 20.3L47.7 16.3 48.9 16.3 50.1 20.2C50.4 21.1 50.6 22 50.8 22.8L50.8 22.8C50.9 22 51.1 21.2 51.4 20.3L52.5 16.4 53.9 16.4 51.4 24.2 50.1 24.2 48.9 20.5C48.6 19.6 48.4 18.9 48.2 17.9L48.2 17.9C48 18.8 47.8 19.6 47.5 20.5L46.2 24.2 45 24.2 42.7 16.4 44.1 16.4 44.1 16.3ZM55 22.7C55.4 23 56.2 23.3 56.9 23.3 57.9 23.3 58.4 22.8 58.4 22.1 58.4 21.4 58 21 57 20.7 55.6 20.2 54.9 19.4 54.9 18.5 54.9 17.2 55.9 16.2 57.6 16.2 58.4 16.2 59.1 16.4 59.5 16.7L59.1 17.7C58.8 17.5 58.2 17.2 57.5 17.2 56.7 17.2 56.2 17.7 56.2 18.3 56.2 18.9 56.7 19.2 57.7 19.6 59 20.1 59.7 20.8 59.7 22 59.7 23.4 58.6 24.3 56.8 24.3 55.9 24.3 55.2 24.1 54.6 23.8L55 22.7 55 22.7Z"/><polygon fill="#000" points="66.3 15 66.3 15 64.5 16 64.2 14.9 66.5 13.7 67.7 13.7 67.7 24.2 66.3 24.2"/><path fill="#000" d="M77.5,18.8 C77.5,22.4 76.2,24.3 73.9,24.3 C71.9,24.3 70.5,22.4 70.4,18.9 C70.4,15.4 71.9,13.4 74,13.4 C76.3,13.5 77.5,15.5 77.5,18.8 L77.5,18.8 Z M71.8,19 C71.8,21.7 72.6,23.3 73.9,23.3 C75.3,23.3 76,21.6 76,18.9 C76,16.3 75.3,14.6 73.9,14.6 C72.7,14.6 71.8,16.1 71.8,19 L71.8,19 Z"/></g></g></g></g></svg>