<?xml version="1.0" encoding="UTF-8" standalone="no"?>
<svg width="81px" height="40px" viewBox="0 0 81 40" version="1.1" xmlns="http://www.w3.org/2000/svg" xmlns:xlink="http://www.w3.org/1999/xlink" xmlns:sketch="http://www.bohemiancoding.com/sketch/ns">
    <!-- Generator: Sketch 3.5.1 (25234) - http://www.bohemiancoding.com/sketch -->
    <title>white-made-for-iphone</title>
    <desc>Created with Sketch.</desc>
    <defs>
        <rect id="path-1" x="0" y="0" width="81" height="40" rx="3"></rect>
    </defs>
    <g id="Page-1" stroke="none" stroke-width="1" fill="none" fill-rule="evenodd" sketch:type="MSPage">
        <g id="Download" sketch:type="MSLayerGroup" transform="translate(-497.000000, -45.000000)">
            <g id="white-made-for-iphone" transform="translate(497.000000, 45.000000)">
                <mask id="mask-2" sketch:name="Mask" fill="white">
                    <use xlink:href="#path-1"></use>
                </mask>
                <use id="Mask" stroke="#191919" fill="#FFFFFF" sketch:type="MSShapeGroup" xlink:href="#path-1"></use>
                <g id="Group-3" mask="url(#mask-2)" fill="#000000" sketch:type="MSShapeGroup">
                    <g transform="translate(11.000000, 9.000000)" id="Shape">
                        <path d="M17.7222584,10.392491 C17.7222584,10.7034619 17.6180365,10.9571197 17.4107587,11.1500969 C17.203481,11.3442183 16.9356826,11.4412459 16.6085249,11.4412459 C16.3127216,11.4412459 16.0651304,11.3419972 15.8634262,11.1412788 C15.660628,10.9427826 15.559794,10.6935338 15.559794,10.392491 C15.559794,10.0914139 15.6640135,9.84438619 15.8712912,9.65029788 C16.078569,9.45732068 16.3351529,9.36026 16.641007,9.36026 C16.9457694,9.36026 17.203481,9.45732068 17.4107588,9.65029788 C17.6180365,9.84438625 17.7222584,10.0914139 17.7222584,10.392491 L17.7222584,10.392491 Z M17.5250314,20.564764 L15.7569825,20.564764 L15.7569825,12.7304315 L17.5250314,12.7304315 L17.5250314,20.564764 L17.5250314,20.564764 Z"></path>
                        <path d="M26.483378,12.8590274 C26.483378,13.8581751 26.1842252,14.6587924 25.5847896,15.2609122 C24.8128137,16.0461167 23.6856439,16.4365132 22.206697,16.4365132 C21.7708378,16.4365132 21.4335934,16.4100612 21.1937999,16.3560119 L21.1937999,20.5643248 L19.4246569,20.5643248 L19.4246569,9.84394934 C20.2661101,9.69398232 21.2263156,9.61896572 22.307531,9.61896572 C23.7047233,9.61896572 24.7579003,9.9145226 25.467165,10.5056387 C26.1450058,11.0846046 26.483378,11.8709189 26.483378,12.8590274 M24.7310254,12.9395299 C24.7310254,12.3054037 24.5248753,11.8190895 24.1114139,11.4805212 C23.6979884,11.141953 23.1220758,10.9721299 22.3837145,10.9721299 C21.8940696,10.9721299 21.4974658,11.004102 21.1938,11.0691563 L21.1938,14.9708743 C21.4436801,15.0348529 21.7865342,15.0668251 22.2201332,15.0668251 C23.0033236,15.0668251 23.6173255,14.8793669 24.0621413,14.5021964 C24.5080537,14.127247 24.7310254,13.6056284 24.7310254,12.9395299"></path>
                        <path d="M34.671632,20.5645279 L32.9035831,20.5645279 L32.9035831,16.0981799 C32.9035831,14.6898896 32.3680199,13.9874099 31.298019,13.9874099 C30.4789611,13.9874099 29.9165207,14.3965538 29.6117607,15.2126181 C29.5568473,15.3846635 29.5299701,15.5941988 29.5299701,15.8412242 L29.5299701,20.5645279 L27.7607935,20.5645279 L27.7607935,9.13504145 L29.5299701,9.13504145 L29.5299701,13.84293 L29.5613245,13.84293 C30.1193213,12.9926712 30.9159479,12.5691915 31.9534644,12.5691915 C32.6839968,12.5691915 33.2912614,12.80518 33.7708195,13.2783001 C34.3713516,13.8694162 34.671632,14.7439401 34.671632,15.9051685 L34.671632,20.5645279 L34.671632,20.5645279 Z"></path>
                        <path d="M43.8595485,16.5820712 C43.8595485,17.7863463 43.5099619,18.7744548 42.8107839,19.547542 C42.0791238,20.3437514 41.1077711,20.7418561 39.8954253,20.7418561 C38.7279421,20.7418561 37.7968692,20.3591985 37.1044238,19.5971492 C36.4097614,18.8340232 36.0635242,17.8712567 36.0635242,16.7111052 C36.0635242,15.496935 36.4209422,14.5021964 37.135783,13.7291423 C37.8517467,12.9560551 38.8142123,12.5689896 40.0276138,12.5689896 C41.195097,12.5689896 42.1340396,12.9505349 42.8444321,13.7125841 C43.5211763,14.454776 43.8595485,15.4109124 43.8595485,16.5820712 M42.0253741,16.6228957 C42.0253741,15.9038578 41.8662364,15.2885096 41.5502932,14.7745992 C41.179439,14.152589 40.6494471,13.8426938 39.9615555,13.8426938 C39.2511631,13.8426938 38.711118,14.152589 38.3402638,14.7745992 C38.0231929,15.2885096 37.8651828,15.9159727 37.8651828,16.6548667 C37.8651828,17.3727946 38.0231929,17.9892527 38.3402638,18.5031619 C38.7223325,19.1251391 39.2567679,19.4350343 39.9447314,19.4350343 C40.6214805,19.4350343 41.1514005,19.1196531 41.5334739,18.4877479 C41.8617929,17.9627984 42.0253741,17.3419336 42.0253741,16.6228957"></path>
                        <path d="M51.9987723,20.5645279 L50.2307234,20.5645279 L50.2307234,16.0672859 C50.2307234,14.6799616 49.6951219,13.9874099 48.6251568,13.9874099 C48.1007745,13.9874099 47.6739104,14.1782003 47.3478469,14.5597456 C47.0195951,14.9402153 46.8559467,15.3890702 46.8559467,15.9051685 L46.8559467,20.5645279 L45.0878978,20.5645279 L45.0878978,14.9711105 C45.0878978,14.282968 45.065536,13.536367 45.0218347,12.7301965 L46.577001,12.7301965 L46.6587893,13.9377696 L46.7091895,13.9377696 C46.9164673,13.562819 47.2212633,13.2518481 47.6256984,13.0037105 C48.1063842,12.7136714 48.6408197,12.5691915 49.2301661,12.5691915 C49.9730454,12.5691915 50.5903632,12.80518 51.0811693,13.2783001 C51.6928822,13.8572671 51.9987723,14.7229729 51.9987723,15.8720876 L51.9987723,20.5645279 L51.9987723,20.5645279 Z"></path>
                        <path d="M60.2526071,16.2760466 C60.2526071,16.588164 60.2301735,16.8506034 60.1876382,17.0656601 L54.8812361,17.0656601 C54.9025038,17.8398242 55.1602489,18.4309403 55.6509879,18.8389707 C56.0991196,19.2039921 56.6773236,19.3870755 57.3876488,19.3870755 C58.1730586,19.3870755 58.8878946,19.2635628 59.5321616,19.0165351 L59.8111744,20.2252193 C59.0570854,20.5483062 58.1674537,20.7093443 57.1411853,20.7093443 C55.9075718,20.7093443 54.9384073,20.3509188 54.2336197,19.6374023 C53.5299981,18.9227735 53.1781514,17.9633369 53.1781514,16.760174 C53.1781514,15.5768648 53.5053139,14.5942765 54.1607905,13.8090733 C54.84766,12.9720405 55.7764774,12.5529698 56.9450548,12.5529698 C58.0912704,12.5529698 58.9584731,12.9720406 59.5489856,13.8090733 C60.0172909,14.4762817 60.2526071,15.2978662 60.2526071,16.2760466 L60.2526071,16.2760466 Z M58.5663465,15.8250025 C58.5763996,15.3089041 58.4621245,14.8633472 58.2212706,14.4873209 C57.9164746,14.0031604 57.4470081,13.7616529 56.8128615,13.7616529 C56.2347295,13.7616529 55.7652582,13.9976414 55.4056184,14.4707627 C55.1109428,14.8468232 54.9349858,15.2978662 54.8812361,15.8250025 L58.5663465,15.8250025 L58.5663465,15.8250025 Z"></path>
                        <path d="M20.951576,6.64427291 L20.1224649,6.64427291 L20.0115441,4.45188923 C19.9588861,3.46155909 19.9353271,2.72488617 19.9409343,2.24405791 L19.9174113,2.24405791 C19.7482228,2.86054915 19.5398174,3.52112801 19.2933203,4.2257951 L18.4642092,6.59685252 L17.8154674,6.59685252 L17.0569301,4.26550791 C16.8306089,3.5597303 16.6468541,2.88592484 16.5045789,2.24405791 L16.4888825,2.24405791 C16.4620077,3.03148223 16.4306197,3.7802712 16.3936557,4.49049153 L16.2670408,6.64427291 L15.4692842,6.64427291 L15.8244804,1.40372784 L16.923614,1.40372784 L17.6899803,3.67439239 C17.8782123,4.23353576 18.0451766,4.83565623 18.1874518,5.4774901 L18.2109772,5.4774901 C18.3790691,4.80920364 18.5583444,4.20816005 18.7476704,3.67439239 L19.5454247,1.40372784 L20.6445919,1.40372784 L20.951576,6.64427291 L20.951576,6.64427291 Z"></path>
                        <path d="M24.8624293,6.64481135 L24.096027,6.64481135 L24.0321906,6.20921548 L24.0086652,6.20921548 C23.745344,6.55549071 23.3711379,6.72972292 22.8871027,6.72972292 C22.5240751,6.72972292 22.2316236,6.61613712 22.0097796,6.38785558 C21.8103668,6.18054129 21.7095303,5.92358549 21.7095303,5.61810058 C21.7095303,5.15601792 21.9067213,4.80425616 22.2988815,4.56052697 C22.6910058,4.31679837 23.2422629,4.19769357 23.9537518,4.20321257 L23.9537518,4.13263813 C23.9537518,3.63525228 23.6882088,3.38711405 23.1548674,3.38711405 C22.7772735,3.38711405 22.4422868,3.47976626 22.1520907,3.66614699 L21.9784251,3.11474487 C22.3369708,2.8963914 22.7772735,2.78721463 23.2983063,2.78721463 C24.3044325,2.78721463 24.8075136,3.30772207 24.8075136,4.34988108 L24.8075136,5.74272438 C24.8075136,6.12097175 24.8254317,6.42093887 24.8624293,6.64481135 M23.9772748,5.34569654 L23.9772748,4.76232224 C23.0338574,4.74690823 22.5632944,5.00053184 22.5632944,5.52437084 C22.5632944,5.72175711 22.6181742,5.86953613 22.7280009,5.96770793 C22.8389242,6.06695542 22.9778499,6.11545272 23.1447806,6.11545272 C23.3330126,6.11545272 23.5066782,6.05702739 23.6669051,5.94122051 C23.8271345,5.82433797 23.9246191,5.6754478 23.9615808,5.49350977 L23.9772748,5.34569654"></path>
                        <path d="M29.2628555,6.64481135 L28.5043182,6.64481135 L28.4650988,6.0382824 L28.4415758,6.0382824 C28.1984281,6.49925336 27.7872244,6.72972292 27.2079624,6.72972292 C26.7452284,6.72972292 26.3598054,6.55108167 26.0550431,6.19265731 C25.7502831,5.83645284 25.596791,5.37218275 25.596791,4.80092453 C25.596791,4.18998652 25.7637193,3.69482116 26.0976143,3.3165732 C26.4202925,2.96366786 26.8180599,2.7872146 27.2886565,2.7872146 C27.8085257,2.7872146 28.1704256,2.95814827 28.3777034,3.30112557 L28.3777034,1.13189654 L29.2303375,1.13189654 L29.2303375,5.62584065 C29.2303374,5.99415997 29.2415519,6.33383931 29.2628555,6.64481135 M28.3777034,5.05017272 L28.3777034,4.42045549 C28.3777034,4.31238928 28.369872,4.22417978 28.3530503,4.15579271 C28.3059995,3.95396432 28.2029077,3.78414121 28.0449361,3.6462908 C27.8858367,3.50955095 27.6964772,3.44116391 27.4735054,3.44116391 C27.1553044,3.44116391 26.9065855,3.5657883 26.7239272,3.81392596 C26.5413025,4.06317474 26.4505528,4.3818532 26.4505528,4.77006287 C26.4505528,5.1439018 26.5379506,5.44716626 26.7116162,5.67985686 C26.8975928,5.92910564 27.1452176,6.05372944 27.457809,6.05372944 C27.7368242,6.05372944 27.9620177,5.95007288 28.1312062,5.74272432 C28.2959127,5.55085712 28.3777034,5.3203545 28.3777034,5.05017272"></path>
                        <path d="M33.4570644,4.57583998 C33.4570644,4.72691696 33.4469777,4.85372875 33.4256765,4.95742013 L30.8666082,4.95742013 C30.876695,5.33014792 30.9999243,5.61577794 31.2374648,5.8120873 C31.4526051,5.98853938 31.7327145,6.07675008 32.0744385,6.07675008 C32.4542542,6.07675008 32.7982359,6.0172136 33.1096972,5.89810883 L33.244177,6.48148373 C32.8800241,6.63696974 32.4509023,6.71417433 31.9556526,6.71417433 C31.3607301,6.71417433 30.893483,6.54213013 30.5540144,6.19696484 C30.2145122,5.85287643 30.0441984,5.38971748 30.0441984,4.80964113 C30.0441984,4.2383823 30.2022036,3.76418417 30.5181469,3.38701305 C30.8497841,2.98227885 31.2979854,2.779373 31.8615535,2.779373 C32.4150348,2.779373 32.8329758,2.98227885 33.1175622,3.38701305 C33.3438882,3.70794683 33.4570644,4.10494037 33.4570644,4.57583998 L33.4570644,4.57583998 Z M32.6436137,4.35859762 C32.649221,4.10934884 32.5931799,3.89429388 32.4777795,3.71343215 C32.3298947,3.47966526 32.103571,3.36274786 31.797681,3.36274786 C31.5187018,3.36274786 31.2923781,3.47744418 31.1187125,3.70461461 C30.9764013,3.88658686 30.8923889,4.10494037 30.8666081,4.35859759 L32.6436137,4.35859759 L32.6436137,4.35859762 Z"></path>
                        <path d="M38.0702389,1.14724319 L37.9918001,1.800082 C37.8663153,1.74825313 37.7273896,1.72287742 37.5761169,1.72287742 C37.131301,1.72287742 36.9094593,2.0382916 36.9094593,2.67130734 L36.9094593,2.86539506 L37.762127,2.86539506 L37.762127,3.49507923 L36.9094593,3.49507923 L36.9094593,6.64470979 L36.0568205,6.64470979 L36.0568205,3.49507927 L35.5346984,3.49507927 L35.5346984,2.86539509 L36.0568205,2.86539509 L36.0568205,2.69446201 C36.0568205,2.11879414 36.2058378,1.68868422 36.5061183,1.40308788 C36.7593143,1.16487828 37.0809008,1.04577347 37.4696732,1.04577347 C37.6971245,1.04577347 37.8965756,1.07996729 38.0702389,1.14724319"></path>
                        <path d="M41.8003845,4.72405651 C41.8003845,5.30413285 41.6311937,5.78166317 41.2939156,6.15439157 C40.9398807,6.53815916 40.4715083,6.73005945 39.8877666,6.73005945 C39.3241986,6.73005945 38.8749008,6.5458992 38.5399165,6.17865674 C38.2060215,5.80922628 38.0390572,5.34603307 38.0390572,4.78581344 C38.0390572,4.2002175 38.2116263,3.72049976 38.5555745,3.34777138 C38.9006839,2.97389881 39.3656733,2.78751749 39.9505426,2.78751749 C40.5141107,2.78751749 40.9667579,2.97171141 41.3096456,3.34003072 C41.635642,3.69734512 41.8003845,4.15942778 41.8003845,4.72405651 M40.9141023,4.74280208 C40.9141023,4.39652686 40.8379189,4.09985828 40.6855569,3.85175426 C40.5062457,3.55178772 40.2508279,3.40178765 39.9191546,3.40178765 C39.5763389,3.40178765 39.3152395,3.55178776 39.1370944,3.85175426 C38.9847324,4.09985828 38.9074213,4.40204586 38.9074213,4.75824973 C38.9074213,5.10452555 38.9847324,5.40230468 39.1370944,5.65040926 C39.3219768,5.9503752 39.5796884,6.09926416 39.9112897,6.09926416 C40.2373533,6.09926416 40.4928431,5.94707725 40.6765979,5.64270227 C40.8356636,5.38904443 40.9141023,5.08911154 40.9141023,4.74280208"></path>
                        <path d="M44.4851439,3.60385218 L44.2162514,3.58066389 C43.9170651,3.58066389 43.6851655,3.69206171 43.521589,3.91482365 C43.3792754,4.11224356 43.3087016,4.36034755 43.3087016,4.66142461 L43.3087016,6.64427291 L42.4549063,6.64427291 L42.4549063,4.05489566 C42.4549063,3.61926616 42.4471085,3.22334887 42.4313785,2.86606815 L43.174253,2.86606815 L43.2055738,3.58840453 L43.2291688,3.58840453 C43.3187548,3.34026627 43.4599696,3.13954844 43.6560329,2.98958202 C43.8453925,2.85502956 44.0504149,2.78664252 44.2711673,2.78664252 L44.485144,2.80320069 L44.485144,3.60385218 L44.4851439,3.60385218 Z"></path>
                        <path d="M8.75908926,21.5646851 L1.88299116,21.5646851 C0.883565144,21.5646851 0.0701150693,20.7640336 0.0701150693,19.7803342 L0.0701150693,2.47180101 C0.0701150693,1.48810039 0.883565144,0.687449491 1.88299116,0.687449491 L8.75908926,0.687449491 C9.75851528,0.687449491 10.571966,1.48810039 10.571966,2.47180101 L10.571966,19.7803336 C10.571966,20.7640336 9.75851528,21.5646851 8.75908926,21.5646851 L8.75908926,21.5646851 Z M1.88299116,1.26752584 C1.20850105,1.26752584 0.659464498,1.80792361 0.659464498,2.47180101 L0.659464498,19.7803336 C0.659464498,20.4442098 1.20850105,20.9846088 1.88299116,20.9846088 L8.75908926,20.9846088 C9.43361416,20.9846088 9.98148705,20.4442098 9.98148705,19.7803336 L9.98148705,2.47180101 C9.98148705,1.80792361 9.43361416,1.26752584 8.75908926,1.26752584 L1.88299116,1.26752584 L1.88299116,1.26752584 Z"></path>
                        <path d="M8.80302812,17.8769788 L1.83953155,17.8769788 L1.83953155,4.28381602 L8.80302809,4.28381602 L8.80302809,17.8769788 L8.80302812,17.8769788 Z M9.1380496,3.7048502 L1.50341478,3.7048502 C1.36336074,3.7048502 1.25018212,3.82284447 1.25018212,3.96621444 L1.25018212,18.1956915 C1.25018212,18.3390603 1.36336074,18.457054 1.50341478,18.457054 L9.13804957,18.457054 C9.27810421,18.457054 9.39237692,18.3390603 9.39237692,18.1956915 L9.39237692,3.96621444 C9.39237695,3.82284447 9.27810424,3.7048502 9.1380496,3.7048502 L9.1380496,3.7048502 Z"></path>
                        <path d="M5.32218558,18.7362895 C4.78775011,18.7362895 4.35189217,19.1652906 4.35189217,19.691317 C4.35189217,20.2173765 4.78775014,20.6452654 5.32218558,20.6452654 C5.85662102,20.6452654 6.29135012,20.2173765 6.29135012,19.691317 C6.29135012,19.1652906 5.85662102,18.7362895 5.32218558,18.7362895"></path>
                        <path d="M5.32218558,19.1835975 C5.03872562,19.1835975 4.8045382,19.4107691 4.8045382,19.6908801 C4.8045382,19.9709888 5.03872562,20.1992703 5.32218558,20.1992703 C5.60677322,20.1992703 5.83870409,19.9709888 5.83870409,19.6908801 C5.83870406,19.4107691 5.60677322,19.1835975 5.32218558,19.1835975"></path>
                        <path d="M5.61829719,1.97444824 C5.61829719,2.13656381 5.48497865,2.26667411 5.321365,2.26667411 C5.15669207,2.26667411 5.02333991,2.13656378 5.02333991,1.97444824 C5.02333991,1.81340896 5.15669204,1.6821887 5.321365,1.6821887 C5.48497865,1.6821887 5.61829719,1.81340896 5.61829719,1.97444824"></path>
                        <path d="M6.2988384,2.79869125 L6.1475693,2.94535916 L4.48148335,2.94535916 L4.33024784,2.79869125 L4.48148335,2.65309965 L6.1475693,2.65309965 L6.2988384,2.79869125"></path>
                    </g>
                </g>
            </g>
        </g>
    </g>
</svg>