<?xml version="1.0" encoding="UTF-8" standalone="no"?>
<svg width="75px" height="40px" viewBox="0 0 75 40" version="1.1" xmlns="http://www.w3.org/2000/svg" xmlns:xlink="http://www.w3.org/1999/xlink" xmlns:sketch="http://www.bohemiancoding.com/sketch/ns">
    <!-- Generator: Sketch 3.5.1 (25234) - http://www.bohemiancoding.com/sketch -->
    <title>white-made_for_iPod</title>
    <desc>Created with Sketch.</desc>
    <defs>
        <rect id="path-1" x="0" y="0" width="75" height="40" rx="3"></rect>
    </defs>
    <g id="Page-1" stroke="none" stroke-width="1" fill="none" fill-rule="evenodd" sketch:type="MSPage">
        <g id="Download" sketch:type="MSLayerGroup" transform="translate(-413.000000, -45.000000)">
            <g id="white-made_for_iPod" transform="translate(413.000000, 45.000000)">
                <mask id="mask-2" sketch:name="Mask" fill="white">
                    <use xlink:href="#path-1"></use>
                </mask>
                <use id="Mask" stroke="#191919" fill="#FFFFFF" sketch:type="MSShapeGroup" xlink:href="#path-1"></use>
                <path d="M36.4621461,15.1984067 L35.5419667,15.1984067 L35.4187317,12.7624904 C35.3597126,11.6389404 35.3337293,10.8589985 35.3396683,10.3116184 L35.3140562,10.3116184 C35.1407106,11.0104254 34.9239358,11.7066151 34.6681861,12.5067473 L33.7814138,15.1438182 L33.0869178,15.1438182 L32.2450595,12.5504928 C31.993764,11.7511085 31.7892385,11.0407108 31.6355659,10.3116184 L31.6199759,10.3116184 C31.5917655,11.2052239 31.5572449,12.0008693 31.51827,12.8069837 L31.385384,15.1984067 L30.512717,15.1984067 L30.9054357,9.35519884 L32.0965836,9.35519884 L32.9473504,11.8786062 C33.157815,12.5153468 33.3434099,13.1984503 33.4970824,13.8920227 L33.5204674,13.8920227 C33.6941842,13.167791 33.8764384,12.4850614 34.0716842,11.8786062 L34.9298748,9.35519884 L36.1210227,9.35519884 L36.4621461,15.1984067 L36.4621461,15.1984067 L36.4621461,15.1984067 Z M40.6009116,14.172069 L40.6009116,12.6439662 C40.6009116,11.4934958 40.0404151,10.9236821 38.9899482,10.9236821 C38.4517231,10.9236821 37.9632374,11.047067 37.5642084,11.296454 L37.7587118,11.8688849 C38.0783062,11.6535223 38.4513519,11.5578055 38.8500097,11.5578055 C39.3693041,11.5578055 39.6517795,11.826635 39.6517795,12.3930836 L39.6517795,12.4730968 C38.9350121,12.4671145 38.3574409,12.6028379 37.9198082,12.879893 C37.4825467,13.157322 37.2665142,13.5592575 37.2665142,14.0266244 C37.2665142,14.3765887 37.3767576,14.667104 37.5998426,14.9041525 C37.8437143,15.1636346 38.1696189,15.2930017 38.5723597,15.2930017 C39.0589895,15.2930017 39.4216418,15.0970815 39.7100563,14.7033716 L39.7367819,14.7033716 L39.8050808,15.1987805 L40.6577037,15.1987805 C40.6202135,14.9452807 40.6009116,14.6027943 40.6009116,14.172069 L40.6009116,14.172069 L40.6009116,14.172069 Z M39.6569761,13.9077262 C39.61763,14.094673 39.5066443,14.2625512 39.3433208,14.3971529 C39.1892771,14.5291373 39.018901,14.5953164 38.8347909,14.5953164 C38.6688691,14.5953164 38.5140829,14.5399802 38.3915903,14.4274382 C38.267613,14.316018 38.2063666,14.1462703 38.2063666,13.9342727 C38.2063666,13.3835275 38.7278882,13.0952556 39.6777628,13.1124547 L39.6777628,13.7720029 C39.6777628,13.824348 39.6677406,13.8692152 39.6569761,13.9077262 L39.6569761,13.9077262 L39.6569761,13.9077262 Z M45.4423394,15.1984067 L44.6008523,15.1984067 L44.5577942,14.5081992 L44.5314398,14.5081992 C44.261956,15.0312763 43.8495642,15.2930017 43.2712506,15.2930017 C42.7567816,15.2930017 42.3302846,15.0896036 41.992502,14.6828075 C41.6524922,14.2775069 41.4802601,13.7951843 41.4802601,13.157322 C41.4802601,12.4622539 41.6654838,11.8991703 42.0359312,11.499852 C42.3941293,11.124089 42.8351027,10.9233082 43.3543971,10.9233082 C43.8651542,10.9233082 44.2281778,11.1192284 44.4542323,11.4897569 L44.4542323,9.09347338 L45.4041068,9.09347338 L45.4041068,14.038589 C45.4037357,14.4577236 45.4182121,14.8450773 45.4423394,15.1984067 L45.4423394,15.1984067 L45.4423394,15.1984067 Z M44.4542323,13.4440983 L44.4542323,12.7273444 C44.4542323,12.6028379 44.449778,12.5030083 44.4293626,12.4259863 C44.377396,12.1956679 44.2634408,12.0034866 44.0997461,11.8471991 C43.9423617,11.6912855 43.7560244,11.612394 43.538136,11.612394 C43.2137162,11.612394 42.9349527,11.7540996 42.7330255,12.037137 C42.5322118,12.3194266 42.4301347,12.6824772 42.4301347,13.1247932 C42.4301347,13.5510318 42.5277576,13.8669719 42.722261,14.1043942 C42.9267865,14.3874316 43.2003534,14.5291373 43.5214325,14.5291373 C43.7990824,14.5291373 44.0191979,14.410613 44.1851197,14.1758079 C44.3666315,13.9608191 44.4542323,13.7514388 44.4542323,13.4440983 L44.4542323,13.4440983 L44.4542323,13.4440983 Z M49.9834746,12.9027005 C49.9834746,13.0724481 49.9727101,13.2175188 49.9500676,13.336417 L47.2188535,13.336417 C47.2322163,13.7585427 47.3702989,14.0277461 47.6323588,14.2513344 C47.8725186,14.4513674 48.1587059,14.5519448 48.5005716,14.5519448 C48.8825259,14.5519448 49.2600258,14.48427 49.6037475,14.3485467 L49.7525946,15.0095904 C49.3487402,15.1849465 48.8799275,15.274307 48.3847604,15.274307 C47.7719262,15.274307 47.251147,15.0772652 46.8751318,14.6857986 C46.4976318,14.2939582 46.3090674,13.8120095 46.3090674,13.1640521 C46.3090674,12.5160946 46.4835266,11.9761924 46.8354145,11.5581794 C47.2021499,11.141662 47.6984306,10.9128392 48.2863952,10.9128392 C48.8405814,10.9128392 49.2923193,11.1431576 49.6074594,11.5593011 C49.8598685,11.9137521 49.9834746,12.3654155 49.9834746,12.9027005 L49.9834746,12.9027005 L49.9834746,12.9027005 Z M49.0844531,12.6563047 C49.0903921,12.3740151 49.0302594,12.128367 48.9066532,11.9223517 C48.7552078,11.6583829 48.5302668,11.542102 48.2251488,11.542102 C47.9463854,11.542102 47.6936051,11.6550178 47.5017,11.914126 C47.3428308,12.1201414 47.249291,12.3680328 47.2188535,12.6563047 L49.0844531,12.6563047 L49.0844531,12.6563047 L49.0844531,12.6563047 Z M55.0008463,9.10842912 L54.9147303,9.80424495 C54.7777613,9.74143084 54.6248311,9.70852821 54.4581669,9.70852821 C53.9626286,9.70852821 53.7161586,10.0704571 53.7161586,10.7958105 L53.7161586,11.0186511 L54.6623213,11.0186511 L54.6623213,11.6781992 L53.7161586,11.6781992 L53.7161586,15.1980328 L52.8520289,15.1980328 L52.8520289,11.6781992 L52.2993274,11.6781992 L52.2993274,11.0186511 L52.8520289,11.0186511 L52.8520289,10.8234787 C52.8520289,10.1672955 53.0034743,9.67712115 53.3063652,9.35108601 C53.5602589,9.12226318 53.9036094,9 54.3404998,9 C54.5888257,9.00074779 54.8107972,9.03813714 55.0008463,9.10842912 L55.0008463,9.10842912 L55.0008463,9.10842912 Z M59.0301109,13.0675875 C59.0301109,13.7275096 58.8422889,14.2128234 58.4670161,14.6394359 C58.1054773,15.0753957 57.6281273,15.2930017 57.015293,15.2930017 C56.3898383,15.2930017 55.8902169,15.0836213 55.5223679,14.6659823 C55.1485798,14.2464738 54.9644697,13.7720029 54.9644697,13.1390012 C54.9644697,12.4730968 55.1548901,11.9272123 55.5383291,11.5252768 C55.9202833,11.1353059 56.4384642,10.9236821 57.0873038,10.9236821 C57.6693293,10.9236821 58.1333165,11.1319408 58.4866891,11.5192945 C58.8497127,11.9014137 59.0301109,12.4259863 59.0301109,13.0675875 L59.0301109,13.0675875 L59.0301109,13.0675875 Z M58.0780092,13.090395 C58.0780092,12.6955635 58.0000594,12.3579376 57.8475004,12.075648 C57.6637615,11.7342833 57.4017015,11.5708918 57.0512984,11.5708918 C56.6715713,11.5708918 56.3831569,11.7342833 56.183828,12.075648 C56.011596,12.3579376 55.9310478,12.7019197 55.9310478,13.1075941 C55.9310478,13.5024257 56.011596,13.8232263 56.183828,14.0655093 C56.3883536,14.4057524 56.6737985,14.5751262 57.0420187,14.5751262 C57.3916794,14.5751262 57.652997,14.403509 57.8378495,14.0557881 C57.9963475,13.8123834 58.0780092,13.4829832 58.0780092,13.090395 L58.0780092,13.090395 L58.0780092,13.090395 Z M62,11.7989668 C61.9135128,11.7757854 61.819973,11.7649425 61.7141839,11.7649425 C61.3830827,11.7649425 61.123621,11.8924402 60.9432228,12.1451922 C60.7873231,12.3702761 60.7078885,12.6536874 60.7078885,12.9965478 L60.7078885,15.1987805 L59.7591276,15.1987805 L59.7591276,12.3149399 C59.7591276,11.819531 59.7509614,11.4250733 59.7316595,11.0193989 L60.5538448,11.0193989 L60.5898502,11.7810199 L60.6162047,11.7810199 C60.7164259,11.5219117 60.8749239,11.3267393 61.0909563,11.1536266 C61.3014209,10.9999564 61.5300738,10.9236821 61.7728319,10.9236821 C61.8615462,10.9236821 61.9361554,10.9296644 61.9996288,10.9405073 L61.9996288,11.7989668 L62,11.7989668 L62,11.7989668 Z M14.631364,10.7468305 C14.2742795,10.7468305 13.9866075,11.0384674 13.9866075,11.3996486 L13.9866075,17.8579112 C13.9866075,18.2149795 14.2742795,18.4931563 14.631364,18.4931563 L22.6527743,18.4931563 C23.0098588,18.4931563 23.284168,18.2149795 23.284168,17.8579112 L23.284168,11.3992747 C23.284168,11.0380935 23.0098588,10.7464566 22.6527743,10.7464566 L14.631364,10.7464566 L14.631364,10.7468305 L14.631364,10.7468305 Z M22.54847,11.4848963 L22.54847,17.7494821 L14.7371531,17.7494821 L14.7371531,11.4848963 C14.930543,11.4848963 22.3491411,11.4848963 22.54847,11.4848963 L22.54847,11.4848963 L22.54847,11.4848963 Z M13.1677629,9.05870128 C12.5367404,9.05870128 12,9.5417717 12,10.2016937 L12,29.9223332 C12,30.5392575 12.5367404,31.0608389 13.1677629,31.0608389 L24.1223144,31.0608389 C24.7503675,31.0608389 25.2811688,30.5392575 25.2811688,29.9223332 L25.2811688,10.2016937 C25.2811688,9.54214559 24.7503675,9.05870128 24.1223144,9.05870128 L13.1677629,9.05870128 L13.1677629,9.05870128 L13.1677629,9.05870128 Z M12.729759,29.9219593 L12.729759,10.2016937 C12.729759,9.95716739 12.9220353,9.75862994 13.1681341,9.75862994 L24.1226856,9.75862994 C24.3517097,9.75862994 24.5395317,9.9567935 24.5395317,10.2016937 L24.5395317,29.9223332 C24.5395317,30.1575122 24.3517097,30.3392245 24.1226856,30.3392245 L13.1677629,30.3392245 C12.9216641,30.3392245 12.729759,30.1571383 12.729759,29.9219593 L12.729759,29.9219593 L12.729759,29.9219593 Z M13.8889846,24.2507425 C13.8889846,26.8949174 16.0333477,29.0377011 18.6301911,29.0377011 C21.2504194,29.0377011 23.3814197,26.8952913 23.3814197,24.2507425 C23.3814197,21.6095587 21.2504194,19.4678967 18.6301911,19.4678967 C16.0333477,19.4678967 13.8889846,21.6095587 13.8889846,24.2507425 L13.8889846,24.2507425 L13.8889846,24.2507425 Z M14.6302505,24.2507425 C14.6302505,22.0249544 16.4186426,20.2239094 18.6305623,20.2239094 C20.8547312,20.2239094 22.6557438,22.0245805 22.6557438,24.2507425 C22.6557438,26.4780261 20.8547312,28.2839318 18.6305623,28.2839318 C16.4186426,28.2843057 14.6302505,26.4780261 14.6302505,24.2507425 L14.6302505,24.2507425 L14.6302505,24.2507425 Z M16.6959214,24.2507425 C16.6959214,25.2995138 17.5166219,26.0988981 18.5422191,26.0988981 C19.5700435,26.0988981 20.3896304,25.2991399 20.3896304,24.2507425 C20.3896304,23.237865 19.5700435,22.4059519 18.5422191,22.4059519 C17.5166219,22.4063258 16.6959214,23.237865 16.6959214,24.2507425 L16.6959214,24.2507425 L16.6959214,24.2507425 Z M17.4275363,24.2507425 C17.4275363,23.620358 17.9290137,23.1552345 18.5418479,23.1552345 C19.1572805,23.1552345 19.6565307,23.620358 19.6565307,24.2507425 C19.6565307,24.884492 19.1569093,25.3978478 18.5418479,25.3978478 C17.9290137,25.3982217 17.4275363,24.8848659 17.4275363,24.2507425 L17.4275363,24.2507425 L17.4275363,24.2507425 Z M30.8200621,21.970366 L32.7472792,21.970366 L32.7472792,30.6574078 L30.8200621,30.6574078 L30.8200621,21.970366 L30.8200621,21.970366 L30.8200621,21.970366 Z M32.9755609,19.365076 C32.9755609,19.7187792 32.8608632,20.0033122 32.6292408,20.2242833 C32.3968761,20.4396459 32.0988107,20.5514401 31.7328176,20.5514401 C31.4206471,20.5514401 31.1571023,20.4396459 30.9351309,20.2134403 C30.7075916,19.9883564 30.5932651,19.7064407 30.5932651,19.365076 C30.5932651,19.0233373 30.712417,18.7451605 30.9414411,18.5563443 C31.1693516,18.3604241 31.4447744,18.2508733 31.7762468,18.2508733 C32.11106,18.2508733 32.3965049,18.3604241 32.6288697,18.5563443 C32.860492,18.7447866 32.9755609,19.0233373 32.9755609,19.365076 L32.9755609,19.365076 L32.9755609,19.365076 Z M42.4839572,22.1169322 C42.4839572,23.2356216 42.1521136,24.1067935 41.4876839,24.789523 C40.6291221,25.6562082 39.3837805,26.0719778 37.8359193,26.0719778 C37.3548574,26.0719778 36.978471,26.0428141 36.712328,25.98 L36.712328,30.6574078 L34.7981025,30.6574078 L34.7981025,18.7447866 C35.6945257,18.6008376 36.7557572,18.5268067 37.9572983,18.5268067 C39.408279,18.5268067 40.5704741,18.8244259 41.3577675,19.4966865 C42.1101691,20.1577302 42.4839572,21.0105813 42.4839572,22.1169322 L42.4839572,22.1169322 L42.4839572,22.1169322 Z M40.5404077,22.2062928 C40.5404077,21.4869216 40.3124972,20.958984 39.8492524,20.6056546 C39.3964009,20.2231616 38.8385028,20.0309803 38.033021,20.0309803 C37.4959095,20.0309803 37.0549361,20.0683697 36.7126991,20.1405311 L36.7126991,24.4567578 C36.9884931,24.5281715 37.3726745,24.564813 37.8567059,24.564813 C38.7204644,24.564813 39.3191935,24.3516937 39.7954299,23.9250812 C40.2931953,23.5029555 40.5404077,22.9619316 40.5404077,22.2062928 L40.5404077,22.2062928 L40.5404077,22.2062928 Z M51.3420291,26.2379865 C51.3420291,27.6064368 50.952651,28.6757722 50.1835459,29.5570392 C49.3684132,30.4304545 48.3535805,30.8563192 47.0533028,30.8563192 C45.7563659,30.8563192 44.7270568,30.4442885 43.9809654,29.6127494 C43.2912949,28.7460642 42.9111966,27.7066402 42.9111966,26.3864222 C42.9111966,25.0602219 43.3031729,23.9321852 44.0121453,23.1047589 C44.7838488,22.2283525 45.8513905,21.787532 47.1999228,21.787532 C48.4382118,21.787532 49.428546,22.2219963 50.2136123,23.0883076 C50.9645291,23.8749795 51.3420291,24.9630096 51.3420291,26.2379865 L51.3420291,26.2379865 L51.3420291,26.2379865 Z M49.3056822,26.2940705 C49.3056822,25.5178676 49.131223,24.8299035 48.7960387,24.2443863 C48.4248489,23.5366059 47.8873662,23.223657 47.1227153,23.223657 C46.3343083,23.223657 45.7355793,23.5369798 45.3268994,24.2443863 C44.9735267,24.8299035 44.797954,25.5324495 44.797954,26.3299643 C44.797954,27.1472955 44.9735267,27.8401202 45.3268994,28.3762835 C45.7515404,29.0848117 46.3435881,29.4411322 47.1056406,29.4411322 C47.8591558,29.4411322 48.3944114,29.0788294 48.7778504,28.3583366 C49.1226856,27.8131999 49.3056822,27.1084106 49.3056822,26.2940705 L49.3056822,26.2940705 L49.3056822,26.2940705 Z M60.726448,30.6574078 L58.9796291,30.6574078 L58.8920283,29.2781147 L58.8382058,29.2781147 C58.2918145,30.3414678 57.4217458,30.8563192 56.1081053,30.8563192 C55.0405636,30.8563192 54.1586168,30.4570009 53.472287,29.649017 C52.8360678,28.8025221 52.5057089,27.7657154 52.5057089,26.4234377 C52.5057089,25.0366667 52.863907,23.8712406 53.5654556,23.0344669 C54.2966994,22.2006844 55.2101973,21.7871581 56.2962985,21.7871581 C57.4722276,21.7871581 58.2368784,22.1909631 58.7008656,22.9937125 L58.7008656,18.0018602 L60.6574067,18.0018602 L60.6574067,28.3089827 C60.6574067,29.1749201 60.6807917,29.9769216 60.726448,30.6574078 L60.726448,30.6574078 L60.726448,30.6574078 Z M58.7008656,27.0134417 L58.7008656,25.5698388 C58.7008656,25.3286775 58.6815637,25.1207927 58.6455583,24.9622618 C58.5364286,24.4847998 58.3092604,24.0843599 57.9748185,23.7586986 C57.6381494,23.4461237 57.2368933,23.3014269 56.7305905,23.3014269 C56.0008315,23.3014269 55.4217755,23.564274 55.0082701,24.1527824 C54.5884545,24.7397952 54.3779899,25.4853389 54.3779899,26.3531457 C54.3779899,27.2359083 54.5802883,27.9306024 54.9778325,28.4454538 C55.3998753,29.03471 55.974477,29.3255991 56.6931003,29.3255991 C57.3278348,29.3255991 57.8037,29.0825684 58.1570726,28.5908984 C58.5130436,28.1549386 58.7008656,27.6509301 58.7008656,27.0134417 L58.7008656,27.0134417 L58.7008656,27.0134417 Z" id="Shape" fill="#000000" sketch:type="MSShapeGroup" mask="url(#mask-2)"></path>
            </g>
        </g>
    </g>
</svg>