<svg xmlns="http://www.w3.org/2000/svg" width="130" height="40" viewBox="0 0 130 40"><defs><linearGradient id="a" x1="0%" x2="100%" y1="0%" y2="0%"><stop offset="0%" stop-color="#3588B7"/><stop offset="100%" stop-color="#66FFD4"/></linearGradient><linearGradient id="b" x1="0%" x2="100%" y1="0%" y2="0%"><stop offset="0%" stop-color="#9635C2"/><stop offset="100%" stop-color="#E3424F"/></linearGradient><linearGradient id="c" x1="0%" x2="100%" y1="0%" y2="0%"><stop offset="0%" stop-color="#60CAB6"/><stop offset="100%" stop-color="#D6FFA2"/></linearGradient><linearGradient id="d" x1="0%" x2="100%" y1="0%" y2="0%"><stop offset="0%" stop-color="#FF9877"/><stop offset="100%" stop-color="#FFC466"/></linearGradient></defs><g fill="none" fill-rule="evenodd" opacity=".9"><rect width="129" height="39" x=".5" y=".5" fill="#FFF" stroke="#191919" rx="3"/><path fill="url(#a)" d="M25.1357388,19.4652406 L12.661512,29.0909091 C12.2835052,28.9465241 12,28.513369 12,27.8877005 L12,11.0909091 C12,10.4171123 12.2835052,9.98395722 12.7087629,9.83957219 L25.1357388,19.4652406 L25.1357388,19.4652406 Z"/><path fill="url(#b)" d="M25.1357388,22.6417112 L13.7482818,28.9465241 C13.3230241,29.1871658 12.9450172,29.1871658 12.661512,29.0909091 L22.6314433,18.8395722 L25.1357388,22.6417112 L25.1357388,22.6417112 Z"/><path fill="url(#c)" d="M12.7087629,9.83957219 C12.992268,9.74331551 13.3702749,9.79144385 13.7482818,10.0320856 L25.088488,16.3368984 L22.5841924,20.0427807 L12.7087629,9.83957219 L12.7087629,9.83957219 Z"/><path fill="url(#d)" d="M25.088488,16.3368984 L29.104811,18.5508021 C30.0498282,19.0802139 30.0498282,19.8983957 29.104811,20.4278075 L25.1357388,22.6417112 L22.0171821,19.4652406 L25.088488,16.3368984 L25.088488,16.3368984 Z"/><path fill="#000" d="M62.652921,12.9197861 C64.306701,12.9197861 65.5352234,11.6203209 65.5352234,9.98395722 C65.5352234,8.29946524 64.2594502,7 62.652921,7 C61.0463918,7 59.7706186,8.34759358 59.7706186,9.98395722 C59.7706186,11.6203209 61.0463918,12.9197861 62.652921,12.9197861 L62.652921,12.9197861 Z M62.652921,12.2459893 C61.4243986,12.2459893 60.5266323,11.2352941 60.5266323,9.98395722 C60.5266323,8.73262032 61.4243986,7.67379679 62.652921,7.67379679 C63.8814433,7.67379679 64.8264605,8.73262032 64.8264605,9.98395722 C64.8264605,11.2352941 63.8814433,12.2459893 62.652921,12.2459893 L62.652921,12.2459893 Z M61.9914089,30.197861 C64.3539519,30.197861 66.1967354,28.368984 66.1967354,25.9625668 C66.1967354,23.5561497 64.3539519,21.6791444 61.9914089,21.6791444 C59.628866,21.6791444 57.7860825,23.5561497 57.7860825,25.9625668 C57.7860825,28.368984 59.628866,30.197861 61.9914089,30.197861 L61.9914089,30.197861 Z M61.9914089,28.513369 C60.6683849,28.513369 59.628866,27.3582888 59.628866,25.9625668 C59.628866,24.5187166 60.621134,23.3636364 61.9914089,23.3636364 C63.4089347,23.3636364 64.3539519,24.4705882 64.3539519,25.9625668 C64.3539519,27.3582888 63.314433,28.513369 61.9914089,28.513369 L61.9914089,28.513369 Z M73.3316151,29.8609626 C73.3316151,31.4010695 72.5756014,32.315508 71.1108247,32.315508 C69.5042955,32.315508 69.0317869,30.8235294 69.0317869,30.8235294 L67.4252577,31.4973262 C67.4252577,31.4973262 68.3230241,34 71.1108247,34 C73.6623711,34 75.0798969,32.315508 75.0798969,29.5721925 L75.0798969,21.9679144 L73.3316151,21.9679144 L73.3316151,22.6898396 C73.0008591,22.2085561 72.1030928,21.6791444 71.1108247,21.6791444 C68.8900344,21.6791444 67.0945017,23.6524064 67.0945017,25.9625668 C67.0945017,28.2245989 68.8900344,30.197861 71.1108247,30.197861 C72.1030928,30.197861 72.9536082,29.7647059 73.3316151,29.1390374 L73.3316151,29.8609626 Z M122,21.631016 C122,21.5828877 119.82646,21.5828877 119.82646,21.5828877 L117.60567,27.2620321 L115.195876,21.5828877 L113.116838,21.631016 L116.613402,29.6684492 L114.676117,33.855615 L116.755155,33.855615 L122,21.631016 L122,21.631016 Z M110.565292,30.0053476 L112.408076,30.0053476 L112.408076,24.9518717 C112.408076,22.3529412 110.612543,21.1016043 108.439003,21.1016043 C105.792955,21.1016043 104.989691,23.0748663 104.989691,23.0748663 L106.59622,23.8449198 C106.59622,23.8449198 107.068729,22.8342246 108.439003,22.8342246 C109.431271,22.8342246 110.518041,23.459893 110.518041,24.7112299 C109.006014,23.8449198 104.706186,24.0855615 104.706186,27.2620321 C104.706186,29.6203209 107.021478,30.2941176 107.919244,30.2941176 C109.100515,30.2941176 109.856529,29.8128342 110.47079,28.8502674 L110.565292,30.0053476 Z M87.0343643,28.3208556 L85.5695876,27.3582888 C85.5695876,27.4091402 85.0025773,28.513369 83.5378007,28.513369 C82.6400344,28.513369 81.9312715,28.0802139 81.5060137,27.2139037 L87.0816151,24.855615 C86.5618557,23.2673797 85.3805842,21.6791444 83.3487973,21.6791444 C81.0335052,21.6791444 79.3797251,23.5561497 79.3797251,25.9625668 C79.3797251,28.368984 81.1752577,30.197861 83.5378007,30.197861 C85.1915808,30.197861 86.3728522,29.2834225 87.0343643,28.3208556 Z M52.8247423,30.197861 C55.1872852,30.197861 57.0300687,28.368984 57.0300687,25.9625668 C57.0300687,23.5561497 55.1872852,21.6791444 52.8247423,21.6791444 C50.4621993,21.6791444 48.6194158,23.5561497 48.6194158,25.9625668 C48.6194158,28.368984 50.4621993,30.197861 52.8247423,30.197861 L52.8247423,30.197861 Z M41.8152921,30.197861 C45.5953608,30.197861 48.4304124,27.3101604 47.7689003,22.9786096 L41.8152921,22.9786096 L41.8152921,24.8074866 L46.0206186,24.8074866 C45.7843643,27.0695187 44.1305842,28.368984 41.8152921,28.368984 C39.169244,28.368984 37.137457,26.2513369 37.137457,23.6042781 C37.137457,20.8609626 39.2164948,18.7914439 41.8152921,18.7914439 C43.0438144,18.7914439 44.0833333,19.2245989 44.9810997,20.0909091 L46.2568729,18.7914439 C44.9810997,17.6363636 43.516323,16.9625668 41.8152921,16.9625668 C38.2714777,16.9625668 35.2001718,19.9465241 35.2001718,23.6042781 C35.2001718,27.2620321 38.2242268,30.197861 41.8152921,30.197861 L41.8152921,30.197861 Z M103.194158,30.0053476 L103.194158,17.5882353 L101.351375,17.5882353 L101.351375,30.0053476 L103.194158,30.0053476 L103.194158,30.0053476 Z M95.8230241,17.5882353 L91.5704467,17.5882353 L91.5704467,30.0053476 L93.4132302,30.0053476 L93.4132302,25.1925134 L95.8230241,25.1925134 C98.0910653,25.1925134 99.7448454,23.6524064 99.7448454,21.3903743 C99.7448454,19.1283422 98.0910653,17.5882353 95.8230241,17.5882353 L95.8230241,17.5882353 Z M78.3402062,29.9572193 L78.3402062,17.4438503 L76.4974227,17.4438503 L76.4974227,29.9572193 L78.3402062,29.9572193 L78.3402062,29.9572193 Z M71.2525773,28.513369 C69.8823024,28.513369 68.9372852,27.3582888 68.9372852,25.9625668 C68.9372852,24.5187166 69.8823024,23.3636364 71.2525773,23.3636364 C72.6228522,23.3636364 73.4733677,24.5187166 73.4733677,25.9625668 C73.4733677,27.3582888 72.5756014,28.513369 71.2525773,28.513369 L71.2525773,28.513369 Z M52.8247423,28.513369 C51.5017182,28.513369 50.4621993,27.3582888 50.4621993,25.9625668 C50.4621993,24.5187166 51.4544674,23.3636364 52.8247423,23.3636364 C54.242268,23.3636364 55.1872852,24.4705882 55.1872852,25.9625668 C55.1872852,27.3582888 54.1477663,28.513369 52.8247423,28.513369 L52.8247423,28.513369 Z M108.155498,28.4171123 C107.493986,28.4171123 106.643471,28.1283422 106.643471,27.3101604 C106.643471,25.5775401 109.714777,25.5775401 110.565292,26.3957219 C110.565292,26.8770053 109.667526,28.4171123 108.155498,28.4171123 L108.155498,28.4171123 Z M81.1752577,25.8181818 C81.1752577,24.1336898 82.4982818,23.315508 83.3960481,23.315508 C83.9630584,23.315508 84.6718213,23.6042781 84.9553265,24.2299465 L81.1752577,25.8181818 L81.1752577,25.8181818 Z M95.8702749,19.4171123 C97.1460481,19.4171123 97.854811,20.5240642 97.854811,21.3903743 C97.854811,22.2566845 97.2405498,23.3636364 95.8702749,23.3636364 L93.4132302,23.3636364 L93.4132302,19.4171123 L95.8702749,19.4171123 L95.8702749,19.4171123 Z M38.6494845,9.79144385 L38.6494845,10.4652406 L40.6812715,10.4652406 C40.6340206,11.5721925 39.7362543,12.2459893 38.6494845,12.2459893 C37.4682131,12.2459893 36.475945,11.2834225 36.475945,9.98395722 C36.475945,8.54010695 37.5627148,7.67379679 38.6494845,7.67379679 C39.7362543,7.67379679 40.2087629,8.34759358 40.2087629,8.34759358 L40.6812715,7.86631016 C40.6812715,7.86631016 40.0670103,7 38.6494845,7 C37.0429553,7 35.7671821,8.29946524 35.7671821,9.98395722 C35.7671821,11.5721925 36.9957045,12.9197861 38.6494845,12.9197861 C40.2560137,12.9197861 41.6262887,11.7165775 41.3900344,9.79144385 L38.6494845,9.79144385 Z M67.0945017,12.8235294 L67.0945017,8.15508021 L69.9295533,12.8235294 L70.685567,12.8235294 L70.685567,7.14438503 L69.9768041,7.14438503 L69.9768041,10.4652406 L70.024055,11.5721925 L69.9768041,11.5721925 L67.2835052,7.14438503 L66.3857388,7.14438503 L66.3857388,12.8235294 L67.0945017,12.8235294 L67.0945017,12.8235294 Z M57.7388316,7.81818182 L57.7388316,7.14438503 L53.911512,7.14438503 L53.911512,7.81818182 L55.4707904,7.81818182 L55.4707904,12.8235294 L56.1795533,12.8235294 L56.1795533,7.81818182 L57.7388316,7.81818182 L57.7388316,7.81818182 Z M53.1554983,12.8235294 L53.1554983,7.14438503 L52.4467354,7.14438503 L52.4467354,12.8235294 L53.1554983,12.8235294 L53.1554983,12.8235294 Z M49.9896907,7.81818182 L49.9896907,7.14438503 L46.1623711,7.14438503 L46.1623711,7.81818182 L47.7216495,7.81818182 L47.7216495,12.8235294 L48.4304124,12.8235294 L48.4304124,7.81818182 L49.9896907,7.81818182 L49.9896907,7.81818182 Z M45.54811,7.81818182 L45.54811,7.14438503 L42.2878007,7.14438503 L42.2878007,12.8235294 L45.54811,12.8235294 L45.54811,12.1016043 L42.9965636,12.1016043 L42.9965636,10.3208556 L45.3118557,10.3208556 L45.3118557,9.64705882 L42.9965636,9.64705882 L42.9965636,7.81818182 L45.54811,7.81818182 L45.54811,7.81818182 Z"/></g></svg>