<svg xmlns="http://www.w3.org/2000/svg" width="130" height="40" viewBox="0 0 130 40"><g fill="none" fill-rule="evenodd" opacity=".9"><rect width="130" height="40" fill="#000" rx="3"/><path fill="#FFF" d="M20,29.8 L11,28.5 L11,20.9 L20,20.9 L20,29.8 L20,29.8 Z M20,20.2 L11,20.2 L11,13 L20,11.7 L20,20.2 L20,20.2 Z M32.3,31.5 L20.7,29.8 L20.7,20.9 L32.3,20.9 L32.3,31.5 L32.3,31.5 Z M32.3,20.2 L20.7,20.2 L20.7,11.7 L32.3,10 L32.3,20.2 L32.3,20.2 Z M47.8,15.7 C47.4,15.9 46.5,16.1 45.5,16.1 C44.4,16.1 43.4,15.8 42.7,15.1 C42.1,14.5 41.7,13.5 41.7,12.3 C41.7,10.1 43.2,8.4 45.7,8.4 C46.6,8.4 47.2,8.6 47.6,8.7 L47.4,9.5 C47,9.3 46.5,9.2 45.8,9.2 C44,9.2 42.8,10.3 42.8,12.2 C42.8,14.1 43.9,15.2 45.7,15.2 C46.3,15.2 46.8,15.1 47,15 L47,12.8 L45.5,12.8 L45.5,12 L47.9,12 L47.9,15.7 L47.8,15.7 Z M49.8,13.5 C49.8,14.8 50.7,15.4 51.6,15.4 C52.3,15.4 52.7,15.3 53.1,15.1 L53.3,15.8 C53,16 52.4,16.1 51.5,16.1 C49.9,16.1 48.9,15 48.9,13.4 C48.9,11.8 49.8,10.5 51.4,10.5 C53.1,10.5 53.6,12 53.6,13 L53.6,13.5 L49.8,13.5 L49.8,13.5 Z M52.7,12.8 C52.7,12.2 52.4,11.2 51.4,11.2 C50.4,11.2 50,12.1 49.9,12.8 L52.7,12.8 L52.7,12.8 Z M56,9.1 L56,10.6 L57.4,10.6 L57.4,11.3 L56,11.3 L56,14.2 C56,14.9 56.2,15.2 56.7,15.2 C57,15.2 57.1,15.2 57.3,15.1 L57.3,15.8 C57.1,15.9 56.8,15.9 56.4,15.9 C55.9,15.9 55.6,15.8 55.4,15.5 C55.1,15.2 55,14.7 55,14.1 L55,11.2 L54.2,11.2 L54.2,10.5 L55,10.5 L55,9.2 L56,9.1 L56,9.1 Z M61.9,9.1 C61.9,9.4 61.7,9.7 61.3,9.7 C61,9.7 60.7,9.4 60.7,9.1 C60.7,8.8 61,8.5 61.3,8.5 C61.6,8.5 61.9,8.8 61.9,9.1 L61.9,9.1 Z M60.8,16 L60.8,10.6 L61.8,10.6 L61.8,16 L60.8,16 L60.8,16 Z M64.5,9.1 L64.5,10.6 L65.9,10.6 L65.9,11.3 L64.5,11.3 L64.5,14.2 C64.5,14.9 64.7,15.2 65.2,15.2 C65.5,15.2 65.6,15.2 65.8,15.1 L65.8,15.8 C65.6,15.9 65.3,15.9 64.9,15.9 C64.4,15.9 64.1,15.8 63.9,15.5 C63.6,15.2 63.5,14.7 63.5,14.1 L63.5,11.2 L62.7,11.2 L62.7,10.5 L63.5,10.5 L63.5,9.2 L64.5,9.1 L64.5,9.1 Z M74.1,13.3 C74.1,15.3 72.7,16.2 71.4,16.2 C70,16.2 68.8,15.1 68.8,13.4 C68.8,11.6 70,10.5 71.4,10.5 C73.1,10.5 74.1,11.6 74.1,13.3 L74.1,13.3 Z M69.9,13.3 C69.9,14.5 70.6,15.4 71.5,15.4 C72.4,15.4 73.1,14.5 73.1,13.3 C73.1,12.4 72.6,11.2 71.5,11.2 C70.4,11.2 69.9,12.3 69.9,13.3 L69.9,13.3 Z M75.3,12.1 L75.3,10.6 L76.2,10.6 L76.3,11.5 L76.3,11.5 C76.6,11 77.2,10.5 78.1,10.5 C78.8,10.5 80,10.9 80,12.8 L80,16 L79,16 L79,12.9 C79,12 78.7,11.3 77.8,11.3 C77.2,11.3 76.7,11.8 76.5,12.3 C76.5,12.4 76.4,12.6 76.4,12.8 L76.4,16 L75.4,16 L75.4,12.1 L75.3,12.1 Z M44.3,32.2 L41.6,21.3 L43.1,21.3 L44.4,26.8 C44.7,28.2 45,29.5 45.2,30.6 L45.2,30.6 C45.4,29.5 45.7,28.2 46.1,26.8 L47.5,21.3 L49,21.3 L50.3,26.8 C50.6,28.1 50.9,29.4 51.1,30.5 L51.1,30.5 C51.3,29.3 51.6,28.1 52,26.7 L53.4,21.2 L54.8,21.2 L51.7,32.1 L50.2,32.1 L48.8,26.4 C48.5,25 48.2,23.9 48.1,22.8 L48.1,22.8 C47.9,23.9 47.7,24.9 47.3,26.4 L45.8,32.1 L44.3,32.1 L44.3,32.2 Z M57.3,22.1 C57.3,22.6 57,23 56.4,23 C55.9,23 55.5,22.6 55.5,22.1 C55.5,21.6 55.9,21.2 56.4,21.2 C57,21.3 57.3,21.6 57.3,22.1 L57.3,22.1 Z M55.7,32.2 L55.7,24.4 L57.1,24.4 L57.1,32.2 L55.7,32.2 L55.7,32.2 Z M58.9,26.5 C58.9,25.7 58.9,25 58.8,24.4 L60.1,24.4 L60.2,25.7 L60.2,25.7 C60.6,25 61.5,24.2 62.8,24.2 C63.9,24.2 65.5,24.8 65.5,27.5 L65.5,32.2 L64.1,32.2 L64.1,27.7 C64.1,26.4 63.6,25.4 62.3,25.4 C61.4,25.4 60.6,26.1 60.4,26.9 C60.3,27.1 60.3,27.3 60.3,27.6 L60.3,32.3 L58.9,32.3 L58.9,26.5 L58.9,26.5 Z M74.4,20.7 L74.4,30.2 C74.4,30.9 74.4,31.7 74.5,32.2 L73.2,32.2 L73.1,30.8 L73.1,30.8 C72.7,31.7 71.7,32.3 70.5,32.3 C68.6,32.3 67.2,30.7 67.2,28.3 C67.2,25.7 68.8,24.1 70.7,24.1 C71.9,24.1 72.7,24.7 73,25.3 L73,25.3 L73,20.6 L74.4,20.6 L74.4,20.7 Z M73,27.5 C73,27.3 73,27.1 72.9,26.9 C72.7,26 71.9,25.3 70.9,25.3 C69.4,25.3 68.6,26.6 68.6,28.3 C68.6,29.9 69.4,31.2 70.9,31.2 C71.8,31.2 72.7,30.6 73,29.5 C73,29.3 73.1,29.1 73.1,28.9 L73.1,27.5 L73,27.5 Z M83.3,28.2 C83.3,31.1 81.3,32.4 79.4,32.4 C77.3,32.4 75.7,30.8 75.7,28.4 C75.7,25.8 77.4,24.2 79.6,24.2 C81.8,24.2 83.3,25.8 83.3,28.2 L83.3,28.2 Z M77.2,28.3 C77.2,30 78.2,31.3 79.6,31.3 C80.9,31.3 82,30 82,28.3 C82,27 81.3,25.3 79.7,25.3 C77.9,25.2 77.2,26.8 77.2,28.3 L77.2,28.3 Z M85.1,24.3 L86.1,28.3 C86.3,29.2 86.5,30 86.7,30.8 L86.7,30.8 C86.9,30 87.1,29.2 87.4,28.3 L88.7,24.3 L89.9,24.3 L91.1,28.2 C91.4,29.1 91.6,30 91.8,30.8 L91.8,30.8 C91.9,30 92.1,29.2 92.4,28.3 L93.5,24.4 L94.9,24.4 L92.4,32.2 L91.1,32.2 L89.9,28.5 C89.6,27.6 89.4,26.9 89.2,25.9 L89.2,25.9 C89,26.8 88.8,27.6 88.5,28.5 L87.2,32.2 L86,32.2 L83.7,24.4 L85.1,24.4 L85.1,24.3 Z M96,30.7 C96.4,31 97.2,31.3 97.9,31.3 C98.9,31.3 99.4,30.8 99.4,30.1 C99.4,29.4 99,29 98,28.7 C96.6,28.2 95.9,27.4 95.9,26.5 C95.9,25.2 96.9,24.2 98.6,24.2 C99.4,24.2 100.1,24.4 100.5,24.7 L100.1,25.7 C99.8,25.5 99.2,25.2 98.5,25.2 C97.7,25.2 97.2,25.7 97.2,26.3 C97.2,26.9 97.7,27.2 98.7,27.6 C100,28.1 100.7,28.8 100.7,30 C100.7,31.4 99.6,32.3 97.8,32.3 C96.9,32.3 96.2,32.1 95.6,31.8 L96,30.7 L96,30.7 Z M107.3,23 L107.3,23 L105.5,24 L105.2,22.9 L107.5,21.7 L108.7,21.7 L108.7,32.2 L107.3,32.2 L107.3,23 L107.3,23 Z M118.5,26.8 C118.5,30.4 117.2,32.3 114.9,32.3 C112.9,32.3 111.5,30.4 111.4,26.9 C111.4,23.4 112.9,21.4 115,21.4 C117.3,21.5 118.5,23.5 118.5,26.8 L118.5,26.8 Z M112.8,27 C112.8,29.7 113.6,31.3 114.9,31.3 C116.3,31.3 117,29.6 117,26.9 C117,24.3 116.3,22.6 114.9,22.6 C113.7,22.6 112.8,24.1 112.8,27 L112.8,27 Z"/></g></svg>